<svg width="536" height="482" viewBox="0 0 536 482" fill="none" xmlns="http://www.w3.org/2000/svg">
<path d="M518.359 428.603L470.999 455.931C448.504 468.89 411.891 468.89 389.238 455.931L265.227 386.331C253.848 379.8 248.158 371.23 248.158 362.661C248.105 382.621 248.053 359.003 248 378.964C248 387.533 253.637 396.102 265.069 402.634L389.08 472.234C411.733 485.192 448.346 485.192 470.841 472.234L518.201 444.906C529.37 438.479 534.954 430.014 535.007 421.601C535.059 401.641 535.112 425.259 535.165 405.247C535.165 413.711 529.528 422.176 518.359 428.603Z" fill="#343434"/>
<path d="M518.096 381.629C540.749 394.587 540.854 415.645 518.359 428.603L470.999 455.931C448.504 468.89 411.891 468.89 389.238 455.931L265.227 386.331C242.574 373.373 242.468 352.315 264.963 339.357L312.324 312.081C334.818 299.123 371.432 299.123 394.085 312.081L518.096 381.629Z" fill="#4A4A4A"/>
<mask id="mask0_133_86" style="mask-type:luminance" maskUnits="userSpaceOnUse" x="465" y="426" width="6" height="5">
<path d="M470.788 430.747C469.945 430.276 469.102 429.806 468.259 429.284C467.417 428.813 466.679 428.082 466.152 427.141C465.941 426.775 465.625 426.462 465.309 426.253C466.152 426.723 466.995 427.193 467.838 427.716C468.154 427.925 468.47 428.186 468.681 428.604C469.208 429.545 469.893 430.224 470.788 430.747Z" fill="white"/>
</mask>
<g mask="url(#mask0_133_86)">
<path d="M470.788 430.747L468.259 429.284C467.417 428.813 466.679 428.082 466.152 427.141C465.941 426.775 465.625 426.462 465.309 426.253L467.838 427.716C468.154 427.925 468.47 428.186 468.681 428.604C469.208 429.545 469.893 430.224 470.788 430.747Z" fill="#7F8080"/>
</g>
<path d="M499.025 379.174C498.604 378.912 498.182 378.703 497.761 378.442C497.023 378.024 496.075 378.076 494.969 378.703L459.831 398.82C457.671 400.074 455.932 403.053 455.932 405.561L455.985 425.991C455.985 427.245 456.406 428.081 457.144 428.499C457.987 428.97 458.83 429.44 459.673 429.963C458.988 429.545 458.514 428.708 458.514 427.454L458.461 407.024C458.461 404.568 460.199 401.537 462.359 400.283L497.498 380.166C498.604 379.539 499.605 379.487 500.29 379.905C499.815 379.644 499.447 379.383 499.025 379.174Z" fill="#7F8080"/>
<path d="M497.445 380.166C499.605 378.912 501.396 379.905 501.396 382.413L501.449 402.843C501.449 405.299 499.71 408.33 497.55 409.584L494.442 411.361C493.072 412.144 491.913 413.921 491.281 415.697C489.332 421.288 485.012 426.879 479.955 429.753C474.897 432.627 470.578 432 468.628 428.656C467.996 427.611 466.837 427.141 465.467 427.924L462.412 429.701C460.252 430.955 458.461 429.962 458.461 427.454L458.408 407.024C458.408 404.568 460.147 401.537 462.307 400.283L497.445 380.166Z" fill="#636363"/>
<path d="M439.232 418.833L403.725 398.402L403.62 380.532L439.127 400.963L439.232 418.833Z" fill="#E2E2E8"/>
<path d="M439.127 400.963L403.62 380.532L474.476 339.984L509.93 360.415L439.127 400.963Z" fill="#BCBCBC"/>
<path d="M509.93 360.415L510.036 378.285L439.232 418.833L439.127 400.963L509.93 360.415Z" fill="#CDCDCD"/>
<path d="M362.055 169.12L283.507 124.026L331.763 96.3848L410.31 141.478L362.055 169.12Z" fill="#595A5A"/>
<path d="M410.31 141.479L430.171 168.702C434.807 175.077 437.283 183.959 437.336 194.41L437.81 357.227L335.925 415.645L335.451 252.828C335.398 242.377 337.821 230.673 342.457 219.021L362.107 169.172L410.31 141.479Z" fill="#CDCDCD"/>
<path d="M362.213 168.911L283.507 124.026L263.857 173.875C259.274 185.527 256.85 197.231 256.85 207.682L257.324 370.499L335.872 415.593L335.398 252.775C335.345 242.325 337.769 230.621 342.404 218.968L362.213 168.911Z" fill="#E2E2E8"/>
<path d="M285.351 163.163C284.982 162.954 284.508 162.954 283.928 163.268C283.718 163.372 283.507 163.581 283.244 163.79C279.977 166.978 277.185 171.158 275.394 175.599L270.863 187.042C266.122 199.008 263.646 211.026 263.699 221.738L264.068 353.204C264.068 358.638 265.332 363.341 267.65 366.789C267.703 366.842 267.755 366.894 267.808 366.946C286.51 377.762 305.264 388.526 323.966 399.342C323.913 399.29 323.861 399.238 323.808 399.186C321.49 395.737 320.226 391.034 320.226 385.6L319.857 254.134C319.804 243.422 322.333 231.404 327.021 219.439L331.552 207.995C333.291 203.554 336.083 199.374 339.402 196.187C339.612 195.978 339.823 195.821 340.086 195.664C340.613 195.35 341.14 195.351 341.509 195.56C322.754 184.743 304.053 173.927 285.351 163.163Z" fill="#BCBCBC"/>
<path d="M340.086 195.664C341.561 194.828 342.615 196.082 341.825 198.12L332.816 220.954C328.971 230.673 326.969 240.444 326.969 249.118L327.39 396.05C327.39 397.095 326.231 398.506 325.178 399.081C324.598 399.394 324.071 399.499 323.861 399.133C321.543 395.685 320.278 390.982 320.278 385.548L319.909 254.082C319.857 243.37 322.386 231.352 327.074 219.386L331.605 207.943C333.343 203.502 336.135 199.321 339.454 196.134C339.665 195.925 339.876 195.768 340.086 195.664Z" fill="#9C9C9B"/>
<path d="M393.927 433.986L393.769 375.516L358.63 355.242L358.788 413.712C358.788 415.646 359.473 417.004 360.58 417.631L395.718 437.905C394.612 437.278 393.927 435.919 393.927 433.986Z" fill="#7F8080"/>
<path d="M374.803 341.029C373.697 340.402 372.117 340.455 370.378 341.447L364.794 344.635C361.37 346.568 358.63 351.323 358.63 355.242L393.769 375.516C393.769 371.597 396.508 366.894 399.932 364.909L405.517 361.721C407.255 360.728 408.783 360.624 409.942 361.303C398.194 354.511 386.499 347.77 374.803 341.029Z" fill="#636363"/>
<path d="M405.516 361.722C408.941 359.788 411.733 361.356 411.733 365.222L411.891 423.693C411.891 427.611 409.151 432.314 405.727 434.3L400.143 437.487C396.719 439.42 393.927 437.853 393.927 433.986L393.769 375.516C393.769 371.597 396.508 366.895 399.932 364.909L405.516 361.722Z" fill="#595A5A"/>
<path d="M458.619 311.663C456.828 310.618 454.352 310.775 451.665 312.343L442.709 317.463L496.339 348.396L505.295 343.276C508.034 341.708 510.51 341.551 512.249 342.597L458.619 311.663Z" fill="#939393"/>
<path d="M462.149 324.413C458.672 322.375 455.089 320.337 441.076 312.238C440.075 311.663 438.706 311.768 437.178 312.604L383.812 343.171C380.809 344.895 378.333 349.076 378.333 352.524V354.248L431.962 385.182V383.457C431.962 380.009 434.386 375.829 437.441 374.104L490.807 343.537C492.335 342.649 493.705 342.596 494.706 343.171L462.149 324.413Z" fill="#939393"/>
<path d="M378.333 354.301L369.377 359.421C363.951 362.504 359.579 370.029 359.631 376.194L413.261 407.128C413.261 400.962 417.633 393.438 423.007 390.355L431.962 385.234L378.333 354.301Z" fill="#939393"/>
<path d="M490.807 343.537C493.81 341.813 496.286 343.172 496.286 346.62V348.345L505.242 343.224C510.668 340.141 515.041 342.597 515.093 348.763L413.261 407.128C413.261 400.962 417.633 393.438 423.007 390.355L431.963 385.235V383.51C431.963 380.062 434.386 375.881 437.441 374.157L490.807 343.537Z" fill="#717171"/>
<path d="M350.833 389.153L304.053 362.139L303.895 345.575L350.728 372.59L350.833 389.153Z" fill="white"/>
<path d="M350.728 372.589L303.895 345.575L480.903 243.579L527.736 270.593L350.728 372.589Z" fill="#E0E1E0"/>
<path d="M527.736 270.594L527.842 287.158L350.833 389.154L350.728 372.59L527.736 270.594Z" fill="#ABABAB"/>
<path d="M323.914 342.335L332.764 347.404L488.7 258.105L479.902 252.984L323.914 342.335Z" fill="#838688"/>
<path d="M334.397 348.345L343.195 353.413L499.184 264.114L490.333 259.046L334.397 348.345Z" fill="#838688"/>
<path d="M344.828 354.353L353.678 359.474L509.614 270.123L500.817 265.055L344.828 354.353Z" fill="#838688"/>
<path d="M428.38 374.889L414.103 365.222L413.998 339.253L428.275 361.565L428.38 374.889Z" fill="white"/>
<path d="M428.275 361.564L413.998 339.253L477.689 302.52L491.966 324.831L428.275 361.564Z" fill="#CCCCCC"/>
<path d="M491.966 324.831L492.071 338.103L428.38 374.889L428.275 361.564L491.966 324.831Z" fill="#878A8E"/>
<path d="M314.905 360.258C316.643 359.265 319.014 359.422 321.595 360.937C326.811 363.916 331.025 371.126 330.973 377.083C330.973 380.009 329.919 382.099 328.233 383.092C326.389 384.189 325.178 384.973 323.281 386.071C324.967 385.078 326.021 383.04 326.021 380.062C326.021 374.105 321.806 366.894 316.643 363.916C314.009 362.4 311.639 362.296 309.953 363.236C311.797 362.139 313.061 361.355 314.905 360.258Z" fill="#CCCCCC"/>
<path d="M316.696 363.863C311.481 360.885 307.266 363.288 307.213 369.193C307.213 375.15 311.428 382.36 316.591 385.339C321.806 388.317 326.021 385.914 326.073 380.009C326.073 374.052 321.911 366.842 316.696 363.863Z" fill="#75797B"/>
<path d="M309.69 364.909C311.27 364.02 313.377 364.125 315.748 365.483C320.437 368.2 324.282 374.732 324.23 380.062C324.23 382.726 323.281 384.608 321.754 385.496C320.068 386.436 318.961 387.22 317.276 388.161C318.803 387.272 319.752 385.391 319.752 382.726C319.752 377.345 315.959 370.813 311.27 368.148C308.899 366.79 306.739 366.685 305.212 367.573C306.897 366.633 308.056 365.849 309.69 364.909Z" fill="#CCCCCC"/>
<path d="M311.323 368.148C306.634 365.431 302.788 367.626 302.788 373.008C302.788 378.39 306.581 384.921 311.27 387.586C315.959 390.303 319.804 388.108 319.804 382.726C319.857 377.397 316.011 370.865 311.323 368.148Z" fill="#75797B"/>
<path d="M305.37 369.298C306.739 368.514 308.583 368.619 310.69 369.82C314.8 372.172 318.118 377.867 318.118 382.57C318.118 384.921 317.276 386.541 315.958 387.325C314.483 388.161 313.535 388.788 312.06 389.676C313.377 388.892 314.22 387.273 314.22 384.921C314.22 380.219 310.901 374.523 306.792 372.172C304.737 370.97 302.841 370.865 301.471 371.649C302.946 370.761 303.947 370.134 305.37 369.298Z" fill="#CCCCCC"/>
<path d="M306.792 372.12C302.683 369.768 299.311 371.649 299.311 376.352C299.311 381.055 302.63 386.75 306.739 389.102C310.848 391.453 314.22 389.572 314.22 384.869C314.22 380.167 310.901 374.471 306.792 372.12Z" fill="#75797B"/>
<path d="M402.619 198.277C399.932 196.709 396.245 196.971 392.135 199.27C384.023 203.92 377.437 215.207 377.49 224.455C377.49 229.053 379.123 232.293 381.757 233.808C384.655 235.48 382.389 234.331 385.287 236.003C382.653 234.488 381.02 231.248 381.02 226.65C381.02 217.401 387.552 206.115 395.665 201.464C399.774 199.113 403.462 198.904 406.149 200.472C403.251 198.8 405.516 199.897 402.619 198.277Z" fill="#DDDDDD"/>
<path d="M395.665 201.464C403.778 196.814 410.416 200.524 410.416 209.825C410.468 219.073 403.883 230.36 395.77 235.01C387.657 239.66 381.02 235.951 381.02 226.65C380.967 217.401 387.552 206.115 395.665 201.464Z" fill="#C7C6C5"/>
<path d="M406.254 202.876C403.936 201.517 400.67 201.726 397.088 203.764C389.976 207.84 384.233 217.715 384.286 225.814C384.286 229.838 385.708 232.659 388.026 234.018C390.555 235.481 388.553 234.488 391.082 235.951C388.764 234.645 387.342 231.771 387.342 227.748C387.342 219.648 393.084 209.773 400.143 205.697C403.725 203.659 406.939 203.45 409.31 204.809C406.781 203.346 408.783 204.339 406.254 202.876Z" fill="#DDDDDD"/>
<path d="M400.143 205.697C407.255 201.621 413.05 204.913 413.05 213.012C413.05 221.111 407.308 230.987 400.248 235.062C393.136 239.138 387.341 235.846 387.341 227.747C387.289 219.648 393.031 209.772 400.143 205.697Z" fill="#C7C6C5"/>
<path d="M408.993 207.003C406.991 205.854 404.252 206.011 401.249 207.735C395.244 211.184 390.344 219.544 390.344 226.441C390.344 229.838 391.556 232.241 393.505 233.391C395.665 234.645 393.979 233.809 396.086 235.011C394.137 233.861 392.926 231.457 392.926 228.061C392.926 221.164 397.772 212.803 403.831 209.355C406.886 207.63 409.626 207.474 411.575 208.571C409.467 207.369 411.153 208.205 408.993 207.003Z" fill="#DDDDDD"/>
<path d="M403.831 209.355C409.889 205.906 414.788 208.676 414.788 215.521C414.788 222.418 409.942 230.778 403.883 234.227C397.878 237.676 392.926 234.906 392.926 228.061C392.926 221.216 397.772 212.856 403.831 209.355Z" fill="#C7C6C5"/>
<mask id="mask1_133_86" style="mask-type:luminance" maskUnits="userSpaceOnUse" x="469" y="240" width="10" height="6">
<path d="M478.111 245.617C475.793 244.259 473.423 242.952 471.105 241.594C470.525 241.228 469.998 240.758 469.524 240.131L476.531 244.154C477.005 244.781 477.532 245.252 478.111 245.617Z" fill="white"/>
</mask>
<g mask="url(#mask1_133_86)">
<path d="M478.111 245.617L471.105 241.594C470.525 241.228 469.998 240.758 469.524 240.131L476.531 244.154C477.005 244.781 477.532 245.252 478.111 245.617Z" fill="#9C9C9B"/>
</g>
<path d="M496.602 188.244C494.811 187.251 492.388 187.304 489.543 188.976L466.627 202.039C458.935 206.428 454.141 218.655 458.04 224.089L469.524 240.131L476.531 244.154L465.046 228.113C461.2 222.731 465.942 210.504 473.633 206.062L496.497 192.947C499.342 191.327 501.818 191.223 503.556 192.215C501.238 190.909 498.92 189.603 496.602 188.244Z" fill="#9C9C9B"/>
<path d="M496.497 192.999C504.188 188.61 509.035 195.35 505.189 205.121L493.81 234.226C491.913 239.138 488.542 242.952 485.17 244.885C481.799 246.819 478.427 246.819 476.531 244.154L465.046 228.112C461.2 222.73 465.942 210.503 473.633 206.062L496.497 192.999Z" fill="#E2E2E8"/>
<path d="M395.665 420.609C397.825 414.443 403.725 409.897 407.202 411.935C407.729 412.248 417.844 418.205 418.371 418.466C415.368 416.742 410.521 419.825 407.834 424.841C405.832 428.551 404.99 434.09 408.15 435.918C407.624 435.605 397.509 429.648 396.982 429.387C394.664 428.028 394.348 424.318 395.665 420.609Z" fill="#C4C7CC"/>
<path d="M413.261 418.988C409.257 421.287 406.043 426.826 406.043 431.372C406.043 435.918 409.309 437.747 413.313 435.448C417.317 433.149 420.531 427.61 420.531 423.064C420.478 418.518 417.264 416.689 413.261 418.988Z" fill="#B6B9BD"/>
<path d="M411.206 427.507C412.102 424.946 414.525 423.065 416 423.901C416.211 424.006 426.22 429.858 426.431 429.963C425.167 429.231 423.165 430.537 422.058 432.575C421.215 434.09 420.899 436.39 422.164 437.173C421.953 437.069 411.944 431.217 411.733 431.06C410.785 430.59 410.627 429.022 411.206 427.507Z" fill="#4D4D4D"/>
<path d="M424.271 430.224C422.638 431.164 421.268 433.463 421.268 435.344C421.268 437.225 422.638 438.009 424.271 437.016C425.904 436.076 427.274 433.777 427.274 431.896C427.274 430.015 425.957 429.283 424.271 430.224Z" fill="#343434"/>
<path d="M465.626 228.008L510.299 202.352C510.352 188.349 499.078 173.509 488.437 164.835C483.116 160.498 466.995 147.488 466.995 147.488C458.356 140.747 453.404 136.619 439.654 128.625C419.108 116.607 398.299 106.47 377.754 97.7437L350.149 85.987C344.09 82.4861 338.559 82.1726 334.555 84.4717C313.483 96.5942 310.954 98.005 289.882 110.127C293.885 107.828 299.364 108.142 305.475 111.643L333.08 123.399C353.626 132.126 373.328 143.725 394.032 155.587C415.842 168.075 399.195 158.095 420.847 173.823L441.761 191.536C453.667 198.329 465.678 214.109 465.626 228.008Z" fill="#F2F2F2"/>
<path d="M394.98 154.28C416 167.343 419.424 170.321 428.011 176.905C433.121 180.772 439.022 185.997 443.71 190.491C456.09 202.404 465.573 214.213 465.573 228.008L283.507 124.026C283.56 110.232 293.411 104.693 305.475 111.59L333.08 123.347C353.626 132.125 374.329 142.419 394.98 154.28Z" fill="#BCBCBC"/>
<path d="M285.351 379.173C283.296 372.485 282.928 363.236 288.986 359.735C287.616 360.519 286.194 361.355 284.824 362.139C277.607 366.267 279.398 378.128 282.77 385.757C285.351 391.557 289.565 397.252 294.676 400.91C301.05 405.508 306.107 405.247 309.11 403.523C309.795 403.105 310.533 402.739 311.217 402.321C311.27 402.269 311.375 402.216 311.428 402.216C312.482 401.641 311.902 401.955 313.325 401.119C304.79 406.083 290.198 394.744 285.351 379.173Z" fill="#B0B0B0"/>
<path d="M299.522 361.459C309.005 366.894 316.644 380.009 316.591 390.825C316.538 401.641 308.847 405.978 299.417 400.544C289.934 395.11 282.295 381.995 282.348 371.178C282.348 360.414 290.04 356.025 299.522 361.459ZM303.579 376.247L296.73 362.766C290.724 360.623 285.983 363.288 284.877 369.506L303.579 376.247ZM296.625 396.05L303.526 382.569L284.824 375.777C285.93 383.249 290.619 391.348 296.625 396.05ZM302.156 399.238C308.162 401.38 312.903 398.715 314.01 392.497L309.057 385.704L302.156 399.238Z" fill="#C9C9C9"/>
<path d="M320.436 389.153C318.751 369.82 298.943 350.382 287.405 357.018L283.244 359.422C295.044 352.629 315.379 373.007 316.38 392.654C316.643 397.931 315.326 403.679 310.743 406.344C312.113 405.56 313.535 404.724 314.905 403.94C319.752 401.066 320.911 394.744 320.436 389.153Z" fill="#B0B0B0"/>
<path d="M296.993 360.728C307.688 366.841 316.38 381.785 316.327 393.96C316.275 406.135 307.53 411.099 296.835 404.933C286.141 398.82 277.449 383.928 277.501 371.701C277.554 359.578 286.299 354.614 296.993 360.728ZM296.888 402.425C306.318 407.859 314.062 403.47 314.062 392.706C314.115 381.942 306.423 368.775 296.993 363.341C287.564 357.906 279.819 362.295 279.819 373.059C279.767 383.823 287.458 396.991 296.888 402.425Z" fill="#5E5F5F"/>
<path d="M304.79 375.62C305.37 375.254 306.213 375.306 307.161 375.829C309.005 376.874 310.48 379.434 310.48 381.524C310.48 382.569 310.111 383.301 309.532 383.614C308.899 383.98 308.215 384.346 307.582 384.764C308.162 384.398 308.531 383.666 308.531 382.674C308.531 380.584 307.056 378.023 305.212 376.978C304.263 376.456 303.473 376.403 302.841 376.769C303.473 376.403 304.158 375.985 304.79 375.62Z" fill="#979B9D"/>
<path d="M305.212 376.978C303.368 375.933 301.893 376.769 301.893 378.859C301.893 380.949 303.368 383.51 305.212 384.555C307.056 385.6 308.531 384.764 308.531 382.674C308.531 380.584 307.056 378.023 305.212 376.978Z" fill="#75797B"/>
<path d="M294.201 400.492C294.57 400.283 295.097 400.283 295.676 400.649C296.835 401.328 297.784 402.895 297.731 404.202C297.731 404.829 297.52 405.299 297.099 405.508C296.677 405.769 285.878 411.883 285.456 412.092C285.825 411.883 286.036 411.412 286.088 410.785C286.088 409.479 285.14 407.859 284.034 407.232C283.454 406.919 282.928 406.867 282.559 407.076C282.98 406.867 293.78 400.753 294.201 400.492Z" fill="#979B9D"/>
<path d="M284.034 407.233C282.875 406.553 281.927 407.128 281.927 408.434C281.927 409.741 282.875 411.361 283.981 411.988C285.14 412.667 286.089 412.144 286.089 410.786C286.141 409.479 285.193 407.912 284.034 407.233Z" fill="#75797B"/>
<path d="M479.059 231.77L484.117 222.992L491.071 221.163L494.284 224.403L491.281 235.689L485.539 239.138L480.166 237.361L479.059 231.77Z" fill="#D3D3D3"/>
<path d="M513.565 372.85C514.672 369.245 514.882 364.281 511.616 362.452C512.354 362.87 513.091 363.288 513.829 363.758C517.675 366.005 516.726 372.328 514.935 376.456C513.565 379.591 511.3 382.621 508.561 384.607C505.136 387.063 502.45 386.958 500.817 386.018C500.448 385.809 500.079 385.6 499.71 385.391C499.658 385.391 499.605 385.339 499.605 385.339C499.078 385.025 499.342 385.182 498.604 384.764C503.135 387.272 510.984 381.211 513.565 372.85Z" fill="#B0B0B0"/>
<path d="M515.198 368.566C515.198 374.366 511.089 381.42 506.032 384.294C500.975 387.22 496.813 384.869 496.813 379.069C496.813 373.269 500.922 366.215 505.979 363.341C511.037 360.415 515.198 362.766 515.198 368.566ZM503.819 371.283L513.829 367.626C513.197 364.334 510.668 362.871 507.454 364.02L503.819 371.283ZM507.507 381.89C510.721 379.382 513.249 375.045 513.829 371.022L503.819 374.68L507.507 381.89ZM504.557 383.615L500.869 376.404L498.235 380.062C498.815 383.301 501.343 384.764 504.557 383.615Z" fill="#C9C9C9"/>
<path d="M494.758 378.18C495.654 367.782 506.295 357.384 512.459 360.937L514.672 362.244C508.35 358.586 497.445 369.559 496.918 380.061C496.76 382.883 497.445 385.966 499.921 387.377C499.183 386.959 498.446 386.541 497.708 386.07C495.127 384.607 494.495 381.159 494.758 378.18Z" fill="#B0B0B0"/>
<path d="M517.78 368.88C517.78 375.411 513.144 383.406 507.402 386.698C501.66 389.99 496.971 387.325 496.971 380.793C496.971 374.262 501.607 366.267 507.349 362.975C513.039 359.683 517.727 362.296 517.78 368.88ZM507.402 385.287C512.459 382.361 516.568 375.307 516.568 369.559C516.568 363.759 512.407 361.46 507.349 364.334C502.292 367.26 498.183 374.314 498.183 380.062C498.183 385.862 502.292 388.213 507.402 385.287Z" fill="#5E5F5F"/>
<path d="M503.135 370.917C502.819 370.708 502.344 370.76 501.87 371.022C500.869 371.596 500.079 372.955 500.079 374.052C500.079 374.627 500.29 374.993 500.606 375.202C500.975 375.411 501.291 375.62 501.66 375.829C501.343 375.672 501.133 375.254 501.133 374.679C501.133 373.582 501.923 372.171 502.924 371.649C503.398 371.387 503.872 371.335 504.188 371.544C503.819 371.335 503.503 371.126 503.135 370.917Z" fill="#979B9D"/>
<path d="M502.924 371.649C503.925 371.074 504.715 371.544 504.715 372.642C504.715 373.739 503.925 375.15 502.924 375.672C501.923 376.247 501.133 375.777 501.133 374.68C501.133 373.582 501.923 372.224 502.924 371.649Z" fill="#75797B"/>
<path d="M508.824 384.294C508.613 384.189 508.35 384.189 508.034 384.346C507.402 384.712 506.927 385.548 506.927 386.279C506.927 386.645 507.033 386.854 507.244 387.011C507.454 387.115 513.249 390.407 513.513 390.564C513.302 390.459 513.197 390.198 513.197 389.832C513.197 389.101 513.671 388.265 514.303 387.899C514.619 387.742 514.882 387.69 515.093 387.847C514.83 387.69 509.035 384.398 508.824 384.294Z" fill="#E2E2E2"/>
<path d="M514.25 387.899C514.882 387.533 515.356 387.846 515.356 388.526C515.356 389.205 514.882 390.093 514.25 390.459C513.618 390.825 513.144 390.511 513.144 389.832C513.144 389.1 513.671 388.264 514.25 387.899Z" fill="#939393"/>
<path d="M491.387 224.141L488.436 222.417C489.49 223.044 490.175 224.35 490.175 226.231C490.175 229.994 487.488 234.592 484.222 236.473C482.536 237.413 481.061 237.518 479.955 236.891L482.905 238.615C484.011 239.242 485.486 239.138 487.172 238.197C490.491 236.316 493.125 231.718 493.125 227.956C493.125 226.075 492.493 224.716 491.387 224.141Z" fill="#646464"/>
<path d="M490.28 219.23C488.7 218.342 486.54 218.446 484.169 219.805C479.428 222.522 475.582 229.105 475.582 234.54C475.582 237.205 476.531 239.138 478.111 239.974L481.061 241.698C479.533 240.81 478.585 238.929 478.532 236.212C478.532 230.83 482.325 224.194 487.067 221.477C489.437 220.118 491.597 219.961 493.178 220.902C492.282 220.379 491.281 219.805 490.28 219.23Z" fill="#646464"/>
<path d="M487.172 221.529C491.913 218.812 495.759 221.007 495.812 226.388C495.812 231.77 492.019 238.354 487.277 241.071C482.536 243.788 478.69 241.594 478.638 236.212C478.585 230.83 482.431 224.246 487.172 221.529ZM487.172 238.145C490.491 236.264 493.125 231.666 493.125 227.904C493.125 224.142 490.438 222.626 487.119 224.507C483.853 226.388 481.166 230.987 481.166 234.749C481.219 238.511 483.906 240.026 487.172 238.145Z" fill="#333333"/>
<path d="M307.898 258.471C312.218 260.927 315.695 266.884 315.642 271.795L315.59 294.682C315.59 299.593 312.06 301.579 307.793 299.123L297.309 293.114C292.99 290.658 289.513 284.702 289.565 279.79L289.618 256.904C289.618 251.992 293.148 250.006 297.415 252.462L307.898 258.471Z" fill="#D2D2D2"/>
<path d="M300.207 277.909C300.734 277.595 301.419 277.647 302.209 278.118C303.789 279.006 305.054 281.2 305.054 282.977C305.054 283.865 304.738 284.492 304.211 284.806C303.631 285.119 303.104 285.433 302.525 285.799C303.052 285.485 303.368 284.858 303.368 283.97C303.368 282.193 302.104 279.999 300.523 279.11C299.733 278.64 298.995 278.64 298.521 278.901C299.048 278.588 299.628 278.274 300.207 277.909Z" fill="#58D8FF"/>
<path d="M300.523 279.111C298.943 278.222 297.678 278.954 297.678 280.73C297.678 282.507 298.943 284.702 300.523 285.59C302.103 286.478 303.368 285.747 303.368 283.97C303.368 282.193 302.103 279.999 300.523 279.111Z" fill="#2FBAE5"/>
<path d="M300.207 262.755C300.734 262.442 301.419 262.494 302.209 262.964C303.789 263.853 305.054 266.047 305.054 267.824C305.054 268.712 304.738 269.339 304.211 269.652C303.631 269.966 303.104 270.28 302.525 270.593C303.052 270.28 303.368 269.652 303.368 268.764C303.368 266.988 302.104 264.793 300.523 263.905C299.733 263.434 298.995 263.382 298.521 263.696C299.048 263.434 299.628 263.121 300.207 262.755Z" fill="#E2E2E2"/>
<path d="M300.523 263.957C298.943 263.069 297.678 263.8 297.678 265.577C297.678 267.354 298.943 269.548 300.523 270.437C302.103 271.325 303.368 270.593 303.368 268.817C303.368 267.04 302.103 264.846 300.523 263.957Z" fill="#C7C6C5"/>
<circle cx="5" cy="476" r="5" fill="#2FBAE5"/>
<circle cx="222" cy="383" r="5" fill="#2FBAE5"/>
<path d="M5 474V383H222" stroke="#2FBAE5" stroke-width="2"/>
<circle cx="449" cy="112" r="5" fill="#2FBAE5"/>
<circle cx="476" cy="5" r="5" fill="#2FBAE5"/>
<path d="M476.5 6H449V110" stroke="#2FBAE5" stroke-width="2"/>
<circle cx="10" cy="71" r="5" fill="#2FBAE5"/>
<circle cx="206" cy="173" r="5" fill="#2FBAE5"/>
<path d="M10 72V172.5H206" stroke="#2FBAE5" stroke-width="2"/>
</svg>
