<svg width="270" height="203" viewBox="0 0 270 203" fill="none" xmlns="http://www.w3.org/2000/svg">
<path d="M170.088 98.257L43.2804 171.47L0 146.459L126.808 73.2798L170.088 98.257Z" fill="#E5E5E5"/>
<path d="M66.8418 53.2243V59.022L92.2235 44.3592V38.5952L90.9764 38.7638L66.8418 53.2243Z" fill="#F3F4F4"/>
<path d="M63.2686 51.1676L66.8416 53.2238L92.2233 38.5948L88.6503 36.5049L63.2686 51.1676Z" fill="#EDEDED"/>
<path d="M63.2686 56.9656L66.8416 59.0218L66.8753 53.2578L63.2686 51.2017V56.9656Z" fill="#EDEDED"/>
<path d="M133.009 89.8643L113.459 78.5386V104.729L133.009 116.021L136.144 101.864L133.009 89.8643Z" fill="#3D3D3C"/>
<path d="M94.7516 93.9766L64.8867 111.336L102.976 133.482L132.942 116.055V111.74L94.7516 93.9766Z" fill="#747474"/>
<path d="M94.7516 89.6616L64.8867 107.021L102.976 129.167L132.942 111.74L94.7516 89.6616Z" fill="#C7C6C5"/>
<path d="M102.975 129.201V133.481L64.8857 111.336V107.055L102.975 129.201Z" fill="#3D3D3C"/>
<path d="M121.516 109.415H107.426V113.594H121.516V109.415Z" fill="#757575"/>
<path d="M119.46 110.729C116.696 109.145 112.246 109.145 109.482 110.729C106.718 112.313 106.718 114.875 109.482 116.459C112.246 118.044 116.696 118.044 119.46 116.459C122.19 114.909 122.19 112.313 119.46 110.729Z" fill="#757575"/>
<path d="M119.46 106.347C116.696 104.763 112.246 104.763 109.482 106.347C106.718 107.932 106.718 110.493 109.482 112.111C112.246 113.696 116.696 113.696 119.46 112.111C122.19 110.527 122.19 107.965 119.46 106.347Z" fill="#76777E"/>
<path d="M118.853 106.718C116.426 105.336 112.516 105.336 110.089 106.718C107.662 108.134 107.662 110.392 110.089 111.774C112.516 113.156 116.426 113.156 118.853 111.774C121.28 110.359 121.28 108.134 118.853 106.718Z" fill="#453E3A"/>
<path d="M146.997 81.7744L133.009 89.8642V116.021L146.997 107.965V81.7744Z" fill="#747474"/>
<path d="M149.256 57.8418L113.459 78.5382L133.009 89.8976L168.84 69.1675L149.256 57.8418Z" fill="#9C9C9B"/>
<path d="M98.089 77.9658L28.3145 118.28L66.4039 140.426L136.28 100.044V95.7297L98.089 77.9658Z" fill="#747474"/>
<path d="M98.089 73.5498L28.3145 113.864L66.4039 136.01L136.28 95.6282L98.089 73.5498Z" fill="#C7C6C5"/>
<path d="M146.155 98.4261V82.2465L168.807 69.168L168.84 85.3139L146.155 98.4261Z" fill="#747474"/>
<path d="M142.044 92.527C142.044 91.4821 141.302 91.0439 140.392 91.5832C139.482 92.1225 138.74 93.3697 138.74 94.4483C138.74 95.4933 139.482 95.9315 140.392 95.3921C141.336 94.8528 142.044 93.5719 142.044 92.527Z" fill="#4D4D4D"/>
<path d="M170.694 51.4375L132.908 73.28V90.5719L170.694 68.7294V51.4375Z" fill="#F3F4F4"/>
<path d="M132.908 73.2797V90.5717L110.122 77.4257V60.1338L132.908 73.2797Z" fill="#ECECEC"/>
<path d="M147.908 38.2915L110.122 60.134L132.875 73.2799L170.694 51.4711L147.908 38.2915Z" fill="#EDEDED"/>
<path d="M45.1345 140.628L17.0898 124.516V150.706L45.1682 166.785L48.303 152.594L45.1345 140.628Z" fill="#3D3D3C"/>
<path d="M66.4029 136.111V140.426L28.3135 118.28V113.965L66.4029 136.111Z" fill="#3D3D3C"/>
<path d="M59.1561 132.538L45.1338 140.628L45.1675 166.785L59.1561 158.729V132.538Z" fill="#747474"/>
<path d="M31.0438 116.426L17.0889 124.516L45.1335 140.661L59.1558 132.538L31.0438 116.426Z" fill="#9C9C9B"/>
<path d="M54.2018 143.257C54.2018 142.212 53.4602 141.774 52.5501 142.313C51.64 142.852 50.8984 144.133 50.8984 145.178C50.8984 146.223 51.64 146.661 52.5501 146.122C53.4602 145.583 54.2018 144.302 54.2018 143.257Z" fill="#4D4D4D"/>
<path d="M121.212 80.0889L83.3926 101.931V119.223L121.212 97.3808V80.0889Z" fill="#F3F4F4"/>
<path d="M83.3912 101.931V119.223L60.6387 106.077V88.7852L83.3912 101.931Z" fill="#ECECEC"/>
<path d="M98.4248 66.9429L60.6387 88.7853L83.3912 101.931L121.211 80.0888L98.4248 66.9429Z" fill="#EDEDED"/>
<path d="M77.6279 98.5269L39.8418 120.369V137.661L77.6279 115.819V98.5269Z" fill="#EDEDED"/>
<path d="M39.8424 120.37V137.661L17.0898 124.516V107.224L39.8424 120.37Z" fill="#ECECEC"/>
<path d="M39.8424 118.313L41.0559 126.369L39.8424 132.841L17.0898 119.662V105.167L39.8424 118.313Z" fill="#3D3D3C"/>
<path d="M77.6279 96.6055L39.8418 118.313V132.841L77.6279 111.1V96.6055Z" fill="#4D4D4D"/>
<path d="M54.8759 85.3809L17.0898 107.223L39.8424 120.369L77.6622 98.5605L54.8759 85.3809Z" fill="#F5F5F7"/>
<path d="M165.3 30.9097L109.717 62.561V80.0889L165.3 48.4376V30.9097Z" fill="#F3F4F4"/>
<path d="M109.718 62.5611V80.089L86.6279 66.7745V49.2129L109.718 62.5611Z" fill="#ECECEC"/>
<path d="M142.177 17.562L86.5938 49.2134L109.683 62.5615L165.267 30.9439L142.177 17.562Z" fill="#EDEDED"/>
<path d="M154.65 7.17969L111.942 31.5165V49.0781L154.65 24.7076V7.17969Z" fill="#F3F4F4"/>
<path d="M111.942 31.5166V49.0782L99.7061 41.8985V24.3369L111.942 31.5166Z" fill="#ECECEC"/>
<path d="M142.38 0L99.7061 24.3705L111.942 31.5502L154.616 7.2134L142.38 0Z" fill="#EDEDED"/>
<path d="M86.6954 66.9097L16.9209 107.224L39.8757 120.505L109.751 80.123V75.8084L86.6954 66.9097Z" fill="#9C9C9B"/>
<path d="M86.6954 62.5273L16.9209 102.842L39.8757 116.122L109.751 75.7407L86.6954 62.5273Z" fill="#9C9C9B"/>
<path d="M39.8757 116.19V120.504L16.9209 107.224V102.943L39.8757 116.19Z" fill="#3D3D3C"/>
<path d="M86.6272 62.2583L70.751 71.4605L93.7058 84.7412L109.717 75.4716V73.3144L86.6272 62.2583Z" fill="#9C9C9B"/>
<path d="M86.6272 60.0332L70.751 69.2691L93.7058 82.4824L109.717 73.2128L86.6272 60.0332Z" fill="#9C9C9B"/>
<path d="M93.7068 82.5835V84.7408L70.752 71.46V69.269L93.7068 82.5835Z" fill="#747474"/>
<path d="M73.6846 89.0889L39.876 108.639V116.19L73.6846 96.6731V89.0889Z" fill="#F3F4F4"/>
<path d="M39.8759 108.639V116.189L19.5166 104.425V96.875L39.8759 108.639Z" fill="#ECECEC"/>
<path d="M53.2901 77.3252L19.4814 96.8755L39.8408 108.639L73.6494 89.1228L53.2901 77.3252Z" fill="#EDEDED"/>
<path d="M93.5369 102.438L94.8178 103.179L94.1437 104.359C93.9751 105.471 93.301 106.617 92.4246 107.325L91.7504 108.539L90.4696 107.797C90.0651 107.561 89.8291 107.089 89.8291 106.381C89.8291 104.999 90.8066 103.314 92.0201 102.606C92.5931 102.235 93.1324 102.202 93.5369 102.438Z" fill="#747474"/>
<path d="M93.6047 105.808C93.5035 106.011 93.3687 106.213 93.2339 106.381L90.2002 104.629C90.3013 104.426 90.4024 104.224 90.5373 104.022L93.6047 105.808Z" fill="#76777E"/>
<path d="M94.3797 103.955L94.1775 104.292L91.6494 102.842C91.7842 102.741 91.8854 102.64 92.0202 102.573L94.3797 103.955Z" fill="#76777E"/>
<path d="M94.5142 103.719L92.3232 102.438C92.7951 102.235 93.2333 102.269 93.5704 102.438L94.8513 103.179L94.5142 103.719Z" fill="#76777E"/>
<path d="M95.4581 104.561C95.4581 103.179 94.4806 102.606 93.2672 103.314C92.0537 104.022 91.0762 105.707 91.0762 107.089C91.0762 108.471 92.0537 109.044 93.2672 108.37C94.4806 107.662 95.4581 105.977 95.4581 104.561Z" fill="#747474"/>
<path d="M93.0643 98.8313C89.8284 100.685 87.1992 105.269 87.1992 109.011C87.1992 112.752 89.8284 114.269 93.0643 112.382C96.3002 110.528 98.9294 105.944 98.9294 102.202C98.9294 98.4942 96.3002 96.9774 93.0643 98.8313ZM97.8508 102.842C97.8508 103.618 97.716 104.46 97.4463 105.303L93.5699 104.966V99.8425C95.9969 98.7639 97.8508 100.011 97.8508 102.842ZM92.525 100.449V105.573L88.6486 110.359C88.379 109.82 88.2442 109.179 88.2442 108.371C88.2442 105.539 90.1318 102.135 92.525 100.449ZM93.0643 111.168C91.4801 112.078 90.0981 111.977 89.188 111.135L93.0643 106.348L96.907 106.685C96.0306 108.539 94.6486 110.258 93.0643 111.168Z" fill="#C7C6C5"/>
<path d="M93.5028 99.2693C90.2669 101.123 87.6377 105.707 87.6377 109.415C87.6377 113.157 90.2669 114.674 93.5028 112.786C96.7387 110.932 99.3679 106.348 99.3679 102.64C99.3679 98.9322 96.7387 97.4154 93.5028 99.2693ZM98.2893 103.28C98.2893 104.089 98.1544 104.898 97.8848 105.741L94.0084 105.404V100.28C96.4354 99.2018 98.2893 100.415 98.2893 103.28ZM92.9635 100.887V106.011L89.1208 110.831C88.8512 110.292 88.7163 109.617 88.7163 108.842C88.6826 105.977 90.5703 102.573 92.9635 100.887ZM93.5028 111.606C91.9186 112.516 90.5365 112.449 89.6601 111.572L93.5028 106.786L97.3455 107.123C96.4691 108.977 95.0871 110.696 93.5028 111.606Z" fill="#747474"/>
<path d="M101.628 108.1C101.392 107.763 100.92 107.527 100.617 107.426C100.381 107.324 100.179 107.257 99.9427 107.156C99.5382 106.987 99.1337 106.819 98.7967 106.65C98.6281 106.583 98.527 106.482 98.4259 106.381C98.3248 106.28 98.2911 106.212 98.2911 106.212C98.1562 106.01 97.9877 105.909 97.8529 105.942C97.4821 106.111 97.4484 106.617 97.5832 106.853C97.718 107.088 97.9203 107.257 98.0888 107.19C98.0888 107.19 98.1562 107.156 98.2236 107.19C98.3248 107.19 98.4596 107.257 98.5944 107.358C98.8978 107.56 99.3023 107.864 99.7405 108.167C100.145 108.47 100.549 108.808 100.887 108.942C101.257 109.077 101.527 109.044 101.696 108.774C101.797 108.538 101.763 108.302 101.628 108.1Z" fill="#C7C6C5"/>
<path d="M98.8643 107.021C99.235 107.392 99.6395 107.729 100.044 107.999C100.347 108.201 100.718 108.47 101.089 108.504C101.493 108.538 101.392 108.1 101.19 107.897C101.055 107.796 100.92 107.729 100.752 107.661L98.8643 107.021Z" fill="#747474"/>
<path d="M152.02 72.9768L148.312 77.1903L147.975 76.988C147.605 76.7521 147.335 76.2802 147.335 75.606C147.335 74.224 148.312 72.5386 149.492 71.8645C150.099 71.5274 150.638 71.4937 151.009 71.6959L151.245 71.8308C151.312 71.8645 151.38 71.8982 151.447 71.9656C151.784 72.1679 151.953 72.5049 152.02 72.9768Z" fill="#747474"/>
<path d="M152.021 73.2799C152.021 74.6619 151.043 76.3809 149.83 77.0551C149.729 77.1225 149.661 77.1562 149.56 77.1899C149.156 77.3585 148.785 77.3922 148.481 77.291C148.347 77.2573 148.212 77.1899 148.111 77.0551C147.807 76.8191 147.639 76.3809 147.639 75.7742C147.639 74.3922 148.616 72.7068 149.796 71.999C150.369 71.6619 150.875 71.6282 151.245 71.7967C151.313 71.8304 151.38 71.8641 151.448 71.9316C151.717 72.1338 151.886 72.5046 151.953 72.9428C152.021 73.0776 152.021 73.1787 152.021 73.2799Z" fill="#747474"/>
<path d="M149.762 76.7517C149.627 76.8191 149.526 76.7517 149.526 76.6168V72.8079C149.526 72.6731 149.627 72.4708 149.762 72.4034C149.897 72.336 149.998 72.4034 149.998 72.5382V76.3472C149.998 76.482 149.897 76.6843 149.762 76.7517Z" fill="#E2E2E2"/>
<path d="M150.099 72.4714V76.2803C150.099 76.4152 149.998 76.6174 149.863 76.6848C149.728 76.7523 149.627 76.6848 149.627 76.55V72.7411C149.627 72.6062 149.728 72.404 149.863 72.3366C149.964 72.2355 150.099 72.3029 150.099 72.4714Z" fill="#C7C6C5"/>
<path d="M157.211 78.3698L156.84 78.9766L150.099 74.9654L149.627 74.6957V73.853L150.099 74.1227L157.211 78.3698Z" fill="#E2E2E2"/>
<path d="M158.054 78.7744C158.054 79.28 157.649 79.7182 157.11 79.7182C156.604 79.7182 156.166 79.28 156.166 78.7744C156.166 78.2688 156.571 77.8306 157.11 77.8306C157.649 77.8306 158.054 78.2688 158.054 78.7744Z" fill="#453E3A"/>
<path d="M157.785 78.5046C157.785 78.7068 157.616 78.8754 157.414 78.8754C157.211 78.8754 157.043 78.7068 157.043 78.5046C157.043 78.3023 157.211 78.1338 157.414 78.1338C157.616 78.1338 157.785 78.3023 157.785 78.5046Z" fill="#C6C6C6"/>
<path d="M106.684 98.3246L102.977 102.538L102.639 102.302C102.269 102.066 101.999 101.594 101.999 100.92C101.999 99.5381 102.977 97.8527 104.156 97.1786C104.763 96.8415 105.302 96.8078 105.673 97.0437L105.909 97.1786C105.977 97.2123 106.044 97.246 106.111 97.3134C106.448 97.5156 106.617 97.8527 106.684 98.3246Z" fill="#747474"/>
<path d="M106.684 98.628C106.684 100.01 105.706 101.729 104.493 102.403C104.392 102.437 104.324 102.504 104.223 102.538C103.819 102.707 103.448 102.74 103.144 102.639C103.01 102.605 102.875 102.538 102.774 102.403C102.47 102.167 102.302 101.695 102.302 101.122C102.302 99.7404 103.279 98.055 104.493 97.3471C105.066 97.01 105.571 96.9763 105.942 97.1449C106.01 97.1786 106.077 97.2123 106.144 97.2797C106.414 97.482 106.583 97.8527 106.65 98.2909C106.684 98.4258 106.684 98.5269 106.684 98.628Z" fill="#747474"/>
<path d="M104.425 102.1C104.291 102.168 104.189 102.1 104.189 101.965V98.1565C104.189 98.0217 104.291 97.8194 104.425 97.752C104.56 97.6846 104.661 97.752 104.661 97.8869V101.696C104.661 101.831 104.56 102.033 104.425 102.1Z" fill="#E2E2E2"/>
<path d="M104.729 97.8191V101.628C104.729 101.763 104.628 101.965 104.493 102.032C104.358 102.1 104.257 102.032 104.257 101.898V98.0887C104.257 97.9539 104.358 97.7516 104.493 97.6842C104.628 97.5831 104.729 97.6505 104.729 97.8191Z" fill="#C7C6C5"/>
<path d="M111.875 103.684L111.504 104.325L104.729 100.314L104.291 100.044V99.2012L104.729 99.4708L111.875 103.684Z" fill="#747474"/>
<path d="M112.718 104.123C112.718 104.628 112.313 105.066 111.774 105.066C111.268 105.066 110.83 104.662 110.83 104.123C110.83 103.617 111.268 103.179 111.774 103.179C112.313 103.179 112.718 103.617 112.718 104.123Z" fill="#76777E"/>
<path d="M112.448 103.853C112.448 104.055 112.279 104.223 112.077 104.223C111.875 104.223 111.706 104.055 111.706 103.853C111.706 103.65 111.875 103.482 112.077 103.482C112.279 103.482 112.448 103.65 112.448 103.853Z" fill="#C7C6C5"/>
<path d="M113.123 94.7517L112.819 94.2124L116.325 92.1562L116.662 92.6956L113.123 94.7517Z" fill="#E2E2E2"/>
<path d="M119.662 89.6616C119.224 89.6616 118.752 89.965 118.482 90.2009C118.28 90.3695 118.111 90.538 117.909 90.7066C117.572 91.0436 117.201 91.347 116.898 91.5492C116.797 91.6167 116.729 91.6841 116.594 91.7178C116.426 91.7515 116.291 91.6504 116.123 91.7178C115.988 91.7852 115.819 91.92 115.819 92.0549C115.786 92.5942 116.224 93.0324 116.493 93.0998C116.628 93.1335 116.797 93.1335 116.898 93.0324C116.999 92.9312 116.999 92.7964 117.1 92.6616C117.168 92.5268 117.302 92.4593 117.403 92.3919C117.741 92.2234 118.212 91.9874 118.718 91.8189C119.224 91.6167 119.763 91.4818 120.066 91.2122C120.403 90.9425 120.505 90.6054 120.336 90.2009C120.201 89.8302 119.932 89.6953 119.662 89.6616Z" fill="#C7C6C5"/>
<path d="M116.898 91.9534C117.606 91.6838 118.415 91.4141 118.921 91.2456C119.292 91.1108 119.73 90.9422 120 90.6051C120.303 90.2344 119.898 89.8973 119.595 89.9647C119.426 89.9984 119.191 90.1332 119.022 90.2344L116.898 91.9534Z" fill="#747474"/>
<path d="M110.021 97.8865C109.111 97.8865 108.538 97.1449 108.538 95.9989C108.538 94.3472 109.684 92.3585 111.1 91.5495C111.504 91.3135 111.909 91.1787 112.28 91.1787C113.19 91.1787 113.763 91.9203 113.763 93.0663C113.763 94.718 112.617 96.7067 111.201 97.5157C110.796 97.7854 110.392 97.8865 110.021 97.8865Z" fill="#747474"/>
<path d="M113.695 93.1004C113.695 91.4824 112.549 90.842 111.167 91.6509C109.751 92.4599 108.639 94.415 108.639 96.0329C108.639 97.6509 109.785 98.2913 111.167 97.516C112.549 96.6734 113.695 94.7183 113.695 93.1004Z" fill="#9C9C9B"/>
<path d="M112.313 92.561L114.706 93.943L114.2 94.8531C114.066 95.6958 113.56 96.5722 112.886 97.1115L112.347 98.0216L109.953 96.6396C109.65 96.4711 109.481 96.1003 109.481 95.561C109.481 94.5161 110.223 93.2015 111.133 92.6959C111.605 92.4262 112.01 92.3925 112.313 92.561Z" fill="#9C9C9B"/>
<path d="M115.178 95.0216C115.178 93.9767 114.437 93.5385 113.527 94.0778C112.617 94.6171 111.875 95.898 111.875 96.943C111.875 97.9879 112.617 98.4261 113.527 97.8868C114.437 97.3812 115.178 96.1003 115.178 95.0216Z" fill="#9C9C9B"/>
<path d="M123.336 35.5955L122.999 35.0562L126.505 33L126.842 33.5393L123.336 35.5955Z" fill="#E2E2E2"/>
<path d="M129.842 30.5054C129.403 30.5054 128.931 30.8087 128.662 31.0447C128.46 31.2132 128.257 31.3818 128.089 31.5503C127.752 31.8874 127.381 32.1907 127.078 32.393C126.976 32.4604 126.909 32.5278 126.774 32.5615C126.606 32.5952 126.471 32.4941 126.302 32.5615C126.167 32.6289 125.999 32.7301 125.999 32.8986C125.965 33.4379 126.403 33.8761 126.673 33.9435C126.808 33.9772 126.976 33.9772 127.078 33.8761C127.179 33.775 127.212 33.6402 127.28 33.5053C127.347 33.3705 127.482 33.3031 127.583 33.2357C127.92 33.0671 128.392 32.8312 128.898 32.6626C129.403 32.4604 129.943 32.3256 130.246 32.0559C130.583 31.7863 130.684 31.4492 130.516 31.0784C130.381 30.6402 130.111 30.5054 129.842 30.5054Z" fill="#C7C6C5"/>
<path d="M127.078 32.7972C127.786 32.5275 128.595 32.2579 129.101 32.0893C129.471 31.9545 129.91 31.786 130.179 31.4489C130.483 31.0781 130.078 30.741 129.775 30.8085C129.606 30.8422 129.37 30.977 129.202 31.0781L127.078 32.7972Z" fill="#747474"/>
<path d="M120.234 38.7298C119.324 38.7298 118.751 37.9882 118.751 36.8421C118.751 35.1905 119.897 33.2017 121.313 32.3928C121.717 32.1568 122.122 32.022 122.493 32.022C123.403 32.022 123.976 32.7635 123.976 33.9096C123.976 35.5275 122.83 37.55 121.414 38.359C120.976 38.6286 120.571 38.7298 120.234 38.7298Z" fill="#747474"/>
<path d="M123.874 33.9436C123.874 32.3257 122.728 31.6852 121.346 32.4942C119.931 33.3032 118.818 35.2582 118.818 36.8762C118.818 38.4941 119.964 39.1346 121.346 38.3256C122.762 37.5166 123.874 35.5279 123.874 33.9436Z" fill="#9C9C9B"/>
<path d="M122.493 33.4042L124.886 34.7862L124.346 35.6963C124.212 36.539 123.706 37.4154 123.032 37.9547L122.526 38.8648L120.133 37.4828C119.83 37.3143 119.661 36.9435 119.661 36.4042C119.661 35.3593 120.403 34.0447 121.313 33.5391C121.785 33.2357 122.189 33.2357 122.493 33.4042Z" fill="#9C9C9B"/>
<path d="M125.391 35.8649C125.391 34.82 124.65 34.3818 123.74 34.9211C122.829 35.4604 122.088 36.7413 122.088 37.7862C122.088 38.8312 122.829 39.2694 123.74 38.7637C124.616 38.2244 125.391 36.9098 125.391 35.8649Z" fill="#9C9C9B"/>
<path d="M133.043 73.2798L121.212 80.1224V97.4144L133.043 90.6054V73.2798Z" fill="#747474"/>
<path d="M115.481 76.7859L127.313 70.0444L133.043 73.2804L121.212 80.123L115.481 76.7859Z" fill="#C7C6C5"/>
<path d="M137.257 84.2014C136.346 84.2014 135.773 83.4599 135.773 82.3138C135.773 80.6622 136.919 78.6734 138.335 77.8644C138.74 77.6285 139.144 77.4937 139.515 77.4937C140.425 77.4937 140.998 78.2352 140.998 79.3813C140.998 80.9992 139.852 83.0217 138.436 83.8307C137.998 84.1003 137.627 84.2014 137.257 84.2014Z" fill="#747474"/>
<path d="M140.931 79.4148C140.931 77.7969 139.785 77.1564 138.403 77.9654C136.987 78.7744 135.875 80.7294 135.875 82.3474C135.875 83.9653 137.021 84.6395 138.403 83.8305C139.785 82.9878 140.931 81.0328 140.931 79.4148Z" fill="#9C9C9B"/>
<path d="M139.515 78.8758L141.908 80.2579L141.369 81.168C141.234 82.0106 140.728 82.887 140.088 83.4264L139.549 84.3365L137.156 82.9207C136.852 82.7522 136.684 82.3814 136.684 81.8421C136.684 80.7972 137.425 79.4826 138.335 78.977C138.807 78.741 139.245 78.7073 139.515 78.8758Z" fill="#9C9C9B"/>
<path d="M142.414 81.3366C142.414 80.2916 141.672 79.8534 140.762 80.3928C139.852 80.9321 139.11 82.213 139.11 83.2579C139.11 84.3028 139.852 84.741 140.762 84.2354C141.672 83.6961 142.414 82.4152 142.414 81.3366Z" fill="#9C9C9B"/>
<path d="M139.719 75.5982L139.079 75.6187L139.215 79.8637L139.855 79.8432L139.719 75.5982Z" fill="#E2E2E2"/>
<path d="M138.437 71.3249C138.201 71.7294 138.269 72.3024 138.336 72.6732C138.403 72.9429 138.437 73.1788 138.505 73.4485C138.639 73.9204 138.741 74.426 138.774 74.7968C138.808 74.9316 138.808 75.0327 138.774 75.1676C138.707 75.3361 138.572 75.4035 138.538 75.5721C138.505 75.7406 138.572 75.9428 138.707 76.0103C139.179 76.3136 139.819 76.1114 139.988 75.9091C140.089 75.808 140.156 75.6395 140.123 75.5046C140.089 75.3698 139.954 75.2687 139.887 75.1339C139.819 74.999 139.785 74.8642 139.785 74.6957C139.785 74.2912 139.819 73.7519 139.887 73.1788C139.954 72.6058 140.089 72.0665 139.988 71.6283C139.887 71.1901 139.651 70.9204 139.212 70.8867C138.808 70.9204 138.572 71.089 138.437 71.3249Z" fill="#C7C6C5"/>
<path d="M139.179 74.9991C139.28 74.2239 139.449 73.3475 139.516 72.8081C139.584 72.4037 139.651 71.898 139.449 71.4936C139.247 71.0554 138.741 71.2239 138.64 71.561C138.572 71.7295 138.572 72.0329 138.606 72.2014L139.179 74.9991Z" fill="#747474"/>
<path d="M139.886 79.6842C140.088 79.7854 140.088 79.9876 139.886 80.0887C139.684 80.1899 139.347 80.1899 139.178 80.0887C138.976 79.9876 138.976 79.7854 139.178 79.6842C139.38 79.5831 139.684 79.5831 139.886 79.6842Z" fill="#E2E2E2"/>
<path d="M160.212 71.1902C159.302 71.1902 158.729 70.4487 158.729 69.3026C158.729 67.6509 159.875 65.6622 161.29 64.8532C161.695 64.6173 162.099 64.4824 162.47 64.4824C163.38 64.4824 163.953 65.224 163.953 66.37C163.953 68.0217 162.807 70.0105 161.391 70.8194C160.987 71.0554 160.582 71.1902 160.212 71.1902Z" fill="#747474"/>
<path d="M163.885 66.3704C163.885 64.7524 162.739 64.112 161.357 64.921C159.941 65.7299 158.829 67.685 158.829 69.3029C158.829 70.9209 159.975 71.5613 161.357 70.7861C162.739 69.9434 163.885 67.9883 163.885 66.3704Z" fill="#9C9C9B"/>
<path d="M162.504 65.831L164.897 67.2131L164.391 68.1232C164.257 68.9658 163.751 69.8422 163.111 70.3816L162.571 71.2917L160.178 69.9097C159.875 69.7411 159.706 69.3703 159.706 68.831C159.706 67.7861 160.448 66.4715 161.358 65.9659C161.762 65.6962 162.2 65.6625 162.504 65.831Z" fill="#9C9C9B"/>
<path d="M165.369 68.3253C165.369 67.2804 164.627 66.8422 163.717 67.3815C162.807 67.9209 162.065 69.2017 162.065 70.2467C162.065 71.2916 162.807 71.7298 163.717 71.1905C164.627 70.6512 165.369 69.3703 165.369 68.3253Z" fill="#9C9C9B"/>
<path d="M162.807 66.8077H162.167L162.032 62.5942L162.673 62.5605L162.807 66.8077Z" fill="#E2E2E2"/>
<path d="M161.392 58.2795C161.156 58.684 161.224 59.257 161.291 59.6278C161.359 59.8975 161.392 60.1334 161.46 60.4031C161.594 60.875 161.696 61.3806 161.729 61.7514C161.763 61.8862 161.763 61.9873 161.729 62.1222C161.662 62.2907 161.527 62.3581 161.493 62.5266C161.46 62.6615 161.527 62.8974 161.662 62.9648C162.134 63.2682 162.774 63.066 162.943 62.8637C163.044 62.7626 163.111 62.5941 163.078 62.4592C163.044 62.2907 162.909 62.2233 162.842 62.0884C162.774 61.9536 162.741 61.8188 162.741 61.6503C162.741 61.2458 162.774 60.7064 162.842 60.1334C162.909 59.5604 163.044 58.9874 162.943 58.5829C162.842 58.1447 162.606 57.875 162.167 57.8413C161.797 57.875 161.527 58.0435 161.392 58.2795Z" fill="#C7C6C5"/>
<path d="M162.133 61.9538C162.234 61.1785 162.403 60.3021 162.47 59.7628C162.538 59.3583 162.605 58.8527 162.403 58.4482C162.201 57.9763 161.695 58.1786 161.594 58.5156C161.527 58.6842 161.527 58.9875 161.56 59.1561L162.133 61.9538Z" fill="#747474"/>
<path d="M162.874 66.6393C163.076 66.7404 163.076 66.9427 162.874 67.0438C162.672 67.1449 162.369 67.1449 162.166 67.0438C161.964 66.9427 161.964 66.7404 162.166 66.6393C162.335 66.5382 162.672 66.5382 162.874 66.6393Z" fill="#E2E2E2"/>
<path d="M159.368 44.4937H159.907L159.873 46.3813H159.334L159.368 44.4937Z" fill="#E2E2E2"/>
<path d="M160.346 49.9203C160.548 49.5833 160.514 49.1114 160.447 48.808C160.413 48.6057 160.38 48.3698 160.312 48.1675C160.211 47.7631 160.144 47.3586 160.11 47.0552C160.11 46.9541 160.076 46.8529 160.11 46.7518C160.144 46.617 160.278 46.5496 160.312 46.4147C160.346 46.2799 160.312 46.1114 160.177 46.044C159.773 45.7743 159.267 45.9428 159.099 46.1114C159.031 46.2125 158.964 46.3136 158.964 46.4485C158.998 46.5833 159.099 46.6507 159.166 46.7518C159.234 46.8529 159.234 46.9878 159.234 47.1226C159.234 47.4597 159.2 47.8979 159.099 48.3698C159.031 48.8417 158.93 49.3136 158.998 49.6507C159.065 50.0215 159.267 50.2574 159.638 50.2574C160.009 50.2911 160.211 50.1226 160.346 49.9203Z" fill="#C7C6C5"/>
<path d="M159.808 46.8867C159.706 47.5272 159.572 48.235 159.471 48.7069C159.403 49.044 159.336 49.4485 159.504 49.7856C159.673 50.1563 160.077 50.0215 160.178 49.7519C160.212 49.617 160.246 49.3811 160.212 49.2125L159.808 46.8867Z" fill="#747474"/>
<path d="M159.334 44.595C159.166 44.4939 159.166 44.3254 159.334 44.258C159.503 44.1568 159.773 44.1568 159.941 44.258C160.11 44.3591 160.11 44.4939 159.941 44.595C159.773 44.6962 159.503 44.6962 159.334 44.595Z" fill="#E2E2E2"/>
<path d="M157.716 45.5393C156.975 45.5393 156.503 44.9325 156.503 43.9887C156.503 42.6404 157.447 40.9887 158.626 40.3146C158.964 40.1124 159.301 40.0112 159.604 40.0112C160.346 40.0112 160.817 40.618 160.817 41.5618C160.817 42.9101 159.874 44.5617 158.694 45.2359C158.323 45.4381 158.02 45.5393 157.716 45.5393Z" fill="#747474"/>
<path d="M160.75 41.5281C160.75 40.1798 159.806 39.6405 158.66 40.3146C157.514 40.9888 156.57 42.6068 156.57 43.9551C156.57 45.3034 157.514 45.8427 158.66 45.1685C159.806 44.5281 160.75 42.8764 160.75 41.5281Z" fill="#9C9C9B"/>
<path d="M159.605 41.0902L161.593 42.2362L161.155 42.9778C161.054 43.6519 160.616 44.3935 160.077 44.8317L159.638 45.5733L157.65 44.4609C157.414 44.3261 157.245 44.0227 157.245 43.5845C157.245 42.7081 157.852 41.6295 158.627 41.1913C158.998 40.9891 159.335 40.9553 159.605 41.0902Z" fill="#9C9C9B"/>
<path d="M161.997 43.1461C161.997 42.2697 161.391 41.8989 160.615 42.3709C159.84 42.809 159.233 43.8877 159.233 44.7641C159.233 45.6405 159.84 46.0113 160.615 45.5731C161.357 45.1012 161.997 44.0225 161.997 43.1461Z" fill="#9C9C9B"/>
<path d="M159.874 41.8984H159.334L159.301 40.0444L159.84 40.0107L159.874 41.8984Z" fill="#E2E2E2"/>
<path d="M158.762 36.4719C158.56 36.8089 158.627 37.2808 158.694 37.5842C158.728 37.7865 158.795 38.0224 158.829 38.2246C158.93 38.6291 159.031 39.0336 159.065 39.337C159.099 39.4381 159.099 39.5392 159.065 39.6404C159.031 39.7752 158.897 39.8426 158.863 39.9774C158.829 40.1123 158.897 40.2808 158.998 40.3482C159.402 40.5842 159.908 40.4493 160.076 40.2471C160.144 40.146 160.211 40.0111 160.177 39.91C160.144 39.7752 160.043 39.7078 159.975 39.6067C159.908 39.5055 159.874 39.3707 159.874 39.2359C159.874 38.8988 159.908 38.4606 159.975 37.9887C160.043 37.5168 160.144 37.0449 160.076 36.7078C160.009 36.337 159.807 36.1011 159.436 36.1011C159.099 36.1348 158.897 36.2696 158.762 36.4719Z" fill="#C7C6C5"/>
<path d="M159.402 39.5057C159.469 38.8653 159.604 38.1574 159.671 37.6855C159.739 37.3484 159.772 36.944 159.638 36.6069C159.469 36.2361 159.065 36.4046 158.963 36.6406C158.93 36.7754 158.93 37.0114 158.93 37.1799L159.402 39.5057Z" fill="#747474"/>
<path d="M159.908 41.7975C160.076 41.8986 160.076 42.0335 159.908 42.1346C159.739 42.2357 159.47 42.2357 159.301 42.1346C159.133 42.0335 159.133 41.8986 159.301 41.7975C159.47 41.6964 159.739 41.6964 159.908 41.7975Z" fill="#E2E2E2"/>
<path d="M148.21 50.5615H148.749V52.4154H148.21V50.5615Z" fill="#E2E2E2"/>
<path d="M149.188 55.9877C149.39 55.6506 149.323 55.1787 149.289 54.8754C149.255 54.6731 149.221 54.4372 149.154 54.2349C149.053 53.8304 148.985 53.426 148.952 53.1226C148.952 53.0215 148.918 52.9203 148.952 52.8192C149.019 52.6844 149.12 52.617 149.154 52.4821C149.188 52.3473 149.154 52.1788 149.019 52.1114C148.615 51.8417 148.109 52.0102 147.941 52.1788C147.873 52.2799 147.806 52.4147 147.806 52.5158C147.839 52.6507 147.94 52.7181 148.008 52.8192C148.075 52.9203 148.075 53.0552 148.075 53.19C148.075 53.5271 148.042 53.9653 147.974 54.4372C147.907 54.9091 147.806 55.381 147.873 55.7181C147.94 56.0888 148.143 56.3248 148.514 56.3248C148.851 56.3248 149.053 56.19 149.188 55.9877Z" fill="#C7C6C5"/>
<path d="M148.648 52.9541C148.547 53.5945 148.412 54.3024 148.311 54.7743C148.244 55.1114 148.176 55.5159 148.345 55.8866C148.514 56.2574 148.918 56.1226 149.019 55.8529C149.087 55.7181 149.087 55.4822 149.053 55.3136L148.648 52.9541Z" fill="#747474"/>
<path d="M148.177 50.6624C148.009 50.5613 148.009 50.3928 148.177 50.3254C148.346 50.2242 148.615 50.2242 148.784 50.3254C148.952 50.4265 148.952 50.5613 148.784 50.6624C148.615 50.7636 148.346 50.7636 148.177 50.6624Z" fill="#E2E2E2"/>
<path opacity="0.5" d="M83.3923 101.763L77.8306 98.6621H77.7969L83.1227 101.999L83.3923 115.516L83.5946 102.168L96.6394 94.5498L83.3923 101.763Z" fill="#F4F4F4"/>
<path d="M146.56 51.5725C145.819 51.5725 145.347 50.9657 145.347 50.0219C145.347 48.6736 146.29 47.0219 147.47 46.3478C147.807 46.1456 148.144 46.0444 148.448 46.0444C149.189 46.0444 149.661 46.6512 149.661 47.595C149.661 48.9433 148.717 50.5949 147.538 51.2691C147.201 51.4713 146.864 51.5725 146.56 51.5725Z" fill="#747474"/>
<path d="M149.594 47.595C149.594 46.2467 148.65 45.7074 147.504 46.3815C146.358 47.0557 145.414 48.6736 145.414 50.0219C145.414 51.3702 146.358 51.9096 147.504 51.2354C148.65 50.5613 149.594 48.9433 149.594 47.595Z" fill="#9C9C9B"/>
<path d="M148.448 47.157L150.437 48.303L149.999 49.0446C149.898 49.7187 149.46 50.4603 148.92 50.8985L148.482 51.64L146.493 50.494C146.257 50.3592 146.089 50.0558 146.089 49.6176C146.089 48.7412 146.696 47.6626 147.471 47.2244C147.875 47.0221 148.212 47.0221 148.448 47.157Z" fill="#9C9C9B"/>
<path d="M150.841 49.2128C150.841 48.3364 150.234 47.9656 149.459 48.4038C148.684 48.842 148.077 49.9206 148.077 50.797C148.077 51.6734 148.684 52.0442 149.459 51.606C150.234 51.1678 150.841 50.0892 150.841 49.2128Z" fill="#9C9C9B"/>
<path d="M148.716 47.9662H148.177V46.0786H148.716V47.9662Z" fill="#E2E2E2"/>
<path d="M147.638 42.5392C147.436 42.8763 147.503 43.3482 147.57 43.6516C147.604 43.8538 147.671 44.0898 147.739 44.292C147.84 44.6965 147.941 45.101 147.975 45.4044C147.975 45.5055 148.009 45.6066 147.975 45.7077C147.941 45.8426 147.806 45.91 147.773 46.0448C147.773 46.1797 147.806 46.3482 147.907 46.4156C148.312 46.6516 148.818 46.5167 148.986 46.3145C149.053 46.2134 149.121 46.0785 149.087 45.9774C149.053 45.8426 148.952 45.7752 148.885 45.674C148.818 45.5729 148.818 45.4381 148.818 45.3033C148.818 44.9662 148.851 44.528 148.919 44.0561C148.986 43.5842 149.087 43.1123 149.02 42.7752C148.952 42.4044 148.75 42.1685 148.379 42.1685C147.975 42.2022 147.739 42.337 147.638 42.5392Z" fill="#C7C6C5"/>
<path d="M148.244 45.5731C148.312 44.9327 148.447 44.2248 148.514 43.7529C148.581 43.4158 148.615 43.0113 148.48 42.6743C148.312 42.3035 147.907 42.472 147.806 42.708C147.772 42.8428 147.772 43.0787 147.772 43.2473L148.244 45.5731Z" fill="#747474"/>
<path d="M148.751 47.8312C148.919 47.9323 148.919 48.0672 148.751 48.1683C148.582 48.2694 148.313 48.2694 148.144 48.1683C147.975 48.0672 147.975 47.9323 148.144 47.8312C148.313 47.7301 148.582 47.7301 148.751 47.8312Z" fill="#E2E2E2"/>
<path d="M126.504 59.9321C126.504 58.8535 125.728 58.3816 124.785 58.9546C123.841 59.4939 123.065 60.8422 123.065 61.9208C123.065 62.9995 123.841 63.4714 124.785 62.8984C125.762 62.359 126.504 61.0444 126.504 59.9321Z" fill="#453E3A"/>
<path d="M126.436 59.9655C126.436 58.9205 125.695 58.4824 124.784 59.0217C123.874 59.561 123.133 60.8419 123.133 61.8868C123.133 62.9317 123.874 63.3699 124.784 62.8306C125.695 62.2913 126.436 61.0104 126.436 59.9655Z" fill="#F3F4F4"/>
<path d="M125.796 60.3702C125.796 59.7298 125.358 59.4938 124.818 59.7972C124.279 60.1005 123.841 60.8758 123.841 61.5163C123.841 62.1567 124.279 62.3926 124.818 62.0893C125.358 61.7522 125.796 60.9769 125.796 60.3702Z" fill="#757576"/>
<path d="M126.268 60.067C126.268 60.9771 125.628 62.1232 124.819 62.5614C124.01 63.0333 123.369 62.6625 123.369 61.7187C123.369 60.8086 124.01 59.6625 124.819 59.2243C125.628 58.7861 126.268 59.1569 126.268 60.067Z" fill="#BFC0C1"/>
<path d="M124.852 59.7298L124.784 59.7635V59.2916L124.852 59.2579V59.7298ZM124.346 60.168L124.144 59.8983L124.076 59.9994L124.279 60.2691L124.346 60.168ZM123.975 60.7747L123.638 60.741L123.605 60.8421L123.942 60.8758L123.975 60.7747ZM123.807 61.5163V61.4152L123.402 61.6511V61.7522L123.807 61.5163ZM123.975 62.0219L123.942 61.9545L123.605 62.3927L123.638 62.4601L123.975 62.0219ZM124.346 62.1904H124.279L124.076 62.696H124.144L124.346 62.1904ZM124.852 62.0219L124.784 62.0556V62.4938L124.885 62.4601V62.0219H124.852ZM125.56 61.8534L125.357 61.5837L125.29 61.6511L125.492 61.9208L125.56 61.8534ZM126.032 60.977L125.694 60.9432L125.661 61.0444L125.998 61.0781L126.032 60.977ZM126.2 60.0669L125.796 60.3028V60.4039L126.2 60.168V60.0669ZM126.032 59.4601L125.998 59.3927L125.661 59.8309L125.694 59.8983L126.032 59.4601ZM125.56 59.123H125.492L125.29 59.6287H125.357L125.56 59.123ZM124.515 59.7635L124.447 59.5612L124.414 59.5949L124.515 59.7635ZM123.975 60.4376L123.841 60.3365L123.807 60.3702L123.942 60.4713L123.975 60.4376ZM123.672 61.2129L123.47 61.2803V61.314L123.672 61.2466V61.2129ZM123.672 61.9545L123.47 62.0893V62.123L123.672 61.9545ZM123.975 62.3927L123.807 62.6286H123.841L123.975 62.3927ZM124.515 62.4264L124.414 62.696H124.447L124.515 62.4264ZM125.189 62.2578L125.121 62.0556L125.088 62.0893L125.189 62.2578ZM125.796 61.4826L125.627 61.3815L125.593 61.4152L125.728 61.4826H125.796ZM126.166 60.5725L125.964 60.6399V60.6736L126.166 60.6062V60.5725ZM126.166 59.7635V59.7298L125.964 59.8983V59.932L126.166 59.7635ZM125.796 59.2579L125.627 59.4938H125.661L125.796 59.2579ZM125.189 59.1905L125.088 59.4601H125.121L125.189 59.1905Z" fill="#9F9F9F"/>
<path d="M124.852 60.7746C124.852 60.6734 124.852 60.5723 124.886 60.4712C124.886 60.3701 124.886 60.3027 124.886 60.2015C124.886 59.8308 124.852 59.4263 124.852 59.4263C124.852 59.4263 124.818 59.8308 124.818 60.2352C124.818 60.3364 124.818 60.4375 124.818 60.5386C124.818 60.606 124.818 60.7072 124.818 60.7746C124.785 60.8083 124.751 60.9431 124.751 61.0442C124.751 61.1791 124.785 61.2465 124.852 61.2128C124.92 61.1791 124.953 61.0442 124.953 60.9431C124.92 60.842 124.886 60.8083 124.852 60.7746Z" fill="#139DC8"/>
<path opacity="0.4" fill-rule="evenodd" clip-rule="evenodd" d="M123.47 62.0889C123.638 62.6956 124.211 62.8979 124.885 62.4934C125.02 62.426 125.121 62.3586 125.223 62.2574C125.762 61.6844 126.133 60.8754 126.133 60.1676C126.133 59.2912 125.56 58.8867 124.852 59.2238C124.885 59.3249 124.885 59.4597 124.885 59.5608C124.919 60.4709 124.279 61.617 123.47 62.0889Z" fill="white"/>
<path d="M117.336 65.5949L118.65 63.3365L118.414 63.2017L117.1 65.4601L117.336 65.5949Z" fill="#0B86AC"/>
<path d="M118.683 63.8085C118.683 64.3816 118.279 65.0894 117.773 65.3928C117.268 65.6962 116.863 65.4602 116.863 64.8535C116.863 64.2804 117.268 63.5389 117.773 63.2692C118.279 62.9658 118.683 63.2018 118.683 63.8085Z" fill="#0B86AC"/>
<path d="M118.886 63.9094C118.886 64.4824 118.481 65.224 117.976 65.4937C117.47 65.797 117.065 65.5611 117.065 64.9543C117.065 64.3813 117.47 63.6397 117.976 63.3701C118.481 63.1004 118.886 63.3364 118.886 63.9094Z" fill="#139DC8"/>
<path d="M118.818 64.078C118.818 64.5499 118.481 65.123 118.077 65.3589C117.672 65.5949 117.335 65.3926 117.335 64.9207C117.335 64.4488 117.672 63.8758 118.077 63.6398C118.481 63.4376 118.818 63.6061 118.818 64.078Z" fill="#0B86AC"/>
<path d="M117.64 65.3924L118.651 63.6396L119.797 64.2801L118.786 66.0329L117.64 65.3924Z" fill="#58D8FF"/>
<path d="M118.853 64.1119C118.853 64.3141 118.785 64.5838 118.651 64.8197C118.516 65.0557 118.347 65.2242 118.145 65.3253C118.044 65.3927 117.943 65.4265 117.842 65.4265L117.774 65.4939L117.572 65.3927C117.403 65.3253 117.336 65.1231 117.336 64.8871C117.336 64.6512 117.403 64.4152 117.538 64.1793C117.673 63.9433 117.842 63.7748 118.044 63.6737C118.246 63.5388 118.448 63.5388 118.583 63.64L118.785 63.7411L118.752 63.8085C118.819 63.8759 118.853 64.0107 118.853 64.1119Z" fill="#58D8FF"/>
<path d="M119.83 63.9434L120.403 64.2804L120.1 64.8198C120.032 65.2917 119.729 65.7973 119.358 66.1007L119.055 66.64L118.482 66.3029C118.313 66.2018 118.212 65.9995 118.212 65.6962C118.212 65.0894 118.65 64.3479 119.156 64.0445C119.392 63.8423 119.628 63.8423 119.83 63.9434Z" fill="#1885A7"/>
<path d="M120.673 64.8871C120.673 64.2804 120.235 64.0445 119.729 64.3478C119.19 64.6512 118.785 65.3928 118.785 65.9995C118.785 66.6062 119.223 66.8422 119.729 66.5388C120.235 66.2354 120.673 65.4939 120.673 64.8871Z" fill="#747474"/>
<path d="M120.673 64.8871C120.673 64.2804 120.235 64.0445 119.729 64.3478C119.19 64.6512 118.785 65.3928 118.785 65.9995C118.785 66.6062 119.223 66.8422 119.729 66.5388C120.235 66.2354 120.673 65.4939 120.673 64.8871Z" fill="#2FBAE5"/>
<path d="M120.437 64.9882C120.437 64.5163 120.1 64.3141 119.696 64.55C119.291 64.786 118.954 65.359 118.954 65.8309C118.954 66.3028 119.291 66.5051 119.696 66.2691C120.1 66.0332 120.437 65.4601 120.437 64.9882Z" fill="#1885A7"/>
<path d="M129.707 58.5837L131.021 56.3253L130.785 56.1904L129.471 58.4488L129.707 58.5837Z" fill="#0B86AC"/>
<path d="M131.055 56.7973C131.055 57.3703 130.65 58.0782 130.144 58.3815C129.639 58.6849 129.234 58.449 129.234 57.8422C129.234 57.2692 129.639 56.5613 130.144 56.258C130.65 55.9546 131.055 56.1906 131.055 56.7973Z" fill="#0B86AC"/>
<path d="M131.257 56.8982C131.257 57.4712 130.852 58.2128 130.347 58.4824C129.841 58.7858 129.437 58.5498 129.437 57.9431C129.437 57.3701 129.841 56.6285 130.347 56.3589C130.852 56.0892 131.257 56.3251 131.257 56.8982Z" fill="#139DC8"/>
<path d="M131.189 57.0668C131.189 57.5387 130.852 58.1118 130.448 58.3477C130.043 58.5837 129.706 58.3814 129.706 57.9095C129.706 57.4376 130.043 56.8646 130.448 56.6286C130.852 56.3927 131.189 56.5949 131.189 57.0668Z" fill="#0B86AC"/>
<path d="M130.009 58.3812L131.02 56.6284L132.166 57.2689L131.155 59.0217L130.009 58.3812Z" fill="#58D8FF"/>
<path d="M131.222 57.1003C131.222 57.3026 131.154 57.5722 131.02 57.8082C130.885 58.0442 130.716 58.2127 130.514 58.3475C130.413 58.4149 130.312 58.4486 130.211 58.4486L130.143 58.5161L129.941 58.4149C129.806 58.3138 129.705 58.1453 129.705 57.9093C129.705 57.6734 129.772 57.4374 129.907 57.2015C130.042 56.9655 130.211 56.797 130.413 56.6621C130.615 56.561 130.817 56.5273 130.952 56.6284L131.154 56.7296L131.121 56.797C131.188 56.8644 131.222 56.9655 131.222 57.1003Z" fill="#58D8FF"/>
<path d="M132.165 56.9317L132.738 57.2687L132.434 57.8081C132.367 58.28 132.064 58.7856 131.693 59.0889L131.39 59.6283L130.817 59.2912C130.648 59.1901 130.547 58.9878 130.547 58.6845C130.547 58.0777 130.985 57.3361 131.491 57.0328C131.76 56.8305 131.996 56.8305 132.165 56.9317Z" fill="#139DC8"/>
<path d="M133.041 57.8759C133.041 57.2692 132.603 57.0332 132.098 57.3366C131.558 57.64 131.12 58.3815 131.12 58.9883C131.12 59.595 131.558 59.831 132.098 59.5276C132.603 59.2242 133.041 58.4826 133.041 57.8759Z" fill="#2FBAE5"/>
<path d="M133.041 57.8759C133.041 57.2692 132.603 57.0332 132.098 57.3366C131.558 57.64 131.12 58.3815 131.12 58.9883C131.12 59.595 131.558 59.831 132.098 59.5276C132.603 59.2242 133.041 58.4826 133.041 57.8759Z" fill="#2FBAE5"/>
<path d="M132.806 57.977C132.806 57.5051 132.469 57.3029 132.065 57.5388C131.66 57.7748 131.323 58.3478 131.323 58.8197C131.323 59.2916 131.66 59.4938 132.065 59.2579C132.469 59.0219 132.806 58.4489 132.806 57.977Z" fill="#139DC8"/>
<path d="M134.863 55.4831L136.177 53.2247L135.942 53.0898L134.627 55.3482L134.863 55.4831Z" fill="#0B86AC"/>
<path d="M136.211 53.6628C136.211 54.2358 135.806 54.9437 135.301 55.2471C134.795 55.5504 134.391 55.3145 134.391 54.7077C134.391 54.1347 134.795 53.3932 135.301 53.1235C135.806 52.8538 136.211 53.0898 136.211 53.6628Z" fill="#0B86AC"/>
<path d="M136.413 53.7976C136.413 54.3706 136.008 55.1122 135.503 55.3818C134.997 55.6852 134.593 55.4492 134.593 54.8425C134.593 54.2695 134.997 53.5279 135.503 53.2583C136.008 52.9886 136.413 53.2246 136.413 53.7976Z" fill="#139DC8"/>
<path d="M136.345 53.9658C136.345 54.4377 136.008 55.0107 135.604 55.2467C135.199 55.4826 134.862 55.2804 134.862 54.8085C134.862 54.3366 135.199 53.7635 135.604 53.5276C136.008 53.2916 136.345 53.4939 136.345 53.9658Z" fill="#0B86AC"/>
<path d="M135.166 55.2801L136.177 53.5273L137.323 54.1678L136.312 55.9206L135.166 55.2801Z" fill="#58D8FF"/>
<path d="M136.379 53.9993C136.379 54.2015 136.312 54.4712 136.177 54.7071C136.042 54.9431 135.874 55.1116 135.671 55.2464C135.57 55.3139 135.469 55.3476 135.368 55.3476L135.301 55.415L135.098 55.3139C134.963 55.2127 134.862 55.0442 134.862 54.8083C134.862 54.5723 134.93 54.3363 135.065 54.1004C135.199 53.8644 135.368 53.6959 135.57 53.5611C135.772 53.46 135.975 53.4262 136.109 53.5274L136.278 53.6285L136.244 53.6959C136.345 53.7633 136.379 53.8644 136.379 53.9993Z" fill="#58D8FF"/>
<path d="M137.323 53.7971L137.896 54.1342L137.593 54.6735C137.525 55.1454 137.222 55.651 136.851 55.9544L136.548 56.4937L135.975 56.1566C135.806 56.0555 135.705 55.8533 135.705 55.5499C135.705 54.9432 136.143 54.2016 136.649 53.8982C136.919 53.7297 137.155 53.696 137.323 53.7971Z" fill="#139DC8"/>
<path d="M138.2 54.7411C138.2 54.1344 137.761 53.8985 137.256 54.2018C136.717 54.5052 136.278 55.2468 136.278 55.8535C136.278 56.4602 136.717 56.6962 137.256 56.3928C137.761 56.0894 138.2 55.3816 138.2 54.7411Z" fill="#58D8FF"/>
<path d="M138.2 54.7411C138.2 54.1344 137.761 53.8985 137.256 54.2018C136.717 54.5052 136.278 55.2468 136.278 55.8535C136.278 56.4602 136.717 56.6962 137.256 56.3928C137.761 56.0894 138.2 55.3816 138.2 54.7411Z" fill="#58D8FF"/>
<path d="M137.964 54.8759C137.964 54.404 137.627 54.2018 137.222 54.4377C136.818 54.6737 136.48 55.2467 136.48 55.7186C136.48 56.1905 136.818 56.3928 137.222 56.1568C137.627 55.9209 137.964 55.3478 137.964 54.8759Z" fill="#58D8FF"/>
<path d="M152.054 23.191L135.369 21.6068L135.167 20.1911L151.717 10.6855L152.054 10.8541V23.191Z" fill="#9C9C9B"/>
<path d="M135.571 32.6965L152.054 23.1909V10.854L135.571 20.3595V32.6965Z" fill="#747474"/>
<path d="M136.616 31.0782L151.313 22.5502V12.5728L136.65 21.067L136.616 31.0782Z" fill="#E2E2E2"/>
<path d="M136.616 30.7752L150.908 22.5168V12.8428L136.616 21.1011V30.7752Z" fill="#9F9F9F"/>
<path d="M135.167 20.1909L135.571 20.3595V32.6964L135.201 32.4942L135.167 20.1909Z" fill="#747474"/>
<path opacity="0.3" d="M147.403 14.8315L138.437 29.7302L150.908 22.5168V12.8428L147.403 14.8315Z" fill="#9F9F9F"/>
<path d="M110.594 53.9655L91.9875 64.6845L73.2461 49.0105L91.8526 38.2915L110.594 53.9655Z" fill="#F3F4F4"/>
<path d="M103.246 50.3253C104.224 50.8983 104.224 51.8084 103.246 52.3814L92.527 58.5499C91.5495 59.1229 89.9653 59.1229 88.9877 58.5499L79.3474 50.3927C78.3699 49.8197 78.3699 48.9096 79.3474 48.3365L90.0664 42.1681C91.0439 41.595 92.6281 41.595 93.6057 42.1681L103.246 50.3253Z" fill="#E7F6FD"/>
<path opacity="0.6" d="M90.9423 41.8311C90.6053 41.8985 90.3019 41.9996 90.0322 42.1681L85.9199 44.5277V55.9882L88.9536 58.55C89.4929 58.8533 90.2008 58.9882 90.9086 58.9545V41.8311H90.9423Z" fill="white"/>
<path opacity="0.6" d="M94.7178 43.1118L93.5718 42.1343C93.5718 42.1343 93.5381 42.1343 93.5381 42.1006V57.9431L94.7178 57.269V43.1118Z" fill="white"/>
<path opacity="0.6" d="M103.246 50.3254L96.6729 44.7637V56.1568L103.246 52.3816C104.223 51.8085 104.223 50.8984 103.246 50.3254Z" fill="white"/>
<path opacity="0.6" d="M83.0215 46.2129L79.3474 48.3365C78.3699 48.9095 78.3699 49.8196 79.3474 50.3926L83.0215 53.4937V46.2129Z" fill="white"/>
<path d="M103.415 52.4825L92.6958 58.651C91.6172 59.2577 89.8644 59.2577 88.7858 58.651L79.1117 50.4937C78.0331 49.887 78.0331 48.8758 79.1117 48.2353L89.8307 42.0669C90.9093 41.4601 92.6621 41.4601 93.7408 42.0669L103.381 50.2241C104.493 50.8308 104.493 51.842 103.415 52.4825ZM79.5162 48.4376C78.6398 48.9432 78.6398 49.7859 79.5162 50.2915L89.1565 58.4487C90.0329 58.9543 91.4824 58.9543 92.3588 58.4487L103.078 52.2802C103.954 51.7746 103.954 50.9319 103.078 50.4263L93.4374 42.2691C92.561 41.7635 91.1116 41.7635 90.2352 42.2691L79.5162 48.4376Z" fill="#139DC8"/>
<path d="M91.9538 66.1004L73.2461 55.314V49.0107L91.9538 64.6847V66.1004Z" fill="#ECECEC"/>
<path d="M110.56 58.786L91.1783 69.9095L87.875 67.9882L107.223 56.8647L110.392 54.876L110.56 58.786Z" fill="#B1B9C1"/>
<path d="M91.9542 64.6844V71.7293L90.7744 71.0551V63.9766L91.9542 64.6844Z" fill="#ECECEC"/>
<path d="M91.9541 64.7186V71.7634L93.1676 71.0893V64.0444L91.9541 64.7186Z" fill="#4D4D4D"/>
<path d="M93.2012 64.0106V71.0554L94.3809 70.3813V63.3364L93.2012 64.0106Z" fill="#4D4D4D"/>
<path d="M94.4482 63.3031V70.3479L95.628 69.6738V62.5952L94.4482 63.3031Z" fill="#4D4D4D"/>
<path d="M95.6963 62.5955V69.6404L96.8761 68.9663V61.8877L95.6963 62.5955Z" fill="#4D4D4D"/>
<path d="M96.9434 61.8875V68.9324L98.1231 68.2246V61.1797L96.9434 61.8875Z" fill="#4D4D4D"/>
<path d="M98.1904 61.1458V68.1907L99.3702 67.5165V60.4717L98.1904 61.1458Z" fill="#4D4D4D"/>
<path d="M99.4375 60.4378V67.4827L100.617 66.8085V59.7637L99.4375 60.4378Z" fill="#4D4D4D"/>
<path d="M100.65 59.7298V66.7747L101.864 66.1005V59.0557L100.65 59.7298Z" fill="#4D4D4D"/>
<path d="M101.897 59.0223V66.0672L103.077 65.393V58.3145L101.897 59.0223Z" fill="#4D4D4D"/>
<path d="M103.145 58.3143V65.3592L104.324 64.685V57.6064L103.145 58.3143Z" fill="#4D4D4D"/>
<path d="M104.393 57.5726V64.6512L105.572 63.9433V56.8984L104.393 57.5726Z" fill="#4D4D4D"/>
<path d="M105.64 56.8646V63.9095L106.819 63.2353V56.1904L105.64 56.8646Z" fill="#4D4D4D"/>
<path d="M106.887 56.1571V63.2019L108.066 62.5278V55.4829L106.887 56.1571Z" fill="#4D4D4D"/>
<path d="M108.134 55.4491V62.4939L109.314 61.8198V54.7412L108.134 55.4491Z" fill="#4D4D4D"/>
<path d="M109.348 54.7411V61.7859L110.561 61.1118V54.0332L109.348 54.7411Z" fill="#4D4D4D"/>
<path d="M91.9536 70.3815V71.7298L90.7738 71.0557L87.875 69.3703V67.9883L90.7738 69.6737L91.9536 70.3815Z" fill="#ECECEC"/>
<path d="M91.9541 66.1005L110.662 55.3141V53.9321L91.9541 64.6848V66.1005Z" fill="#F3F4F4"/>
<path d="M87.9766 68.8308L88.853 69.8421L88.9204 69.7747C89.0215 69.7072 89.0889 69.6061 89.0889 69.4376C89.0889 69.1005 88.853 68.696 88.5833 68.5275C88.4485 68.4263 88.3136 68.4263 88.2125 68.4938L88.1451 68.5275C88.1114 68.5275 88.1114 68.5612 88.1114 68.5612C88.0103 68.6286 87.9766 68.696 87.9766 68.8308Z" fill="#747474"/>
<path d="M87.9434 68.8982C87.9434 69.2353 88.1793 69.6398 88.449 69.8083C88.4827 69.8083 88.4827 69.842 88.5164 69.842C88.6175 69.8757 88.6849 69.8758 88.7523 69.8758C88.786 69.8758 88.8197 69.842 88.8535 69.8083C88.9209 69.7409 88.9546 69.6398 88.9546 69.505C88.9546 69.1679 88.7186 68.7634 88.449 68.5949C88.3141 68.5275 88.213 68.4937 88.1119 68.5612C88.0782 68.5612 88.0782 68.5949 88.0782 68.5949C88.0108 68.6623 87.9771 68.7297 87.9771 68.8308C87.9434 68.8308 87.9434 68.8645 87.9434 68.8982Z" fill="#747474"/>
<path d="M81.0332 73.2468L81.404 73.8872L88.1455 69.876L88.6174 69.6064V68.7637L88.1455 69.0333L81.0332 73.2468Z" fill="#747474"/>
<path d="M80.1904 73.6845C80.1904 74.1902 80.5949 74.6283 81.1342 74.6283C81.6398 74.6283 82.078 74.2239 82.078 73.6845C82.078 73.1789 81.6736 72.7407 81.1342 72.7407C80.5949 72.7407 80.1904 73.1789 80.1904 73.6845Z" fill="#76777E"/>
<path d="M80.8307 73.7523C81.0355 73.7523 81.2015 73.5863 81.2015 73.3815C81.2015 73.1767 81.0355 73.0107 80.8307 73.0107C80.626 73.0107 80.46 73.1767 80.46 73.3815C80.46 73.5863 80.626 73.7523 80.8307 73.7523Z" fill="#C7C6C5"/>
<path d="M66.033 52.1455L71.3587 49.0781V80.2238L66.033 83.2912L65.5273 82.044L66.033 52.1455Z" fill="#F3F4F4"/>
<path d="M62.2236 49.9546L66.0326 52.1456V83.2913L62.2236 81.1003V49.9546Z" fill="#ECECEC"/>
<path d="M62.2227 49.9546L66.0316 52.1793L71.3574 49.0782L67.5484 46.8872L62.2227 49.9546Z" fill="#EDEDED"/>
<path d="M72.0658 52.2467C71.8636 52.2467 71.6276 52.1456 71.4928 52.0108C71.3242 51.876 71.2568 51.64 71.2568 51.4378C71.2568 51.2355 71.3242 50.9996 71.4928 50.8647C71.7962 50.5614 72.3355 50.5614 72.6388 50.8647C72.8074 50.9996 72.8748 51.2355 72.8748 51.4378C72.8748 51.64 72.7737 51.8422 72.6388 52.0108C72.504 52.1793 72.3018 52.2467 72.0658 52.2467Z" fill="#747474"/>
<path d="M82.279 64.6847C82.2453 64.4487 82.3128 64.2465 82.4476 64.078C82.2453 64.0105 82.0768 63.842 82.0094 63.6398C81.9083 63.4375 81.942 63.2016 82.0094 62.9993C81.8071 62.9993 81.6049 62.8982 81.4364 62.6959C81.3015 62.5274 81.2341 62.2914 81.2678 62.0892C81.0656 62.1229 80.8296 62.0892 80.6274 61.9544C80.4251 61.8195 80.324 61.5836 80.324 61.3476C80.1218 61.4488 79.8521 61.4151 79.6162 61.3139C79.3802 61.1791 79.2454 60.9769 79.2117 60.7072C79.0094 60.8083 78.7398 60.842 78.5038 60.7409C78.2679 60.6398 78.0993 60.4038 78.0656 60.1342C77.8297 60.269 77.56 60.269 77.324 60.1679C77.0881 60.0668 76.9196 59.8308 76.8521 59.5611C76.6162 59.696 76.3465 59.696 76.1106 59.5611C75.8746 59.4263 75.7061 59.1904 75.6724 58.9207C75.4364 59.0218 75.1331 59.0218 74.8971 58.8533C74.6612 58.6848 74.5263 58.4151 74.5263 58.1454C74.2567 58.2128 73.9533 58.1791 73.7511 57.9769C73.5151 57.7747 73.4477 57.4713 73.4814 57.2016C73.2117 57.2353 72.9084 57.1342 72.7398 56.8983C72.5713 56.6623 72.5376 56.3589 72.6387 56.0893C72.369 56.0556 72.0994 55.887 71.9646 55.6174C71.8297 55.3477 71.8634 55.0443 72.032 54.8084C71.7623 54.7073 71.5601 54.505 71.4926 54.2017C71.4252 53.8983 71.5264 53.6286 71.7286 53.4264C71.4927 53.2916 71.3241 53.0556 71.2904 52.7522C71.2567 52.314 71.5938 51.9095 72.0657 51.9095C72.5039 51.8758 72.8747 52.2129 72.9084 52.6848C72.9084 52.9208 72.8409 53.1567 72.6724 53.3253C72.8747 53.4264 73.0095 53.6286 73.0769 53.8646C73.1443 54.1005 73.0769 54.3365 72.9421 54.505C73.1443 54.5724 73.3466 54.741 73.414 54.9432C73.5151 55.1792 73.5151 55.4151 73.414 55.5837C73.6499 55.6174 73.8522 55.7185 73.987 55.887C74.1218 56.0893 74.1892 56.3252 74.1218 56.5275C74.3578 56.4938 74.5937 56.5612 74.7623 56.7297C74.9645 56.8983 75.0319 57.1342 75.0319 57.3365C75.2679 57.269 75.5038 57.269 75.7061 57.4039C75.942 57.5387 76.0432 57.7747 76.0769 58.0106C76.3128 57.9095 76.5488 57.9095 76.7847 58.0106C77.0207 58.1454 77.1892 58.3477 77.2229 58.5836C77.4589 58.4825 77.6948 58.4488 77.9645 58.5499C78.2004 58.651 78.369 58.887 78.4027 59.1567C78.6386 59.0218 78.9083 59.0218 79.1443 59.1229C79.3802 59.2241 79.5487 59.46 79.5824 59.7297C79.8184 59.5949 80.0881 59.5949 80.3577 59.7297C80.5937 59.8645 80.7622 60.1342 80.7622 60.4038C81.0319 60.3027 81.3352 60.3364 81.5375 60.505C81.7734 60.6735 81.8746 60.9769 81.8409 61.2465C82.1105 61.1791 82.4139 61.2802 82.6161 61.5162C82.8184 61.7521 82.8521 62.0892 82.751 62.3589C83.0206 62.3926 83.324 62.5611 83.4251 62.8645C83.5599 63.1341 83.4925 63.4712 83.324 63.7072C83.5936 63.8083 83.7959 64.0442 83.8296 64.3476C83.897 64.7858 83.5599 65.1903 83.1217 65.2577C83.088 65.2577 83.0543 65.2577 83.0206 65.2577C82.6835 65.3925 82.3128 65.0892 82.279 64.6847Z" fill="#747474"/>
<path d="M83.1225 66.7409C82.9202 66.7409 82.6843 66.6735 82.5494 66.5049C82.3809 66.3701 82.3135 66.1341 82.3135 65.9319C82.3135 65.7297 82.3809 65.5274 82.5494 65.3589C82.8528 65.0555 83.3921 65.0555 83.6955 65.3589C83.864 65.4937 83.9314 65.7297 83.9314 65.9319C83.9314 66.1341 83.8303 66.3701 83.6955 66.5049C83.5269 66.6735 83.3247 66.7409 83.1225 66.7409Z" fill="#747474"/>
<path d="M83.123 68.8643C82.6173 68.8643 82.6848 68.089 82.5162 67.9542C82.3477 67.8193 82.2803 67.5834 82.2803 67.3811C82.2803 67.1789 82.3477 66.9429 82.5162 66.8081C82.8196 66.5047 83.3589 66.5047 83.6623 66.8081C83.8308 66.9429 83.8982 67.1789 83.8982 67.3811C83.8982 67.5834 83.7971 67.8193 83.6623 67.9542C83.4937 68.089 83.6623 68.8643 83.123 68.8643Z" fill="#2FBAE5"/>
<path d="M72.1335 51.9434C72.0324 52.0108 71.965 52.1119 71.9313 52.213C71.8302 52.1793 71.6953 52.1456 71.6279 52.0782C71.7291 51.9771 71.8976 51.9434 72.0324 51.9434H72.0661C72.0998 51.9434 72.0998 51.9434 72.1335 51.9434Z" fill="#747474"/>
<path d="M83.2572 65.0556C83.2235 65.0893 83.1898 65.0893 83.1561 65.123C83.0886 65.1904 83.0212 65.2578 82.9875 65.3589C82.8864 65.3589 82.7516 65.2915 82.6841 65.2578C82.4819 65.1567 82.3471 64.9207 82.3134 64.6848C82.2797 64.4488 82.3471 64.2129 82.4819 64.0781C82.2797 64.0106 82.1111 63.8421 82.0437 63.6399C82.01 63.5387 81.9763 63.4376 81.9763 63.3365C81.9763 63.2354 82.01 63.1005 82.0437 63.0331C81.8415 63.0331 81.6392 62.932 81.4707 62.7298C81.3358 62.5612 81.2684 62.3927 81.2684 62.1904C81.2684 62.1567 81.2684 62.123 81.2684 62.0893C81.201 62.0893 81.1673 62.0893 81.0999 62.0893C80.9314 62.0893 80.7628 62.0219 80.628 61.9208C80.4257 61.7859 80.3246 61.55 80.3246 61.314C80.2235 61.3477 80.1224 61.3815 80.0213 61.3815C79.8864 61.3815 79.7516 61.3477 79.6168 61.2803C79.3808 61.1455 79.246 60.9433 79.2123 60.7073C79.1112 60.7747 78.9763 60.8084 78.8415 60.8084C78.7404 60.8084 78.6055 60.7747 78.5044 60.741C78.2685 60.6399 78.0999 60.4039 78.0662 60.168C77.9314 60.2354 77.7966 60.2691 77.6617 60.2691C77.5606 60.2691 77.4258 60.2354 77.3247 60.2017C77.0887 60.1006 76.9202 59.8646 76.8528 59.595C76.7516 59.6624 76.5831 59.6961 76.4483 59.6961C76.3134 59.6961 76.2123 59.6624 76.0775 59.595C75.8415 59.4601 75.673 59.2242 75.6393 58.9545C75.5382 59.0219 75.4033 59.0219 75.3022 59.0219C75.1674 59.0219 74.9988 58.9882 74.864 58.8871C74.6281 58.7523 74.4932 58.4826 74.4932 58.2129V58.1792C74.4258 58.213 74.3247 58.2129 74.2573 58.2129C74.055 58.2129 73.8865 58.1455 73.718 58.0107C73.5157 57.8422 73.4483 57.6062 73.4483 57.404C73.4483 57.3366 73.4483 57.3028 73.4483 57.2691C73.4146 57.2691 73.3809 57.2691 73.3472 57.2691C73.1112 57.2691 72.8753 57.168 72.7067 56.9321C72.6056 56.7972 72.5382 56.6287 72.5382 56.4602C72.5382 56.359 72.5719 56.2242 72.6056 56.1231C72.3359 56.0894 72.0663 55.9208 71.9315 55.6512C71.864 55.5501 71.864 55.4152 71.864 55.3141C71.864 55.1456 71.9315 54.977 72.0326 54.8422C71.7629 54.7411 71.5607 54.5388 71.4933 54.2355C71.4258 53.9321 71.527 53.6624 71.7292 53.4602C71.4933 53.3254 71.3247 53.0894 71.291 52.786V52.7523C71.291 52.4827 71.4258 52.2467 71.6281 52.0782C71.7292 51.9771 71.8977 51.9434 72.0326 51.9434H72.0663C72.1 51.9434 72.1 51.9434 72.1337 51.9434C72.0326 52.0108 71.9652 52.1119 71.9315 52.213C71.8977 52.3141 71.864 52.4153 71.864 52.5164V52.5501C71.864 52.8535 72.0326 53.0894 72.2685 53.2242C72.0663 53.4265 71.9652 53.6961 72.0326 53.9995C72.1 54.3029 72.3022 54.5051 72.5719 54.6062C72.4708 54.7411 72.4034 54.9096 72.4034 55.0782C72.4034 55.1793 72.4371 55.3141 72.4708 55.4152C72.6056 55.6849 72.8416 55.8534 73.1449 55.8871C73.1112 55.9883 73.0775 56.0894 73.0775 56.2242C73.0775 56.3927 73.1112 56.5613 73.2461 56.6961C73.4146 56.8984 73.6505 57.0332 73.8865 57.0332C73.9202 57.0332 73.9539 57.0332 73.9876 57.0332C73.9876 57.1006 73.9876 57.1343 73.9876 57.168C73.9876 57.404 74.0887 57.6062 74.2573 57.7748C74.4258 57.9096 74.5943 57.977 74.7966 57.977C74.8977 57.977 74.9651 57.977 75.0325 57.9433V57.977C75.0325 58.2467 75.1674 58.5163 75.4033 58.6511C75.5382 58.7523 75.673 58.786 75.8415 58.786C75.9764 58.786 76.0775 58.7523 76.1786 58.7186C76.2123 58.9882 76.3471 59.2242 76.6168 59.359C76.7179 59.4264 76.8527 59.4601 76.9876 59.4601C77.1224 59.4601 77.2572 59.4264 77.3921 59.359C77.4258 59.595 77.5943 59.8309 77.864 59.9657C77.9651 60.0332 78.0999 60.0332 78.2011 60.0332C78.3359 60.0332 78.4707 59.9994 78.6055 59.932C78.6392 60.168 78.8078 60.4039 79.0437 60.5388C79.1449 60.6062 79.2797 60.6062 79.3808 60.6062C79.5156 60.6062 79.6505 60.5725 79.7516 60.5051C79.7853 60.741 79.9201 60.977 80.1561 61.1118C80.2909 61.1792 80.4257 61.2129 80.5606 61.2129C80.6617 61.2129 80.7628 61.1792 80.8639 61.1455C80.8639 61.3815 80.9988 61.6174 81.1673 61.7522C81.3021 61.8534 81.4707 61.9208 81.6392 61.9208C81.7066 61.9208 81.7403 61.9208 81.8078 61.9208C81.8078 61.9545 81.8078 61.9882 81.8078 62.0219C81.8078 62.2241 81.8752 62.3927 82.01 62.5612C82.1448 62.7298 82.3471 62.8309 82.583 62.8646C82.5493 62.9657 82.5156 63.0668 82.5156 63.168C82.5156 63.2691 82.5493 63.3702 82.583 63.4713C82.6841 63.6736 82.8527 63.8421 83.0212 63.9095C82.8864 64.0781 82.819 64.2803 82.8527 64.5163C82.9201 64.7185 83.0549 64.9544 83.2572 65.0556Z" fill="#747474"/>
<path d="M83.3247 66.4376C83.2573 66.4714 83.1899 66.5051 83.1225 66.5725C83.0887 66.6062 83.0213 66.6736 83.0213 66.7073C82.9202 66.7073 82.8528 66.6736 82.7517 66.6399C82.6843 66.6062 82.6168 66.5388 82.5494 66.5051C82.3809 66.3702 82.3135 66.1343 82.3135 65.932C82.3135 65.7298 82.3809 65.4938 82.5494 65.359C82.5831 65.3253 82.6168 65.2916 82.6506 65.2579C82.7854 65.1568 82.9876 65.123 83.1562 65.123C83.0887 65.1905 83.0213 65.2579 82.9876 65.359C82.9539 65.4601 82.9202 65.5612 82.9202 65.6961C82.9202 65.8983 83.0213 66.1343 83.1562 66.2691C83.1899 66.3365 83.2573 66.4039 83.3247 66.4376Z" fill="#747474"/>
<path d="M83.4937 68.5947C83.4263 68.7633 83.3252 68.8644 83.123 68.8644C82.6173 68.8644 82.6848 68.0891 82.5162 67.9543C82.3477 67.8195 82.2803 67.5835 82.2803 67.3813C82.2803 67.179 82.3477 66.9431 82.5162 66.8082C82.5836 66.7408 82.6511 66.7071 82.7522 66.6734C82.8533 66.606 82.9881 66.5723 83.123 66.606C83.0893 66.6397 83.0218 66.7071 83.0218 66.7408C82.9207 66.8757 82.887 67.0105 82.887 67.179C82.887 67.3813 82.9881 67.6172 83.123 67.7521C83.2241 67.8532 83.2241 68.3925 83.4937 68.5947Z" fill="#2FBAE5"/>
<path d="M75.403 55.2803H66.9424V57.8083H75.403V55.2803Z" fill="#DBE0E7"/>
<path d="M74.1899 56.0892C72.5382 55.1454 69.8416 55.1454 68.1899 56.0892C66.5383 57.033 66.5383 58.5836 68.1899 59.5274C69.8416 60.4712 72.5382 60.4712 74.1899 59.5274C75.8415 58.5836 75.8415 57.033 74.1899 56.0892Z" fill="#DBE0E7"/>
<path d="M74.1899 53.4603C72.5382 52.5165 69.8416 52.5165 68.1899 53.4603C66.5383 54.4041 66.5383 55.9546 68.1899 56.9322C69.8416 57.876 72.5382 57.876 74.1899 56.9322C75.8415 55.9546 75.8415 54.4041 74.1899 53.4603Z" fill="#76777E"/>
<path d="M73.8191 53.6623C72.3696 52.8196 70.0101 52.8196 68.5607 53.6623C67.1113 54.505 67.1113 55.8533 68.5607 56.696C70.0101 57.5387 72.3696 57.5387 73.8191 56.696C75.2685 55.8533 75.2685 54.505 73.8191 53.6623Z" fill="#453E3A"/>
<path d="M71.1898 54.8755L62.2236 49.6846V53.7969L71.1898 58.9541L72.0325 56.8643L71.1898 54.8755Z" fill="#ECECEC"/>
<path d="M77.5949 51.168L71.1904 54.8758V58.9544L77.5949 55.2803V51.168Z" fill="#F3F4F4"/>
<path d="M68.6271 45.9775L62.2227 49.6854L71.1889 54.91L77.627 51.2022L68.6271 45.9775Z" fill="#EDEDED"/>
<path d="M71.2901 49.4824V49.6847C71.2901 49.9206 71.1216 50.1566 70.8182 50.3588C70.6834 50.4263 70.5148 50.4937 70.38 50.5274C70.2789 50.5611 70.2115 50.5611 70.1103 50.5948C70.0766 50.5948 70.0429 50.5948 69.9755 50.6285C69.9418 50.6285 69.9081 50.6285 69.8744 50.6285C69.7396 50.6285 69.571 50.6285 69.4362 50.6285C69.3014 50.6285 69.2002 50.5948 69.0991 50.5611C69.0317 50.5611 68.998 50.5274 68.9306 50.5274C68.7957 50.4937 68.6609 50.4263 68.5598 50.3588C68.4587 50.2914 68.3913 50.2577 68.3238 50.1903C68.1553 50.0555 68.0879 49.8532 68.0879 49.6847V49.4487C68.1216 49.5836 68.189 49.7521 68.3238 49.8869C68.3913 49.9543 68.4587 50.0218 68.5598 50.0555C68.6609 50.1229 68.7957 50.1903 68.9306 50.224C68.998 50.224 69.0317 50.2577 69.0991 50.2577C69.2002 50.2914 69.3351 50.2914 69.4362 50.2914C69.571 50.3251 69.7396 50.3251 69.8744 50.2914C69.9081 50.2914 69.9418 50.2914 69.9755 50.2914C70.0092 50.2914 70.0429 50.2914 70.1103 50.2577C70.2115 50.2577 70.2789 50.224 70.38 50.1903C70.5485 50.1566 70.6834 50.0892 70.8182 50.0218C71.0879 49.9206 71.2564 49.6847 71.2901 49.4824Z" fill="#DBE0E7"/>
<path d="M70.8182 48.7414C70.4474 48.5391 69.9081 48.438 69.4362 48.4717C69.3014 48.4717 69.2002 48.5054 69.0991 48.5391C69.0317 48.5391 68.998 48.5728 68.9306 48.5728C68.7957 48.6066 68.6609 48.674 68.5598 48.7414C68.4587 48.8088 68.3913 48.8425 68.3238 48.9099C68.1553 49.0448 68.0879 49.2133 68.0879 49.3818C68.0879 49.4155 68.0879 49.4155 68.0879 49.4492C68.1216 49.5841 68.189 49.7526 68.3238 49.8874C68.3913 49.9549 68.4587 50.0223 68.5598 50.056C68.6609 50.1234 68.7957 50.1908 68.9306 50.2245C68.998 50.2245 69.0317 50.2582 69.0991 50.2582C69.2002 50.2919 69.3351 50.2919 69.4362 50.2919C69.9081 50.3256 70.4474 50.2582 70.8182 50.0223C71.1216 49.8537 71.2564 49.6515 71.2901 49.4155C71.2901 49.3818 71.2901 49.3818 71.2901 49.3481C71.2901 49.1796 71.1216 48.9436 70.8182 48.7414Z" fill="#ECECEC"/>
<path d="M69.9417 49.0444V40.685L81.3348 33.4378V32.73L69.4698 40.2805C69.3687 40.3479 69.335 40.4153 69.335 40.5164V49.4152C69.5372 49.2804 69.7395 49.1792 69.9417 49.0444Z" fill="#ECECEC"/>
<path d="M69.7399 49.1791V40.6174L81.3352 33.2692V32.9995L69.5713 40.4826C69.5376 40.5163 69.5039 40.55 69.5039 40.5837V49.3476C69.605 49.2465 69.6724 49.2128 69.7399 49.1791Z" fill="#F3F4F4"/>
<path d="M83.0879 39.4717L83.189 39.3032C83.6272 39.5728 84.2339 39.5728 84.9418 39.2021C86.3238 38.4605 87.5036 36.6066 87.5373 35.0223C87.571 34.2471 87.3013 33.674 86.8631 33.4044L86.9643 33.2358C87.3013 33.4381 87.5373 33.8089 87.6047 34.2808C87.6384 34.483 87.6721 34.719 87.6721 34.9549C87.6721 35.2583 87.6047 35.5954 87.5373 35.8987C87.5036 36.0336 87.4699 36.1684 87.4362 36.2695C87.335 36.5055 87.2339 36.7751 87.0991 37.0111C86.5935 38.0223 85.7845 38.8987 84.9081 39.3706C84.2002 39.7751 83.5598 39.7751 83.0879 39.4717Z" fill="#BFBDBF"/>
<path d="M82.5489 37.6849C82.5489 37.5164 82.5826 37.3142 82.6163 37.1456C82.65 37.0445 82.65 36.9771 82.6837 36.876C82.7511 36.6063 82.8185 36.3704 82.9534 36.1007C83.1556 35.6288 83.4253 35.1569 83.7624 34.7187C83.8635 34.6176 83.9309 34.5164 84.032 34.4153C84.268 34.1457 84.5376 33.9097 84.8073 33.7412C84.841 33.7075 84.8747 33.7075 84.9084 33.6738C84.9421 33.64 85.0095 33.6063 85.077 33.5726C85.1107 33.5389 85.1444 33.5389 85.1781 33.5052C86.5601 32.7637 87.6387 33.4378 87.5713 35.0221C87.5713 35.0558 87.5713 35.0895 87.5713 35.1232C87.5713 35.1906 87.5713 35.258 87.5376 35.2917C87.5376 35.3254 87.5376 35.3591 87.5376 35.4265C87.5039 35.7636 87.4028 36.1007 87.2679 36.4041C87.2342 36.5389 87.1668 36.6737 87.0994 36.7748C86.8635 37.2467 86.5601 37.7187 86.223 38.0894C86.0545 38.2917 85.8522 38.4939 85.65 38.6625C85.5826 38.7299 85.5152 38.7973 85.414 38.831C85.2792 38.9321 85.1107 39.0332 84.9758 39.1007C83.5601 39.9434 82.4815 39.2692 82.5489 37.6849Z" fill="#8C8A8C"/>
<path d="M83.3237 36.4713C82.8181 36.168 82.6832 35.5275 82.9866 35.0219C83.29 34.5163 83.9304 34.3815 84.436 34.6848C84.9416 34.9882 85.0765 35.6287 84.7731 36.1343C84.4697 36.6062 83.7956 36.7747 83.3237 36.4713Z" fill="white"/>
<path d="M83.0878 39.4716L79.953 37.5166C79.7507 37.3817 79.5822 37.2132 79.4474 36.9435C79.3125 36.6739 79.2451 36.3705 79.2451 35.966C79.2451 35.9323 79.2451 35.8649 79.2451 35.8312C79.2451 35.7975 79.2451 35.7975 79.2451 35.7638C79.2451 35.6964 79.2451 35.6289 79.2451 35.5615C79.2451 35.393 79.2788 35.2245 79.3125 35.0896C79.38 34.7525 79.4811 34.3818 79.6496 34.0447C79.8519 33.6065 80.0878 33.1683 80.3912 32.7638C80.3912 32.7638 80.3912 32.7301 80.4249 32.7301C80.4586 32.6964 80.4923 32.629 80.526 32.5953C80.5597 32.5616 80.5934 32.5279 80.6271 32.4604C80.6945 32.3593 80.7957 32.2919 80.8631 32.1908C80.8968 32.1908 80.8968 32.1571 80.8968 32.1571C80.9305 32.1234 80.9642 32.0897 80.9979 32.0559C81.0653 31.9885 81.1327 31.9211 81.2002 31.8874C81.4361 31.6515 81.7058 31.4829 81.9754 31.3481C82.144 31.247 82.3462 31.1796 82.5147 31.1458C82.5485 31.1458 82.5822 31.1121 82.6159 31.1121C83.1215 30.9773 83.526 31.0447 83.863 31.247L86.9978 33.202L86.8967 33.3705C86.863 33.3368 86.8293 33.3368 86.7956 33.3368C86.7619 33.3368 86.7619 33.3031 86.7282 33.3031C86.6608 33.2694 86.5934 33.2694 86.5259 33.2357C86.4922 33.2357 86.4585 33.2357 86.4248 33.202C86.3911 33.202 86.3574 33.202 86.3237 33.202C86.29 33.202 86.29 33.202 86.2563 33.202H86.2226C86.1889 33.202 86.1889 33.202 86.1552 33.202C85.8518 33.202 85.5147 33.3031 85.1439 33.5054C85.0428 33.5728 84.9417 33.6065 84.8406 33.6739C84.8069 33.7076 84.7732 33.7076 84.7394 33.7413C84.5035 33.9099 84.3012 34.0784 84.099 34.2806C84.0653 34.3144 84.0316 34.3818 83.9642 34.4155C83.863 34.5503 83.7282 34.6851 83.6271 34.82C83.5934 34.8537 83.5597 34.8874 83.5597 34.9211C83.5597 34.9211 83.5597 34.9211 83.5597 34.9548C83.526 34.9885 83.4923 35.0222 83.4923 35.0559C83.4586 35.0896 83.4249 35.1233 83.3911 35.1907C83.3237 35.2919 83.2563 35.393 83.1889 35.5278C83.1215 35.6289 83.0878 35.7301 83.0204 35.8312C82.9867 35.9323 82.9192 36.0334 82.8855 36.1346C82.8518 36.2357 82.8181 36.3031 82.7844 36.4042C82.7507 36.4379 82.7507 36.5053 82.7507 36.539C82.717 36.6402 82.6833 36.7076 82.6833 36.8087C82.6496 36.9435 82.6159 37.0784 82.6159 37.1795C82.6159 37.2132 82.6159 37.2132 82.6159 37.2469C82.6159 37.2806 82.6159 37.3143 82.6159 37.348C82.6159 37.3817 82.6159 37.4154 82.6159 37.4154C82.6159 37.4829 82.5822 37.584 82.5822 37.6514V37.6851C82.5822 37.7525 82.5822 37.8536 82.5822 37.9211C82.5822 37.9548 82.5822 37.9885 82.5822 38.0559C82.5822 38.0896 82.5822 38.1233 82.5822 38.157C82.5822 38.157 82.5822 38.157 82.5822 38.1907C82.5822 38.2244 82.5822 38.2581 82.6159 38.2918C82.6159 38.3593 82.6496 38.4604 82.6496 38.5278C82.6833 38.5952 82.6833 38.6626 82.717 38.6963C82.717 38.73 82.7507 38.7637 82.7507 38.7974C82.7507 38.8312 82.7844 38.8312 82.7844 38.8649C82.7844 38.8986 82.8181 38.8986 82.8181 38.8986C82.8518 38.9323 82.8518 38.966 82.8855 38.966C82.8855 38.9997 82.9192 38.9997 82.9529 39.0334L82.9867 39.0671C82.9867 39.0671 82.9867 39.1008 83.0204 39.1008L83.0541 39.1345C83.0878 39.1682 83.1215 39.2019 83.1552 39.2019C83.1889 39.2356 83.2226 39.2356 83.2226 39.2694L83.0878 39.4716Z" fill="#9C9C9B"/>
<path d="M83.1888 39.3031C83.1551 39.2694 83.1213 39.2694 83.1213 39.2357C83.0876 39.202 83.0539 39.1683 83.0202 39.1683L82.9865 39.1345C82.9865 39.1345 82.9865 39.1008 82.9528 39.1008L82.9191 39.0671C82.8854 39.0334 82.8854 39.0334 82.8517 38.9997C82.818 38.966 82.818 38.9323 82.7843 38.9323C82.7843 38.8986 82.7506 38.8986 82.7506 38.8986C82.7506 38.8649 82.7169 38.8649 82.7169 38.8312C82.7169 38.7975 82.6831 38.7638 82.6831 38.7301C82.6494 38.6626 82.6494 38.6289 82.6157 38.5615C82.582 38.4941 82.582 38.4267 82.582 38.3256C82.582 38.2919 82.582 38.2582 82.5483 38.2244V38.1907C82.5483 38.157 82.5483 38.1233 82.5483 38.0896C82.5483 38.0559 82.5483 38.0222 82.5483 37.9548C82.5483 37.8874 82.5483 37.7862 82.5483 37.7188V37.6851C82.5483 37.6177 82.5483 37.5166 82.582 37.4492C82.582 37.4155 82.582 37.3818 82.582 37.3818C82.582 37.3481 82.582 37.3143 82.582 37.2806C82.6157 37.1458 82.6494 36.9773 82.6831 36.8424C82.7169 36.7413 82.7168 36.6739 82.7506 36.5728C82.7843 36.5391 82.7843 36.4717 82.7843 36.4379C82.8854 36.1346 83.0202 35.8312 83.1888 35.5616C83.2562 35.4604 83.3236 35.3593 83.391 35.2245C83.4247 35.1908 83.4584 35.1571 83.4921 35.0896C83.5258 35.0559 83.5258 35.0222 83.5595 34.9885C83.5595 34.9885 83.5595 34.9885 83.5595 34.9548C83.5932 34.9211 83.627 34.8874 83.627 34.8537C83.7281 34.7189 83.8292 34.584 83.964 34.4492C83.9977 34.4155 84.0314 34.3481 84.0989 34.3144C84.3011 34.1121 84.5034 33.9436 84.7393 33.7751C84.773 33.7414 84.8067 33.7414 84.8404 33.7076C84.9415 33.6402 85.0427 33.5728 85.1438 33.5391C85.5146 33.3369 85.8516 33.2357 86.155 33.2357C86.1887 33.2357 86.1887 33.2357 86.2224 33.2357H86.2561C86.2898 33.2357 86.2898 33.2357 86.3236 33.2357C86.3573 33.2357 86.391 33.2357 86.4247 33.2357C86.4584 33.2357 86.4921 33.2357 86.5258 33.2694C86.5932 33.2694 86.6606 33.3032 86.728 33.3369C86.7618 33.3369 86.7955 33.3706 86.7955 33.3706C86.8292 33.3706 86.8629 33.4043 86.8966 33.4043L86.9977 33.2357C86.6606 33.0335 86.2561 32.9661 85.7505 33.1009C85.5483 33.1683 85.346 33.2357 85.1438 33.3369C84.8741 33.4717 84.6045 33.6739 84.3685 33.8762C84.2674 33.9436 84.1663 34.0447 84.0652 34.1458C83.8966 34.3144 83.6944 34.5166 83.5595 34.7526C82.8854 35.629 82.4135 36.7413 82.3798 37.7525C82.3461 38.5952 82.6157 39.1683 83.0876 39.4716L83.1888 39.3031Z" fill="#BFBDBF"/>
<path d="M78.8071 39.1685C79.6161 40.4157 82.6498 39.8426 85.5486 37.9213C88.4474 36 90.1328 33.4382 89.3238 32.2248C88.5149 30.9776 85.4812 31.5506 82.5823 33.4719C79.6835 35.3595 77.9981 37.9213 78.8071 39.1685Z" fill="#FFFEF9"/>
<path d="M63.1674 51.404L61.3809 52.449L61.7854 53.1231C61.8865 53.7298 62.2573 54.404 62.7629 54.8085L63.1674 55.4826L64.9539 54.4377C65.1898 54.3029 65.3246 54.0332 65.3246 53.6287C65.3246 52.8535 64.7853 51.8759 64.0775 51.4714C63.7067 51.2692 63.4033 51.2692 63.1674 51.404Z" fill="#9C9C9B"/>
<path d="M61.0107 53.2241C61.0107 52.4152 61.5838 52.1118 62.2579 52.5163C62.9321 52.9208 63.5051 53.8646 63.5051 54.6736C63.5051 55.4488 62.9658 55.7859 62.2579 55.3814C61.5838 54.9769 61.0107 54.0331 61.0107 53.2241Z" fill="#9C9C9B"/>
<path d="M62.7958 55.4825C63.2003 55.4825 63.5036 55.1454 63.5036 54.6061C63.5036 53.8308 62.9643 52.887 62.2902 52.5162C62.0879 52.4151 61.9194 52.3477 61.7508 52.3477C61.3126 52.3477 61.043 52.6847 61.043 53.2241C61.043 53.9993 61.5823 54.9431 62.2564 55.3139C62.425 55.4488 62.6272 55.4825 62.7958 55.4825Z" fill="#747474"/>
<path d="M61.0771 53.224C61.0771 52.4488 61.6165 52.1454 62.2569 52.5499C62.9311 52.9207 63.4367 53.8645 63.4367 54.6061C63.4367 55.3813 62.8974 55.6847 62.2569 55.2802C61.6165 54.9094 61.0771 53.9993 61.0771 53.224Z" fill="#9C9C9B"/>
<path d="M61.6842 52.9204L61.3809 53.089L61.6505 53.5609C61.7179 53.9654 61.9876 54.4373 62.291 54.6732L62.5606 55.1451L62.864 54.9429C62.9988 54.8418 63.0999 54.6732 63.0999 54.4036C63.0999 53.8642 62.7292 53.2238 62.2573 52.9541C62.055 52.853 61.8528 52.8193 61.6842 52.9204Z" fill="#9C9C9B"/>
<path d="M61.1445 53.6621C61.1445 53.1228 61.5153 52.9206 61.9872 53.1902C62.4591 53.4599 62.8299 54.1003 62.8299 54.6396C62.8299 55.179 62.4591 55.3812 61.9872 55.1115C61.5153 54.8419 61.1445 54.1677 61.1445 53.6621Z" fill="#9C9C9B"/>
<path d="M60.9424 55.4485C61.0098 55.5496 61.1447 55.5833 61.2458 55.5159C61.3806 55.4822 61.4817 55.3474 61.6166 55.2463C61.7514 55.1451 61.8862 55.044 61.9873 54.9766C62.0211 54.9429 62.0548 54.9429 62.1222 54.9429C62.1559 54.9429 62.2233 54.9766 62.257 54.9429C62.2907 54.9092 62.3244 54.8755 62.3244 54.8418C62.3581 54.7406 62.2907 54.5721 62.1559 54.5047C62.1222 54.471 62.0548 54.5047 62.0211 54.5384C61.9874 54.5721 61.9874 54.6395 61.9536 54.6732C61.9199 54.7069 61.8862 54.7069 61.8525 54.7406C61.7514 54.7743 61.6166 54.8418 61.448 54.8755C61.3806 54.9092 61.2795 54.9429 61.2121 54.9429C61.111 54.9766 60.9424 55.044 60.875 55.1788C60.875 55.2462 60.875 55.3474 60.9424 55.4485Z" fill="#C7C6C5"/>
<path d="M61.9877 54.7744C61.8192 54.9092 61.6169 55.1115 61.4821 55.2126C61.381 55.28 61.2799 55.3811 61.145 55.4149C61.0102 55.4486 60.9765 55.28 61.0102 55.2126C61.0439 55.1789 61.1113 55.1115 61.1787 55.1115L61.9877 54.7744Z" fill="#747474"/>
<path d="M60.3008 54.4036C60.3682 54.5047 60.5031 54.5384 60.6042 54.471C60.739 54.4373 60.8401 54.3024 60.975 54.2013C61.1098 54.1002 61.2446 53.9991 61.3457 53.9317C61.3795 53.898 61.4132 53.898 61.4806 53.898C61.5143 53.898 61.5817 53.9317 61.6154 53.898C61.6491 53.898 61.6828 53.8305 61.6828 53.7968C61.7165 53.7294 61.6491 53.5272 61.5143 53.4598C61.4806 53.4261 61.4132 53.4598 61.3795 53.4935C61.3457 53.5272 61.3457 53.5946 61.312 53.6283C61.2783 53.662 61.2446 53.662 61.2109 53.6957C61.1098 53.7294 60.975 53.7968 60.8064 53.8305C60.739 53.8642 60.6379 53.898 60.5705 53.898C60.4694 53.9317 60.3008 53.9991 60.2334 54.1339C60.2334 54.2013 60.2334 54.3024 60.3008 54.4036Z" fill="#C7C6C5"/>
<path d="M61.3457 53.6958C61.1434 53.8643 60.9749 54.0329 60.8401 54.134C60.7389 54.2014 60.6378 54.3025 60.503 54.3362C60.3682 54.3699 60.3345 54.2014 60.4019 54.134C60.4356 54.1003 60.503 54.0329 60.5704 54.0329L61.3457 53.6958Z" fill="#747474"/>
<path opacity="0.5" d="M99.7061 24.3371L111.706 31.4831L111.976 44.9998L112.178 31.6179L125.223 24L111.976 31.2471L99.7061 24.3371Z" fill="#F4F4F4"/>
<path opacity="0.5" d="M27.6064 101.56L39.5726 108.706L39.876 116.122L40.0782 108.841L53.1904 100.92L39.8423 108.47L27.6064 101.56Z" fill="#F4F4F4"/>
<path opacity="0.5" d="M66.2344 52.0108L71.0208 54.8422L71.1894 58.9546L71.2231 54.9097L76.414 51.876L71.1557 54.7411L66.2344 52.0108Z" fill="#F4F4F4"/>
<path d="M58.5156 77.0894C58.5156 78.3365 58.9201 79.7523 59.6617 81.0331C60.4032 82.3477 61.4482 83.359 62.4931 83.9994C63.6392 84.6736 64.7515 84.7747 65.5942 84.2691C66.4706 83.7635 66.9088 82.7859 66.9425 81.4376C66.9425 80.1905 66.538 78.8085 65.7627 77.4939C65.0212 76.1793 64.0099 75.1343 62.9313 74.5276C61.7853 73.8535 60.6729 73.7523 59.7965 74.2579C58.9875 74.7636 58.5156 75.7411 58.5156 77.0894Z" fill="#F0F0F1"/>
<path d="M65.5946 84.3026L59.7969 74.2915L24.876 94.9542L30.64 104.965L65.5946 84.3026Z" fill="#F9F9FA"/>
<path d="M24.6064 97.145C24.6064 98.3922 25.0109 99.7742 25.7862 101.089C26.5278 102.403 27.539 103.448 28.6176 104.055C29.1907 104.392 29.73 104.561 30.2693 104.628L30.5727 104.965L31.7187 104.325C32.5614 103.819 33.0333 102.842 33.0333 101.493C33.0333 100.246 32.6288 98.8641 31.8536 97.5495C31.112 96.2349 30.1008 95.19 29.0221 94.5495C27.8761 93.8754 26.7637 93.8079 25.921 94.2798L24.8424 94.8866L25.0109 95.19C24.775 95.763 24.6064 96.4034 24.6064 97.145Z" fill="#E5E7EA"/>
<path d="M23.5613 97.7857C23.5613 99.0329 23.9657 100.415 24.7073 101.729C25.4489 103.044 26.4601 104.089 27.5387 104.696C28.6848 105.37 29.7971 105.471 30.6398 104.965C31.4825 104.46 31.9544 103.482 31.9881 102.134C31.9881 100.887 31.5836 99.5048 30.8084 98.1902C30.0668 96.8756 29.0556 95.8306 27.9769 95.1902C26.7972 94.516 25.7185 94.4149 24.8759 94.9205C23.9995 95.4599 23.5276 96.4374 23.5613 97.7857Z" fill="white"/>
<path d="M23.5957 97.7854C23.5957 99.0326 24.0339 100.381 24.7755 101.695C25.517 102.976 26.4945 104.055 27.5732 104.662C28.6855 105.302 29.7979 105.403 30.6069 104.931C31.4495 104.46 31.8877 103.448 31.8877 102.167C31.8877 100.92 31.4833 99.5382 30.7417 98.2573C30.0001 96.9427 28.9889 95.8978 27.9103 95.2911C26.7979 94.6506 25.7193 94.5495 24.8766 95.0214C24.0676 95.4933 23.5957 96.4708 23.5957 97.7854Z" fill="#DBDCDE"/>
<path d="M23.9995 97.7857C23.9995 100.179 25.6849 103.112 27.7747 104.325C29.8646 105.538 31.55 104.561 31.55 102.134C31.55 99.7408 29.8309 96.7745 27.7747 95.5948C25.6849 94.3813 23.9658 95.3588 23.9995 97.7857Z" fill="#ECECEC"/>
<path d="M26.7305 97.3136L25.6182 97.9541L26.2249 98.999C26.3934 99.9765 26.9665 100.988 27.7417 101.594L28.3485 102.639L29.4608 101.999C29.7979 101.797 30.0338 101.359 30.0338 100.752C30.0338 99.5383 29.1574 98.0215 28.1125 97.4147C27.5732 97.1451 27.0676 97.1114 26.7305 97.3136Z" fill="#747474"/>
<path d="M26.6631 100.314C26.7642 100.482 26.8653 100.685 27.0002 100.819L29.6631 99.2688C29.5956 99.0666 29.4945 98.898 29.3597 98.7295L26.6631 100.314Z" fill="#76777E"/>
<path d="M25.9893 98.6617L26.1578 98.9651L28.3825 97.6842C28.2814 97.5831 28.1802 97.5157 28.0454 97.4482L25.9893 98.6617Z" fill="#76777E"/>
<path d="M25.8873 98.4599L27.8424 97.3476C27.4379 97.1791 27.0334 97.1791 26.7637 97.3476L25.6514 97.988L25.8873 98.4599Z" fill="#76777E"/>
<path d="M25.0449 99.201C25.0449 97.9875 25.9213 97.4819 26.9663 98.0886C28.0112 98.6954 28.8876 100.178 28.8876 101.392C28.8876 102.605 28.0449 103.111 26.9663 102.504C25.8876 101.931 25.0449 100.448 25.0449 99.201Z" fill="#747474"/>
<path d="M21.9766 97.145C21.9766 100.448 24.3024 104.46 27.1338 106.111C29.9989 107.763 32.3248 106.415 32.3248 103.145C32.3248 99.8416 29.9989 95.8304 27.1675 94.1788C24.3024 92.5271 21.9766 93.8417 21.9766 97.145ZM26.6956 95.0215V99.5383L23.2912 99.8416C23.0552 99.1001 22.9204 98.3585 22.9204 97.6843C22.9204 95.19 24.572 94.0776 26.6956 95.0215ZM31.381 102.572C31.381 103.28 31.2461 103.853 31.0102 104.325L27.6394 100.078V95.5608C29.7293 97.0776 31.381 100.078 31.381 102.572ZM23.7631 101.055L27.1338 100.752L30.5383 104.965C29.763 105.74 28.5495 105.808 27.1338 104.999C25.7518 104.224 24.5383 102.707 23.7631 101.055Z" fill="#C7C6C5"/>
<path d="M21.6064 97.5159C21.6064 100.786 23.9323 104.83 26.7637 106.448C29.6288 108.1 31.9209 106.752 31.9209 103.482C31.9209 100.179 29.5951 96.1676 26.7637 94.5496C23.8986 92.898 21.6064 94.2463 21.6064 97.5159ZM26.2918 95.426V99.9428L22.8873 100.246C22.6514 99.5046 22.5165 98.7968 22.5165 98.0889C22.5503 95.5609 24.2019 94.4822 26.2918 95.426ZM30.9771 102.943C30.9771 103.651 30.8423 104.224 30.6063 104.696L27.2019 100.448V95.9316C29.3255 97.4485 30.9771 100.448 30.9771 102.943ZM23.3592 101.426L26.7637 101.123L30.1681 105.336C29.3929 106.111 28.1794 106.179 26.7637 105.37C25.3817 104.594 24.1345 103.078 23.3592 101.426Z" fill="#747474"/>
<path d="M19.5842 102.909C19.719 103.145 19.955 103.179 20.292 103.044C20.5954 102.943 20.9325 102.639 21.3033 102.37C21.674 102.1 22.0448 101.83 22.3145 101.662C22.4493 101.561 22.5504 101.527 22.6516 101.527C22.719 101.527 22.7864 101.527 22.7864 101.527C22.9212 101.561 23.1235 101.426 23.2246 101.224C23.3257 101.021 23.3257 100.549 22.9886 100.415C22.8875 100.381 22.719 100.482 22.5841 100.651C22.5841 100.651 22.5504 100.718 22.4493 100.785C22.3819 100.887 22.2471 100.954 22.1122 101.021C21.8426 101.156 21.4718 101.325 21.101 101.46C20.8988 101.527 20.6965 101.628 20.528 101.696C20.2583 101.797 19.8538 101.999 19.6516 102.302C19.483 102.505 19.4493 102.707 19.5842 102.909Z" fill="#C7C6C5"/>
<path d="M22.0448 101.358C21.7077 101.662 21.3706 101.965 20.9998 102.235C20.7302 102.437 20.4268 102.639 20.0897 102.673C19.7189 102.707 19.8201 102.302 19.9886 102.134C20.0897 102.033 20.2245 101.999 20.3594 101.931L22.0448 101.358Z" fill="#747474"/>
<path d="M54.1333 79.6846L53.3243 79.7183L53.1221 74.46L53.9311 74.4263L54.1333 79.6846Z" fill="#E2E2E2"/>
<path d="M52.3471 69.1003C52.0775 69.606 52.1449 70.3138 52.246 70.752C52.3134 71.0891 52.3808 71.3924 52.482 71.7295C52.6505 72.3363 52.7516 72.943 52.819 73.3812C52.8527 73.516 52.8864 73.6846 52.819 73.8194C52.7516 74.0216 52.5494 74.1228 52.5157 74.325C52.482 74.5272 52.5494 74.7632 52.7179 74.898C53.3246 75.2688 54.0999 75.0329 54.3359 74.7632C54.437 74.6284 54.5381 74.4261 54.5044 74.2576C54.4707 74.0553 54.3022 73.9542 54.201 73.8194C54.0999 73.6509 54.0662 73.4486 54.0662 73.2801C54.0662 72.7745 54.0999 72.1003 54.201 71.4262C54.3022 70.7183 54.437 70.0104 54.3359 69.5048C54.2347 68.9655 53.9314 68.6284 53.3583 68.5947C52.819 68.5947 52.5157 68.797 52.3471 69.1003Z" fill="#C7C6C5"/>
<path d="M53.2578 73.6847C53.3589 72.7072 53.5949 71.6285 53.696 70.9544C53.7634 70.4488 53.8645 69.842 53.6286 69.3027C53.3926 68.7297 52.7522 68.9993 52.6174 69.3701C52.55 69.6061 52.55 69.9431 52.5837 70.1791L53.2578 73.6847Z" fill="#747474"/>
<path d="M54.1671 79.5157C54.4031 79.6505 54.4031 79.8865 54.1671 80.0213C53.9312 80.1561 53.5267 80.1561 53.257 80.0213C53.0211 79.8865 53.0211 79.6505 53.257 79.5157C53.5267 79.3808 53.9312 79.3808 54.1671 79.5157Z" fill="#E2E2E2"/>
<path d="M236.762 152.189C236.762 156.774 244.076 160.482 253.11 160.482C262.143 160.482 269.458 156.774 269.458 152.189C269.458 147.605 262.143 143.897 253.11 143.897C244.076 143.931 236.762 147.639 236.762 152.189Z" fill="#E2E7E7"/>
<path d="M253.514 143.19C253.918 146.661 253.244 148.144 253.244 148.144L253.076 149.021C253.076 149.021 250.547 149.56 249.132 149.425C247.446 149.257 245.795 149.796 242.896 149.83C239.997 149.864 236.896 149.83 236.491 148.414C236.053 146.897 236.963 145.178 241.413 144.572C245.896 143.965 247.177 141.066 247.177 141.066L253.514 143.19Z" fill="#139DC8"/>
<path d="M256.716 95.6954C256.817 100.549 255.132 101.763 254.188 106.516C253.514 109.819 252.435 116.763 253.244 119.999C254.525 125.055 255.84 128.291 254.424 143.223C250.615 146.459 247.042 145.009 245.02 143.223C247.11 131.459 243.874 124.279 243.604 122.257C242.896 117.133 240.638 96.5044 241.649 90.8752C242.626 85.3472 251.02 92.7966 255.469 94.5157L256.716 95.6954Z" fill="#2FBAE5"/>
<path d="M268.041 145.65C269.255 149.324 268.21 158.054 263.997 159.032C262.716 159.335 259.345 159.201 258.705 157.92C257.66 155.83 259.985 153.099 261.165 150.942C261.907 149.594 261.57 148.414 261.435 146.965C261.233 145.043 262.952 145.414 264.401 145.178L268.041 145.65Z" fill="#139DC8"/>
<path d="M242.627 82.853L262.953 93.0664C262.953 93.0664 264.537 111.37 265.245 116.527C265.919 121.414 267.806 126.066 268.717 130.92C269.526 135.234 270.57 142.751 269.627 148.953C268.481 150.571 262.11 150.403 260.189 149.695C260.896 145.347 260.526 142.448 260.492 141.302C260.323 135.706 259.885 131.763 257.526 126.605C254.964 120.976 252.84 115.583 251.93 109.415C251.559 106.853 250.481 102.033 249.672 98.0551C247.582 96.1001 244.582 93.572 243.2 90.7069C242.998 87.3698 242.627 85.4148 242.627 82.853Z" fill="#2FBAE5"/>
<path d="M206.121 74.3924C206.762 73.752 207.571 73.5834 208.38 73.2801C207.503 73.1452 206.762 72.943 206.829 72.8082C207.638 71.561 213.166 71.1902 214.447 70.3812C214.346 69.6734 213.874 70.0441 213.234 69.5722C212.728 69.2015 212.054 67.752 212.829 67.5835C214.009 68.9992 215.357 68.3588 216.672 69.1003C217.413 69.5048 217.885 70.0441 218.66 70.3475C218.863 70.4149 219.031 70.6846 219.233 70.6846C220.009 70.5835 220.885 70.8531 221.391 71.561C221.424 71.5947 221.458 71.6284 221.458 71.6621C221.559 71.8643 221.593 72.2014 221.593 72.4374C221.458 74.1227 220.211 74.0216 219.132 74.3587C218.357 74.5947 217.818 75.2688 217.144 75.6733C217.11 75.707 217.042 75.707 217.009 75.7407C215.526 76.7856 213.368 76.9879 211.616 77.3924C211.043 77.5272 210.436 77.5609 209.863 77.4261C209.526 77.3587 209.155 77.2575 208.818 77.2238C208.852 76.5497 210.065 76.4823 210.537 76.3137C210.267 76.28 209.998 76.2126 209.728 76.1789C209.391 76.1115 207.234 75.7744 206.694 75.6059C206.593 75.5048 206.661 75.2688 206.795 75.0329C206.728 75.0329 206.661 75.0329 206.593 75.0329C206.222 75.0666 205.75 74.7632 206.121 74.3924Z" fill="#FFE9E2"/>
<path d="M219.975 69.1343C217.851 69.8758 217.817 69.1343 217.312 70.3814C216.435 72.5387 218.188 75.269 218.188 75.269L221.997 74.7634C221.963 74.7634 222.098 68.3927 219.975 69.1343Z" fill="#F3F3F3"/>
<path d="M250.345 58.9207C249.165 62.2578 247.548 64.8196 245.188 67.3139C243.3 69.3026 240.941 71.7296 238.48 73.0105C236.862 73.8869 233.997 74.9992 232.11 75.1678C230.66 75.2689 228.975 75.6397 227.525 75.606C226.346 75.5722 219.503 75.7745 219.503 75.7745C219.503 75.7745 218.492 73.2464 218.323 72.4374C217.986 70.9206 218.289 69.4038 218.289 69.4038C218.289 69.4038 233.694 65.7634 234.402 65.7634C235.109 65.7297 241.345 56.2916 242.997 54.5725C243.772 53.7635 244.75 53.1231 245.862 52.8871C248.491 52.3815 250.682 54.3365 250.716 56.9657C250.682 57.6062 250.548 58.2803 250.345 58.9207Z" fill="#2FBAE5"/>
<path d="M260.997 88.5495C261.368 91.6843 256.683 92.9989 253.211 93.2011C248.795 93.4371 241.986 90.5046 242.391 85.9877C242.627 83.5271 242.188 80.8979 241.986 78.471C241.683 74.662 240.604 69.5385 240.57 65.7295C240.537 61.7858 241.278 58.0779 243.537 54.6735C244.009 53.9656 246.301 52.2803 249.166 51.9432C250.312 51.8084 251.559 51.8758 252.84 52.3477C257.357 53.9656 262.48 57.4038 265.548 60.7408C265.548 60.7408 259.851 83.6956 260.997 88.5495Z" fill="#139DC8"/>
<path d="M254.593 45.1345L254.66 53.494C254.66 54.9771 253.481 56.1906 251.997 56.1906C250.514 56.1906 249.301 55.0108 249.301 53.5277C249.301 53.3929 249.301 53.258 249.334 53.1569L250.447 44.8649C250.615 43.7188 251.66 42.9098 252.806 43.0784C253.818 43.2132 254.593 44.1233 254.593 45.1345Z" fill="#FFCEC0"/>
<path d="M254.828 54.9097L253.177 60.6399L248.592 66.5725L247.244 62.6961L247.75 54.9097L250.615 56.2243L254.828 54.9097Z" fill="#F3F3F3"/>
<path d="M254.593 52.112C253.717 53.6289 251.964 55.3142 250.683 55.8873C249.571 54.7075 249.301 53.3929 249.301 53.3929L247.784 54.0334C247.784 54.0334 248.29 58.1794 248.458 58.3142L250.447 56.2243L251.998 59.1906C251.998 59.1906 255.807 54.6064 256.076 53.73C255.503 52.7188 254.694 51.6738 254.694 51.6738L254.593 52.112Z" fill="#E9E9E9"/>
<path d="M249.301 57.4039L249.739 59.5949H250.346L251.492 58.2803L250.413 56.2241L249.301 57.4039Z" fill="#FFD24D"/>
<path d="M248.222 66.7406C248.02 65.9316 247.716 65.1226 247.683 64.2799C248.39 60.9766 249.233 59.7294 249.84 58.3137C250.683 56.3587 250.683 59.1227 250.683 59.1227C250.683 59.1227 249.705 60.6395 249.402 63.7743C249.334 64.381 249.301 65.1563 249.233 65.999C249.233 65.999 249.199 65.999 249.199 66.0327C248.93 66.4035 248.593 66.6731 248.256 66.9765C248.256 66.9091 248.222 66.808 248.222 66.7406Z" fill="#FFD24D"/>
<path d="M241.48 70.3472H243.806L247.244 81.1336L261.637 82.347C262.547 86.0549 264.064 94.8862 263.997 97.212C262.952 98.4255 255.098 100.954 249.435 100.246C248.93 97.6839 247.918 95.493 247.716 93.7065C247.278 95.83 247.278 98.1558 247.885 99.8749C247.177 99.7064 242.323 97.8862 240.84 95.9986C241.548 93.4368 241.48 70.3472 241.48 70.3472Z" fill="#139DC8"/>
<path d="M249.84 65.7972L248.222 67.4826L247.581 63.1006L245.862 65.0556V78.9431L248.222 80.0555L253.177 73.078L249.84 65.7972Z" fill="#139DC8"/>
<path d="M255.233 52.4487C256.918 52.651 257.761 54.6734 257.761 54.6734L257.154 57.1004L255.233 57.606L256.75 58.2464L248.424 67.0441L254.019 57.606C254.019 57.606 255.233 53.797 255.233 52.4487Z" fill="#2FBAE5"/>
<path d="M248.222 54.1678C248.222 54.1678 246.874 62.6284 248.324 67.0104C247.515 65.5947 245.897 56.4262 245.897 56.4262L247.043 56.1903C247.043 56.1903 245.762 54.9094 245.897 55.0779C245.998 55.2465 246.807 52.415 246.807 52.415H248.897L248.222 54.1678Z" fill="#2FBAE5"/>
<path d="M254.795 47.8307C254.256 48.4374 254.526 49.8194 253.312 51.1677C251.694 52.9879 250.278 53.4598 249.638 53.8643C248.526 54.5385 247.009 54.1003 246.604 53.4598C245.694 52.0441 245.189 50.6621 244.649 49.0441C243.436 45.2689 243.84 41.3251 244.11 39.4375C245.66 35.4937 248.222 34.6173 252.874 35.1904C258.132 35.8308 259.177 42.8083 254.795 47.8307Z" fill="#FFE9E2"/>
<path d="M251.087 42.6063C251.896 43.6849 252.57 45.1006 253.345 46.3141C254.255 46.8197 255.199 47.359 255.199 47.359C256.716 46.213 257.053 44.8984 257.559 42.8759C257.963 41.1906 257.862 38.7636 257.121 37.8198L251.087 42.6063Z" fill="#453E3A"/>
<path d="M244.244 42.3705C249.435 44.6289 254.997 43.6513 257.154 38.5952C257.154 34.2469 250.177 32.4942 246.065 35.5615C242.829 37.9211 242.492 41.5952 244.244 42.3705Z" fill="#453E3A"/>
<path d="M254.458 45.0329C255.503 42.5049 257.087 43.8869 257.121 44.8981C257.188 46.1116 255.975 47.7969 254.593 48.1003C254.424 48.134 254.188 46.9205 254.222 46.4823C254.256 45.8756 254.289 45.4374 254.458 45.0329Z" fill="#FFE9E2"/>
<path d="M248.054 34.8535C242.896 36.3703 239.391 39.8422 240.233 42.6399C241.042 45.4376 245.896 46.4489 251.054 44.932C256.211 43.4152 259.716 39.9433 258.874 37.1456C258.031 34.3816 253.177 33.3366 248.054 34.8535Z" fill="#FFE28A"/>
<path d="M241.717 40.1793C241.885 41.0894 242.357 41.7636 243.099 42.2355C243.2 42.3029 243.301 42.3703 243.402 42.404C243.503 42.4377 243.604 42.5052 243.705 42.5389C244.447 42.8422 245.357 43.0108 246.368 43.0782C246.469 43.0782 246.571 43.0782 246.672 43.0782C247.885 43.1119 249.233 43.0108 250.683 42.7748C254.93 42.1344 257.997 39.7074 258.267 37.6176C258.301 37.449 258.301 37.2468 258.267 37.0783C257.93 34.4491 255.773 32.0895 252.908 31.112C252.739 31.0446 252.503 30.9772 252.335 30.9435C251.627 30.7749 250.919 30.6738 250.177 30.6738C249.908 30.6738 249.604 30.6738 249.335 30.7075C249.2 30.7075 249.065 30.7412 248.896 30.7412C244.717 31.3143 240.874 35.3592 241.717 40.1793Z" fill="#FFD24D"/>
<path d="M246.369 43.0778C246.47 43.0778 246.571 43.0778 246.672 43.0778C247.01 38.0554 249.807 34.1454 253.245 34.1454C255.268 34.1454 257.054 35.4937 258.268 37.6509C258.302 37.4824 258.302 37.2801 258.268 37.1116C257.021 35.1229 255.2 33.8757 253.245 33.8757C249.639 33.842 246.706 37.9206 246.369 43.0778Z" fill="#FFE28A"/>
<path d="M243.706 42.5389V42.4377C243.706 36.7412 246.47 31.9547 250.178 30.6738C249.908 30.6738 249.605 30.6738 249.335 30.7075C245.897 32.3592 243.437 36.9771 243.437 42.404C243.47 42.4377 243.571 42.5052 243.706 42.5389Z" fill="#FFE28A"/>
<path d="M223.582 77.527L224.054 77.1562L236.795 85.0101L243.84 101.493H243.301L223.582 77.527Z" fill="#C7C6C5"/>
<path d="M236.863 85.6509L243.301 101.493L230.559 94.2126L223.582 77.5273L236.863 85.6509Z" fill="#747474"/>
<path d="M233.425 83.2911C235.953 82.7518 238.481 84.7068 237.773 87.3023L236.93 85.3473C235.717 84.7405 233.762 83.5271 233.425 83.2911Z" fill="#D2CECF"/>
<path d="M233.222 92.7293C233.458 93.0663 236.626 94.0101 236.93 93.9427C237.907 94.3809 239.424 94.3472 240.604 93.8753C242.087 93.3023 243.638 92.6281 244.345 91.381L242.39 87.9765C241.986 87.6731 241.548 87.5046 241.076 87.4035C240.469 87.2686 238.413 87.1675 237.941 87.6394C238.076 88.0102 238.278 88.3473 238.345 88.5495C237.57 88.8529 236.593 88.9877 235.784 89.2911C234.132 89.999 231.874 90.7068 233.222 92.7293Z" fill="#FFE9E2"/>
<path d="M226.784 78.0664L236.694 84.0663L236.39 84.2686C235.952 84.1337 235.514 84.1674 235.109 84.5382C233.727 85.8191 238.649 90.6056 236.458 93.4033C233.727 92.2572 225.469 87.0326 225.469 87.0326C225.469 87.0326 226.177 85.0775 224.829 82.145C223.514 79.2124 223.784 76.2799 226.784 78.0664Z" fill="#EDEDED"/>
<path d="M233.997 84.235L234.132 83.9991L225.301 78.8081L225.166 79.0778L233.997 84.235Z" fill="#58D8FF"/>
<path d="M234.773 87.5045L234.908 87.2686L226.076 82.0776L225.941 82.3136L234.773 87.5045Z" fill="#58D8FF"/>
<path d="M235.548 90.7409L235.683 90.5049L226.852 85.3477L226.717 85.5836L235.548 90.7409Z" fill="#58D8FF"/>
<path d="M244.11 86.1567C242.526 87.7747 241.818 87.0331 242.323 89.1904C242.829 91.4488 245.087 91.9544 245.087 91.9544L248.222 89.8308C248.222 89.8308 245.694 84.5387 244.11 86.1567Z" fill="#F3F3F3"/>
<path d="M267.064 63.7075C267.469 67.2131 267.132 70.2467 266.087 73.5164C265.244 76.1118 264.199 79.3478 262.547 81.5724C261.469 83.0556 259.379 85.314 257.761 86.2915C256.514 87.0331 255.199 87.6735 253.884 88.2802C252.806 88.7858 246.503 92.3926 246.503 92.3926C246.503 92.3926 245.188 91.8195 244.581 91.2465C243.435 90.1679 241.649 87.6398 242.795 86.7297C244.649 85.2466 254.525 78.5725 255.132 78.2691C255.738 77.932 257.828 65.2917 258.536 63.0333C258.873 61.9547 259.48 60.9772 260.356 60.2693C262.48 58.6851 265.345 59.4603 266.491 61.8199C266.794 62.3929 266.963 63.0333 267.064 63.7075Z" fill="#2FBAE5"/>
<path d="M226.413 167.863L167.054 202.143L164.493 200.66L160.245 198.199L152.56 193.75L144.133 188.896L139.886 186.469L132.235 182.02L124.044 177.267L119.729 174.806L112.111 170.391L109.448 168.874L112.111 167.357L119.729 162.941L124.044 160.481L168.807 134.627L226.413 167.863Z" fill="#E5E5E5"/>
<path d="M226.379 167.29L169.987 199.885L115.212 168.268V166.987L171.638 135.672L226.379 166.009V167.29Z" fill="#139DC8"/>
<path d="M226.413 166.009L169.987 198.604L167.526 197.189L163.481 194.863L156.2 190.649L148.178 185.998L144.133 183.672L136.852 179.459L129.066 174.942L124.987 172.616L117.74 168.402L115.212 166.953L117.74 165.504L124.987 161.324L129.066 158.964L171.638 134.392L226.413 166.009Z" fill="#139DC8"/>
<path d="M178.582 138.402L122.156 170.998L121.987 170.896L178.414 138.301L178.582 138.402Z" fill="#58D8FF"/>
<path d="M185.425 142.38L128.999 174.941L128.83 174.84L185.256 142.279L185.425 142.38Z" fill="#58D8FF"/>
<path d="M192.268 146.324L135.841 178.885L135.673 178.784L192.099 146.223L192.268 146.324Z" fill="#58D8FF"/>
<path d="M199.111 150.268L142.684 182.829L142.516 182.728L198.942 150.167L199.111 150.268Z" fill="#58D8FF"/>
<path d="M205.952 154.211L149.526 186.773L149.357 186.705L205.784 154.11L205.952 154.211Z" fill="#58D8FF"/>
<path d="M212.795 158.155L156.369 190.75L156.2 190.649L212.627 158.087L212.795 158.155Z" fill="#58D8FF"/>
<path d="M219.638 162.099L163.212 194.694L163.043 194.593L219.469 162.032L219.638 162.099Z" fill="#58D8FF"/>
<path d="M126.908 159.099V173.728L119.661 169.548V162.942C122.021 161.56 124.481 160.346 126.908 159.099Z" fill="#2FBAE5"/>
<path d="M130.987 158.998V171.335L126.908 173.761V158.998H130.987Z" fill="#139DC8"/>
<path d="M146.054 170.323V184.817L138.773 180.604V170.323H146.054Z" fill="#2FBAE5"/>
<path d="M150.1 170.323V182.391L146.055 184.817V170.323H150.1Z" fill="#139DC8"/>
<path d="M195.604 169.684V183.976L188.323 179.762V169.684H195.604Z" fill="#2FBAE5"/>
<path d="M199.649 169.683V181.582L195.604 183.975V169.683H199.649Z" fill="#139DC8"/>
<path d="M169.92 184.582V198.907L162.639 194.694V184.582H169.92Z" fill="#2FBAE5"/>
<path d="M173.964 184.582V196.48L169.919 198.907V184.582H173.964Z" fill="#139DC8"/>
<path d="M212.795 161.29V165.503L220.076 169.717V161.29H212.795Z" fill="#2FBAE5"/>
<path d="M220.076 161.29V169.716L224.121 167.29V161.29H220.076Z" fill="#139DC8"/>
<path d="M226.379 161.728L169.987 194.323L115.212 162.705V161.492L171.638 130.144L226.379 160.548V161.728Z" fill="#0C8CB4"/>
<path d="M226.379 160.548L169.987 193.11L115.212 161.492L171.638 128.931L226.379 160.548Z" fill="#58D8FF"/>
<path d="M178.582 132.942L122.156 165.503L121.987 165.402L178.414 132.841L178.582 132.942Z" fill="#453E3A"/>
<path d="M185.425 136.885L128.999 169.447L128.83 169.379L185.256 136.784L185.425 136.885Z" fill="#453E3A"/>
<path d="M192.267 140.829L135.84 173.424L135.672 173.323L192.098 140.762L192.267 140.829Z" fill="#453E3A"/>
<path d="M199.11 144.773L142.683 177.368L142.515 177.267L198.941 144.706L199.11 144.773Z" fill="#453E3A"/>
<path d="M205.952 148.751L149.526 181.312L149.357 181.211L205.784 148.649L205.952 148.751Z" fill="#453E3A"/>
<path d="M212.795 152.694L156.369 185.255L156.2 185.154L212.627 152.593L212.795 152.694Z" fill="#453E3A"/>
<path d="M219.638 156.638L163.212 189.2L163.043 189.132L219.469 156.537L219.638 156.638Z" fill="#453E3A"/>
<path d="M169.987 199.885L169.919 198.57L115.212 166.953V168.267L169.987 199.885Z" fill="#2FBAE5"/>
<path d="M140.863 147.538L168.065 163.279L194.998 147.74L167.796 131.999L140.863 147.538Z" fill="#2FBAE5"/>
<path d="M187.21 110.662L184.311 108.977L175.244 103.752L151.918 117.235L160.985 122.46L163.884 124.145L173.895 129.909L197.153 116.46L187.21 110.662Z" fill="#8AE3FF"/>
<path d="M175.244 104.224L152.761 117.201L173.929 129.268L196.412 116.426L175.244 104.224Z" fill="#58D8FF"/>
<path d="M173.895 129.909L173.862 159.841L163.817 154.111L160.918 152.425L151.918 147.302V117.235L173.895 129.909Z" fill="#139DC8"/>
<path d="M173.896 129.909L173.862 159.841L197.188 146.493V116.459L173.896 129.909Z" fill="#2FBAE5"/>
<path d="M163.818 124.178V154.11L160.919 152.425V122.493L163.818 124.178Z" fill="#2FBAE5"/>
<path d="M187.211 110.661L179.054 115.38L176.155 117.066L163.886 124.144L163.818 124.178L160.886 122.493L160.987 122.459L173.223 115.38L176.155 113.695L184.279 109.01L187.211 110.661Z" fill="#2FBAE5"/>
<path d="M163.516 160.818L190.684 176.56L217.616 161.021L190.448 145.279L163.516 160.818Z" fill="#E2E2E2"/>
<path d="M209.829 123.943L206.93 122.257L197.863 117.033L174.571 130.482L183.639 135.707L186.537 137.392L196.549 143.156L219.807 129.707L209.829 123.943Z" fill="#8AE3FF"/>
<path d="M197.864 117.504L175.381 130.482L196.549 142.549L218.998 129.74L197.864 117.504Z" fill="#58D8FF"/>
<path d="M196.549 143.19L196.515 173.122L186.47 167.392L183.537 165.706L174.571 160.583V130.516L196.549 143.19Z" fill="#139DC8"/>
<path d="M196.515 143.19L196.481 173.122L219.807 159.774V129.74L196.515 143.19Z" fill="#2FBAE5"/>
<path d="M186.47 137.459V167.391L183.537 165.706V135.773L186.47 137.459Z" fill="#2FBAE5"/>
<path d="M209.829 123.942L201.705 128.661L198.773 130.347L186.537 137.425L186.436 137.459L183.537 135.774L183.605 135.74L195.874 128.661L198.773 126.976L206.93 122.291L209.829 123.942Z" fill="#2FBAE5"/>
<path d="M139.076 174.941L166.244 190.649L193.177 175.11L166.008 159.402L139.076 174.941Z" fill="#2FBAE5"/>
<path d="M185.391 138.065L182.492 136.38L173.425 131.155L150.133 144.605L159.2 149.829L162.099 151.515L172.11 157.279L195.368 143.829L185.391 138.065Z" fill="#8AE3FF"/>
<path d="M173.424 131.627L150.941 144.604L172.11 156.672L194.593 143.829L173.424 131.627Z" fill="#58D8FF"/>
<path d="M172.11 157.312L172.076 187.211L162.032 181.48L159.133 179.829L150.133 174.705V144.604L172.11 157.312Z" fill="#139DC8"/>
<path d="M172.078 157.312L172.044 187.244L195.37 173.896V143.863L172.078 157.312Z" fill="#2FBAE5"/>
<path d="M162.031 151.582V181.48L159.132 179.829V149.896L162.031 151.582Z" fill="#2FBAE5"/>
<path d="M185.39 138.065L177.267 142.784L174.334 144.47L162.099 151.515L162.031 151.582L159.099 149.897L159.166 149.829L171.436 142.784L174.334 141.099L182.492 136.38L185.39 138.065Z" fill="#2FBAE5"/>
<path d="M192.842 157.313L181.55 163.819V154.145L192.842 147.639V157.313Z" fill="#E5E0DB"/>
<path d="M191.763 150.538L182.628 155.796V154.717L191.763 149.459V150.538Z" fill="#BCBCBC"/>
<path d="M191.763 152.493L182.628 157.751V157.279L191.763 152.021V152.493Z" fill="#2FBAE5"/>
<path d="M191.763 153.774L182.628 159.032V158.56L191.763 153.268V153.774Z" fill="#2FBAE5"/>
<path d="M191.763 155.122L182.628 160.414V159.909L191.763 154.65V155.122Z" fill="#2FBAE5"/>
<path d="M191.763 156.403L182.628 161.661V161.189L191.763 155.931V156.403Z" fill="#2FBAE5"/>
</svg>
