<svg width="520" height="585" viewBox="0 0 520 585" fill="none" xmlns="http://www.w3.org/2000/svg">
<path d="M327.539 331.214L83.3452 472.2L0 424.036L244.194 283.115L327.539 331.214Z" fill="#E5E5E5"/>
<path d="M128.718 244.493V255.658L177.595 227.422V216.322L175.194 216.647L128.718 244.493Z" fill="#F3F4F4"/>
<path d="M121.837 240.534L128.718 244.494L177.596 216.322L170.715 212.298L121.837 240.534Z" fill="#EDEDED"/>
<path d="M121.837 251.699L128.718 255.659L128.783 244.559L121.837 240.6V251.699Z" fill="#EDEDED"/>
<path d="M256.137 315.052L218.489 293.242V343.678L256.137 365.423L262.174 338.16L256.137 315.052Z" fill="#3D3D3C"/>
<path d="M182.464 322.971L124.953 356.4L198.302 399.046L256.008 365.487V357.179L182.464 322.971Z" fill="#747474"/>
<path d="M182.464 314.662L124.953 348.091L198.302 390.737L256.008 357.179L182.464 314.662Z" fill="#C7C6C5"/>
<path d="M198.302 390.803V399.046L124.953 356.4V348.156L198.302 390.803Z" fill="#3D3D3C"/>
<path d="M234.003 352.7H206.87V360.749H234.003V352.7Z" fill="#757575"/>
<path d="M230.043 355.231C224.721 352.181 216.153 352.181 210.83 355.231C205.507 358.282 205.507 363.215 210.83 366.266C216.153 369.317 224.721 369.317 230.043 366.266C235.301 363.28 235.301 358.282 230.043 355.231Z" fill="#757575"/>
<path d="M230.043 346.793C224.721 343.742 216.153 343.742 210.83 346.793C205.507 349.844 205.507 354.777 210.83 357.893C216.153 360.944 224.721 360.944 230.043 357.893C235.301 354.842 235.301 349.909 230.043 346.793Z" fill="#76777E"/>
<path d="M228.875 347.507C224.202 344.845 216.672 344.845 211.998 347.507C207.325 350.233 207.325 354.582 211.998 357.243C216.672 359.905 224.202 359.905 228.875 357.243C233.549 354.517 233.549 350.233 228.875 347.507Z" fill="#453E3A"/>
<path d="M283.075 299.474L256.137 315.052V365.423L283.075 349.909V299.474Z" fill="#747474"/>
<path d="M287.424 253.387L218.489 293.242L256.137 315.117L325.137 275.197L287.424 253.387Z" fill="#9C9C9B"/>
<path d="M188.89 292.139L54.5249 369.772L127.874 412.418L262.434 334.655V326.347L188.89 292.139Z" fill="#747474"/>
<path d="M188.89 283.635L54.5249 361.268L127.874 403.914L262.434 326.151L188.89 283.635Z" fill="#C7C6C5"/>
<path d="M281.453 331.539V300.382L325.073 275.196L325.138 306.288L281.453 331.539Z" fill="#747474"/>
<path d="M273.533 320.18C273.533 318.167 272.105 317.324 270.353 318.362C268.6 319.401 267.172 321.802 267.172 323.879C267.172 325.892 268.6 326.736 270.353 325.697C272.17 324.658 273.533 322.192 273.533 320.18Z" fill="#4D4D4D"/>
<path d="M328.707 241.054L255.943 283.116V316.415L328.707 274.353V241.054Z" fill="#F3F4F4"/>
<path d="M255.943 283.116V316.415L212.063 291.1V257.801L255.943 283.116Z" fill="#ECECEC"/>
<path d="M284.828 215.738L212.063 257.8L255.878 283.116L328.707 241.118L284.828 215.738Z" fill="#EDEDED"/>
<path d="M86.9153 412.808L32.9097 381.78V432.216L86.9802 463.178L93.0169 435.851L86.9153 412.808Z" fill="#3D3D3C"/>
<path d="M127.874 404.109V412.418L54.5249 369.771V361.463L127.874 404.109Z" fill="#3D3D3C"/>
<path d="M113.918 397.229L86.9153 412.807L86.9802 463.178L113.918 447.664V397.229Z" fill="#747474"/>
<path d="M59.7827 366.201L32.9097 381.78L86.9153 412.872L113.918 397.228L59.7827 366.201Z" fill="#9C9C9B"/>
<path d="M104.376 417.87C104.376 415.858 102.948 415.014 101.196 416.053C99.4432 417.091 98.0151 419.558 98.0151 421.57C98.0151 423.582 99.4432 424.426 101.196 423.387C102.948 422.349 104.376 419.882 104.376 417.87Z" fill="#4D4D4D"/>
<path d="M233.419 296.228L160.589 338.29V371.589L233.419 329.527V296.228Z" fill="#F3F4F4"/>
<path d="M160.589 338.29V371.589L116.774 346.274V312.975L160.589 338.29Z" fill="#ECECEC"/>
<path d="M189.539 270.912L116.774 312.974L160.589 338.289L233.419 296.227L189.539 270.912Z" fill="#EDEDED"/>
<path d="M149.489 331.733L76.7244 373.795V407.095L149.489 365.033V331.733Z" fill="#EDEDED"/>
<path d="M76.7243 373.796V407.095L32.9097 381.78V348.48L76.7243 373.796Z" fill="#ECECEC"/>
<path d="M76.7243 369.837L79.0611 385.35L76.7243 397.813L32.9097 372.433V344.521L76.7243 369.837Z" fill="#3D3D3C"/>
<path d="M149.489 328.034L76.7244 369.837V397.813L149.489 355.946V328.034Z" fill="#4D4D4D"/>
<path d="M105.674 306.419L32.9097 348.481L76.7243 373.796L149.554 331.799L105.674 306.419Z" fill="#F5F5F7"/>
<path d="M318.322 201.523L211.284 262.475V296.228L318.322 235.277V201.523Z" fill="#F3F4F4"/>
<path d="M211.284 262.474V296.228L166.82 270.588V236.77L211.284 262.474Z" fill="#ECECEC"/>
<path d="M273.793 175.818L166.755 236.769L211.219 262.474L318.257 201.588L273.793 175.818Z" fill="#EDEDED"/>
<path d="M297.81 155.826L215.568 202.692V236.51L297.81 189.58V155.826Z" fill="#F3F4F4"/>
<path d="M215.568 202.691V236.51L192.006 222.684V188.865L215.568 202.691Z" fill="#ECECEC"/>
<path d="M274.182 142L192.006 188.93L215.568 202.756L297.745 155.891L274.182 142Z" fill="#EDEDED"/>
<path d="M166.95 270.848L32.5852 348.481L76.7893 374.056L211.349 296.293V287.984L166.95 270.848Z" fill="#9C9C9B"/>
<path d="M166.95 262.409L32.5852 340.042L76.7893 365.617L211.349 287.854L166.95 262.409Z" fill="#9C9C9B"/>
<path d="M76.7893 365.747V374.056L32.5852 348.481V340.237L76.7893 365.747Z" fill="#3D3D3C"/>
<path d="M166.82 261.89L136.248 279.61L180.452 305.185L211.284 287.335V283.18L166.82 261.89Z" fill="#9C9C9B"/>
<path d="M166.82 257.605L136.248 275.391L180.452 300.836L211.284 282.986L166.82 257.605Z" fill="#9C9C9B"/>
<path d="M180.452 301.031V305.186L136.248 279.611V275.392L180.452 301.031Z" fill="#747474"/>
<path d="M141.895 313.559L76.7893 351.207V365.747L141.895 328.163V313.559Z" fill="#F3F4F4"/>
<path d="M76.7893 351.207V365.747L37.5833 343.093V328.553L76.7893 351.207Z" fill="#ECECEC"/>
<path d="M102.624 290.905L37.5183 328.553L76.7243 351.207L141.83 313.624L102.624 290.905Z" fill="#EDEDED"/>
<path d="M180.127 339.263L182.594 340.691L181.295 342.963C180.971 345.105 179.673 347.312 177.985 348.675L176.687 351.012L174.22 349.584C173.441 349.129 172.987 348.22 172.987 346.857C172.987 344.196 174.869 340.95 177.206 339.587C178.309 338.873 179.348 338.808 180.127 339.263Z" fill="#747474"/>
<path d="M180.257 345.754C180.062 346.143 179.803 346.533 179.543 346.857L173.701 343.482C173.896 343.092 174.09 342.703 174.35 342.313L180.257 345.754Z" fill="#76777E"/>
<path d="M181.75 342.184L181.36 342.833L176.492 340.042C176.752 339.847 176.946 339.652 177.206 339.522L181.75 342.184Z" fill="#76777E"/>
<path d="M182.009 341.729L177.79 339.262C178.699 338.873 179.543 338.938 180.192 339.262L182.659 340.69L182.009 341.729Z" fill="#76777E"/>
<path d="M183.827 343.352C183.827 340.69 181.944 339.587 179.608 340.95C177.271 342.313 175.388 345.559 175.388 348.22C175.388 350.881 177.271 351.985 179.608 350.687C181.944 349.324 183.827 346.078 183.827 343.352Z" fill="#747474"/>
<path d="M179.218 332.318C172.987 335.888 167.924 344.716 167.924 351.921C167.924 359.126 172.987 362.047 179.218 358.412C185.45 354.842 190.513 346.014 190.513 338.809C190.513 331.669 185.45 328.748 179.218 332.318ZM188.436 340.042C188.436 341.535 188.176 343.158 187.657 344.78L180.192 344.131V334.265C184.865 332.188 188.436 334.59 188.436 340.042ZM178.18 335.433V345.3L170.715 354.517C170.196 353.479 169.936 352.245 169.936 350.687C169.936 345.235 173.571 338.679 178.18 335.433ZM179.218 356.075C176.167 357.828 173.506 357.633 171.754 356.01L179.218 346.793L186.618 347.442C184.93 351.012 182.269 354.322 179.218 356.075Z" fill="#C7C6C5"/>
<path d="M180.062 333.161C173.831 336.731 168.768 345.559 168.768 352.699C168.768 359.905 173.831 362.826 180.062 359.191C186.293 355.62 191.356 346.793 191.356 339.652C191.356 332.512 186.293 329.591 180.062 333.161ZM189.279 340.886C189.279 342.444 189.02 344.001 188.5 345.624L181.036 344.975V335.109C185.709 333.032 189.279 335.368 189.279 340.886ZM179.023 336.277V346.144L171.624 355.426C171.104 354.387 170.845 353.089 170.845 351.596C170.78 346.079 174.415 339.523 179.023 336.277ZM180.062 356.919C177.011 358.671 174.35 358.541 172.662 356.854L180.062 347.636L187.462 348.286C185.774 351.856 183.113 355.166 180.062 356.919Z" fill="#747474"/>
<path d="M195.706 350.169C195.251 349.519 194.343 349.065 193.758 348.87C193.304 348.676 192.914 348.546 192.46 348.351C191.681 348.026 190.902 347.702 190.253 347.377C189.929 347.248 189.734 347.053 189.539 346.858C189.344 346.663 189.28 346.534 189.28 346.534C189.02 346.144 188.695 345.949 188.436 346.014C187.722 346.339 187.657 347.312 187.916 347.767C188.176 348.221 188.565 348.546 188.89 348.416C188.89 348.416 189.02 348.351 189.15 348.416C189.344 348.416 189.604 348.546 189.864 348.741C190.448 349.13 191.227 349.714 192.071 350.298C192.85 350.883 193.629 351.532 194.278 351.791C194.992 352.051 195.511 351.986 195.835 351.467C196.03 351.012 195.965 350.558 195.706 350.169Z" fill="#C7C6C5"/>
<path d="M190.383 348.092C191.097 348.806 191.876 349.455 192.655 349.974C193.239 350.364 193.953 350.883 194.667 350.948C195.446 351.013 195.251 350.169 194.862 349.779C194.602 349.585 194.343 349.455 194.018 349.325L190.383 348.092Z" fill="#747474"/>
<path d="M292.747 282.532L285.607 290.646L284.958 290.256C284.244 289.802 283.724 288.893 283.724 287.595C283.724 284.934 285.607 281.688 287.879 280.39C289.047 279.741 290.086 279.676 290.8 280.065L291.254 280.325C291.384 280.39 291.514 280.455 291.643 280.585C292.293 280.974 292.617 281.623 292.747 282.532Z" fill="#747474"/>
<path d="M292.747 283.116C292.747 285.777 290.865 289.088 288.528 290.386C288.333 290.516 288.203 290.581 288.009 290.646C287.23 290.97 286.516 291.035 285.931 290.84C285.672 290.775 285.412 290.646 285.217 290.386C284.633 289.932 284.309 289.088 284.309 287.919C284.309 285.258 286.191 282.013 288.463 280.649C289.566 280 290.54 279.935 291.254 280.26C291.384 280.325 291.514 280.39 291.644 280.52C292.163 280.909 292.487 281.623 292.617 282.467C292.747 282.727 292.747 282.921 292.747 283.116Z" fill="#747474"/>
<path d="M288.398 289.801C288.138 289.931 287.944 289.801 287.944 289.542V282.207C287.944 281.947 288.138 281.558 288.398 281.428C288.658 281.298 288.852 281.428 288.852 281.688V289.022C288.852 289.282 288.658 289.672 288.398 289.801Z" fill="#E2E2E2"/>
<path d="M289.047 281.558V288.893C289.047 289.153 288.852 289.542 288.593 289.672C288.333 289.802 288.138 289.672 288.138 289.412V282.077C288.138 281.818 288.333 281.428 288.593 281.299C288.788 281.104 289.047 281.234 289.047 281.558Z" fill="#C7C6C5"/>
<path d="M302.743 292.917L302.029 294.085L289.047 286.361L288.138 285.842V284.219L289.047 284.738L302.743 292.917Z" fill="#E2E2E2"/>
<path d="M304.366 293.696C304.366 294.67 303.587 295.514 302.548 295.514C301.575 295.514 300.731 294.67 300.731 293.696C300.731 292.723 301.51 291.879 302.548 291.879C303.587 291.879 304.366 292.723 304.366 293.696Z" fill="#453E3A"/>
<path d="M303.847 293.177C303.847 293.566 303.522 293.891 303.133 293.891C302.743 293.891 302.419 293.566 302.419 293.177C302.419 292.787 302.743 292.463 303.133 292.463C303.522 292.463 303.847 292.787 303.847 293.177Z" fill="#C6C6C6"/>
<path d="M205.442 331.345L198.302 339.458L197.653 339.004C196.939 338.55 196.42 337.641 196.42 336.343C196.42 333.681 198.302 330.436 200.574 329.138C201.742 328.488 202.781 328.424 203.495 328.878L203.949 329.138C204.079 329.202 204.209 329.267 204.339 329.397C204.988 329.787 205.312 330.436 205.442 331.345Z" fill="#747474"/>
<path d="M205.442 331.929C205.442 334.59 203.56 337.9 201.223 339.198C201.028 339.263 200.899 339.393 200.704 339.458C199.925 339.783 199.211 339.848 198.627 339.653C198.367 339.588 198.107 339.458 197.913 339.198C197.328 338.744 197.004 337.835 197.004 336.732C197.004 334.071 198.886 330.825 201.223 329.462C202.327 328.813 203.3 328.748 204.014 329.072C204.144 329.137 204.274 329.202 204.404 329.332C204.923 329.722 205.248 330.436 205.377 331.279C205.442 331.539 205.442 331.734 205.442 331.929Z" fill="#747474"/>
<path d="M201.093 338.614C200.834 338.744 200.639 338.614 200.639 338.354V331.019C200.639 330.76 200.834 330.37 201.093 330.24C201.353 330.111 201.548 330.24 201.548 330.5V337.835C201.548 338.095 201.353 338.484 201.093 338.614Z" fill="#E2E2E2"/>
<path d="M201.677 330.371V337.706C201.677 337.965 201.483 338.355 201.223 338.484C200.963 338.614 200.769 338.484 200.769 338.225V330.89C200.769 330.63 200.963 330.241 201.223 330.111C201.483 329.916 201.677 330.046 201.677 330.371Z" fill="#C7C6C5"/>
<path d="M215.438 341.665L214.724 342.899L201.677 335.174L200.833 334.655V333.032L201.677 333.552L215.438 341.665Z" fill="#747474"/>
<path d="M217.061 342.509C217.061 343.483 216.282 344.326 215.244 344.326C214.27 344.326 213.426 343.547 213.426 342.509C213.426 341.535 214.27 340.691 215.244 340.691C216.282 340.691 217.061 341.535 217.061 342.509Z" fill="#76777E"/>
<path d="M216.542 341.989C216.542 342.379 216.217 342.703 215.828 342.703C215.439 342.703 215.114 342.379 215.114 341.989C215.114 341.6 215.439 341.275 215.828 341.275C216.217 341.275 216.542 341.6 216.542 341.989Z" fill="#C7C6C5"/>
<path d="M217.84 324.464L217.256 323.425L224.007 319.466L224.656 320.504L217.84 324.464Z" fill="#E2E2E2"/>
<path d="M230.433 314.662C229.589 314.662 228.68 315.246 228.161 315.701C227.771 316.025 227.447 316.35 227.057 316.674C226.408 317.323 225.694 317.908 225.11 318.297C224.915 318.427 224.785 318.557 224.526 318.622C224.201 318.687 223.942 318.492 223.617 318.622C223.357 318.751 223.033 319.011 223.033 319.271C222.968 320.309 223.812 321.153 224.331 321.283C224.591 321.348 224.915 321.348 225.11 321.153C225.305 320.958 225.305 320.699 225.499 320.439C225.629 320.18 225.889 320.05 226.084 319.92C226.733 319.595 227.641 319.141 228.615 318.816C229.589 318.427 230.627 318.167 231.212 317.648C231.861 317.129 232.055 316.48 231.731 315.701C231.471 314.987 230.952 314.727 230.433 314.662Z" fill="#C7C6C5"/>
<path d="M225.11 319.076C226.473 318.557 228.031 318.037 229.005 317.713C229.719 317.453 230.562 317.129 231.082 316.479C231.666 315.765 230.887 315.116 230.303 315.246C229.978 315.311 229.524 315.571 229.199 315.765L225.11 319.076Z" fill="#747474"/>
<path d="M211.868 330.5C210.116 330.5 209.012 329.072 209.012 326.865C209.012 323.685 211.219 319.855 213.945 318.297C214.724 317.843 215.503 317.583 216.217 317.583C217.97 317.583 219.073 319.011 219.073 321.218C219.073 324.399 216.866 328.228 214.14 329.786C213.361 330.305 212.582 330.5 211.868 330.5Z" fill="#747474"/>
<path d="M218.944 321.283C218.944 318.167 216.737 316.934 214.075 318.492C211.349 320.05 209.207 323.814 209.207 326.93C209.207 330.046 211.414 331.279 214.075 329.786C216.737 328.163 218.944 324.399 218.944 321.283Z" fill="#9C9C9B"/>
<path d="M216.282 320.244L220.891 322.906L219.917 324.658C219.658 326.281 218.684 327.969 217.386 329.007L216.347 330.76L211.739 328.098C211.154 327.774 210.83 327.06 210.83 326.021C210.83 324.009 212.258 321.478 214.01 320.504C214.919 319.985 215.698 319.92 216.282 320.244Z" fill="#9C9C9B"/>
<path d="M221.8 324.983C221.8 322.971 220.372 322.127 218.619 323.166C216.867 324.204 215.438 326.671 215.438 328.683C215.438 330.695 216.867 331.539 218.619 330.501C220.372 329.527 221.8 327.06 221.8 324.983Z" fill="#9C9C9B"/>
<path d="M237.508 210.546L236.859 209.507L243.61 205.548L244.259 206.586L237.508 210.546Z" fill="#E2E2E2"/>
<path d="M250.036 200.744C249.192 200.744 248.283 201.328 247.764 201.783C247.374 202.107 246.985 202.432 246.66 202.756C246.011 203.405 245.297 203.99 244.713 204.379C244.518 204.509 244.388 204.639 244.129 204.704C243.804 204.769 243.545 204.574 243.22 204.704C242.96 204.834 242.636 205.028 242.636 205.353C242.571 206.391 243.415 207.235 243.934 207.365C244.194 207.43 244.518 207.43 244.713 207.235C244.908 207.04 244.973 206.781 245.102 206.521C245.232 206.262 245.492 206.132 245.687 206.002C246.336 205.677 247.245 205.223 248.218 204.898C249.192 204.509 250.23 204.249 250.815 203.73C251.464 203.211 251.658 202.562 251.334 201.848C251.074 201.004 250.555 200.744 250.036 200.744Z" fill="#C7C6C5"/>
<path d="M244.713 205.158C246.076 204.639 247.634 204.119 248.608 203.795C249.322 203.535 250.165 203.211 250.685 202.561C251.269 201.847 250.49 201.198 249.906 201.328C249.581 201.393 249.127 201.653 248.802 201.847L244.713 205.158Z" fill="#747474"/>
<path d="M231.536 216.582C229.784 216.582 228.68 215.154 228.68 212.947C228.68 209.767 230.887 205.937 233.613 204.379C234.392 203.925 235.171 203.665 235.885 203.665C237.638 203.665 238.741 205.093 238.741 207.3C238.741 210.416 236.534 214.31 233.808 215.868C232.964 216.388 232.185 216.582 231.536 216.582Z" fill="#747474"/>
<path d="M238.547 207.365C238.547 204.249 236.34 203.016 233.678 204.574C230.952 206.132 228.81 209.896 228.81 213.012C228.81 216.128 231.017 217.361 233.678 215.803C236.405 214.245 238.547 210.416 238.547 207.365Z" fill="#9C9C9B"/>
<path d="M235.885 206.326L240.494 208.988L239.455 210.74C239.196 212.363 238.222 214.051 236.924 215.089L235.95 216.842L231.342 214.181C230.757 213.856 230.433 213.142 230.433 212.103C230.433 210.091 231.861 207.56 233.613 206.586C234.522 206.002 235.301 206.002 235.885 206.326Z" fill="#9C9C9B"/>
<path d="M241.468 211.065C241.468 209.053 240.04 208.209 238.287 209.248C236.534 210.286 235.106 212.753 235.106 214.765C235.106 216.777 236.534 217.621 238.287 216.648C239.975 215.609 241.468 213.078 241.468 211.065Z" fill="#9C9C9B"/>
<path d="M256.202 283.115L233.419 296.292V329.591L256.202 316.479V283.115Z" fill="#747474"/>
<path d="M222.384 289.867L245.167 276.885L256.202 283.116L233.419 296.293L222.384 289.867Z" fill="#C7C6C5"/>
<path d="M264.316 304.147C262.563 304.147 261.46 302.719 261.46 300.512C261.46 297.331 263.667 293.501 266.393 291.944C267.172 291.489 267.951 291.229 268.665 291.229C270.418 291.229 271.521 292.658 271.521 294.864C271.521 297.98 269.314 301.875 266.588 303.433C265.744 303.952 265.03 304.147 264.316 304.147Z" fill="#747474"/>
<path d="M271.391 294.929C271.391 291.814 269.184 290.58 266.523 292.138C263.797 293.696 261.655 297.461 261.655 300.577C261.655 303.692 263.862 304.991 266.523 303.433C269.184 301.81 271.391 298.045 271.391 294.929Z" fill="#9C9C9B"/>
<path d="M268.665 293.89L273.274 296.552L272.235 298.304C271.976 299.927 271.002 301.615 269.769 302.653L268.73 304.406L264.121 301.68C263.537 301.355 263.213 300.641 263.213 299.602C263.213 297.59 264.641 295.059 266.393 294.085C267.302 293.631 268.146 293.566 268.665 293.89Z" fill="#9C9C9B"/>
<path d="M274.247 298.63C274.247 296.618 272.819 295.774 271.067 296.812C269.314 297.851 267.886 300.317 267.886 302.33C267.886 304.342 269.314 305.186 271.067 304.212C272.819 303.174 274.247 300.707 274.247 298.63Z" fill="#9C9C9B"/>
<path d="M269.057 287.579L267.824 287.618L268.085 295.793L269.318 295.753L269.057 287.579Z" fill="#E2E2E2"/>
<path d="M266.588 279.351C266.134 280.13 266.264 281.233 266.393 281.947C266.523 282.466 266.588 282.921 266.718 283.44C266.978 284.349 267.172 285.322 267.237 286.036C267.302 286.296 267.302 286.491 267.237 286.75C267.107 287.075 266.848 287.205 266.783 287.529C266.718 287.854 266.848 288.243 267.107 288.373C268.016 288.957 269.249 288.568 269.574 288.179C269.769 287.984 269.899 287.659 269.834 287.4C269.769 287.14 269.509 286.945 269.379 286.686C269.249 286.426 269.185 286.166 269.185 285.842C269.185 285.063 269.249 284.024 269.379 282.921C269.509 281.817 269.769 280.779 269.574 279.935C269.379 279.091 268.925 278.572 268.081 278.507C267.302 278.572 266.848 278.896 266.588 279.351Z" fill="#C7C6C5"/>
<path d="M268.016 286.426C268.211 284.933 268.536 283.246 268.665 282.207C268.795 281.428 268.925 280.454 268.536 279.676C268.146 278.832 267.172 279.156 266.978 279.805C266.848 280.13 266.848 280.714 266.913 281.039L268.016 286.426Z" fill="#747474"/>
<path d="M269.379 295.449C269.769 295.644 269.769 296.033 269.379 296.228C268.99 296.422 268.341 296.422 268.016 296.228C267.627 296.033 267.627 295.644 268.016 295.449C268.406 295.254 268.99 295.254 269.379 295.449Z" fill="#E2E2E2"/>
<path d="M308.52 279.091C306.768 279.091 305.664 277.663 305.664 275.456C305.664 272.275 307.871 268.446 310.597 266.888C311.376 266.433 312.155 266.174 312.869 266.174C314.622 266.174 315.725 267.602 315.725 269.809C315.725 272.989 313.518 276.819 310.792 278.377C310.013 278.831 309.234 279.091 308.52 279.091Z" fill="#747474"/>
<path d="M315.596 269.809C315.596 266.694 313.389 265.46 310.727 267.018C308.001 268.576 305.859 272.341 305.859 275.456C305.859 278.572 308.066 279.805 310.727 278.313C313.389 276.69 315.596 272.925 315.596 269.809Z" fill="#9C9C9B"/>
<path d="M312.934 268.771L317.543 271.432L316.569 273.185C316.31 274.807 315.336 276.495 314.103 277.534L313.064 279.286L308.455 276.625C307.871 276.3 307.547 275.586 307.547 274.548C307.547 272.535 308.975 270.004 310.727 269.03C311.506 268.511 312.35 268.446 312.934 268.771Z" fill="#9C9C9B"/>
<path d="M318.452 273.574C318.452 271.562 317.024 270.718 315.271 271.757C313.519 272.795 312.091 275.262 312.091 277.274C312.091 279.286 313.519 280.13 315.271 279.092C317.024 278.053 318.452 275.586 318.452 273.574Z" fill="#9C9C9B"/>
<path d="M313.519 270.653H312.285L312.026 262.54L313.259 262.475L313.519 270.653Z" fill="#E2E2E2"/>
<path d="M310.792 254.231C310.338 255.009 310.468 256.113 310.597 256.827C310.727 257.346 310.792 257.801 310.922 258.32C311.182 259.229 311.376 260.202 311.441 260.916C311.506 261.176 311.506 261.371 311.441 261.63C311.312 261.955 311.052 262.085 310.987 262.409C310.922 262.669 311.052 263.123 311.312 263.253C312.22 263.837 313.454 263.448 313.778 263.058C313.973 262.864 314.103 262.539 314.038 262.279C313.973 261.955 313.713 261.825 313.583 261.565C313.454 261.306 313.389 261.046 313.389 260.722C313.389 259.943 313.454 258.904 313.583 257.801C313.713 256.697 313.973 255.594 313.778 254.815C313.583 253.971 313.129 253.452 312.285 253.387C311.571 253.452 311.052 253.776 310.792 254.231Z" fill="#C7C6C5"/>
<path d="M312.22 261.306C312.415 259.813 312.74 258.126 312.869 257.087C312.999 256.308 313.129 255.334 312.74 254.555C312.35 253.647 311.377 254.036 311.182 254.685C311.052 255.01 311.052 255.594 311.117 255.919L312.22 261.306Z" fill="#747474"/>
<path d="M313.648 270.329C314.038 270.523 314.038 270.913 313.648 271.108C313.259 271.302 312.675 271.302 312.285 271.108C311.896 270.913 311.896 270.523 312.285 270.329C312.61 270.134 313.259 270.134 313.648 270.329Z" fill="#E2E2E2"/>
<path d="M306.898 227.683H307.936L307.871 231.318H306.833L306.898 227.683Z" fill="#E2E2E2"/>
<path d="M308.78 238.133C309.169 237.484 309.105 236.575 308.975 235.991C308.91 235.601 308.845 235.147 308.715 234.758C308.52 233.979 308.391 233.2 308.326 232.616C308.326 232.421 308.261 232.226 308.326 232.031C308.391 231.772 308.65 231.642 308.715 231.382C308.78 231.123 308.715 230.798 308.455 230.668C307.677 230.149 306.703 230.474 306.378 230.798C306.248 230.993 306.119 231.188 306.119 231.447C306.184 231.707 306.378 231.837 306.508 232.031C306.638 232.226 306.638 232.486 306.638 232.745C306.638 233.394 306.573 234.238 306.378 235.147C306.248 236.056 306.054 236.965 306.184 237.614C306.313 238.328 306.703 238.782 307.417 238.782C308.131 238.847 308.52 238.522 308.78 238.133Z" fill="#C7C6C5"/>
<path d="M307.742 232.291C307.547 233.524 307.287 234.887 307.092 235.796C306.963 236.445 306.833 237.224 307.157 237.873C307.482 238.587 308.261 238.328 308.456 237.808C308.52 237.549 308.585 237.094 308.52 236.77L307.742 232.291Z" fill="#747474"/>
<path d="M306.833 227.877C306.508 227.682 306.508 227.358 306.833 227.228C307.157 227.033 307.677 227.033 308.001 227.228C308.326 227.423 308.326 227.682 308.001 227.877C307.677 228.072 307.157 228.072 306.833 227.877Z" fill="#E2E2E2"/>
<path d="M303.717 229.694C302.289 229.694 301.38 228.526 301.38 226.708C301.38 224.112 303.198 220.931 305.469 219.633C306.119 219.244 306.768 219.049 307.352 219.049C308.78 219.049 309.689 220.217 309.689 222.035C309.689 224.631 307.871 227.812 305.599 229.11C304.885 229.499 304.301 229.694 303.717 229.694Z" fill="#747474"/>
<path d="M309.559 221.97C309.559 219.373 307.741 218.335 305.534 219.633C303.328 220.931 301.51 224.047 301.51 226.643C301.51 229.24 303.328 230.278 305.534 228.98C307.741 227.747 309.559 224.566 309.559 221.97Z" fill="#9C9C9B"/>
<path d="M307.352 221.126L311.182 223.332L310.338 224.761C310.143 226.059 309.299 227.487 308.261 228.331L307.417 229.759L303.587 227.617C303.133 227.357 302.808 226.773 302.808 225.929C302.808 224.241 303.977 222.164 305.469 221.32C306.183 220.931 306.833 220.866 307.352 221.126Z" fill="#9C9C9B"/>
<path d="M311.961 225.086C311.961 223.398 310.792 222.684 309.299 223.593C307.806 224.436 306.638 226.514 306.638 228.201C306.638 229.889 307.806 230.603 309.299 229.759C310.727 228.85 311.961 226.773 311.961 225.086Z" fill="#9C9C9B"/>
<path d="M307.871 222.684H306.832L306.768 219.114L307.806 219.049L307.871 222.684Z" fill="#E2E2E2"/>
<path d="M305.729 212.234C305.34 212.883 305.469 213.791 305.599 214.376C305.664 214.765 305.794 215.219 305.859 215.609C306.054 216.388 306.248 217.167 306.313 217.751C306.378 217.946 306.378 218.14 306.313 218.335C306.248 218.595 305.989 218.725 305.924 218.984C305.859 219.244 305.989 219.568 306.184 219.698C306.962 220.153 307.936 219.893 308.261 219.504C308.39 219.309 308.52 219.049 308.455 218.854C308.39 218.595 308.196 218.465 308.066 218.27C307.936 218.076 307.871 217.816 307.871 217.556C307.871 216.907 307.936 216.063 308.066 215.155C308.196 214.246 308.39 213.337 308.261 212.688C308.131 211.974 307.741 211.52 307.027 211.52C306.378 211.584 305.989 211.844 305.729 212.234Z" fill="#C7C6C5"/>
<path d="M306.962 218.076C307.092 216.843 307.352 215.479 307.482 214.571C307.612 213.922 307.676 213.143 307.417 212.494C307.092 211.78 306.313 212.104 306.119 212.558C306.054 212.818 306.054 213.272 306.054 213.597L306.962 218.076Z" fill="#747474"/>
<path d="M307.936 222.49C308.261 222.685 308.261 222.944 307.936 223.139C307.611 223.334 307.092 223.334 306.768 223.139C306.443 222.944 306.443 222.685 306.768 222.49C307.092 222.295 307.611 222.295 307.936 222.49Z" fill="#E2E2E2"/>
<path d="M285.412 239.366H286.451V242.936H285.412V239.366Z" fill="#E2E2E2"/>
<path d="M287.294 249.817C287.684 249.167 287.554 248.259 287.489 247.675C287.424 247.285 287.359 246.831 287.229 246.441C287.035 245.662 286.905 244.883 286.84 244.299C286.84 244.104 286.775 243.91 286.84 243.715C286.97 243.455 287.165 243.325 287.229 243.066C287.294 242.806 287.229 242.482 286.97 242.352C286.191 241.833 285.217 242.157 284.893 242.482C284.763 242.676 284.633 242.936 284.633 243.131C284.698 243.39 284.893 243.52 285.023 243.715C285.152 243.91 285.152 244.169 285.152 244.429C285.152 245.078 285.087 245.922 284.958 246.831C284.828 247.739 284.633 248.648 284.763 249.297C284.893 250.011 285.282 250.466 285.996 250.466C286.645 250.466 287.035 250.206 287.294 249.817Z" fill="#C7C6C5"/>
<path d="M286.256 243.975C286.061 245.208 285.802 246.571 285.607 247.48C285.477 248.129 285.347 248.908 285.672 249.622C285.996 250.336 286.775 250.076 286.97 249.557C287.1 249.297 287.1 248.843 287.035 248.518L286.256 243.975Z" fill="#747474"/>
<path d="M285.347 239.561C285.023 239.366 285.023 239.041 285.347 238.912C285.672 238.717 286.191 238.717 286.516 238.912C286.84 239.106 286.84 239.366 286.516 239.561C286.191 239.756 285.672 239.756 285.347 239.561Z" fill="#E2E2E2"/>
<path opacity="0.5" d="M160.589 337.965L149.879 331.993H149.814L160.07 338.419L160.589 364.449L160.978 338.744L186.099 324.074L160.589 337.965Z" fill="#F4F4F4"/>
<path d="M282.232 241.313C280.804 241.313 279.895 240.145 279.895 238.327C279.895 235.731 281.712 232.55 283.984 231.252C284.633 230.863 285.282 230.668 285.867 230.668C287.295 230.668 288.203 231.836 288.203 233.654C288.203 236.25 286.386 239.431 284.114 240.729C283.465 241.119 282.816 241.313 282.232 241.313Z" fill="#747474"/>
<path d="M288.074 233.653C288.074 231.057 286.256 230.019 284.049 231.317C281.842 232.615 280.025 235.731 280.025 238.327C280.025 240.923 281.842 241.962 284.049 240.664C286.256 239.366 288.074 236.25 288.074 233.653Z" fill="#9C9C9B"/>
<path d="M285.866 232.81L289.696 235.017L288.852 236.445C288.658 237.743 287.814 239.171 286.775 240.015L285.931 241.443L282.102 239.236C281.647 238.976 281.323 238.392 281.323 237.548C281.323 235.861 282.491 233.784 283.984 232.94C284.763 232.55 285.412 232.55 285.866 232.81Z" fill="#9C9C9B"/>
<path d="M290.475 236.77C290.475 235.082 289.307 234.368 287.814 235.212C286.321 236.056 285.153 238.133 285.153 239.82C285.153 241.508 286.321 242.222 287.814 241.378C289.307 240.535 290.475 238.457 290.475 236.77Z" fill="#9C9C9B"/>
<path d="M286.386 234.367H285.347V230.732H286.386V234.367Z" fill="#E2E2E2"/>
<path d="M284.309 223.917C283.919 224.566 284.049 225.475 284.179 226.059C284.244 226.449 284.374 226.903 284.503 227.292C284.698 228.071 284.893 228.85 284.958 229.435C284.958 229.629 285.023 229.824 284.958 230.019C284.893 230.278 284.633 230.408 284.568 230.668C284.568 230.927 284.633 231.252 284.828 231.382C285.607 231.836 286.581 231.577 286.905 231.187C287.035 230.992 287.165 230.733 287.1 230.538C287.035 230.278 286.84 230.149 286.71 229.954C286.581 229.759 286.581 229.499 286.581 229.24C286.581 228.591 286.646 227.747 286.775 226.838C286.905 225.929 287.1 225.021 286.97 224.372C286.84 223.658 286.451 223.203 285.737 223.203C284.958 223.268 284.503 223.528 284.309 223.917Z" fill="#C7C6C5"/>
<path d="M285.477 229.759C285.607 228.526 285.867 227.163 285.996 226.254C286.126 225.605 286.191 224.826 285.931 224.177C285.607 223.463 284.828 223.788 284.633 224.242C284.568 224.502 284.568 224.956 284.568 225.281L285.477 229.759Z" fill="#747474"/>
<path d="M286.451 234.108C286.775 234.303 286.775 234.562 286.451 234.757C286.126 234.952 285.607 234.952 285.282 234.757C284.958 234.562 284.958 234.303 285.282 234.108C285.607 233.913 286.126 233.913 286.451 234.108Z" fill="#E2E2E2"/>
<path d="M243.61 257.411C243.61 255.334 242.117 254.425 240.299 255.529C238.482 256.567 236.989 259.164 236.989 261.241C236.989 263.318 238.482 264.227 240.299 263.123C242.182 262.085 243.61 259.553 243.61 257.411Z" fill="#453E3A"/>
<path d="M243.48 257.475C243.48 255.463 242.052 254.619 240.299 255.658C238.547 256.697 237.119 259.163 237.119 261.175C237.119 263.188 238.547 264.031 240.299 262.993C242.052 261.954 243.48 259.488 243.48 257.475Z" fill="#F3F4F4"/>
<path d="M242.246 258.254C242.246 257.021 241.403 256.567 240.364 257.151C239.326 257.735 238.482 259.228 238.482 260.461C238.482 261.695 239.326 262.149 240.364 261.565C241.403 260.916 242.246 259.423 242.246 258.254Z" fill="#757576"/>
<path d="M243.155 257.671C243.155 259.424 241.922 261.631 240.364 262.474C238.806 263.383 237.573 262.669 237.573 260.852C237.573 259.099 238.806 256.892 240.364 256.048C241.922 255.204 243.155 255.918 243.155 257.671Z" fill="#BFC0C1"/>
<path d="M240.429 257.022L240.299 257.087V256.178L240.429 256.113V257.022ZM239.455 257.866L239.066 257.346L238.936 257.541L239.326 258.06L239.455 257.866ZM238.741 259.034L238.092 258.969L238.027 259.164L238.677 259.229L238.741 259.034ZM238.417 260.462V260.267L237.638 260.722V260.917L238.417 260.462ZM238.741 261.436L238.677 261.306L238.027 262.15L238.092 262.28L238.741 261.436ZM239.455 261.76H239.326L238.936 262.734H239.066L239.455 261.76ZM240.429 261.436L240.299 261.501V262.345L240.494 262.28V261.436H240.429ZM241.792 261.111L241.403 260.592L241.273 260.722L241.662 261.241L241.792 261.111ZM242.701 259.424L242.052 259.359L241.987 259.553L242.636 259.618L242.701 259.424ZM243.026 257.671L242.247 258.125V258.32L243.026 257.866V257.671ZM242.701 256.503L242.636 256.373L241.987 257.217L242.052 257.346L242.701 256.503ZM241.792 255.854H241.662L241.273 256.827H241.403L241.792 255.854ZM239.78 257.087L239.65 256.697L239.585 256.762L239.78 257.087ZM238.741 258.385L238.482 258.19L238.417 258.255L238.677 258.45L238.741 258.385ZM238.157 259.878L237.768 260.008V260.073L238.157 259.943V259.878ZM238.157 261.306L237.768 261.566V261.631L238.157 261.306ZM238.741 262.15L238.417 262.604H238.482L238.741 262.15ZM239.78 262.215L239.585 262.734H239.65L239.78 262.215ZM241.078 261.89L240.948 261.501L240.883 261.566L241.078 261.89ZM242.247 260.397L241.922 260.203L241.857 260.267L242.117 260.397H242.247ZM242.961 258.645L242.571 258.774V258.839L242.961 258.71V258.645ZM242.961 257.087V257.022L242.571 257.346V257.411L242.961 257.087ZM242.247 256.113L241.922 256.568H241.987L242.247 256.113ZM241.078 255.983L240.883 256.503H240.948L241.078 255.983Z" fill="#9F9F9F"/>
<path d="M240.429 259.034C240.429 258.839 240.429 258.644 240.494 258.45C240.494 258.255 240.494 258.125 240.494 257.93C240.494 257.216 240.429 256.438 240.429 256.438C240.429 256.438 240.364 257.216 240.364 257.995C240.364 258.19 240.364 258.385 240.364 258.58C240.364 258.709 240.364 258.904 240.364 259.034C240.299 259.099 240.234 259.358 240.234 259.553C240.234 259.813 240.299 259.943 240.429 259.878C240.559 259.813 240.624 259.553 240.624 259.358C240.559 259.164 240.494 259.099 240.429 259.034Z" fill="#139DC8"/>
<path opacity="0.4" fill-rule="evenodd" clip-rule="evenodd" d="M237.768 261.566C238.092 262.734 239.196 263.123 240.494 262.344C240.754 262.215 240.948 262.085 241.143 261.89C242.182 260.787 242.896 259.229 242.896 257.866C242.896 256.178 241.792 255.399 240.429 256.048C240.494 256.243 240.494 256.502 240.494 256.697C240.559 258.45 239.326 260.657 237.768 261.566Z" fill="white"/>
<path d="M225.954 268.316L228.485 263.967L228.031 263.707L225.5 268.056L225.954 268.316Z" fill="#0B86AC"/>
<path d="M228.55 264.876C228.55 265.979 227.771 267.342 226.798 267.927C225.824 268.511 225.045 268.056 225.045 266.888C225.045 265.785 225.824 264.356 226.798 263.837C227.771 263.253 228.55 263.707 228.55 264.876Z" fill="#0B86AC"/>
<path d="M228.94 265.07C228.94 266.174 228.161 267.602 227.187 268.121C226.213 268.705 225.435 268.251 225.435 267.082C225.435 265.979 226.213 264.551 227.187 264.032C228.161 263.512 228.94 263.967 228.94 265.07Z" fill="#139DC8"/>
<path d="M228.81 265.395C228.81 266.303 228.161 267.407 227.382 267.861C226.603 268.316 225.954 267.926 225.954 267.017C225.954 266.109 226.603 265.005 227.382 264.551C228.161 264.161 228.81 264.486 228.81 265.395Z" fill="#0B86AC"/>
<path d="M226.538 267.926L228.485 264.551L230.692 265.784L228.745 269.159L226.538 267.926Z" fill="#58D8FF"/>
<path d="M228.875 265.46C228.875 265.849 228.745 266.368 228.485 266.823C228.226 267.277 227.901 267.602 227.512 267.796C227.317 267.926 227.122 267.991 226.928 267.991L226.798 268.121L226.408 267.926C226.084 267.796 225.954 267.407 225.954 266.953C225.954 266.498 226.084 266.044 226.343 265.589C226.603 265.135 226.928 264.811 227.317 264.616C227.706 264.356 228.096 264.356 228.356 264.551L228.745 264.746L228.68 264.875C228.81 265.005 228.875 265.265 228.875 265.46Z" fill="#58D8FF"/>
<path d="M230.757 265.135L231.861 265.784L231.277 266.822C231.147 267.731 230.563 268.705 229.849 269.289L229.264 270.328L228.161 269.678C227.836 269.484 227.642 269.094 227.642 268.51C227.642 267.342 228.485 265.914 229.459 265.329C229.913 264.94 230.368 264.94 230.757 265.135Z" fill="#1885A7"/>
<path d="M232.38 266.953C232.38 265.785 231.536 265.33 230.563 265.914C229.524 266.499 228.745 267.927 228.745 269.095C228.745 270.263 229.589 270.718 230.563 270.134C231.536 269.549 232.38 268.121 232.38 266.953Z" fill="#747474"/>
<path d="M232.38 266.953C232.38 265.785 231.536 265.33 230.563 265.914C229.524 266.499 228.745 267.927 228.745 269.095C228.745 270.263 229.589 270.718 230.563 270.134C231.536 269.549 232.38 268.121 232.38 266.953Z" fill="#2FBAE5"/>
<path d="M231.926 267.147C231.926 266.239 231.277 265.849 230.498 266.304C229.719 266.758 229.07 267.862 229.07 268.77C229.07 269.679 229.719 270.068 230.498 269.614C231.277 269.16 231.926 268.056 231.926 267.147Z" fill="#1885A7"/>
<path d="M249.776 254.815L252.308 250.466L251.853 250.206L249.322 254.555L249.776 254.815Z" fill="#0B86AC"/>
<path d="M252.373 251.375C252.373 252.478 251.594 253.841 250.62 254.426C249.646 255.01 248.867 254.555 248.867 253.387C248.867 252.284 249.646 250.92 250.62 250.336C251.594 249.752 252.373 250.206 252.373 251.375Z" fill="#0B86AC"/>
<path d="M252.762 251.569C252.762 252.673 251.983 254.101 251.009 254.62C250.036 255.204 249.257 254.75 249.257 253.582C249.257 252.478 250.036 251.05 251.009 250.531C251.983 250.011 252.762 250.466 252.762 251.569Z" fill="#139DC8"/>
<path d="M252.632 251.894C252.632 252.802 251.983 253.906 251.204 254.36C250.425 254.815 249.776 254.425 249.776 253.516C249.776 252.608 250.425 251.504 251.204 251.05C251.983 250.595 252.632 250.985 252.632 251.894Z" fill="#0B86AC"/>
<path d="M250.36 254.425L252.308 251.05L254.515 252.283L252.567 255.658L250.36 254.425Z" fill="#58D8FF"/>
<path d="M252.697 251.959C252.697 252.348 252.567 252.868 252.308 253.322C252.048 253.776 251.723 254.101 251.334 254.361C251.139 254.49 250.945 254.555 250.75 254.555L250.62 254.685L250.23 254.49C249.971 254.296 249.776 253.971 249.776 253.517C249.776 253.062 249.906 252.608 250.166 252.154C250.425 251.699 250.75 251.375 251.139 251.115C251.529 250.92 251.918 250.855 252.178 251.05L252.567 251.245L252.502 251.375C252.632 251.505 252.697 251.699 252.697 251.959Z" fill="#58D8FF"/>
<path d="M254.515 251.635L255.618 252.284L255.034 253.322C254.904 254.231 254.32 255.205 253.606 255.789L253.022 256.828L251.918 256.178C251.594 255.984 251.399 255.594 251.399 255.01C251.399 253.842 252.243 252.414 253.216 251.829C253.736 251.44 254.19 251.44 254.515 251.635Z" fill="#139DC8"/>
<path d="M256.202 253.452C256.202 252.284 255.359 251.829 254.385 252.413C253.346 252.998 252.502 254.426 252.502 255.594C252.502 256.762 253.346 257.217 254.385 256.633C255.359 256.048 256.202 254.62 256.202 253.452Z" fill="#2FBAE5"/>
<path d="M256.202 253.452C256.202 252.284 255.359 251.829 254.385 252.413C253.346 252.998 252.502 254.426 252.502 255.594C252.502 256.762 253.346 257.217 254.385 256.633C255.359 256.048 256.202 254.62 256.202 253.452Z" fill="#2FBAE5"/>
<path d="M255.748 253.647C255.748 252.738 255.099 252.348 254.32 252.803C253.541 253.257 252.892 254.361 252.892 255.269C252.892 256.178 253.541 256.568 254.32 256.113C255.099 255.659 255.748 254.555 255.748 253.647Z" fill="#139DC8"/>
<path d="M259.708 248.843L262.239 244.494L261.785 244.234L259.253 248.583L259.708 248.843Z" fill="#0B86AC"/>
<path d="M262.304 245.338C262.304 246.441 261.525 247.804 260.551 248.389C259.578 248.973 258.799 248.518 258.799 247.35C258.799 246.247 259.578 244.819 260.551 244.299C261.525 243.78 262.304 244.234 262.304 245.338Z" fill="#0B86AC"/>
<path d="M262.693 245.598C262.693 246.701 261.914 248.129 260.941 248.648C259.967 249.233 259.188 248.778 259.188 247.61C259.188 246.506 259.967 245.078 260.941 244.559C261.914 244.04 262.693 244.494 262.693 245.598Z" fill="#139DC8"/>
<path d="M262.564 245.922C262.564 246.831 261.914 247.934 261.136 248.389C260.357 248.843 259.708 248.453 259.708 247.545C259.708 246.636 260.357 245.532 261.136 245.078C261.914 244.624 262.564 245.013 262.564 245.922Z" fill="#0B86AC"/>
<path d="M260.292 248.453L262.239 245.078L264.446 246.311L262.499 249.687L260.292 248.453Z" fill="#58D8FF"/>
<path d="M262.628 245.987C262.628 246.377 262.499 246.896 262.239 247.35C261.979 247.805 261.655 248.129 261.265 248.389C261.071 248.519 260.876 248.584 260.681 248.584L260.551 248.714L260.162 248.519C259.902 248.324 259.708 248 259.708 247.545C259.708 247.091 259.837 246.636 260.097 246.182C260.357 245.728 260.681 245.403 261.071 245.143C261.46 244.949 261.85 244.884 262.109 245.079L262.434 245.273L262.369 245.403C262.564 245.533 262.628 245.728 262.628 245.987Z" fill="#58D8FF"/>
<path d="M264.446 245.598L265.55 246.247L264.965 247.285C264.836 248.194 264.251 249.168 263.537 249.752L262.953 250.791L261.85 250.142C261.525 249.947 261.33 249.557 261.33 248.973C261.33 247.805 262.174 246.377 263.148 245.793C263.667 245.468 264.121 245.403 264.446 245.598Z" fill="#139DC8"/>
<path d="M266.134 247.416C266.134 246.247 265.29 245.793 264.316 246.377C263.278 246.961 262.434 248.389 262.434 249.558C262.434 250.726 263.278 251.181 264.316 250.596C265.29 250.012 266.134 248.649 266.134 247.416Z" fill="#58D8FF"/>
<path d="M266.134 247.416C266.134 246.247 265.29 245.793 264.316 246.377C263.278 246.961 262.434 248.389 262.434 249.558C262.434 250.726 263.278 251.181 264.316 250.596C265.29 250.012 266.134 248.649 266.134 247.416Z" fill="#58D8FF"/>
<path d="M265.679 247.675C265.679 246.766 265.03 246.377 264.251 246.831C263.472 247.285 262.823 248.389 262.823 249.298C262.823 250.206 263.472 250.596 264.251 250.141C265.03 249.687 265.679 248.584 265.679 247.675Z" fill="#58D8FF"/>
<path d="M292.812 186.658L260.681 183.607L260.292 180.881L292.163 162.576L292.812 162.901V186.658Z" fill="#9C9C9B"/>
<path d="M261.071 204.963L292.812 186.659V162.901L261.071 181.206V204.963Z" fill="#747474"/>
<path d="M263.083 201.848L291.384 185.425V166.212L263.148 182.569L263.083 201.848Z" fill="#E2E2E2"/>
<path d="M263.083 201.263L290.605 185.36V166.73L263.083 182.634V201.263Z" fill="#9F9F9F"/>
<path d="M260.292 180.882L261.071 181.206V204.964L260.357 204.574L260.292 180.882Z" fill="#747474"/>
<path opacity="0.3" d="M283.854 170.56L266.588 199.251L290.605 185.36V166.73L283.854 170.56Z" fill="#9F9F9F"/>
<path d="M212.972 245.922L177.141 266.563L141.051 236.38L176.881 215.738L212.972 245.922Z" fill="#F3F4F4"/>
<path d="M198.821 238.911C200.704 240.014 200.704 241.767 198.821 242.871L178.18 254.749C176.297 255.853 173.246 255.853 171.364 254.749L152.8 239.041C150.917 237.937 150.917 236.185 152.8 235.081L173.441 223.203C175.323 222.099 178.374 222.099 180.257 223.203L198.821 238.911Z" fill="#E7F6FD"/>
<path opacity="0.6" d="M175.129 222.554C174.48 222.684 173.896 222.878 173.376 223.203L165.457 227.747V249.816L171.299 254.749C172.338 255.334 173.701 255.593 175.064 255.528V222.554H175.129Z" fill="white"/>
<path opacity="0.6" d="M182.399 225.021L180.192 223.138C180.192 223.138 180.127 223.138 180.127 223.073V253.581L182.399 252.283V225.021Z" fill="white"/>
<path opacity="0.6" d="M198.821 238.911L186.164 228.201V250.141L198.821 242.871C200.704 241.767 200.704 240.015 198.821 238.911Z" fill="white"/>
<path opacity="0.6" d="M159.875 230.992L152.8 235.082C150.917 236.185 150.917 237.938 152.8 239.041L159.875 245.013V230.992Z" fill="white"/>
<path d="M199.146 243.066L178.504 254.944C176.427 256.113 173.052 256.113 170.975 254.944L152.345 239.236C150.268 238.067 150.268 236.12 152.345 234.887L172.987 223.008C175.064 221.84 178.439 221.84 180.516 223.008L199.081 238.717C201.223 239.885 201.223 241.832 199.146 243.066ZM153.124 235.276C151.436 236.25 151.436 237.873 153.124 238.846L171.689 254.555C173.376 255.528 176.167 255.528 177.855 254.555L198.497 242.676C200.184 241.702 200.184 240.08 198.497 239.106L179.932 223.398C178.245 222.424 175.453 222.424 173.766 223.398L153.124 235.276Z" fill="#139DC8"/>
<path d="M177.076 269.29L141.051 248.518V236.38L177.076 266.563V269.29Z" fill="#ECECEC"/>
<path d="M212.907 255.203L175.583 276.624L169.222 272.924L206.481 251.504L212.582 247.674L212.907 255.203Z" fill="#B1B9C1"/>
<path d="M177.076 266.563V280.13L174.804 278.831V265.2L177.076 266.563Z" fill="#ECECEC"/>
<path d="M177.076 266.628V280.195L179.413 278.896V265.33L177.076 266.628Z" fill="#4D4D4D"/>
<path d="M179.478 265.265V278.831L181.75 277.533V263.967L179.478 265.265Z" fill="#4D4D4D"/>
<path d="M181.88 263.902V277.469L184.152 276.17V262.539L181.88 263.902Z" fill="#4D4D4D"/>
<path d="M184.281 262.539V276.105L186.553 274.807V261.176L184.281 262.539Z" fill="#4D4D4D"/>
<path d="M186.683 261.176V274.742L188.955 273.379V259.812L186.683 261.176Z" fill="#4D4D4D"/>
<path d="M189.085 259.747V273.314L191.357 272.016V258.449L189.085 259.747Z" fill="#4D4D4D"/>
<path d="M191.486 258.385V271.951L193.758 270.653V257.087L191.486 258.385Z" fill="#4D4D4D"/>
<path d="M193.823 257.022V270.588L196.16 269.29V255.724L193.823 257.022Z" fill="#4D4D4D"/>
<path d="M196.225 255.658V269.224L198.497 267.926V254.295L196.225 255.658Z" fill="#4D4D4D"/>
<path d="M198.626 254.296V267.862L200.898 266.564V252.933L198.626 254.296Z" fill="#4D4D4D"/>
<path d="M201.028 252.868V266.499L203.3 265.136V251.569L201.028 252.868Z" fill="#4D4D4D"/>
<path d="M203.43 251.504V265.071L205.702 263.772V250.206L203.43 251.504Z" fill="#4D4D4D"/>
<path d="M205.832 250.141V263.707L208.103 262.409V248.843L205.832 250.141Z" fill="#4D4D4D"/>
<path d="M208.233 248.778V262.344L210.505 261.046V247.415L208.233 248.778Z" fill="#4D4D4D"/>
<path d="M210.57 247.415V260.981L212.907 259.683V246.052L210.57 247.415Z" fill="#4D4D4D"/>
<path d="M177.076 277.533V280.13L174.804 278.832L169.222 275.586V272.925L174.804 276.17L177.076 277.533Z" fill="#ECECEC"/>
<path d="M177.076 269.289L213.102 248.518V245.856L177.076 266.563V269.289Z" fill="#F3F4F4"/>
<path d="M169.417 274.547L171.104 276.495L171.234 276.365C171.429 276.235 171.559 276.04 171.559 275.716C171.559 275.066 171.104 274.288 170.585 273.963C170.326 273.768 170.066 273.768 169.871 273.898L169.741 273.963C169.676 273.963 169.676 274.028 169.676 274.028C169.482 274.158 169.417 274.288 169.417 274.547Z" fill="#747474"/>
<path d="M169.352 274.677C169.352 275.326 169.806 276.105 170.325 276.429C170.39 276.429 170.39 276.494 170.455 276.494C170.65 276.559 170.78 276.559 170.91 276.559C170.975 276.559 171.039 276.494 171.104 276.429C171.234 276.3 171.299 276.105 171.299 275.845C171.299 275.196 170.845 274.417 170.325 274.093C170.066 273.963 169.871 273.898 169.676 274.028C169.611 274.028 169.611 274.093 169.611 274.093C169.482 274.223 169.417 274.352 169.417 274.547C169.352 274.547 169.352 274.612 169.352 274.677Z" fill="#747474"/>
<path d="M156.045 283.05L156.759 284.283L169.741 276.559L170.65 276.04V274.417L169.741 274.936L156.045 283.05Z" fill="#747474"/>
<path d="M154.422 283.895C154.422 284.868 155.201 285.712 156.24 285.712C157.214 285.712 158.057 284.933 158.057 283.895C158.057 282.921 157.278 282.077 156.24 282.077C155.201 282.077 154.422 282.921 154.422 283.895Z" fill="#76777E"/>
<path d="M155.656 284.024C156.05 284.024 156.37 283.704 156.37 283.31C156.37 282.915 156.05 282.596 155.656 282.596C155.261 282.596 154.942 282.915 154.942 283.31C154.942 283.704 155.261 284.024 155.656 284.024Z" fill="#C7C6C5"/>
<path d="M127.16 242.417L137.416 236.51V296.487L127.16 302.394L126.186 299.992L127.16 242.417Z" fill="#F3F4F4"/>
<path d="M119.825 238.197L127.16 242.416V302.394L119.825 298.175V238.197Z" fill="#ECECEC"/>
<path d="M119.825 238.198L127.16 242.482L137.416 236.51L130.081 232.291L119.825 238.198Z" fill="#EDEDED"/>
<path d="M138.779 242.611C138.39 242.611 137.935 242.416 137.676 242.157C137.351 241.897 137.221 241.443 137.221 241.053C137.221 240.664 137.351 240.21 137.676 239.95C138.26 239.366 139.298 239.366 139.883 239.95C140.207 240.21 140.337 240.664 140.337 241.053C140.337 241.443 140.142 241.832 139.883 242.157C139.623 242.481 139.233 242.611 138.779 242.611Z" fill="#747474"/>
<path d="M158.447 266.564C158.382 266.109 158.512 265.72 158.771 265.395C158.382 265.265 158.057 264.941 157.928 264.551C157.733 264.162 157.798 263.708 157.928 263.318C157.538 263.318 157.149 263.123 156.824 262.734C156.564 262.409 156.435 261.955 156.5 261.565C156.11 261.63 155.656 261.565 155.266 261.306C154.877 261.046 154.682 260.592 154.682 260.137C154.293 260.332 153.773 260.267 153.319 260.073C152.865 259.813 152.605 259.423 152.54 258.904C152.15 259.099 151.631 259.164 151.177 258.969C150.722 258.774 150.398 258.32 150.333 257.801C149.879 258.06 149.359 258.06 148.905 257.866C148.451 257.671 148.126 257.216 147.996 256.697C147.542 256.957 147.023 256.957 146.568 256.697C146.114 256.438 145.789 255.983 145.724 255.464C145.27 255.659 144.686 255.659 144.231 255.334C143.777 255.01 143.517 254.49 143.517 253.971C142.998 254.101 142.414 254.036 142.024 253.646C141.57 253.257 141.44 252.673 141.505 252.153C140.986 252.218 140.402 252.024 140.077 251.569C139.753 251.115 139.688 250.531 139.882 250.011C139.363 249.946 138.844 249.622 138.584 249.103C138.325 248.583 138.389 247.999 138.714 247.545C138.195 247.35 137.805 246.961 137.675 246.376C137.546 245.792 137.74 245.273 138.13 244.883C137.675 244.624 137.351 244.169 137.286 243.585C137.221 242.741 137.87 241.962 138.779 241.962C139.623 241.898 140.337 242.547 140.402 243.455C140.402 243.91 140.272 244.364 139.947 244.689C140.337 244.883 140.596 245.273 140.726 245.727C140.856 246.182 140.726 246.636 140.467 246.961C140.856 247.09 141.246 247.415 141.375 247.804C141.57 248.259 141.57 248.713 141.375 249.038C141.83 249.103 142.219 249.297 142.479 249.622C142.738 250.011 142.868 250.466 142.738 250.855C143.193 250.79 143.647 250.92 143.972 251.245C144.361 251.569 144.491 252.024 144.491 252.413C144.945 252.283 145.4 252.283 145.789 252.543C146.244 252.803 146.438 253.257 146.503 253.711C146.958 253.517 147.412 253.517 147.866 253.711C148.321 253.971 148.645 254.36 148.71 254.815C149.165 254.62 149.619 254.555 150.138 254.75C150.593 254.945 150.917 255.399 150.982 255.918C151.436 255.659 151.956 255.659 152.41 255.853C152.865 256.048 153.189 256.502 153.254 257.022C153.708 256.762 154.228 256.762 154.747 257.022C155.201 257.281 155.526 257.801 155.526 258.32C156.045 258.125 156.629 258.19 157.019 258.515C157.473 258.839 157.668 259.423 157.603 259.943C158.122 259.813 158.706 260.008 159.096 260.462C159.485 260.916 159.55 261.565 159.356 262.085C159.875 262.15 160.459 262.474 160.654 263.058C160.913 263.578 160.784 264.227 160.459 264.681C160.978 264.876 161.368 265.33 161.433 265.914C161.563 266.758 160.913 267.537 160.07 267.667C160.005 267.667 159.94 267.667 159.875 267.667C159.226 267.927 158.512 267.343 158.447 266.564Z" fill="#747474"/>
<path d="M160.07 270.523C159.68 270.523 159.226 270.393 158.966 270.069C158.642 269.809 158.512 269.355 158.512 268.965C158.512 268.576 158.642 268.187 158.966 267.862C159.55 267.278 160.589 267.278 161.173 267.862C161.498 268.122 161.627 268.576 161.627 268.965C161.627 269.355 161.433 269.809 161.173 270.069C160.849 270.393 160.459 270.523 160.07 270.523Z" fill="#747474"/>
<path d="M160.07 274.613C159.096 274.613 159.226 273.12 158.901 272.86C158.577 272.6 158.447 272.146 158.447 271.756C158.447 271.367 158.577 270.913 158.901 270.653C159.486 270.069 160.524 270.069 161.108 270.653C161.433 270.913 161.563 271.367 161.563 271.756C161.563 272.146 161.368 272.6 161.108 272.86C160.784 273.12 161.108 274.613 160.07 274.613Z" fill="#2FBAE5"/>
<path d="M138.909 242.027C138.714 242.157 138.584 242.352 138.519 242.547C138.325 242.482 138.065 242.417 137.935 242.287C138.13 242.092 138.454 242.027 138.714 242.027H138.779C138.844 242.027 138.844 242.027 138.909 242.027Z" fill="#747474"/>
<path d="M160.329 267.278C160.264 267.342 160.2 267.342 160.135 267.407C160.005 267.537 159.875 267.667 159.81 267.862C159.615 267.862 159.356 267.732 159.226 267.667C158.836 267.472 158.577 267.018 158.512 266.564C158.447 266.109 158.577 265.655 158.836 265.395C158.447 265.265 158.122 264.941 157.993 264.551C157.928 264.357 157.863 264.162 157.863 263.967C157.863 263.772 157.928 263.513 157.993 263.383C157.603 263.383 157.214 263.188 156.889 262.799C156.629 262.474 156.5 262.15 156.5 261.76C156.5 261.695 156.5 261.63 156.5 261.565C156.37 261.565 156.305 261.565 156.175 261.565C155.851 261.565 155.526 261.436 155.266 261.241C154.877 260.981 154.682 260.527 154.682 260.072C154.487 260.137 154.293 260.202 154.098 260.202C153.838 260.202 153.579 260.137 153.319 260.008C152.865 259.748 152.605 259.358 152.54 258.904C152.345 259.034 152.086 259.099 151.826 259.099C151.631 259.099 151.372 259.034 151.177 258.969C150.723 258.774 150.398 258.32 150.333 257.866C150.074 257.995 149.814 258.06 149.554 258.06C149.36 258.06 149.1 257.995 148.905 257.93C148.451 257.736 148.126 257.281 147.996 256.762C147.802 256.892 147.477 256.957 147.217 256.957C146.958 256.957 146.763 256.892 146.503 256.762C146.049 256.502 145.725 256.048 145.66 255.529C145.465 255.659 145.205 255.659 145.01 255.659C144.751 255.659 144.426 255.594 144.167 255.399C143.712 255.139 143.453 254.62 143.453 254.101V254.036C143.323 254.101 143.128 254.101 142.998 254.101C142.609 254.101 142.284 253.971 141.96 253.711C141.57 253.387 141.44 252.932 141.44 252.543C141.44 252.413 141.44 252.348 141.44 252.283C141.375 252.283 141.311 252.283 141.246 252.283C140.791 252.283 140.337 252.088 140.012 251.634C139.818 251.374 139.688 251.05 139.688 250.725C139.688 250.531 139.753 250.271 139.818 250.076C139.298 250.011 138.779 249.687 138.519 249.168C138.39 248.973 138.39 248.713 138.39 248.518C138.39 248.194 138.519 247.869 138.714 247.61C138.195 247.415 137.805 247.025 137.676 246.441C137.546 245.857 137.741 245.338 138.13 244.948C137.676 244.689 137.351 244.234 137.286 243.65V243.585C137.286 243.066 137.546 242.612 137.935 242.287C138.13 242.092 138.455 242.027 138.714 242.027H138.779C138.844 242.027 138.844 242.027 138.909 242.027C138.714 242.157 138.584 242.352 138.519 242.547C138.455 242.741 138.39 242.936 138.39 243.131V243.196C138.39 243.78 138.714 244.234 139.169 244.494C138.779 244.883 138.584 245.403 138.714 245.987C138.844 246.571 139.233 246.961 139.753 247.155C139.558 247.415 139.428 247.739 139.428 248.064C139.428 248.259 139.493 248.518 139.558 248.713C139.818 249.232 140.272 249.557 140.856 249.622C140.791 249.817 140.726 250.011 140.726 250.271C140.726 250.596 140.791 250.92 141.051 251.18C141.376 251.569 141.83 251.829 142.284 251.829C142.349 251.829 142.414 251.829 142.479 251.829C142.479 251.959 142.479 252.024 142.479 252.088C142.479 252.543 142.674 252.932 142.998 253.257C143.323 253.517 143.647 253.646 144.037 253.646C144.232 253.646 144.361 253.646 144.491 253.581V253.646C144.491 254.166 144.751 254.685 145.205 254.945C145.465 255.139 145.725 255.204 146.049 255.204C146.309 255.204 146.503 255.139 146.698 255.074C146.763 255.594 147.023 256.048 147.542 256.308C147.737 256.438 147.996 256.502 148.256 256.502C148.516 256.502 148.775 256.438 149.035 256.308C149.1 256.762 149.424 257.216 149.944 257.476C150.138 257.606 150.398 257.606 150.593 257.606C150.852 257.606 151.112 257.541 151.372 257.411C151.437 257.866 151.761 258.32 152.216 258.58C152.41 258.709 152.67 258.709 152.865 258.709C153.124 258.709 153.384 258.644 153.579 258.515C153.644 258.969 153.903 259.423 154.358 259.683C154.617 259.813 154.877 259.878 155.137 259.878C155.331 259.878 155.526 259.813 155.721 259.748C155.721 260.202 155.98 260.657 156.305 260.916C156.565 261.111 156.889 261.241 157.214 261.241C157.344 261.241 157.408 261.241 157.538 261.241C157.538 261.306 157.538 261.371 157.538 261.436C157.538 261.825 157.668 262.15 157.928 262.474C158.187 262.799 158.577 262.993 159.031 263.058C158.966 263.253 158.901 263.448 158.901 263.643C158.901 263.837 158.966 264.032 159.031 264.227C159.226 264.616 159.55 264.941 159.875 265.071C159.615 265.395 159.486 265.785 159.55 266.239C159.68 266.628 159.94 267.083 160.329 267.278Z" fill="#747474"/>
<path d="M160.459 269.939C160.329 270.004 160.199 270.069 160.07 270.198C160.005 270.263 159.875 270.393 159.875 270.458C159.68 270.458 159.55 270.393 159.356 270.328C159.226 270.263 159.096 270.133 158.966 270.069C158.642 269.809 158.512 269.355 158.512 268.965C158.512 268.576 158.642 268.121 158.966 267.862C159.031 267.797 159.096 267.732 159.161 267.667C159.42 267.472 159.81 267.407 160.134 267.407C160.005 267.537 159.875 267.667 159.81 267.862C159.745 268.056 159.68 268.251 159.68 268.511C159.68 268.9 159.875 269.355 160.134 269.614C160.199 269.744 160.329 269.874 160.459 269.939Z" fill="#747474"/>
<path d="M160.784 274.093C160.654 274.418 160.459 274.613 160.07 274.613C159.096 274.613 159.226 273.12 158.901 272.86C158.577 272.601 158.447 272.146 158.447 271.757C158.447 271.367 158.577 270.913 158.901 270.653C159.031 270.523 159.161 270.458 159.356 270.394C159.55 270.264 159.81 270.199 160.07 270.264C160.005 270.329 159.875 270.458 159.875 270.523C159.68 270.783 159.615 271.043 159.615 271.367C159.615 271.757 159.81 272.211 160.07 272.471C160.265 272.665 160.265 273.704 160.784 274.093Z" fill="#2FBAE5"/>
<path d="M145.205 248.453H128.913V253.321H145.205V248.453Z" fill="#DBE0E7"/>
<path d="M142.868 250.012C139.688 248.194 134.495 248.194 131.314 250.012C128.134 251.829 128.134 254.815 131.314 256.632C134.495 258.45 139.688 258.45 142.868 256.632C146.049 254.815 146.049 251.829 142.868 250.012Z" fill="#DBE0E7"/>
<path d="M142.868 244.948C139.688 243.131 134.495 243.131 131.314 244.948C128.134 246.766 128.134 249.751 131.314 251.634C134.495 253.451 139.688 253.451 142.868 251.634C146.049 249.751 146.049 246.766 142.868 244.948Z" fill="#76777E"/>
<path d="M142.154 245.338C139.363 243.715 134.819 243.715 132.028 245.338C129.237 246.961 129.237 249.557 132.028 251.18C134.819 252.803 139.363 252.803 142.154 251.18C144.945 249.557 144.945 246.961 142.154 245.338Z" fill="#453E3A"/>
<path d="M137.091 247.675L119.825 237.679V245.598L137.091 255.529L138.714 251.505L137.091 247.675Z" fill="#ECECEC"/>
<path d="M149.424 240.534L137.091 247.674V255.529L149.424 248.453V240.534Z" fill="#F3F4F4"/>
<path d="M132.158 230.538L119.825 237.678L137.091 247.739L149.489 240.599L132.158 230.538Z" fill="#EDEDED"/>
<path d="M137.286 237.289V237.678C137.286 238.132 136.962 238.587 136.377 238.976C136.118 239.106 135.793 239.236 135.534 239.301C135.339 239.366 135.209 239.366 135.014 239.431C134.949 239.431 134.884 239.431 134.755 239.496C134.69 239.496 134.625 239.496 134.56 239.496C134.3 239.496 133.976 239.496 133.716 239.496C133.456 239.496 133.262 239.431 133.067 239.366C132.937 239.366 132.872 239.301 132.742 239.301C132.483 239.236 132.223 239.106 132.028 238.976C131.834 238.846 131.704 238.781 131.574 238.652C131.249 238.392 131.12 238.003 131.12 237.678V237.224C131.185 237.483 131.314 237.808 131.574 238.067C131.704 238.197 131.834 238.327 132.028 238.392C132.223 238.522 132.483 238.652 132.742 238.717C132.872 238.717 132.937 238.782 133.067 238.782C133.262 238.846 133.521 238.846 133.716 238.846C133.976 238.911 134.3 238.911 134.56 238.846C134.625 238.846 134.69 238.846 134.755 238.846C134.82 238.846 134.884 238.846 135.014 238.782C135.209 238.782 135.339 238.717 135.534 238.652C135.858 238.587 136.118 238.457 136.377 238.327C136.897 238.132 137.221 237.678 137.286 237.289Z" fill="#DBE0E7"/>
<path d="M136.377 235.861C135.663 235.471 134.625 235.276 133.716 235.341C133.456 235.341 133.262 235.406 133.067 235.471C132.937 235.471 132.872 235.536 132.742 235.536C132.483 235.601 132.223 235.731 132.028 235.861C131.834 235.991 131.704 236.055 131.574 236.185C131.249 236.445 131.12 236.769 131.12 237.094C131.12 237.159 131.12 237.159 131.12 237.224C131.185 237.483 131.314 237.808 131.574 238.068C131.704 238.197 131.834 238.327 132.028 238.392C132.223 238.522 132.483 238.652 132.742 238.717C132.872 238.717 132.937 238.782 133.067 238.782C133.262 238.847 133.521 238.847 133.716 238.847C134.625 238.911 135.663 238.782 136.377 238.327C136.962 238.003 137.221 237.613 137.286 237.159C137.286 237.094 137.286 237.094 137.286 237.029C137.286 236.705 136.962 236.25 136.377 235.861Z" fill="#ECECEC"/>
<path d="M134.69 236.445V220.347L156.629 206.391V205.028L133.781 219.568C133.586 219.698 133.521 219.828 133.521 220.023V237.159C133.911 236.899 134.3 236.705 134.69 236.445Z" fill="#ECECEC"/>
<path d="M134.3 236.705V220.218L156.63 206.067V205.548L133.976 219.958C133.911 220.023 133.846 220.088 133.846 220.153V237.03C134.041 236.835 134.17 236.77 134.3 236.705Z" fill="#F3F4F4"/>
<path d="M160.005 218.01L160.2 217.686C161.043 218.205 162.212 218.205 163.575 217.491C166.236 216.063 168.508 212.493 168.573 209.442C168.638 207.949 168.119 206.846 167.275 206.327L167.47 206.002C168.119 206.391 168.573 207.105 168.703 208.014C168.768 208.404 168.833 208.858 168.833 209.312C168.833 209.897 168.703 210.546 168.573 211.13C168.508 211.39 168.443 211.649 168.378 211.844C168.184 212.298 167.989 212.818 167.729 213.272C166.756 215.219 165.198 216.907 163.51 217.816C162.147 218.595 160.914 218.595 160.005 218.01Z" fill="#BFBDBF"/>
<path d="M158.966 214.57C158.966 214.246 159.031 213.856 159.096 213.532C159.161 213.337 159.161 213.207 159.226 213.012C159.356 212.493 159.486 212.039 159.745 211.519C160.135 210.611 160.654 209.702 161.303 208.858C161.498 208.663 161.628 208.469 161.823 208.274C162.277 207.755 162.796 207.3 163.315 206.976C163.38 206.911 163.445 206.911 163.51 206.846C163.575 206.781 163.705 206.716 163.835 206.651C163.9 206.586 163.965 206.586 164.029 206.521C166.691 205.093 168.768 206.391 168.638 209.442C168.638 209.507 168.638 209.572 168.638 209.637C168.638 209.767 168.638 209.897 168.573 209.962C168.573 210.026 168.573 210.091 168.573 210.221C168.508 210.87 168.314 211.519 168.054 212.104C167.989 212.363 167.859 212.623 167.729 212.818C167.275 213.726 166.691 214.635 166.042 215.349C165.717 215.739 165.328 216.128 164.938 216.453C164.808 216.582 164.679 216.712 164.484 216.777C164.224 216.972 163.9 217.167 163.64 217.296C160.914 218.919 158.837 217.621 158.966 214.57Z" fill="#8C8A8C"/>
<path d="M160.459 212.234C159.486 211.649 159.226 210.416 159.81 209.442C160.394 208.469 161.628 208.209 162.601 208.793C163.575 209.378 163.835 210.611 163.25 211.584C162.666 212.493 161.368 212.818 160.459 212.234Z" fill="white"/>
<path d="M160.005 218.01L153.968 214.245C153.579 213.986 153.254 213.661 152.994 213.142C152.735 212.623 152.605 212.038 152.605 211.26C152.605 211.195 152.605 211.065 152.605 211C152.605 210.935 152.605 210.935 152.605 210.87C152.605 210.74 152.605 210.61 152.605 210.481C152.605 210.156 152.67 209.832 152.735 209.572C152.865 208.923 153.059 208.209 153.384 207.56C153.773 206.716 154.228 205.872 154.812 205.093C154.812 205.093 154.812 205.028 154.877 205.028C154.942 204.963 155.007 204.833 155.072 204.768C155.137 204.704 155.201 204.639 155.266 204.509C155.396 204.314 155.591 204.184 155.721 203.99C155.786 203.99 155.786 203.925 155.786 203.925C155.851 203.86 155.915 203.795 155.98 203.73C156.11 203.6 156.24 203.47 156.37 203.405C156.824 202.951 157.343 202.626 157.863 202.367C158.187 202.172 158.577 202.042 158.901 201.977C158.966 201.977 159.031 201.912 159.096 201.912C160.07 201.653 160.849 201.783 161.498 202.172L167.534 205.937L167.34 206.261C167.275 206.197 167.21 206.197 167.145 206.197C167.08 206.197 167.08 206.132 167.015 206.132C166.885 206.067 166.756 206.067 166.626 206.002C166.561 206.002 166.496 206.002 166.431 205.937C166.366 205.937 166.301 205.937 166.236 205.937C166.171 205.937 166.171 205.937 166.106 205.937H166.041C165.977 205.937 165.977 205.937 165.912 205.937C165.327 205.937 164.678 206.132 163.964 206.521C163.77 206.651 163.575 206.716 163.38 206.846C163.315 206.911 163.25 206.911 163.185 206.975C162.731 207.3 162.342 207.625 161.952 208.014C161.887 208.079 161.822 208.209 161.692 208.274C161.498 208.533 161.238 208.793 161.043 209.053C160.978 209.118 160.914 209.182 160.914 209.247C160.914 209.247 160.914 209.247 160.914 209.312C160.849 209.377 160.784 209.442 160.784 209.507C160.719 209.572 160.654 209.637 160.589 209.767C160.459 209.961 160.329 210.156 160.2 210.416C160.07 210.61 160.005 210.805 159.875 211C159.81 211.195 159.68 211.389 159.615 211.584C159.55 211.779 159.486 211.909 159.421 212.103C159.356 212.168 159.356 212.298 159.356 212.363C159.291 212.558 159.226 212.688 159.226 212.882C159.161 213.142 159.096 213.402 159.096 213.596C159.096 213.661 159.096 213.661 159.096 213.726C159.096 213.791 159.096 213.856 159.096 213.921C159.096 213.986 159.096 214.051 159.096 214.051C159.096 214.181 159.031 214.375 159.031 214.505V214.57C159.031 214.7 159.031 214.895 159.031 215.024C159.031 215.089 159.031 215.154 159.031 215.284C159.031 215.349 159.031 215.414 159.031 215.479C159.031 215.479 159.031 215.479 159.031 215.544C159.031 215.609 159.031 215.673 159.096 215.738C159.096 215.868 159.161 216.063 159.161 216.193C159.226 216.323 159.226 216.452 159.291 216.517C159.291 216.582 159.356 216.647 159.356 216.712C159.356 216.777 159.421 216.777 159.421 216.842C159.421 216.907 159.486 216.907 159.486 216.907C159.55 216.972 159.55 217.037 159.615 217.037C159.615 217.102 159.68 217.102 159.745 217.166L159.81 217.231C159.81 217.231 159.81 217.296 159.875 217.296L159.94 217.361C160.005 217.426 160.07 217.491 160.135 217.491C160.2 217.556 160.264 217.556 160.264 217.621L160.005 218.01Z" fill="#9C9C9B"/>
<path d="M160.2 217.686C160.135 217.621 160.07 217.621 160.07 217.556C160.005 217.491 159.94 217.426 159.875 217.426L159.81 217.362C159.81 217.362 159.81 217.297 159.745 217.297L159.68 217.232C159.615 217.167 159.615 217.167 159.55 217.102C159.486 217.037 159.486 216.972 159.421 216.972C159.421 216.907 159.356 216.907 159.356 216.907C159.356 216.842 159.291 216.842 159.291 216.777C159.291 216.712 159.226 216.647 159.226 216.583C159.161 216.453 159.161 216.388 159.096 216.258C159.031 216.128 159.031 215.998 159.031 215.804C159.031 215.739 159.031 215.674 158.966 215.609V215.544C158.966 215.479 158.966 215.414 158.966 215.349C158.966 215.284 158.966 215.219 158.966 215.09C158.966 214.96 158.966 214.765 158.966 214.635V214.57C158.966 214.441 158.966 214.246 159.031 214.116C159.031 214.051 159.031 213.986 159.031 213.986C159.031 213.921 159.031 213.856 159.031 213.791C159.096 213.532 159.161 213.207 159.226 212.948C159.291 212.753 159.291 212.623 159.356 212.428C159.421 212.363 159.421 212.234 159.421 212.169C159.615 211.584 159.875 211 160.2 210.481C160.329 210.286 160.459 210.092 160.589 209.832C160.654 209.767 160.719 209.702 160.784 209.572C160.849 209.507 160.849 209.442 160.914 209.377C160.914 209.377 160.914 209.377 160.914 209.313C160.978 209.248 161.043 209.183 161.043 209.118C161.238 208.858 161.433 208.599 161.692 208.339C161.757 208.274 161.822 208.144 161.952 208.079C162.342 207.69 162.731 207.365 163.185 207.041C163.25 206.976 163.315 206.976 163.38 206.911C163.575 206.781 163.77 206.651 163.964 206.586C164.678 206.197 165.327 206.002 165.912 206.002C165.977 206.002 165.977 206.002 166.041 206.002H166.106C166.171 206.002 166.171 206.002 166.236 206.002C166.301 206.002 166.366 206.002 166.431 206.002C166.496 206.002 166.561 206.002 166.626 206.067C166.755 206.067 166.885 206.132 167.015 206.197C167.08 206.197 167.145 206.262 167.145 206.262C167.21 206.262 167.275 206.327 167.34 206.327L167.534 206.002C166.885 205.613 166.106 205.483 165.133 205.743C164.743 205.872 164.354 206.002 163.964 206.197C163.445 206.457 162.926 206.846 162.471 207.235C162.277 207.365 162.082 207.56 161.887 207.755C161.563 208.079 161.173 208.469 160.914 208.923C159.615 210.611 158.707 212.753 158.642 214.7C158.577 216.323 159.096 217.426 160.005 218.011L160.2 217.686Z" fill="#BFBDBF"/>
<path d="M151.761 217.426C153.319 219.828 159.161 218.724 164.743 215.025C170.326 211.325 173.571 206.391 172.013 204.055C170.456 201.653 164.614 202.756 159.031 206.456C153.449 210.091 150.203 215.025 151.761 217.426Z" fill="#FFFEF9"/>
<path d="M121.643 240.989L118.202 243.001L118.981 244.299C119.176 245.467 119.89 246.766 120.864 247.545L121.643 248.843L125.083 246.831C125.537 246.571 125.797 246.052 125.797 245.273C125.797 243.78 124.758 241.897 123.395 241.118C122.681 240.729 122.097 240.729 121.643 240.989Z" fill="#9C9C9B"/>
<path d="M117.488 244.494C117.488 242.936 118.592 242.352 119.89 243.131C121.188 243.91 122.292 245.727 122.292 247.285C122.292 248.778 121.253 249.427 119.89 248.648C118.592 247.869 117.488 246.052 117.488 244.494Z" fill="#9C9C9B"/>
<path d="M120.929 248.843C121.708 248.843 122.292 248.194 122.292 247.156C122.292 245.663 121.253 243.845 119.955 243.131C119.565 242.936 119.241 242.807 118.916 242.807C118.073 242.807 117.553 243.456 117.553 244.494C117.553 245.987 118.592 247.805 119.89 248.519C120.215 248.778 120.604 248.843 120.929 248.843Z" fill="#747474"/>
<path d="M117.618 244.494C117.618 243.001 118.657 242.417 119.89 243.196C121.188 243.91 122.162 245.727 122.162 247.155C122.162 248.648 121.123 249.233 119.89 248.454C118.657 247.74 117.618 245.987 117.618 244.494Z" fill="#9C9C9B"/>
<path d="M118.787 243.911L118.202 244.235L118.722 245.144C118.852 245.923 119.371 246.832 119.955 247.286L120.474 248.195L121.058 247.805C121.318 247.61 121.513 247.286 121.513 246.767C121.513 245.728 120.799 244.495 119.89 243.975C119.501 243.781 119.111 243.716 118.787 243.911Z" fill="#9C9C9B"/>
<path d="M117.748 245.338C117.748 244.299 118.462 243.91 119.371 244.429C120.28 244.948 120.994 246.182 120.994 247.22C120.994 248.259 120.28 248.648 119.371 248.129C118.462 247.61 117.748 246.312 117.748 245.338Z" fill="#9C9C9B"/>
<path d="M117.359 248.778C117.488 248.973 117.748 249.038 117.943 248.908C118.202 248.843 118.397 248.583 118.657 248.389C118.916 248.194 119.176 247.999 119.371 247.869C119.436 247.804 119.501 247.804 119.63 247.804C119.695 247.804 119.825 247.869 119.89 247.804C119.955 247.739 120.02 247.674 120.02 247.61C120.085 247.415 119.955 247.09 119.695 246.96C119.63 246.896 119.501 246.96 119.436 247.025C119.371 247.09 119.371 247.22 119.306 247.285C119.241 247.35 119.176 247.35 119.111 247.415C118.916 247.48 118.657 247.61 118.332 247.675C118.202 247.739 118.008 247.804 117.878 247.804C117.683 247.869 117.359 247.999 117.229 248.259C117.229 248.389 117.229 248.583 117.359 248.778Z" fill="#C7C6C5"/>
<path d="M119.371 247.479C119.046 247.739 118.657 248.129 118.397 248.323C118.203 248.453 118.008 248.648 117.748 248.713C117.488 248.778 117.424 248.453 117.489 248.323C117.553 248.258 117.683 248.129 117.813 248.129L119.371 247.479Z" fill="#747474"/>
<path d="M116.125 246.766C116.255 246.961 116.515 247.026 116.709 246.896C116.969 246.831 117.164 246.572 117.423 246.377C117.683 246.182 117.943 245.987 118.137 245.858C118.202 245.793 118.267 245.793 118.397 245.793C118.462 245.793 118.592 245.858 118.657 245.793C118.722 245.793 118.787 245.663 118.787 245.598C118.851 245.468 118.722 245.079 118.462 244.949C118.397 244.884 118.267 244.949 118.202 245.014C118.137 245.079 118.137 245.208 118.072 245.273C118.008 245.338 117.943 245.338 117.878 245.403C117.683 245.468 117.423 245.598 117.099 245.663C116.969 245.728 116.774 245.793 116.644 245.793C116.45 245.858 116.125 245.987 115.995 246.247C115.995 246.377 115.995 246.572 116.125 246.766Z" fill="#C7C6C5"/>
<path d="M118.137 245.403C117.748 245.728 117.423 246.052 117.164 246.247C116.969 246.377 116.774 246.572 116.515 246.637C116.255 246.702 116.19 246.377 116.32 246.247C116.385 246.182 116.515 246.052 116.644 246.052L118.137 245.403Z" fill="#747474"/>
<path opacity="0.5" d="M192.006 188.866L215.114 202.627L215.633 228.656L216.023 202.887L241.143 188.217L215.633 202.173L192.006 188.866Z" fill="#F4F4F4"/>
<path opacity="0.5" d="M53.1619 337.576L76.2051 351.337L76.7893 365.617L77.1788 351.597L102.429 336.343L76.7244 350.883L53.1619 337.576Z" fill="#F4F4F4"/>
<path opacity="0.5" d="M127.55 242.157L136.767 247.61L137.091 255.529L137.156 247.739L147.153 241.897L137.027 247.415L127.55 242.157Z" fill="#F4F4F4"/>
<path d="M112.685 290.451C112.685 292.852 113.464 295.579 114.892 298.045C116.32 300.577 118.332 302.524 120.345 303.757C122.551 305.055 124.694 305.25 126.316 304.277C128.004 303.303 128.848 301.42 128.913 298.824C128.913 296.422 128.134 293.761 126.641 291.23C125.213 288.698 123.265 286.686 121.188 285.517C118.981 284.219 116.839 284.024 115.152 284.998C113.594 285.972 112.685 287.854 112.685 290.451Z" fill="#F0F0F1"/>
<path d="M126.316 304.341L115.151 285.062L47.9041 324.853L59.0038 344.131L126.316 304.341Z" fill="#F9F9FA"/>
<path d="M47.3848 329.072C47.3848 331.474 48.1637 334.135 49.6566 336.667C51.0847 339.198 53.032 341.21 55.1091 342.379C56.2126 343.028 57.2512 343.352 58.2897 343.482L58.8739 344.131L61.0809 342.898C62.7037 341.924 63.6124 340.042 63.6124 337.446C63.6124 335.044 62.8335 332.383 61.3406 329.851C59.9125 327.319 57.9652 325.307 55.8881 324.074C53.6811 322.776 51.539 322.646 49.9163 323.555L47.8391 324.723L48.1637 325.307C47.7093 326.411 47.3848 327.644 47.3848 329.072Z" fill="#E5E7EA"/>
<path d="M45.3726 330.306C45.3726 332.707 46.1516 335.369 47.5796 337.9C49.0076 340.432 50.955 342.444 53.0321 343.612C55.2391 344.91 57.3811 345.105 59.0039 344.131C60.6266 343.158 61.5354 341.275 61.6003 338.679C61.6003 336.277 60.8214 333.616 59.3284 331.084C57.9004 328.553 55.9531 326.541 53.8759 325.307C51.6041 324.009 49.5269 323.814 47.9042 324.788C46.2165 325.827 45.3077 327.709 45.3726 330.306Z" fill="white"/>
<path d="M45.4375 330.306C45.4375 332.707 46.2813 335.304 47.7094 337.835C49.1374 340.302 51.0198 342.379 53.097 343.547C55.239 344.781 57.3811 344.975 58.9389 344.067C60.5617 343.158 61.4055 341.211 61.4055 338.744C61.4055 336.342 60.6266 333.681 59.1986 331.214C57.7705 328.683 55.8232 326.671 53.7461 325.502C51.604 324.269 49.5269 324.074 47.9041 324.983C46.3462 325.892 45.4375 327.774 45.4375 330.306Z" fill="#DBDCDE"/>
<path d="M46.2165 330.306C46.2165 334.914 49.462 340.561 53.4865 342.898C57.511 345.235 60.7565 343.353 60.7565 338.679C60.7565 334.07 57.4461 328.358 53.4865 326.086C49.462 323.75 46.1516 325.632 46.2165 330.306Z" fill="#ECECEC"/>
<path d="M51.4743 329.397L49.3323 330.63L50.5007 332.642C50.8252 334.525 51.9287 336.472 53.4216 337.641L54.59 339.653L56.7321 338.419C57.3812 338.03 57.8356 337.186 57.8356 336.018C57.8356 333.681 56.1479 330.76 54.1357 329.592C53.0971 329.072 52.1234 329.007 51.4743 329.397Z" fill="#747474"/>
<path d="M51.3445 335.174C51.5392 335.498 51.7339 335.888 51.9936 336.148L57.1215 333.162C56.9917 332.772 56.797 332.448 56.5373 332.123L51.3445 335.174Z" fill="#76777E"/>
<path d="M50.0461 331.993L50.3707 332.577L54.6548 330.111C54.4601 329.916 54.2653 329.786 54.0057 329.656L50.0461 331.993Z" fill="#76777E"/>
<path d="M49.8516 331.604L53.6164 329.462C52.8375 329.138 52.0585 329.138 51.5393 329.462L49.3972 330.695L49.8516 331.604Z" fill="#76777E"/>
<path d="M48.2288 333.032C48.2288 330.695 49.9164 329.721 51.9287 330.89C53.9409 332.058 55.6286 334.914 55.6286 337.251C55.6286 339.588 54.0058 340.561 51.9287 339.393C49.8515 338.289 48.2288 335.433 48.2288 333.032Z" fill="#747474"/>
<path d="M42.322 329.072C42.322 335.434 46.8009 343.158 52.2533 346.339C57.7708 349.519 62.2496 346.923 62.2496 340.626C62.2496 334.265 57.7708 326.541 52.3183 323.36C46.8009 320.18 42.322 322.711 42.322 329.072ZM51.4095 324.983V333.681L44.8535 334.265C44.3992 332.837 44.1395 331.409 44.1395 330.111C44.1395 325.308 47.3201 323.166 51.4095 324.983ZM60.4321 339.523C60.4321 340.886 60.1724 341.99 59.7181 342.898L53.227 334.72V326.022C57.2515 328.943 60.4321 334.72 60.4321 339.523ZM45.7623 336.602L52.2533 336.018L58.8093 344.132C57.3164 345.625 54.9796 345.754 52.2533 344.197C49.592 342.704 47.2552 339.783 45.7623 336.602Z" fill="#C7C6C5"/>
<path d="M41.6079 329.786C41.6079 336.083 46.0867 343.872 51.5392 346.988C57.0566 350.168 61.4706 347.572 61.4706 341.275C61.4706 334.914 56.9917 327.19 51.5392 324.074C46.0218 320.894 41.6079 323.49 41.6079 329.786ZM50.6305 325.762V334.46L44.0745 335.044C43.6201 333.616 43.3605 332.253 43.3605 330.89C43.4254 326.021 46.606 323.944 50.6305 325.762ZM59.6531 340.237C59.6531 341.6 59.3934 342.703 58.939 343.612L52.3831 335.433V326.735C56.4724 329.656 59.6531 335.433 59.6531 340.237ZM44.9833 337.316L51.5392 336.732L58.0952 344.846C56.6023 346.338 54.2655 346.468 51.5392 344.91C48.8779 343.417 46.4762 340.497 44.9833 337.316Z" fill="#747474"/>
<path d="M37.7132 340.172C37.9728 340.627 38.4272 340.692 39.0763 340.432C39.6605 340.237 40.3096 339.653 41.0236 339.134C41.7376 338.614 42.4517 338.095 42.971 337.771C43.2306 337.576 43.4253 337.511 43.6201 337.511C43.7499 337.511 43.8797 337.511 43.8797 337.511C44.1393 337.576 44.5288 337.316 44.7235 336.927C44.9183 336.537 44.9183 335.629 44.2692 335.369C44.0744 335.304 43.7499 335.499 43.4902 335.823C43.4902 335.823 43.4253 335.953 43.2306 336.083C43.1008 336.278 42.8411 336.407 42.5815 336.537C42.0622 336.797 41.3482 337.121 40.6342 337.381C40.2447 337.511 39.8552 337.706 39.5307 337.835C39.0114 338.03 38.2325 338.42 37.843 339.004C37.5185 339.393 37.4535 339.783 37.7132 340.172Z" fill="#C7C6C5"/>
<path d="M42.4516 337.187C41.8025 337.771 41.1534 338.355 40.4394 338.874C39.9201 339.264 39.3359 339.653 38.6868 339.718C37.9728 339.783 38.1675 339.004 38.492 338.679C38.6868 338.485 38.9464 338.42 39.2061 338.29L42.4516 337.187Z" fill="#747474"/>
<path d="M104.247 295.448L102.689 295.513L102.299 285.387L103.857 285.322L104.247 295.448Z" fill="#E2E2E2"/>
<path d="M100.806 275.066C100.287 276.04 100.417 277.403 100.612 278.247C100.741 278.896 100.871 279.48 101.066 280.129C101.391 281.298 101.585 282.466 101.715 283.31C101.78 283.57 101.845 283.894 101.715 284.154C101.585 284.543 101.196 284.738 101.131 285.128C101.066 285.517 101.196 285.971 101.52 286.231C102.689 286.945 104.182 286.491 104.636 285.971C104.831 285.712 105.026 285.322 104.961 284.998C104.896 284.608 104.571 284.414 104.376 284.154C104.182 283.829 104.117 283.44 104.117 283.115C104.117 282.142 104.182 280.843 104.376 279.545C104.571 278.182 104.831 276.819 104.636 275.845C104.441 274.807 103.857 274.158 102.754 274.093C101.715 274.093 101.131 274.482 100.806 275.066Z" fill="#C7C6C5"/>
<path d="M102.559 283.894C102.754 282.012 103.208 279.935 103.403 278.636C103.533 277.663 103.727 276.494 103.273 275.456C102.819 274.352 101.585 274.872 101.326 275.586C101.196 276.04 101.196 276.689 101.261 277.143L102.559 283.894Z" fill="#747474"/>
<path d="M104.311 295.124C104.766 295.384 104.766 295.838 104.311 296.098C103.857 296.358 103.078 296.358 102.559 296.098C102.104 295.838 102.104 295.384 102.559 295.124C103.078 294.865 103.857 294.865 104.311 295.124Z" fill="#E2E2E2"/>
<path d="M455.932 435.072C455.932 443.899 470.018 451.04 487.414 451.04C504.81 451.04 518.896 443.899 518.896 435.072C518.896 426.244 504.81 419.104 487.414 419.104C470.018 419.168 455.932 426.309 455.932 435.072Z" fill="#E2E7E7"/>
<path d="M488.193 417.74C488.972 424.426 487.674 427.282 487.674 427.282L487.349 428.969C487.349 428.969 482.481 430.008 479.755 429.748C476.509 429.424 473.328 430.462 467.746 430.527C462.164 430.592 456.192 430.527 455.413 427.801C454.569 424.88 456.322 421.57 464.89 420.401C473.523 419.233 475.99 413.65 475.99 413.65L488.193 417.74Z" fill="#139DC8"/>
<path d="M494.359 326.281C494.554 335.628 491.309 337.965 489.491 347.117C488.193 353.478 486.116 366.85 487.674 373.081C490.14 382.818 492.672 389.049 489.945 417.805C482.611 424.036 475.73 421.245 471.835 417.805C475.86 395.151 469.628 381.325 469.109 377.43C467.746 367.564 463.397 327.839 465.344 316.999C467.227 306.353 483.389 320.699 491.958 324.009L494.359 326.281Z" fill="#2FBAE5"/>
<path d="M516.169 422.478C518.506 429.553 516.494 446.365 508.38 448.248C505.913 448.832 499.422 448.572 498.189 446.106C496.177 442.081 500.656 436.823 502.928 432.669C504.356 430.073 503.706 427.801 503.447 425.01C503.057 421.31 506.368 422.024 509.159 421.569L516.169 422.478Z" fill="#139DC8"/>
<path d="M467.227 301.55L506.368 321.218C506.368 321.218 509.419 356.464 510.782 366.396C512.08 375.808 515.715 384.765 517.468 394.112C519.026 402.421 521.038 416.896 519.22 428.84C517.013 431.955 504.745 431.631 501.045 430.268C502.408 421.894 501.694 416.312 501.629 414.105C501.305 403.33 500.461 395.735 495.917 385.804C490.984 374.964 486.895 364.578 485.142 352.699C484.428 347.766 482.351 338.484 480.793 330.825C476.769 327.06 470.992 322.191 468.33 316.674C467.941 310.248 467.227 306.483 467.227 301.55Z" fill="#2FBAE5"/>
<path d="M396.929 285.257C398.162 284.024 399.72 283.7 401.278 283.115C399.59 282.856 398.162 282.466 398.292 282.207C399.85 279.805 410.495 279.091 412.961 277.533C412.767 276.17 411.858 276.884 410.625 275.975C409.651 275.261 408.353 272.47 409.846 272.146C412.118 274.872 414.714 273.638 417.246 275.066C418.674 275.845 419.582 276.884 421.075 277.468C421.465 277.598 421.789 278.117 422.179 278.117C423.672 277.923 425.359 278.442 426.333 279.805C426.398 279.87 426.463 279.935 426.463 280C426.658 280.389 426.723 281.038 426.723 281.493C426.463 284.738 424.061 284.543 421.984 285.193C420.491 285.647 419.453 286.945 418.154 287.724C418.089 287.789 417.96 287.789 417.895 287.854C415.039 289.866 410.884 290.256 407.509 291.035C406.405 291.294 405.237 291.359 404.134 291.099C403.485 290.97 402.77 290.775 402.121 290.71C402.186 289.412 404.523 289.282 405.432 288.957C404.913 288.892 404.393 288.763 403.874 288.698C403.225 288.568 399.071 287.919 398.032 287.594C397.837 287.399 397.967 286.945 398.227 286.491C398.097 286.491 397.967 286.491 397.837 286.491C397.123 286.556 396.214 285.971 396.929 285.257Z" fill="#FFE9E2"/>
<path d="M423.607 275.131C419.517 276.559 419.453 275.131 418.479 277.533C416.791 281.687 420.167 286.945 420.167 286.945L427.501 285.971C427.437 285.971 427.696 273.703 423.607 275.131Z" fill="#F3F3F3"/>
<path d="M482.091 255.463C479.819 261.89 476.704 266.823 472.16 271.626C468.525 275.456 463.981 280.129 459.243 282.596C456.127 284.284 450.61 286.426 446.975 286.75C444.184 286.945 440.938 287.659 438.147 287.594C435.875 287.529 422.698 287.919 422.698 287.919C422.698 287.919 420.751 283.05 420.426 281.493C419.777 278.572 420.361 275.651 420.361 275.651C420.361 275.651 450.025 268.64 451.389 268.64C452.752 268.575 464.76 250.4 467.941 247.09C469.434 245.532 471.316 244.299 473.458 243.844C478.521 242.871 482.74 246.636 482.805 251.699C482.74 252.932 482.481 254.23 482.091 255.463Z" fill="#2FBAE5"/>
<path d="M502.603 312.52C503.317 318.557 494.295 321.088 487.609 321.478C479.105 321.932 465.994 316.285 466.772 307.587C467.227 302.849 466.383 297.786 465.993 293.112C465.409 285.777 463.332 275.911 463.267 268.576C463.202 260.981 464.63 253.841 468.979 247.285C469.888 245.922 474.302 242.676 479.819 242.027C482.026 241.768 484.428 241.897 486.895 242.806C495.593 245.922 505.459 252.543 511.366 258.969C511.366 258.969 500.396 303.173 502.603 312.52Z" fill="#139DC8"/>
<path d="M490.27 228.915L490.4 245.013C490.4 247.869 488.128 250.206 485.272 250.206C482.416 250.206 480.079 247.934 480.079 245.078C480.079 244.819 480.079 244.559 480.144 244.364L482.286 228.396C482.611 226.189 484.623 224.631 486.83 224.956C488.777 225.216 490.27 226.968 490.27 228.915Z" fill="#FFCEC0"/>
<path d="M490.724 247.739L487.544 258.774L478.716 270.198L476.119 262.734L477.093 247.739L482.61 250.271L490.724 247.739Z" fill="#F3F3F3"/>
<path d="M490.27 242.352C488.582 245.273 485.207 248.518 482.74 249.622C480.598 247.35 480.079 244.818 480.079 244.818L477.158 246.052C477.158 246.052 478.132 254.036 478.456 254.295L482.286 250.271L485.272 255.983C485.272 255.983 492.607 247.155 493.126 245.467C492.022 243.52 490.465 241.508 490.465 241.508L490.27 242.352Z" fill="#E9E9E9"/>
<path d="M480.079 252.542L480.923 256.762H482.091L484.298 254.23L482.221 250.271L480.079 252.542Z" fill="#FFCB0A"/>
<path d="M478.002 270.523C477.613 268.965 477.028 267.407 476.963 265.784C478.327 259.423 479.949 257.021 481.118 254.295C482.74 250.53 482.74 255.853 482.74 255.853C482.74 255.853 480.858 258.774 480.274 264.811C480.144 265.979 480.079 267.472 479.949 269.095C479.949 269.095 479.884 269.095 479.884 269.16C479.365 269.874 478.716 270.393 478.067 270.977C478.067 270.847 478.002 270.653 478.002 270.523Z" fill="#FFCB0A"/>
<path d="M465.02 277.468H469.499L476.119 298.239L503.836 300.576C505.589 307.716 508.51 324.723 508.38 329.202C506.368 331.538 491.244 336.407 480.339 335.044C479.365 330.11 477.418 325.891 477.028 322.451C476.184 326.54 476.184 331.019 477.353 334.329C475.99 334.005 466.642 330.5 463.786 326.865C465.15 321.932 465.02 277.468 465.02 277.468Z" fill="#139DC8"/>
<path d="M481.118 268.706L478.002 271.951L476.769 263.513L473.458 267.278V294.021L478.002 296.163L487.544 282.726L481.118 268.706Z" fill="#139DC8"/>
<path d="M491.503 243.001C494.749 243.39 496.372 247.285 496.372 247.285L495.203 251.959L491.503 252.932L494.424 254.166L478.391 271.107L489.167 252.932C489.167 252.932 491.503 245.597 491.503 243.001Z" fill="#2FBAE5"/>
<path d="M478.002 246.311C478.002 246.311 475.405 262.603 478.197 271.042C476.639 268.316 473.523 250.66 473.523 250.66L475.73 250.206C475.73 250.206 473.263 247.739 473.523 248.063C473.718 248.388 475.276 242.936 475.276 242.936H479.3L478.002 246.311Z" fill="#2FBAE5"/>
<path d="M490.659 234.108C489.621 235.276 490.14 237.938 487.803 240.534C484.688 244.039 481.961 244.948 480.728 245.727C478.586 247.025 475.665 246.181 474.886 244.948C473.134 242.222 472.16 239.56 471.121 236.445C468.785 229.175 469.564 221.58 470.083 217.945C473.069 210.351 478.002 208.663 486.96 209.766C497.086 211 499.098 224.436 490.659 234.108Z" fill="#FFE9E2"/>
<path d="M483.519 224.046C485.077 226.124 486.375 228.85 487.868 231.187C489.621 232.16 491.438 233.199 491.438 233.199C494.359 230.992 495.008 228.46 495.982 224.566C496.761 221.32 496.566 216.647 495.138 214.829L483.519 224.046Z" fill="#453E3A"/>
<path d="M470.342 223.592C480.339 227.941 491.049 226.059 495.203 216.322C495.203 207.948 481.767 204.573 473.848 210.48C467.616 215.024 466.967 222.099 470.342 223.592Z" fill="#453E3A"/>
<path d="M490.01 228.72C492.023 223.852 495.073 226.513 495.138 228.46C495.268 230.797 492.931 234.043 490.27 234.627C489.946 234.692 489.491 232.355 489.556 231.511C489.621 230.343 489.686 229.499 490.01 228.72Z" fill="#FFE9E2"/>
<path d="M477.677 209.117C467.746 212.038 460.995 218.724 462.618 224.111C464.176 229.499 473.523 231.446 483.454 228.525C493.386 225.604 500.136 218.919 498.514 213.531C496.891 208.208 487.544 206.196 477.677 209.117Z" fill="#FFE28A"/>
<path d="M465.474 219.373C465.799 221.126 466.707 222.424 468.136 223.333C468.33 223.463 468.525 223.592 468.72 223.657C468.914 223.722 469.109 223.852 469.304 223.917C470.732 224.501 472.485 224.826 474.432 224.955C474.627 224.955 474.821 224.955 475.016 224.955C477.353 225.02 479.949 224.826 482.74 224.371C490.919 223.138 496.826 218.464 497.345 214.44C497.41 214.115 497.41 213.726 497.345 213.401C496.696 208.338 492.542 203.795 487.024 201.912C486.7 201.782 486.246 201.653 485.921 201.588C484.558 201.263 483.195 201.068 481.767 201.068C481.247 201.068 480.663 201.068 480.144 201.133C479.884 201.133 479.625 201.198 479.3 201.198C471.251 202.302 463.851 210.091 465.474 219.373Z" fill="#FFCB0A"/>
<path d="M474.432 224.955C474.626 224.955 474.821 224.955 475.016 224.955C475.665 215.284 481.053 207.754 487.673 207.754C491.568 207.754 495.008 210.35 497.345 214.505C497.41 214.18 497.41 213.791 497.345 213.466C494.943 209.636 491.438 207.235 487.673 207.235C480.728 207.17 475.081 215.024 474.432 224.955Z" fill="#FFE28A"/>
<path d="M469.304 223.917V223.722C469.304 212.752 474.626 203.535 481.767 201.068C481.247 201.068 480.663 201.068 480.144 201.133C473.523 204.314 468.784 213.207 468.784 223.657C468.849 223.722 469.044 223.852 469.304 223.917Z" fill="#FFE28A"/>
<path d="M430.552 291.294L431.461 290.58L455.997 305.704L469.564 337.446H468.525L430.552 291.294Z" fill="#C7C6C5"/>
<path d="M456.127 306.937L468.525 337.445L443.989 323.425L430.552 291.294L456.127 306.937Z" fill="#747474"/>
<path d="M449.506 302.394C454.374 301.355 459.243 305.12 457.88 310.118L456.257 306.353C453.92 305.185 450.155 302.848 449.506 302.394Z" fill="#D2CECF"/>
<path d="M449.117 320.569C449.571 321.218 455.673 323.036 456.257 322.906C458.139 323.75 461.06 323.685 463.332 322.776C466.188 321.673 469.174 320.374 470.537 317.973L466.772 311.417C465.993 310.833 465.15 310.508 464.241 310.313C463.072 310.054 459.113 309.859 458.204 310.768C458.464 311.482 458.853 312.131 458.983 312.52C457.49 313.104 455.608 313.364 454.05 313.948C450.869 315.311 446.52 316.674 449.117 320.569Z" fill="#FFE9E2"/>
<path d="M436.719 292.333L455.802 303.887L455.218 304.276C454.374 304.016 453.531 304.081 452.752 304.795C450.09 307.262 459.567 316.479 455.348 321.867C450.09 319.66 434.187 309.599 434.187 309.599C434.187 309.599 435.55 305.834 432.954 300.187C430.422 294.539 430.942 288.892 436.719 292.333Z" fill="#EDEDED"/>
<path d="M450.61 304.211L450.869 303.757L433.863 293.761L433.603 294.28L450.61 304.211Z" fill="#58D8FF"/>
<path d="M452.103 310.507L452.362 310.053L435.356 300.057L435.096 300.511L452.103 310.507Z" fill="#58D8FF"/>
<path d="M453.595 316.739L453.855 316.285L436.848 306.354L436.589 306.808L453.595 316.739Z" fill="#58D8FF"/>
<path d="M470.083 307.912C467.032 311.027 465.669 309.599 466.642 313.754C467.616 318.103 471.965 319.076 471.965 319.076L478.002 314.987C478.002 314.987 473.133 304.796 470.083 307.912Z" fill="#F3F3F3"/>
<path d="M514.287 264.681C515.066 271.432 514.417 277.274 512.405 283.57C510.782 288.568 508.77 294.799 505.589 299.083C503.512 301.94 499.487 306.289 496.372 308.171C493.97 309.599 491.438 310.832 488.907 312.001C486.83 312.974 474.691 319.92 474.691 319.92C474.691 319.92 472.16 318.816 470.992 317.713C468.785 315.636 465.344 310.767 467.551 309.015C471.121 306.159 490.14 293.306 491.309 292.722C492.477 292.073 496.501 267.732 497.865 263.383C498.514 261.306 499.682 259.423 501.37 258.06C505.459 255.009 510.976 256.502 513.183 261.046C513.768 262.149 514.092 263.383 514.287 264.681Z" fill="#2FBAE5"/>
<path d="M436.005 465.255L321.697 531.269L316.764 528.413L308.585 523.674L293.786 515.106L277.558 505.759L269.379 501.085L254.644 492.517L238.871 483.365L230.563 478.626L215.893 470.123L210.765 467.202L215.893 464.281L230.563 455.778L238.871 451.039L325.072 401.253L436.005 465.255Z" fill="#E5E5E5"/>
<path d="M435.94 464.152L327.344 526.92L221.865 466.034V463.568L330.525 403.266L435.94 461.685V464.152Z" fill="#139DC8"/>
<path d="M436.005 461.685L327.344 524.454L322.606 521.727L314.817 517.249L300.796 509.135L285.347 500.177L277.558 495.698L263.537 487.584L248.543 478.886L240.689 474.407L226.733 466.294L221.865 463.503L226.733 460.711L240.689 452.662L248.543 448.119L330.525 400.799L436.005 461.685Z" fill="#139DC8"/>
<path d="M343.897 408.523L235.236 471.291L234.912 471.097L343.572 408.328L343.897 408.523Z" fill="#58D8FF"/>
<path d="M357.074 416.183L248.413 478.887L248.089 478.692L356.749 415.988L357.074 416.183Z" fill="#58D8FF"/>
<path d="M370.25 423.777L261.59 486.48L261.265 486.286L369.926 423.582L370.25 423.777Z" fill="#58D8FF"/>
<path d="M383.427 431.372L274.767 494.075L274.442 493.88L383.103 431.177L383.427 431.372Z" fill="#58D8FF"/>
<path d="M396.604 438.966L287.944 501.67L287.619 501.54L396.28 438.771L396.604 438.966Z" fill="#58D8FF"/>
<path d="M409.781 446.56L301.12 509.329L300.796 509.134L409.456 446.431L409.781 446.56Z" fill="#58D8FF"/>
<path d="M422.958 454.155L314.297 516.924L313.973 516.729L422.633 454.025L422.958 454.155Z" fill="#58D8FF"/>
<path d="M244.389 448.378V476.549L230.433 468.5V455.778C234.977 453.116 239.715 450.78 244.389 448.378Z" fill="#2FBAE5"/>
<path d="M252.243 448.184V471.941L244.389 476.614V448.184H252.243Z" fill="#139DC8"/>
<path d="M281.258 469.993V497.905L267.237 489.791V469.993H281.258Z" fill="#2FBAE5"/>
<path d="M289.047 469.993V493.231L281.258 497.905V469.993H289.047Z" fill="#139DC8"/>
<path d="M376.676 468.76V496.282L362.656 488.168V468.76H376.676Z" fill="#2FBAE5"/>
<path d="M384.466 468.76V491.673L376.677 496.282V468.76H384.466Z" fill="#139DC8"/>
<path d="M327.215 497.45V525.037L313.194 516.923V497.45H327.215Z" fill="#2FBAE5"/>
<path d="M335.004 497.45V520.364L327.215 525.037V497.45H335.004Z" fill="#139DC8"/>
<path d="M409.781 452.598V460.711L423.801 468.825V452.598H409.781Z" fill="#2FBAE5"/>
<path d="M423.802 452.598V468.825L431.591 464.152V452.598H423.802Z" fill="#139DC8"/>
<path d="M435.94 453.441L327.344 516.21L221.865 455.324V452.987L330.525 392.62L435.94 451.17V453.441Z" fill="#0C8CB4"/>
<path d="M435.94 451.169L327.344 513.873L221.865 452.987L330.525 390.283L435.94 451.169Z" fill="#58D8FF"/>
<path d="M343.897 398.007L235.236 460.711L234.912 460.516L343.572 397.812L343.897 398.007Z" fill="#453E3A"/>
<path d="M357.073 405.602L248.413 468.306L248.088 468.176L356.749 405.407L357.073 405.602Z" fill="#453E3A"/>
<path d="M370.25 413.196L261.59 475.965L261.265 475.77L369.926 413.066L370.25 413.196Z" fill="#453E3A"/>
<path d="M383.427 420.791L274.767 483.56L274.442 483.365L383.103 420.661L383.427 420.791Z" fill="#453E3A"/>
<path d="M396.604 428.451L287.943 491.154L287.619 490.96L396.279 428.256L396.604 428.451Z" fill="#453E3A"/>
<path d="M409.781 436.045L301.12 498.749L300.796 498.554L409.456 435.851L409.781 436.045Z" fill="#453E3A"/>
<path d="M422.958 443.64L314.297 506.344L313.973 506.214L422.633 443.445L422.958 443.64Z" fill="#453E3A"/>
<path d="M327.344 526.92L327.214 524.388L221.865 463.502V466.033L327.344 526.92Z" fill="#2FBAE5"/>
<path d="M271.262 426.114L323.645 456.427L375.508 426.504L323.125 396.19L271.262 426.114Z" fill="#2FBAE5"/>
<path d="M360.514 355.102L354.932 351.856L337.471 341.795L292.552 367.759L310.013 377.82L315.596 381.066L334.874 392.166L379.663 366.266L360.514 355.102Z" fill="#8AE3FF"/>
<path d="M337.471 342.704L294.175 367.695L334.939 390.933L378.235 366.202L337.471 342.704Z" fill="#58D8FF"/>
<path d="M334.874 392.165L334.809 449.806L315.466 438.771L309.884 435.525L292.552 425.659V367.759L334.874 392.165Z" fill="#139DC8"/>
<path d="M334.874 392.166L334.809 449.807L379.727 424.102V366.267L334.874 392.166Z" fill="#2FBAE5"/>
<path d="M315.466 381.13V438.771L309.884 435.525V377.885L315.466 381.13Z" fill="#2FBAE5"/>
<path d="M360.514 355.102L344.805 364.189L339.223 367.435L315.596 381.066L315.466 381.131L309.819 377.885L310.013 377.82L333.576 364.189L339.223 360.943L354.867 351.921L360.514 355.102Z" fill="#2FBAE5"/>
<path d="M314.882 451.689L367.2 482.003L419.063 452.079L366.745 421.766L314.882 451.689Z" fill="#E2E2E2"/>
<path d="M404.069 380.677L398.487 377.431L381.026 367.37L336.172 393.269L353.633 403.331L359.216 406.576L378.494 417.676L423.282 391.777L404.069 380.677Z" fill="#8AE3FF"/>
<path d="M381.026 368.279L337.73 393.27L378.494 416.508L421.725 391.842L381.026 368.279Z" fill="#58D8FF"/>
<path d="M378.494 417.74L378.429 475.381L359.086 464.346L353.439 461.101L336.172 451.234V393.334L378.494 417.74Z" fill="#139DC8"/>
<path d="M378.429 417.741L378.364 475.382L423.282 449.677V391.842L378.429 417.741Z" fill="#2FBAE5"/>
<path d="M359.086 406.706V464.347L353.438 461.102V403.461L359.086 406.706Z" fill="#2FBAE5"/>
<path d="M404.069 380.677L388.425 389.764L382.778 393.01L359.216 406.641L359.021 406.706L353.438 403.46L353.568 403.395L377.196 389.764L382.778 386.519L398.486 377.496L404.069 380.677Z" fill="#2FBAE5"/>
<path d="M267.821 478.887L320.139 509.135L372.003 479.211L319.685 448.963L267.821 478.887Z" fill="#2FBAE5"/>
<path d="M357.009 407.874L351.426 404.629L333.965 394.567L289.112 420.467L306.573 430.528L312.155 433.773L331.434 444.873L376.222 418.974L357.009 407.874Z" fill="#8AE3FF"/>
<path d="M333.965 395.477L290.67 420.467L331.434 443.705L374.729 418.974L333.965 395.477Z" fill="#58D8FF"/>
<path d="M331.434 444.938L331.369 502.514L312.026 491.479L306.443 488.298L289.112 478.432V420.467L331.434 444.938Z" fill="#139DC8"/>
<path d="M331.369 444.938L331.304 502.579L376.222 476.874V419.039L331.369 444.938Z" fill="#2FBAE5"/>
<path d="M312.025 433.903V491.478L306.443 488.298V430.657L312.025 433.903Z" fill="#2FBAE5"/>
<path d="M357.008 407.874L341.365 416.962L335.718 420.207L312.155 433.774L312.025 433.904L306.378 430.658L306.508 430.528L330.135 416.962L335.718 413.716L351.426 404.629L357.008 407.874Z" fill="#2FBAE5"/>
<path d="M371.354 444.938L349.609 457.466V438.836L371.354 426.309V444.938Z" fill="#E5E0DB"/>
<path d="M369.277 431.891L351.686 442.017V439.94L369.277 429.813V431.891Z" fill="#BCBCBC"/>
<path d="M369.277 435.656L351.686 445.782V444.873L369.277 434.747V435.656Z" fill="#2FBAE5"/>
<path d="M369.277 438.122L351.686 448.248V447.339L369.277 437.148V438.122Z" fill="#2FBAE5"/>
<path d="M369.277 440.718L351.686 450.909V449.936L369.277 439.81V440.718Z" fill="#2FBAE5"/>
<path d="M369.277 443.185L351.686 453.311V452.402L369.277 442.276V443.185Z" fill="#2FBAE5"/>
<circle cx="339" cy="218" r="5" fill="#2FBAE5"/>
<circle cx="369" cy="50" r="5" fill="#2FBAE5"/>
<path d="M339.5 218H369V51.5" stroke="#2FBAE5" stroke-width="2"/>
<circle cx="384" cy="580" r="5" fill="#2FBAE5"/>
<circle cx="497" cy="467" r="5" fill="#2FBAE5"/>
<path d="M384 580.5H498V467.5" stroke="#2FBAE5" stroke-width="2"/>
<path d="M33 4.5V295" stroke="#2FBAE5" stroke-width="2"/>
<circle cx="33" cy="295" r="5" fill="#2FBAE5"/>
<circle cx="33" cy="5" r="5" fill="#2FBAE5"/>
</svg>
