<svg width="392" height="443" viewBox="0 0 392 443" fill="none" xmlns="http://www.w3.org/2000/svg">
<path d="M246.942 250.688L62.8367 356.982L0 320.67L184.106 214.425L246.942 250.688Z" fill="#E5E5E5"/>
<path d="M97.0439 185.307V193.724L133.894 172.436V164.067L132.084 164.312L97.0439 185.307Z" fill="#F3F4F4"/>
<path d="M91.8564 182.321L97.0439 185.307L133.894 164.067L128.707 161.033L91.8564 182.321Z" fill="#EDEDED"/>
<path d="M91.8564 190.739L97.0439 193.724L97.0928 185.356L91.8564 182.37V190.739Z" fill="#EDEDED"/>
<path d="M193.11 238.502L164.726 222.059V260.084L193.11 276.479L197.661 255.925L193.11 238.502Z" fill="#3D3D3C"/>
<path d="M137.564 244.473L94.2051 269.676L149.505 301.829L193.011 276.528V270.263L137.564 244.473Z" fill="#747474"/>
<path d="M137.564 238.209L94.2051 263.412L149.505 295.564L193.011 270.263L137.564 238.209Z" fill="#C7C6C5"/>
<path d="M149.505 295.613V301.829L94.2051 269.676V263.461L149.505 295.613Z" fill="#3D3D3C"/>
<path d="M176.422 266.887H155.966V272.955H176.422V266.887Z" fill="#757575"/>
<path d="M173.437 268.795C169.424 266.495 162.964 266.495 158.951 268.795C154.938 271.095 154.938 274.815 158.951 277.115C162.964 279.415 169.424 279.415 173.437 277.115C177.401 274.864 177.401 271.095 173.437 268.795Z" fill="#757575"/>
<path d="M173.437 262.433C169.424 260.133 162.964 260.133 158.951 262.433C154.938 264.733 154.938 268.453 158.951 270.802C162.964 273.102 169.424 273.102 173.437 270.802C177.401 268.502 177.401 264.782 173.437 262.433Z" fill="#76777E"/>
<path d="M172.556 262.972C169.033 260.965 163.356 260.965 159.832 262.972C156.309 265.027 156.309 268.306 159.832 270.312C163.356 272.319 169.033 272.319 172.556 270.312C176.08 268.257 176.08 265.027 172.556 262.972Z" fill="#453E3A"/>
<path d="M213.419 226.757L193.109 238.503V276.479L213.419 264.782V226.757Z" fill="#747474"/>
<path d="M216.698 192.011L164.726 222.059L193.11 238.551L245.131 208.454L216.698 192.011Z" fill="#9C9C9B"/>
<path d="M142.41 221.227L41.1074 279.757L96.4077 311.91L197.857 253.282V247.018L142.41 221.227Z" fill="#747474"/>
<path d="M142.41 214.816L41.1074 273.347L96.4077 305.499L197.857 246.871L142.41 214.816Z" fill="#C7C6C5"/>
<path d="M212.195 250.933V227.442L245.082 208.454L245.131 231.896L212.195 250.933Z" fill="#747474"/>
<path d="M206.226 242.369C206.226 240.851 205.149 240.215 203.828 240.998C202.506 241.781 201.43 243.592 201.43 245.158C201.43 246.675 202.506 247.311 203.828 246.528C205.198 245.745 206.226 243.886 206.226 242.369Z" fill="#4D4D4D"/>
<path d="M247.823 182.713L192.963 214.425V239.53L247.823 207.818V182.713Z" fill="#F3F4F4"/>
<path d="M192.963 214.425V239.53L159.881 220.444V195.339L192.963 214.425Z" fill="#ECECEC"/>
<path d="M214.741 163.627L159.881 195.339L192.914 214.425L247.823 182.762L214.741 163.627Z" fill="#EDEDED"/>
<path d="M65.5282 312.204L24.8115 288.811V326.836L65.5771 350.18L70.1284 329.577L65.5282 312.204Z" fill="#3D3D3C"/>
<path d="M96.4077 305.646V311.91L41.1074 279.757V273.493L96.4077 305.646Z" fill="#3D3D3C"/>
<path d="M85.8857 300.458L65.5273 312.204L65.5763 350.18L85.8857 338.483V300.458Z" fill="#747474"/>
<path d="M45.072 277.066L24.8115 288.811L65.5282 312.252L85.8865 300.458L45.072 277.066Z" fill="#9C9C9B"/>
<path d="M78.6924 316.021C78.6924 314.504 77.6158 313.867 76.2945 314.65C74.9731 315.433 73.8965 317.293 73.8965 318.81C73.8965 320.327 74.9731 320.963 76.2945 320.18C77.6158 319.397 78.6924 317.538 78.6924 316.021Z" fill="#4D4D4D"/>
<path d="M175.982 224.31L121.073 256.022V281.128L175.982 249.416V224.31Z" fill="#F3F4F4"/>
<path d="M121.072 256.022V281.128L88.0391 262.042V236.937L121.072 256.022Z" fill="#ECECEC"/>
<path d="M142.899 205.225L88.0391 236.937L121.072 256.022L175.981 224.31L142.899 205.225Z" fill="#EDEDED"/>
<path d="M112.705 251.08L57.8447 282.792V307.897L112.705 276.185V251.08Z" fill="#EDEDED"/>
<path d="M57.8449 282.792V307.897L24.8115 288.811V263.706L57.8449 282.792Z" fill="#ECECEC"/>
<path d="M57.8449 279.806L59.6066 291.503L57.8449 300.899L24.8115 281.764V260.72L57.8449 279.806Z" fill="#3D3D3C"/>
<path d="M112.705 248.29L57.8447 279.806V300.899L112.705 269.334V248.29Z" fill="#4D4D4D"/>
<path d="M79.6713 231.994L24.8115 263.706L57.8449 282.792L112.754 251.129L79.6713 231.994Z" fill="#F5F5F7"/>
<path d="M239.992 152.909L159.293 198.863V224.31L239.992 178.357V152.909Z" fill="#F3F4F4"/>
<path d="M159.293 198.863V224.31L125.771 204.98V179.483L159.293 198.863Z" fill="#ECECEC"/>
<path d="M206.421 133.53L125.722 179.483L159.244 198.862L239.944 152.958L206.421 133.53Z" fill="#EDEDED"/>
<path d="M224.528 118.457L162.523 153.79V179.287L224.528 143.905V118.457Z" fill="#F3F4F4"/>
<path d="M162.523 153.79V179.287L144.759 168.863V143.367L162.523 153.79Z" fill="#ECECEC"/>
<path d="M206.715 108.033L144.759 143.415L162.523 153.839L224.479 118.506L206.715 108.033Z" fill="#EDEDED"/>
<path d="M125.869 205.176L24.5664 263.706L57.8934 282.987L159.342 224.359V218.095L125.869 205.176Z" fill="#9C9C9B"/>
<path d="M125.869 198.814L24.5664 257.344L57.8934 276.625L159.342 217.997L125.869 198.814Z" fill="#9C9C9B"/>
<path d="M57.8934 276.723V282.987L24.5664 263.706V257.491L57.8934 276.723Z" fill="#3D3D3C"/>
<path d="M125.771 198.422L102.721 211.782L136.048 231.064L159.293 217.606V214.474L125.771 198.422Z" fill="#9C9C9B"/>
<path d="M125.771 195.192L102.721 208.601L136.048 227.785L159.293 214.327L125.771 195.192Z" fill="#9C9C9B"/>
<path d="M136.048 227.932V231.064L102.721 211.782V208.601L136.048 227.932Z" fill="#747474"/>
<path d="M106.979 237.377L57.8936 265.761V276.723L106.979 248.388V237.377Z" fill="#F3F4F4"/>
<path d="M57.8937 265.761V276.723L28.335 259.644V248.682L57.8937 265.761Z" fill="#ECECEC"/>
<path d="M77.3702 220.297L28.2852 248.682L57.8439 265.761L106.929 237.426L77.3702 220.297Z" fill="#EDEDED"/>
<path d="M135.803 256.756L137.663 257.833L136.684 259.546C136.439 261.161 135.461 262.825 134.188 263.852L133.209 265.614L131.35 264.538C130.763 264.195 130.42 263.51 130.42 262.482C130.42 260.476 131.839 258.029 133.601 257.001C134.433 256.463 135.216 256.414 135.803 256.756Z" fill="#747474"/>
<path d="M135.901 261.65C135.754 261.944 135.558 262.238 135.362 262.482L130.958 259.937C131.105 259.644 131.252 259.35 131.447 259.057L135.901 261.65Z" fill="#76777E"/>
<path d="M137.026 258.959L136.733 259.448L133.062 257.344C133.258 257.197 133.405 257.05 133.601 256.952L137.026 258.959Z" fill="#76777E"/>
<path d="M137.222 258.616L134.041 256.756C134.726 256.463 135.362 256.512 135.852 256.756L137.711 257.833L137.222 258.616Z" fill="#76777E"/>
<path d="M138.592 259.84C138.592 257.833 137.173 257.001 135.411 258.029C133.65 259.057 132.23 261.503 132.23 263.51C132.23 265.516 133.65 266.348 135.411 265.37C137.173 264.342 138.592 261.895 138.592 259.84Z" fill="#747474"/>
<path d="M135.118 251.52C130.42 254.212 126.603 260.867 126.603 266.299C126.603 271.732 130.42 273.934 135.118 271.193C139.816 268.502 143.633 261.846 143.633 256.414C143.633 251.031 139.816 248.828 135.118 251.52ZM142.067 257.344C142.067 258.469 141.871 259.693 141.48 260.916L135.852 260.427V252.988C139.375 251.422 142.067 253.233 142.067 257.344ZM134.335 253.869V261.308L128.707 268.257C128.315 267.474 128.12 266.544 128.12 265.37C128.12 261.259 130.86 256.316 134.335 253.869ZM135.118 269.431C132.818 270.753 130.811 270.606 129.49 269.383L135.118 262.433L140.697 262.923C139.424 265.614 137.418 268.11 135.118 269.431Z" fill="#C7C6C5"/>
<path d="M135.754 252.156C131.055 254.848 127.238 261.503 127.238 266.887C127.238 272.319 131.055 274.521 135.754 271.781C140.452 269.089 144.269 262.433 144.269 257.05C144.269 251.667 140.452 249.465 135.754 252.156ZM142.703 257.98C142.703 259.154 142.507 260.329 142.116 261.552L136.488 261.063V253.624C140.011 252.058 142.703 253.82 142.703 257.98ZM134.971 254.505V261.944L129.392 268.942C129 268.159 128.804 267.18 128.804 266.055C128.755 261.895 131.496 256.952 134.971 254.505ZM135.754 270.068C133.453 271.389 131.447 271.291 130.175 270.019L135.754 263.069L141.333 263.559C140.06 266.25 138.054 268.746 135.754 270.068Z" fill="#747474"/>
<path d="M147.548 264.978C147.206 264.489 146.52 264.146 146.08 263.999C145.737 263.853 145.444 263.755 145.101 263.608C144.514 263.363 143.927 263.118 143.437 262.874C143.193 262.776 143.046 262.629 142.899 262.482C142.752 262.335 142.703 262.238 142.703 262.238C142.507 261.944 142.263 261.797 142.067 261.846C141.529 262.091 141.48 262.825 141.676 263.167C141.871 263.51 142.165 263.755 142.41 263.657C142.41 263.657 142.507 263.608 142.605 263.657C142.752 263.657 142.948 263.755 143.144 263.901C143.584 264.195 144.171 264.636 144.808 265.076C145.395 265.516 145.982 266.006 146.471 266.202C147.01 266.397 147.401 266.348 147.646 265.957C147.793 265.614 147.744 265.272 147.548 264.978Z" fill="#C7C6C5"/>
<path d="M143.535 263.412C144.073 263.95 144.661 264.44 145.248 264.831C145.688 265.125 146.227 265.516 146.765 265.565C147.352 265.614 147.206 264.978 146.912 264.684C146.716 264.538 146.52 264.44 146.276 264.342L143.535 263.412Z" fill="#747474"/>
<path d="M220.711 213.984L215.327 220.102L214.838 219.808C214.3 219.466 213.908 218.78 213.908 217.802C213.908 215.795 215.327 213.348 217.04 212.369C217.921 211.88 218.704 211.831 219.242 212.125L219.585 212.321C219.683 212.369 219.781 212.418 219.879 212.516C220.368 212.81 220.613 213.299 220.711 213.984Z" fill="#747474"/>
<path d="M220.712 214.425C220.712 216.431 219.292 218.927 217.531 219.906C217.384 220.004 217.286 220.053 217.139 220.102C216.552 220.346 216.014 220.395 215.573 220.249C215.377 220.2 215.182 220.102 215.035 219.906C214.594 219.563 214.35 218.927 214.35 218.046C214.35 216.04 215.769 213.593 217.482 212.565C218.314 212.076 219.048 212.027 219.586 212.272C219.684 212.321 219.782 212.369 219.88 212.467C220.271 212.761 220.516 213.299 220.614 213.936C220.712 214.131 220.712 214.278 220.712 214.425Z" fill="#747474"/>
<path d="M217.432 219.466C217.237 219.563 217.09 219.466 217.09 219.27V213.74C217.09 213.544 217.237 213.25 217.432 213.152C217.628 213.055 217.775 213.152 217.775 213.348V218.878C217.775 219.074 217.628 219.368 217.432 219.466Z" fill="#E2E2E2"/>
<path d="M217.921 213.25V218.78C217.921 218.976 217.775 219.27 217.579 219.368C217.383 219.465 217.236 219.368 217.236 219.172V213.642C217.236 213.446 217.383 213.152 217.579 213.055C217.726 212.908 217.921 213.006 217.921 213.25Z" fill="#C7C6C5"/>
<path d="M228.247 221.815L227.709 222.695L217.921 216.872L217.236 216.48V215.257L217.921 215.648L228.247 221.815Z" fill="#E2E2E2"/>
<path d="M229.471 222.402C229.471 223.136 228.884 223.772 228.101 223.772C227.367 223.772 226.73 223.136 226.73 222.402C226.73 221.668 227.318 221.032 228.101 221.032C228.884 221.032 229.471 221.668 229.471 222.402Z" fill="#453E3A"/>
<path d="M229.08 222.01C229.08 222.304 228.835 222.549 228.541 222.549C228.248 222.549 228.003 222.304 228.003 222.01C228.003 221.717 228.248 221.472 228.541 221.472C228.835 221.472 229.08 221.717 229.08 222.01Z" fill="#C6C6C6"/>
<path d="M154.889 250.786L149.506 256.903L149.017 256.561C148.478 256.218 148.087 255.533 148.087 254.554C148.087 252.548 149.506 250.101 151.219 249.122C152.1 248.633 152.883 248.584 153.421 248.926L153.764 249.122C153.862 249.171 153.96 249.22 154.057 249.318C154.547 249.611 154.791 250.101 154.889 250.786Z" fill="#747474"/>
<path d="M154.889 251.226C154.889 253.233 153.47 255.729 151.708 256.708C151.562 256.756 151.464 256.854 151.317 256.903C150.73 257.148 150.191 257.197 149.751 257.05C149.555 257.001 149.359 256.903 149.212 256.708C148.772 256.365 148.527 255.68 148.527 254.848C148.527 252.841 149.947 250.394 151.708 249.367C152.54 248.877 153.274 248.828 153.813 249.073C153.911 249.122 154.008 249.171 154.106 249.269C154.498 249.563 154.743 250.101 154.84 250.737C154.889 250.933 154.889 251.08 154.889 251.226Z" fill="#747474"/>
<path d="M151.61 256.267C151.414 256.365 151.268 256.267 151.268 256.071V250.541C151.268 250.346 151.414 250.052 151.61 249.954C151.806 249.856 151.953 249.954 151.953 250.15V255.68C151.953 255.876 151.806 256.169 151.61 256.267Z" fill="#E2E2E2"/>
<path d="M152.05 250.052V255.582C152.05 255.778 151.904 256.071 151.708 256.169C151.512 256.267 151.365 256.169 151.365 255.973V250.443C151.365 250.248 151.512 249.954 151.708 249.856C151.904 249.709 152.05 249.807 152.05 250.052Z" fill="#C7C6C5"/>
<path d="M162.425 258.567L161.887 259.497L152.05 253.673L151.414 253.282V252.058L152.05 252.45L162.425 258.567Z" fill="#747474"/>
<path d="M163.649 259.203C163.649 259.937 163.061 260.574 162.278 260.574C161.544 260.574 160.908 259.986 160.908 259.203C160.908 258.469 161.544 257.833 162.278 257.833C163.061 257.833 163.649 258.469 163.649 259.203Z" fill="#76777E"/>
<path d="M163.257 258.812C163.257 259.106 163.013 259.35 162.719 259.35C162.425 259.35 162.181 259.106 162.181 258.812C162.181 258.518 162.425 258.274 162.719 258.274C163.013 258.274 163.257 258.518 163.257 258.812Z" fill="#C7C6C5"/>
<path d="M164.236 245.599L163.796 244.816L168.885 241.83L169.375 242.613L164.236 245.599Z" fill="#E2E2E2"/>
<path d="M173.73 238.209C173.094 238.209 172.409 238.649 172.017 238.992C171.724 239.237 171.479 239.481 171.185 239.726C170.696 240.215 170.158 240.656 169.717 240.949C169.57 241.047 169.472 241.145 169.277 241.194C169.032 241.243 168.836 241.096 168.592 241.194C168.396 241.292 168.151 241.488 168.151 241.683C168.102 242.466 168.738 243.103 169.13 243.201C169.326 243.249 169.57 243.25 169.717 243.103C169.864 242.956 169.864 242.76 170.011 242.564C170.109 242.369 170.304 242.271 170.451 242.173C170.941 241.928 171.626 241.586 172.36 241.341C173.094 241.047 173.877 240.852 174.317 240.46C174.807 240.069 174.954 239.579 174.709 238.992C174.513 238.454 174.122 238.258 173.73 238.209Z" fill="#C7C6C5"/>
<path d="M169.717 241.537C170.745 241.145 171.919 240.754 172.653 240.509C173.191 240.313 173.828 240.069 174.219 239.579C174.66 239.041 174.072 238.551 173.632 238.649C173.387 238.698 173.045 238.894 172.8 239.041L169.717 241.537Z" fill="#747474"/>
<path d="M159.734 250.15C158.413 250.15 157.581 249.073 157.581 247.409C157.581 245.011 159.245 242.124 161.3 240.949C161.888 240.607 162.475 240.411 163.013 240.411C164.335 240.411 165.166 241.488 165.166 243.152C165.166 245.55 163.503 248.437 161.447 249.612C160.86 250.003 160.273 250.15 159.734 250.15Z" fill="#747474"/>
<path d="M165.068 243.201C165.068 240.852 163.404 239.922 161.398 241.096C159.343 242.271 157.728 245.109 157.728 247.458C157.728 249.807 159.391 250.737 161.398 249.612C163.404 248.388 165.068 245.55 165.068 243.201Z" fill="#9C9C9B"/>
<path d="M163.062 242.418L166.537 244.424L165.803 245.745C165.607 246.969 164.873 248.241 163.894 249.024L163.111 250.346L159.636 248.339C159.196 248.094 158.951 247.556 158.951 246.773C158.951 245.256 160.028 243.347 161.349 242.613C162.034 242.222 162.622 242.173 163.062 242.418Z" fill="#9C9C9B"/>
<path d="M167.222 245.99C167.222 244.473 166.145 243.837 164.824 244.62C163.502 245.403 162.426 247.262 162.426 248.78C162.426 250.297 163.502 250.933 164.824 250.15C166.145 249.416 167.222 247.556 167.222 245.99Z" fill="#9C9C9B"/>
<path d="M179.065 159.712L178.575 158.929L183.665 155.944L184.154 156.727L179.065 159.712Z" fill="#E2E2E2"/>
<path d="M188.509 152.322C187.873 152.322 187.188 152.763 186.797 153.105C186.503 153.35 186.209 153.595 185.965 153.839C185.475 154.329 184.937 154.769 184.496 155.063C184.35 155.161 184.252 155.258 184.056 155.307C183.811 155.356 183.616 155.21 183.371 155.307C183.175 155.405 182.93 155.552 182.93 155.797C182.881 156.58 183.518 157.216 183.909 157.314C184.105 157.363 184.35 157.363 184.496 157.216C184.643 157.069 184.692 156.873 184.79 156.678C184.888 156.482 185.084 156.384 185.23 156.286C185.72 156.042 186.405 155.699 187.139 155.454C187.873 155.161 188.656 154.965 189.097 154.573C189.586 154.182 189.733 153.692 189.488 153.154C189.292 152.518 188.901 152.322 188.509 152.322Z" fill="#C7C6C5"/>
<path d="M184.496 155.65C185.524 155.259 186.698 154.867 187.432 154.622C187.971 154.427 188.607 154.182 188.998 153.692C189.439 153.154 188.852 152.665 188.411 152.763C188.166 152.812 187.824 153.007 187.579 153.154L184.496 155.65Z" fill="#747474"/>
<path d="M174.562 164.263C173.241 164.263 172.409 163.187 172.409 161.523C172.409 159.125 174.073 156.237 176.128 155.063C176.716 154.72 177.303 154.524 177.841 154.524C179.163 154.524 179.995 155.601 179.995 157.265C179.995 159.614 178.331 162.55 176.275 163.725C175.639 164.116 175.052 164.263 174.562 164.263Z" fill="#747474"/>
<path d="M179.848 157.314C179.848 154.965 178.184 154.035 176.177 155.21C174.122 156.384 172.507 159.223 172.507 161.572C172.507 163.921 174.171 164.85 176.177 163.676C178.233 162.501 179.848 159.614 179.848 157.314Z" fill="#9C9C9B"/>
<path d="M177.841 156.531L181.316 158.537L180.533 159.859C180.337 161.082 179.603 162.355 178.624 163.138L177.89 164.459L174.416 162.452C173.975 162.208 173.73 161.669 173.73 160.886C173.73 159.369 174.807 157.461 176.128 156.727C176.814 156.286 177.401 156.286 177.841 156.531Z" fill="#9C9C9B"/>
<path d="M182.05 160.103C182.05 158.586 180.973 157.95 179.652 158.733C178.331 159.516 177.254 161.376 177.254 162.893C177.254 164.41 178.331 165.046 179.652 164.312C180.924 163.529 182.05 161.621 182.05 160.103Z" fill="#9C9C9B"/>
<path d="M193.159 214.425L175.981 224.359V249.465L193.159 239.579V214.425Z" fill="#747474"/>
<path d="M167.662 219.514L184.839 209.727L193.159 214.425L175.982 224.359L167.662 219.514Z" fill="#C7C6C5"/>
<path d="M199.276 230.281C197.955 230.281 197.123 229.204 197.123 227.54C197.123 225.142 198.787 222.255 200.842 221.081C201.43 220.738 202.017 220.542 202.555 220.542C203.877 220.542 204.708 221.619 204.708 223.283C204.708 225.632 203.045 228.568 200.989 229.743C200.353 230.134 199.815 230.281 199.276 230.281Z" fill="#747474"/>
<path d="M204.611 223.332C204.611 220.983 202.947 220.053 200.941 221.227C198.885 222.402 197.271 225.24 197.271 227.589C197.271 229.938 198.934 230.917 200.941 229.743C202.947 228.519 204.611 225.681 204.611 223.332Z" fill="#9C9C9B"/>
<path d="M202.555 222.549L206.03 224.555L205.247 225.876C205.051 227.1 204.317 228.372 203.387 229.155L202.604 230.477L199.129 228.421C198.689 228.177 198.444 227.638 198.444 226.855C198.444 225.338 199.521 223.43 200.842 222.695C201.527 222.353 202.164 222.304 202.555 222.549Z" fill="#9C9C9B"/>
<path d="M206.764 226.121C206.764 224.604 205.687 223.968 204.366 224.751C203.044 225.534 201.968 227.394 201.968 228.911C201.968 230.428 203.044 231.064 204.366 230.33C205.687 229.547 206.764 227.687 206.764 226.121Z" fill="#9C9C9B"/>
<path d="M202.85 217.79L201.921 217.82L202.118 223.983L203.047 223.953L202.85 217.79Z" fill="#E2E2E2"/>
<path d="M200.989 211.586C200.647 212.174 200.744 213.006 200.842 213.544C200.94 213.935 200.989 214.278 201.087 214.67C201.283 215.355 201.43 216.089 201.478 216.627C201.527 216.823 201.527 216.97 201.478 217.165C201.381 217.41 201.185 217.508 201.136 217.753C201.087 217.997 201.185 218.291 201.381 218.389C202.066 218.829 202.996 218.536 203.24 218.242C203.387 218.095 203.485 217.851 203.436 217.655C203.387 217.459 203.191 217.312 203.093 217.116C202.996 216.921 202.947 216.725 202.947 216.48C202.947 215.893 202.996 215.11 203.093 214.278C203.191 213.446 203.387 212.663 203.24 212.027C203.093 211.391 202.751 210.999 202.115 210.95C201.527 210.999 201.185 211.244 200.989 211.586Z" fill="#C7C6C5"/>
<path d="M202.066 216.921C202.213 215.795 202.458 214.523 202.556 213.74C202.654 213.152 202.751 212.418 202.458 211.831C202.164 211.195 201.43 211.44 201.283 211.929C201.185 212.174 201.185 212.614 201.234 212.859L202.066 216.921Z" fill="#747474"/>
<path d="M203.094 223.723C203.387 223.87 203.387 224.164 203.094 224.31C202.8 224.457 202.311 224.457 202.066 224.31C201.772 224.164 201.772 223.87 202.066 223.723C202.36 223.576 202.8 223.576 203.094 223.723Z" fill="#E2E2E2"/>
<path d="M232.603 211.391C231.282 211.391 230.45 210.314 230.45 208.65C230.45 206.252 232.114 203.365 234.169 202.19C234.757 201.848 235.344 201.652 235.882 201.652C237.204 201.652 238.036 202.729 238.036 204.393C238.036 206.79 236.372 209.678 234.316 210.852C233.729 211.195 233.142 211.391 232.603 211.391Z" fill="#747474"/>
<path d="M237.937 204.392C237.937 202.043 236.274 201.114 234.267 202.288C232.212 203.463 230.597 206.301 230.597 208.65C230.597 210.999 232.261 211.929 234.267 210.803C236.274 209.58 237.937 206.742 237.937 204.392Z" fill="#9C9C9B"/>
<path d="M235.931 203.609L239.406 205.616L238.672 206.937C238.476 208.161 237.742 209.433 236.812 210.216L236.029 211.537L232.554 209.531C232.114 209.286 231.869 208.748 231.869 207.965C231.869 206.448 232.946 204.539 234.267 203.805C234.854 203.414 235.491 203.365 235.931 203.609Z" fill="#9C9C9B"/>
<path d="M240.091 207.231C240.091 205.714 239.014 205.078 237.693 205.861C236.372 206.644 235.295 208.503 235.295 210.02C235.295 211.537 236.372 212.174 237.693 211.391C239.014 210.608 240.091 208.748 240.091 207.231Z" fill="#9C9C9B"/>
<path d="M236.371 205.029H235.441L235.245 198.911L236.175 198.863L236.371 205.029Z" fill="#E2E2E2"/>
<path d="M234.315 192.647C233.973 193.235 234.071 194.067 234.168 194.605C234.266 194.996 234.315 195.339 234.413 195.73C234.609 196.416 234.756 197.15 234.805 197.688C234.854 197.884 234.854 198.031 234.805 198.226C234.707 198.471 234.511 198.569 234.462 198.814C234.413 199.009 234.511 199.352 234.707 199.45C235.392 199.89 236.322 199.597 236.566 199.303C236.713 199.156 236.811 198.911 236.762 198.716C236.713 198.471 236.517 198.373 236.42 198.177C236.322 197.982 236.273 197.786 236.273 197.541C236.273 196.954 236.322 196.171 236.42 195.339C236.517 194.507 236.713 193.675 236.566 193.088C236.42 192.452 236.077 192.06 235.441 192.011C234.903 192.06 234.511 192.305 234.315 192.647Z" fill="#C7C6C5"/>
<path d="M235.391 197.982C235.538 196.856 235.783 195.584 235.881 194.801C235.979 194.213 236.077 193.479 235.783 192.892C235.489 192.207 234.755 192.501 234.608 192.99C234.511 193.235 234.511 193.675 234.559 193.92L235.391 197.982Z" fill="#747474"/>
<path d="M236.469 204.784C236.762 204.931 236.762 205.225 236.469 205.371C236.175 205.518 235.735 205.518 235.441 205.371C235.147 205.225 235.147 204.931 235.441 204.784C235.686 204.637 236.175 204.637 236.469 204.784Z" fill="#E2E2E2"/>
<path d="M231.379 172.632H232.162L232.113 175.372H231.33L231.379 172.632Z" fill="#E2E2E2"/>
<path d="M232.798 180.511C233.092 180.021 233.043 179.336 232.945 178.896C232.896 178.602 232.847 178.26 232.75 177.966C232.603 177.379 232.505 176.791 232.456 176.351C232.456 176.204 232.407 176.057 232.456 175.911C232.505 175.715 232.701 175.617 232.75 175.421C232.798 175.225 232.75 174.981 232.554 174.883C231.967 174.491 231.232 174.736 230.988 174.981C230.89 175.127 230.792 175.274 230.792 175.47C230.841 175.666 230.988 175.764 231.086 175.911C231.184 176.057 231.184 176.253 231.184 176.449C231.184 176.938 231.135 177.574 230.988 178.26C230.89 178.945 230.743 179.63 230.841 180.119C230.939 180.658 231.232 181 231.771 181C232.309 181.049 232.603 180.804 232.798 180.511Z" fill="#C7C6C5"/>
<path d="M232.016 176.106C231.869 177.036 231.673 178.064 231.527 178.749C231.429 179.238 231.331 179.826 231.575 180.315C231.82 180.853 232.407 180.658 232.554 180.266C232.603 180.07 232.652 179.728 232.603 179.483L232.016 176.106Z" fill="#747474"/>
<path d="M231.33 172.778C231.085 172.632 231.085 172.387 231.33 172.289C231.575 172.142 231.966 172.142 232.211 172.289C232.456 172.436 232.456 172.632 232.211 172.778C231.966 172.925 231.575 172.925 231.33 172.778Z" fill="#E2E2E2"/>
<path d="M228.982 174.149C227.905 174.149 227.22 173.268 227.22 171.897C227.22 169.94 228.59 167.542 230.303 166.563C230.792 166.27 231.282 166.123 231.722 166.123C232.799 166.123 233.484 167.004 233.484 168.374C233.484 170.331 232.114 172.729 230.401 173.708C229.862 174.002 229.422 174.149 228.982 174.149Z" fill="#747474"/>
<path d="M233.386 168.325C233.386 166.367 232.015 165.584 230.352 166.563C228.688 167.542 227.317 169.891 227.317 171.849C227.317 173.806 228.688 174.589 230.352 173.61C232.015 172.68 233.386 170.282 233.386 168.325Z" fill="#9C9C9B"/>
<path d="M231.723 167.689L234.61 169.353L233.974 170.429C233.827 171.408 233.191 172.485 232.408 173.121L231.771 174.198L228.884 172.583C228.542 172.387 228.297 171.946 228.297 171.31C228.297 170.038 229.178 168.472 230.303 167.836C230.842 167.542 231.331 167.493 231.723 167.689Z" fill="#9C9C9B"/>
<path d="M235.197 170.674C235.197 169.402 234.316 168.863 233.19 169.548C232.064 170.185 231.184 171.751 231.184 173.023C231.184 174.295 232.064 174.834 233.19 174.198C234.267 173.512 235.197 171.946 235.197 170.674Z" fill="#9C9C9B"/>
<path d="M232.113 168.863H231.33L231.281 166.172L232.064 166.123L232.113 168.863Z" fill="#E2E2E2"/>
<path d="M230.498 160.984C230.205 161.474 230.303 162.159 230.401 162.599C230.45 162.893 230.547 163.235 230.596 163.529C230.743 164.116 230.89 164.704 230.939 165.144C230.988 165.291 230.988 165.438 230.939 165.585C230.89 165.78 230.694 165.878 230.645 166.074C230.596 166.27 230.694 166.514 230.841 166.612C231.428 166.955 232.162 166.759 232.407 166.465C232.505 166.319 232.603 166.123 232.554 165.976C232.505 165.78 232.358 165.682 232.26 165.536C232.162 165.389 232.113 165.193 232.113 164.997C232.113 164.508 232.162 163.872 232.26 163.187C232.358 162.501 232.505 161.816 232.407 161.327C232.309 160.789 232.016 160.446 231.477 160.446C230.988 160.495 230.694 160.691 230.498 160.984Z" fill="#C7C6C5"/>
<path d="M231.428 165.389C231.526 164.459 231.722 163.431 231.82 162.746C231.918 162.257 231.967 161.669 231.771 161.18C231.526 160.642 230.939 160.886 230.792 161.229C230.743 161.425 230.743 161.767 230.743 162.012L231.428 165.389Z" fill="#747474"/>
<path d="M232.162 168.717C232.407 168.863 232.407 169.059 232.162 169.206C231.917 169.353 231.526 169.353 231.281 169.206C231.036 169.059 231.036 168.863 231.281 168.717C231.526 168.57 231.917 168.57 232.162 168.717Z" fill="#E2E2E2"/>
<path d="M215.18 181.441H215.963V184.132H215.18V181.441Z" fill="#E2E2E2"/>
<path d="M216.599 189.32C216.893 188.83 216.795 188.145 216.746 187.705C216.697 187.411 216.648 187.068 216.55 186.775C216.403 186.188 216.306 185.6 216.257 185.16C216.257 185.013 216.208 184.866 216.257 184.719C216.355 184.524 216.501 184.426 216.55 184.23C216.599 184.034 216.55 183.79 216.355 183.692C215.767 183.3 215.033 183.545 214.789 183.79C214.691 183.936 214.593 184.132 214.593 184.279C214.642 184.475 214.789 184.573 214.886 184.719C214.984 184.866 214.984 185.062 214.984 185.258C214.984 185.747 214.935 186.383 214.837 187.068C214.74 187.754 214.593 188.439 214.691 188.928C214.789 189.466 215.082 189.809 215.62 189.809C216.11 189.809 216.403 189.613 216.599 189.32Z" fill="#C7C6C5"/>
<path d="M215.816 184.915C215.669 185.845 215.473 186.873 215.326 187.558C215.228 188.047 215.131 188.634 215.375 189.173C215.62 189.711 216.207 189.515 216.354 189.124C216.452 188.928 216.452 188.586 216.403 188.341L215.816 184.915Z" fill="#747474"/>
<path d="M215.132 181.587C214.887 181.441 214.887 181.196 215.132 181.098C215.376 180.951 215.768 180.951 216.013 181.098C216.257 181.245 216.257 181.441 216.013 181.587C215.768 181.734 215.376 181.734 215.132 181.587Z" fill="#E2E2E2"/>
<path opacity="0.5" d="M121.073 255.778L112.998 251.275H112.949L120.681 256.12L121.073 275.745L121.367 256.365L140.306 245.305L121.073 255.778Z" fill="#F4F4F4"/>
<path d="M212.783 182.909C211.707 182.909 211.021 182.028 211.021 180.657C211.021 178.7 212.392 176.302 214.105 175.323C214.594 175.03 215.083 174.883 215.524 174.883C216.6 174.883 217.286 175.764 217.286 177.134C217.286 179.091 215.915 181.489 214.202 182.468C213.713 182.762 213.224 182.909 212.783 182.909Z" fill="#747474"/>
<path d="M217.188 177.134C217.188 175.176 215.818 174.393 214.154 175.372C212.49 176.351 211.12 178.7 211.12 180.657C211.12 182.615 212.49 183.398 214.154 182.419C215.818 181.44 217.188 179.091 217.188 177.134Z" fill="#9C9C9B"/>
<path d="M215.524 176.498L218.412 178.162L217.775 179.238C217.629 180.217 216.992 181.294 216.209 181.93L215.573 183.007L212.686 181.343C212.343 181.147 212.099 180.706 212.099 180.07C212.099 178.798 212.98 177.232 214.105 176.596C214.692 176.302 215.182 176.302 215.524 176.498Z" fill="#9C9C9B"/>
<path d="M218.998 179.483C218.998 178.211 218.117 177.672 216.992 178.308C215.866 178.945 214.985 180.511 214.985 181.783C214.985 183.055 215.866 183.594 216.992 182.958C218.117 182.321 218.998 180.755 218.998 179.483Z" fill="#9C9C9B"/>
<path d="M215.915 177.672H215.132V174.932H215.915V177.672Z" fill="#E2E2E2"/>
<path d="M214.349 169.793C214.055 170.283 214.153 170.968 214.251 171.408C214.3 171.702 214.398 172.044 214.496 172.338C214.643 172.925 214.79 173.512 214.838 173.953C214.838 174.1 214.887 174.247 214.838 174.393C214.79 174.589 214.594 174.687 214.545 174.883C214.545 175.079 214.594 175.323 214.741 175.421C215.328 175.764 216.062 175.568 216.307 175.274C216.404 175.127 216.502 174.932 216.453 174.785C216.404 174.589 216.258 174.491 216.16 174.344C216.062 174.198 216.062 174.002 216.062 173.806C216.062 173.317 216.111 172.681 216.209 171.995C216.307 171.31 216.453 170.625 216.356 170.136C216.258 169.597 215.964 169.255 215.426 169.255C214.838 169.304 214.496 169.5 214.349 169.793Z" fill="#C7C6C5"/>
<path d="M215.23 174.198C215.328 173.268 215.524 172.24 215.622 171.555C215.719 171.066 215.768 170.478 215.573 169.989C215.328 169.451 214.741 169.695 214.594 170.038C214.545 170.234 214.545 170.576 214.545 170.821L215.23 174.198Z" fill="#747474"/>
<path d="M215.964 177.476C216.209 177.623 216.209 177.819 215.964 177.966C215.719 178.113 215.328 178.113 215.083 177.966C214.838 177.819 214.838 177.623 215.083 177.476C215.328 177.33 215.719 177.33 215.964 177.476Z" fill="#E2E2E2"/>
<path d="M183.665 195.045C183.665 193.479 182.539 192.794 181.169 193.626C179.798 194.409 178.673 196.367 178.673 197.933C178.673 199.499 179.798 200.184 181.169 199.352C182.588 198.569 183.665 196.66 183.665 195.045Z" fill="#453E3A"/>
<path d="M183.566 195.094C183.566 193.577 182.49 192.941 181.168 193.724C179.847 194.507 178.771 196.367 178.771 197.884C178.771 199.401 179.847 200.037 181.168 199.254C182.49 198.471 183.566 196.611 183.566 195.094Z" fill="#F3F4F4"/>
<path d="M182.637 195.682C182.637 194.752 182.001 194.409 181.218 194.85C180.435 195.29 179.799 196.416 179.799 197.345C179.799 198.275 180.435 198.618 181.218 198.177C182.001 197.688 182.637 196.562 182.637 195.682Z" fill="#757576"/>
<path d="M183.322 195.241C183.322 196.562 182.392 198.226 181.218 198.863C180.043 199.548 179.113 199.009 179.113 197.639C179.113 196.318 180.043 194.654 181.218 194.018C182.392 193.381 183.322 193.92 183.322 195.241Z" fill="#BFC0C1"/>
<path d="M181.266 194.752L181.169 194.801V194.116L181.266 194.067V194.752ZM180.532 195.388L180.239 194.996L180.141 195.143L180.435 195.535L180.532 195.388ZM179.994 196.269L179.505 196.22L179.456 196.367L179.945 196.416L179.994 196.269ZM179.749 197.345V197.199L179.162 197.541V197.688L179.749 197.345ZM179.994 198.08L179.945 197.982L179.456 198.618L179.505 198.716L179.994 198.08ZM180.532 198.324H180.435L180.141 199.058H180.239L180.532 198.324ZM181.266 198.08L181.169 198.128V198.765L181.315 198.716V198.08H181.266ZM182.294 197.835L182.001 197.443L181.903 197.541L182.196 197.933L182.294 197.835ZM182.979 196.562L182.49 196.513L182.441 196.66L182.93 196.709L182.979 196.562ZM183.224 195.241L182.637 195.584V195.73L183.224 195.388V195.241ZM182.979 194.36L182.93 194.262L182.441 194.899L182.49 194.996L182.979 194.36ZM182.294 193.871H182.196L181.903 194.605H182.001L182.294 193.871ZM180.777 194.801L180.679 194.507L180.63 194.556L180.777 194.801ZM179.994 195.779L179.798 195.633L179.749 195.682L179.945 195.828L179.994 195.779ZM179.554 196.905L179.26 197.003V197.052L179.554 196.954V196.905ZM179.554 197.982L179.26 198.177V198.226L179.554 197.982ZM179.994 198.618L179.749 198.96H179.798L179.994 198.618ZM180.777 198.667L180.63 199.058H180.679L180.777 198.667ZM181.756 198.422L181.658 198.128L181.609 198.177L181.756 198.422ZM182.637 197.296L182.392 197.15L182.343 197.199L182.539 197.296H182.637ZM183.175 195.975L182.881 196.073V196.122L183.175 196.024V195.975ZM183.175 194.801V194.752L182.881 194.996V195.045L183.175 194.801ZM182.637 194.067L182.392 194.409H182.441L182.637 194.067ZM181.756 193.969L181.609 194.36H181.658L181.756 193.969Z" fill="#9F9F9F"/>
<path d="M181.267 196.269C181.267 196.122 181.267 195.975 181.316 195.828C181.316 195.682 181.316 195.584 181.316 195.437C181.316 194.899 181.267 194.311 181.267 194.311C181.267 194.311 181.218 194.899 181.218 195.486C181.218 195.633 181.218 195.779 181.218 195.926C181.218 196.024 181.218 196.171 181.218 196.269C181.169 196.318 181.12 196.513 181.12 196.66C181.12 196.856 181.169 196.954 181.267 196.905C181.365 196.856 181.414 196.66 181.414 196.513C181.365 196.367 181.316 196.318 181.267 196.269Z" fill="#139DC8"/>
<path opacity="0.4" fill-rule="evenodd" clip-rule="evenodd" d="M179.26 198.177C179.504 199.058 180.336 199.352 181.315 198.765C181.511 198.667 181.658 198.569 181.805 198.422C182.588 197.59 183.126 196.416 183.126 195.388C183.126 194.115 182.294 193.528 181.266 194.018C181.315 194.164 181.315 194.36 181.315 194.507C181.364 195.828 180.434 197.492 179.26 198.177Z" fill="white"/>
<path d="M170.353 203.267L172.262 199.988L171.919 199.792L170.011 203.071L170.353 203.267Z" fill="#0B86AC"/>
<path d="M172.311 200.673C172.311 201.505 171.723 202.533 170.989 202.973C170.255 203.414 169.668 203.071 169.668 202.19C169.668 201.358 170.255 200.282 170.989 199.89C171.723 199.45 172.311 199.792 172.311 200.673Z" fill="#0B86AC"/>
<path d="M172.605 200.82C172.605 201.652 172.017 202.729 171.283 203.12C170.549 203.561 169.962 203.218 169.962 202.337C169.962 201.505 170.549 200.429 171.283 200.037C172.017 199.646 172.605 199.988 172.605 200.82Z" fill="#139DC8"/>
<path d="M172.506 201.065C172.506 201.75 172.016 202.582 171.429 202.924C170.842 203.267 170.353 202.973 170.353 202.288C170.353 201.603 170.842 200.771 171.429 200.429C172.016 200.135 172.506 200.38 172.506 201.065Z" fill="#0B86AC"/>
<path d="M170.794 202.973L172.262 200.429L173.926 201.358L172.458 203.903L170.794 202.973Z" fill="#58D8FF"/>
<path d="M172.556 201.114C172.556 201.407 172.458 201.799 172.262 202.141C172.066 202.484 171.822 202.729 171.528 202.875C171.381 202.973 171.234 203.022 171.088 203.022L170.99 203.12L170.696 202.973C170.451 202.875 170.354 202.582 170.354 202.239C170.354 201.897 170.451 201.554 170.647 201.212C170.843 200.869 171.088 200.624 171.381 200.477C171.675 200.282 171.968 200.282 172.164 200.429L172.458 200.575L172.409 200.673C172.507 200.771 172.556 200.967 172.556 201.114Z" fill="#58D8FF"/>
<path d="M173.975 200.869L174.807 201.358L174.367 202.141C174.269 202.827 173.828 203.561 173.29 204.001L172.849 204.784L172.017 204.295C171.773 204.148 171.626 203.854 171.626 203.414C171.626 202.533 172.262 201.456 172.996 201.016C173.339 200.722 173.681 200.722 173.975 200.869Z" fill="#1885A7"/>
<path d="M175.199 202.239C175.199 201.358 174.562 201.016 173.828 201.456C173.045 201.897 172.458 202.973 172.458 203.854C172.458 204.735 173.094 205.078 173.828 204.637C174.562 204.197 175.199 203.12 175.199 202.239Z" fill="#747474"/>
<path d="M175.199 202.239C175.199 201.358 174.562 201.016 173.828 201.456C173.045 201.897 172.458 202.973 172.458 203.854C172.458 204.735 173.094 205.078 173.828 204.637C174.562 204.197 175.199 203.12 175.199 202.239Z" fill="#2FBAE5"/>
<path d="M174.855 202.386C174.855 201.701 174.366 201.407 173.779 201.75C173.192 202.092 172.702 202.924 172.702 203.61C172.702 204.295 173.192 204.588 173.779 204.246C174.366 203.903 174.855 203.071 174.855 202.386Z" fill="#1885A7"/>
<path d="M188.314 193.088L190.223 189.809L189.88 189.613L187.972 192.892L188.314 193.088Z" fill="#0B86AC"/>
<path d="M190.272 190.494C190.272 191.326 189.684 192.354 188.95 192.794C188.216 193.235 187.629 192.892 187.629 192.011C187.629 191.179 188.216 190.152 188.95 189.711C189.684 189.271 190.272 189.613 190.272 190.494Z" fill="#0B86AC"/>
<path d="M190.566 190.641C190.566 191.473 189.978 192.549 189.244 192.941C188.51 193.381 187.923 193.039 187.923 192.158C187.923 191.326 188.51 190.249 189.244 189.858C189.978 189.466 190.566 189.809 190.566 190.641Z" fill="#139DC8"/>
<path d="M190.467 190.886C190.467 191.571 189.977 192.403 189.39 192.745C188.803 193.088 188.313 192.794 188.313 192.109C188.313 191.424 188.803 190.592 189.39 190.249C189.977 189.907 190.467 190.2 190.467 190.886Z" fill="#0B86AC"/>
<path d="M188.754 192.794L190.222 190.249L191.886 191.179L190.418 193.724L188.754 192.794Z" fill="#58D8FF"/>
<path d="M190.516 190.934C190.516 191.228 190.418 191.62 190.222 191.962C190.026 192.305 189.782 192.549 189.488 192.745C189.341 192.843 189.194 192.892 189.048 192.892L188.95 192.99L188.656 192.843C188.46 192.696 188.313 192.452 188.313 192.109C188.313 191.766 188.411 191.424 188.607 191.081C188.803 190.739 189.048 190.494 189.341 190.298C189.635 190.151 189.928 190.103 190.124 190.249L190.418 190.396L190.369 190.494C190.467 190.592 190.516 190.739 190.516 190.934Z" fill="#58D8FF"/>
<path d="M191.885 190.69L192.717 191.179L192.277 191.962C192.179 192.647 191.738 193.381 191.2 193.822L190.76 194.605L189.928 194.116C189.683 193.969 189.536 193.675 189.536 193.235C189.536 192.354 190.172 191.277 190.906 190.837C191.298 190.543 191.64 190.543 191.885 190.69Z" fill="#139DC8"/>
<path d="M193.158 192.06C193.158 191.179 192.521 190.837 191.787 191.277C191.004 191.717 190.368 192.794 190.368 193.675C190.368 194.556 191.004 194.898 191.787 194.458C192.521 194.018 193.158 192.941 193.158 192.06Z" fill="#2FBAE5"/>
<path d="M193.158 192.06C193.158 191.179 192.521 190.837 191.787 191.277C191.004 191.717 190.368 192.794 190.368 193.675C190.368 194.556 191.004 194.898 191.787 194.458C192.521 194.018 193.158 192.941 193.158 192.06Z" fill="#2FBAE5"/>
<path d="M192.815 192.207C192.815 191.522 192.326 191.228 191.739 191.571C191.151 191.913 190.662 192.745 190.662 193.43C190.662 194.115 191.151 194.409 191.739 194.067C192.326 193.724 192.815 192.892 192.815 192.207Z" fill="#139DC8"/>
<path d="M195.802 188.585L197.71 185.307L197.368 185.111L195.459 188.39L195.802 188.585Z" fill="#0B86AC"/>
<path d="M197.759 185.943C197.759 186.775 197.172 187.802 196.438 188.243C195.703 188.683 195.116 188.341 195.116 187.46C195.116 186.628 195.703 185.551 196.438 185.16C197.172 184.768 197.759 185.111 197.759 185.943Z" fill="#0B86AC"/>
<path d="M198.053 186.139C198.053 186.971 197.466 188.047 196.731 188.439C195.997 188.879 195.41 188.537 195.41 187.656C195.41 186.824 195.997 185.747 196.731 185.356C197.466 184.964 198.053 185.307 198.053 186.139Z" fill="#139DC8"/>
<path d="M197.954 186.383C197.954 187.068 197.465 187.9 196.877 188.243C196.29 188.585 195.801 188.292 195.801 187.607C195.801 186.922 196.29 186.09 196.877 185.747C197.465 185.404 197.954 185.698 197.954 186.383Z" fill="#0B86AC"/>
<path d="M196.241 188.292L197.709 185.747L199.373 186.677L197.905 189.222L196.241 188.292Z" fill="#58D8FF"/>
<path d="M198.003 186.432C198.003 186.726 197.905 187.117 197.709 187.46C197.514 187.802 197.269 188.047 196.975 188.243C196.828 188.341 196.682 188.39 196.535 188.39L196.437 188.488L196.143 188.341C195.948 188.194 195.801 187.949 195.801 187.607C195.801 187.264 195.899 186.922 196.094 186.579C196.29 186.236 196.535 185.992 196.828 185.796C197.122 185.649 197.416 185.6 197.612 185.747L197.856 185.894L197.807 185.992C197.954 186.09 198.003 186.236 198.003 186.432Z" fill="#58D8FF"/>
<path d="M199.373 186.139L200.205 186.628L199.765 187.411C199.667 188.096 199.227 188.83 198.688 189.271L198.248 190.054L197.416 189.564C197.171 189.417 197.024 189.124 197.024 188.683C197.024 187.802 197.661 186.726 198.395 186.285C198.786 186.041 199.129 185.992 199.373 186.139Z" fill="#139DC8"/>
<path d="M200.646 187.509C200.646 186.628 200.01 186.285 199.276 186.726C198.493 187.166 197.856 188.243 197.856 189.124C197.856 190.005 198.493 190.347 199.276 189.907C200.01 189.466 200.646 188.439 200.646 187.509Z" fill="#58D8FF"/>
<path d="M200.646 187.509C200.646 186.628 200.01 186.285 199.276 186.726C198.493 187.166 197.856 188.243 197.856 189.124C197.856 190.005 198.493 190.347 199.276 189.907C200.01 189.466 200.646 188.439 200.646 187.509Z" fill="#58D8FF"/>
<path d="M200.303 187.705C200.303 187.019 199.813 186.726 199.226 187.068C198.639 187.411 198.149 188.243 198.149 188.928C198.149 189.613 198.639 189.907 199.226 189.564C199.813 189.222 200.303 188.39 200.303 187.705Z" fill="#58D8FF"/>
<path d="M220.76 141.703L196.536 139.403L196.242 137.347L220.271 123.547L220.76 123.791V141.703Z" fill="#9C9C9B"/>
<path d="M196.829 155.503L220.76 141.703V123.791L196.829 137.592V155.503Z" fill="#747474"/>
<path d="M198.346 153.154L219.683 140.773V126.287L198.395 138.62L198.346 153.154Z" fill="#E2E2E2"/>
<path d="M198.346 152.714L219.096 140.724V126.679L198.346 138.668V152.714Z" fill="#9F9F9F"/>
<path d="M196.242 137.347L196.829 137.592V155.503L196.291 155.21L196.242 137.347Z" fill="#747474"/>
<path opacity="0.3" d="M214.007 129.566L200.989 151.197L219.096 140.724V126.679L214.007 129.566Z" fill="#9F9F9F"/>
<path d="M160.566 186.383L133.552 201.946L106.343 179.189L133.357 163.627L160.566 186.383Z" fill="#F3F4F4"/>
<path d="M149.897 181.098C151.317 181.93 151.317 183.251 149.897 184.083L134.335 193.039C132.916 193.871 130.616 193.871 129.196 193.039L115.2 181.196C113.781 180.364 113.781 179.043 115.2 178.211L130.763 169.255C132.182 168.423 134.482 168.423 135.901 169.255L149.897 181.098Z" fill="#E7F6FD"/>
<path opacity="0.6" d="M132.035 168.766C131.546 168.863 131.105 169.01 130.714 169.255L124.743 172.681V189.32L129.148 193.039C129.931 193.479 130.958 193.675 131.986 193.626V168.766H132.035Z" fill="white"/>
<path opacity="0.6" d="M137.517 170.625L135.853 169.206C135.853 169.206 135.804 169.206 135.804 169.157V192.158L137.517 191.179V170.625Z" fill="white"/>
<path opacity="0.6" d="M149.897 181.098L140.354 173.023V189.564L149.897 184.083C151.317 183.251 151.317 181.93 149.897 181.098Z" fill="white"/>
<path opacity="0.6" d="M120.534 175.127L115.2 178.211C113.781 179.042 113.781 180.364 115.2 181.196L120.534 185.698V175.127Z" fill="white"/>
<path d="M150.143 184.23L134.58 193.186C133.014 194.067 130.469 194.067 128.903 193.186L114.858 181.343C113.292 180.462 113.292 178.994 114.858 178.064L130.42 169.108C131.986 168.227 134.531 168.227 136.097 169.108L150.094 180.951C151.709 181.832 151.709 183.3 150.143 184.23ZM115.445 178.357C114.173 179.091 114.173 180.315 115.445 181.049L129.442 192.892C130.714 193.626 132.818 193.626 134.091 192.892L149.653 183.936C150.926 183.202 150.926 181.979 149.653 181.245L135.657 169.402C134.384 168.668 132.28 168.668 131.008 169.402L115.445 178.357Z" fill="#139DC8"/>
<path d="M133.504 204.001L106.343 188.341V179.189L133.504 201.946V204.001Z" fill="#ECECEC"/>
<path d="M160.517 193.381L132.378 209.531L127.582 206.742L155.673 190.592L160.273 187.705L160.517 193.381Z" fill="#B1B9C1"/>
<path d="M133.504 201.946V212.174L131.791 211.195V200.918L133.504 201.946Z" fill="#ECECEC"/>
<path d="M133.504 201.994V212.223L135.266 211.244V201.016L133.504 201.994Z" fill="#4D4D4D"/>
<path d="M135.314 200.967V211.195L137.027 210.216V199.988L135.314 200.967Z" fill="#4D4D4D"/>
<path d="M137.125 199.939V210.167L138.838 209.188V198.911L137.125 199.939Z" fill="#4D4D4D"/>
<path d="M138.937 198.911V209.139L140.649 208.161V197.884L138.937 198.911Z" fill="#4D4D4D"/>
<path d="M140.747 197.884V208.112L142.46 207.084V196.856L140.747 197.884Z" fill="#4D4D4D"/>
<path d="M142.558 196.807V207.035L144.27 206.056V195.828L142.558 196.807Z" fill="#4D4D4D"/>
<path d="M144.368 195.779V206.007L146.081 205.029V194.801L144.368 195.779Z" fill="#4D4D4D"/>
<path d="M146.13 194.752V204.98L147.892 204.001V193.773L146.13 194.752Z" fill="#4D4D4D"/>
<path d="M147.94 193.724V203.952L149.653 202.973V192.696L147.94 193.724Z" fill="#4D4D4D"/>
<path d="M149.751 192.696V202.924L151.464 201.946V191.669L149.751 192.696Z" fill="#4D4D4D"/>
<path d="M151.562 191.62V201.897L153.275 200.869V190.641L151.562 191.62Z" fill="#4D4D4D"/>
<path d="M153.373 190.592V200.82L155.086 199.841V189.613L153.373 190.592Z" fill="#4D4D4D"/>
<path d="M155.184 189.564V199.792L156.896 198.814V188.585L155.184 189.564Z" fill="#4D4D4D"/>
<path d="M156.994 188.537V198.765L158.707 197.786V187.509L156.994 188.537Z" fill="#4D4D4D"/>
<path d="M158.756 187.509V197.737L160.518 196.758V186.481L158.756 187.509Z" fill="#4D4D4D"/>
<path d="M133.504 210.216V212.174L131.791 211.195L127.582 208.748V206.742L131.791 209.188L133.504 210.216Z" fill="#ECECEC"/>
<path d="M133.504 204.001L160.665 188.341V186.334L133.504 201.946V204.001Z" fill="#F3F4F4"/>
<path d="M127.729 207.965L129.001 209.433L129.099 209.335C129.246 209.237 129.343 209.091 129.343 208.846C129.343 208.357 129.001 207.769 128.609 207.525C128.414 207.378 128.218 207.378 128.071 207.476L127.973 207.525C127.924 207.525 127.924 207.574 127.924 207.574C127.777 207.671 127.729 207.769 127.729 207.965Z" fill="#747474"/>
<path d="M127.68 208.063C127.68 208.552 128.022 209.14 128.414 209.384C128.463 209.384 128.463 209.433 128.512 209.433C128.658 209.482 128.756 209.482 128.854 209.482C128.903 209.482 128.952 209.433 129.001 209.384C129.099 209.286 129.148 209.14 129.148 208.944C129.148 208.454 128.805 207.867 128.414 207.622C128.218 207.525 128.071 207.476 127.924 207.574C127.875 207.574 127.875 207.622 127.875 207.622C127.778 207.72 127.729 207.818 127.729 207.965C127.68 207.965 127.68 208.014 127.68 208.063Z" fill="#747474"/>
<path d="M117.647 214.376L118.186 215.306L127.973 209.482L128.659 209.091V207.867L127.973 208.259L117.647 214.376Z" fill="#747474"/>
<path d="M116.424 215.012C116.424 215.746 117.011 216.382 117.794 216.382C118.528 216.382 119.164 215.795 119.164 215.012C119.164 214.278 118.577 213.642 117.794 213.642C117.011 213.642 116.424 214.278 116.424 215.012Z" fill="#76777E"/>
<path d="M117.354 215.11C117.651 215.11 117.892 214.869 117.892 214.572C117.892 214.274 117.651 214.033 117.354 214.033C117.056 214.033 116.815 214.274 116.815 214.572C116.815 214.869 117.056 215.11 117.354 215.11Z" fill="#C7C6C5"/>
<path d="M95.8698 183.741L103.602 179.287V224.506L95.8698 228.96L95.1357 227.149L95.8698 183.741Z" fill="#F3F4F4"/>
<path d="M90.3389 180.56L95.8689 183.741V228.96L90.3389 225.779V180.56Z" fill="#ECECEC"/>
<path d="M90.3389 180.56L95.8689 183.79L103.601 179.287L98.0711 176.106L90.3389 180.56Z" fill="#EDEDED"/>
<path d="M104.63 183.887C104.336 183.887 103.993 183.741 103.798 183.545C103.553 183.349 103.455 183.007 103.455 182.713C103.455 182.419 103.553 182.077 103.798 181.881C104.238 181.44 105.021 181.44 105.462 181.881C105.706 182.077 105.804 182.419 105.804 182.713C105.804 183.007 105.657 183.3 105.462 183.545C105.266 183.79 104.972 183.887 104.63 183.887Z" fill="#747474"/>
<path d="M119.457 201.946C119.408 201.603 119.506 201.309 119.702 201.065C119.408 200.967 119.164 200.722 119.066 200.429C118.919 200.135 118.968 199.792 119.066 199.499C118.772 199.499 118.478 199.352 118.234 199.058C118.038 198.814 117.94 198.471 117.989 198.177C117.695 198.226 117.353 198.177 117.059 197.982C116.766 197.786 116.619 197.443 116.619 197.101C116.325 197.248 115.934 197.199 115.591 197.052C115.249 196.856 115.053 196.562 115.004 196.171C114.71 196.318 114.319 196.367 113.976 196.22C113.634 196.073 113.389 195.73 113.34 195.339C112.997 195.535 112.606 195.535 112.263 195.388C111.921 195.241 111.676 194.899 111.578 194.507C111.236 194.703 110.844 194.703 110.502 194.507C110.159 194.311 109.914 193.969 109.865 193.577C109.523 193.724 109.082 193.724 108.74 193.479C108.397 193.235 108.201 192.843 108.201 192.452C107.81 192.549 107.369 192.501 107.076 192.207C106.733 191.913 106.635 191.473 106.684 191.081C106.293 191.13 105.852 190.983 105.608 190.641C105.363 190.298 105.314 189.858 105.461 189.466C105.069 189.417 104.678 189.173 104.482 188.781C104.286 188.39 104.335 187.949 104.58 187.607C104.189 187.46 103.895 187.166 103.797 186.726C103.699 186.285 103.846 185.894 104.14 185.6C103.797 185.404 103.552 185.062 103.503 184.621C103.454 183.985 103.944 183.398 104.629 183.398C105.265 183.349 105.803 183.838 105.852 184.524C105.852 184.866 105.755 185.209 105.51 185.453C105.803 185.6 105.999 185.894 106.097 186.236C106.195 186.579 106.097 186.922 105.901 187.166C106.195 187.264 106.489 187.509 106.586 187.802C106.733 188.145 106.733 188.488 106.586 188.732C106.929 188.781 107.223 188.928 107.418 189.173C107.614 189.466 107.712 189.809 107.614 190.103C107.957 190.054 108.299 190.151 108.544 190.396C108.838 190.641 108.936 190.983 108.936 191.277C109.278 191.179 109.621 191.179 109.914 191.375C110.257 191.571 110.404 191.913 110.453 192.256C110.795 192.109 111.138 192.109 111.48 192.256C111.823 192.452 112.068 192.745 112.116 193.088C112.459 192.941 112.802 192.892 113.193 193.039C113.536 193.186 113.78 193.528 113.829 193.92C114.172 193.724 114.563 193.724 114.906 193.871C115.249 194.018 115.493 194.36 115.542 194.752C115.885 194.556 116.276 194.556 116.668 194.752C117.01 194.947 117.255 195.339 117.255 195.73C117.647 195.584 118.087 195.633 118.381 195.877C118.723 196.122 118.87 196.562 118.821 196.954C119.213 196.856 119.653 197.003 119.947 197.345C120.24 197.688 120.289 198.177 120.142 198.569C120.534 198.618 120.974 198.863 121.121 199.303C121.317 199.694 121.219 200.184 120.974 200.526C121.366 200.673 121.659 201.016 121.708 201.456C121.806 202.092 121.317 202.68 120.681 202.778C120.632 202.778 120.583 202.778 120.534 202.778C120.045 202.973 119.506 202.533 119.457 201.946Z" fill="#747474"/>
<path d="M120.681 204.931C120.388 204.931 120.045 204.833 119.849 204.588C119.605 204.393 119.507 204.05 119.507 203.756C119.507 203.463 119.605 203.169 119.849 202.924C120.29 202.484 121.073 202.484 121.513 202.924C121.758 203.12 121.856 203.463 121.856 203.756C121.856 204.05 121.709 204.393 121.513 204.588C121.269 204.833 120.975 204.931 120.681 204.931Z" fill="#747474"/>
<path d="M120.681 208.014C119.947 208.014 120.045 206.888 119.801 206.693C119.556 206.497 119.458 206.154 119.458 205.861C119.458 205.567 119.556 205.224 119.801 205.029C120.241 204.588 121.024 204.588 121.464 205.029C121.709 205.224 121.807 205.567 121.807 205.861C121.807 206.154 121.66 206.497 121.464 206.693C121.22 206.888 121.464 208.014 120.681 208.014Z" fill="#2FBAE5"/>
<path d="M104.727 183.447C104.58 183.545 104.483 183.692 104.434 183.838C104.287 183.79 104.091 183.741 103.993 183.643C104.14 183.496 104.385 183.447 104.58 183.447H104.629C104.678 183.447 104.678 183.447 104.727 183.447Z" fill="#747474"/>
<path d="M120.877 202.484C120.828 202.533 120.779 202.533 120.73 202.582C120.632 202.68 120.534 202.778 120.485 202.924C120.339 202.924 120.143 202.827 120.045 202.778C119.751 202.631 119.556 202.288 119.507 201.946C119.458 201.603 119.556 201.261 119.751 201.065C119.458 200.967 119.213 200.722 119.115 200.429C119.066 200.282 119.017 200.135 119.017 199.988C119.017 199.841 119.066 199.646 119.115 199.548C118.822 199.548 118.528 199.401 118.283 199.107C118.088 198.863 117.99 198.618 117.99 198.324C117.99 198.275 117.99 198.226 117.99 198.177C117.892 198.177 117.843 198.177 117.745 198.177C117.5 198.177 117.256 198.08 117.06 197.933C116.766 197.737 116.619 197.394 116.619 197.052C116.473 197.101 116.326 197.15 116.179 197.15C115.983 197.15 115.787 197.101 115.592 197.003C115.249 196.807 115.053 196.514 115.004 196.171C114.858 196.269 114.662 196.318 114.466 196.318C114.319 196.318 114.124 196.269 113.977 196.22C113.634 196.073 113.389 195.73 113.34 195.388C113.145 195.486 112.949 195.535 112.753 195.535C112.606 195.535 112.411 195.486 112.264 195.437C111.921 195.29 111.677 194.947 111.579 194.556C111.432 194.654 111.187 194.703 110.991 194.703C110.796 194.703 110.649 194.654 110.453 194.556C110.111 194.36 109.866 194.018 109.817 193.626C109.67 193.724 109.474 193.724 109.328 193.724C109.132 193.724 108.887 193.675 108.691 193.528C108.349 193.333 108.153 192.941 108.153 192.549V192.501C108.055 192.55 107.908 192.549 107.81 192.549C107.517 192.549 107.272 192.452 107.027 192.256C106.734 192.011 106.636 191.669 106.636 191.375C106.636 191.277 106.636 191.228 106.636 191.179C106.587 191.179 106.538 191.179 106.489 191.179C106.147 191.179 105.804 191.032 105.559 190.69C105.412 190.494 105.315 190.249 105.315 190.005C105.315 189.858 105.364 189.662 105.412 189.515C105.021 189.466 104.629 189.222 104.434 188.83C104.336 188.683 104.336 188.488 104.336 188.341C104.336 188.096 104.434 187.851 104.581 187.656C104.189 187.509 103.895 187.215 103.798 186.775C103.7 186.334 103.846 185.943 104.14 185.649C103.798 185.453 103.553 185.111 103.504 184.67V184.622C103.504 184.23 103.7 183.887 103.993 183.643C104.14 183.496 104.385 183.447 104.581 183.447H104.629C104.678 183.447 104.678 183.447 104.727 183.447C104.581 183.545 104.483 183.692 104.434 183.838C104.385 183.985 104.336 184.132 104.336 184.279V184.328C104.336 184.768 104.581 185.111 104.923 185.307C104.629 185.6 104.483 185.992 104.581 186.432C104.678 186.873 104.972 187.166 105.364 187.313C105.217 187.509 105.119 187.754 105.119 187.998C105.119 188.145 105.168 188.341 105.217 188.488C105.412 188.879 105.755 189.124 106.196 189.173C106.147 189.32 106.098 189.466 106.098 189.662C106.098 189.907 106.147 190.152 106.342 190.347C106.587 190.641 106.93 190.837 107.272 190.837C107.321 190.837 107.37 190.837 107.419 190.837C107.419 190.935 107.419 190.983 107.419 191.032C107.419 191.375 107.566 191.669 107.81 191.913C108.055 192.109 108.3 192.207 108.593 192.207C108.74 192.207 108.838 192.207 108.936 192.158V192.207C108.936 192.598 109.132 192.99 109.474 193.186C109.67 193.333 109.866 193.381 110.111 193.381C110.306 193.381 110.453 193.333 110.6 193.284C110.649 193.675 110.845 194.018 111.236 194.213C111.383 194.311 111.579 194.36 111.774 194.36C111.97 194.36 112.166 194.311 112.362 194.213C112.411 194.556 112.655 194.899 113.047 195.094C113.194 195.192 113.389 195.192 113.536 195.192C113.732 195.192 113.928 195.143 114.124 195.045C114.172 195.388 114.417 195.73 114.76 195.926C114.907 196.024 115.102 196.024 115.249 196.024C115.445 196.024 115.641 195.975 115.787 195.877C115.836 196.22 116.032 196.562 116.375 196.758C116.57 196.856 116.766 196.905 116.962 196.905C117.109 196.905 117.256 196.856 117.402 196.807C117.402 197.15 117.598 197.492 117.843 197.688C118.039 197.835 118.283 197.933 118.528 197.933C118.626 197.933 118.675 197.933 118.773 197.933C118.773 197.982 118.773 198.031 118.773 198.08C118.773 198.373 118.871 198.618 119.066 198.863C119.262 199.107 119.556 199.254 119.898 199.303C119.849 199.45 119.8 199.597 119.8 199.743C119.8 199.89 119.849 200.037 119.898 200.184C120.045 200.477 120.29 200.722 120.534 200.82C120.339 201.065 120.241 201.358 120.29 201.701C120.388 201.995 120.583 202.337 120.877 202.484Z" fill="#747474"/>
<path d="M120.975 204.49C120.877 204.539 120.779 204.588 120.681 204.686C120.632 204.735 120.535 204.833 120.535 204.882C120.388 204.882 120.29 204.833 120.143 204.784C120.045 204.735 119.947 204.637 119.849 204.588C119.605 204.393 119.507 204.05 119.507 203.756C119.507 203.463 119.605 203.12 119.849 202.924C119.898 202.875 119.947 202.827 119.996 202.778C120.192 202.631 120.486 202.582 120.73 202.582C120.632 202.68 120.535 202.778 120.486 202.924C120.437 203.071 120.388 203.218 120.388 203.414C120.388 203.707 120.535 204.05 120.73 204.246C120.779 204.344 120.877 204.441 120.975 204.49Z" fill="#747474"/>
<path d="M121.22 207.622C121.122 207.867 120.975 208.014 120.681 208.014C119.947 208.014 120.045 206.888 119.801 206.693C119.556 206.497 119.458 206.154 119.458 205.861C119.458 205.567 119.556 205.224 119.801 205.029C119.898 204.931 119.996 204.882 120.143 204.833C120.29 204.735 120.486 204.686 120.681 204.735C120.633 204.784 120.535 204.882 120.535 204.931C120.388 205.127 120.339 205.322 120.339 205.567C120.339 205.861 120.486 206.203 120.681 206.399C120.828 206.546 120.828 207.329 121.22 207.622Z" fill="#2FBAE5"/>
<path d="M109.474 188.292H97.1904V191.962H109.474V188.292Z" fill="#DBE0E7"/>
<path d="M107.713 189.466C105.315 188.096 101.4 188.096 99.0016 189.466C96.6036 190.837 96.6036 193.088 99.0016 194.458C101.4 195.828 105.315 195.828 107.713 194.458C110.111 193.088 110.111 190.837 107.713 189.466Z" fill="#DBE0E7"/>
<path d="M107.713 185.649C105.315 184.279 101.4 184.279 99.0016 185.649C96.6036 187.019 96.6036 189.271 99.0016 190.69C101.4 192.06 105.315 192.06 107.713 190.69C110.111 189.271 110.111 187.019 107.713 185.649Z" fill="#76777E"/>
<path d="M107.175 185.943C105.07 184.719 101.645 184.719 99.5402 185.943C97.4358 187.166 97.4358 189.124 99.5402 190.347C101.645 191.571 105.07 191.571 107.175 190.347C109.279 189.124 109.279 187.166 107.175 185.943Z" fill="#453E3A"/>
<path d="M103.356 187.705L90.3389 180.168V186.139L103.356 193.626L104.58 190.592L103.356 187.705Z" fill="#ECECEC"/>
<path d="M112.656 182.321L103.357 187.705V193.626L112.656 188.292V182.321Z" fill="#F3F4F4"/>
<path d="M99.6371 174.785L90.3389 180.168L103.356 187.754L112.704 182.37L99.6371 174.785Z" fill="#EDEDED"/>
<path d="M103.504 179.875V180.168C103.504 180.511 103.259 180.853 102.818 181.147C102.623 181.245 102.378 181.343 102.182 181.392C102.035 181.441 101.938 181.441 101.791 181.489C101.742 181.489 101.693 181.489 101.595 181.538C101.546 181.538 101.497 181.538 101.448 181.538C101.252 181.538 101.008 181.538 100.812 181.538C100.616 181.538 100.469 181.489 100.323 181.441C100.225 181.441 100.176 181.392 100.078 181.392C99.8822 181.343 99.6864 181.245 99.5396 181.147C99.3928 181.049 99.2949 181 99.1971 180.902C98.9524 180.706 98.8545 180.413 98.8545 180.168V179.826C98.9034 180.021 99.0013 180.266 99.1971 180.462C99.2949 180.56 99.3928 180.658 99.5396 180.706C99.6864 180.804 99.8822 180.902 100.078 180.951C100.176 180.951 100.225 181 100.323 181C100.469 181.049 100.665 181.049 100.812 181.049C101.008 181.098 101.252 181.098 101.448 181.049C101.497 181.049 101.546 181.049 101.595 181.049C101.644 181.049 101.693 181.049 101.791 181C101.938 181 102.035 180.951 102.182 180.902C102.427 180.853 102.623 180.755 102.818 180.658C103.21 180.511 103.455 180.168 103.504 179.875Z" fill="#DBE0E7"/>
<path d="M102.818 178.798C102.28 178.504 101.497 178.357 100.812 178.406C100.616 178.406 100.469 178.455 100.323 178.504C100.225 178.504 100.176 178.553 100.078 178.553C99.8822 178.602 99.6864 178.7 99.5396 178.798C99.3928 178.896 99.2949 178.945 99.1971 179.043C98.9524 179.238 98.8545 179.483 98.8545 179.728C98.8545 179.777 98.8545 179.777 98.8545 179.826C98.9034 180.021 99.0013 180.266 99.1971 180.462C99.2949 180.56 99.3928 180.657 99.5396 180.706C99.6864 180.804 99.8822 180.902 100.078 180.951C100.176 180.951 100.225 181 100.323 181C100.469 181.049 100.665 181.049 100.812 181.049C101.497 181.098 102.28 181 102.818 180.657C103.259 180.413 103.455 180.119 103.504 179.777C103.504 179.728 103.504 179.728 103.504 179.679C103.504 179.434 103.259 179.091 102.818 178.798Z" fill="#ECECEC"/>
<path d="M101.546 179.238V167.102L118.087 156.58V155.552L100.861 166.514C100.714 166.612 100.665 166.71 100.665 166.857V179.777C100.959 179.581 101.252 179.434 101.546 179.238Z" fill="#ECECEC"/>
<path d="M101.253 179.434V167.004L118.087 156.335V155.944L101.008 166.808C100.959 166.857 100.91 166.906 100.91 166.955V179.679C101.057 179.532 101.155 179.483 101.253 179.434Z" fill="#F3F4F4"/>
<path d="M120.633 165.34L120.78 165.095C121.416 165.487 122.297 165.487 123.324 164.948C125.331 163.872 127.044 161.18 127.093 158.88C127.142 157.754 126.75 156.922 126.114 156.531L126.261 156.286C126.75 156.58 127.093 157.118 127.191 157.803C127.239 158.097 127.288 158.44 127.288 158.782C127.288 159.223 127.191 159.712 127.093 160.152C127.044 160.348 126.995 160.544 126.946 160.691C126.799 161.033 126.652 161.425 126.456 161.767C125.722 163.235 124.548 164.508 123.275 165.193C122.248 165.78 121.318 165.78 120.633 165.34Z" fill="#BFBDBF"/>
<path d="M119.849 162.746C119.849 162.501 119.898 162.208 119.947 161.963C119.996 161.816 119.996 161.718 120.045 161.572C120.143 161.18 120.241 160.837 120.436 160.446C120.73 159.761 121.121 159.076 121.611 158.439C121.758 158.293 121.856 158.146 122.002 157.999C122.345 157.608 122.736 157.265 123.128 157.02C123.177 156.971 123.226 156.971 123.275 156.922C123.324 156.873 123.422 156.825 123.519 156.776C123.568 156.727 123.617 156.727 123.666 156.678C125.673 155.601 127.239 156.58 127.141 158.88C127.141 158.929 127.141 158.978 127.141 159.027C127.141 159.125 127.141 159.223 127.092 159.271C127.092 159.32 127.092 159.369 127.092 159.467C127.043 159.957 126.896 160.446 126.7 160.886C126.651 161.082 126.554 161.278 126.456 161.425C126.113 162.11 125.673 162.795 125.183 163.333C124.939 163.627 124.645 163.921 124.351 164.165C124.254 164.263 124.156 164.361 124.009 164.41C123.813 164.557 123.568 164.704 123.373 164.801C121.317 166.025 119.751 165.046 119.849 162.746Z" fill="#8C8A8C"/>
<path d="M120.975 160.984C120.241 160.544 120.045 159.614 120.486 158.88C120.926 158.146 121.856 157.95 122.59 158.391C123.324 158.831 123.52 159.761 123.08 160.495C122.639 161.18 121.66 161.425 120.975 160.984Z" fill="white"/>
<path d="M120.633 165.34L116.081 162.501C115.788 162.306 115.543 162.061 115.347 161.669C115.152 161.278 115.054 160.838 115.054 160.25C115.054 160.201 115.054 160.103 115.054 160.055C115.054 160.006 115.054 160.006 115.054 159.957C115.054 159.859 115.054 159.761 115.054 159.663C115.054 159.418 115.103 159.174 115.152 158.978C115.249 158.488 115.396 157.95 115.641 157.461C115.935 156.825 116.277 156.188 116.718 155.601C116.718 155.601 116.718 155.552 116.767 155.552C116.815 155.503 116.864 155.405 116.913 155.356C116.962 155.308 117.011 155.259 117.06 155.161C117.158 155.014 117.305 154.916 117.403 154.769C117.452 154.769 117.452 154.72 117.452 154.72C117.501 154.671 117.55 154.622 117.599 154.573C117.696 154.476 117.794 154.378 117.892 154.329C118.235 153.986 118.626 153.741 119.018 153.546C119.262 153.399 119.556 153.301 119.801 153.252C119.85 153.252 119.899 153.203 119.948 153.203C120.682 153.007 121.269 153.105 121.758 153.399L126.31 156.237L126.163 156.482C126.114 156.433 126.065 156.433 126.016 156.433C125.967 156.433 125.967 156.384 125.918 156.384C125.82 156.335 125.722 156.335 125.624 156.286C125.575 156.286 125.527 156.286 125.478 156.237C125.429 156.237 125.38 156.237 125.331 156.237C125.282 156.237 125.282 156.237 125.233 156.237H125.184C125.135 156.237 125.135 156.237 125.086 156.237C124.646 156.237 124.156 156.384 123.618 156.678C123.471 156.776 123.324 156.825 123.177 156.922C123.129 156.971 123.08 156.971 123.031 157.02C122.688 157.265 122.394 157.51 122.101 157.803C122.052 157.852 122.003 157.95 121.905 157.999C121.758 158.195 121.562 158.391 121.416 158.586C121.367 158.635 121.318 158.684 121.318 158.733C121.318 158.733 121.318 158.733 121.318 158.782C121.269 158.831 121.22 158.88 121.22 158.929C121.171 158.978 121.122 159.027 121.073 159.125C120.975 159.272 120.877 159.418 120.779 159.614C120.682 159.761 120.633 159.908 120.535 160.055C120.486 160.201 120.388 160.348 120.339 160.495C120.29 160.642 120.241 160.74 120.192 160.886C120.143 160.935 120.143 161.033 120.143 161.082C120.094 161.229 120.045 161.327 120.045 161.474C119.996 161.669 119.948 161.865 119.948 162.012C119.948 162.061 119.948 162.061 119.948 162.11C119.948 162.159 119.948 162.208 119.948 162.257C119.948 162.306 119.948 162.355 119.948 162.355C119.948 162.452 119.899 162.599 119.899 162.697V162.746C119.899 162.844 119.899 162.991 119.899 163.089C119.899 163.138 119.899 163.187 119.899 163.284C119.899 163.333 119.899 163.382 119.899 163.431C119.899 163.431 119.899 163.431 119.899 163.48C119.899 163.529 119.899 163.578 119.948 163.627C119.948 163.725 119.996 163.872 119.996 163.97C120.045 164.067 120.045 164.165 120.094 164.214C120.094 164.263 120.143 164.312 120.143 164.361C120.143 164.41 120.192 164.41 120.192 164.459C120.192 164.508 120.241 164.508 120.241 164.508C120.29 164.557 120.29 164.606 120.339 164.606C120.339 164.655 120.388 164.655 120.437 164.704L120.486 164.753C120.486 164.753 120.486 164.802 120.535 164.802L120.584 164.85C120.633 164.899 120.682 164.948 120.731 164.948C120.779 164.997 120.828 164.997 120.828 165.046L120.633 165.34Z" fill="#9C9C9B"/>
<path d="M120.779 165.095C120.73 165.046 120.681 165.046 120.681 164.997C120.632 164.948 120.583 164.899 120.535 164.899L120.486 164.85C120.486 164.85 120.486 164.802 120.437 164.802L120.388 164.753C120.339 164.704 120.339 164.704 120.29 164.655C120.241 164.606 120.241 164.557 120.192 164.557C120.192 164.508 120.143 164.508 120.143 164.508C120.143 164.459 120.094 164.459 120.094 164.41C120.094 164.361 120.045 164.312 120.045 164.263C119.996 164.165 119.996 164.116 119.947 164.018C119.898 163.921 119.898 163.823 119.898 163.676C119.898 163.627 119.898 163.578 119.849 163.529V163.48C119.849 163.431 119.849 163.382 119.849 163.333C119.849 163.284 119.849 163.235 119.849 163.138C119.849 163.04 119.849 162.893 119.849 162.795V162.746C119.849 162.648 119.849 162.501 119.898 162.404C119.898 162.355 119.898 162.306 119.898 162.306C119.898 162.257 119.898 162.208 119.898 162.159C119.947 161.963 119.996 161.718 120.045 161.523C120.094 161.376 120.094 161.278 120.143 161.131C120.192 161.082 120.192 160.984 120.192 160.935C120.339 160.495 120.535 160.054 120.779 159.663C120.877 159.516 120.975 159.369 121.073 159.174C121.122 159.125 121.171 159.076 121.22 158.978C121.269 158.929 121.269 158.88 121.318 158.831C121.318 158.831 121.318 158.831 121.318 158.782C121.366 158.733 121.415 158.684 121.415 158.635C121.562 158.44 121.709 158.244 121.905 158.048C121.954 157.999 122.003 157.901 122.101 157.852C122.394 157.559 122.688 157.314 123.03 157.069C123.079 157.02 123.128 157.02 123.177 156.971C123.324 156.874 123.471 156.776 123.618 156.727C124.156 156.433 124.645 156.286 125.086 156.286C125.135 156.286 125.135 156.286 125.184 156.286H125.233C125.282 156.286 125.282 156.286 125.33 156.286C125.379 156.286 125.428 156.286 125.477 156.286C125.526 156.286 125.575 156.286 125.624 156.335C125.722 156.335 125.82 156.384 125.918 156.433C125.967 156.433 126.016 156.482 126.016 156.482C126.065 156.482 126.113 156.531 126.162 156.531L126.309 156.286C125.82 155.993 125.233 155.895 124.499 156.09C124.205 156.188 123.911 156.286 123.618 156.433C123.226 156.629 122.835 156.922 122.492 157.216C122.345 157.314 122.198 157.461 122.052 157.608C121.807 157.852 121.513 158.146 121.318 158.488C120.339 159.761 119.654 161.376 119.605 162.844C119.556 164.067 119.947 164.899 120.632 165.34L120.779 165.095Z" fill="#BFBDBF"/>
<path d="M114.417 164.899C115.592 166.71 119.996 165.878 124.205 163.089C128.414 160.299 130.86 156.58 129.686 154.818C128.511 153.007 124.107 153.839 119.898 156.629C115.69 159.369 113.243 163.089 114.417 164.899Z" fill="#FFFEF9"/>
<path d="M91.7099 182.664L89.1162 184.181L89.7035 185.16C89.8503 186.041 90.3886 187.019 91.1227 187.607L91.7099 188.585L94.3037 187.068C94.6462 186.873 94.842 186.481 94.842 185.894C94.842 184.768 94.059 183.349 93.0313 182.762C92.493 182.468 92.0525 182.468 91.7099 182.664Z" fill="#9C9C9B"/>
<path d="M88.5781 185.307C88.5781 184.132 89.4101 183.692 90.3888 184.279C91.3676 184.866 92.1996 186.236 92.1996 187.411C92.1996 188.537 91.4165 189.026 90.3888 188.439C89.4101 187.851 88.5781 186.481 88.5781 185.307Z" fill="#9C9C9B"/>
<path d="M91.1717 188.585C91.759 188.585 92.1994 188.096 92.1994 187.313C92.1994 186.187 91.4164 184.817 90.4377 184.279C90.144 184.132 89.8994 184.034 89.6547 184.034C89.0185 184.034 88.627 184.524 88.627 185.307C88.627 186.432 89.41 187.802 90.3887 188.341C90.6334 188.537 90.9271 188.585 91.1717 188.585Z" fill="#747474"/>
<path d="M88.6758 185.307C88.6758 184.181 89.4588 183.741 90.3886 184.328C91.3674 184.866 92.1015 186.236 92.1015 187.313C92.1015 188.439 91.3184 188.879 90.3886 188.292C89.4588 187.754 88.6758 186.432 88.6758 185.307Z" fill="#9C9C9B"/>
<path d="M89.5567 184.866L89.1162 185.111L89.5077 185.796C89.6056 186.383 89.9971 187.068 90.4375 187.411L90.8291 188.096L91.2695 187.802C91.4653 187.656 91.6121 187.411 91.6121 187.019C91.6121 186.236 91.0737 185.307 90.3886 184.915C90.095 184.768 89.8014 184.719 89.5567 184.866Z" fill="#9C9C9B"/>
<path d="M88.7734 185.943C88.7734 185.16 89.3118 184.866 89.9969 185.258C90.682 185.649 91.2204 186.579 91.2204 187.362C91.2204 188.145 90.682 188.439 89.9969 188.047C89.3118 187.656 88.7734 186.677 88.7734 185.943Z" fill="#9C9C9B"/>
<path d="M88.4797 188.537C88.5776 188.683 88.7733 188.732 88.9202 188.634C89.1159 188.586 89.2627 188.39 89.4585 188.243C89.6542 188.096 89.85 187.949 89.9968 187.851C90.0457 187.803 90.0947 187.803 90.1926 187.803C90.2415 187.803 90.3394 187.851 90.3883 187.803C90.4372 187.754 90.4862 187.705 90.4862 187.656C90.5351 187.509 90.4372 187.264 90.2415 187.166C90.1926 187.117 90.0947 187.166 90.0457 187.215C89.9968 187.264 89.9968 187.362 89.9479 187.411C89.8989 187.46 89.85 187.46 89.8011 187.509C89.6542 187.558 89.4585 187.656 89.2138 187.705C89.1159 187.754 88.9691 187.803 88.8712 187.803C88.7244 187.851 88.4797 187.949 88.3818 188.145C88.3818 188.243 88.3818 188.39 88.4797 188.537Z" fill="#C7C6C5"/>
<path d="M89.9974 187.558C89.7527 187.754 89.4591 188.047 89.2633 188.194C89.1165 188.292 88.9697 188.439 88.7739 188.488C88.5782 188.537 88.5293 188.292 88.5782 188.194C88.6271 188.145 88.725 188.047 88.8229 188.047L89.9974 187.558Z" fill="#747474"/>
<path d="M87.55 187.019C87.6479 187.166 87.8437 187.215 87.9905 187.117C88.1862 187.068 88.333 186.873 88.5288 186.726C88.7245 186.579 88.9203 186.432 89.0671 186.334C89.1161 186.285 89.165 186.285 89.2629 186.285C89.3118 186.285 89.4097 186.334 89.4586 186.285C89.5076 186.285 89.5565 186.188 89.5565 186.139C89.6054 186.041 89.5076 185.747 89.3118 185.649C89.2629 185.6 89.165 185.649 89.116 185.698C89.0671 185.747 89.0671 185.845 89.0182 185.894C88.9692 185.943 88.9203 185.943 88.8714 185.992C88.7245 186.041 88.5288 186.139 88.2841 186.188C88.1862 186.236 88.0394 186.285 87.9415 186.285C87.7947 186.334 87.55 186.432 87.4521 186.628C87.4521 186.726 87.4521 186.873 87.55 187.019Z" fill="#C7C6C5"/>
<path d="M89.0667 185.992C88.773 186.236 88.5284 186.481 88.3326 186.628C88.1858 186.726 88.039 186.873 87.8432 186.922C87.6475 186.971 87.5985 186.726 87.6964 186.628C87.7453 186.579 87.8432 186.481 87.9411 186.481L89.0667 185.992Z" fill="#747474"/>
<path opacity="0.5" d="M144.759 143.367L162.181 153.741L162.572 173.366L162.866 153.937L181.805 142.877L162.572 153.399L144.759 143.367Z" fill="#F4F4F4"/>
<path opacity="0.5" d="M40.0801 255.484L57.4532 265.859L57.8936 276.625L58.1872 266.055L77.2242 254.554L57.8447 265.516L40.0801 255.484Z" fill="#F4F4F4"/>
<path opacity="0.5" d="M96.1631 183.545L103.112 187.656L103.357 193.626L103.406 187.754L110.942 183.349L103.308 187.509L96.1631 183.545Z" fill="#F4F4F4"/>
<path d="M84.9561 219.955C84.9561 221.766 85.5433 223.821 86.62 225.681C87.6966 227.589 89.2137 229.057 90.7308 229.987C92.3947 230.966 94.0096 231.113 95.2331 230.379C96.5055 229.645 97.1417 228.225 97.1906 226.268C97.1906 224.457 96.6034 222.451 95.4778 220.542C94.4011 218.634 92.933 217.117 91.367 216.236C89.7031 215.257 88.0881 215.11 86.8157 215.844C85.6412 216.578 84.9561 217.997 84.9561 219.955Z" fill="#F0F0F1"/>
<path d="M95.2336 230.428L86.8162 215.893L36.1162 245.892L44.4847 260.427L95.2336 230.428Z" fill="#F9F9FA"/>
<path d="M35.7246 249.073C35.7246 250.884 36.3119 252.89 37.4374 254.799C38.5141 256.708 39.9822 258.225 41.5483 259.106C42.3802 259.595 43.1632 259.84 43.9462 259.937L44.3867 260.427L46.0506 259.497C47.274 258.763 47.9592 257.344 47.9592 255.386C47.9592 253.576 47.3719 251.569 46.2463 249.66C45.1697 247.752 43.7015 246.235 42.1355 245.305C40.4716 244.326 38.8567 244.228 37.6332 244.913L36.0672 245.794L36.3119 246.235C35.9693 247.067 35.7246 247.997 35.7246 249.073Z" fill="#E5E7EA"/>
<path d="M34.2075 250.003C34.2075 251.814 34.7948 253.82 35.8714 255.729C36.9481 257.637 38.4162 259.154 39.9822 260.035C41.6461 261.014 43.2611 261.161 44.4846 260.427C45.708 259.693 46.3932 258.274 46.4421 256.316C46.4421 254.505 45.8548 252.499 44.7293 250.59C43.6526 248.682 42.1845 247.165 40.6184 246.235C38.9056 245.256 37.3396 245.109 36.1161 245.843C34.8437 246.626 34.1586 248.045 34.2075 250.003Z" fill="white"/>
<path d="M34.2568 250.003C34.2568 251.814 34.893 253.771 35.9697 255.68C37.0463 257.539 38.4655 259.106 40.0315 259.986C41.6465 260.916 43.2615 261.063 44.436 260.378C45.6594 259.693 46.2956 258.225 46.2956 256.365C46.2956 254.554 45.7084 252.548 44.6317 250.688C43.5551 248.78 42.087 247.262 40.5209 246.382C38.906 245.452 37.3399 245.305 36.1165 245.99C34.942 246.675 34.2568 248.094 34.2568 250.003Z" fill="#DBDCDE"/>
<path d="M34.8435 250.003C34.8435 253.478 37.2904 257.735 40.3246 259.497C43.3587 261.259 45.8057 259.84 45.8057 256.316C45.8057 252.841 43.3098 248.535 40.3246 246.822C37.2904 245.06 34.7945 246.48 34.8435 250.003Z" fill="#ECECEC"/>
<path d="M38.8073 249.318L37.1924 250.248L38.0733 251.765C38.318 253.184 39.1499 254.652 40.2755 255.533L41.1564 257.05L42.7713 256.12C43.2607 255.827 43.6033 255.19 43.6033 254.31C43.6033 252.548 42.3309 250.346 40.8138 249.465C40.0308 249.073 39.2967 249.024 38.8073 249.318Z" fill="#747474"/>
<path d="M38.709 253.673C38.8558 253.918 39.0026 254.212 39.1984 254.407L43.0645 252.156C42.9666 251.863 42.8198 251.618 42.624 251.373L38.709 253.673Z" fill="#76777E"/>
<path d="M37.7305 251.275L37.9752 251.716L41.2051 249.856C41.0583 249.709 40.9115 249.611 40.7157 249.514L37.7305 251.275Z" fill="#76777E"/>
<path d="M37.5838 250.982L40.4222 249.367C39.8349 249.122 39.2477 249.122 38.8562 249.367L37.2412 250.297L37.5838 250.982Z" fill="#76777E"/>
<path d="M36.3604 252.058C36.3604 250.297 37.6327 249.563 39.1498 250.443C40.6669 251.324 41.9393 253.478 41.9393 255.239C41.9393 257.001 40.7159 257.735 39.1498 256.854C37.5838 256.022 36.3604 253.869 36.3604 252.058Z" fill="#747474"/>
<path d="M31.9062 249.073C31.9062 253.869 35.283 259.693 39.3938 262.091C43.5536 264.489 46.9303 262.531 46.9303 257.784C46.9303 252.988 43.5536 247.165 39.4427 244.767C35.283 242.369 31.9062 244.277 31.9062 249.073ZM38.7576 245.99V252.548L33.8148 252.988C33.4723 251.912 33.2765 250.835 33.2765 249.856C33.2765 246.235 35.6745 244.62 38.7576 245.99ZM45.56 256.952C45.56 257.98 45.3643 258.812 45.0217 259.497L40.1279 253.331V246.773C43.1621 248.975 45.56 253.331 45.56 256.952ZM34.5 254.75L39.3938 254.31L44.3366 260.427C43.211 261.552 41.4492 261.65 39.3938 260.476C37.3873 259.35 35.6256 257.148 34.5 254.75Z" fill="#C7C6C5"/>
<path d="M31.3682 249.611C31.3682 254.358 34.7449 260.231 38.8557 262.58C43.0155 264.978 46.3433 263.021 46.3433 258.274C46.3433 253.478 42.9665 247.654 38.8557 245.305C34.696 242.907 31.3682 244.864 31.3682 249.611ZM38.1706 246.577V253.135L33.2278 253.575C32.8852 252.499 32.6895 251.471 32.6895 250.443C32.7384 246.773 35.1364 245.207 38.1706 246.577ZM44.973 257.491C44.973 258.518 44.7772 259.35 44.4347 260.035L39.4919 253.869V247.311C42.575 249.514 44.973 253.869 44.973 257.491ZM33.913 255.288L38.8557 254.848L43.7985 260.965C42.6729 262.091 40.9111 262.189 38.8557 261.014C36.8492 259.889 35.0385 257.686 33.913 255.288Z" fill="#747474"/>
<path d="M28.4323 257.442C28.6281 257.784 28.9706 257.833 29.46 257.637C29.9005 257.491 30.3898 257.05 30.9282 256.659C31.4665 256.267 32.0048 255.876 32.3963 255.631C32.5921 255.484 32.7389 255.435 32.8857 255.435C32.9836 255.435 33.0814 255.435 33.0814 255.435C33.2772 255.484 33.5708 255.288 33.7176 254.995C33.8645 254.701 33.8645 254.016 33.3751 253.82C33.2283 253.771 32.9836 253.918 32.7878 254.163C32.7878 254.163 32.7389 254.261 32.5921 254.358C32.4942 254.505 32.2984 254.603 32.1027 254.701C31.7112 254.897 31.1729 255.142 30.6345 255.337C30.3409 255.435 30.0473 255.582 29.8026 255.68C29.4111 255.827 28.8238 256.12 28.5302 256.561C28.2855 256.854 28.2366 257.148 28.4323 257.442Z" fill="#C7C6C5"/>
<path d="M32.0053 255.19C31.5159 255.631 31.0265 256.071 30.4882 256.463C30.0967 256.756 29.6562 257.05 29.1668 257.099C28.6285 257.148 28.7753 256.561 29.02 256.316C29.1668 256.169 29.3626 256.12 29.5583 256.022L32.0053 255.19Z" fill="#747474"/>
<path d="M78.5931 223.723L77.4186 223.772L77.125 216.138L78.2995 216.089L78.5931 223.723Z" fill="#E2E2E2"/>
<path d="M76.0003 208.357C75.6088 209.091 75.7067 210.118 75.8535 210.754C75.9514 211.244 76.0492 211.684 76.1961 212.174C76.4408 213.055 76.5876 213.935 76.6854 214.572C76.7344 214.767 76.7833 215.012 76.6854 215.208C76.5876 215.501 76.2939 215.648 76.245 215.942C76.1961 216.236 76.2939 216.578 76.5386 216.774C77.4195 217.312 78.5451 216.97 78.8877 216.578C79.0345 216.382 79.1813 216.089 79.1324 215.844C79.0834 215.55 78.8387 215.404 78.6919 215.208C78.5451 214.963 78.4962 214.67 78.4962 214.425C78.4962 213.691 78.5451 212.712 78.6919 211.733C78.8387 210.706 79.0345 209.678 78.8877 208.944C78.7409 208.161 78.3004 207.671 77.4685 207.622C76.6854 207.622 76.245 207.916 76.0003 208.357Z" fill="#C7C6C5"/>
<path d="M77.3215 215.012C77.4683 213.593 77.8108 212.027 77.9577 211.048C78.0555 210.314 78.2023 209.433 77.8598 208.65C77.5172 207.818 76.5874 208.21 76.3916 208.748C76.2938 209.091 76.2938 209.58 76.3427 209.923L77.3215 215.012Z" fill="#747474"/>
<path d="M78.6427 223.478C78.9853 223.674 78.9853 224.017 78.6427 224.213C78.3001 224.408 77.7129 224.408 77.3214 224.213C76.9788 224.017 76.9788 223.674 77.3214 223.478C77.7129 223.283 78.3001 223.283 78.6427 223.478Z" fill="#E2E2E2"/>
<path d="M343.742 328.989C343.742 335.645 354.362 341.028 367.477 341.028C380.593 341.028 391.212 335.645 391.212 328.989C391.212 322.334 380.593 316.951 367.477 316.951C354.362 316.999 343.742 322.383 343.742 328.989Z" fill="#E2E7E7"/>
<path d="M368.064 315.923C368.652 320.963 367.673 323.117 367.673 323.117L367.428 324.389C367.428 324.389 363.758 325.172 361.702 324.976C359.256 324.732 356.858 325.515 352.649 325.564C348.44 325.613 343.938 325.564 343.351 323.508C342.714 321.306 344.036 318.81 350.496 317.929C357.004 317.048 358.864 312.84 358.864 312.84L368.064 315.923Z" fill="#139DC8"/>
<path d="M372.713 246.969C372.86 254.016 370.413 255.778 369.043 262.678C368.064 267.474 366.498 277.555 367.673 282.253C369.532 289.594 371.441 294.292 369.386 315.972C363.856 320.67 358.668 318.565 355.732 315.972C358.766 298.892 354.068 288.468 353.676 285.532C352.649 278.094 349.37 248.143 350.838 239.971C352.257 231.945 364.443 242.76 370.903 245.256L372.713 246.969Z" fill="#2FBAE5"/>
<path d="M389.157 319.495C390.918 324.83 389.401 337.505 383.284 338.924C381.424 339.364 376.531 339.168 375.601 337.309C374.084 334.275 377.46 330.311 379.173 327.179C380.25 325.221 379.761 323.508 379.565 321.404C379.271 318.614 381.767 319.153 383.871 318.81L389.157 319.495Z" fill="#139DC8"/>
<path d="M352.258 228.323L381.768 243.152C381.768 243.152 384.068 269.725 385.095 277.213C386.074 284.309 388.815 291.062 390.136 298.109C391.311 304.373 392.828 315.287 391.457 324.291C389.793 326.64 380.544 326.396 377.755 325.368C378.782 319.055 378.244 314.846 378.195 313.182C377.95 305.058 377.314 299.333 373.889 291.845C370.169 283.672 367.086 275.842 365.765 266.887C365.226 263.167 363.66 256.169 362.486 250.394C359.452 247.556 355.096 243.886 353.09 239.726C352.796 234.881 352.258 232.043 352.258 228.323Z" fill="#2FBAE5"/>
<path d="M299.257 216.04C300.187 215.11 301.362 214.865 302.536 214.425C301.264 214.229 300.187 213.935 300.285 213.74C301.46 211.929 309.486 211.391 311.345 210.216C311.198 209.188 310.513 209.727 309.583 209.042C308.849 208.503 307.871 206.399 308.996 206.154C310.709 208.21 312.666 207.28 314.575 208.357C315.652 208.944 316.337 209.727 317.462 210.167C317.756 210.265 318.001 210.657 318.294 210.657C319.42 210.51 320.692 210.901 321.426 211.929C321.475 211.978 321.524 212.027 321.524 212.076C321.671 212.369 321.72 212.859 321.72 213.201C321.524 215.648 319.714 215.502 318.148 215.991C317.022 216.333 316.239 217.312 315.26 217.899C315.211 217.948 315.113 217.948 315.064 217.997C312.911 219.514 309.779 219.808 307.234 220.395C306.402 220.591 305.522 220.64 304.69 220.444C304.2 220.346 303.662 220.2 303.172 220.151C303.221 219.172 304.983 219.074 305.668 218.829C305.277 218.78 304.885 218.682 304.494 218.634C304.004 218.536 300.872 218.046 300.089 217.802C299.943 217.655 300.04 217.312 300.236 216.97C300.138 216.97 300.04 216.97 299.943 216.97C299.404 217.019 298.719 216.578 299.257 216.04Z" fill="#FFE9E2"/>
<path d="M319.371 208.405C316.288 209.482 316.239 208.405 315.505 210.216C314.232 213.348 316.777 217.312 316.777 217.312L322.307 216.578C322.258 216.578 322.454 207.329 319.371 208.405Z" fill="#F3F3F3"/>
<path d="M363.464 193.577C361.752 198.422 359.403 202.141 355.977 205.763C353.236 208.65 349.811 212.174 346.238 214.033C343.889 215.306 339.729 216.921 336.989 217.165C334.885 217.312 332.438 217.851 330.333 217.802C328.62 217.753 318.686 218.046 318.686 218.046C318.686 218.046 317.218 214.376 316.973 213.201C316.484 210.999 316.924 208.797 316.924 208.797C316.924 208.797 339.289 203.512 340.317 203.512C341.344 203.463 350.398 189.76 352.796 187.264C353.922 186.09 355.341 185.16 356.956 184.817C360.773 184.083 363.954 186.922 364.003 190.739C363.954 191.669 363.758 192.647 363.464 193.577Z" fill="#2FBAE5"/>
<path d="M378.929 236.594C379.467 241.145 372.665 243.054 367.624 243.347C361.213 243.69 351.328 239.432 351.915 232.875C352.257 229.302 351.621 225.485 351.328 221.961C350.887 216.431 349.321 208.993 349.272 203.463C349.223 197.737 350.3 192.354 353.579 187.411C354.264 186.383 357.592 183.936 361.751 183.447C363.415 183.251 365.226 183.349 367.086 184.034C373.643 186.383 381.082 191.375 385.535 196.22C385.535 196.22 377.265 229.547 378.929 236.594Z" fill="#139DC8"/>
<path d="M369.631 173.561L369.728 185.698C369.728 187.851 368.016 189.613 365.862 189.613C363.709 189.613 361.947 187.9 361.947 185.747C361.947 185.551 361.947 185.356 361.996 185.209L363.611 173.17C363.856 171.506 365.373 170.331 367.037 170.576C368.505 170.772 369.631 172.093 369.631 173.561Z" fill="#FFCEC0"/>
<path d="M369.973 187.754L367.575 196.073L360.919 204.686L358.962 199.058L359.696 187.754L363.856 189.662L369.973 187.754Z" fill="#F3F3F3"/>
<path d="M369.631 183.692C368.358 185.894 365.813 188.341 363.954 189.173C362.339 187.46 361.947 185.551 361.947 185.551L359.745 186.481C359.745 186.481 360.479 192.501 360.724 192.696L363.611 189.662L365.862 193.969C365.862 193.969 371.392 187.313 371.784 186.041C370.952 184.573 369.777 183.055 369.777 183.055L369.631 183.692Z" fill="#E9E9E9"/>
<path d="M361.947 191.375L362.583 194.556H363.464L365.128 192.647L363.562 189.662L361.947 191.375Z" fill="#FFD24D"/>
<path d="M360.381 204.931C360.087 203.756 359.647 202.582 359.598 201.358C360.625 196.562 361.849 194.752 362.73 192.696C363.953 189.858 363.953 193.871 363.953 193.871C363.953 193.871 362.534 196.073 362.094 200.624C361.996 201.505 361.947 202.631 361.849 203.854C361.849 203.854 361.8 203.854 361.8 203.903C361.408 204.441 360.919 204.833 360.43 205.273C360.43 205.176 360.381 205.029 360.381 204.931Z" fill="#FFD24D"/>
<path d="M350.594 210.167H353.971L358.962 225.827L379.859 227.589C381.18 232.972 383.383 245.794 383.285 249.171C381.768 250.933 370.365 254.603 362.143 253.575C361.409 249.856 359.941 246.675 359.647 244.081C359.011 247.165 359.011 250.541 359.892 253.037C358.864 252.792 351.817 250.15 349.664 247.409C350.692 243.69 350.594 210.167 350.594 210.167Z" fill="#139DC8"/>
<path d="M362.731 203.561L360.382 206.007L359.452 199.646L356.956 202.484V222.646L360.382 224.261L367.576 214.131L362.731 203.561Z" fill="#139DC8"/>
<path d="M370.56 184.181C373.007 184.475 374.231 187.411 374.231 187.411L373.35 190.935L370.56 191.669L372.763 192.598L360.675 205.371L368.799 191.669C368.799 191.669 370.56 186.139 370.56 184.181Z" fill="#2FBAE5"/>
<path d="M360.381 186.677C360.381 186.677 358.424 198.96 360.528 205.322C359.354 203.267 357.005 189.956 357.005 189.956L358.669 189.613C358.669 189.613 356.809 187.754 357.005 187.998C357.151 188.243 358.326 184.132 358.326 184.132H361.36L360.381 186.677Z" fill="#2FBAE5"/>
<path d="M369.924 177.476C369.141 178.357 369.533 180.364 367.771 182.321C365.422 184.964 363.367 185.649 362.437 186.236C360.822 187.215 358.62 186.579 358.032 185.649C356.711 183.594 355.977 181.587 355.194 179.238C353.432 173.757 354.019 168.031 354.411 165.291C356.662 159.565 360.381 158.293 367.135 159.125C374.769 160.054 376.286 170.185 369.924 177.476Z" fill="#FFE9E2"/>
<path d="M364.541 169.891C365.716 171.457 366.694 173.512 367.82 175.274C369.141 176.008 370.511 176.791 370.511 176.791C372.714 175.127 373.203 173.219 373.937 170.283C374.524 167.836 374.378 164.312 373.301 162.942L364.541 169.891Z" fill="#453E3A"/>
<path d="M354.606 169.548C362.143 172.827 370.218 171.408 373.35 164.067C373.35 157.754 363.219 155.21 357.249 159.663C352.551 163.089 352.061 168.423 354.606 169.548Z" fill="#453E3A"/>
<path d="M369.435 173.415C370.952 169.744 373.252 171.751 373.301 173.219C373.399 174.981 371.637 177.428 369.631 177.868C369.386 177.917 369.044 176.155 369.093 175.519C369.142 174.638 369.19 174.002 369.435 173.415Z" fill="#FFE9E2"/>
<path d="M360.137 158.635C352.649 160.837 347.56 165.878 348.783 169.94C349.958 174.002 357.005 175.47 364.492 173.268C371.98 171.066 377.069 166.025 375.846 161.963C374.623 157.95 367.575 156.433 360.137 158.635Z" fill="#FFE28A"/>
<path d="M350.937 166.367C351.181 167.689 351.866 168.668 352.943 169.353C353.09 169.451 353.237 169.548 353.383 169.597C353.53 169.646 353.677 169.744 353.824 169.793C354.901 170.234 356.222 170.478 357.69 170.576C357.837 170.576 357.984 170.576 358.13 170.576C359.892 170.625 361.85 170.478 363.954 170.136C370.12 169.206 374.574 165.682 374.965 162.648C375.014 162.403 375.014 162.11 374.965 161.865C374.476 158.048 371.344 154.622 367.184 153.203C366.939 153.105 366.597 153.007 366.352 152.958C365.324 152.714 364.297 152.567 363.22 152.567C362.829 152.567 362.388 152.567 361.997 152.616C361.801 152.616 361.605 152.665 361.36 152.665C355.292 153.497 349.713 159.369 350.937 166.367Z" fill="#FFD24D"/>
<path d="M357.69 170.576C357.837 170.576 357.984 170.576 358.131 170.576C358.62 163.284 362.682 157.607 367.674 157.607C370.61 157.607 373.204 159.565 374.966 162.697C375.015 162.452 375.015 162.159 374.966 161.914C373.155 159.027 370.512 157.216 367.674 157.216C362.437 157.167 358.18 163.089 357.69 170.576Z" fill="#FFE28A"/>
<path d="M353.824 169.793V169.646C353.824 161.376 357.837 154.427 363.22 152.567C362.829 152.567 362.388 152.567 361.997 152.616C357.005 155.014 353.433 161.718 353.433 169.597C353.482 169.646 353.628 169.744 353.824 169.793Z" fill="#FFE28A"/>
<path d="M324.607 220.591L325.293 220.053L343.791 231.455L354.019 255.386H353.236L324.607 220.591Z" fill="#C7C6C5"/>
<path d="M343.889 232.385L353.236 255.386L334.738 244.816L324.607 220.591L343.889 232.385Z" fill="#747474"/>
<path d="M338.897 228.96C342.568 228.177 346.238 231.015 345.211 234.783L343.987 231.945C342.225 231.064 339.387 229.302 338.897 228.96Z" fill="#D2CECF"/>
<path d="M338.604 242.662C338.947 243.152 343.547 244.522 343.987 244.424C345.407 245.06 347.609 245.011 349.322 244.326C351.475 243.494 353.726 242.515 354.754 240.705L351.915 235.762C351.328 235.322 350.692 235.077 350.007 234.93C349.126 234.734 346.141 234.587 345.455 235.273C345.651 235.811 345.945 236.3 346.043 236.594C344.917 237.034 343.498 237.23 342.323 237.671C339.925 238.698 336.647 239.726 338.604 242.662Z" fill="#FFE9E2"/>
<path d="M329.256 221.374L343.644 230.085L343.204 230.379C342.567 230.183 341.931 230.232 341.344 230.77C339.338 232.63 346.483 239.579 343.302 243.641C339.338 241.977 327.348 234.392 327.348 234.392C327.348 234.392 328.375 231.553 326.418 227.296C324.509 223.038 324.901 218.78 329.256 221.374Z" fill="#EDEDED"/>
<path d="M339.729 230.33L339.925 229.987L327.103 222.451L326.907 222.842L339.729 230.33Z" fill="#58D8FF"/>
<path d="M340.855 235.077L341.051 234.734L328.229 227.198L328.033 227.54L340.855 235.077Z" fill="#58D8FF"/>
<path d="M341.98 239.775L342.176 239.432L329.354 231.945L329.158 232.287L341.98 239.775Z" fill="#58D8FF"/>
<path d="M354.411 233.119C352.111 235.468 351.083 234.392 351.817 237.524C352.551 240.803 355.83 241.537 355.83 241.537L360.381 238.454C360.381 238.454 356.711 230.77 354.411 233.119Z" fill="#F3F3F3"/>
<path d="M387.738 200.526C388.325 205.616 387.836 210.02 386.319 214.767C385.095 218.536 383.578 223.234 381.18 226.464C379.614 228.617 376.58 231.896 374.231 233.315C372.42 234.392 370.512 235.321 368.603 236.202C367.037 236.936 357.886 242.173 357.886 242.173C357.886 242.173 355.977 241.341 355.096 240.509C353.432 238.943 350.839 235.273 352.502 233.951C355.194 231.798 369.533 222.108 370.414 221.668C371.295 221.178 374.329 202.826 375.357 199.548C375.846 197.982 376.727 196.562 377.999 195.535C381.082 193.235 385.242 194.36 386.906 197.786C387.346 198.618 387.591 199.548 387.738 200.526Z" fill="#2FBAE5"/>
<path d="M328.718 351.746L242.538 401.516L238.819 399.363L232.652 395.79L221.494 389.33L209.26 382.283L203.094 378.76L191.985 372.3L180.093 365.399L173.829 361.827L162.768 355.416L158.902 353.214L162.768 351.012L173.829 344.601L180.093 341.028L245.083 303.493L328.718 351.746Z" fill="#E5E5E5"/>
<path d="M328.669 350.914L246.795 398.237L167.271 352.333V350.473L249.193 305.01L328.669 349.054V350.914Z" fill="#139DC8"/>
<path d="M328.718 349.054L246.795 396.377L243.223 394.322L237.35 390.945L226.779 384.828L215.132 378.074L209.26 374.698L198.689 368.58L187.384 362.023L181.463 358.646L170.941 352.529L167.271 350.424L170.941 348.32L181.463 342.252L187.384 338.826L249.193 303.15L328.718 349.054Z" fill="#139DC8"/>
<path d="M259.275 308.974L177.352 356.297L177.107 356.15L259.03 308.827L259.275 308.974Z" fill="#58D8FF"/>
<path d="M269.209 314.748L187.287 362.023L187.042 361.876L268.965 314.601L269.209 314.748Z" fill="#58D8FF"/>
<path d="M279.144 320.474L197.221 367.748L196.977 367.602L278.899 320.327L279.144 320.474Z" fill="#58D8FF"/>
<path d="M289.078 326.2L207.156 373.474L206.911 373.327L288.834 326.053L289.078 326.2Z" fill="#58D8FF"/>
<path d="M299.012 331.926L217.089 379.2L216.845 379.102L298.767 331.779L299.012 331.926Z" fill="#58D8FF"/>
<path d="M308.948 337.651L227.025 384.975L226.78 384.828L308.703 337.553L308.948 337.651Z" fill="#58D8FF"/>
<path d="M318.881 343.377L236.959 390.7L236.714 390.554L318.637 343.279L318.881 343.377Z" fill="#58D8FF"/>
<path d="M184.252 339.022V360.261L173.73 354.192V344.601C177.156 342.594 180.729 340.832 184.252 339.022Z" fill="#2FBAE5"/>
<path d="M190.173 338.875V356.786L184.252 360.31V338.875H190.173Z" fill="#139DC8"/>
<path d="M212.049 355.318V376.362L201.479 370.244V355.318H212.049Z" fill="#2FBAE5"/>
<path d="M217.922 355.318V372.838L212.05 376.362V355.318H217.922Z" fill="#139DC8"/>
<path d="M283.989 354.388V375.138L273.418 369.021V354.388H283.989Z" fill="#2FBAE5"/>
<path d="M289.861 354.388V371.664L283.988 375.138V354.388H289.861Z" fill="#139DC8"/>
<path d="M246.698 376.019V396.818L236.127 390.701V376.019H246.698Z" fill="#2FBAE5"/>
<path d="M252.57 376.019V393.294L246.697 396.818V376.019H252.57Z" fill="#139DC8"/>
<path d="M308.947 342.203V348.32L319.518 354.437V342.203H308.947Z" fill="#2FBAE5"/>
<path d="M319.518 342.203V354.437L325.39 350.914V342.203H319.518Z" fill="#139DC8"/>
<path d="M328.669 342.839L246.795 390.162L167.271 344.258V342.496L249.193 296.984L328.669 341.126V342.839Z" fill="#0C8CB4"/>
<path d="M328.669 341.126L246.795 388.4L167.271 342.496L249.193 295.222L328.669 341.126Z" fill="#58D8FF"/>
<path d="M259.274 301.046L177.351 348.32L177.106 348.173L259.029 300.899L259.274 301.046Z" fill="#453E3A"/>
<path d="M269.209 306.771L187.287 354.046L187.042 353.948L268.965 306.625L269.209 306.771Z" fill="#453E3A"/>
<path d="M279.143 312.497L197.22 359.82L196.976 359.674L278.898 312.399L279.143 312.497Z" fill="#453E3A"/>
<path d="M289.077 318.223L207.155 365.546L206.91 365.399L288.833 318.125L289.077 318.223Z" fill="#453E3A"/>
<path d="M299.012 323.998L217.089 371.272L216.845 371.125L298.767 323.851L299.012 323.998Z" fill="#453E3A"/>
<path d="M308.947 329.723L227.024 376.998L226.779 376.851L308.702 329.577L308.947 329.723Z" fill="#453E3A"/>
<path d="M318.881 335.449L236.959 382.724L236.714 382.626L318.637 335.302L318.881 335.449Z" fill="#453E3A"/>
<path d="M246.795 398.237L246.697 396.328L167.271 350.424V352.333L246.795 398.237Z" fill="#2FBAE5"/>
<path d="M204.513 322.236L244.006 345.09L283.108 322.53L243.614 299.675L204.513 322.236Z" fill="#2FBAE5"/>
<path d="M271.803 268.697L267.594 266.25L254.43 258.665L220.564 278.24L233.729 285.826L237.938 288.273L252.472 296.641L286.24 277.115L271.803 268.697Z" fill="#8AE3FF"/>
<path d="M254.43 259.35L221.788 278.191L252.521 295.711L285.163 277.066L254.43 259.35Z" fill="#58D8FF"/>
<path d="M252.472 296.641L252.423 340.098L237.84 331.779L233.631 329.332L220.564 321.893V278.24L252.472 296.641Z" fill="#139DC8"/>
<path d="M252.472 296.641L252.423 340.098L286.288 320.719V277.115L252.472 296.641Z" fill="#2FBAE5"/>
<path d="M237.84 288.322V331.779L233.631 329.332V285.875L237.84 288.322Z" fill="#2FBAE5"/>
<path d="M271.803 268.697L259.96 275.549L255.751 277.996L237.938 288.273L237.84 288.322L233.582 285.875L233.729 285.826L251.493 275.549L255.751 273.102L267.545 266.299L271.803 268.697Z" fill="#2FBAE5"/>
<path d="M237.399 341.518L276.844 364.372L315.945 341.811L276.501 318.957L237.399 341.518Z" fill="#E2E2E2"/>
<path d="M304.641 287.979L300.432 285.532L287.267 277.947L253.451 297.473L266.616 305.058L270.824 307.505L285.359 315.874L319.126 296.347L304.641 287.979Z" fill="#8AE3FF"/>
<path d="M287.268 278.632L254.626 297.473L285.359 314.993L317.952 296.396L287.268 278.632Z" fill="#58D8FF"/>
<path d="M285.359 315.923L285.31 359.38L270.726 351.061L266.469 348.614L253.451 341.175V297.522L285.359 315.923Z" fill="#139DC8"/>
<path d="M285.31 315.923L285.261 359.38L319.126 340V296.397L285.31 315.923Z" fill="#2FBAE5"/>
<path d="M270.726 307.603V351.06L266.469 348.614V305.156L270.726 307.603Z" fill="#2FBAE5"/>
<path d="M304.641 287.979L292.846 294.83L288.589 297.277L270.824 307.554L270.677 307.603L266.469 305.156L266.567 305.107L284.38 294.83L288.589 292.384L300.432 285.581L304.641 287.979Z" fill="#2FBAE5"/>
<path d="M201.919 362.023L241.363 384.828L280.465 362.267L241.021 339.462L201.919 362.023Z" fill="#2FBAE5"/>
<path d="M269.16 308.484L264.951 306.037L251.787 298.452L217.971 317.978L231.135 325.564L235.344 328.011L249.878 336.379L283.646 316.853L269.16 308.484Z" fill="#8AE3FF"/>
<path d="M251.787 299.137L219.146 317.978L249.879 335.498L282.521 316.853L251.787 299.137Z" fill="#58D8FF"/>
<path d="M249.878 336.428L249.83 379.836L235.246 371.517L231.037 369.119L217.971 361.68V317.978L249.878 336.428Z" fill="#139DC8"/>
<path d="M249.83 336.428L249.781 379.885L283.647 360.506V316.902L249.83 336.428Z" fill="#2FBAE5"/>
<path d="M235.246 328.108V371.517L231.037 369.119V325.661L235.246 328.108Z" fill="#2FBAE5"/>
<path d="M269.16 308.484L257.366 315.336L253.108 317.782L235.344 328.011L235.246 328.108L230.988 325.661L231.086 325.564L248.9 315.336L253.108 312.889L264.951 306.037L269.16 308.484Z" fill="#2FBAE5"/>
<path d="M279.975 336.428L263.581 345.873V331.828L279.975 322.383V336.428Z" fill="#E5E0DB"/>
<path d="M278.41 326.591L265.147 334.226V332.66L278.41 325.025V326.591Z" fill="#BCBCBC"/>
<path d="M278.41 329.43L265.147 337.064V336.379L278.41 328.745V329.43Z" fill="#2FBAE5"/>
<path d="M278.41 331.289L265.147 338.924V338.239L278.41 330.555V331.289Z" fill="#2FBAE5"/>
<path d="M278.41 333.247L265.147 340.93V340.196L278.41 332.562V333.247Z" fill="#2FBAE5"/>
<path d="M278.41 335.107L265.147 342.741V342.056L278.41 334.422V335.107Z" fill="#2FBAE5"/>
<circle cx="255.583" cy="165.332" r="3.76966" fill="#2FBAE5"/>
<circle cx="278.201" cy="38.6713" r="3.76966" fill="#2FBAE5"/>
<path d="M255.96 165.332H278.201V39.8022" stroke="#2FBAE5" stroke-width="2"/>
<circle cx="289.51" cy="438.256" r="3.76966" fill="#2FBAE5"/>
<circle cx="374.704" cy="353.061" r="3.76966" fill="#2FBAE5"/>
<path d="M289.51 438.633H375.458V353.438" stroke="#2FBAE5" stroke-width="2"/>
<path d="M24.8799 4.36731V223.385" stroke="#2FBAE5" stroke-width="2"/>
<circle cx="24.88" cy="223.385" r="3.76966" fill="#2FBAE5"/>
<circle cx="24.88" cy="4.74427" r="3.76966" fill="#2FBAE5"/>
</svg>
