<svg width="100" height="100" viewBox="0 0 100 100" fill="none" xmlns="http://www.w3.org/2000/svg">
<path d="M18.1088 77.8842L20.25 80.0254L13.7005 86.5749L11.5593 84.4337L18.1088 77.8842Z" fill="#3D3D3C"/>
<path d="M12.3145 84.2666C11.6426 84.0987 11.2647 84.4766 11.4327 85.1484C11.6006 85.8203 12.2725 86.4922 12.9444 86.6601C13.6162 86.8281 13.9941 86.4502 13.8262 85.7783C13.7002 85.1484 12.9863 84.4346 12.3145 84.2666Z" fill="#3D3D3C"/>
<path d="M18.8223 77.7588C18.1504 77.5908 17.7725 77.9688 17.9405 78.6406C18.1084 79.3125 18.7803 79.9844 19.4522 80.1523C20.124 80.3203 20.502 79.9424 20.334 79.2705C20.208 78.6406 19.4942 77.9268 18.8223 77.7588Z" fill="#585856"/>
<path d="M14.6651 73.2687L24.5744 83.1779L36.751 74.1924L23.6086 61.05L14.6651 73.2687Z" fill="#9C9C9B"/>
<path d="M18.1075 72.6806C15.0424 71.8828 13.237 73.6883 14.0767 76.7113C14.8745 79.7764 18.0236 82.9255 21.0886 83.7232C24.1537 84.521 25.9592 82.7155 25.1194 79.6925C24.2797 76.6694 21.1726 73.5623 18.1075 72.6806Z" fill="#9C9C9B"/>
<path d="M28.2267 60.2934C24.1958 59.2017 21.8025 61.5951 22.8522 65.6679C23.9439 69.6988 28.1007 73.8556 32.1316 74.9473C36.1625 76.039 38.5558 73.6457 37.5061 69.5728C36.4144 65.542 32.2576 61.3851 28.2267 60.2934Z" fill="#3D3D3C"/>
<path d="M35.6183 52.3146L45.5273 62.2236L36.9619 70.789L27.0529 60.88L35.6183 52.3146Z" fill="#C7C6C5"/>
<path d="M29.1516 68.6903C26.4153 65.954 25.4754 62.4575 27.0523 60.8807C28.6291 59.3038 32.1256 60.2438 34.8619 62.9801C37.5982 65.7164 38.5381 69.2129 36.9613 70.7897C35.3844 72.3666 31.8879 71.4266 29.1516 68.6903Z" fill="#C7C6C5"/>
<path d="M37.717 60.1249C34.9807 57.3886 34.0408 53.8921 35.6177 52.3153C37.1945 50.7384 40.691 51.6783 43.4273 54.4146C46.1636 57.1509 47.1035 60.6474 45.5267 62.2243C43.9498 63.8011 40.4533 62.8612 37.717 60.1249Z" fill="#9C9C9B"/>
<path d="M42.5441 36.8205L61.0195 55.2959L48.9265 67.3889L30.4511 48.9135L42.5441 36.8205Z" fill="#9C9C9B"/>
<path d="M36.9171 47.8212C31.2065 46.3096 27.8473 49.6687 29.359 55.3793C30.8706 61.0899 36.7071 66.9265 42.4177 68.4381C48.1283 69.9497 51.4875 66.5905 49.9759 60.88C48.4642 55.1694 42.6277 49.3328 36.9171 47.8212Z" fill="#9C9C9B"/>
<path d="M49.0099 35.7284C43.2993 34.2168 39.9401 37.576 41.4517 43.2865C42.9634 48.9971 48.7999 54.8337 54.5105 56.3453C60.2211 57.8569 63.5803 54.4978 62.0686 48.7872C60.557 43.0766 54.7204 37.24 49.0099 35.7284Z" fill="#9C9C9B"/>
<path d="M57.3257 14.399L83.4424 40.5156L66.3532 57.6048L40.2365 31.4882L57.3257 14.399Z" fill="#3D3D3C"/>
<path d="M49.39 29.9765C41.3283 27.7931 36.5416 32.5798 38.725 40.6415C40.9084 48.7033 49.1801 56.9749 57.1998 59.1163C65.2616 61.2997 70.0482 56.5131 67.8648 48.4513C65.6814 40.3896 57.4098 32.1179 49.39 29.9765Z" fill="#3D3D3C"/>
<path d="M66.4789 12.8877C58.4171 10.7043 53.6305 15.4909 55.8139 23.5527C57.9973 31.6144 66.269 39.8861 74.2887 42.0275C82.3504 44.2108 87.1371 39.4242 84.9537 31.3625C82.7703 23.3007 74.4986 15.029 66.4789 12.8877Z" fill="#9C9C9B"/>
</svg>
