<svg width="80" height="80" viewBox="0 0 80 80" fill="none" xmlns="http://www.w3.org/2000/svg">
<path d="M52.6061 67.7163L49.906 66.1606V62.3877L52.6061 63.9255V67.7163Z" fill="#2E2A28"/>
<path d="M55.3955 66.107L52.6061 67.7163V63.9255L55.3955 62.3162V66.107Z" fill="#3B3532"/>
<path d="M14.3405 45.6331L11.6583 44.0774V40.2866L14.3405 41.8423V45.6331Z" fill="#2E2A28"/>
<path d="M17.1299 44.0237L14.3405 45.633V41.8422L17.1299 40.2329V44.0237Z" fill="#3B3532"/>
<path d="M76.6205 53.8584L73.9384 52.3028V48.512L76.6205 50.0676V53.8584Z" fill="#2E2A28"/>
<path d="M79.4099 52.2312L76.6205 53.8583V50.0676L79.4099 48.4583V52.2312Z" fill="#3B3532"/>
<path d="M52.6061 66.0709L11.6405 42.4321V30.5591L52.6061 54.2158V66.0709Z" fill="#2E2A28"/>
<path d="M79.4098 50.5859L52.6061 66.0709V54.2157L79.4098 38.7307V50.5859Z" fill="#3B3532"/>
<path d="M55.6279 57.2555L76.4058 45.2573V50.6753L55.6279 62.6735V57.2555Z" fill="#2FBAE5"/>
<path d="M52.6061 57.6846L10.9611 33.6524V28.8066L52.6061 52.8567V57.6846Z" fill="#C5C2B8"/>
<path d="M79.9999 41.8778L52.6061 57.6846V52.8567L79.9999 37.032V41.8778Z" fill="#DEDBD5"/>
<path d="M52.6061 52.857L10.9611 28.8069L38.3549 13L80 37.0322L52.6061 52.857Z" fill="#F0EDEA"/>
<path d="M77.6575 39.5176L54.9307 52.6244V51.4979L62.405 37.7295L77.6575 38.3732V39.5176Z" fill="#3B3532"/>
<path d="M13.3035 27.4658L36.0125 14.3411L77.6754 38.3911L54.9485 51.5159L13.3035 27.4658Z" fill="#453E3A"/>
<path d="M53.84 50.8721L76.549 37.7473L77.0496 38.0334L54.3406 51.1582L53.84 50.8721ZM53.2499 50.5323L75.9589 37.4076L75.4582 37.1215L52.7492 50.2462L53.2499 50.5323ZM52.177 49.9065L74.886 36.7818L74.3853 36.4957L51.6764 49.6204L52.177 49.9065ZM51.0863 49.2806L73.7953 36.1559L73.2946 35.8698L50.5856 48.9945L51.0863 49.2806ZM50.0134 48.6548L72.7224 35.5301L72.2217 35.244L49.5127 48.3687L50.0134 48.6548ZM48.9406 48.029L71.6495 34.9042L71.1489 34.6181L48.4399 47.7429L48.9406 48.029ZM47.8498 47.4031L70.5588 34.2784L70.0581 33.9923L47.3491 47.117L47.8498 47.4031ZM46.7769 46.7952L69.4859 33.6704L68.9853 33.3843L46.2763 46.5091L46.7769 46.7952ZM45.6862 46.1693L68.3952 33.0446L67.8945 32.7585L45.1855 45.8832L45.6862 46.1693ZM44.6133 45.5435L67.3223 32.4188L66.8216 32.1327L44.1127 45.2574L44.6133 45.5435ZM43.5405 44.9177L66.2495 31.7929L65.7488 31.5068L43.0398 44.6316L43.5405 44.9177ZM42.4497 44.2918L65.1587 31.1671L64.658 30.881L41.949 44.0057L42.4497 44.2918ZM41.3769 43.666L64.0858 30.5413L63.5852 30.2552L40.8762 43.3799L41.3769 43.666ZM40.2861 43.0401L62.9951 29.9154L62.4944 29.6293L39.7854 42.754L40.2861 43.0401ZM39.2132 42.4322L61.9222 29.3075L61.4216 29.0214L38.7126 42.1461L39.2132 42.4322ZM38.1404 41.8063L60.8494 28.6816L60.3487 28.3955L37.6397 41.5202L38.1404 41.8063ZM37.0496 41.1805L59.7586 28.0558L59.2579 27.7697L36.549 40.8944L37.0496 41.1805ZM35.9768 40.5547L58.6858 27.4299L58.1851 27.1438L35.4761 40.2686L35.9768 40.5547ZM34.886 39.9288L57.595 26.8041L57.0943 26.518L34.3853 39.6427L34.886 39.9288ZM33.8132 39.303L56.5221 26.1783L56.0215 25.8922L33.3125 39.0169L33.8132 39.303ZM32.7403 38.6771L55.4493 25.5524L54.9486 25.2663L32.2396 38.3911L32.7403 38.6771ZM31.6495 38.0513L54.3585 24.9266L53.8579 24.6405L31.1489 37.7652L31.6495 38.0513ZM30.5767 37.4434L53.2857 24.3186L52.785 24.0325L30.076 37.1573L30.5767 37.4434ZM29.4859 36.8175L52.1949 23.6928L51.6942 23.4067L28.9853 36.5314L29.4859 36.8175ZM28.4131 36.1917L51.122 23.067L50.6214 22.7809L27.9124 35.9056L28.4131 36.1917ZM27.3402 35.5658L50.0492 22.4411L49.5485 22.155L26.8395 35.2797L27.3402 35.5658ZM26.2494 34.94L48.9584 21.8153L48.4578 21.5292L25.7488 34.6539L26.2494 34.94ZM25.1766 34.3142L47.8856 21.1894L47.3849 20.9033L24.6759 34.0281L25.1766 34.3142ZM24.0858 33.6883L46.7948 20.5636L46.2942 20.2775L23.5852 33.4022L24.0858 33.6883ZM23.013 33.0625L45.722 19.9378L45.2213 19.6517L22.5123 32.7764L23.013 33.0625ZM21.9401 32.4545L44.6491 19.3298L44.1484 19.0437L21.4394 32.1684L21.9401 32.4545ZM20.8494 31.8287L43.5583 18.704L43.0577 18.4179L20.3487 31.5426L20.8494 31.8287ZM19.7765 31.2029L42.4855 18.0781L41.9848 17.792L19.2758 30.9168L19.7765 31.2029ZM18.6857 30.577L41.4126 17.4523L40.9119 17.1662L18.203 30.2909L18.6857 30.577ZM17.6129 29.9512L40.3219 16.8265L39.8212 16.5404L17.1122 29.6651L17.6129 29.9512ZM16.54 29.3253L39.249 16.2006L38.7483 15.9145L16.0393 29.0392L16.54 29.3253ZM15.4493 28.6995L38.1583 15.5748L37.6576 15.2887L14.9486 28.4134L15.4493 28.6995ZM14.3764 28.0737L37.0854 14.9489L36.5847 14.6628L13.8757 27.7876L14.3764 28.0737Z" fill="#3B3532"/>
<path d="M52.91 51.1583L53.2319 51.3371L52.3915 51.8199L52.0696 51.641L52.91 51.1583ZM77.9257 36.7103L77.0853 37.1931L77.4071 37.3719L78.2475 36.8891L77.9257 36.7103ZM52.2484 50.7828L51.408 51.2655L51.7299 51.4444L52.5703 50.9616L52.2484 50.7828ZM77.2819 36.3348L76.4415 36.8176L76.7634 36.9964L77.6038 36.5136L77.2819 36.3348ZM51.5868 50.4072L50.7464 50.89L51.0683 51.0689L51.9087 50.5861L51.5868 50.4072ZM76.6203 35.9593L75.7799 36.4421L76.1018 36.6209L76.9422 36.1381L76.6203 35.9593ZM75.9588 35.5838L75.1183 36.0666L75.4402 36.2454L76.2806 35.7626L75.9588 35.5838ZM50.9431 50.0317L50.1027 50.5145L50.4245 50.6933L51.265 50.2106L50.9431 50.0317ZM50.2815 49.6562L49.4411 50.139L49.763 50.3178L50.6034 49.8351L50.2815 49.6562ZM75.315 35.2083L74.4746 35.6911L74.7965 35.8699L75.6369 35.3871L75.315 35.2083ZM74.6534 34.8328L73.813 35.3156L74.1349 35.4944L74.9753 35.0116L74.6534 34.8328ZM49.6378 49.2807L48.7974 49.7635L49.1192 49.9423L49.9596 49.4596L49.6378 49.2807ZM73.9918 34.4394L73.1514 34.9222L73.4733 35.101L74.3137 34.6182L73.9918 34.4394ZM48.9762 48.8874L48.1358 49.3701L48.4576 49.549L49.298 49.0662L48.9762 48.8874ZM48.3146 48.5119L47.4742 48.9946L47.796 49.1735L48.6364 48.6907L48.3146 48.5119ZM73.3481 34.0639L72.5077 34.5467L72.8296 34.7255L73.67 34.2427L73.3481 34.0639ZM72.6865 33.6884L71.8461 34.1712L72.168 34.35L73.0084 33.8672L72.6865 33.6884ZM47.6709 48.1364L46.8304 48.6191L47.1523 48.798L47.9927 48.3152L47.6709 48.1364ZM47.0093 47.7608L46.1688 48.2436L46.4907 48.4225L47.3311 47.9397L47.0093 47.7608ZM72.0428 33.3129L71.2024 33.7957L71.5242 33.9745L72.3646 33.4917L72.0428 33.3129ZM46.3477 47.3853L45.5072 47.8681L45.8291 48.0469L46.6695 47.5642L46.3477 47.3853ZM71.3812 32.9374L70.5408 33.4202L70.8626 33.599L71.703 33.1162L71.3812 32.9374ZM70.7196 32.5619L69.8792 33.0447L70.201 33.2235L71.0415 32.7407L70.7196 32.5619ZM45.7039 47.0098L44.8635 47.4926L45.1854 47.6714L46.0258 47.1887L45.7039 47.0098ZM45.0423 46.6343L44.2019 47.1171L44.5238 47.2959L45.3642 46.8132L45.0423 46.6343ZM70.0759 32.1864L69.2355 32.6692L69.5573 32.848L70.3977 32.3652L70.0759 32.1864ZM44.3986 46.241L43.5582 46.7237L43.8801 46.9026L44.7205 46.4198L44.3986 46.241ZM69.4143 31.793L68.5739 32.2758L68.8957 32.4546L69.7361 31.9718L69.4143 31.793ZM68.7527 31.4175L67.9123 31.9003L68.2341 32.0791L69.0745 31.5963L68.7527 31.4175ZM43.737 45.8655L42.8966 46.3482L43.2185 46.5271L44.0589 46.0443L43.737 45.8655ZM68.1089 31.042L67.2685 31.5248L67.5904 31.7036L68.4308 31.2208L68.1089 31.042ZM43.0754 45.4899L42.235 45.9727L42.5569 46.1516L43.3973 45.6688L43.0754 45.4899ZM42.4317 45.1144L41.5913 45.5972L41.9131 45.776L42.7536 45.2933L42.4317 45.1144ZM67.4473 30.6665L66.6069 31.1493L66.9288 31.3281L67.7692 30.8453L67.4473 30.6665ZM41.7701 44.7389L40.9297 45.2217L41.2515 45.4005L42.092 44.9178L41.7701 44.7389ZM66.8036 30.291L65.9632 30.7738L66.2851 30.9526L67.1255 30.4698L66.8036 30.291ZM66.142 29.9155L65.3016 30.3983L65.6235 30.5771L66.4639 30.0943L66.142 29.9155ZM41.1085 44.3634L40.2681 44.8462L40.5899 45.025L41.4304 44.5423L41.1085 44.3634ZM40.4648 43.9879L39.6244 44.4707L39.9462 44.6495L40.7866 44.1667L40.4648 43.9879ZM65.4804 29.54L64.64 30.0228L64.9619 30.2016L65.8023 29.7188L65.4804 29.54ZM64.8367 29.1466L63.9963 29.6294L64.3182 29.8082L65.1586 29.3254L64.8367 29.1466ZM39.8032 43.5946L38.9628 44.0773L39.2846 44.2562L40.125 43.7734L39.8032 43.5946ZM39.1595 43.2191L38.319 43.7018L38.6409 43.8806L39.4813 43.3979L39.1595 43.2191ZM64.1751 28.7711L63.3347 29.2539L63.6566 29.4327L64.497 28.9499L64.1751 28.7711ZM63.5135 28.3956L62.6731 28.8784L62.995 29.0572L63.8354 28.5744L63.5135 28.3956ZM38.4979 42.8435L37.6574 43.3263L37.9793 43.5051L38.8197 43.0224L38.4979 42.8435ZM62.8698 28.0201L62.0294 28.5029L62.3512 28.6817L63.1916 28.1989L62.8698 28.0201ZM37.8363 42.468L36.9958 42.9508L37.3177 43.1296L38.1581 42.6469L37.8363 42.468ZM37.1925 42.0925L36.3521 42.5753L36.674 42.7541L37.5144 42.2714L37.1925 42.0925ZM62.2082 27.6446L61.3678 28.1274L61.6896 28.3062L62.53 27.8234L62.2082 27.6446ZM61.5645 27.2691L60.7241 27.7519L61.0459 27.9307L61.8863 27.4479L61.5645 27.2691ZM36.5309 41.717L35.6905 42.1998L36.0124 42.3786L36.8528 41.8959L36.5309 41.717ZM60.9029 26.8936L60.0625 27.3764L60.3843 27.5552L61.2247 27.0724L60.9029 26.8936ZM35.8693 41.3415L35.0289 41.8243L35.3508 42.0031L36.1912 41.5203L35.8693 41.3415ZM35.2256 40.9482L34.3852 41.4309L34.7071 41.6098L35.5475 41.127L35.2256 40.9482ZM60.2413 26.5002L59.4009 26.983L59.7227 27.1618L60.5631 26.679L60.2413 26.5002ZM59.5976 26.1247L58.7571 26.6075L59.079 26.7863L59.9194 26.3035L59.5976 26.1247ZM34.564 40.5726L33.7236 41.0554L34.0455 41.2342L34.8859 40.7515L34.564 40.5726ZM58.936 25.7492L58.0955 26.232L58.4174 26.4108L59.2578 25.928L58.936 25.7492ZM33.9024 40.1971L33.062 40.6799L33.3839 40.8587L34.2243 40.376L33.9024 40.1971ZM33.2587 39.8216L32.4183 40.3044L32.7401 40.4832L33.5806 40.0005L33.2587 39.8216ZM58.2743 25.3737L57.4339 25.8565L57.7558 26.0353L58.5962 25.5525L58.2743 25.3737ZM57.6306 24.9982L56.7902 25.481L57.1121 25.6598L57.9525 25.177L57.6306 24.9982ZM32.5971 39.4461L31.7567 39.9289L32.0785 40.1077L32.919 39.625L32.5971 39.4461ZM31.9534 39.0706L31.113 39.5534L31.4348 39.7322L32.2752 39.2494L31.9534 39.0706ZM56.969 24.6227L56.1286 25.1055L56.4505 25.2843L57.2909 24.8015L56.969 24.6227ZM31.2918 38.6951L30.4514 39.1779L30.7732 39.3567L31.6136 38.8739L31.2918 38.6951ZM56.3074 24.2472L55.467 24.73L55.7889 24.9088L56.6293 24.426L56.3074 24.2472ZM30.6302 38.3018L29.7898 38.7845L30.1116 38.9633L30.952 38.4806L30.6302 38.3018ZM55.6637 23.8538L54.8233 24.3366L55.1452 24.5154L55.9856 24.0326L55.6637 23.8538ZM29.9865 37.9262L29.146 38.409L29.4679 38.5878L30.3083 38.1051L29.9865 37.9262ZM55.0021 23.4783L54.1617 23.9611L54.4836 24.1399L55.324 23.6571L55.0021 23.4783ZM54.3584 23.1028L53.518 23.5856L53.8398 23.7644L54.6802 23.2816L54.3584 23.1028ZM29.3249 37.5507L28.4844 38.0335L28.8063 38.2123L29.6467 37.7296L29.3249 37.5507ZM28.6633 37.1752L27.8228 37.658L28.1447 37.8368L28.9851 37.3541L28.6633 37.1752ZM53.1604 23.4068L54.0008 22.924L53.6789 22.7452L52.8385 23.228L53.1604 23.4068ZM52.5166 23.0134L53.357 22.5306L53.0352 22.3518L52.1948 22.8346L52.5166 23.0134ZM28.0195 36.7997L27.1791 37.2825L27.501 37.4613L28.3414 36.9785L28.0195 36.7997ZM51.855 22.6379L52.6954 22.1551L52.3736 21.9763L51.5332 22.4591L51.855 22.6379ZM27.3579 36.4242L26.5175 36.907L26.8394 37.0858L27.6798 36.603L27.3579 36.4242ZM26.7142 36.0308L25.8738 36.5136L26.1957 36.6925L27.0361 36.2097L26.7142 36.0308ZM51.1934 22.2624L52.0338 21.7796L51.712 21.6008L50.8716 22.0836L51.1934 22.2624ZM50.5497 21.8869L51.3901 21.4041L51.0683 21.2253L50.2279 21.7081L50.5497 21.8869ZM26.0526 35.6553L25.2122 36.1381L25.5341 36.3169L26.3745 35.8342L26.0526 35.6553ZM25.391 35.2798L24.5506 35.7626L24.8725 35.9414L25.7129 35.4587L25.391 35.2798ZM49.8881 21.5114L50.7285 21.0286L50.4067 20.8498L49.5663 21.3326L49.8881 21.5114ZM49.2265 21.1359L50.0669 20.6531L49.7451 20.4743L48.9047 20.9571L49.2265 21.1359ZM24.7473 34.9043L23.9069 35.3871L24.2287 35.5659L25.0692 35.0832L24.7473 34.9043ZM48.5828 20.7604L49.4232 20.2776L49.1013 20.0988L48.2609 20.5816L48.5828 20.7604ZM24.0857 34.5288L23.2453 35.0116L23.5671 35.1904L24.4076 34.7077L24.0857 34.5288ZM47.9212 20.367L48.7616 19.8842L48.4397 19.7054L47.5993 20.1882L47.9212 20.367ZM23.4241 34.1533L22.5837 34.6361L22.9055 34.8149L23.746 34.3321L23.4241 34.1533ZM47.2775 19.9915L48.1179 19.5087L47.796 19.3299L46.9556 19.8127L47.2775 19.9915ZM22.7804 33.7778L21.9221 34.2606L22.2439 34.4394L23.0844 33.9566L22.7804 33.7778ZM46.6159 19.616L47.4563 19.1332L47.1344 18.9544L46.294 19.4372L46.6159 19.616ZM22.1188 33.3845L21.2784 33.8672L21.6002 34.0461L22.4406 33.5633L22.1188 33.3845ZM45.9543 19.2405L46.7947 18.7577L46.4728 18.5789L45.6324 19.0617L45.9543 19.2405ZM21.4751 33.0089L20.6346 33.4917L20.9565 33.6705L21.7969 33.1878L21.4751 33.0089ZM45.3106 18.865L46.151 18.3822L45.8291 18.2034L44.9887 18.6862L45.3106 18.865ZM20.8135 32.6334L19.973 33.1162L20.2949 33.295L21.1353 32.8123L20.8135 32.6334ZM44.649 18.4895L45.4894 18.0067L45.1675 17.8279L44.3271 18.3107L44.649 18.4895ZM20.1519 32.2579L19.3114 32.7407L19.6333 32.9195L20.4737 32.4368L20.1519 32.2579ZM43.9874 18.0961L44.8278 17.6133L44.5059 17.4345L43.6655 17.9173L43.9874 18.0961ZM19.5081 31.8824L18.6677 32.3652L18.9896 32.544L19.83 32.0612L19.5081 31.8824ZM43.3436 17.7206L44.184 17.2378L43.8622 17.059L43.0218 17.5418L43.3436 17.7206ZM18.8465 31.5069L18.0061 31.9897L18.328 32.1685L19.1684 31.6857L18.8465 31.5069ZM18.1849 31.1314L17.3445 31.6142L17.6664 31.793L18.5068 31.3102L18.1849 31.1314ZM42.682 17.3451L43.5224 16.8623L43.2006 16.6835L42.3602 17.1663L42.682 17.3451ZM17.5412 30.738L16.7008 31.2208L17.0227 31.3996L17.8631 30.9169L17.5412 30.738ZM42.0204 16.9696L42.8608 16.4868L42.539 16.308L41.6986 16.7908L42.0204 16.9696ZM41.3767 16.5941L42.2171 16.1113L41.8953 15.9325L41.0549 16.4153L41.3767 16.5941ZM16.8796 30.3625L16.0392 30.8453L16.3611 31.0241L17.2015 30.5414L16.8796 30.3625ZM40.7151 16.2186L41.5555 15.7358L41.2337 15.557L40.3933 16.0398L40.7151 16.2186ZM16.2359 29.987L15.3955 30.4698L15.7173 30.6486L16.5578 30.1659L16.2359 29.987ZM15.5743 29.6115L14.7339 30.0943L15.0557 30.2731L15.8962 29.7903L15.5743 29.6115ZM40.0714 15.8431L40.9118 15.3603L40.5899 15.1815L39.7495 15.6643L40.0714 15.8431ZM14.9127 29.236L14.0723 29.7188L14.3941 29.8976L15.2346 29.4148L14.9127 29.236ZM39.4098 15.4497L40.2502 14.9669L39.9283 14.7881L39.0879 15.2709L39.4098 15.4497ZM14.269 28.8605L13.4286 29.3433L13.7504 29.5221L14.5908 29.0393L14.269 28.8605ZM38.7482 15.0742L39.5886 14.5914L39.2667 14.4126L38.4263 14.8954L38.7482 15.0742ZM38.9449 14.2159L38.623 14.0371L37.7826 14.5199L38.1045 14.6987L38.9449 14.2159ZM13.6074 28.485L12.767 28.9678L13.0888 29.1466L13.9292 28.6638L13.6074 28.485Z" fill="#C5C2B8"/>
<path d="M33.7594 20.1166C32.8117 19.9199 31.9176 20.0093 31.6136 20.3848C31.5421 20.4384 31.4706 20.4921 31.4169 20.5457C31.3454 20.5993 31.2739 20.653 31.2203 20.7066C30.7375 20.9927 30.7375 21.6901 30.9699 22.7451C31.1487 23.5676 30.8448 24.6047 30.8448 25.0517C31.113 24.9087 31.3812 24.7656 31.6494 24.6047C31.6315 24.1756 31.9534 23.1027 31.7746 22.2981C31.703 21.9762 31.6315 21.6543 31.6136 21.3325C31.5958 21.1715 31.5779 20.957 31.703 20.8139C31.8461 20.653 32.7223 20.7066 32.9726 20.7603L33.1514 20.5993C33.0084 20.5636 32.8653 20.5457 32.7223 20.5278C32.8474 20.5457 33.0084 20.5636 33.1514 20.5993L33.3302 20.4384C33.1872 20.4027 33.0441 20.3848 32.919 20.3669C33.0441 20.3848 33.1872 20.4027 33.3481 20.4384L33.5269 20.2775C33.3839 20.2417 33.2408 20.2238 33.1157 20.206C33.2408 20.2238 33.3839 20.2417 33.5448 20.2596L33.7594 20.1166Z" fill="#C7C6C5"/>
<path d="M33.7775 25.8564L37.6398 28.0916V28.3598L33.7775 26.1247V25.8564Z" fill="#929292"/>
<path d="M39.7677 27.108L37.6399 28.3597V28.0915L39.7677 26.8577V27.108Z" fill="#AFAFAF"/>
<path d="M37.6398 28.0915L33.7775 25.8564L35.9232 24.6226L39.7676 26.8577L37.6398 28.0915Z" fill="#DDDDDD"/>
<path d="M36.9246 22.2618V26.7142C36.9246 26.7857 36.9782 26.8572 37.0676 26.9109C37.2643 27.0181 37.5862 27.0181 37.7829 26.9109C37.8901 26.8572 37.9259 26.7857 37.9259 26.6963V22.2439L36.9246 22.2618Z" fill="#929292"/>
<path d="M37.7828 22.4588C37.5861 22.5661 37.2643 22.5661 37.0676 22.4588C36.8709 22.3515 36.8709 22.1548 37.0676 22.0475C37.2643 21.9402 37.5861 21.9402 37.7828 22.0475C37.9795 22.1727 37.9795 22.3515 37.7828 22.4588Z" fill="#F0EDEA"/>
<path d="M50.7465 21.7616L53.0889 20.3848V21.5113L50.7465 22.8702V21.7616Z" fill="#2FBAE5"/>
<path d="M48.5471 18.0782L50.8895 16.7192L53.0889 20.3849L50.7465 21.7617L48.5471 18.0782Z" fill="#58D8FF"/>
<path d="M48.5471 16.3612L50.8895 14.9844V16.7188L48.5471 18.0778V16.3612Z" fill="#2FBAE5"/>
<path d="M45.3644 14.5197L47.7068 13.1428L50.8896 14.9846L48.5472 16.3614L45.3644 14.5197Z" fill="#58D8FF"/>
<path d="M48.5471 16.3613V18.0779L50.7465 21.7614V22.87L45.3464 19.7587L45.3643 14.5195L48.5471 16.3613Z" fill="#139DC8"/>
<path d="M49.3339 17.6312L25.2838 31.5069V29.7725L49.3339 15.8967V17.6312Z" fill="#2FBAE5"/>
<path d="M25.8917 30.1303L48.7259 16.9341V17.2738L25.8917 30.4701V30.1303Z" fill="#453E3A"/>
<path d="M25.2838 29.7724L22.101 27.9485L46.151 14.0549L49.3339 15.8967L25.2838 29.7724Z" fill="#58D8FF"/>
<path d="M25.6951 36.2274L28.0375 34.8684V35.977L25.6951 37.336V36.2274Z" fill="#2FBAE5"/>
<path d="M23.4779 32.5438L25.8382 31.1848L28.0376 34.8683L25.6952 36.2273L23.4779 32.5438Z" fill="#58D8FF"/>
<path d="M23.4958 30.8273L25.8382 29.4504V31.1849L23.4779 32.5439L23.4958 30.8273Z" fill="#2FBAE5"/>
<path d="M20.313 28.9854L22.6554 27.6265L25.8382 29.4503L23.4958 30.8272L20.313 28.9854Z" fill="#58D8FF"/>
<path d="M23.4958 30.8271L23.4779 32.5437L25.6951 36.2272V37.3358L20.295 34.2245L20.3129 28.9854L23.4958 30.8271Z" fill="#139DC8"/>
<path d="M36.3343 23.4244L33.1336 21.5826L32.5256 21.9223V20.2952L38.7125 21.1177L36.3343 23.4244Z" fill="#139DC8"/>
<path d="M38.8555 21.9579L36.3342 23.4241V22.4764L38.8555 21.0281V21.9579Z" fill="#2FBAE5"/>
<path d="M36.3343 22.4766L32.5256 20.2951L35.0647 18.8289L38.8555 21.0282L36.3343 22.4766Z" fill="#58D8FF"/>
<path d="M37.3894 26.6074L35.5834 25.5703L36.3165 25.1412V22.8167L39.8748 23.2279L37.3894 26.6074Z" fill="#139DC8"/>
<path d="M39.9284 25.1409L37.3893 26.6072V24.676L39.9284 23.1919V25.1409Z" fill="#2FBAE5"/>
<path d="M38.8563 21.3509L36.3176 22.8186L37.3916 24.6762L39.9302 23.2084L38.8563 21.3509Z" fill="#58D8FF"/>
<path d="M35.4581 20.5994V21.1C35.4581 21.261 35.5654 21.404 35.7621 21.5292C36.1734 21.7616 36.835 21.7616 37.2462 21.5292C37.4608 21.404 37.5502 21.2431 37.5502 21.1V20.5994H35.4581Z" fill="#139DC8"/>
<path d="M37.2462 21.0285C36.8349 21.2609 36.1733 21.2609 35.7621 21.0285C35.3508 20.796 35.3508 20.4026 35.7621 20.1702C36.1733 19.9377 36.8349 19.9377 37.2462 20.1702C37.6575 20.4026 37.6575 20.7781 37.2462 21.0285Z" fill="#58D8FF"/>
<path d="M21.4215 33.6347C21.3678 33.5989 21.3142 33.5453 21.2784 33.4738C21.2426 33.4022 21.2426 33.3486 21.2784 33.3128L22.0831 32.383C22.1188 32.3473 22.1546 32.3473 22.2261 32.383C22.2798 32.4188 22.3334 32.4724 22.3692 32.544L23.1738 34.4036C23.2096 34.4751 23.2096 34.5288 23.1738 34.5645C23.138 34.6003 23.1023 34.6003 23.0308 34.5645L21.4215 33.6347Z" fill="#3B3532"/>
<path d="M21.3679 33.4202L22.1725 32.4904C22.1904 32.4725 22.2261 32.4904 22.244 32.5262L23.0487 34.3858C23.0666 34.4216 23.0487 34.4573 23.0129 34.4216L21.4036 33.4918C21.3679 33.4918 21.35 33.4381 21.3679 33.4202Z" fill="#FFCB0A"/>
<path d="M22.1367 33.5096C22.1188 33.4917 22.1009 33.4738 22.1009 33.456L22.0651 32.8838C22.0473 32.6871 22.3334 32.8659 22.3155 33.0268L22.2797 33.5454C22.2797 33.5632 22.2618 33.5632 22.2439 33.5632L22.1367 33.5096ZM22.1903 33.6526C22.1367 33.6169 22.083 33.6348 22.083 33.7063C22.083 33.7778 22.1367 33.8493 22.1903 33.8672C22.2439 33.903 22.2976 33.8851 22.2976 33.8136C22.2976 33.742 22.2439 33.6884 22.1903 33.6526Z" fill="#3B3532"/>
<path d="M49.8167 55.3246V52.0166L51.7478 53.1252V56.4332L49.8167 55.3246Z" fill="#3B3532"/>
<path d="M51.6764 56.3081L49.9061 55.2889V52.1418L51.6764 53.1611V56.3081Z" fill="#FFCB0A"/>
<path d="M51.1219 53.3218L50.4425 52.9285V52.8569L51.1219 53.2503V53.3218ZM51.408 53.8762L50.1564 53.143V53.2146L51.408 53.9477V53.8762ZM51.408 54.1801L50.1564 53.447V53.3755L51.408 54.1086V54.1801ZM51.408 54.4126L50.1564 53.6795V53.6079L51.408 54.3411V54.4126ZM51.408 54.645L50.1564 53.9119V53.8404L51.408 54.5735V54.645ZM51.408 54.8596L50.1564 54.1265V54.055L51.408 54.7881V54.8596ZM51.408 55.0921L50.1564 54.3589V54.2874L51.408 55.0205V55.0921ZM51.408 55.3245L50.1564 54.5914V54.5199L51.408 55.253V55.3245ZM51.408 55.5391L50.1564 54.806V54.7344L51.408 55.4676V55.5391ZM51.408 55.7715L50.1564 55.0384V54.9669L51.408 55.7V55.7715Z" fill="#3B3532"/>
<path d="M39.0702 25.1054C39.1596 25.0517 39.2311 24.9445 39.2311 24.8551V24.5511C39.2311 24.4617 39.1596 24.4259 39.0702 24.4796L38.2298 24.9623C38.1404 25.016 38.0688 25.1233 38.0688 25.2127V25.5167C38.0688 25.6061 38.1404 25.6418 38.2298 25.5882L39.0702 25.1054Z" fill="#3B3532"/>
<path d="M38.2298 25.5525L39.0702 25.0698C39.1417 25.034 39.1954 24.9446 39.1954 24.8731V24.5691C39.1954 24.4976 39.1417 24.4797 39.0702 24.5154L38.2298 24.9982C38.1583 25.034 38.1046 25.1234 38.1046 25.1949V25.4989C38.1046 25.5704 38.1583 25.5883 38.2298 25.5525Z" fill="#139DC8"/>
<path d="M38.2655 25.1769L39.0523 24.712V24.6763L38.2655 25.1412V25.1769Z" fill="#3B3532"/>
<path d="M38.2655 25.2841L39.0523 24.8192V24.7834L38.2655 25.2305V25.2841Z" fill="#3B3532"/>
<path d="M38.2655 25.3737L39.0523 24.9266V24.8909L38.2655 25.3379V25.3737Z" fill="#3B3532"/>
<path d="M6.66959 50.0677L4.02319 48.5299V45.2935L6.66959 46.8133V50.0677Z" fill="#2E2A28"/>
<path d="M14.7162 45.4184L6.66968 50.0675V46.8131L14.3407 42.3965V43.9879L14.7162 45.4184Z" fill="#3B3532"/>
<path d="M6.66959 46.8133L4.02319 45.2934L11.6942 40.8589L14.3406 42.3967L6.66959 46.8133Z" fill="#453E3A"/>
<path d="M5.63249 46.2233L4.02319 45.2935V36.8894L5.63249 37.8192V46.2233Z" fill="#2E2A28"/>
<path d="M6.63391 45.6331L5.63257 46.2232V37.8191L6.63391 37.229V45.6331Z" fill="#3B3532"/>
<path d="M5.63249 37.819L4.02319 36.8891L5.02453 36.2991L6.63383 37.2289L5.63249 37.819Z" fill="#453E3A"/>
<path d="M5.99021 31.7037C5.04251 31.507 4.14845 31.5964 3.84447 31.9719C3.77295 32.0256 3.70143 32.0792 3.64778 32.1329C3.57626 32.1865 3.50473 32.2401 3.45109 32.2938C2.9683 32.5799 2.9683 33.2772 3.20076 34.3322C3.37957 35.1548 3.07559 36.1919 3.07559 36.6389C3.3438 36.4958 3.61202 36.3528 3.88024 36.1919C3.86236 35.7627 4.18422 34.6899 4.0054 33.8852C3.93388 33.5633 3.86236 33.2415 3.84447 32.9196C3.82659 32.7587 3.80871 32.5441 3.93388 32.4011C4.07693 32.2401 4.9531 32.2938 5.20344 32.3474L5.38225 32.1865C5.2392 32.1507 5.09615 32.1329 4.9531 32.115C5.07827 32.1329 5.2392 32.1507 5.38225 32.1865L5.56106 32.0256C5.41801 31.9898 5.27496 31.9719 5.14979 31.9541C5.27496 31.9719 5.41801 31.9898 5.57894 32.0256L5.75775 31.8646C5.6147 31.8289 5.47165 31.811 5.34649 31.7931C5.47165 31.811 5.6147 31.8289 5.77563 31.8468L5.99021 31.7037Z" fill="#C7C6C5"/>
<path d="M1.69873 34.1356L9.13726 29.8083L11.4439 31.1494L3.98751 35.4588L1.69873 34.1356Z" fill="#F0EDEA"/>
<path d="M6.31201 38.5344L13.7684 34.2251V34.8867L6.31201 39.196V38.5344Z" fill="#DEDBD5"/>
<path d="M3.98755 35.4588L11.444 31.1494L13.7685 34.225L6.31209 38.5343L3.98755 35.4588Z" fill="#F4F2EE"/>
<path d="M3.98751 35.4587L6.31205 38.5342V39.1958L1.69873 36.5316V34.1355L3.98751 35.4587Z" fill="#C5C2B8"/>
<path d="M11.0684 31.7931L4.91726 35.2978C4.79209 35.3694 4.77421 35.4945 4.86362 35.6376L6.41927 37.7118C6.4908 37.8191 6.72325 37.8727 6.81266 37.8191L12.9459 34.2607C13.071 34.1892 13.0889 34.064 12.9995 33.921L11.4617 31.8825C11.3902 31.7931 11.1578 31.7395 11.0684 31.7931Z" fill="#47413E"/>
<path d="M12.7492 34.0282L9.99548 35.5838L8.43982 33.5275L11.1935 31.9897L12.7492 34.0282Z" fill="#BCBCBC"/>
<path opacity="0.7" d="M11.122 32.1328L12.624 34.0997L12.7492 34.0282L11.1935 31.9897L8.43982 33.5275L8.49346 33.6169L11.122 32.1328Z" fill="#747474"/>
<path d="M6.31209 35.5659L6.27632 35.0473L6.81276 35.2798L6.31209 35.5659ZM7.11673 36.6209L7.65317 36.8533L7.6174 36.3348L7.11673 36.6209ZM6.18692 36.0845L5.9187 36.5494L6.50878 36.5315L6.18692 36.0845ZM7.72469 35.8341L7.99291 35.3692L7.40283 35.405L7.72469 35.8341ZM6.75911 36.0666C6.83064 36.1739 6.99157 36.1917 7.09885 36.1381C7.20614 36.0666 7.2419 35.9414 7.17038 35.8341C7.09885 35.7268 6.93792 35.7089 6.83064 35.7626C6.70547 35.8341 6.68759 35.9772 6.75911 36.0666ZM9.10154 35.3692C9.1373 35.4229 9.20882 35.4407 9.28035 35.405C9.33399 35.3692 9.35187 35.2977 9.31611 35.2619C9.28035 35.2083 9.20882 35.1904 9.1373 35.2262C9.08365 35.244 9.06577 35.3156 9.10154 35.3692ZM8.61875 35.6553C8.65451 35.709 8.72603 35.7268 8.79756 35.6911C8.8512 35.6553 8.86908 35.5838 8.83332 35.548C8.79756 35.4944 8.72603 35.4765 8.65451 35.5123C8.58298 35.548 8.58298 35.6017 8.61875 35.6553ZM9.03001 35.8341L8.8512 35.7447L8.86908 35.9235L9.03001 35.8341ZM9.5128 35.5659L9.33399 35.4944L9.35187 35.6732L9.5128 35.5659ZM8.65451 34.7791C8.69027 34.8328 8.7618 34.8507 8.83332 34.8149C8.88696 34.7791 8.90484 34.7076 8.86908 34.6718C8.83332 34.6182 8.76179 34.6003 8.69027 34.6361C8.63663 34.6718 8.61875 34.7434 8.65451 34.7791ZM8.17172 35.0652C8.20748 35.1189 8.27901 35.1368 8.35053 35.101C8.40417 35.0652 8.42205 34.9937 8.38629 34.9579C8.35053 34.9043 8.27901 34.8864 8.20748 34.9222C8.15384 34.9401 8.13596 35.0116 8.17172 35.0652ZM8.43993 35.3513L8.52934 35.1904L8.33265 35.2083L8.43993 35.3513ZM8.92273 35.0831L9.01213 34.9222L8.81544 34.9401L8.92273 35.0831ZM8.20748 34.1712C8.24324 34.2248 8.31477 34.2427 8.38629 34.2069C8.43994 34.1712 8.45782 34.0997 8.42205 34.0639C8.38629 34.0102 8.31477 33.9924 8.24324 34.0281C8.17172 34.0639 8.15384 34.1175 8.20748 34.1712ZM7.70681 34.4573C7.74257 34.5109 7.8141 34.5288 7.88562 34.493C7.93926 34.4573 7.95715 34.3857 7.92138 34.35C7.88562 34.2963 7.8141 34.2785 7.74257 34.3142C7.68893 34.3321 7.67105 34.4036 7.70681 34.4573ZM8.11808 34.6361L7.93927 34.5467L7.95715 34.7255L8.11808 34.6361ZM8.61875 34.3679L8.43993 34.2785L8.45782 34.4573L8.61875 34.3679Z" fill="#5E5850"/>
<path d="M9.47704 26.0529C9.2267 26.1959 8.81544 26.1959 8.5651 26.0529C8.43993 25.9814 8.36841 25.8741 8.36841 25.7847V31.0596C8.36841 31.149 8.43993 31.2563 8.5651 31.3278C8.81544 31.4709 9.2267 31.4709 9.47704 31.3278C9.6022 31.2563 9.67373 31.1669 9.67373 31.0596V25.7847C9.65585 25.892 9.6022 25.9814 9.47704 26.0529Z" fill="#C5C2B8"/>
<path d="M9.47701 25.5165C9.22667 25.3734 8.81541 25.3734 8.56507 25.5165C8.31474 25.6595 8.31474 25.9099 8.56507 26.0529C8.81541 26.1959 9.22667 26.1959 9.47701 26.0529C9.72734 25.9099 9.72734 25.6595 9.47701 25.5165Z" fill="#F0EDEA"/>
<path d="M9.60206 25.4272C9.26231 25.6239 8.72588 25.606 8.40402 25.4093C8.24309 25.3199 8.15369 25.1947 8.17157 25.0696V26.0173C8.17157 26.1424 8.24309 26.2676 8.40402 26.357C8.72588 26.5537 9.2802 26.5537 9.60206 26.3749C9.78087 26.2855 9.85239 26.1424 9.85239 26.0173V25.0696C9.87027 25.1947 9.78087 25.3378 9.60206 25.4272Z" fill="#C5C2B8"/>
<path d="M9.61991 24.7299C9.29805 24.5332 8.74374 24.5332 8.42188 24.712C8.08214 24.9087 8.08214 25.2127 8.404 25.4094C8.72586 25.6061 9.28017 25.6061 9.60203 25.4273C9.94177 25.2306 9.95965 24.9266 9.61991 24.7299Z" fill="#C2C2C2"/>
<path d="M9.61991 24.5689C9.42322 24.4616 9.22653 24.408 9.01196 24.408C8.70798 24.408 8.49341 24.5152 8.42188 24.551C8.08214 24.7477 8.08214 25.0517 8.404 25.2484C8.72586 25.4451 9.28017 25.4451 9.60203 25.2663C9.94177 25.0874 9.95965 24.7656 9.61991 24.5689Z" fill="#F0EDEA"/>
<path d="M9.17291 24.6225C9.08351 24.5689 8.94046 24.5689 8.86893 24.6225C8.77953 24.6762 8.77953 24.7477 8.86893 24.8013C8.95834 24.855 9.10139 24.855 9.17291 24.8013C9.26232 24.7477 9.26232 24.6583 9.17291 24.6225Z" fill="#E4E4E4"/>
<path d="M9.61988 25.2663C9.28014 25.463 8.7437 25.4451 8.42184 25.2484C8.26091 25.159 8.17151 25.0339 8.18939 24.9087V24.9623C8.18939 25.0875 8.26091 25.2127 8.42184 25.3021C8.7437 25.4988 9.29802 25.4988 9.61988 25.32C9.79869 25.2306 9.87021 25.0875 9.87021 24.9623V24.9087C9.87021 25.0517 9.78081 25.1769 9.61988 25.2663Z" fill="#C5C2B8"/>
<path d="M8.18942 25.5525C8.24306 25.5167 8.31459 25.5346 8.40399 25.5703C8.56492 25.6597 8.69009 25.8922 8.69009 26.071C8.69009 26.1604 8.65433 26.2319 8.60068 26.2677L5.34632 28.1452C5.39997 28.1094 5.43573 28.0558 5.43573 27.9485C5.43573 27.7697 5.31056 27.5373 5.14963 27.4478C5.06023 27.3942 4.9887 27.3942 4.93506 27.43L8.18942 25.5525Z" fill="#F0EDEA"/>
<path d="M5.14968 27.4479C5.31061 27.5373 5.43578 27.7697 5.43578 27.9485C5.43578 28.1274 5.31061 28.2168 5.1318 28.1095C4.97087 28.0201 4.8457 27.7876 4.8457 27.5909C4.8457 27.4121 4.98875 27.3406 5.14968 27.4479Z" fill="#C5C2B8"/>
<path d="M0.214573 33.3127L0 33.1875V26.6431L0.214573 26.7682V33.3127Z" fill="#C5C2B8"/>
<path d="M7.97499 28.8244L0.2146 33.3126V26.7681L7.97499 22.2979V28.8244Z" fill="#DEDBD5"/>
<path d="M0.447021 26.9113L7.74251 22.6914V28.6995L0.447021 32.9194V26.9113Z" fill="#3B3532"/>
<path d="M0.214573 26.7683L0 26.6431L7.76039 22.1729L7.97497 22.298L0.214573 26.7683Z" fill="#F0EDEA"/>
</svg>
