<svg width="80" height="80" viewBox="0 0 80 80" fill="none" xmlns="http://www.w3.org/2000/svg">
<path d="M54.5689 17.2071V38.6279L45.0654 27.6609V8.38794L51.6798 12.2083L54.5689 17.2071Z" fill="#B5BCC3"/>
<path d="M44.5713 23.0043V44.425L35.0679 38.951V14.1851L41.6823 18.0054L44.5713 23.0043Z" fill="#F1F2F3"/>
<path d="M54.512 17.2452V38.666L45.0085 27.699V8.42603L51.6229 12.2464L54.512 17.2452Z" fill="#B5BCC3"/>
<path d="M35.0679 14.1851L45.0085 8.42603L51.6229 12.2464L41.6823 18.0055L35.0679 14.1851Z" fill="#E2E2E8"/>
<path d="M41.6824 18.0054L44.5714 23.0042L54.512 17.2452L51.623 12.2463L41.6824 18.0054Z" fill="#DEDEE0"/>
<path d="M43.4309 18.4807L51.1477 13.9951L52.7443 16.7701L45.0275 21.2558L43.4309 18.4807Z" fill="#34373A"/>
<path d="M43.5259 18.5187L51.1286 14.0901L52.6492 16.7511L45.0654 21.1607L43.5259 18.5187Z" fill="#34373A"/>
<path d="M49.532 15.0214L51.1286 14.0901L52.6492 16.7511L45.0654 21.1607L49.532 15.0214Z" fill="#434446"/>
<path d="M44.5713 44.4252L54.5119 38.6661V17.2454L44.5713 23.0044V44.4252Z" fill="#CAD0D8"/>
<path d="M48.9619 11.2201L39.9336 10.3648L39.8196 9.60448L48.7908 4.45361L48.9619 4.54865V11.2201Z" fill="#E2E2E8"/>
<path d="M40.0288 16.3709L48.962 11.22V4.54858L40.0288 9.69945V16.3709Z" fill="#F1F2F3"/>
<path d="M40.5989 15.4966L48.5628 10.8969V5.47998L40.6179 10.0796L40.5989 15.4966Z" fill="#4D4E57"/>
<path d="M40.5989 15.3446L48.3537 10.859V5.63208L40.5989 10.0987V15.3446Z" fill="#E2E2E8"/>
<path d="M39.8196 9.60449L40.0287 9.69953V16.3709L39.8386 16.2759L39.8196 9.60449Z" fill="#B5BCC3"/>
<path opacity="0.3" d="M46.4529 6.71547L41.5872 14.7744L48.3536 10.859V5.63208L46.4529 6.71547Z" fill="#515B5B"/>
<path d="M49.4561 22.51L50.0643 21.4457L49.9503 21.3696L49.342 22.434L49.4561 22.51Z" fill="#262523"/>
<path d="M50.0833 21.6548C50.0833 21.9399 49.8932 22.263 49.6461 22.415C49.3991 22.5481 49.209 22.434 49.209 22.1679C49.209 21.8828 49.3991 21.5597 49.6461 21.4077C49.8932 21.2556 50.0833 21.3696 50.0833 21.6548Z" fill="#262523"/>
<path d="M50.1785 21.7118C50.1785 21.9969 49.9884 22.32 49.7414 22.472C49.4943 22.6051 49.3042 22.4911 49.3042 22.225C49.3042 21.9399 49.4943 21.5977 49.7414 21.4647C49.9884 21.3316 50.1785 21.4457 50.1785 21.7118Z" fill="#363843"/>
<path d="M50.1403 21.7877C50.1403 22.0158 49.9883 22.2819 49.7982 22.396C49.6081 22.51 49.4561 22.415 49.4561 22.1869C49.4561 21.9588 49.6081 21.6927 49.7982 21.5787C49.9883 21.4836 50.1403 21.5787 50.1403 21.7877Z" fill="#262523"/>
<path d="M49.5894 22.4149L50.0645 21.5786L50.6157 21.8827L50.1406 22.719L49.5894 22.4149Z" fill="#139DC8"/>
<path d="M50.1593 21.8068C50.1593 21.9019 50.1213 22.0349 50.0643 22.1299C50.0073 22.244 49.9123 22.32 49.8362 22.377C49.7982 22.396 49.7412 22.415 49.7032 22.415L49.6842 22.4531L49.5891 22.396C49.5131 22.358 49.4751 22.263 49.4751 22.168C49.4751 22.0729 49.5131 21.9399 49.5701 21.8448C49.6272 21.7308 49.7222 21.6548 49.7982 21.5977C49.8933 21.5407 49.9883 21.5407 50.0643 21.5787L50.1593 21.6358L50.1403 21.6548C50.1593 21.6928 50.1593 21.7498 50.1593 21.8068Z" fill="#139DC8"/>
<path d="M50.6157 21.7118L50.8818 21.8639L50.7297 22.1109C50.6917 22.339 50.5587 22.5861 50.3686 22.7192L50.2165 22.9663L49.9504 22.8142C49.8744 22.7762 49.8174 22.6621 49.8174 22.5101C49.8174 22.225 50.0265 21.8639 50.2735 21.7308C50.4256 21.6738 50.5396 21.6738 50.6157 21.7118Z" fill="#2FBAE5"/>
<path d="M51.0337 22.1678C51.0337 21.8827 50.8246 21.7687 50.5775 21.9018C50.3304 22.0538 50.1213 22.3959 50.1213 22.681C50.1213 22.9661 50.3304 23.0802 50.5775 22.9471C50.8246 22.8141 51.0337 22.4529 51.0337 22.1678Z" fill="#D6D2D4"/>
<path d="M51.0337 22.1678C51.0337 21.8827 50.8246 21.7687 50.5775 21.9018C50.3304 22.0538 50.1213 22.3959 50.1213 22.681C50.1213 22.9661 50.3304 23.0802 50.5775 22.9471C50.8246 22.8141 51.0337 22.4529 51.0337 22.1678Z" fill="#58D8FF"/>
<path d="M46.0919 19.5452C46.1679 19.7163 46.1299 19.9253 45.9778 20.0014C45.8258 20.0964 45.6357 20.0204 45.5597 19.8493C45.4837 19.6783 45.5407 19.4692 45.6737 19.3931C45.8068 19.3171 45.9968 19.3741 46.0919 19.5452Z" fill="#262523"/>
<path d="M46.1869 19.5831C46.2629 19.7542 46.2249 19.9632 46.0729 20.0393C45.9208 20.1343 45.7307 20.0583 45.6547 19.8872C45.5787 19.7162 45.6167 19.5071 45.7688 19.431C45.9018 19.336 46.0919 19.412 46.1869 19.5831Z" fill="#363843"/>
<path d="M46.1681 19.6022C46.2441 19.7352 46.1871 19.9063 46.073 19.9823C45.959 20.0584 45.7879 20.0013 45.7309 19.8683C45.6549 19.7352 45.7119 19.5642 45.8259 19.4882C45.94 19.4121 46.092 19.4691 46.1681 19.6022Z" fill="#D9DADC"/>
<path d="M47.1941 18.918C47.2702 19.0891 47.2131 19.2981 47.0611 19.3742C46.909 19.4692 46.719 19.3932 46.6429 19.2221C46.5669 19.0511 46.6239 18.842 46.757 18.766C46.909 18.6899 47.0991 18.7469 47.1941 18.918Z" fill="#262523"/>
<path d="M47.2892 18.937C47.3652 19.1081 47.3082 19.3172 47.1562 19.3932C47.0041 19.4882 46.814 19.4122 46.738 19.2412C46.662 19.0701 46.7 18.861 46.8711 18.785C47.0041 18.709 47.1942 18.766 47.2892 18.937Z" fill="#363843"/>
<path d="M47.2701 18.975C47.3461 19.108 47.2891 19.2791 47.1751 19.3551C47.061 19.4312 46.89 19.3741 46.833 19.2411C46.7569 19.108 46.814 18.937 46.928 18.861C47.042 18.7849 47.1941 18.842 47.2701 18.975Z" fill="#2FBAE5"/>
<path d="M48.1636 18.3477C48.2396 18.5188 48.1826 18.7278 48.0305 18.8039C47.8785 18.8989 47.6884 18.8229 47.6124 18.6518C47.5364 18.4807 47.5934 18.2717 47.7454 18.1956C47.8975 18.1196 48.0876 18.1766 48.1636 18.3477Z" fill="#262523"/>
<path d="M48.2588 18.3858C48.3349 18.5568 48.2968 18.7659 48.1448 18.8419C47.9927 18.937 47.8027 18.861 47.7266 18.6899C47.6506 18.5188 47.7076 18.3098 47.8597 18.2337C47.9927 18.1577 48.1828 18.2147 48.2588 18.3858Z" fill="#363843"/>
<path d="M48.2398 18.4237C48.2969 18.5567 48.2588 18.7278 48.1448 18.8038C48.0118 18.8799 47.8597 18.8228 47.8027 18.6898C47.7267 18.5567 47.7837 18.3857 47.8977 18.3096C48.0118 18.2146 48.1828 18.2716 48.2398 18.4237Z" fill="#2FBAE5"/>
<path d="M45.5787 18.5188C45.6547 18.6899 45.5977 18.899 45.4456 18.975C45.2936 19.07 45.1035 18.994 45.0275 18.8229C44.9514 18.6519 45.0085 18.4428 45.1415 18.3668C45.2936 18.2908 45.4836 18.3478 45.5787 18.5188Z" fill="#262523"/>
<path d="M45.6737 18.5567C45.7497 18.7278 45.6927 18.9369 45.5406 19.0129C45.3886 19.1079 45.1985 19.0319 45.1225 18.8608C45.0465 18.6898 45.0845 18.4807 45.2365 18.4047C45.3886 18.3096 45.5787 18.3857 45.6737 18.5567Z" fill="#363843"/>
<path d="M45.6549 18.5758C45.7309 18.7089 45.6739 18.8799 45.5598 18.956C45.4458 19.032 45.2747 18.975 45.2177 18.8419C45.1417 18.7089 45.1987 18.5378 45.3128 18.4618C45.4268 18.3858 45.5789 18.4428 45.6549 18.5758Z" fill="#D9DADC"/>
<path d="M46.6812 17.8915C46.7572 18.0625 46.7002 18.2716 46.5481 18.3476C46.3961 18.4427 46.206 18.3666 46.13 18.1956C46.0539 18.0245 46.111 17.8154 46.263 17.7394C46.3961 17.6444 46.5861 17.7204 46.6812 17.8915Z" fill="#262523"/>
<path d="M46.7761 17.9104C46.8522 18.0815 46.7951 18.2906 46.6431 18.3666C46.491 18.4616 46.301 18.3856 46.2249 18.2145C46.1489 18.0435 46.2059 17.8344 46.358 17.7584C46.491 17.6824 46.6811 17.7394 46.7761 17.9104Z" fill="#363843"/>
<path d="M46.7572 17.9484C46.8332 18.0814 46.7762 18.2525 46.6621 18.3285C46.5291 18.4046 46.377 18.3475 46.32 18.2145C46.244 18.0814 46.301 17.9104 46.4151 17.8343C46.5291 17.7583 46.6812 17.8153 46.7572 17.9484Z" fill="#2FBAE5"/>
<path d="M47.6504 17.3213C47.7264 17.4924 47.6694 17.7015 47.5174 17.7965C47.3653 17.8915 47.1752 17.8155 47.0992 17.6444C47.0232 17.4734 47.0802 17.2643 47.2323 17.1693C47.3843 17.0932 47.5744 17.1503 47.6504 17.3213Z" fill="#262523"/>
<path d="M47.7456 17.3595C47.8216 17.5305 47.7646 17.7396 47.6126 17.8156C47.4605 17.9107 47.2704 17.8346 47.1944 17.6636C47.1184 17.4925 47.1754 17.2834 47.3275 17.1884C47.4795 17.1124 47.6696 17.1884 47.7456 17.3595Z" fill="#363843"/>
<path d="M47.7264 17.3783C47.8024 17.5114 47.7454 17.6824 47.6314 17.7585C47.4983 17.8345 47.3463 17.7775 47.2893 17.6444C47.2132 17.5114 47.2702 17.3403 47.3843 17.2643C47.5173 17.1883 47.6694 17.2453 47.7264 17.3783Z" fill="#2FBAE5"/>
<path d="M49.285 17.6825C49.361 17.8535 49.323 18.0626 49.171 18.1386C49.0189 18.2337 48.8288 18.1576 48.7528 17.9866C48.6768 17.8155 48.7338 17.6064 48.8668 17.5304C49.0189 17.4354 49.209 17.5114 49.285 17.6825Z" fill="#262523"/>
<path d="M49.3803 17.7015C49.4563 17.8725 49.4183 18.0816 49.2662 18.1576C49.1142 18.2527 48.9241 18.1766 48.8481 18.0056C48.772 17.8345 48.8101 17.6254 48.9621 17.5494C49.1142 17.4734 49.3042 17.5304 49.3803 17.7015Z" fill="#363843"/>
<path d="M49.3612 17.7395C49.4372 17.8725 49.3802 18.0436 49.2661 18.1196C49.1331 18.1956 48.981 18.1386 48.924 18.0056C48.848 17.8725 48.905 17.7014 49.0191 17.6254C49.1521 17.5494 49.3042 17.5874 49.3612 17.7395Z" fill="#E2E2E8"/>
<path d="M50.3873 17.0361C50.4633 17.2072 50.4063 17.4163 50.2543 17.4923C50.1022 17.5873 49.9121 17.5113 49.8361 17.3402C49.7601 17.1692 49.7981 16.9601 49.9502 16.8841C50.1212 16.808 50.3113 16.8841 50.3873 17.0361Z" fill="#262523"/>
<path d="M50.4824 17.074C50.5585 17.2451 50.5014 17.4541 50.3494 17.5302C50.1973 17.6252 50.0073 17.5492 49.9312 17.3781C49.8552 17.2071 49.9122 16.998 50.0643 16.922C50.2163 16.8459 50.4064 16.903 50.4824 17.074Z" fill="#363843"/>
<path d="M50.4632 17.0929C50.5393 17.226 50.4822 17.397 50.3682 17.4731C50.2542 17.5491 50.1021 17.4921 50.0261 17.359C49.95 17.226 50.0071 17.0549 50.1211 16.9789C50.2542 16.9028 50.4062 16.9599 50.4632 17.0929Z" fill="#2FBAE5"/>
<path d="M51.3757 16.4849C51.4518 16.656 51.3948 16.865 51.2427 16.9411C51.0906 17.0361 50.9006 16.9601 50.8245 16.789C50.7485 16.618 50.8055 16.4089 50.9576 16.3328C51.0906 16.2568 51.2807 16.3138 51.3757 16.4849Z" fill="#262523"/>
<path d="M51.4707 16.5039C51.5467 16.675 51.4897 16.884 51.3377 16.9601C51.1856 17.0551 50.9955 16.9791 50.9195 16.808C50.8435 16.6369 50.9005 16.4279 51.0526 16.3518C51.1856 16.2758 51.3757 16.3518 51.4707 16.5039Z" fill="#363843"/>
<path d="M51.4515 16.5419C51.5275 16.6749 51.4705 16.846 51.3565 16.922C51.2234 16.9981 51.0714 16.941 51.0144 16.808C50.9383 16.6749 50.9953 16.5039 51.1094 16.4279C51.2234 16.3518 51.3755 16.4088 51.4515 16.5419Z" fill="#2FBAE5"/>
<path d="M48.7717 16.6561C48.8478 16.8272 48.7907 17.0362 48.6387 17.1123C48.4866 17.2073 48.2966 17.1313 48.2205 16.9602C48.1445 16.7891 48.2015 16.5801 48.3536 16.504C48.5056 16.409 48.6957 16.485 48.7717 16.6561Z" fill="#262523"/>
<path d="M48.8668 16.6751C48.9428 16.8461 48.8858 17.0552 48.7338 17.1313C48.5817 17.2263 48.3916 17.1503 48.3156 16.9792C48.2396 16.8081 48.2776 16.5991 48.4296 16.523C48.6007 16.447 48.7908 16.504 48.8668 16.6751Z" fill="#363843"/>
<path d="M48.8478 16.713C48.9238 16.8461 48.8668 17.0171 48.7527 17.0932C48.6387 17.1692 48.4676 17.1122 48.4106 16.9791C48.3346 16.8461 48.3916 16.675 48.5056 16.599C48.6387 16.523 48.7907 16.58 48.8478 16.713Z" fill="#D9DADC"/>
<path d="M49.8741 16.0098C49.9501 16.1809 49.9121 16.3899 49.7601 16.466C49.608 16.561 49.4179 16.485 49.3419 16.3139C49.2659 16.1429 49.3229 15.9338 49.456 15.8577C49.608 15.7817 49.7981 15.8387 49.8741 16.0098Z" fill="#262523"/>
<path d="M49.9692 16.0479C50.0453 16.219 49.9883 16.4281 49.8362 16.5041C49.6841 16.5991 49.4941 16.5231 49.4181 16.3521C49.342 16.181 49.399 15.9719 49.5511 15.8959C49.7032 15.8009 49.8932 15.8769 49.9692 16.0479Z" fill="#363843"/>
<path d="M49.9692 16.067C50.0452 16.2001 49.9882 16.3712 49.8742 16.4472C49.7411 16.5232 49.5891 16.4662 49.5321 16.3331C49.475 16.2001 49.513 16.029 49.6271 15.953C49.7411 15.877 49.8932 15.934 49.9692 16.067Z" fill="#E2E2E8"/>
<path d="M50.8626 15.4586C50.9386 15.6297 50.8816 15.8387 50.7295 15.9338C50.5775 16.0288 50.3874 15.9528 50.3114 15.7817C50.2353 15.6106 50.2924 15.4016 50.4444 15.3065C50.5775 15.2115 50.7675 15.2875 50.8626 15.4586Z" fill="#262523"/>
<path d="M50.9575 15.4777C51.0336 15.6487 50.9765 15.8578 50.8245 15.9528C50.6724 16.0479 50.4824 15.9718 50.4063 15.8008C50.3303 15.6297 50.3873 15.4206 50.5394 15.3446C50.6724 15.2496 50.8625 15.3066 50.9575 15.4777Z" fill="#363843"/>
<path d="M50.9386 15.5158C51.0146 15.6489 50.9576 15.8199 50.8435 15.896C50.7105 15.972 50.5584 15.915 50.5014 15.7819C50.4254 15.6489 50.4824 15.4778 50.5964 15.4018C50.7105 15.3258 50.8625 15.3638 50.9386 15.5158Z" fill="#2FBAE5"/>
<path d="M49 25.4182L51.1858 24.1067V26.6346L49 27.8891V25.4182Z" fill="#6A5A49"/>
<path d="M51.1097 26.5966L49.0759 27.756V25.4182L51.1097 24.2397V26.5966Z" fill="#2FBAE5"/>
<path d="M50.4255 25.3612L50.6916 25.5133L50.5395 25.7604C50.5015 25.9884 50.3685 26.2355 50.1784 26.3686L50.0263 26.6157L49.7602 26.4636C49.6842 26.4066 49.6272 26.3116 49.6272 26.1595C49.6272 25.8744 49.8363 25.5133 50.0834 25.3802C50.2354 25.3232 50.3495 25.3232 50.4255 25.3612Z" fill="#2FBAE5"/>
<path d="M50.8247 25.8175C50.8247 25.5324 50.6156 25.4184 50.3685 25.5514C50.1214 25.7035 49.9124 26.0456 49.9124 26.3307C49.9124 26.6158 50.1214 26.7298 50.3685 26.5968C50.6156 26.4637 50.8247 26.1026 50.8247 25.8175Z" fill="#D6D2D4"/>
<path d="M50.8247 25.8175C50.8247 25.5324 50.6156 25.4184 50.3685 25.5514C50.1214 25.7035 49.9124 26.0456 49.9124 26.3307C49.9124 26.6158 50.1214 26.7298 50.3685 26.5968C50.6156 26.4637 50.8247 26.1026 50.8247 25.8175Z" fill="#58D8FF"/>
<path d="M50.0072 28.5543C50.0072 28.7634 49.8552 29.0295 49.6651 29.1435C49.4751 29.2575 49.323 29.1625 49.323 28.9534C49.323 28.7444 49.4751 28.4783 49.6651 28.3642C49.8552 28.2502 50.0072 28.3452 50.0072 28.5543Z" fill="#262523"/>
<path d="M50.0832 28.5924C50.0832 28.8014 49.9311 29.0675 49.741 29.1816C49.551 29.2956 49.3989 29.2006 49.3989 28.9915C49.3989 28.7824 49.551 28.5163 49.741 28.4023C49.9311 28.2883 50.0832 28.3833 50.0832 28.5924Z" fill="#363843"/>
<path d="M50.0454 28.6305C50.0454 28.8015 49.9123 29.0296 49.7793 29.1056C49.6272 29.2007 49.5132 29.1246 49.5132 28.9536C49.5132 28.7825 49.6272 28.5734 49.7793 28.4784C49.9313 28.3834 50.0454 28.4594 50.0454 28.6305Z" fill="#E2E2E8"/>
<path d="M51.1286 27.8892C51.1286 28.0983 50.9765 28.3644 50.7865 28.4784C50.5964 28.5924 50.4443 28.4974 50.4443 28.2883C50.4443 28.0603 50.5964 27.8132 50.7865 27.6991C50.9765 27.5851 51.1286 27.6611 51.1286 27.8892Z" fill="#262523"/>
<path d="M51.2045 27.9273C51.2045 28.1364 51.0525 28.4025 50.8624 28.5165C50.6723 28.6305 50.5203 28.5355 50.5203 28.3264C50.5203 28.1173 50.6723 27.8512 50.8624 27.7372C51.0525 27.6232 51.2045 27.6992 51.2045 27.9273Z" fill="#363843"/>
<path d="M51.1664 27.9652C51.1664 28.1362 51.0334 28.3453 50.9003 28.4404C50.7483 28.5354 50.6152 28.4594 50.6152 28.2883C50.6152 28.1172 50.7483 27.8892 50.9003 27.8131C51.0524 27.7181 51.1664 27.7941 51.1664 27.9652Z" fill="#2FBAE5"/>
<path opacity="0.5" d="M35.2769 14.3181L41.5871 18.0815L44.4572 23.0233L44.5712 38.1717L44.6663 23.0233L52.212 18.5756L44.5712 22.7952L41.8532 18.0815L48.5056 14.052L41.6822 17.9484L35.2769 14.3181Z" fill="#F2F5F8"/>
<path d="M37.0444 33.8192H41.473V21.5978L37.4626 14.7173L37.0444 21.5978V33.8192Z" fill="#58D8FF"/>
<path d="M30.1069 26.6346L37.4626 30.8731V14.7173L30.1069 10.4597V26.6346Z" fill="#2FBAE5"/>
<path d="M41.6252 22.0159V25.057L37.4626 27.5469V24.5058L41.6252 22.0159Z" fill="#139DC8"/>
<path d="M39.6865 13.4438L41.6252 21.8069L37.4626 24.2968V14.6983L39.6865 13.4438Z" fill="#139DC8"/>
<path d="M30.1069 10.5166L37.4626 14.6981L39.6674 13.4247L32.3117 9.24316L30.1069 10.5166Z" fill="#58D8FF"/>
<path d="M41.6442 28.421L37.4817 30.8729V27.7368L41.6442 25.2849V28.421Z" fill="#139DC8"/>
<path d="M27.902 32.6596V20.3811L27.0087 19.8679L25.4311 20.7803L24.5378 22.3198V24.8667L23.1693 28.0789V35.3965L22.0669 36.0238V37.7344L22.8462 38.1525L29.0044 33.7429L29.7647 32.4505L29.0044 32.0323L27.902 32.6596Z" fill="#34373A"/>
<path d="M28.6623 33.0968V20.7993L27.788 20.2861L26.1914 21.2175L25.2981 22.738V25.2849L23.9486 28.5161V35.8148L22.8462 36.461V38.1526L29.7647 34.1612V32.4505L28.6623 33.0968Z" fill="#26292B"/>
<path d="M25.2981 22.738L24.5378 22.3198V24.8667L25.2981 25.2849V22.738Z" fill="#434446"/>
<path d="M26.1914 21.2174L25.4312 20.7803L27.0087 19.8679L27.788 20.2861L26.1914 21.2174Z" fill="#434446"/>
<path d="M23.9485 28.516L23.1692 28.0789V35.3965L23.9485 35.8147V28.516Z" fill="#434446"/>
<path d="M22.8462 36.4608L22.0669 36.0237V37.7343L22.8462 38.1525V36.4608Z" fill="#434446"/>
<path d="M27.7499 23.6315L27.94 23.7266L27.826 23.8976C27.807 24.0497 27.7119 24.2207 27.5789 24.3158L27.4838 24.4868L27.2938 24.3728C27.2367 24.3348 27.1987 24.2778 27.1987 24.1637C27.1987 23.9737 27.3318 23.7266 27.5028 23.6315C27.6169 23.5935 27.6929 23.5935 27.7499 23.6315Z" fill="#747474"/>
<path d="M27.5219 24.4489L27.5029 24.4869L27.3128 24.3729C27.2748 24.3539 27.2558 24.3158 27.2368 24.2778L27.5219 24.4489Z" fill="#E2E2E8"/>
<path d="M27.7688 24.1067C27.7498 24.1447 27.7308 24.1637 27.7118 24.1827L27.2747 23.9356C27.2937 23.8976 27.3127 23.8786 27.3127 23.8406L27.7688 24.1067Z" fill="#E2E2E8"/>
<path d="M27.864 23.8407L27.826 23.8977L27.4648 23.6886C27.4839 23.6696 27.5029 23.6696 27.5219 23.6506L27.864 23.8407Z" fill="#E2E2E8"/>
<path d="M27.8829 23.8026L27.5598 23.6125C27.6358 23.5745 27.6929 23.5935 27.7309 23.6125L27.9209 23.7076L27.8829 23.8026Z" fill="#E2E2E8"/>
<path d="M28.0159 23.9357C28.0159 23.7456 27.8829 23.6506 27.7118 23.7646C27.5408 23.8596 27.4077 24.1067 27.4077 24.2968C27.4077 24.4869 27.5408 24.5819 27.7118 24.4679C27.8829 24.3728 28.0159 24.1257 28.0159 23.9357Z" fill="#DFDFDF"/>
<path d="M28.0159 23.9357C28.0159 24.1257 27.8829 24.3728 27.7118 24.4679C27.5408 24.5629 27.4077 24.4869 27.4077 24.2968C27.4077 24.1067 27.5408 23.8596 27.7118 23.7646C27.8829 23.6506 28.0159 23.7456 28.0159 23.9357Z" fill="#434446"/>
<path d="M27.7119 23.8599L27.6929 23.7838L27.7119 23.7648V23.8599ZM27.6168 23.9549L27.5788 23.8979L27.5598 23.9169L27.5978 23.9739L27.6168 23.9549ZM27.5408 24.0879H27.4648H27.4458H27.5218H27.5408ZM27.5028 24.24V24.221L27.4268 24.278V24.297L27.5028 24.24ZM27.5408 24.335L27.4648 24.4111L27.4838 24.4301L27.5408 24.335ZM27.6168 24.373L27.5598 24.4681H27.5788L27.6168 24.373ZM27.7119 24.335L27.6929 24.4301L27.7119 24.4111V24.335ZM27.8639 24.297L27.8259 24.24L27.8069 24.259L27.8639 24.297ZM27.959 24.1259H27.8829V24.145H27.959V24.1259ZM27.997 23.9359L27.9209 23.9739V23.9929L27.997 23.9359ZM27.959 23.8028L27.8829 23.8789V23.8979L27.959 23.8028ZM27.8639 23.7268L27.8069 23.8408H27.8259L27.8639 23.7268Z" fill="#616161"/>
<path d="M27.8451 23.8786L27.9591 23.9356L27.9021 24.0306C27.8831 24.1257 27.8261 24.2207 27.7501 24.2777L27.693 24.3727L27.579 24.3157C27.541 24.2967 27.522 24.2587 27.522 24.2017C27.522 24.0876 27.598 23.9356 27.712 23.8786C27.7691 23.8786 27.8071 23.8596 27.8451 23.8786Z" fill="#747474"/>
<path d="M27.693 24.3726L27.674 24.3916L27.56 24.3346C27.541 24.3156 27.522 24.2966 27.522 24.2776L27.693 24.3726Z" fill="#BCBCBC"/>
<path d="M27.8451 24.1826C27.8451 24.2016 27.8261 24.2206 27.8071 24.2396L27.541 24.0875C27.541 24.0685 27.56 24.0495 27.579 24.0305L27.8451 24.1826Z" fill="#BCBCBC"/>
<path d="M27.9022 24.0115L27.8831 24.0495L27.6741 23.9165C27.6931 23.9165 27.6931 23.8975 27.7121 23.8975L27.9022 24.0115Z" fill="#BCBCBC"/>
<path d="M27.921 23.9926L27.731 23.8785C27.769 23.8595 27.807 23.8595 27.845 23.8785L27.959 23.9355L27.921 23.9926Z" fill="#BCBCBC"/>
<path d="M27.9971 24.0685C27.9971 23.9545 27.9211 23.8975 27.807 23.9545C27.712 24.0115 27.6169 24.1636 27.6169 24.2776C27.6169 24.3917 27.693 24.4487 27.807 24.3917C27.9211 24.3346 27.9971 24.1826 27.9971 24.0685Z" fill="#F1F2F3"/>
<path d="M27.9402 24.1065C27.9402 24.0305 27.8832 24.0115 27.8262 24.0495C27.7692 24.0875 27.7122 24.1826 27.7122 24.2396C27.7122 24.3156 27.7692 24.3346 27.8262 24.2966C27.8832 24.2776 27.9402 24.1826 27.9402 24.1065Z" fill="#747474"/>
<path d="M26.6096 24.2588L26.7997 24.3728L26.7046 24.5439C26.6856 24.6959 26.5906 24.867 26.4575 24.962L26.3625 25.1331L26.1724 25.019C26.1154 24.981 26.0774 24.924 26.0774 24.81C26.0774 24.6199 26.2104 24.3728 26.3815 24.2778C26.4765 24.2398 26.5526 24.2207 26.6096 24.2588Z" fill="#747474"/>
<path d="M26.3815 25.0761L26.3625 25.1141L26.1725 25.0001C26.1345 24.9811 26.1154 24.943 26.0964 24.905L26.3815 25.0761Z" fill="#E2E2E8"/>
<path d="M26.6287 24.7341C26.6097 24.7721 26.5907 24.7911 26.5717 24.8101L26.1345 24.5631C26.1535 24.525 26.1725 24.506 26.1725 24.468L26.6287 24.7341Z" fill="#E2E2E8"/>
<path d="M26.7427 24.4679L26.7046 24.5249L26.3435 24.3158C26.3625 24.2968 26.3815 24.2968 26.4005 24.2778L26.7427 24.4679Z" fill="#E2E2E8"/>
<path d="M26.7616 24.449L26.4575 24.2589C26.5335 24.2399 26.5906 24.2399 26.6286 24.2589L26.8186 24.3729L26.7616 24.449Z" fill="#E2E2E8"/>
<path d="M26.8948 24.5631C26.8948 24.373 26.7618 24.278 26.5907 24.392C26.4197 24.4871 26.2866 24.7342 26.2866 24.9242C26.2866 25.1143 26.4197 25.2093 26.5907 25.0953C26.7428 25.0003 26.8948 24.7722 26.8948 24.5631Z" fill="#DFDFDF"/>
<path d="M26.8758 24.563C26.8758 24.7531 26.7427 25.0002 26.5717 25.0952C26.4006 25.1903 26.2676 25.1142 26.2676 24.9242C26.2676 24.7341 26.4006 24.487 26.5717 24.392C26.7427 24.297 26.8758 24.373 26.8758 24.563Z" fill="#434446"/>
<path d="M26.5907 24.4871L26.5717 24.3921L26.5907 24.373V24.4871ZM26.4767 24.5821L26.4387 24.5251L26.4197 24.5441L26.4767 24.5821ZM26.4007 24.7152H26.3246V24.7342H26.4007V24.7152ZM26.3627 24.8672V24.8482L26.2866 24.8862V24.9052L26.3627 24.8672ZM26.4007 24.9623L26.3246 25.0383V25.0573L26.4007 24.9623ZM26.4767 25.0193L26.4197 25.1333H26.4387L26.4767 25.0193ZM26.5907 24.9813L26.5717 25.0953H26.5907V24.9813ZM26.7238 24.9433L26.6858 24.8862L26.6668 24.9052L26.7238 24.9433ZM26.8378 24.7532H26.7618V24.7722H26.8378V24.7532ZM26.8758 24.5631L26.7998 24.6011V24.6201L26.8758 24.5631ZM26.8378 24.4301L26.7618 24.5061V24.5251L26.8378 24.4301ZM26.7238 24.373L26.6668 24.4871H26.6858L26.7238 24.373ZM26.3436 24.8102L26.3056 24.8292V24.8482L26.3436 24.8102Z" fill="#616161"/>
<path d="M26.7047 24.525L26.8188 24.582L26.7617 24.6771C26.7427 24.7721 26.6857 24.8671 26.6097 24.9241L26.5527 25.0192L26.4386 24.9622C26.4006 24.9431 26.3816 24.9051 26.3816 24.8481C26.3816 24.7341 26.4576 24.582 26.5717 24.525C26.6287 24.506 26.6667 24.506 26.7047 24.525Z" fill="#747474"/>
<path d="M26.5717 25.0191L26.5527 25.0381L26.4386 24.9811C26.4196 24.9621 26.4006 24.9431 26.4006 24.9241L26.5717 25.0191Z" fill="#BCBCBC"/>
<path d="M26.7238 24.81C26.7048 24.829 26.7048 24.848 26.6858 24.867L26.4197 24.715C26.4197 24.696 26.4387 24.677 26.4387 24.658L26.7238 24.81Z" fill="#BCBCBC"/>
<path d="M26.7808 24.6389L26.7618 24.677L26.5527 24.5439C26.5717 24.5439 26.5717 24.5249 26.5907 24.5249L26.7808 24.6389Z" fill="#BCBCBC"/>
<path d="M26.7997 24.62L26.6096 24.506C26.6476 24.4869 26.6856 24.4869 26.7237 24.506L26.8377 24.563L26.7997 24.62Z" fill="#BCBCBC"/>
<path d="M26.8757 24.696C26.8757 24.5819 26.7997 24.5249 26.6857 24.5819C26.5906 24.639 26.4956 24.791 26.4956 24.9051C26.4956 25.0191 26.5716 25.0761 26.6857 25.0191C26.7807 24.9621 26.8757 24.829 26.8757 24.696Z" fill="#F1F2F3"/>
<path d="M26.7999 24.753C26.7999 24.677 26.7428 24.658 26.6858 24.696C26.6288 24.734 26.5718 24.8101 26.5718 24.8861C26.5718 24.9621 26.6288 24.9811 26.6858 24.9431C26.7428 24.9051 26.7999 24.8101 26.7999 24.753Z" fill="#747474"/>
<path d="M23.9866 27.6418L74.2408 55.9241L73.4805 64.5342L23.9866 35.9479V27.6418Z" fill="#E2E2E8"/>
<path d="M23.9866 27.6609L74.2408 56.6845L75.4382 55.9812L75.9514 55.6771L76.3886 55.43L76.9018 55.1449L77.7571 54.6317L27.5219 25.6272L26.6475 26.1214L26.1344 26.4255L25.6972 26.6726L25.203 26.9577L23.9866 27.6609Z" fill="#CAD0D8"/>
<path d="M74.165 64.9143L73.0626 65.5605L22.0481 36.0998L23.1505 35.4536L74.165 64.9143Z" fill="#34373A"/>
<path d="M22.0481 36.0811L73.0626 65.5607V67.2524L22.0481 37.8297V36.0811Z" fill="#434446"/>
<path d="M25.2031 26.9576L75.4383 55.9812L75.9515 55.6771L76.3887 55.43L76.9019 55.1449L26.6476 26.1213L26.1345 26.4254L25.6973 26.6725L25.2031 26.9576Z" fill="#3A3A3A"/>
<path d="M25.6973 26.6726L75.9515 55.6771L76.3886 55.43L26.1344 26.4255L25.6973 26.6726Z" fill="#323333"/>
<path d="M78.1374 61.6642V49.3857L77.244 48.8726L75.6665 49.7849L74.7731 51.3244V53.8714L73.4046 57.0835V64.3822L72.3022 65.0284V66.739L73.0815 67.1572L79.2398 62.7286L80 61.4551L79.2398 61.018L78.1374 61.6642Z" fill="#34373A"/>
<path d="M78.8977 62.0824V49.804L78.0233 49.2908L76.4268 50.2031L75.5334 51.7427V54.2896L74.1839 57.5017V64.8194L73.0815 65.4466V67.1572L80.0001 63.1658V61.4552L78.8977 62.0824Z" fill="#26292B"/>
<path d="M75.5335 51.7426L74.7732 51.3245V53.8714L75.5335 54.2895V51.7426Z" fill="#434446"/>
<path d="M76.4268 50.203L75.6665 49.7849L77.2441 48.8726L78.0234 49.2907L76.4268 50.203Z" fill="#434446"/>
<path d="M74.1838 57.5016L73.4045 57.0835V64.3821L74.1838 64.8193V57.5016Z" fill="#434446"/>
<path d="M73.0815 65.4465L72.3022 65.0283V66.7389L73.0815 67.1571V65.4465Z" fill="#434446"/>
<path d="M77.9851 52.617L78.1751 52.731L78.0801 52.9021C78.0611 53.0541 77.9661 53.2252 77.833 53.3202L77.738 53.4913L77.5479 53.3773C77.4909 53.3392 77.4529 53.2822 77.4529 53.1682C77.4529 52.9781 77.5859 52.731 77.757 52.636C77.852 52.598 77.9281 52.598 77.9851 52.617Z" fill="#747474"/>
<path d="M77.757 53.4533L77.738 53.4913L77.548 53.3773C77.5099 53.3583 77.4909 53.3202 77.4719 53.2822L77.757 53.4533Z" fill="#E2E2E8"/>
<path d="M78.0039 53.1111C77.9849 53.1491 77.9659 53.1681 77.9469 53.1871L77.5098 52.94C77.5288 52.902 77.5478 52.883 77.5478 52.845L78.0039 53.1111Z" fill="#E2E2E8"/>
<path d="M78.0991 52.8451L78.0611 52.9021L77.7 52.693C77.719 52.674 77.738 52.674 77.757 52.655L78.0991 52.8451Z" fill="#E2E2E8"/>
<path d="M78.1181 52.807L77.814 52.636C77.89 52.5979 77.947 52.617 77.985 52.636L78.1751 52.75L78.1181 52.807Z" fill="#E2E2E8"/>
<path d="M78.251 52.9401C78.251 52.75 78.118 52.655 77.9469 52.769C77.7759 52.864 77.6428 53.1111 77.6428 53.3012C77.6428 53.4913 77.7759 53.5863 77.9469 53.4723C78.118 53.3772 78.251 53.1301 78.251 52.9401Z" fill="#DFDFDF"/>
<path d="M78.251 52.921C78.251 53.111 78.118 53.3581 77.9469 53.4532C77.7759 53.5482 77.6428 53.4722 77.6428 53.2821C77.6428 53.092 77.7759 52.8449 77.9469 52.7499C78.118 52.6549 78.251 52.7309 78.251 52.921Z" fill="#434446"/>
<path d="M77.947 52.864L77.928 52.769H77.947V52.864ZM77.8519 52.94L77.8139 52.883L77.7949 52.902L77.8519 52.94ZM77.7759 53.0731H77.6999L77.6809 53.0921H77.7569L77.7759 53.0731ZM77.7379 53.2251L77.6619 53.2631V53.2822L77.7379 53.2251ZM77.7759 53.3392L77.6999 53.4152L77.7189 53.4342L77.7759 53.3392ZM77.8519 53.3772L77.7949 53.4912H77.8139L77.8519 53.3772ZM77.947 53.3392L77.928 53.4532H77.947V53.3392ZM78.099 53.3012L78.061 53.2441L78.042 53.2631L78.099 53.3012ZM78.1941 53.1111H78.118L78.099 53.1301H78.175L78.1941 53.1111ZM78.2321 52.921L78.156 52.959V52.978L78.2321 52.921ZM78.1941 52.788L78.118 52.864V52.883L78.1941 52.788ZM78.099 52.731L78.042 52.845H78.061L78.099 52.731Z" fill="#616161"/>
<path d="M78.0799 52.8829L78.194 52.9399L78.137 53.035C78.118 53.13 78.0609 53.225 77.9849 53.2821L77.9279 53.3771L77.8139 53.3201C77.7758 53.3011 77.7568 53.263 77.7568 53.206C77.7568 53.092 77.8329 52.9399 77.9469 52.8829C77.9849 52.8639 78.0419 52.8639 78.0799 52.8829Z" fill="#747474"/>
<path d="M77.9279 53.3773L77.9089 53.3963L77.7948 53.3392C77.7758 53.3202 77.7568 53.3012 77.7568 53.2822L77.9279 53.3773Z" fill="#BCBCBC"/>
<path d="M78.08 53.1682C78.061 53.1872 78.061 53.2062 78.042 53.2252L77.7759 53.0731C77.7759 53.0541 77.7949 53.0351 77.8139 53.0161L78.08 53.1682Z" fill="#BCBCBC"/>
<path d="M78.137 53.0161L78.118 53.0542L77.9089 52.9211C77.9279 52.9211 77.9279 52.9021 77.947 52.9021L78.137 53.0161Z" fill="#BCBCBC"/>
<path d="M78.1559 52.997L77.9658 52.8829C78.0038 52.8639 78.0418 52.8639 78.0799 52.8829L78.1939 52.9399L78.1559 52.997Z" fill="#BCBCBC"/>
<path d="M78.2319 53.0732C78.2319 52.9591 78.1559 52.9021 78.0419 52.9591C77.9468 53.0162 77.8518 53.1682 77.8518 53.2823C77.8518 53.3963 77.9278 53.4533 78.0419 53.3963C78.1559 53.3393 78.2319 53.1872 78.2319 53.0732Z" fill="#F1F2F3"/>
<path d="M78.1561 53.1112C78.1561 53.0352 78.099 53.0161 78.042 53.0542C77.985 53.0922 77.928 53.1682 77.928 53.2442C77.928 53.3203 77.985 53.3393 78.042 53.3013C78.118 53.2632 78.1561 53.1872 78.1561 53.1112Z" fill="#747474"/>
<path d="M76.8447 53.2629L77.0348 53.3579L76.9397 53.529C76.9207 53.681 76.8257 53.8521 76.6926 53.9471L76.5976 54.1182L76.4075 54.0042C76.3505 53.9661 76.3125 53.9091 76.3125 53.7951C76.3125 53.605 76.4455 53.3579 76.6166 53.2629C76.7116 53.2249 76.7877 53.2249 76.8447 53.2629Z" fill="#747474"/>
<path d="M76.6166 54.0802L76.5976 54.1183L76.4076 54.0042C76.3696 53.9852 76.3505 53.9472 76.3315 53.9092L76.6166 54.0802Z" fill="#E2E2E8"/>
<path d="M76.8638 53.7383C76.8448 53.7573 76.8258 53.7953 76.8068 53.8143L76.3696 53.5672C76.3886 53.5292 76.4076 53.5102 76.4076 53.4722L76.8638 53.7383Z" fill="#E2E2E8"/>
<path d="M76.9778 53.4721L76.9397 53.5291L76.5786 53.32C76.5976 53.301 76.6166 53.301 76.6356 53.282L76.9778 53.4721Z" fill="#E2E2E8"/>
<path d="M76.9967 53.4341L76.6736 53.244C76.7496 53.225 76.8066 53.225 76.8446 53.244L77.0347 53.339L76.9967 53.4341Z" fill="#E2E2E8"/>
<path d="M77.1297 53.567C77.1297 53.3769 76.9967 53.2819 76.8256 53.396C76.6545 53.491 76.5215 53.7381 76.5215 53.9281C76.5215 54.1182 76.6545 54.2132 76.8256 54.0992C76.9776 54.0042 77.1297 53.7571 77.1297 53.567Z" fill="#DFDFDF"/>
<path d="M77.1109 53.5671C77.1109 53.7571 76.9779 54.0042 76.8068 54.0992C76.6357 54.1943 76.5027 54.1182 76.5027 53.9282C76.5027 53.7381 76.6357 53.491 76.8068 53.396C76.9779 53.2819 77.1109 53.358 77.1109 53.5671Z" fill="#434446"/>
<path d="M76.8258 53.491L76.8068 53.3959H76.8258V53.491ZM76.7118 53.586L76.6738 53.529L76.6548 53.548L76.6928 53.605L76.7118 53.586ZM76.6358 53.719H76.5597V53.738H76.6358V53.719ZM76.5978 53.8711V53.8521L76.5217 53.9091V53.9281L76.5978 53.8711ZM76.6358 53.9661L76.5597 54.0422V54.0612L76.6358 53.9661ZM76.7118 54.0041L76.6548 54.1182H76.6738L76.7118 54.0041ZM76.8258 53.9661L76.8068 54.0802L76.8258 54.0612V53.9661ZM76.9589 53.9281L76.9209 53.8711L76.9019 53.8901L76.9589 53.9281ZM77.0729 53.7571H76.9969V53.7761H77.0729V53.7571ZM77.1109 53.567L77.0349 53.605V53.624L77.1109 53.567ZM77.0729 53.4339L76.9969 53.51V53.529L77.0729 53.4339ZM76.9589 53.3579L76.9019 53.472H76.9209L76.9589 53.3579Z" fill="#616161"/>
<path d="M76.9398 53.5101L77.0539 53.5671L76.9968 53.6622C76.9778 53.7572 76.9208 53.8522 76.8448 53.9093L76.7878 54.0043L76.6737 53.9473C76.6357 53.9283 76.6167 53.8902 76.6167 53.8332C76.6167 53.7192 76.6927 53.5671 76.8068 53.5101C76.8638 53.4911 76.9018 53.4911 76.9398 53.5101Z" fill="#747474"/>
<path d="M76.8068 54.0045L76.7878 54.0235L76.6738 53.9664C76.6548 53.9474 76.6357 53.9284 76.6357 53.9094L76.8068 54.0045Z" fill="#BCBCBC"/>
<path d="M76.9589 53.7954C76.9399 53.8144 76.9399 53.8334 76.9209 53.8524L76.6548 53.7003C76.6548 53.6813 76.6738 53.6623 76.6738 53.6433L76.9589 53.7954Z" fill="#BCBCBC"/>
<path d="M77.0159 53.6433L76.9969 53.6814L76.7878 53.5483C76.8068 53.5483 76.8068 53.5293 76.8259 53.5293L77.0159 53.6433Z" fill="#BCBCBC"/>
<path d="M77.035 53.6241L76.845 53.5101C76.883 53.4911 76.921 53.4911 76.959 53.5101L77.0731 53.5671L77.035 53.6241Z" fill="#BCBCBC"/>
<path d="M77.1111 53.7004C77.1111 53.5863 77.0351 53.5293 76.921 53.5863C76.826 53.6434 76.731 53.7954 76.731 53.9094C76.731 54.0235 76.807 54.0805 76.921 54.0235C77.0161 53.9665 77.1111 53.8144 77.1111 53.7004Z" fill="#F1F2F3"/>
<path d="M77.035 53.7384C77.035 53.6624 76.9779 53.6433 76.9209 53.6814C76.8639 53.7194 76.8069 53.7954 76.8069 53.8714C76.8069 53.9475 76.8639 53.9665 76.9209 53.9284C76.9779 53.8904 77.035 53.8144 77.035 53.7384Z" fill="#747474"/>
<path d="M54.4548 61.5122V66.0358L58.8644 69.9703L59.3776 69.6852L59.4536 69.6281L67.7026 64.8764L67.7787 64.8384L68.2728 64.5343L72.7014 55.506V50.9634L54.4548 61.5122Z" fill="#CAD0D8"/>
<path d="M25.2981 23.6125V28.1362L20.8885 37.1835L11.4801 42.6004L7.05151 38.666V34.1424L25.2981 23.6125Z" fill="#CAD0D8"/>
<path d="M58.8643 69.9704L11.4801 42.6004L7.05151 38.666L54.4547 66.0359L58.8643 69.9704Z" fill="#B5BCC3"/>
<path d="M54.4547 66.0359L7.05151 38.666V34.1423L54.4547 61.5123V66.0359Z" fill="#F1F2F3"/>
<path d="M25.2981 23.6125L7.05151 34.1424L54.4547 61.5123L72.7013 50.9635L25.2981 23.6125Z" fill="#434446"/>
<path d="M25.2981 23.3843L7.05151 33.9331L54.4547 61.284L72.7013 50.7542L25.2981 23.3843Z" fill="#26292B"/>
<path d="M25.2981 23.1753L7.05151 33.7051L54.4547 61.075L72.7013 50.5452L25.2981 23.1753Z" fill="#34373A"/>
<path d="M59.3774 64.3443V69.6852L59.4535 69.6472V64.3823L67.7025 59.6116V64.8575L67.7785 64.8194V59.4785L67.7215 59.5165L59.3774 64.3443Z" fill="#B5BCC3"/>
<path d="M25.241 21.2366L72.7012 48.6065V50.5262L25.298 23.1563L25.127 21.3126L25.241 21.2366Z" fill="#636466"/>
<path d="M25.127 21.3125L72.5301 48.6824V50.6021L25.127 23.2322V21.3125Z" fill="#434446"/>
<path d="M72.7011 48.6064L72.53 48.6825V50.6022L72.7011 50.5261V48.6064Z" fill="#353638"/>
<path d="M54.2646 60.828V59.2694L54.2837 59.2884L54.4547 59.1934L54.8539 58.3381L55.6902 57.8439L56.0703 58.243L56.2414 58.148L56.6405 57.2927L57.4768 56.7985L57.876 57.2167L58.047 57.1216L58.4272 56.2473L59.2825 55.7721L59.6626 56.1713L59.8337 56.0762L60.2328 55.2209L61.0691 54.7268L61.4683 55.1449L61.6393 55.0499L62.0195 54.1946L62.8558 53.7004L63.2549 54.0995L63.426 54.0045L63.8061 53.1492L64.6614 52.655L65.0416 53.0732L65.2126 52.9781L65.6118 52.1228L66.4481 51.6286L66.8282 52.0468L66.9993 51.9327L67.3984 51.0774L68.2347 50.6023L68.6149 51.0014L68.7859 50.9064L69.1851 50.0511L70.0214 49.5569L70.4205 49.975L70.5916 49.88L70.9717 49.0247L71.808 48.5305L72.2072 48.9297L72.2452 48.9107V48.9677V50.4502L54.2646 60.828Z" fill="#636466"/>
<path d="M54.4167 60.9039V59.3453L54.4358 59.3643L54.6068 59.2693L54.987 58.414L55.8423 57.9198L56.2224 58.319L56.3935 58.2239L56.7926 57.3686L57.6289 56.8935L58.0281 57.2926L58.1991 57.1976L58.5793 56.3423L59.4346 55.8481L59.8147 56.2472L59.9858 56.1522L60.3659 55.2969L61.2212 54.8217L61.6014 55.2208L61.7724 55.1258L62.1716 54.2705L63.0079 53.7763L63.407 54.1945L63.5781 54.0804L63.9582 53.2251L64.8135 52.7499L65.1937 53.1491L65.3647 53.0541L65.7449 52.1987L66.6002 51.7046L66.9803 52.1227L67.1514 52.0277L67.5315 51.1724L68.3868 50.6782L68.7669 51.0773L68.938 50.9823L69.3372 50.127L70.1735 49.6328L70.5536 50.051L70.7247 49.9559L71.1238 49.1006L71.9601 48.6064L72.3593 49.0246L72.3783 49.0056V49.0436V50.5261L54.4167 60.9039Z" fill="#26292B"/>
<path d="M52.0789 59.5545V57.996L52.0979 58.015L52.2689 57.9199L52.6491 57.0646L53.4854 56.5705L53.8845 56.9696L54.0556 56.8746L54.4357 56.0193L55.291 55.5441L55.6712 55.9432L55.8422 55.8482L56.2414 54.9929L57.0777 54.4987L57.4768 54.8979L57.6479 54.8028L58.028 53.9475L58.8833 53.4723L59.2635 53.8715L59.4345 53.7764L59.8147 52.9211L60.67 52.427L61.0501 52.8451L61.2212 52.7311L61.6203 51.8758L62.4566 51.4006L62.8558 51.7997L63.0268 51.7047L63.407 50.8494L64.2433 50.3552L64.6424 50.7734L64.8135 50.6783L65.1936 49.823L66.0299 49.3288L66.4291 49.728L66.6001 49.6329L66.9803 48.7776L67.8356 48.3025L68.2157 48.7016L68.3868 48.6066L68.7859 47.7513L69.6222 47.2571L70.0024 47.6752L70.0404 47.6562V47.7132V49.1768L52.0789 59.5545Z" fill="#636466"/>
<path d="M52.2119 59.6305V58.0719L52.2309 58.0909L52.402 57.9959L52.8011 57.1406L53.6374 56.6464L54.0366 57.0645L54.2076 56.9505L54.5878 56.0952L55.4431 55.62L55.8232 56.0192L55.9943 55.9241L56.3934 55.0688L57.2297 54.5746L57.6289 54.9928L57.7809 54.8787L58.1801 54.0234L59.0164 53.5483L59.4155 53.9474L59.5866 53.8524L59.9667 52.9971L60.822 52.5029L61.2022 52.921L61.3732 52.826L61.7724 51.9707L62.6087 51.4765L62.9888 51.8757L63.1599 51.7806L63.559 50.9253L64.3953 50.4501L64.7945 50.8493L64.9465 50.7542L65.3457 49.8989L66.182 49.4048L66.5811 49.8229L66.7522 49.7089L67.1323 48.8726L67.9686 48.3784L68.3678 48.7775L68.5388 48.6825L68.919 47.8272L69.7743 47.333L70.1544 47.7512L70.1924 47.7322V47.7892V49.2527L52.2119 59.6305Z" fill="#26292B"/>
<path d="M49.874 58.2811V56.7225L49.893 56.7415L50.0641 56.6465L50.4442 55.7912L51.2995 55.297L51.6797 55.7152L51.8507 55.6201L52.2499 54.7458L53.0862 54.2706L53.4853 54.6698L53.6564 54.5748L54.0365 53.7194L54.8918 53.2253L55.272 53.6434L55.443 53.5484L55.8422 52.6931L56.6785 52.1989L57.0776 52.598L57.2297 52.503L57.6288 51.6477L58.4651 51.1725L58.8643 51.5717L59.0353 51.4766L59.4155 50.6213L60.2708 50.1271L60.6509 50.5263L60.822 50.4313L61.2021 49.5759L62.0574 49.1008L62.4376 49.4999L62.6086 49.4049L63.0078 48.5496L63.8441 48.0554L64.2242 48.4735L64.3953 48.3785L64.7944 47.5232L65.6307 47.029L66.0299 47.4282L66.2009 47.3331L66.5811 46.4778L67.4174 45.9836L67.8165 46.4018L67.8545 46.3828V46.4398V47.9033L49.874 58.2811Z" fill="#636466"/>
<path d="M50.0261 58.3761V56.7985L50.0451 56.8175L50.2162 56.7225L50.5963 55.8672L51.4516 55.392L51.8318 55.7911L52.0028 55.6961L52.402 54.8408L53.2383 54.3466L53.6374 54.7458L53.8085 54.6507L54.1886 53.7954L55.0249 53.3202L55.4241 53.7194L55.5951 53.6243L55.9753 52.769L56.8306 52.2749L57.2107 52.674L57.3818 52.579L57.7809 51.7237L58.6172 51.2485L59.0164 51.6476L59.1874 51.5526L59.5676 50.6973L60.4039 50.2031L60.803 50.6213L60.9741 50.5072L61.3542 49.6519L62.2095 49.1767L62.5897 49.5759L62.7607 49.4808L63.1409 48.6255L63.9962 48.1314L64.3763 48.5495L64.5474 48.4545L64.9465 47.5992L65.7828 47.105L66.163 47.5041L66.334 47.4091L66.7332 46.5538L67.5695 46.0786L67.9686 46.4778L67.9876 46.4588V46.5158V47.9983L50.0261 58.3761Z" fill="#26292B"/>
<path d="M47.6882 57.0265V55.4679V55.4869L47.8593 55.3729L48.2584 54.5176L49.0947 54.0424L49.4939 54.4415L49.6649 54.3465L50.0451 53.4912L50.9004 52.997L51.2805 53.4151L51.4516 53.3011L51.8507 52.4458L52.687 51.9706L53.0862 52.3698L53.2572 52.2747L53.6374 51.4194L54.4927 50.9253L54.8728 51.3434L55.0439 51.2294L55.424 50.374L56.2793 49.8989L56.6595 50.298L56.8305 50.203L57.2297 49.3477L58.066 48.8535L58.4651 49.2716L58.6362 49.1766L59.0163 48.3023L59.8526 47.8271L60.2518 48.2263L60.4228 48.1312L60.803 47.2759L61.6393 46.8008L62.0384 47.1999L62.2095 47.1049L62.5896 46.2496L63.4449 45.7554L63.8251 46.1735L63.9961 46.0595L64.3763 45.2042L65.2316 44.729L65.6117 45.1281L65.6497 45.1091V45.1662V46.6487L47.6882 57.0265Z" fill="#636466"/>
<path d="M47.8213 57.1026V55.5441L47.8403 55.5631L48.0114 55.449L48.4105 54.6127L49.2468 54.1186L49.6459 54.5177L49.817 54.4227L50.1972 53.5674L51.0525 53.0732L51.4326 53.4913L51.6037 53.3963L51.9838 52.522L52.8391 52.0468L53.2192 52.4459L53.3903 52.3509L53.7895 51.4956L54.6258 51.0014L55.0249 51.4196L55.196 51.3245L55.5761 50.4692L56.4314 49.9751L56.8115 50.3742L56.9826 50.2792L57.3627 49.4238L58.2181 48.9297L58.5982 49.3478L58.7693 49.2528L59.1684 48.3975L60.0047 47.9033L60.4038 48.3024L60.5559 48.2074L60.955 47.3521L61.7914 46.8769L62.1905 47.2761L62.3616 47.181L62.7417 46.3257L63.578 45.8315L63.9771 46.2497L64.1482 46.1547L64.5283 45.2994L65.3837 44.8052L65.7638 45.2043L65.8018 45.1853V45.2423V46.7249L47.8213 57.1026Z" fill="#26292B"/>
<path d="M45.4834 55.753V54.1945L45.5024 54.2135L45.6735 54.1184L46.0536 53.2631L46.9089 52.7689L47.2891 53.1681L47.4601 53.0731L47.8593 52.2177L48.6956 51.7236L49.0947 52.1417L49.2658 52.0467L49.6459 51.1914L50.5012 50.6972L50.8814 51.0963L51.0524 51.0013L51.4516 50.146L52.2879 49.6518L52.668 50.07L52.8391 49.9749L53.2382 49.1196L54.0745 48.6254L54.4737 49.0246L54.6447 48.9296L55.0249 48.0742L55.8802 47.5991L56.2603 47.9982L56.4314 47.9032L56.8115 47.0479L57.6668 46.5537L58.047 46.9718L58.218 46.8578L58.6172 46.0025L59.4535 45.5273L59.8336 45.9265L60.0047 45.8314L60.4038 44.9761L61.2401 44.4819L61.6393 44.9001L61.8103 44.8051L62.1905 43.9497L63.0268 43.4556L63.4259 43.8547L63.4449 43.8357V43.8927V45.3753L45.4834 55.753Z" fill="#636466"/>
<path d="M45.6355 55.8292V54.2706L45.6545 54.2896L45.8256 54.1946L46.2057 53.3393L47.061 52.8451L47.4412 53.2443L47.6122 53.1492L48.0114 52.2939L48.8477 51.8187L49.2468 52.2179L49.3989 52.1229L49.798 51.2675L50.6343 50.7734L51.0335 51.1725L51.2045 51.0775L51.5847 50.2222L52.44 49.747L52.8201 50.1461L52.9912 50.0511L53.3903 49.1958L54.2266 48.7016L54.6258 49.1198L54.7778 49.0057L55.177 48.1504L56.0133 47.6752L56.4124 48.0744L56.5835 47.9794L56.9636 47.124L57.7999 46.6299L58.199 47.048L58.3701 46.953L58.7503 46.0977L59.6056 45.6035L59.9857 46.0026L60.1568 45.9076L60.5369 45.0523L61.3922 44.5771L61.7723 44.9763L61.9434 44.8812L62.3426 44.0259L63.1789 43.5317L63.559 43.9499L63.597 43.9309V43.9689V45.4514L45.6355 55.8292Z" fill="#26292B"/>
<path d="M43.2786 54.4796V52.921L43.2976 52.94L43.4686 52.845L43.8678 51.9897L44.7041 51.4955L45.1032 51.8946L45.2743 51.7996L45.6544 50.9443L46.5097 50.4691L46.8899 50.8683L47.0609 50.7732L47.4601 49.9179L48.2964 49.4237L48.6955 49.8229L48.8476 49.7279L49.2467 48.8726L50.102 48.3974L50.4822 48.7965L50.6532 48.7015L51.0334 47.8462L51.8887 47.352L52.2688 47.7702L52.4399 47.6561L52.839 46.8008L53.6753 46.3256L54.0555 46.7248L54.2265 46.6297L54.6257 45.7744L55.462 45.2802L55.8611 45.6984L56.0322 45.6034L56.4123 44.7481L57.2486 44.2539L57.6478 44.672L57.8188 44.558L58.199 43.7027L59.0543 43.2275L59.4344 43.6266L59.6055 43.5316L59.9856 42.6763L60.8409 42.1821L61.2211 42.6003L61.2591 42.5813V42.6383V44.1018L43.2786 54.4796Z" fill="#636466"/>
<path d="M43.4307 54.5555V52.9969L43.4497 53.016L43.6207 52.9209L44.0199 52.0656L44.8562 51.5714L45.2553 51.9896L45.4264 51.8755L45.8065 51.0202L46.6618 50.5451L47.042 50.9442L47.213 50.8492L47.5932 49.9939L48.4485 49.4997L48.8286 49.9178L48.9997 49.8228L49.3988 48.9675L50.2351 48.4733L50.6343 48.8725L50.8053 48.7774L51.1855 47.9221L52.0218 47.4279L52.4209 47.8461L52.592 47.751L52.9721 46.8957L53.8274 46.4016L54.2076 46.8007L54.3786 46.7057L54.7778 45.8504L55.6141 45.3752L55.9942 45.7743L56.1653 45.6793L56.5644 44.824L57.4007 44.3298L57.7809 44.748L57.9519 44.6529L58.3511 43.7976L59.1874 43.3034L59.5865 43.7026L59.7576 43.6075L60.1377 42.7522L60.993 42.2581L61.3732 42.6762L61.4112 42.6572V42.7142V44.1778L43.4307 54.5555Z" fill="#26292B"/>
<path d="M41.0928 53.2062V51.6476L41.1118 51.6666L41.2828 51.5716L41.663 50.7163L42.5183 50.2221L42.8984 50.6403L43.0695 50.5452L43.4686 49.6899L44.3049 49.1957L44.7041 49.5949L44.8751 49.4998L45.2553 48.6445L46.1106 48.1504L46.4907 48.5685L46.6618 48.4735L47.0419 47.6182L47.8972 47.124L48.2774 47.5231L48.4484 47.4281L48.8476 46.5728L49.6839 46.0976L50.083 46.4968L50.2541 46.4017L50.6342 45.5464L51.4895 45.0522L51.8697 45.4514L52.0407 45.3563L52.4209 44.501L53.2762 44.0259L53.6563 44.425L53.8274 44.33L54.2075 43.4747L55.0628 42.9805L55.443 43.3986L55.614 43.3036L56.0132 42.4483L56.8495 41.9541L57.2486 42.3533L57.4007 42.2582L57.7998 41.4029L58.6361 40.9277L59.0353 41.3269L59.0543 41.3079V41.3649V42.8474L41.0928 53.2062Z" fill="#636466"/>
<path d="M41.2449 53.3011V51.7426L41.2639 51.7616L41.4349 51.6475L41.8151 50.7922L42.6704 50.317L43.0505 50.7162L43.2216 50.6212L43.6207 49.7658L44.457 49.2717L44.8372 49.6708L45.0082 49.5758L45.4074 48.7205L46.2437 48.2453L46.6428 48.6444L46.8139 48.5494L47.194 47.6941L48.0493 47.1999L48.4295 47.5991L48.6005 47.504L48.9807 46.6487L49.836 46.1735L50.2161 46.5727L50.3872 46.4776L50.7863 45.6223L51.6226 45.1282L52.0218 45.5463L52.1928 45.4323L52.573 44.577L53.4093 44.1018L53.8084 44.5009L53.9795 44.4059L54.3596 43.5506L55.2149 43.0754L55.5951 43.4746L55.7661 43.3795L56.1463 42.5242L57.0016 42.03L57.3817 42.4482L57.5528 42.3341L57.9519 41.4788L58.7882 41.0037L59.1684 41.4028L59.2064 41.3838V41.4408V42.9234L41.2449 53.3011Z" fill="#26292B"/>
<path d="M38.8882 51.9518V50.3932L38.9072 50.4122L39.0783 50.2982L39.4774 49.4428L40.3137 48.9677L40.7128 49.3668L40.8839 49.2718L41.264 48.4165L42.1194 47.9223L42.4995 48.3404L42.6706 48.2264L43.0697 47.3711L43.906 46.8959L44.3052 47.2951L44.4572 47.2L44.8563 46.3447L45.6927 45.8505L46.0918 46.2687L46.2629 46.1547L46.643 45.2993L47.4983 44.8242L47.8784 45.2233L48.0495 45.1283L48.4486 44.273L49.285 43.7788L49.6651 44.1969L49.8362 44.1019L50.2353 43.2466L51.0716 42.7524L51.4707 43.1516L51.6228 43.0565L52.0219 42.2012L52.8583 41.726L53.2574 42.1252L53.4285 42.0302L53.8086 41.1748L54.6449 40.6807L55.044 41.0988L55.2151 40.9848L55.5952 40.1295L56.4506 39.6543L56.8307 40.0534L56.8687 40.0344V40.0915V41.574L38.8882 51.9518Z" fill="#636466"/>
<path d="M39.04 52.0277V50.4691L39.059 50.4881L39.2301 50.3931L39.6293 49.5378L40.4656 49.0436L40.8647 49.4427L41.0168 49.3477L41.4159 48.4924L42.2522 47.9982L42.6513 48.4164L42.8224 48.3213L43.2025 47.466L44.0579 46.9718L44.438 47.371L44.6091 47.276L45.0082 46.4206L45.8445 45.9265L46.2436 46.3446L46.4147 46.2496L46.7948 45.3943L47.6312 44.9001L48.0303 45.2992L48.2014 45.2042L48.5815 44.3489L49.4368 43.8737L49.8169 44.2729L49.988 44.1778L50.3872 43.3225L51.2235 42.8283L51.6036 43.2465L51.7747 43.1325L52.1738 42.2771L53.0101 41.802L53.3902 42.2011L53.5613 42.1061L53.9604 41.2508L54.7968 40.7566L55.1959 41.1747L55.367 41.0797L55.7471 40.2244L56.6024 39.7302L56.9825 40.1294L57.0206 40.1104V40.1674V41.6499L39.04 52.0277Z" fill="#26292B"/>
<path d="M36.7024 50.6783V49.1198L36.7214 49.1388L36.8925 49.0437L37.2726 48.1884L38.1279 47.6942L38.508 48.0934L38.6791 47.9983L39.0783 47.143L39.9146 46.6489L40.3137 47.067L40.4848 46.972L40.8649 46.1167L41.7012 45.6225L42.1004 46.0216L42.2714 45.9266L42.6515 45.0713L43.5069 44.5771L43.887 44.9953L44.0581 44.9002L44.4572 44.0449L45.2935 43.5507L45.6927 43.9499L45.8447 43.8548L46.2439 42.9995L47.0802 42.5244L47.4793 42.9235L47.6504 42.8285L48.0305 41.9732L48.8858 41.479L49.2659 41.8971L49.437 41.7831L49.8171 40.9468L50.6725 40.4526L51.0526 40.8518L51.2237 40.7567L51.6228 39.9014L52.4591 39.4072L52.8392 39.8254L53.0103 39.7303L53.4095 38.875L54.2458 38.3809L54.6449 38.799L54.6639 38.78V38.818V40.3006L36.7024 50.6783Z" fill="#636466"/>
<path d="M36.8542 50.7542V49.1957L36.8733 49.2147L37.0253 49.1197L37.4245 48.2643L38.2798 47.7702L38.6599 48.1883L38.831 48.0743L39.2111 47.219L40.0664 46.7438L40.4465 47.1429L40.6176 47.0479L41.0168 46.1926L41.8531 45.6984L42.2522 46.1166L42.4233 46.0025L42.8034 45.1472L43.6587 44.672L44.0389 45.0712L44.2099 44.9761L44.5901 44.1208L45.4454 43.6267L45.8255 44.0448L45.9966 43.9308L46.3957 43.0755L47.232 42.6003L47.6312 42.9994L47.8022 42.9044L48.1824 42.0491L49.0187 41.5549L49.4178 41.9731L49.5889 41.878L49.969 41.0227L50.8053 40.5285L51.2044 40.9467L51.3755 40.8326L51.7556 39.9773L52.611 39.5022L52.9911 39.9013L53.1622 39.8063L53.5613 38.951L54.3976 38.4568L54.7777 38.8749L54.8158 38.8559V38.913V40.3765L36.8542 50.7542Z" fill="#26292B"/>
<path d="M34.4976 49.4049V47.8463L34.5166 47.8653L34.6876 47.7703L35.0868 46.915L35.9231 46.4208L36.3222 46.839L36.4933 46.7249L36.8734 45.8696L37.7287 45.3944L38.1089 45.7936L38.2799 45.6985L38.6601 44.8432L39.5154 44.349L39.8955 44.7672L40.0666 44.6532L40.4657 43.7978L41.302 43.3227L41.7012 43.7218L41.8722 43.6268L42.2524 42.7715L43.1077 42.2773L43.4878 42.6954L43.6589 42.6004L44.039 41.7451L44.8943 41.2509L45.2745 41.6501L45.4455 41.555L45.8447 40.6997L46.681 40.2246L47.0801 40.6237L47.2322 40.5287L47.6313 39.6734L48.4676 39.1792L48.8668 39.5973L49.0188 39.4833L49.418 38.628L50.2543 38.1528L50.6534 38.5519L50.8245 38.4569L51.2046 37.6016L52.0599 37.1074L52.4401 37.5256L52.4781 37.5066V37.5636V39.0271L34.4976 49.4049Z" fill="#636466"/>
<path d="M34.6497 49.4808V47.9223L34.6687 47.9413L34.8397 47.8463L35.2199 46.9909L36.0752 46.4968L36.4553 46.9149L36.6264 46.8199L37.0255 45.9646L37.8618 45.4704L38.261 45.8695L38.432 45.7745L38.8122 44.9192L39.6675 44.425L40.0476 44.8432L40.2187 44.7481L40.6178 43.8928L41.4541 43.3986L41.8533 43.7978L42.0053 43.7028L42.4045 42.8474L43.2408 42.3723L43.6399 42.7714L43.811 42.6764L44.1911 41.8211L45.0464 41.3269L45.4266 41.726L45.5976 41.631L45.9968 40.7757L46.8331 40.3005L47.2132 40.6997L47.3843 40.6046L47.7834 39.7493L48.6197 39.2551L48.9999 39.6733L49.1709 39.5783L49.5701 38.7229L50.4064 38.2288L50.8055 38.6279L50.9766 38.5329L51.3567 37.6776L52.193 37.2024L52.5922 37.6015L52.6302 37.5825V37.6396V39.1221L34.6497 49.4808Z" fill="#26292B"/>
<path d="M32.3118 48.1502V46.5727L32.3308 46.5917L32.5018 46.4966L32.882 45.6413L33.7373 45.1472L34.1174 45.5653L34.2885 45.4703L34.6876 44.615L35.5239 44.1208L35.9231 44.5199L36.0751 44.4249L36.4743 43.5696L37.3106 43.0944L37.7097 43.4936L37.8808 43.3985L38.2609 42.5432L39.1162 42.049L39.4964 42.4482L39.6674 42.3531L40.0666 41.4978L40.9029 41.0227L41.302 41.4218L41.4541 41.3268L41.8532 40.4715L42.6895 39.9773L43.0887 40.3954L43.2597 40.2814L43.6399 39.4261L44.4952 38.9509L44.8753 39.3501L45.0464 39.255L45.4265 38.3997L46.2818 37.9055L46.662 38.3237L46.833 38.2286L47.2132 37.3733L48.0685 36.8792L48.4486 37.2783L48.6197 37.1833L49.0188 36.328L49.8551 35.8528L50.2353 36.2519L50.2733 36.2329V36.2899V37.7725L32.3118 48.1502Z" fill="#636466"/>
<path d="M32.4639 48.2264V46.6678V46.6869L32.6349 46.5728L33.0341 45.7175L33.8704 45.2423L34.2695 45.6415L34.4406 45.5464L34.8207 44.6911L35.676 44.1969L36.0562 44.6151L36.2272 44.5011L36.6264 43.6458L37.4627 43.1706L37.8618 43.5697L38.0329 43.4747L38.413 42.6194L39.2493 42.1252L39.6485 42.5434L39.8195 42.4293L40.1997 41.574L41.055 41.0988L41.4351 41.498L41.6062 41.4029L42.0053 40.5476L42.8416 40.0534L43.2408 40.4716L43.4118 40.3766L43.792 39.5213L44.6283 39.0271L45.0274 39.4262L45.1985 39.3312L45.5786 38.4759L46.4149 38.0007L46.8141 38.3999L46.9851 38.3048L47.3653 37.4495L48.2206 36.9553L48.6007 37.3735L48.7718 37.2594L49.1709 36.4041L50.0072 35.929L50.3874 36.3281L50.4254 36.3091V36.3661V37.8486L32.4639 48.2264Z" fill="#26292B"/>
<path d="M30.1069 46.8768V45.3182L30.1259 45.3372L30.297 45.2232L30.6961 44.3869L31.5325 43.8927L31.9316 44.2919L32.1027 44.1968L32.4828 43.3415L33.3381 42.8473L33.7182 43.2655L33.8893 43.1515L34.2694 42.2961L35.1248 41.821L35.5049 42.2201L35.676 42.1251L36.0751 41.2698L36.9114 40.7756L37.3105 41.1937L37.4816 41.0987L37.8617 40.2434L38.698 39.7492L39.0972 40.1484L39.2683 40.0533L39.6484 39.198L40.5037 38.7038L40.8838 39.122L41.0549 39.027L41.4541 38.1716L42.2904 37.6775L42.6705 38.0766L42.8416 37.9816L43.2407 37.1263L44.077 36.6511L44.4571 37.0502L44.6282 36.9552L45.0273 36.0999L45.8636 35.6057L46.2628 36.0239L46.4339 35.9288L46.814 35.0735L47.6693 34.5793L48.0494 34.9785L48.0875 34.9595V35.0165V36.499L30.1069 46.8768Z" fill="#636466"/>
<path d="M30.259 46.953V45.3944L30.278 45.4134L30.4491 45.3184L30.8292 44.4631L31.6845 43.9689L32.0647 44.368L32.2357 44.273L32.6349 43.4177L33.4712 42.9235L33.8703 43.3417L34.0414 43.2466L34.4215 42.3913L35.2769 41.8971L35.657 42.2963L35.8281 42.2012L36.2272 41.3459L37.0635 40.8518L37.4436 41.2699L37.6147 41.1749L38.0138 40.3196L38.8501 39.8254L39.2493 40.2245L39.4204 40.1295L39.8005 39.2742L40.6558 38.799L41.0359 39.1982L41.207 39.1031L41.5871 38.2478L42.4424 37.7536L42.8226 38.1718L42.9936 38.0768L43.3738 37.2214L44.2291 36.7273L44.6092 37.1264L44.7803 37.0314L45.1794 36.1761L46.0157 35.6819L46.4149 36.1L46.586 36.005L46.9661 35.1497L47.8024 34.6555L48.2015 35.0737L48.2395 35.0547L48.2205 35.0927V36.5752L30.259 46.953Z" fill="#26292B"/>
<path d="M27.9211 45.6034V44.0448L27.9402 44.0638L28.1112 43.9688L28.4913 43.1135L29.3467 42.6193L29.7268 43.0184L29.8979 42.9234L30.297 42.0681L31.1333 41.5929L31.5134 41.9921L31.6845 41.897L32.0837 41.0417L32.92 40.5475L33.3191 40.9467L33.4902 40.8516L33.8703 39.9963L34.7256 39.5212L35.1057 39.9203L35.2768 39.8253L35.6569 38.97L36.5123 38.4758L36.8924 38.8939L37.0635 38.7799L37.4626 37.9246L38.2989 37.4494L38.698 37.8486L38.8691 37.7535L39.2493 36.8982L40.0856 36.404L40.4847 36.8222L40.6558 36.7271L41.0359 35.8718L41.8912 35.3777L42.2713 35.7768L42.4424 35.6818L42.8225 34.8265L43.6779 34.3513L44.058 34.7504L44.2291 34.6554L44.6282 33.8001L45.4645 33.3059L45.8446 33.7241L45.8827 33.7051V33.7431V35.2256L27.9211 45.6034Z" fill="#636466"/>
<path d="M28.0542 45.6793V44.1207L28.0732 44.1397L28.2443 44.0447L28.6434 43.1894L29.4797 42.6952L29.8789 43.1134L30.0499 42.9993L30.4301 42.144L31.2854 41.6688L31.6655 42.068L31.8366 41.973L32.2357 41.1176L33.072 40.6235L33.4712 41.0416L33.6422 40.9276L34.0224 40.0723L34.8587 39.5971L35.2578 39.9962L35.4289 39.9012L35.809 39.0459L36.6643 38.5517L37.0445 38.9699L37.2155 38.8748L37.6147 38.0195L38.451 37.5253L38.8501 37.9245L39.0022 37.8295L39.4013 36.9741L40.2376 36.499L40.6368 36.8981L40.8078 36.8031L41.188 35.9478L42.0243 35.4536L42.4234 35.8717L42.5945 35.7577L42.9746 34.9024L43.8299 34.4272L44.2101 34.8264L44.3811 34.7313L44.7613 33.876L45.6166 33.3818L45.9967 33.8L46.0347 33.781V33.838V35.3015L28.0542 45.6793Z" fill="#26292B"/>
<path d="M25.7163 44.3299V42.7714L25.7353 42.7904L25.9064 42.6953L26.3055 41.84L27.1418 41.3458L27.541 41.764L27.693 41.65L28.0922 40.7946L28.9285 40.3195L29.3276 40.7186L29.4987 40.6236L29.8788 39.7683L30.7341 39.2741L31.1143 39.6922L31.2853 39.5782L31.6845 38.7419L32.5208 38.2477L32.9199 38.6469L33.091 38.5518L33.4711 37.6965L34.3074 37.2023L34.7066 37.6205L34.8776 37.5255L35.2578 36.6702L36.1131 36.176L36.4932 36.5751L36.6643 36.4801L37.0634 35.6248L37.8997 35.1496L38.2799 35.5487L38.4509 35.4537L38.8501 34.5984L39.6864 34.1042L40.0665 34.5224L40.2376 34.4083L40.6367 33.553L41.473 33.0778L41.8722 33.477L42.0432 33.382L42.4234 32.5266L43.2787 32.0325L43.6588 32.4506L43.6968 32.4316V32.4886V33.9522L25.7163 44.3299Z" fill="#636466"/>
<path d="M25.8684 44.4249V42.8473L25.8874 42.8663L26.0585 42.7713L26.4386 41.916L27.2939 41.4218L27.6741 41.84L27.8451 41.7449L28.2443 40.8896L29.0806 40.3954L29.4797 40.7946L29.6508 40.6995L30.0309 39.8442L30.8862 39.3691L31.2664 39.7682L31.4374 39.6732L31.8176 38.8179L32.6729 38.3237L33.053 38.7228L33.2241 38.6278L33.6232 37.7725L34.4595 37.2973L34.8587 37.6965L35.0297 37.6014L35.4099 36.7461L36.2652 36.2519L36.6453 36.6701L36.8164 36.556L37.1965 35.7007L38.0518 35.2256L38.432 35.6247L38.603 35.5297L38.9832 34.6744L39.8385 34.1802L40.2186 34.5983L40.3897 34.5033L40.7888 33.648L41.6251 33.1538L42.0053 33.553L42.1763 33.4579L42.5755 32.6026L43.4118 32.1274L43.8109 32.5266L43.8299 32.5076V32.5646V34.0471L25.8684 44.4249Z" fill="#26292B"/>
<path d="M23.5305 43.0755V41.517H23.5495L23.7016 41.4219L24.1007 40.5666L24.937 40.0724L25.3362 40.4906L25.5072 40.3956L25.8874 39.5403L26.7427 39.0461L27.1228 39.4452L27.2939 39.3502L27.693 38.4949L28.5293 38.0197L28.9285 38.4188L29.0995 38.3238L29.4797 37.4685L30.335 36.9743L30.7151 37.3925L30.8862 37.2784L31.2663 36.4231L32.1216 35.9479L32.5018 36.3471L32.6728 36.2521L33.072 35.3968L33.9083 34.9026L34.3074 35.3207L34.4785 35.2257L34.8586 34.3514L35.6949 33.8762L36.0941 34.2753L36.2651 34.1803L36.6453 33.325L37.4816 32.8498L37.8807 33.249L38.0518 33.1539L38.4319 32.2986L39.2872 31.8044L39.6674 32.2226L39.8384 32.1086L40.2376 31.2532L41.0739 30.7781L41.454 31.1772L41.492 31.1582V31.2152V32.6978L23.5305 43.0755Z" fill="#636466"/>
<path d="M23.6636 43.1515V41.5929L23.6826 41.6119L23.8536 41.5169L24.2528 40.6426L25.0891 40.1674L25.4882 40.5665L25.6593 40.4715L26.0394 39.6162L26.8947 39.122L27.2749 39.5402L27.4459 39.4261L27.8451 38.5708L28.6814 38.0956L29.0805 38.4948L29.2326 38.3997L29.6317 37.5444L30.468 37.0502L30.8672 37.4684L31.0382 37.3734L31.4184 36.5181L32.2737 36.0239L32.6538 36.423L32.8249 36.328L33.224 35.4727L34.0603 34.9785L34.4405 35.3966L34.6115 35.3016L35.0107 34.4463L35.847 33.9521L36.2461 34.3513L36.3982 34.2562L36.7973 33.4009L37.6336 32.9258L38.0328 33.3249L38.2038 33.2299L38.584 32.3746L39.4203 31.8804L39.8194 32.2985L39.9905 32.2035L40.3706 31.3482L41.2259 30.854L41.6061 31.2531L41.6441 31.2341V31.2912V32.7737L23.6636 43.1515Z" fill="#26292B"/>
<path d="M21.3257 41.8021V40.2435L21.3447 40.2625L21.5158 40.1675L21.9149 39.3122L22.7512 38.818L23.1503 39.2172L23.3024 39.1221L23.7015 38.2668L24.5378 37.7726L24.937 38.1908L25.1081 38.0958L25.4882 37.2404L26.3435 36.7463L26.7236 37.1454L26.8947 37.0504L27.2938 36.1951L28.1302 35.7009L28.5293 36.119L28.6813 36.024L29.0805 35.1687L29.9168 34.6745L30.3159 35.0737L30.487 34.9786L30.8671 34.1233L31.7225 33.6291L32.1026 34.0473L32.2737 33.9523L32.6538 33.0969L33.5091 32.6028L33.8892 33.0209L34.0603 32.9069L34.4594 32.0516L35.2957 31.5764L35.6759 31.9755L35.8469 31.8805L36.2461 31.0252L37.0824 30.531L37.4815 30.9492L37.6526 30.8541L38.0327 29.9988L38.869 29.5046L39.2682 29.9038L39.3062 29.8848V29.9418V31.4243L21.3257 41.8021Z" fill="#636466"/>
<path d="M21.4778 41.878V40.3195L21.4968 40.3385L21.6679 40.2434L22.048 39.3881L22.9033 38.8939L23.2834 39.2931L23.4545 39.1981L23.8536 38.3427L24.6899 37.8486L25.0891 38.2667L25.2602 38.1717L25.6403 37.3164L26.4956 36.8222L26.8757 37.2213L27.0468 37.1263L27.4269 36.271L28.2822 35.7958L28.6624 36.195L28.8334 36.0999L29.2326 35.2446L30.0689 34.7504L30.468 35.1686L30.6201 35.0546L31.0192 34.1992L31.8555 33.7241L32.2547 34.1232L32.4257 34.0282L32.8059 33.1729L33.6612 32.6787L34.0413 33.0968L34.2124 33.0018L34.5925 32.1465L35.4478 31.6523L35.828 32.0515L35.999 31.9564L36.3792 31.1011L37.2345 30.6259L37.6146 31.0251L37.7857 30.9301L38.1848 30.0747L39.0211 29.5806L39.4203 29.9987L39.4393 29.9797V30.0177V31.5003L21.4778 41.878Z" fill="#26292B"/>
<path d="M19.1399 40.5287V38.9701L19.1589 38.9891L19.311 38.8941L19.7101 38.0388L20.5464 37.5446L20.9455 37.9437L21.1166 37.8487L21.4967 36.9934L22.3521 36.5182L22.7322 36.9173L22.9033 36.8223L23.3024 35.967L24.1387 35.4728L24.5378 35.891L24.7089 35.7769L25.089 34.9216L25.9444 34.4465L26.3245 34.8456L26.4956 34.7506L26.8757 33.8953L27.731 33.4011L28.1111 33.8192L28.2822 33.7242L28.6814 32.8499L29.5177 32.3747L29.9168 32.7738L30.0879 32.6788L30.468 31.8235L31.3043 31.3293L31.7034 31.7475L31.8745 31.6524L32.2546 30.7971L33.0909 30.303L33.4901 30.7211L33.6612 30.6071L34.0413 29.7518L34.8966 29.2766L35.2767 29.6757L35.4478 29.5807L35.8279 28.7254L36.6833 28.2312L37.0634 28.6494L37.1014 28.6303V28.6874V30.1509L19.1399 40.5287Z" fill="#636466"/>
<path d="M19.2729 40.6046V39.046L19.292 39.065L19.463 38.97L19.8622 38.1147L20.6985 37.6205L21.0976 38.0387L21.2687 37.9246L21.6488 37.0693L22.5041 36.5941L22.8843 36.9933L23.0553 36.8982L23.4545 36.0429L24.2908 35.5488L24.6709 35.9669L24.842 35.8719L25.2411 35.0166L26.0774 34.5224L26.4766 34.9215L26.6476 34.8265L27.0278 33.9712L27.8831 33.477L28.2632 33.8952L28.4343 33.8001L28.8144 32.9448L29.6697 32.4506L30.0499 32.8498L30.2209 32.7547L30.6201 31.8994L31.4564 31.4243L31.8555 31.8234L32.0076 31.7284L32.4067 30.8731L33.243 30.3789L33.6422 30.797L33.8132 30.702L34.1934 29.8277L35.0297 29.3525L35.4288 29.7517L35.5999 29.6566L35.98 28.8013L36.8353 28.3071L37.2155 28.7253L37.2535 28.7063V28.7633V30.2458L19.2729 40.6046Z" fill="#26292B"/>
<path d="M16.9351 39.255V37.6965L16.9541 37.7155L17.1251 37.6204L17.5053 36.7651L18.3606 36.2709L18.7407 36.6891L18.9118 36.5941L19.3109 35.7387L20.1472 35.2446L20.5464 35.6437L20.7174 35.5487L21.0976 34.6934L21.9529 34.1992L22.333 34.6173L22.5041 34.5223L22.9032 33.667L23.7395 33.1728L24.1197 33.572L24.2907 33.4769L24.6899 32.6216L25.5262 32.1464L25.9253 32.5456L26.0964 32.4505L26.4765 31.5952L27.3318 31.1011L27.712 31.5002L27.883 31.4052L28.2632 30.5499L29.1185 30.0747L29.4986 30.4738L29.6697 30.3788L30.0688 29.5235L30.9051 29.0293L31.2853 29.4475L31.4563 29.3524L31.8555 28.4971L32.6918 28.0029L33.0909 28.4021L33.243 28.307L33.6421 27.4517L34.4784 26.9766L34.8776 27.3757L34.9156 27.3567L34.8966 27.4137V28.8963L16.9351 39.255Z" fill="#636466"/>
<path d="M17.0872 39.3502V37.7916H17.1062L17.2772 37.6966L17.6574 36.8413L18.5127 36.3661L18.8928 36.7653L19.0639 36.6702L19.463 35.8149L20.2993 35.3207L20.6985 35.7199L20.8505 35.6248L21.2497 34.7695L22.086 34.2944L22.4851 34.6935L22.6562 34.5985L23.0363 33.7432L23.8916 33.249L24.2718 33.6481L24.4428 33.5531L24.842 32.6978L25.6783 32.2226L26.0584 32.6218L26.2295 32.5267L26.6286 31.6714L27.4649 31.1772L27.8641 31.5954L28.0351 31.4813L28.4153 30.626L29.2706 30.1509L29.6507 30.55L29.8218 30.455L30.2019 29.5997L31.0572 29.1245L31.4374 29.5236L31.6084 29.4286L31.9886 28.5733L32.8439 28.0791L33.224 28.4783L33.3951 28.3832L33.7942 27.5279L34.6305 27.0527L35.0297 27.4519L35.0487 27.4329V27.4899V28.9724L17.0872 39.3502Z" fill="#26292B"/>
<path d="M14.7302 38.0006V36.442L14.7492 36.461L14.9203 36.347L15.3194 35.4917L16.1557 35.0165L16.5549 35.4156L16.7259 35.3206L17.1061 34.4653L17.9614 33.9711L18.3415 34.3893L18.5126 34.2752L18.9117 33.4199L19.748 32.9448L20.1472 33.3439L20.3182 33.2489L20.6984 32.3935L21.5347 31.8994L21.9338 32.3175L22.1049 32.2035L22.485 31.3482L23.3403 30.873L23.7205 31.2721L23.8915 31.1771L24.2907 30.3218L25.127 29.8276L25.5261 30.2458L25.6782 30.1507L26.0773 29.2954L26.9136 28.8012L27.3128 29.2004L27.4838 29.1054L27.864 28.25L28.7003 27.7749L29.0994 28.174L29.2705 28.079L29.6506 27.2237L30.5059 26.7295L30.8861 27.1476L31.0571 27.0336L31.4373 26.1783L32.2926 25.7031L32.6727 26.1023L32.7107 26.0833V26.1403V27.6228L14.7302 38.0006Z" fill="#636466"/>
<path d="M14.8823 38.0768V36.5182L14.9013 36.5372L15.0724 36.4232L15.4715 35.5869L16.3078 35.0927L16.707 35.4918L16.878 35.3968L17.2582 34.5415L18.1135 34.0473L18.4936 34.4654L18.6647 34.3704L19.0448 33.5151L19.9001 33.0209L20.2803 33.4201L20.4513 33.325L20.8505 32.4697L21.6868 31.9755L22.0859 32.3937L22.257 32.2987L22.6371 31.4434L23.4734 30.9492L23.8726 31.3483L24.0436 31.2533L24.4238 30.398L25.2791 29.9228L25.6592 30.3219L25.8303 30.2269L26.2294 29.3716L27.0657 28.8774L27.4459 29.2956L27.6169 29.1815L28.0161 28.3262L28.8524 27.851L29.2515 28.2502L29.4036 28.1552L29.8027 27.2998L30.639 26.8057L31.0382 27.2238L31.2092 27.1288L31.5894 26.2735L32.4447 25.7793L32.8248 26.1784L32.8628 26.1594V26.2165V27.699L14.8823 38.0768Z" fill="#26292B"/>
<path d="M12.5444 36.7271V35.1686L12.5634 35.1876L12.7345 35.0926L13.1146 34.2372L13.97 33.7431L14.3501 34.1422L14.5212 34.0472L14.9203 33.1919L15.7566 32.6977L16.1557 33.1158L16.3268 33.0208L16.7069 32.1655L17.5623 31.6713L17.9424 32.0705L18.1135 31.9754L18.5126 31.1201L19.3489 30.6259L19.729 31.0441L19.9001 30.9491L20.2992 30.0937L21.1355 29.5996L21.5347 29.9987L21.7058 29.9037L22.0859 29.0484L22.9412 28.5732L23.3213 28.9723L23.4924 28.8773L23.8725 28.022L24.7279 27.5278L25.108 27.946L25.2791 27.8509L25.6592 26.9956L26.5145 26.5014L26.8946 26.9006L27.0657 26.8055L27.4648 25.9502L28.3011 25.4561L28.7003 25.8742L28.8523 25.7792L29.2515 24.9239L30.0878 24.4297L30.4869 24.8478L30.5059 24.8098V24.8668V26.3494L12.5444 36.7271Z" fill="#636466"/>
<path d="M12.6965 36.8033V35.2448L12.7155 35.2638L12.8866 35.1687L13.2667 34.3134L14.122 33.8192L14.5022 34.2184L14.6733 34.1233L15.0724 33.268L15.9087 32.7929L16.3078 33.192L16.4599 33.097L16.859 32.2417L17.6953 31.7475L18.0945 32.1466L18.2656 32.0516L18.6457 31.1963L19.501 30.7211L19.8811 31.1203L20.0522 31.0252L20.4513 30.1699L21.2876 29.6757L21.6678 30.0939L21.8388 29.9798L22.238 29.1245L23.0743 28.6494L23.4734 29.0485L23.6445 28.9535L24.0246 28.0982L24.8609 27.604L25.2601 28.0221L25.4311 27.9271L25.8113 27.0718L26.6666 26.5776L27.0467 26.9958L27.2178 26.8817L27.5979 26.0264L28.4532 25.5512L28.8334 25.9504L29.0044 25.8553L29.4036 25L30.2399 24.5059L30.62 24.924L30.658 24.905V24.943V26.4256L12.6965 36.8033Z" fill="#26292B"/>
<path d="M10.3398 35.4537V33.8951L10.3589 33.9141L10.5299 33.8191L10.9291 32.9638L11.7654 32.4696L12.1645 32.8878L12.3356 32.7737L12.7157 31.9184L13.571 31.4433L13.9512 31.8424L14.1222 31.7474L14.5214 30.8921L15.3577 30.3979L15.7568 30.816L15.9089 30.702L16.308 29.8467L17.1443 29.3715L17.5435 29.7706L17.7145 29.6756L18.0947 28.8203L18.95 28.3261L19.3301 28.7443L19.5012 28.6492L19.9003 27.7939L20.7366 27.2997L21.1168 27.6989L21.2878 27.6039L21.687 26.7486L22.5233 26.2544L22.9224 26.6725L23.0935 26.5775L23.4736 25.7222L24.3099 25.228L24.7091 25.6462L24.8801 25.5321L25.2603 24.6768L26.1156 24.2016L26.4957 24.6008L26.6668 24.5057L27.0469 23.6504L27.9022 23.1562L28.2823 23.5744L28.3204 23.5554V23.6124V25.0759L10.3398 35.4537Z" fill="#636466"/>
<path d="M10.4917 35.5297V33.9711L10.5107 33.9901L10.6818 33.8951L11.0809 33.0398L11.9172 32.5456L12.3164 32.9637L12.4684 32.8687L12.8676 32.0134L13.7039 31.5192L14.103 31.9184L14.2741 31.8233L14.6542 30.968L15.5095 30.4738L15.8897 30.892L16.0607 30.797L16.4599 29.9416L17.2962 29.4475L17.6953 29.8466L17.8474 29.7516L18.2465 28.8963L19.0828 28.4211L19.482 28.8202L19.653 28.7252L20.0332 27.8699L20.8885 27.3757L21.2686 27.7749L21.4397 27.6798L21.8388 26.8245L22.6751 26.3493L23.0553 26.7485L23.2263 26.6535L23.6255 25.7981L24.4618 25.304L24.8419 25.7221L25.013 25.6271L25.4121 24.7718L26.2484 24.2776L26.6476 24.6767L26.8186 24.5817L27.1988 23.7264L28.0351 23.2512L28.4342 23.6504L28.4722 23.6314V23.6884V25.1709L10.4917 35.5297Z" fill="#26292B"/>
<path d="M8.15405 34.1993V32.6217L8.17306 32.6407L8.34412 32.5457L8.72426 31.6904L9.57957 31.1962L9.95971 31.6144L10.1308 31.5193L10.5299 30.664L11.3662 30.1699L11.7654 30.569L11.9364 30.474L12.3166 29.6187L13.1719 29.1245L13.552 29.5426L13.7231 29.4476L14.1032 28.5923L14.9585 28.0981L15.3387 28.4972L15.5097 28.4022L15.9089 27.5469L16.7452 27.0717L17.1443 27.4709L17.2964 27.3758L17.6955 26.5205L18.5318 26.0264L18.931 26.4255L19.102 26.3305L19.4822 25.4752L20.3375 25L20.7176 25.3991L20.8887 25.3041L21.2688 24.4488L22.1241 23.9546L22.5043 24.3728L22.6753 24.2777L23.0555 23.4224L23.9108 22.9282L24.2909 23.3274L24.462 23.2323L24.8611 22.377L25.6974 21.9019L26.0966 22.301L26.1156 22.282V22.339V23.8216L8.15405 34.1993Z" fill="#636466"/>
<path d="M8.30591 34.2752V32.7167L8.32491 32.7357L8.49598 32.6216L8.87611 31.7663L9.71242 31.2912L10.1116 31.6903L10.2826 31.5953L10.6628 30.74L11.5181 30.2458L11.8982 30.6639L12.0693 30.5499L12.4684 29.6946L13.3047 29.2194L13.7039 29.6186L13.8749 29.5235L14.2551 28.6682L15.1104 28.174L15.4905 28.5922L15.6616 28.4781L16.0417 27.6228L16.897 27.1477L17.2772 27.5468L17.4482 27.4518L17.8474 26.5965L18.6837 26.1023L19.0828 26.5204L19.2539 26.4254L19.634 25.5511L20.4703 25.0759L20.8695 25.4751L21.0405 25.38L21.4207 24.5247L22.257 24.0495L22.6561 24.4487L22.8272 24.3536L23.2073 23.4983L24.0626 23.0042L24.4428 23.4223L24.6138 23.3083L25.013 22.453L25.8493 21.9778L26.2294 22.3769L26.2674 22.3579V22.4149V23.8975L8.30591 34.2752Z" fill="#26292B"/>
<path d="M7.16556 31.7095L54.6258 59.0794V60.9991L7.22258 33.6292L7.05151 31.7855L7.16556 31.7095Z" fill="#636466"/>
<path d="M7.05151 31.7856L54.4547 59.1556V61.0753L7.05151 33.7053V31.7856Z" fill="#434446"/>
<path d="M54.6259 59.0796L54.4548 59.1556V61.0753L54.6259 60.9993V59.0796Z" fill="#353638"/>
<path d="M1.1024 48.0743V35.7958L1.97672 34.2563L3.5733 33.325L4.46662 33.8571V36.3851L5.81611 38.0387V45.3373L6.91851 44.7101V46.4207L0.760276 50.8493L0 50.4121V48.7015L1.1024 48.0743Z" fill="#434446"/>
<path d="M1.86265 48.4925V36.2141L2.75598 34.6745L4.33355 33.7622L5.22687 34.2754V36.8223L6.59537 38.4569V45.7746L7.69777 45.1283V46.839L0.760254 50.8494V49.1388L1.86265 48.4925Z" fill="#26292B"/>
<path d="M2.75589 34.6745L1.97661 34.2563L1.10229 35.7959L1.86257 36.2141L2.75589 34.6745Z" fill="#34373A"/>
<path d="M4.54269 36.841L4.73276 36.9361L4.63773 37.1071C4.61872 37.2592 4.52368 37.4303 4.39064 37.5253L4.2956 37.6963L4.10553 37.5823C4.04851 37.5443 4.0105 37.4873 4.0105 37.3732C4.0105 37.1832 4.14355 36.9361 4.31461 36.841C4.40964 36.822 4.48567 36.803 4.54269 36.841Z" fill="#747474"/>
<path d="M4.31464 37.6584L4.29564 37.6964L4.10557 37.5823C4.06755 37.5633 4.04855 37.5253 4.02954 37.4873L4.31464 37.6584Z" fill="#E2E2E8"/>
<path d="M4.56156 37.3161C4.54255 37.3352 4.52355 37.3732 4.50454 37.3922L4.06738 37.1451C4.08639 37.1071 4.1054 37.0881 4.1054 37.05L4.56156 37.3161Z" fill="#E2E2E8"/>
<path d="M4.65675 37.0499L4.63774 37.107L4.27661 36.8979C4.29562 36.8789 4.31463 36.8789 4.33363 36.8599L4.65675 37.0499Z" fill="#E2E2E8"/>
<path d="M4.6947 37.0311L4.37158 36.8601C4.44761 36.8221 4.50463 36.8411 4.54264 36.8601L4.73271 36.9551L4.6947 37.0311Z" fill="#E2E2E8"/>
<path d="M4.8277 37.1451C4.8277 36.9551 4.69465 36.86 4.52359 36.9741C4.35253 37.0691 4.21948 37.3162 4.21948 37.5063C4.21948 37.6963 4.35253 37.7914 4.52359 37.6773C4.67565 37.5823 4.8277 37.3542 4.8277 37.1451Z" fill="#DFDFDF"/>
<path d="M4.80866 37.1451C4.80866 37.3351 4.67561 37.5822 4.50455 37.6773C4.33349 37.7723 4.20044 37.6963 4.20044 37.5062C4.20044 37.3161 4.33349 37.0691 4.50455 36.974C4.67561 36.879 4.80866 36.955 4.80866 37.1451Z" fill="#434446"/>
<path d="M4.52359 37.0691L4.50459 36.9931H4.52359V37.0691ZM4.40955 37.1642L4.37154 37.1071L4.35253 37.1261L4.40955 37.1642ZM4.33352 37.2972H4.2575V37.3162H4.33352V37.2972ZM4.29551 37.4493V37.4303L4.21948 37.4873V37.5063L4.29551 37.4493ZM4.33352 37.5443L4.2575 37.6203V37.6393L4.33352 37.5443ZM4.40955 37.6013L4.35253 37.7154H4.37154L4.40955 37.6013ZM4.52359 37.5633L4.50459 37.6773L4.52359 37.6583V37.5633ZM4.65664 37.5253L4.61863 37.4683L4.59962 37.4873L4.65664 37.5253ZM4.77068 37.3352H4.69465V37.3542H4.77068V37.3352ZM4.8087 37.1451L4.73267 37.1832V37.2022L4.8087 37.1451ZM4.77068 37.0121L4.69465 37.0881V37.1071L4.77068 37.0121ZM4.65664 36.9551L4.59962 37.0691H4.61863L4.65664 36.9551Z" fill="#616161"/>
<path d="M4.63781 37.107L4.75185 37.164L4.69484 37.2591C4.67583 37.3541 4.61881 37.4492 4.54278 37.5062L4.48576 37.6012L4.37172 37.5442C4.3337 37.5252 4.3147 37.4872 4.3147 37.4301C4.3147 37.3161 4.39072 37.164 4.50477 37.107C4.56179 37.088 4.5998 37.088 4.63781 37.107Z" fill="#747474"/>
<path d="M4.5048 37.6011L4.48579 37.6201L4.37175 37.5631C4.35275 37.5441 4.33374 37.5251 4.33374 37.5061L4.5048 37.6011Z" fill="#BCBCBC"/>
<path d="M4.63785 37.392C4.63785 37.4111 4.61884 37.4301 4.59984 37.4491L4.33374 37.297C4.33374 37.278 4.35275 37.259 4.35275 37.24L4.63785 37.392Z" fill="#BCBCBC"/>
<path d="M4.71392 37.221L4.69492 37.259L4.48584 37.1259C4.50485 37.1259 4.50485 37.1069 4.52385 37.1069L4.71392 37.221Z" fill="#BCBCBC"/>
<path d="M4.73279 37.202L4.54272 37.088C4.58074 37.069 4.61875 37.069 4.65677 37.088L4.77081 37.145L4.73279 37.202Z" fill="#BCBCBC"/>
<path d="M4.80885 37.278C4.80885 37.164 4.73282 37.107 4.61878 37.164C4.52375 37.221 4.42871 37.373 4.42871 37.4871C4.42871 37.6011 4.50474 37.6582 4.61878 37.6011C4.71381 37.5441 4.80885 37.4111 4.80885 37.278Z" fill="#F1F2F3"/>
<path d="M4.73296 37.3351C4.73296 37.259 4.67594 37.24 4.61892 37.278C4.5619 37.3161 4.50488 37.3921 4.50488 37.4681C4.50488 37.5441 4.5619 37.5631 4.61892 37.5251C4.67594 37.4871 4.73296 37.3921 4.73296 37.3351Z" fill="#747474"/>
<path d="M3.42135 37.4683L3.61142 37.5823L3.51639 37.7534C3.49738 37.9055 3.40235 38.0765 3.2693 38.1716L3.17426 38.3426L2.98419 38.2286C2.92717 38.1906 2.88916 38.1335 2.88916 38.0195C2.88916 37.8294 3.02221 37.5823 3.19327 37.4873C3.2883 37.4493 3.36433 37.4493 3.42135 37.4683Z" fill="#747474"/>
<path d="M3.17426 38.3046L3.15526 38.3426L2.96519 38.2286C2.92717 38.2096 2.90817 38.1716 2.88916 38.1335L3.17426 38.3046Z" fill="#E2E2E8"/>
<path d="M3.42142 37.9626C3.40242 37.9816 3.38341 38.0196 3.36441 38.0387L2.92725 37.7916C2.94625 37.7536 2.96526 37.7345 2.96526 37.6965L3.42142 37.9626Z" fill="#E2E2E8"/>
<path d="M3.53537 37.6964L3.49736 37.7534L3.13623 37.5444C3.15524 37.5254 3.17424 37.5063 3.19325 37.5063L3.53537 37.6964Z" fill="#E2E2E8"/>
<path d="M3.55432 37.6584L3.2312 37.4684C3.30723 37.4493 3.36425 37.4493 3.40226 37.4684L3.59233 37.5824L3.55432 37.6584Z" fill="#E2E2E8"/>
<path d="M3.68757 37.7726C3.68757 37.5825 3.55452 37.4875 3.38346 37.6015C3.21239 37.6966 3.07935 37.9436 3.07935 38.1337C3.07935 38.3238 3.21239 38.4188 3.38346 38.3048C3.55452 38.2097 3.68757 37.9817 3.68757 37.7726Z" fill="#DFDFDF"/>
<path d="M3.68757 37.7725C3.68757 37.9626 3.55452 38.2097 3.38346 38.3047C3.21239 38.3997 3.07935 38.3237 3.07935 38.1337C3.07935 37.9436 3.21239 37.6965 3.38346 37.6015C3.55452 37.5064 3.68757 37.5825 3.68757 37.7725Z" fill="#434446"/>
<path d="M3.38349 37.7156L3.36449 37.6205L3.38349 37.6015V37.7156ZM3.28846 37.7916L3.25044 37.7346L3.23144 37.7536L3.28846 37.7916ZM3.19342 37.9246H3.1174L3.09839 37.9436H3.17442L3.19342 37.9246ZM3.17442 38.0767V38.0577L3.09839 38.1147V38.1337L3.17442 38.0767ZM3.19342 38.1907L3.1174 38.2668V38.2858L3.19342 38.1907ZM3.28846 38.2288L3.23144 38.3428H3.25044L3.28846 38.2288ZM3.38349 38.1907L3.36449 38.3048H3.38349V38.1907ZM3.53555 38.1527L3.49753 38.0957L3.47853 38.1147L3.51654 38.1717L3.53555 38.1527ZM3.63058 37.9627H3.55455V37.9817H3.63058V37.9627ZM3.6686 37.7726L3.59257 37.8106V37.8296L3.6686 37.7916V37.7726ZM3.63058 37.6395L3.55455 37.7156V37.7346L3.63058 37.6395ZM3.53555 37.5825L3.47853 37.6966H3.49753L3.53555 37.5825ZM3.1364 38.0197L3.09839 38.0387V38.0577L3.1364 38.0197Z" fill="#616161"/>
<path d="M3.51648 37.7345L3.63052 37.7915L3.5735 37.8865C3.55449 37.9816 3.49747 38.0766 3.42144 38.1336L3.36442 38.2286L3.25038 38.1716C3.21237 38.1526 3.19336 38.1146 3.19336 38.0576C3.19336 37.9435 3.26939 37.7915 3.38343 37.7345C3.42144 37.7155 3.47846 37.7155 3.51648 37.7345Z" fill="#747474"/>
<path d="M3.36442 38.2286L3.34541 38.2476L3.23137 38.1906C3.21237 38.1716 3.19336 38.1526 3.19336 38.1335L3.36442 38.2286Z" fill="#BCBCBC"/>
<path d="M3.51651 38.0195C3.49751 38.0385 3.49751 38.0575 3.4785 38.0765L3.2124 37.9245C3.2124 37.9054 3.23141 37.8864 3.25042 37.8674L3.51651 38.0195Z" fill="#BCBCBC"/>
<path d="M3.57354 37.8675L3.55454 37.9055L3.34546 37.7724C3.36447 37.7724 3.36447 37.7534 3.38347 37.7534L3.57354 37.8675Z" fill="#BCBCBC"/>
<path d="M3.59266 37.8485L3.40259 37.7345C3.4406 37.7155 3.47862 37.7155 3.49762 37.7345L3.61166 37.7915L3.59266 37.8485Z" fill="#BCBCBC"/>
<path d="M3.66847 37.9245C3.66847 37.8105 3.59244 37.7534 3.4784 37.8105C3.38336 37.8675 3.28833 38.0195 3.28833 38.1336C3.28833 38.2476 3.36436 38.3046 3.4784 38.2476C3.59244 38.1716 3.66847 38.0385 3.66847 37.9245Z" fill="#F1F2F3"/>
<path d="M3.59258 37.9625C3.59258 37.8865 3.53556 37.8675 3.47854 37.9055C3.42152 37.9435 3.3645 38.0195 3.3645 38.0956C3.3645 38.1716 3.42152 38.1906 3.47854 38.1526C3.55457 38.1146 3.59258 38.0385 3.59258 37.9625Z" fill="#747474"/>
<path d="M1.91968 40.2625L51.4136 68.1836V77.1358L1.91968 48.5495V40.2625Z" fill="#F1F2F3"/>
<path d="M1.91968 40.2815L52.1739 69.2861L53.3713 68.6018L53.8845 68.2977L54.3407 68.0506L54.8349 67.7465L55.7092 67.2523L5.45496 38.2478L4.58064 38.742L4.06746 39.0271L3.64931 39.2932L3.13612 39.5783L1.91968 40.2815Z" fill="#CAD0D8"/>
<path d="M52.0979 77.5349L50.9955 78.1811L0 48.7014L1.1024 48.0742L52.0979 77.5349Z" fill="#34373A"/>
<path d="M0 48.6826L50.9955 78.1813V79.8539L0 50.4313V48.6826Z" fill="#434446"/>
<path d="M3.13623 39.5782L53.3714 68.6018L53.8846 68.2977L54.3408 68.0506L54.835 67.7465L4.58075 38.7419L4.06757 39.027L3.64942 39.2931L3.13623 39.5782Z" fill="#3A3A3A"/>
<path d="M3.64941 39.2932L53.8846 68.2977L54.3408 68.0506L4.06757 39.0271L3.64941 39.2932Z" fill="#323333"/>
<path d="M51.3375 77.0787V64.7812L52.2118 63.2417L53.8084 62.3293L54.7017 62.8425V65.3895L56.0512 67.024V74.3417L57.1536 73.7145V75.4061L50.9954 79.8347L50.2351 79.4165V77.7059L51.3375 77.0787Z" fill="#434446"/>
<path d="M57.933 74.1325L57.1538 73.7144L55.9753 74.2656L56.8307 74.7597L57.933 74.1325Z" fill="black"/>
<path d="M52.098 77.4967V65.2182L52.9913 63.6787L54.5689 62.7473L55.4622 63.2795V65.8074L56.8307 67.461V74.7597L57.9331 74.1324V75.8431L50.9956 79.8345V78.1239L52.098 77.4967Z" fill="#26292B"/>
<path d="M52.0978 77.4968L50.9954 78.124L50.2351 77.7058L51.3375 77.0786L52.0978 77.4968Z" fill="#34373A"/>
<path d="M52.9912 63.6789L52.212 63.2417L51.3376 64.7813L52.0979 65.2184L52.9912 63.6789Z" fill="#34373A"/>
<path d="M54.7778 65.8456L54.9679 65.9407L54.8728 66.1117C54.8538 66.2638 54.7588 66.4349 54.6257 66.5299L54.5307 66.701L54.3406 66.5869C54.2836 66.5489 54.2456 66.4919 54.2456 66.3778C54.2456 66.1878 54.3787 65.9407 54.5497 65.8456C54.6448 65.8076 54.7208 65.8076 54.7778 65.8456Z" fill="#747474"/>
<path d="M54.5498 66.663L54.5307 66.701L54.3407 66.587C54.3027 66.568 54.2837 66.53 54.2646 66.4919L54.5498 66.663Z" fill="#E2E2E8"/>
<path d="M54.7969 66.3208C54.7779 66.3588 54.7589 66.3778 54.7399 66.3968L54.3027 66.1498C54.3217 66.1117 54.3408 66.0927 54.3408 66.0737L54.7969 66.3208Z" fill="#E2E2E8"/>
<path d="M54.8918 66.0548L54.8538 66.1118L54.4927 65.9028C54.5117 65.8838 54.5307 65.8838 54.5497 65.8647L54.8918 66.0548Z" fill="#E2E2E8"/>
<path d="M54.9298 66.0167L54.6067 65.8266C54.6827 65.7886 54.7397 65.8076 54.7778 65.8266L54.9678 65.9217L54.9298 66.0167Z" fill="#E2E2E8"/>
<path d="M55.0628 66.1498C55.0628 65.9597 54.9298 65.8647 54.7587 65.9787C54.5876 66.0737 54.4546 66.3208 54.4546 66.5109C54.4546 66.701 54.5876 66.796 54.7587 66.682C54.9108 66.5869 55.0628 66.3398 55.0628 66.1498Z" fill="#DFDFDF"/>
<path d="M55.044 66.1498C55.044 66.3399 54.911 66.587 54.7399 66.682C54.5688 66.777 54.4358 66.701 54.4358 66.511C54.4358 66.3209 54.5688 66.0738 54.7399 65.9788C54.911 65.8647 55.044 65.9407 55.044 66.1498Z" fill="#434446"/>
<path d="M54.7589 66.0737L54.7399 65.9787L54.7589 65.9597V66.0737ZM54.6449 66.1688L54.6069 66.1117L54.5879 66.1307L54.6449 66.1688ZM54.5689 66.3018H54.4928L54.4738 66.3208H54.5499L54.5689 66.3018ZM54.5309 66.4539V66.4348L54.4548 66.4919V66.5109L54.5309 66.4539ZM54.5689 66.5489L54.4928 66.6249V66.6439L54.5689 66.5489ZM54.6449 66.5869L54.5879 66.7009H54.6069L54.6449 66.5869ZM54.7589 66.5489L54.7399 66.6629L54.7589 66.6439V66.5489ZM54.892 66.5109L54.854 66.4539L54.835 66.4729L54.873 66.5299L54.892 66.5109ZM55.006 66.3398H54.93V66.3588H55.006V66.3398ZM55.044 66.1497L54.968 66.1878V66.2068L55.044 66.1497ZM55.006 66.0167L54.93 66.0927V66.1117L55.006 66.0167ZM54.892 65.9407L54.835 66.0547H54.854L54.892 65.9407Z" fill="#616161"/>
<path d="M54.8729 66.0926L54.987 66.1496L54.9299 66.2447C54.9109 66.3397 54.8539 66.4347 54.7779 66.4918L54.7209 66.5868L54.6068 66.5298C54.5688 66.5108 54.5498 66.4728 54.5498 66.4157C54.5498 66.3017 54.6258 66.1496 54.7399 66.0926C54.7969 66.0736 54.8349 66.0736 54.8729 66.0926Z" fill="#747474"/>
<path d="M54.7399 66.5867L54.7209 66.6057L54.6069 66.5487C54.5879 66.5297 54.5688 66.5107 54.5688 66.4917L54.7399 66.5867Z" fill="#BCBCBC"/>
<path d="M54.873 66.3967C54.8539 66.4157 54.8539 66.4347 54.8349 66.4537L54.5688 66.3017C54.5688 66.2826 54.5879 66.2636 54.6069 66.2446L54.873 66.3967Z" fill="#BCBCBC"/>
<path d="M54.9488 66.2256L54.9298 66.2636L54.7207 66.1306C54.7397 66.1306 54.7397 66.1116 54.7587 66.1116L54.9488 66.2256Z" fill="#BCBCBC"/>
<path d="M54.9489 66.2067L54.7588 66.0926C54.7968 66.0736 54.8348 66.0736 54.8728 66.0926L54.9869 66.1496L54.9489 66.2067Z" fill="#BCBCBC"/>
<path d="M55.044 66.2827C55.044 66.1686 54.9679 66.1116 54.8539 66.1686C54.7589 66.2256 54.6638 66.3777 54.6638 66.4917C54.6638 66.6058 54.7398 66.6628 54.8539 66.6058C54.9489 66.5488 55.044 66.3967 55.044 66.2827Z" fill="#F1F2F3"/>
<path d="M54.9678 66.3207C54.9678 66.2446 54.9108 66.2256 54.8538 66.2636C54.7968 66.3016 54.7397 66.3777 54.7397 66.4537C54.7397 66.5297 54.7968 66.5487 54.8538 66.5107C54.9108 66.4917 54.9678 66.3967 54.9678 66.3207Z" fill="#747474"/>
<path d="M53.6565 66.4728L53.8465 66.5868L53.7515 66.7579C53.7325 66.9099 53.6375 67.081 53.5044 67.176L53.4094 67.3471L53.2193 67.2331C53.1623 67.195 53.1243 67.138 53.1243 67.024C53.1243 66.8339 53.2573 66.5868 53.4284 66.4918C53.5234 66.4348 53.5994 66.4348 53.6565 66.4728Z" fill="#747474"/>
<path d="M53.4094 67.29L53.3904 67.328L53.2003 67.2139C53.1623 67.1949 53.1433 67.1569 53.1243 67.1189L53.4094 67.29Z" fill="#E2E2E8"/>
<path d="M53.6565 66.9477C53.6375 66.9857 53.6185 67.0048 53.5995 67.0238L53.1624 66.7767C53.1814 66.7387 53.2004 66.7197 53.2004 66.6816L53.6565 66.9477Z" fill="#E2E2E8"/>
<path d="M53.7705 66.6818L53.7325 66.7388L53.3713 66.5297C53.3903 66.5107 53.4094 66.5107 53.4284 66.4917L53.7705 66.6818Z" fill="#E2E2E8"/>
<path d="M53.7894 66.6628L53.4663 66.4728C53.5423 66.4537 53.5994 66.4537 53.6374 66.4728L53.8274 66.5868L53.7894 66.6628Z" fill="#E2E2E8"/>
<path d="M53.9227 66.7767C53.9227 66.5867 53.7896 66.4916 53.6186 66.6057C53.4475 66.7007 53.3145 66.9478 53.3145 67.1379C53.3145 67.3279 53.4475 67.423 53.6186 67.3089C53.7896 67.2139 53.9227 66.9668 53.9227 66.7767Z" fill="#DFDFDF"/>
<path d="M53.9227 66.7767C53.9227 66.9667 53.7896 67.2138 53.6186 67.3089C53.4475 67.4039 53.3145 67.3279 53.3145 67.1378C53.3145 66.9477 53.4475 66.7006 53.6186 66.6056C53.7896 66.5106 53.9227 66.5866 53.9227 66.7767Z" fill="#434446"/>
<path d="M53.6186 66.7007L53.5996 66.6056H53.6186V66.7007ZM53.5236 66.7957L53.4855 66.7387L53.4665 66.7577L53.5236 66.7957ZM53.4285 66.9288H53.3525L53.3335 66.9478H53.4095L53.4285 66.9288ZM53.4095 67.0808L53.3335 67.0998V67.1188L53.4095 67.0808ZM53.4285 67.1758L53.3525 67.2519V67.2709L53.4285 67.1758ZM53.5236 67.2139L53.4665 67.3279H53.4855L53.5236 67.2139ZM53.6186 67.1949L53.5996 67.3089L53.6186 67.2899V67.1949ZM53.7707 67.1568L53.7326 67.0998L53.7136 67.1188L53.7707 67.1568ZM53.8657 66.9668H53.7897V66.9858H53.8657V66.9668ZM53.9037 66.7767L53.8277 66.8337V66.8527L53.9037 66.8147V66.7767ZM53.8657 66.6437L53.7897 66.7197V66.7387L53.8657 66.6437ZM53.7707 66.5676L53.7136 66.6817H53.7326L53.7707 66.5676ZM53.3715 67.0048L53.3335 67.0238V67.0428L53.3715 67.0048Z" fill="#616161"/>
<path d="M53.7513 66.7196L53.8654 66.7767L53.8084 66.8717C53.7894 66.9667 53.7323 67.0618 53.6563 67.1188L53.5993 67.2138L53.4852 67.1568C53.4472 67.1378 53.4282 67.0998 53.4282 67.0427C53.4282 66.9287 53.5043 66.7766 53.6183 66.7196C53.6563 66.7196 53.7133 66.7006 53.7513 66.7196Z" fill="#747474"/>
<path d="M53.5993 67.2327L53.5803 67.2517L53.4662 67.1947C53.4472 67.1757 53.4282 67.1567 53.4282 67.1377L53.5993 67.2327Z" fill="#BCBCBC"/>
<path d="M53.7514 67.0236C53.7324 67.0426 53.7324 67.0617 53.7134 67.0807L53.4473 66.9286C53.4473 66.9096 53.4663 66.8906 53.4663 66.8716L53.7514 67.0236Z" fill="#BCBCBC"/>
<path d="M53.8084 66.8526L53.7894 66.8906L53.5803 66.7575C53.5993 66.7575 53.5993 66.7385 53.6183 66.7385L53.8084 66.8526Z" fill="#BCBCBC"/>
<path d="M53.8273 66.8336L53.6372 66.7196C53.6752 66.7006 53.7132 66.7006 53.7512 66.7196L53.8653 66.7766L53.8273 66.8336Z" fill="#BCBCBC"/>
<path d="M53.9033 66.9096C53.9033 66.7956 53.8273 66.7385 53.7133 66.7956C53.6182 66.8526 53.5232 67.0046 53.5232 67.1187C53.5232 67.2327 53.5992 67.2897 53.7133 67.2327C53.8273 67.1757 53.9033 67.0236 53.9033 66.9096Z" fill="#F1F2F3"/>
<path d="M53.8274 66.9476C53.8274 66.8716 53.7704 66.8526 53.7134 66.8906C53.6564 66.9286 53.5994 67.0046 53.5994 67.0807C53.5994 67.1567 53.6564 67.1757 53.7134 67.1377C53.7894 67.1187 53.8274 67.0236 53.8274 66.9476Z" fill="#747474"/>
<path d="M11.4991 42.6192V45.7743L9.67446 49.2526L6.02514 47.1428L4.21948 41.5548V38.3997L11.4991 42.6192Z" fill="#58D8FF"/>
<path d="M8.24878 50.0889L9.6743 49.2526L8.64792 48.0552L8.24878 50.0889Z" fill="#58D8FF"/>
<path d="M10.0545 43.4556V46.6108L8.24889 50.089L4.59956 47.9793L2.7749 42.3912V39.2361L10.0545 43.4556Z" fill="#2FBAE5"/>
<path d="M2.7749 39.236L4.21943 38.3997L4.90367 40.4714L2.7749 39.236Z" fill="#26292B"/>
<path d="M10.0737 46.6297L15.0345 43.7596V40.6045L10.0737 43.4935V46.6297Z" fill="#139DC8"/>
<path d="M2.73706 39.2551L10.0927 43.5126L15.0535 40.6426L7.69786 36.4041L2.73706 39.2551Z" fill="#58D8FF"/>
<path d="M12.0884 22.244L11.062 21.6927C11.1 19.545 12.5826 16.979 14.4262 15.9147L26.7807 8.76807L27.8071 9.31927L14.8254 17.1121C12.5255 18.7087 12.0884 22.244 12.0884 22.244Z" fill="#323333"/>
<path d="M12.4305 22.0349L12.0884 22.225C12.1264 20.0772 13.6089 17.5113 15.4526 16.4469L27.8261 9.31934V9.71848L15.4526 16.8651C13.799 17.7964 12.4495 20.1152 12.4305 22.0349Z" fill="#26292B"/>
<path d="M2.73706 36.0239L10.0927 40.2054V43.2465L2.73706 39.065V36.0239Z" fill="#2FBAE5"/>
<path d="M10.0928 40.2056V43.2467L15.0536 40.4146V37.3735L10.0928 40.2056Z" fill="#139DC8"/>
<path d="M2.73706 36.0239L10.0927 40.2054L15.0535 37.3734L7.69786 33.1919L2.73706 36.0239Z" fill="#58D8FF"/>
<path d="M5.49306 24.6768L12.8297 28.8583L10.0927 39.9963L2.73706 35.8148L5.49306 24.6768Z" fill="#2FBAE5"/>
<path d="M12.8298 28.8584L10.0928 40.0155L15.0536 37.1834V27.585L12.8298 28.8584Z" fill="#139DC8"/>
<path d="M5.49292 24.6767L12.8486 28.8583L15.0534 27.5848L7.69772 23.3843L5.49292 24.6767Z" fill="#58D8FF"/>
<path d="M37.4626 10.2695L10.8149 25.0379V27.5848L37.4626 12.1512V10.2695Z" fill="#CAD0D8"/>
<path d="M37.4626 10.2886L10.815 25.6082L9.67455 24.9809L9.16137 24.6958L8.72421 24.4297L8.21102 24.1446L7.35571 23.6505L33.9464 8.25488L34.8207 8.76807L35.3148 9.05317L35.752 9.30026L36.2652 9.60437L37.4626 10.2886Z" fill="#E2E2E8"/>
<path d="M36.2651 9.60437L9.67447 24.9809L9.16128 24.6958L8.72412 24.4297L8.21094 24.1446L34.8206 8.76807L35.3148 9.05317L35.7519 9.30026L36.2651 9.60437Z" fill="#3A3A3A"/>
<path d="M35.7519 9.30031L9.16128 24.6959L8.72412 24.4298L35.3148 9.05322L35.7519 9.30031Z" fill="#323333"/>
<path d="M10.815 27.5848L7.35571 25.6081V23.6504L10.815 25.6081V27.5848Z" fill="#F1F2F3"/>
<path d="M34.8017 5.63184L30.9433 7.85564L30.6582 12.8354L30.8483 19.3928L34.7827 17.188V5.63184H34.8017Z" fill="#B5BCC3"/>
<path d="M25.3743 13.2157L28.8525 15.2115V18.2336L30.3731 19.1079L30.4871 19.1649L30.8673 19.393L30.9433 7.85579L30.4871 7.39963L30.3731 7.30459L29.9739 6.90545L29.8789 6.82942L29.0426 6.03113L25.4313 4.68164L25.3743 13.2157Z" fill="#F1F2F3"/>
<path d="M25.4312 4.68157L30.3729 7.5326L30.449 7.57062L30.9432 7.85572L34.8396 5.63191L34.3644 5.34681L34.2884 5.3088L29.3276 2.45776L25.4312 4.68157Z" fill="#E2E2E8"/>
<path d="M31.9126 0.23395C32.5588 -0.127181 33.4711 -0.0891676 34.4595 0.481039C36.4362 1.62145 38.0518 4.41547 38.0518 6.69629V21.9018L37.5766 21.6357V6.4302C37.5766 4.45348 36.1701 2.0206 34.4595 1.03224C33.3951 0.424019 32.4638 0.500046 31.8935 1.10827L31.2473 0.956211C31.4184 0.652101 31.6275 0.405012 31.9126 0.23395Z" fill="#26292B"/>
<path d="M31.2283 0.956299L31.8745 1.10835C31.5324 1.48849 31.3233 2.07771 31.3233 2.83798V5.11881L30.8481 4.85271V2.57188C30.8672 1.90664 31.0002 1.37445 31.2283 0.956299Z" fill="#26292B"/>
<path d="M31.3234 1.26025L31.6465 1.35529L31.1143 2.02053C31.1143 2.02053 31.0003 3.54108 31.0383 3.5981C31.0953 3.67413 31.2664 5.09965 31.2664 5.09965L31.3044 5.11865L29.8219 5.93595L29.7458 2.79981L30.4301 1.45032L31.3234 1.26025Z" fill="#26292B"/>
<path d="M37.6335 26.6536H36.7212V27.6419H37.6335V26.6536Z" fill="#3A3A3A"/>
<path d="M36.8541 27.4709C37.0252 27.3759 37.3293 27.3759 37.5004 27.4709C37.6714 27.566 37.6714 27.737 37.5004 27.8511C37.3293 27.9461 37.0252 27.9461 36.8541 27.8511C36.6831 27.737 36.6831 27.566 36.8541 27.4709Z" fill="#3A3A3A"/>
<path d="M36.8541 26.4446C37.0252 26.3495 37.3293 26.3495 37.5004 26.4446C37.6714 26.5396 37.6714 26.7107 37.5004 26.8247C37.3293 26.9197 37.0252 26.9197 36.8541 26.8247C36.6831 26.7297 36.6831 26.5586 36.8541 26.4446Z" fill="#75757C"/>
<path d="M36.8924 26.4827C37.0444 26.3876 37.3105 26.3876 37.4626 26.4827C37.6146 26.5777 37.6146 26.7297 37.4626 26.8058C37.3105 26.9008 37.0444 26.9008 36.8924 26.8058C36.7403 26.7107 36.7403 26.5587 36.8924 26.4827Z" fill="#292A2A"/>
<path d="M37.5764 23.4226H36.7781V26.6538H37.5764V23.4226Z" fill="#373839"/>
<path d="M36.8921 26.4827C37.0442 26.3876 37.2913 26.3876 37.4623 26.4827C37.6144 26.5777 37.6144 26.7107 37.4623 26.8058C37.3103 26.9008 37.0632 26.9008 36.8921 26.8058C36.7401 26.7107 36.7401 26.5777 36.8921 26.4827Z" fill="#373839"/>
<path d="M36.8921 23.2515C37.0442 23.1564 37.2913 23.1564 37.4623 23.2515C37.6144 23.3465 37.6144 23.4795 37.4623 23.5746C37.3103 23.6696 37.0632 23.6696 36.8921 23.5746C36.7401 23.4795 36.7401 23.3275 36.8921 23.2515Z" fill="#696A6F"/>
<path d="M36.9301 23.2706C37.0632 23.1946 37.2912 23.1946 37.4243 23.2706C37.5573 23.3467 37.5573 23.4797 37.4243 23.5557C37.2912 23.6318 37.0632 23.6318 36.9301 23.5557C36.7971 23.4797 36.7971 23.3467 36.9301 23.2706Z" fill="#1E1E1F"/>
<path d="M37.5956 22.3579H36.7593V23.6314H37.5956V22.3579Z" fill="#373839"/>
<path d="M36.8733 23.4604C37.0444 23.3654 37.2915 23.3654 37.4625 23.4604C37.6146 23.5555 37.6146 23.7075 37.4625 23.8026C37.2915 23.8976 37.0444 23.8976 36.8733 23.8026C36.7213 23.7075 36.7213 23.5555 36.8733 23.4604Z" fill="#373839"/>
<path d="M36.8733 22.168C37.0444 22.0729 37.2915 22.0729 37.4625 22.168C37.6146 22.263 37.6146 22.415 37.4625 22.5101C37.2915 22.6051 37.0444 22.6051 36.8733 22.5101C36.7213 22.415 36.7213 22.263 36.8733 22.168Z" fill="#75757C"/>
<path d="M36.9113 22.1869C37.0634 22.1109 37.2914 22.1109 37.4245 22.1869C37.5766 22.2629 37.5766 22.396 37.4245 22.491C37.2914 22.567 37.0444 22.567 36.9113 22.491C36.7783 22.415 36.7783 22.2819 36.9113 22.1869Z" fill="#292A2A"/>
<path d="M37.6525 22.1301H36.7021V22.4152H37.6525V22.1301Z" fill="#3A3A3A"/>
<path d="M36.8351 22.2061C37.0252 22.0921 37.3293 22.0921 37.5003 22.2061C37.6904 22.3202 37.6904 22.4912 37.5003 22.5863C37.3103 22.7003 37.0061 22.7003 36.8351 22.5863C36.664 22.4912 36.664 22.3202 36.8351 22.2061Z" fill="#3A3A3A"/>
<path d="M36.8351 21.921C37.0252 21.8069 37.3293 21.8069 37.5003 21.921C37.6904 22.035 37.6904 22.2061 37.5003 22.3011C37.3103 22.4152 37.0061 22.4152 36.8351 22.3011C36.664 22.2061 36.664 22.035 36.8351 21.921Z" fill="#75757C"/>
<path d="M30.449 1.05121L32.1786 0.119873L33.7372 0.347955L35.3147 1.35532L37.0064 3.59813L37.8427 6.50619L38.0517 21.9208L36.5692 22.7191V15.3254L36.4171 8.48291L36.151 5.63187L35.3147 3.7882L34.0603 2.24864L32.7298 1.41234L31.1332 1.12724L30.449 1.05121Z" fill="#26292B"/>
<path d="M30.4491 1.05132C31.0953 0.671185 32.0076 0.728206 32.996 1.29841C34.9727 2.43883 36.5883 5.23284 36.5883 7.51367V22.7192L36.1131 22.4531V7.24757C36.1131 5.27085 34.7256 2.83797 32.996 1.84961C31.2664 0.861255 29.8789 1.65954 29.8789 3.65527V5.93609L29.4037 5.67V3.38917C29.3847 2.22975 29.8028 1.43146 30.4491 1.05132Z" fill="#434446"/>
<path d="M41.2639 44.596V44.8431L51.2615 38.97V38.7039L41.2639 44.596Z" fill="#3A3A3A"/>
<path d="M17.3152 30.8921L41.2449 44.5961V44.8241L17.3152 31.1392V30.8921Z" fill="#3A3A3A"/>
<path d="M17.3152 30.8921L41.2639 44.596L44.6471 42.6003L44.7231 42.5433L44.8182 42.4863L44.8942 42.4292L48.0873 40.5476L48.1824 40.4905L48.2774 40.4335L48.3534 40.3765L51.2615 38.6659L27.3318 24.9619L24.5188 26.6155L24.4238 26.6725L24.3287 26.7296L24.2337 26.7866L21.0405 28.6683L20.9645 28.7253L20.8695 28.7823L20.7934 28.8393L17.3152 30.8921Z" fill="#E2E2E8"/>
<path d="M36.9684 33.9521L48.2775 40.4715L48.1825 40.5285L48.0875 40.5856L36.7974 34.0662C36.8544 34.0282 36.9114 33.9902 36.9684 33.9521Z" fill="black"/>
<path d="M37.0634 33.895L48.3725 40.4144L48.2965 40.4714L48.2015 40.5284L36.9114 34.0091C36.9494 33.971 37.0064 33.933 37.0634 33.895Z" fill="#DFDFED"/>
<path d="M30.373 7.53264L30.4491 7.57066L34.3645 5.34685L34.2885 5.30884L30.373 7.53264Z" fill="#B5BCC3"/>
<path d="M30.373 7.53271V19.1079L30.4871 19.1649V7.57073L30.373 7.53271Z" fill="#E2E2E8"/>
</svg>
