<svg width="80" height="80" viewBox="0 0 80 80" fill="none" xmlns="http://www.w3.org/2000/svg">
<path d="M60.9468 13.77C60.9468 20.2225 51.1569 25.4388 39.0927 25.4388C27.0284 25.4388 17.2385 20.1977 17.2385 13.77C17.2385 7.31763 27.0284 2.10132 39.0927 2.10132C51.1569 2.10132 60.9468 7.31763 60.9468 13.77Z" fill="#139DC8"/>
<path d="M60.9468 16.4895C60.9468 22.9419 51.1569 28.1583 39.0927 28.1583C27.0284 28.1583 17.2385 22.9172 17.2385 16.4895C17.2385 10.0371 27.0284 4.8208 39.0927 4.8208C51.1569 4.8208 60.9468 10.0371 60.9468 16.4895Z" fill="#E2E2E8"/>
<path d="M63.0236 13.6712C63.0236 13.8196 62.9741 13.9679 62.9741 14.1409C62.9494 14.3387 62.9494 14.5365 62.9247 14.7343C62.9247 14.7837 62.9 14.8332 62.9 14.8826C62.9 14.932 62.9 14.9568 62.8752 15.0062C62.8505 15.1545 62.7764 15.3029 62.7516 15.4265C62.7022 15.6243 62.6775 15.7973 62.6033 15.9951C62.5786 16.0445 62.5539 16.1187 62.5291 16.1681C62.5044 16.2176 62.5044 16.267 62.4797 16.3165C62.4302 16.4401 62.3561 16.5884 62.2819 16.712C62.2077 16.8851 62.1336 17.0828 62.0594 17.2559C62.0347 17.3301 61.9852 17.3795 61.9358 17.4537C61.9111 17.5031 61.8864 17.5773 61.8616 17.6267C61.7875 17.7503 61.7133 17.8492 61.6391 17.9728C61.5403 18.1459 61.4414 18.3189 61.3425 18.4673C61.2683 18.5662 61.1942 18.665 61.0953 18.7639C61.0458 18.8381 60.9964 18.9123 60.9469 19.0112C60.8233 19.1842 60.675 19.3325 60.5267 19.5056C60.4772 19.555 60.4525 19.6045 60.4031 19.6539C60.3783 19.6786 60.3536 19.7034 60.3536 19.7034C60.1064 19.9753 59.8344 20.272 59.5378 20.5439C59.4883 20.5934 59.4389 20.6181 59.4142 20.6428C59.3647 20.6922 59.3153 20.7417 59.2658 20.7664C59.0681 20.9395 58.8703 21.0878 58.6725 21.2361C58.4747 21.4092 58.277 21.5575 58.0545 21.7306C58.005 21.7553 57.9556 21.8047 57.9061 21.8542C57.6836 22.0272 57.4117 22.1756 57.1645 22.3239C56.9667 22.4475 56.7937 22.5711 56.5959 22.6947C56.497 22.7442 56.3981 22.8183 56.3239 22.8678C55.6317 23.2633 54.8901 23.6341 54.1484 23.9803C53.9259 24.0791 53.7281 24.178 53.5056 24.2522C52.9123 24.4994 52.319 24.7219 51.701 24.9444C51.5526 24.9938 51.429 25.068 51.2807 25.0927C51.2065 25.1175 51.1076 25.1422 51.0087 25.1669C50.6132 25.2905 50.2176 25.3894 49.8221 25.513C49.5254 25.5872 49.2288 25.6861 48.9074 25.7602C48.4871 25.8591 48.0668 25.958 47.6218 26.0322C47.3746 26.0816 47.1274 26.1558 46.8802 26.2052C46.8307 26.2052 46.806 26.2052 46.7566 26.2299C45.8913 26.3783 45.0013 26.5019 44.1113 26.6008C44.0372 26.6008 43.9877 26.6255 43.9383 26.6255C43.7405 26.6502 43.5427 26.6502 43.3202 26.6749C42.8011 26.7244 42.2819 26.7491 41.738 26.7738C41.6144 26.7738 41.4908 26.7985 41.3672 26.7985C41.1447 26.7985 40.9222 26.7985 40.7244 26.7985C40.3289 26.7985 39.9086 26.7985 39.5131 26.7985C39.34 26.7985 39.1917 26.7985 39.0186 26.7985C38.8209 26.7985 38.5984 26.7738 38.4006 26.7738C38.0298 26.7491 37.6589 26.7491 37.2881 26.7244C37.115 26.7244 36.9173 26.6997 36.7442 26.6997C36.5464 26.6749 36.3734 26.6502 36.1756 26.6255C35.7801 26.6008 35.4092 26.5513 35.0137 26.5019C34.8406 26.4772 34.6676 26.4772 34.4698 26.4524C34.2967 26.4277 34.1484 26.403 33.9754 26.3783C33.5798 26.3041 33.1595 26.2547 32.764 26.1558C32.5662 26.1311 32.3684 26.1063 32.1707 26.0569C32.0223 26.0322 31.8987 25.9827 31.7751 25.958C31.3054 25.8591 30.8357 25.7355 30.3907 25.6119C30.1929 25.5625 29.9704 25.513 29.7726 25.4636C29.6985 25.4388 29.649 25.4141 29.5749 25.3894C28.7343 25.1422 27.8938 24.8702 27.1027 24.5489C27.0532 24.5241 27.0285 24.5241 26.9791 24.4994C26.633 24.3758 26.3363 24.2275 25.9902 24.0791C25.7677 23.9803 25.5452 23.8814 25.3227 23.7825C24.7541 23.5105 24.1855 23.2139 23.6416 22.8925C23.073 22.5711 22.5291 22.225 22.0347 21.8789C21.9358 21.8294 21.8864 21.7553 21.7875 21.6811C21.3919 21.3845 20.9964 21.0878 20.6503 20.7911C20.5267 20.6922 20.4525 20.5934 20.3289 20.4697C20.0322 20.1978 19.7356 19.9259 19.4636 19.6292C19.34 19.5056 19.2411 19.3573 19.1422 19.2337C18.9197 18.9617 18.6972 18.7145 18.4995 18.4426C18.4006 18.2942 18.3017 18.1212 18.2028 17.9728C18.0545 17.7256 17.8814 17.4784 17.7578 17.2312C17.6589 17.0581 17.6095 16.8851 17.5353 16.712C17.4364 16.4648 17.3128 16.2176 17.2139 15.9704C17.1645 15.7973 17.115 15.6243 17.0903 15.4512C17.0162 15.204 16.942 14.9568 16.8925 14.7095C16.8678 14.5365 16.8678 14.3634 16.8431 14.1657C16.8184 13.9184 16.7937 13.6959 16.7689 13.4487L16.6206 66.5266C16.6206 69.9877 18.895 73.424 23.4438 76.0693C23.9877 76.3906 24.5563 76.6873 25.1497 76.9592C25.3227 77.0334 25.4958 77.1076 25.6935 77.1817C26.0644 77.3548 26.4105 77.5031 26.7813 77.6515C26.8307 77.6762 26.8802 77.7009 26.9296 77.7009C27.7207 78.0223 28.5613 78.2942 29.4018 78.5414C29.476 78.5662 29.5254 78.5662 29.5996 78.5909C29.7974 78.6403 29.9951 78.6898 30.1929 78.7639C30.6626 78.8876 31.1323 79.0112 31.6268 79.11C31.7504 79.1348 31.874 79.1595 32.0223 79.1842C32.2201 79.2337 32.4179 79.2584 32.6157 79.3078C33.0112 79.382 33.4315 79.4562 33.827 79.5303C34.0001 79.555 34.1484 79.5798 34.3215 79.6045C34.4945 79.6292 34.6923 79.6539 34.8653 79.6786C35.2362 79.7281 35.6317 79.7775 36.0026 79.8023C36.1756 79.827 36.3734 79.827 36.5464 79.8517C36.7195 79.8764 36.8925 79.8764 37.0656 79.9011C37.4364 79.9259 37.832 79.9506 38.2275 79.9506C38.4253 79.9506 38.6231 79.9506 38.8209 79.9753C38.9939 79.9753 39.1422 79.9753 39.3153 80C39.7356 80 40.1558 80 40.5761 80C40.7986 80 40.9964 80 41.2189 79.9753C41.3425 79.9753 41.4661 79.9753 41.5897 79.9753C42.1089 79.9506 42.628 79.9259 43.1225 79.8764C43.345 79.8517 43.5427 79.8517 43.7652 79.827C43.8394 79.827 43.8888 79.827 43.963 79.8023C44.853 79.7034 45.7183 79.5798 46.5835 79.4314C46.633 79.4314 46.6577 79.4067 46.7071 79.4067C46.9543 79.3573 47.2016 79.3078 47.4735 79.2584C47.8938 79.1842 48.3141 79.0853 48.7343 78.9864C49.0557 78.9123 49.3771 78.8134 49.6985 78.7392C50.0693 78.6403 50.4649 78.5414 50.8357 78.4178C50.9346 78.3931 51.0087 78.3684 51.1076 78.3189C51.256 78.2695 51.3796 78.2201 51.5279 78.1706C52.1459 77.9481 52.7393 77.7256 53.3326 77.4784C53.5551 77.3795 53.7776 77.3053 54.0001 77.2065C54.7665 76.8603 55.4834 76.5142 56.1756 76.094C56.2745 76.0445 56.3487 75.9704 56.4476 75.9209C56.6453 75.7973 56.8431 75.6737 57.0409 75.5254C57.3128 75.3523 57.6095 75.1545 57.8567 74.9815C58.0792 74.8332 58.277 74.6601 58.4747 74.487C58.722 74.2893 58.9939 74.0915 59.2164 73.869C59.2658 73.8196 59.3153 73.7948 59.34 73.7454C59.6367 73.4734 59.9086 73.2015 60.1558 72.9296C60.2053 72.8554 60.2794 72.806 60.3289 72.7318C60.4772 72.5587 60.6255 72.361 60.7739 72.1879C60.8233 72.1138 60.8728 72.0643 60.9222 71.9901C61.12 71.7182 61.293 71.4463 61.4661 71.1743C61.5403 71.0507 61.6144 70.9271 61.6886 70.8035C61.7133 70.754 61.738 70.7046 61.7628 70.6552C61.8864 70.4079 61.9853 70.1854 62.0841 69.9382C62.1583 69.7899 62.2325 69.6168 62.2819 69.4685C62.2819 69.4438 62.3066 69.3943 62.3314 69.3696C62.4055 69.1471 62.4797 68.8999 62.5291 68.6774C62.5786 68.5044 62.628 68.3313 62.6527 68.1583C62.6527 68.1335 62.6527 68.1335 62.6775 68.1088C62.7269 67.8616 62.7269 67.6391 62.7516 67.3919C62.7764 67.1694 62.8011 66.9469 62.8011 66.7244V66.6997L62.9494 13.5723C63.0483 13.5229 63.0236 13.5971 63.0236 13.6712Z" fill="#2FBAE5"/>
<path d="M39.8345 2.5958C45.57 2.5958 50.9099 3.85661 54.9148 6.18047C58.6478 8.33127 60.6256 11.1496 60.3784 13.8937C60.3784 13.9679 60.3536 14.0667 60.3536 14.1656C60.3536 14.2151 60.3536 14.2645 60.3536 14.2892C60.3289 14.3881 60.3042 14.4623 60.2795 14.5612L60.23 14.759C60.2053 14.8578 60.1806 14.9567 60.1559 15.0309L60.1312 15.1545C60.1064 15.2534 60.057 15.3523 60.0075 15.4512L59.9087 15.6737C59.8592 15.7726 59.8345 15.8467 59.8098 15.9456C59.785 15.9951 59.785 16.0198 59.7603 16.0692C59.7109 16.1681 59.6367 16.2917 59.5625 16.3906L59.4389 16.5884C59.3895 16.6625 59.3401 16.7367 59.2906 16.8356C59.2659 16.885 59.2412 16.9098 59.2164 16.9839C59.0681 17.2064 58.8703 17.4536 58.549 17.7998C58.4995 17.8492 58.4748 17.8986 58.4253 17.9481C58.2029 18.1706 57.9556 18.4425 57.6095 18.7392C57.5601 18.7886 57.5106 18.8133 57.4612 18.8628C57.1892 19.0853 56.8679 19.3572 56.497 19.6292C56.4476 19.6786 56.3734 19.7281 56.324 19.7775C55.9037 20.0742 55.4587 20.3461 54.989 20.618C54.4451 20.9394 53.8271 21.2361 53.036 21.6069C52.8629 21.6811 52.6899 21.7553 52.5415 21.8294L52.4674 21.8541C51.9482 22.0766 51.3796 22.2744 50.811 22.4722L50.5391 22.5711C50.4155 22.6205 50.3166 22.6452 50.193 22.6947C49.8469 22.7936 49.476 22.8925 49.1052 22.9913L48.8085 23.0655C48.6355 23.115 48.4377 23.1644 48.2647 23.2138C47.9185 23.288 47.5972 23.3622 47.2511 23.4363L47.078 23.4611L46.7813 23.5105C46.6083 23.5352 46.4352 23.5847 46.2622 23.6094C45.4711 23.7577 44.6553 23.8566 43.8147 23.9555C43.6664 23.9802 43.4933 23.9802 43.345 24.0049L43.0731 24.0297C42.5786 24.0791 42.0842 24.1038 41.5897 24.1286C41.2684 24.1533 40.947 24.1533 40.6256 24.1533C40.3537 24.1533 40.1064 24.1533 39.8345 24.1533H39.4884C39.1423 24.1533 38.7962 24.1286 38.4501 24.1286C38.104 24.1038 37.7579 24.1038 37.4117 24.0791C37.0656 24.0544 36.7195 24.0297 36.3734 24.0049C36.0026 23.9802 35.6565 23.9308 35.3104 23.8813C34.989 23.8319 34.6676 23.8072 34.371 23.7577C34.0001 23.7083 33.6046 23.6341 33.2338 23.5599C32.9371 23.5105 32.6157 23.4363 32.319 23.3622C31.874 23.2633 31.4538 23.1644 31.0335 23.0408L30.8604 22.9913C30.6627 22.9419 30.4649 22.8925 30.2918 22.843C29.5007 22.6205 28.7344 22.3486 28.0422 22.0766C27.7208 21.953 27.3994 21.8047 27.0533 21.6564L26.7566 21.5328C26.6577 21.4833 26.5341 21.4339 26.4352 21.4091C25.8914 21.1372 25.3969 20.89 24.9272 20.618C24.4328 20.3214 23.963 20.0247 23.5428 19.7281C23.4686 19.6786 23.3944 19.6045 23.3203 19.555C22.9742 19.3078 22.6281 19.0358 22.3561 18.8134L22.3067 18.7639C22.2325 18.6897 22.1831 18.6403 22.0595 18.5167C21.8122 18.2695 21.565 18.047 21.392 17.8739L21.3178 17.7998C21.2436 17.7256 21.1942 17.6267 21.12 17.5525L20.9964 17.4042C20.8728 17.2559 20.7245 17.1075 20.6256 16.9345C20.6009 16.885 20.5761 16.8603 20.5514 16.8109C20.502 16.7367 20.4525 16.6625 20.4031 16.5637L20.2795 16.3906C20.2053 16.267 20.1312 16.1434 20.057 16.0445L20.0075 15.9456C19.9581 15.8467 19.9334 15.7478 19.8839 15.6737L19.785 15.4512C19.7356 15.3523 19.6862 15.2534 19.6614 15.1792L19.6367 15.0803C19.612 14.9815 19.5873 14.8826 19.5626 14.7837L19.5131 14.5612C19.4884 14.4623 19.4637 14.3634 19.4389 14.314V14.2151C19.4389 14.1162 19.4142 14.0173 19.4142 13.9184L19.3895 13.6712C19.3895 13.6218 19.3648 13.5476 19.3648 13.4981V13.3498C19.3648 10.754 21.2931 8.20766 24.7789 6.18047C28.7838 3.88133 34.1237 2.5958 39.8345 2.5958ZM39.8345 0C33.926 0 28.0174 1.31026 23.5181 3.93078C19.0434 6.52658 16.7937 9.9382 16.7937 13.3745V13.3993C16.7937 13.6465 16.8431 13.869 16.8679 14.1162C16.8926 14.2892 16.8926 14.487 16.9173 14.6601C16.9668 14.9073 17.0409 15.1545 17.1151 15.4017C17.1645 15.5748 17.1893 15.7478 17.2387 15.9209C17.3129 16.1681 17.4365 16.4153 17.5601 16.6625C17.6342 16.8356 17.6837 17.0087 17.7826 17.1817C17.9062 17.4289 18.0792 17.6761 18.2276 17.9234C18.3265 18.0964 18.4006 18.2447 18.5242 18.3931C18.722 18.665 18.9445 18.9122 19.167 19.1842C19.2906 19.3325 19.3648 19.4561 19.4884 19.5797C19.7356 19.8764 20.057 20.1483 20.3537 20.4203C20.4525 20.5192 20.5514 20.618 20.675 20.7417C21.0211 21.0383 21.4167 21.335 21.8122 21.6316C21.8864 21.6811 21.9606 21.7553 22.0595 21.8294C22.5539 22.1755 23.0978 22.5216 23.6664 22.843C24.2103 23.1644 24.7789 23.4363 25.3475 23.733C25.57 23.8319 25.7925 23.9308 26.015 24.0297C26.3858 24.178 26.7319 24.3511 27.1274 24.4994C27.9185 24.8208 28.7591 25.0927 29.5996 25.3399C29.8716 25.4141 30.1435 25.4883 30.4155 25.5624C30.8852 25.686 31.3302 25.8096 31.7999 25.9085C32.1213 25.9827 32.4674 26.0569 32.7888 26.1063C33.1843 26.1805 33.6046 26.2546 34.0001 26.3288C34.3462 26.3782 34.6676 26.4277 35.0137 26.4771C35.4093 26.5266 35.7801 26.576 36.1757 26.6007C36.5465 26.6255 36.9173 26.6749 37.2634 26.6996C37.6342 26.7243 38.0051 26.7491 38.3759 26.7491C38.7467 26.7738 39.1176 26.7738 39.4884 26.7738C39.612 26.7738 39.7603 26.7738 39.8839 26.7738C40.1559 26.7738 40.4278 26.7738 40.6998 26.7738C41.0459 26.7738 41.392 26.7491 41.7381 26.7491C42.2572 26.7243 42.7764 26.6749 43.3203 26.6502C43.5922 26.6255 43.8642 26.6007 44.1114 26.576C45.0014 26.4771 45.8914 26.3535 46.7566 26.2052C47.0533 26.1557 47.3499 26.0816 47.6219 26.0321C48.0422 25.958 48.4872 25.8591 48.9074 25.7602C49.2288 25.686 49.5255 25.5871 49.8221 25.513C50.2177 25.4141 50.6132 25.2905 51.0088 25.1669C51.2313 25.0927 51.4538 25.0185 51.701 24.9444C52.319 24.7219 52.9371 24.4994 53.5057 24.2522C53.7282 24.1533 53.9507 24.0791 54.1485 23.9802C54.9148 23.6341 55.6318 23.288 56.324 22.8677C56.8926 22.5464 57.4117 22.2002 57.9062 21.8541C57.9556 21.8294 58.0051 21.78 58.0545 21.7305C58.4995 21.4091 58.8951 21.0878 59.2659 20.7664C59.3153 20.7169 59.3648 20.6675 59.4142 20.6428C59.785 20.3214 60.1311 19.9753 60.4278 19.6539C60.4773 19.6044 60.502 19.555 60.5514 19.5056C60.8481 19.1595 61.12 18.8381 61.3672 18.4672C61.4909 18.2942 61.565 18.1211 61.6639 17.9728C61.8122 17.7256 61.9606 17.5031 62.0842 17.2559C62.1831 17.0828 62.2325 16.9098 62.3067 16.712C62.4056 16.4648 62.5292 16.2423 62.6033 15.9951C62.6775 15.7973 62.7022 15.6242 62.7517 15.4264C62.8011 15.1792 62.8753 14.9567 62.9247 14.7095C62.9494 14.5117 62.9495 14.314 62.9742 14.1162C63.2956 10.4574 61.0459 6.72435 56.2004 3.90606C51.6763 1.31026 45.743 0 39.8345 0Z" fill="#58D8FF"/>
<path d="M65.5204 53.5475C65.4957 53.77 65.4957 53.9925 65.471 54.215C65.471 54.2645 65.4462 54.3386 65.4215 54.3881C65.4215 54.4375 65.4215 54.487 65.3968 54.5117C65.3721 54.6847 65.2979 54.8331 65.2485 55.0061C65.199 55.2039 65.1743 55.4017 65.1001 55.5994C65.0754 55.6736 65.0507 55.7231 65.026 55.7972C65.0012 55.8467 65.0012 55.8961 64.9765 55.9703C64.9271 56.1186 64.8282 56.2669 64.754 56.44C64.6798 56.6378 64.6057 56.8355 64.5068 57.0086C64.4574 57.0828 64.4079 57.1569 64.3832 57.2311C64.3337 57.3053 64.3337 57.3547 64.2843 57.4289C64.1112 57.7255 63.9382 58.0222 63.7404 58.2941C63.7157 58.3189 63.7157 58.3436 63.7157 58.3436C63.691 58.393 63.6415 58.4177 63.6168 58.4672C63.4932 58.6402 63.3943 58.7886 63.2707 58.9616C63.1224 59.1594 62.9493 59.3325 62.801 59.5055C62.7515 59.555 62.7268 59.6044 62.6774 59.6538C62.6527 59.6786 62.6279 59.7033 62.6032 59.728C62.3066 60.0494 62.0099 60.3708 61.6638 60.6674C61.6143 60.7169 61.5649 60.7416 61.5155 60.791C61.466 60.8405 61.4413 60.8652 61.3918 60.9147C61.1941 61.0877 60.9716 61.2608 60.7491 61.4091C60.5019 61.6069 60.2546 61.8046 60.0074 62.0024C59.958 62.0271 59.9085 62.0766 59.8591 62.1013C59.6366 62.2744 59.3646 62.4227 59.1174 62.571C58.8702 62.7194 58.6724 62.8924 58.4005 63.0407C58.3016 63.0902 58.2027 63.1643 58.0791 63.2138C57.3127 63.6588 56.4969 64.0543 55.6564 64.4252C55.4091 64.5488 55.1619 64.6477 54.89 64.7465C54.2472 65.0185 53.6045 65.2657 52.937 65.4882C52.7639 65.5376 52.6156 65.6118 52.4425 65.686C52.3436 65.7107 52.22 65.7354 52.1211 65.7849C51.7256 65.9085 51.3053 66.0321 50.885 66.131C50.5142 66.2299 50.1681 66.3287 49.7973 66.4276C49.3523 66.5265 48.9073 66.6254 48.4623 66.6996C48.1656 66.7737 47.869 66.8479 47.5476 66.8973C47.4981 66.8973 47.4487 66.8974 47.3745 66.9221C46.4104 67.0951 45.4462 67.2187 44.4821 67.3176C44.4079 67.3176 44.3337 67.3423 44.2596 67.3423C44.0124 67.3671 43.7651 67.3671 43.5179 67.3918C42.9493 67.4412 42.3807 67.4907 41.8121 67.5154C41.6638 67.5154 41.5402 67.5401 41.3918 67.5401C41.1446 67.5401 40.9221 67.5401 40.6749 67.5401C40.2052 67.5401 39.7355 67.5401 39.241 67.5401C39.068 67.5401 38.8949 67.5401 38.7219 67.5401C38.4994 67.5401 38.3016 67.5154 38.0791 67.5154C37.6341 67.4907 37.1891 67.4659 36.7441 67.4412C36.5464 67.4165 36.3733 67.4165 36.1755 67.4165C35.9777 67.3918 35.78 67.3671 35.5822 67.3423C35.1372 67.2929 34.7169 67.2435 34.2967 67.194C34.0989 67.1693 33.8764 67.1446 33.6786 67.1198C33.4808 67.0951 33.3078 67.0457 33.1347 67.021C32.665 66.9468 32.22 66.8726 31.775 66.7737C31.5525 66.7243 31.3548 66.6996 31.1323 66.6501C30.9839 66.6254 30.8603 66.576 30.712 66.5512C30.1434 66.4276 29.5995 66.2793 29.0556 66.1557C28.8578 66.1062 28.6354 66.0568 28.4376 66.0074C28.3634 65.9826 28.314 65.9579 28.2398 65.9332C27.2757 65.6613 26.3609 65.3399 25.4462 64.9938C25.3968 64.969 25.3473 64.969 25.2979 64.9443C24.9271 64.796 24.5562 64.6229 24.2101 64.4746C23.9629 64.3757 23.7157 64.2768 23.4685 64.1532C22.8257 63.8566 22.1829 63.5105 21.5896 63.1643C20.9468 62.7935 20.3535 62.4227 19.8096 62.0271C19.7108 61.953 19.6366 61.8788 19.5624 61.8294C19.1174 61.508 18.6724 61.1619 18.2769 60.8158C18.1533 60.6922 18.0297 60.5685 17.9061 60.4449C17.5847 60.1483 17.2633 59.8516 16.9666 59.5302C16.8183 59.3572 16.7194 59.2088 16.5711 59.0358C16.3486 58.7638 16.1014 58.4919 15.9036 58.1952C15.78 57.9975 15.6811 57.7997 15.5575 57.6266C15.3844 57.3547 15.2114 57.1075 15.0878 56.8355C14.9889 56.613 14.9147 56.4153 14.8158 56.1928C14.7169 55.9456 14.5686 55.6736 14.4944 55.4264C14.4203 55.2039 14.3956 54.9814 14.3214 54.7589C14.2472 54.5117 14.1731 54.2397 14.1236 53.9925C14.0742 53.77 14.0742 53.5475 14.0742 53.3498C14.0494 53.0778 14 52.8306 14 52.5587C14 52.5339 14 52.5339 14 52.5339V53.6217C14 57.4783 16.5216 61.3102 21.5896 64.2521C22.1829 64.5982 22.8257 64.9196 23.4685 65.241C23.691 65.3399 23.9382 65.4388 24.1607 65.5376C24.5315 65.7107 24.9023 65.859 25.2979 66.0074C25.3473 66.0321 25.3968 66.0568 25.4462 66.0568C26.3362 66.4029 27.2756 66.7243 28.2151 66.9962C28.2892 67.021 28.3634 67.021 28.4129 67.0457C28.6106 67.0951 28.8331 67.1693 29.0309 67.2187C29.5748 67.3671 30.1187 67.4907 30.6873 67.6143C30.8356 67.639 30.9592 67.6637 31.1075 67.6884C31.33 67.7379 31.5278 67.7873 31.7503 67.8121C32.1953 67.8862 32.665 67.9851 33.1347 68.0593C33.3078 68.084 33.5056 68.1087 33.6786 68.1334C33.8764 68.1582 34.0742 68.1829 34.2967 68.2076C34.7169 68.257 35.1619 68.3065 35.5822 68.3559C35.78 68.3807 35.9777 68.3807 36.1755 68.4054C36.3733 68.4301 36.5464 68.4301 36.7441 68.4548C37.1891 68.4795 37.6341 68.5043 38.0791 68.529C38.3016 68.529 38.4994 68.529 38.7219 68.5537C38.8949 68.5537 39.068 68.5784 39.241 68.5784C39.7108 68.5784 40.1805 68.5784 40.6749 68.5784C40.9221 68.5784 41.1446 68.5784 41.3918 68.5537C41.5402 68.5537 41.6638 68.5537 41.8121 68.5537C42.4054 68.529 42.9988 68.4795 43.5674 68.4301C43.7899 68.4054 44.0371 68.4054 44.2596 68.3807C44.3337 68.3807 44.3832 68.3807 44.4574 68.3559C45.4462 68.2571 46.4351 68.1087 47.3993 67.9357C47.4487 67.9357 47.4981 67.9109 47.5476 67.9109C47.8195 67.8615 48.0915 67.8121 48.3634 67.7379C48.8331 67.639 49.3276 67.5401 49.7973 67.4412C50.1434 67.3671 50.4895 67.2682 50.8109 67.1693C51.2559 67.0457 51.7009 66.9221 52.1211 66.7985C52.22 66.7737 52.3189 66.7243 52.4178 66.6996C52.5661 66.6501 52.7392 66.6007 52.8875 66.5512C53.5797 66.3287 54.2472 66.0568 54.89 65.7849C55.1372 65.686 55.3844 65.5871 55.6316 65.4635C56.4722 65.0926 57.288 64.6971 58.0544 64.2521C58.1533 64.1779 58.2522 64.1285 58.351 64.0543C58.5983 63.906 58.796 63.7577 59.0433 63.6093C59.3399 63.4116 59.6613 63.2138 59.958 63.016C60.2299 62.8182 60.4524 62.6205 60.6996 62.4227C60.9716 62.2002 61.2188 62.0024 61.466 61.7799C61.5154 61.7305 61.5649 61.681 61.6143 61.6316C61.9357 61.3349 62.2571 61.0383 62.5538 60.7169C62.6032 60.6427 62.6774 60.5933 62.7268 60.5191C62.8999 60.3213 63.0482 60.0988 63.2213 59.9011C63.3449 59.7527 63.4685 59.6044 63.5674 59.4561C63.6168 59.4066 63.6415 59.3572 63.691 59.283C63.9135 58.9863 64.0865 58.665 64.2596 58.3436C64.2843 58.2941 64.3337 58.2447 64.3585 58.1952C64.5068 57.9233 64.6304 57.6514 64.7293 57.3794C64.8035 57.2064 64.8776 57.0333 64.9518 56.8603C64.9765 56.8108 64.9765 56.7861 65.0012 56.7614C65.1001 56.4894 65.1496 56.2422 65.2237 55.9703C65.2732 55.7725 65.3226 55.5747 65.3721 55.4017C65.3721 55.377 65.3721 55.3522 65.3968 55.3522C65.4462 55.0803 65.4709 54.7836 65.4957 54.5117C65.5204 54.2892 65.5451 54.042 65.5451 53.8195V52.9295C65.5946 53.2261 65.5451 53.3745 65.5204 53.5475Z" fill="#139DC8"/>
<path d="M62.9493 46.2052V52.7812C62.9493 52.979 62.9246 53.1521 62.8999 53.3498C62.6774 56.5637 60.4771 59.7528 56.2497 62.2003C47.2756 67.4166 32.6156 67.4166 23.5674 62.2003C19.241 59.7034 17.0161 56.4648 16.7936 53.1768C16.7936 53.0285 16.7688 52.8801 16.7441 52.7565C16.7441 52.7318 16.7441 52.7071 16.7441 52.7071C16.7441 52.534 16.7688 52.3857 16.7936 52.2126V46.0569C15.0136 48.1335 14.0989 50.4079 14.0989 52.6824C14.0989 52.9543 14.1483 53.2015 14.173 53.4734C14.1978 53.6959 14.1978 53.9184 14.2225 54.1162C14.2719 54.3634 14.3461 54.6354 14.4203 54.8826C14.4697 55.1051 14.5191 55.3276 14.5933 55.5501C14.6675 55.7973 14.8158 56.0692 14.9147 56.3165C15.0136 56.539 15.0878 56.7367 15.1866 56.9592C15.335 57.2312 15.508 57.4784 15.6564 57.7503C15.78 57.9481 15.8789 58.1459 16.0025 58.3189C16.2002 58.6156 16.4475 58.8875 16.67 59.1595C16.7936 59.3325 16.9172 59.4809 17.0655 59.6539C17.3374 59.9753 17.6835 60.272 18.0049 60.5686C18.1285 60.6922 18.2522 60.8158 18.3758 60.9395C18.7713 61.2856 19.2163 61.607 19.6613 61.9531C19.7602 62.0272 19.8344 62.1014 19.9085 62.1508C20.4524 62.5464 21.0457 62.9172 21.6885 63.288C22.2818 63.6341 22.9246 63.9555 23.5674 64.2769C23.8146 64.4005 24.0618 64.4747 24.309 64.5983C24.7046 64.7713 25.1248 64.9691 25.5451 65.1175C26.4351 65.4636 27.3745 65.785 28.3387 66.0569C28.6106 66.1311 28.8826 66.2052 29.1545 66.2794C29.6984 66.4277 30.2423 66.576 30.8109 66.6749C31.157 66.7491 31.5031 66.8233 31.8492 66.8974C32.2942 66.9716 32.7639 67.0705 33.2089 67.1447C33.6044 67.1941 33.9753 67.2683 34.3708 67.3177C34.7911 67.3671 35.2361 67.4166 35.6564 67.466C36.0519 67.5155 36.4227 67.5402 36.8183 67.5649C37.2633 67.5896 37.7083 67.6144 38.1533 67.6391C38.5488 67.6638 38.9196 67.6638 39.3152 67.6638C39.7849 67.6638 40.2546 67.6638 40.7491 67.6638C41.1199 67.6638 41.4907 67.6391 41.8863 67.6391C42.4549 67.6144 43.0235 67.5649 43.5921 67.5155C43.9135 67.4908 44.2348 67.466 44.5562 67.4413C45.5451 67.3424 46.5093 67.1941 47.4487 67.0458C47.8195 66.9716 48.1656 66.8974 48.5117 66.8233C48.9567 66.7244 49.4017 66.6502 49.8467 66.5513C50.2175 66.4524 50.5884 66.3535 50.9345 66.2547C51.3547 66.1311 51.775 66.0322 52.1706 65.9086C52.4425 65.8344 52.7145 65.7355 52.9864 65.6366C53.6539 65.4141 54.2967 65.1669 54.9394 64.895C55.1866 64.7961 55.4586 64.6725 55.7058 64.5736C56.5463 64.2027 57.3622 63.8072 58.1285 63.3622C58.7466 62.9914 59.3399 62.6206 59.8838 62.225C59.9332 62.2003 59.9827 62.1508 60.0321 62.1261C60.5266 61.78 60.9963 61.4092 61.4165 61.0383C61.466 60.9889 61.4907 60.9642 61.5402 60.9147C61.9604 60.5439 62.356 60.1731 62.7021 59.7775C62.7515 59.7281 62.7763 59.6786 62.8257 59.6292C63.1718 59.2584 63.4685 58.8628 63.7404 58.4673C63.7651 58.4425 63.7651 58.4178 63.7651 58.4178C64.0618 57.9976 64.309 57.5526 64.5562 57.1076C64.6551 56.9098 64.7046 56.712 64.8034 56.539C64.9271 56.267 65.0507 55.9951 65.1496 55.7231C65.2237 55.5254 65.2484 55.3276 65.2979 55.1298C65.3721 54.8579 65.4462 54.5859 65.4957 54.314C65.5204 54.0915 65.5204 53.869 65.5451 53.6465C65.7429 51.0507 64.8776 48.5044 62.9493 46.2052Z" fill="#58D8FF"/>
<path d="M65.5204 50.2594C65.4957 50.4819 65.4957 50.7044 65.471 50.9269C65.471 50.9764 65.4462 51.0505 65.4215 51.1C65.4215 51.1494 65.4215 51.1989 65.3968 51.2236C65.3721 51.3967 65.2979 51.545 65.2485 51.718C65.199 51.9158 65.1743 52.1136 65.1001 52.3114C65.0754 52.3855 65.0507 52.435 65.026 52.5091C65.0012 52.5586 65.0012 52.608 64.9765 52.6822C64.9271 52.8305 64.8282 52.9789 64.754 53.1519C64.6798 53.3497 64.6057 53.5475 64.5068 53.7205C64.4574 53.7947 64.4079 53.8688 64.3832 53.943C64.3337 54.0172 64.3337 54.0666 64.2843 54.1408C64.1112 54.4374 63.9382 54.7341 63.7404 55.006C63.7157 55.0308 63.7157 55.0555 63.7157 55.0555C63.691 55.1049 63.6415 55.1297 63.6168 55.1791C63.4932 55.3522 63.3943 55.5005 63.2707 55.6735C63.1224 55.8713 62.9493 56.0444 62.801 56.2174C62.7515 56.2669 62.7268 56.3163 62.6774 56.3657C62.6527 56.3905 62.6279 56.4152 62.6032 56.4399C62.3066 56.7613 62.0099 57.0827 61.6638 57.3793C61.6143 57.4288 61.5649 57.4535 61.5155 57.503C61.466 57.5524 61.4413 57.5771 61.3918 57.6266C61.1941 57.7996 60.9716 57.9727 60.7491 58.121C60.5019 58.3188 60.2546 58.5166 60.0074 58.7143C59.958 58.739 59.9085 58.7885 59.8591 58.8132C59.6366 58.9863 59.3646 59.1346 59.1174 59.2829C58.8702 59.4313 58.6724 59.6043 58.4005 59.7526C58.3016 59.8021 58.2027 59.8763 58.0791 59.9257C57.3127 60.3707 56.4969 60.7662 55.6564 61.1371C55.4091 61.2607 55.1619 61.3596 54.89 61.4585C54.2472 61.7304 53.6045 61.9776 52.937 62.2001C52.7639 62.2496 52.6156 62.3237 52.4425 62.3979C52.3436 62.4226 52.22 62.4473 52.1211 62.4968C51.7256 62.6204 51.3053 62.744 50.885 62.8429C50.5142 62.9418 50.1681 63.0407 49.7973 63.1395C49.3523 63.2384 48.9073 63.3373 48.4623 63.4115C48.1656 63.4857 47.869 63.5598 47.5476 63.6093C47.4981 63.6093 47.4487 63.634 47.3745 63.634C46.4104 63.807 45.4462 63.9306 44.4821 64.0295C44.4079 64.0295 44.3337 64.0543 44.2596 64.0543C44.0124 64.079 43.7651 64.079 43.5179 64.1037C42.9493 64.1531 42.3807 64.2026 41.8121 64.2273C41.6638 64.2273 41.5402 64.252 41.3918 64.252C41.1446 64.252 40.9221 64.252 40.6749 64.252C40.2052 64.252 39.7355 64.252 39.241 64.252C39.068 64.252 38.8949 64.252 38.7219 64.252C38.4994 64.252 38.3016 64.2273 38.0791 64.2273C37.6341 64.2026 37.1891 64.1779 36.7441 64.1531C36.5464 64.1284 36.3733 64.1284 36.1755 64.1284C35.9777 64.1037 35.78 64.079 35.5822 64.0543C35.1372 64.0048 34.7169 63.9554 34.2967 63.9059C34.0989 63.8812 33.8764 63.8565 33.6786 63.8318C33.4808 63.807 33.3078 63.7576 33.1347 63.7329C32.665 63.6587 32.22 63.5845 31.775 63.4856C31.5525 63.4362 31.3548 63.4115 31.1323 63.362C30.9839 63.3373 30.8603 63.2879 30.712 63.2632C30.1434 63.1395 29.5995 62.9912 29.0556 62.8676C28.8578 62.8182 28.6354 62.7687 28.4376 62.7193C28.3634 62.6946 28.314 62.6698 28.2398 62.6451C27.2757 62.3732 26.3609 62.0518 25.4462 61.7057C25.3968 61.681 25.3473 61.681 25.2979 61.6562C24.9271 61.5079 24.5562 61.3348 24.2101 61.1865C23.9629 61.0876 23.7157 60.9887 23.4685 60.8651C22.8257 60.5685 22.1829 60.2224 21.5896 59.8763C20.9468 59.5054 20.3535 59.1346 19.8096 58.739C19.7108 58.6649 19.6366 58.5907 19.5624 58.5413C19.1174 58.2199 18.6724 57.8738 18.2769 57.5277C18.1533 57.4041 18.0297 57.2805 17.9061 57.1569C17.5847 56.8602 17.2633 56.5635 16.9666 56.2421C16.8183 56.0691 16.7194 55.9208 16.5711 55.7477C16.3486 55.4758 16.1014 55.2038 15.9036 54.9072C15.78 54.7094 15.6811 54.5116 15.5575 54.3386C15.3844 54.0666 15.2114 53.8194 15.0878 53.5475C14.9889 53.325 14.9147 53.1272 14.8158 52.9047C14.7169 52.6575 14.5686 52.3855 14.4944 52.1383C14.4203 51.9158 14.3956 51.6933 14.3214 51.4708C14.2472 51.2236 14.1731 50.9517 14.1236 50.7044C14.0742 50.4819 14.0742 50.2594 14.0742 50.0617C14.0494 49.7897 14 49.5425 14 49.2706C14 49.2458 14 49.2458 14 49.2458V50.3336C14 54.1902 16.5216 58.0221 21.5896 60.964C22.1829 61.3101 22.8257 61.6315 23.4685 61.9529C23.691 62.0518 23.9382 62.1507 24.1607 62.2496C24.5315 62.4226 24.9023 62.5709 25.2979 62.7193C25.3473 62.744 25.3968 62.7687 25.4462 62.7687C26.3362 63.1148 27.2756 63.4362 28.2151 63.7081C28.2892 63.7329 28.3634 63.7329 28.4129 63.7576C28.6106 63.807 28.8331 63.8812 29.0309 63.9306C29.5748 64.079 30.1187 64.2026 30.6873 64.3262C30.8356 64.3509 30.9592 64.3756 31.1075 64.4004C31.33 64.4498 31.5278 64.4992 31.7503 64.524C32.1953 64.5981 32.665 64.697 33.1347 64.7712C33.3078 64.7959 33.5056 64.8206 33.6786 64.8454C33.8764 64.8701 34.0742 64.8948 34.2967 64.9195C34.7169 64.969 35.1619 65.0184 35.5822 65.0679C35.78 65.0926 35.9777 65.0926 36.1755 65.1173C36.3733 65.142 36.5464 65.142 36.7441 65.1667C37.1891 65.1915 37.6341 65.2162 38.0791 65.2409C38.3016 65.2409 38.4994 65.2409 38.7219 65.2656C38.8949 65.2656 39.068 65.2903 39.241 65.2903C39.7108 65.2903 40.1805 65.2903 40.6749 65.2903C40.9221 65.2903 41.1446 65.2903 41.3918 65.2656C41.5402 65.2656 41.6638 65.2656 41.8121 65.2656C42.4054 65.2409 42.9988 65.1915 43.5674 65.142C43.7899 65.1173 44.0371 65.1173 44.2596 65.0926C44.3337 65.0926 44.3832 65.0926 44.4574 65.0679C45.4462 64.969 46.4351 64.8206 47.3993 64.6476C47.4487 64.6476 47.4981 64.6229 47.5476 64.6229C47.8195 64.5734 48.0915 64.524 48.3634 64.4498C48.8331 64.3509 49.3276 64.252 49.7973 64.1531C50.1434 64.079 50.4895 63.9801 50.8109 63.8812C51.2559 63.7576 51.7009 63.634 52.1211 63.5104C52.22 63.4856 52.3189 63.4362 52.4178 63.4115C52.5661 63.362 52.7392 63.3126 52.8875 63.2632C53.5797 63.0407 54.2472 62.7687 54.89 62.4968C55.1372 62.3979 55.3844 62.299 55.6316 62.1754C56.4722 61.8046 57.288 61.409 58.0544 60.964C58.1533 60.8899 58.2522 60.8404 58.351 60.7662C58.5983 60.6179 58.796 60.4696 59.0433 60.3212C59.3399 60.1235 59.6613 59.9257 59.958 59.7279C60.2299 59.5302 60.4524 59.3324 60.6996 59.1346C60.9716 58.9121 61.2188 58.7143 61.466 58.4918C61.5154 58.4424 61.5649 58.3929 61.6143 58.3435C61.9357 58.0468 62.2571 57.7502 62.5538 57.4288C62.6032 57.3546 62.6774 57.3052 62.7268 57.231C62.8999 57.0332 63.0482 56.8107 63.2213 56.613C63.3449 56.4646 63.4685 56.3163 63.5674 56.168C63.6168 56.1185 63.6415 56.0691 63.691 55.9949C63.9135 55.6983 64.0865 55.3769 64.2596 55.0555C64.2843 55.006 64.3337 54.9566 64.3585 54.9072C64.5068 54.6352 64.6304 54.3633 64.7293 54.0913C64.8035 53.9183 64.8776 53.7452 64.9518 53.5722C64.9765 53.5227 64.9765 53.498 65.0012 53.4733C65.1001 53.2013 65.1496 52.9541 65.2237 52.6822C65.2732 52.4844 65.3226 52.2866 65.3721 52.1136C65.3721 52.0889 65.3721 52.0641 65.3968 52.0641C65.4462 51.7922 65.4709 51.4955 65.4957 51.2236C65.5204 51.0011 65.5451 50.7539 65.5451 50.5314V49.6414C65.5946 49.9133 65.5451 50.0864 65.5204 50.2594Z" fill="#139DC8"/>
<path d="M62.9493 42.9171V49.4932C62.9493 49.6909 62.9246 49.864 62.8999 50.0618C62.6774 53.2756 60.4771 56.4647 56.2497 58.9122C47.2756 64.1285 32.6156 64.1285 23.5674 58.9122C19.241 56.4153 17.0161 53.1767 16.7936 49.8887C16.7936 49.7404 16.7688 49.592 16.7441 49.4684C16.7441 49.4437 16.7441 49.419 16.7441 49.419C16.7441 49.2459 16.7688 49.0976 16.7936 48.9245V42.7688C15.0136 44.8454 14.0989 47.1198 14.0989 49.3943C14.0989 49.6662 14.1483 49.9134 14.173 50.1854C14.1978 50.4079 14.1978 50.6304 14.2225 50.8281C14.2719 51.0754 14.3461 51.3473 14.4203 51.5945C14.4697 51.817 14.5191 52.0395 14.5933 52.262C14.6675 52.5092 14.8158 52.7812 14.9147 53.0284C15.0136 53.2509 15.0878 53.4487 15.1866 53.6711C15.335 53.9431 15.508 54.1903 15.6564 54.4622C15.78 54.66 15.8789 54.8578 16.0025 55.0309C16.2002 55.3275 16.4475 55.5995 16.67 55.8714C16.7936 56.0444 16.9172 56.1928 17.0655 56.3658C17.3374 56.6872 17.6835 56.9839 18.0049 57.2805C18.1285 57.4042 18.2522 57.5278 18.3758 57.6514C18.7713 57.9975 19.2163 58.3189 19.6613 58.665C19.7602 58.7391 19.8344 58.8133 19.9085 58.8627C20.4524 59.2583 21.0457 59.6291 21.6885 60C22.2818 60.3461 22.9246 60.6674 23.5674 60.9888C23.8146 61.1124 24.0618 61.1866 24.309 61.3102C24.7046 61.4833 25.1248 61.6563 25.5451 61.8294C26.4351 62.1755 27.3745 62.4969 28.3387 62.7688C28.6106 62.843 28.8826 62.9171 29.1545 62.9913C29.6984 63.1396 30.2423 63.288 30.8109 63.3868C31.157 63.461 31.5031 63.5352 31.8492 63.6093C32.2942 63.7082 32.7639 63.7824 33.2089 63.8566C33.6044 63.906 33.9753 63.9802 34.3708 64.0296C34.7911 64.0791 35.2361 64.1285 35.6564 64.1779C36.0519 64.2027 36.4227 64.2521 36.8183 64.2768C37.2633 64.3016 37.7083 64.3263 38.1533 64.351C38.5488 64.3757 38.9196 64.3757 39.3152 64.3757C39.7849 64.3757 40.2546 64.3757 40.7491 64.3757C41.1199 64.3757 41.4907 64.351 41.8863 64.351C42.4549 64.3263 43.0235 64.2768 43.5921 64.2274C43.9135 64.2027 44.2348 64.1779 44.5562 64.1532C45.5451 64.0543 46.5093 63.906 47.4487 63.7577C47.8195 63.6835 48.1656 63.6093 48.5117 63.5352C48.9567 63.4363 49.4017 63.3621 49.8467 63.2632C50.2175 63.1643 50.5884 63.0655 50.9345 62.9666C51.3547 62.843 51.775 62.7441 52.1706 62.6205C52.4425 62.5463 52.7145 62.4474 52.9864 62.3485C53.6539 62.126 54.2967 61.8788 54.9394 61.6069C55.1866 61.508 55.4586 61.3844 55.7058 61.2855C56.5463 60.9147 57.3622 60.5191 58.1285 60.0741C58.7466 59.7033 59.3399 59.3325 59.8838 58.9369C59.9332 58.9122 59.9827 58.8627 60.0321 58.838C60.5266 58.4919 60.9963 58.1211 61.4165 57.7503C61.466 57.7008 61.4907 57.6761 61.5402 57.6266C61.9604 57.2558 62.356 56.885 62.7021 56.4894C62.7515 56.44 62.7763 56.3906 62.8257 56.3411C63.1718 55.9703 63.4685 55.5747 63.7404 55.1792C63.7651 55.1545 63.7651 55.1297 63.7651 55.1297C64.0618 54.7095 64.309 54.2645 64.5562 53.8195C64.6551 53.6217 64.7046 53.4486 64.8034 53.2509C64.9271 52.9789 65.0507 52.707 65.1496 52.4351C65.2237 52.2373 65.2484 52.0395 65.2979 51.8417C65.3721 51.5698 65.4462 51.2978 65.4957 51.0259C65.5204 50.8034 65.5204 50.5809 65.5451 50.3584C65.7429 47.7379 64.8776 45.2163 62.9493 42.9171Z" fill="#58D8FF"/>
<path d="M65.5204 33.1274C65.4957 33.3499 65.4957 33.5724 65.471 33.7949C65.471 33.8443 65.4462 33.9185 65.4215 33.9679C65.4215 34.0174 65.4215 34.0668 65.3968 34.0915C65.3721 34.2646 65.2979 34.4129 65.2485 34.586C65.199 34.7837 65.1743 34.9815 65.1001 35.1793C65.0754 35.2535 65.0507 35.3029 65.026 35.3771C65.0012 35.4265 65.0012 35.4759 64.9765 35.5501C64.9271 35.6984 64.8282 35.8468 64.754 36.0198C64.6798 36.2176 64.6057 36.4154 64.5068 36.5884C64.4574 36.6626 64.4079 36.7368 64.3832 36.8109C64.3337 36.8851 64.3337 36.9345 64.2843 37.0087C64.1112 37.3054 63.9382 37.602 63.7404 37.874C63.7157 37.8987 63.7157 37.9234 63.7157 37.9234C63.691 37.9729 63.6415 37.9976 63.6168 38.047C63.4932 38.2201 63.3943 38.3684 63.2707 38.5415C63.1224 38.7392 62.9493 38.9123 62.801 39.0853C62.7515 39.1348 62.7268 39.1842 62.6774 39.2337C62.6527 39.2584 62.6279 39.2831 62.6032 39.3078C62.3066 39.6292 62.0099 39.9506 61.6638 40.2473C61.6143 40.2967 61.5649 40.3214 61.5155 40.3709C61.466 40.4203 61.4413 40.445 61.3918 40.4945C61.1941 40.6675 60.9716 40.8406 60.7491 40.9889C60.5019 41.1867 60.2546 41.3845 60.0074 41.5823C59.958 41.607 59.9085 41.6564 59.8591 41.6811C59.6366 41.8542 59.3646 42.0025 59.1174 42.1509C58.8702 42.2992 58.6724 42.4722 58.4005 42.6206C58.3016 42.67 58.2027 42.7442 58.0791 42.7936C57.3127 43.2386 56.4969 43.6342 55.6564 44.005C55.4091 44.1286 55.1619 44.2275 54.89 44.3264C54.2472 44.5983 53.6045 44.8455 52.937 45.068C52.7639 45.1175 52.6156 45.1916 52.4425 45.2658C52.3436 45.2905 52.22 45.3153 52.1211 45.3647C51.7256 45.4883 51.3053 45.6119 50.885 45.7108C50.5142 45.8097 50.1681 45.9086 49.7973 46.0075C49.3523 46.1064 48.9073 46.2052 48.4623 46.2794C48.1656 46.3536 47.869 46.4277 47.5476 46.4772C47.4981 46.4772 47.4487 46.4772 47.3745 46.5019C46.4104 46.675 45.4462 46.7986 44.4821 46.8975C44.4079 46.8975 44.3337 46.9222 44.2596 46.9222C44.0124 46.9469 43.7651 46.9469 43.5179 46.9716C42.9493 47.0211 42.3807 47.0705 41.8121 47.0952C41.6638 47.0952 41.5402 47.12 41.3918 47.12C41.1446 47.12 40.9221 47.12 40.6749 47.12C40.2052 47.12 39.7355 47.12 39.241 47.12C39.068 47.12 38.8949 47.12 38.7219 47.12C38.4994 47.12 38.3016 47.0952 38.0791 47.0952C37.6341 47.0705 37.1891 47.0458 36.7441 47.0211C36.5464 46.9963 36.3733 46.9963 36.1755 46.9963C35.9777 46.9716 35.78 46.9469 35.5822 46.9222C35.1372 46.8727 34.7169 46.8233 34.2967 46.7738C34.0989 46.7491 33.8764 46.7244 33.6786 46.6997C33.4808 46.675 33.3078 46.6255 33.1347 46.6008C32.665 46.5266 32.22 46.4525 31.775 46.3536C31.5525 46.3041 31.3548 46.2794 31.1323 46.23C30.9839 46.2052 30.8603 46.1558 30.712 46.1311C30.1434 46.0075 29.5995 45.8591 29.0556 45.7355C28.8578 45.6861 28.6354 45.6366 28.4376 45.5872C28.3634 45.5625 28.314 45.5378 28.2398 45.513C27.2757 45.2411 26.3609 44.9197 25.4462 44.5736C25.3968 44.5489 25.3473 44.5489 25.2979 44.5242C24.9271 44.3758 24.5562 44.2028 24.2101 44.0544C23.9629 43.9556 23.7157 43.8567 23.4685 43.7331C22.8257 43.4364 22.1829 43.0903 21.5896 42.7442C20.9468 42.3734 20.3535 42.0025 19.8096 41.607C19.7108 41.5328 19.6366 41.4586 19.5624 41.4092C19.1174 41.0878 18.6724 40.7417 18.2769 40.3956C18.1533 40.272 18.0297 40.1484 17.9061 40.0248C17.5847 39.7281 17.2633 39.4314 16.9666 39.1101C16.8183 38.937 16.7194 38.7887 16.5711 38.6156C16.3486 38.3437 16.1014 38.0717 15.9036 37.7751C15.78 37.5773 15.6811 37.3795 15.5575 37.2065C15.3844 36.9345 15.2114 36.6873 15.0878 36.4154C14.9889 36.1929 14.9147 35.9951 14.8158 35.7726C14.7169 35.5254 14.5686 35.2535 14.4944 35.0062C14.4203 34.7837 14.3956 34.5612 14.3214 34.3387C14.2472 34.0915 14.1731 33.8196 14.1236 33.5724C14.0742 33.3499 14.0742 33.1521 14.0742 32.9296C14.0494 32.6577 14 32.4104 14 32.1385C14 32.1138 14 32.1138 14 32.1138V33.2015C14 37.0581 16.5216 40.89 21.5896 43.8319C22.1829 44.178 22.8257 44.4994 23.4685 44.8208C23.691 44.9197 23.9382 45.0186 24.1607 45.1175C24.5315 45.2905 24.9023 45.4389 25.2979 45.5872C25.3473 45.6119 25.3968 45.6366 25.4462 45.6366C26.3362 45.9827 27.2756 46.3041 28.2151 46.5761C28.2892 46.6008 28.3634 46.6008 28.4129 46.6255C28.6106 46.675 28.8331 46.7491 29.0309 46.7986C29.5748 46.9469 30.1187 47.0705 30.6873 47.1941C30.8356 47.2188 30.9592 47.2436 31.1075 47.2683C31.33 47.3177 31.5278 47.3672 31.7503 47.3919C32.1953 47.4661 32.665 47.5649 33.1347 47.6391C33.3078 47.6638 33.5056 47.6886 33.6786 47.7133C33.8764 47.738 34.0742 47.7627 34.2967 47.7874C34.7169 47.8369 35.1619 47.8863 35.5822 47.9358C35.78 47.9605 35.9777 47.9605 36.1755 47.9852C36.3733 48.0099 36.5464 48.0099 36.7441 48.0347C37.1891 48.0594 37.6341 48.0841 38.0791 48.1088C38.3016 48.1088 38.4994 48.1088 38.7219 48.1336C38.8949 48.1336 39.068 48.1583 39.241 48.1583C39.7108 48.1583 40.1805 48.1583 40.6749 48.1583C40.9221 48.1583 41.1446 48.1583 41.3918 48.1336C41.5402 48.1336 41.6638 48.1336 41.8121 48.1336C42.4054 48.1088 42.9988 48.0594 43.5674 48.0099C43.7899 47.9852 44.0371 47.9852 44.2596 47.9605C44.3337 47.9605 44.3832 47.9605 44.4574 47.9358C45.4462 47.8369 46.4351 47.6886 47.3993 47.5155C47.4487 47.5155 47.4981 47.4908 47.5476 47.4908C47.8195 47.4413 48.0915 47.3672 48.3634 47.3177C48.8331 47.2188 49.3276 47.12 49.7973 47.0211C50.1434 46.9469 50.4895 46.8233 50.8109 46.7491C51.2559 46.6255 51.7009 46.5019 52.1211 46.3783C52.22 46.3536 52.3189 46.3041 52.4178 46.2794C52.5661 46.23 52.7392 46.1805 52.8875 46.1311C53.5797 45.9086 54.2472 45.6366 54.89 45.3647C55.1372 45.2658 55.3844 45.1669 55.6316 45.0433C56.4722 44.6725 57.288 44.2769 58.0544 43.8072C58.1533 43.7331 58.2522 43.6836 58.351 43.6094C58.5983 43.4611 58.796 43.3128 59.0433 43.1645C59.3399 42.9667 59.6613 42.7689 59.958 42.5711C60.2299 42.3734 60.4524 42.1756 60.6996 41.9778C60.9716 41.7553 61.2188 41.5575 61.466 41.335C61.5154 41.2856 61.5649 41.2361 61.6143 41.1867C61.9357 40.89 62.2571 40.5934 62.5538 40.272C62.6032 40.1978 62.6774 40.1484 62.7268 40.0742C62.8999 39.8764 63.0482 39.6539 63.2213 39.4562C63.3449 39.3078 63.4685 39.1595 63.5674 39.0112C63.6168 38.9617 63.6415 38.9123 63.691 38.8381C63.9135 38.5415 64.0865 38.2201 64.2596 37.8987C64.2843 37.8492 64.3337 37.7998 64.3585 37.7504C64.5068 37.4784 64.6304 37.2065 64.7293 36.9345C64.8035 36.7615 64.8776 36.5884 64.9518 36.4154C64.9765 36.3659 64.9765 36.3412 65.0012 36.3165C65.1001 36.0445 65.1496 35.7973 65.2237 35.5254C65.2732 35.3276 65.3226 35.1298 65.3721 34.9568C65.3721 34.9321 65.3721 34.9073 65.3968 34.9073C65.4462 34.6354 65.4709 34.3387 65.4957 34.0668C65.5204 33.8443 65.5451 33.5971 65.5451 33.3746V32.4846C65.5946 32.7813 65.5451 32.9543 65.5204 33.1274Z" fill="#139DC8"/>
<path d="M62.9493 25.785V32.361C62.9493 32.5588 62.9246 32.7318 62.8999 32.9296C62.6774 36.1435 60.4771 39.3326 56.2497 41.78C47.2756 46.9964 32.6156 46.9964 23.5674 41.78C19.241 39.2831 17.0161 36.0446 16.7936 32.7813C16.7936 32.6329 16.7688 32.4846 16.7441 32.361C16.7441 32.3363 16.7441 32.3116 16.7441 32.3116C16.7441 32.1385 16.7688 31.9902 16.7936 31.8171V25.6614C15.0136 27.738 14.0989 30.0124 14.0989 32.2868C14.0989 32.5588 14.1483 32.806 14.173 33.0779C14.1978 33.3004 14.1978 33.5229 14.2225 33.7207C14.2719 33.9679 14.3461 34.2399 14.4203 34.4871C14.4697 34.7096 14.5191 34.9321 14.5933 35.1546C14.6675 35.4018 14.8158 35.6737 14.9147 35.921C15.0136 36.1435 15.0878 36.3412 15.1866 36.5637C15.335 36.8357 15.508 37.0829 15.6564 37.3548C15.78 37.5526 15.8789 37.7504 16.0025 37.9234C16.2002 38.2201 16.4475 38.492 16.67 38.764C16.7936 38.937 16.9172 39.0854 17.0655 39.2584C17.3374 39.5798 17.6835 39.8765 18.0049 40.1731C18.1285 40.2967 18.2522 40.4203 18.3758 40.5439C18.7713 40.8901 19.2163 41.2114 19.6613 41.5575C19.7602 41.6317 19.8344 41.6812 19.9085 41.7553C20.4524 42.1509 21.0457 42.5217 21.6885 42.8925C22.2818 43.2386 22.9246 43.56 23.5674 43.8814C23.8146 44.005 24.0618 44.0792 24.309 44.2028C24.7046 44.3758 25.1248 44.5736 25.5451 44.7219C26.4351 45.0681 27.3745 45.3894 28.3387 45.6614C28.6106 45.7355 28.8826 45.8097 29.1545 45.8839C29.6984 46.0322 30.2423 46.1805 30.8109 46.2794C31.157 46.3536 31.5031 46.4278 31.8492 46.5019C32.2942 46.5761 32.7639 46.675 33.2089 46.7491C33.6044 46.7986 33.9753 46.8727 34.3708 46.9222C34.7911 46.9716 35.2361 47.0211 35.6564 47.0705C36.0519 47.0952 36.4227 47.1447 36.8183 47.1694C37.2633 47.1941 37.7083 47.2189 38.1533 47.2436C38.5488 47.2683 38.9196 47.2683 39.3152 47.2683C39.7849 47.2683 40.2546 47.2683 40.7491 47.2683C41.1199 47.2683 41.4907 47.2436 41.8863 47.2436C42.4549 47.2189 43.0235 47.1694 43.5921 47.12C43.9135 47.0952 44.2348 47.0705 44.5562 47.0458C45.5451 46.9469 46.5093 46.7986 47.4487 46.6503C47.8195 46.5761 48.1656 46.5019 48.5117 46.4278C48.9567 46.3289 49.4017 46.2547 49.8467 46.1558C50.2175 46.0569 50.5884 45.958 50.9345 45.8592C51.3547 45.7355 51.775 45.6367 52.1706 45.513C52.4425 45.4389 52.7145 45.34 52.9864 45.2411C53.6539 45.0186 54.2967 44.7714 54.9394 44.4994C55.1866 44.4006 55.4586 44.277 55.7058 44.1781C56.5463 43.8072 57.3622 43.4117 58.1285 42.9667C58.7466 42.5959 59.3399 42.225 59.8838 41.8295C59.9332 41.8048 59.9827 41.7553 60.0321 41.7306C60.5266 41.3845 60.9963 41.0137 61.4165 40.6428C61.466 40.5934 61.4907 40.5687 61.5402 40.5192C61.9604 40.1484 62.356 39.7776 62.7021 39.382C62.7515 39.3326 62.7763 39.2831 62.8257 39.2337C63.1718 38.8381 63.4685 38.4673 63.7404 38.0718C63.7651 38.047 63.7651 38.0223 63.7651 38.0223C64.0618 37.602 64.309 37.1571 64.5562 36.7121C64.6551 36.5143 64.7046 36.3412 64.8034 36.1435C64.9271 35.8715 65.0507 35.5996 65.1496 35.3276C65.2237 35.1299 65.2484 34.9321 65.2979 34.7343C65.3721 34.4624 65.4462 34.1904 65.4957 33.9185C65.5204 33.696 65.5204 33.4735 65.5451 33.251C65.7429 30.6305 64.8776 28.0841 62.9493 25.785Z" fill="#58D8FF"/>
<path d="M65.5204 29.8393C65.4957 30.0618 65.4957 30.2843 65.471 30.482C65.471 30.5315 65.4462 30.6057 65.4215 30.6551C65.4215 30.7045 65.4215 30.754 65.3968 30.8034C65.3721 30.9765 65.2979 31.1248 65.2485 31.2979C65.199 31.4956 65.1743 31.6934 65.1001 31.8912C65.0754 31.9654 65.0507 32.0148 65.026 32.089C65.0012 32.1384 65.0012 32.1879 64.9765 32.262C64.9271 32.4104 64.8282 32.5587 64.754 32.7317C64.6798 32.9295 64.6057 33.1273 64.5068 33.3003C64.4574 33.3745 64.4079 33.4487 64.3832 33.5228C64.3337 33.597 64.3337 33.6464 64.2843 33.7206C64.1112 34.0173 63.9382 34.3139 63.7404 34.5859C63.7157 34.6106 63.7157 34.6353 63.7157 34.6353C63.691 34.6848 63.6415 34.7095 63.6168 34.7589C63.4932 34.932 63.3943 35.0803 63.2707 35.2534C63.1224 35.4511 62.9493 35.6242 62.801 35.7973C62.7515 35.8467 62.7268 35.8961 62.6774 35.9456C62.6527 35.9703 62.6279 35.995 62.6032 36.0197C62.3066 36.3411 62.0099 36.6625 61.6638 36.9592C61.6143 37.0086 61.5649 37.0333 61.5155 37.0828C61.466 37.1322 61.4413 37.157 61.3918 37.2064C61.1941 37.3795 60.9716 37.5525 60.7491 37.7008C60.5019 37.8986 60.2546 38.0964 60.0074 38.2942C59.958 38.3189 59.9085 38.3683 59.8591 38.3931C59.6366 38.5661 59.3646 38.7144 59.1174 38.8628C58.8702 39.0111 58.6724 39.1842 58.4005 39.3325C58.3016 39.3819 58.2027 39.4561 58.0791 39.5055C57.3127 39.9505 56.4969 40.3461 55.6564 40.7169C55.4091 40.8405 55.1619 40.9394 54.89 41.0383C54.2472 41.3102 53.6045 41.5574 52.937 41.7799C52.7639 41.8294 52.6156 41.9036 52.4425 41.9777C52.3436 42.0024 52.22 42.0272 52.1211 42.0766C51.7256 42.2002 51.3053 42.3238 50.885 42.4227C50.5142 42.5216 50.1681 42.6205 49.7973 42.7194C49.3523 42.8183 48.9073 42.9172 48.4623 42.9913C48.1656 43.0655 47.869 43.1397 47.5476 43.1891C47.4981 43.1891 47.4487 43.2138 47.3745 43.2138C46.4104 43.3869 45.4462 43.5105 44.4821 43.6094C44.4079 43.6094 44.3337 43.6341 44.2596 43.6341C44.0124 43.6588 43.7651 43.6588 43.5179 43.6835C42.9493 43.733 42.3807 43.7824 41.8121 43.8071C41.6638 43.8071 41.5402 43.8319 41.3918 43.8319C41.1446 43.8319 40.9221 43.8319 40.6749 43.8319C40.2052 43.8319 39.7355 43.8319 39.241 43.8319C39.068 43.8319 38.8949 43.8319 38.7219 43.8319C38.4994 43.8319 38.3016 43.8071 38.0791 43.8071C37.6341 43.7824 37.1891 43.7577 36.7441 43.733C36.5464 43.7083 36.3733 43.7083 36.1755 43.7083C35.9777 43.6835 35.78 43.6588 35.5822 43.6341C35.1372 43.5846 34.7169 43.5352 34.2967 43.4858C34.0989 43.461 33.8764 43.4363 33.6786 43.4116C33.4808 43.3869 33.3078 43.3374 33.1347 43.3127C32.665 43.2385 32.22 43.1644 31.775 43.0655C31.5525 43.016 31.3548 42.9913 31.1323 42.9419C30.9839 42.9172 30.8603 42.8677 30.712 42.843C30.1434 42.7194 29.5995 42.571 29.0556 42.4474C28.8578 42.398 28.6354 42.3486 28.4376 42.2991C28.3634 42.2744 28.314 42.2497 28.2398 42.2249C27.2757 41.953 26.3609 41.6316 25.4462 41.2855C25.3968 41.2608 25.3473 41.2608 25.2979 41.2361C24.9271 41.0877 24.5562 40.9147 24.2101 40.7663C23.9629 40.6675 23.7157 40.5686 23.4685 40.445C22.8257 40.1483 22.1829 39.8022 21.5896 39.4561C20.9468 39.0853 20.3535 38.7144 19.8096 38.3189C19.7108 38.2447 19.6366 38.1706 19.5624 38.1211C19.1174 37.7997 18.6724 37.4536 18.2769 37.1075C18.1533 36.9839 18.0297 36.8603 17.9061 36.7367C17.5847 36.44 17.2633 36.1434 16.9666 35.822C16.8183 35.6489 16.7194 35.5006 16.5711 35.3275C16.3486 35.0556 16.1014 34.7837 15.9036 34.487C15.78 34.2892 15.6811 34.0914 15.5575 33.9184C15.3844 33.6464 15.2114 33.3992 15.0878 33.1273C14.9889 32.9048 14.9147 32.707 14.8158 32.4845C14.7169 32.2373 14.5686 31.9654 14.4944 31.7181C14.4203 31.4956 14.3956 31.2731 14.3214 31.0507C14.2472 30.8034 14.1731 30.5315 14.1236 30.2843C14.0742 30.0618 14.0742 29.864 14.0742 29.6415C14.0494 29.3696 14 29.1223 14 28.8504C14 28.8257 14 28.8257 14 28.8257V29.9134C14 33.7701 16.5216 37.6019 21.5896 40.5439C22.1829 40.89 22.8257 41.2113 23.4685 41.5327C23.691 41.6316 23.9382 41.7305 24.1607 41.8294C24.5315 42.0024 24.9023 42.1508 25.2979 42.2991C25.3473 42.3238 25.3968 42.3485 25.4462 42.3485C26.3362 42.6947 27.2756 43.016 28.2151 43.288C28.2892 43.3127 28.3634 43.3127 28.4129 43.3374C28.6106 43.3869 28.8331 43.461 29.0309 43.5105C29.5748 43.6588 30.1187 43.7824 30.6873 43.906C30.8356 43.9308 30.9592 43.9555 31.1075 43.9802C31.33 44.0296 31.5278 44.0791 31.7503 44.1038C32.1953 44.178 32.665 44.2769 33.1347 44.351C33.3078 44.3757 33.5056 44.4005 33.6786 44.4252C33.8764 44.4499 34.0742 44.4746 34.2967 44.5241C34.7169 44.5735 35.1619 44.623 35.5822 44.6724C35.78 44.6971 35.9777 44.6971 36.1755 44.7218C36.3733 44.7466 36.5464 44.7466 36.7441 44.7713C37.1891 44.796 37.6341 44.8207 38.0791 44.8455C38.3016 44.8455 38.4994 44.8455 38.7219 44.8702C38.8949 44.8702 39.068 44.8949 39.241 44.8949C39.7108 44.8949 40.1805 44.8949 40.6749 44.8949C40.9221 44.8949 41.1446 44.8949 41.3918 44.8702C41.5402 44.8702 41.6638 44.8702 41.8121 44.8702C42.4054 44.8455 42.9988 44.796 43.5674 44.7466C43.7899 44.7219 44.0371 44.7218 44.2596 44.6971C44.3337 44.6971 44.3832 44.6971 44.4574 44.6724C45.4462 44.5735 46.4351 44.4252 47.3993 44.2521C47.4487 44.2521 47.4981 44.2274 47.5476 44.2274C47.8195 44.178 48.0915 44.1285 48.3634 44.0544C48.8331 43.9555 49.3276 43.8566 49.7973 43.7577C50.1434 43.6835 50.4895 43.5846 50.8109 43.4858C51.2559 43.3621 51.7009 43.2385 52.1211 43.1149C52.22 43.0902 52.3189 43.0408 52.4178 43.016C52.5661 42.9666 52.7392 42.9172 52.8875 42.8677C53.5797 42.6452 54.2472 42.3733 54.89 42.1013C55.1372 42.0024 55.3844 41.9036 55.6316 41.7799C56.4722 41.4091 57.288 41.0136 58.0544 40.5686C58.1533 40.4944 58.2522 40.445 58.351 40.3708C58.5983 40.2225 58.796 40.0741 59.0433 39.9258C59.3399 39.728 59.6613 39.5303 59.958 39.3325C60.2299 39.1347 60.4524 38.9369 60.6996 38.7392C60.9716 38.5167 61.2188 38.3189 61.466 38.0964C61.5154 38.0469 61.5649 37.9975 61.6143 37.9481C61.9357 37.6514 62.2571 37.3547 62.5538 37.0333C62.6032 36.9592 62.6774 36.9097 62.7268 36.8356C62.8999 36.6378 63.0482 36.4153 63.2213 36.2175C63.3449 36.0692 63.4685 35.9209 63.5674 35.7725C63.6168 35.7231 63.6415 35.6736 63.691 35.5995C63.9135 35.3028 64.0865 34.9814 64.2596 34.66C64.2843 34.6106 64.3337 34.5612 64.3585 34.5117C64.5068 34.2398 64.6304 33.9678 64.7293 33.6959C64.8035 33.5228 64.8776 33.3498 64.9518 33.1767C64.9765 33.1273 64.9765 33.1026 65.0012 33.0778C65.1001 32.8059 65.1496 32.5587 65.2237 32.2867C65.2732 32.089 65.3226 31.8912 65.3721 31.7181C65.3721 31.6934 65.3721 31.6687 65.3968 31.6687C65.4462 31.3968 65.4709 31.1001 65.4957 30.8282C65.5204 30.6057 65.5451 30.3584 65.5451 30.1359V29.246C65.5946 29.4932 65.5451 29.6662 65.5204 29.8393Z" fill="#139DC8"/>
<path d="M62.9493 22.4969V29.0729C62.9493 29.2707 62.9246 29.4437 62.8999 29.6415C62.6774 32.8554 60.4771 36.0445 56.2497 38.492C47.2756 43.7083 32.6156 43.7083 23.5674 38.492C19.241 35.995 17.0161 32.7565 16.7936 29.4932C16.7936 29.3449 16.7688 29.1965 16.7441 29.0729C16.7441 29.0482 16.7441 29.0235 16.7441 29.0235C16.7441 28.8504 16.7688 28.7021 16.7936 28.529V22.3733C15.0136 24.4499 14.0989 26.7243 14.0989 28.9988C14.0989 29.2707 14.1483 29.5179 14.173 29.7899C14.1978 30.0124 14.1978 30.2348 14.2225 30.4326C14.2719 30.6798 14.3461 30.9518 14.4203 31.199C14.4697 31.4215 14.5191 31.644 14.5933 31.8665C14.6675 32.1137 14.8158 32.3857 14.9147 32.6329C15.0136 32.8554 15.0878 33.0531 15.1866 33.2756C15.335 33.5476 15.508 33.7948 15.6564 34.0667C15.78 34.2645 15.8789 34.4623 16.0025 34.6353C16.2002 34.932 16.4475 35.2039 16.67 35.4759C16.7936 35.6489 16.9172 35.7973 17.0655 35.9703C17.3374 36.2917 17.6835 36.5884 18.0049 36.885C18.1285 37.0086 18.2522 37.1323 18.3758 37.2559C18.7713 37.602 19.2163 37.9234 19.6613 38.2695C19.7602 38.3436 19.8344 38.4178 19.9085 38.4672C20.4524 38.8628 21.0457 39.2336 21.6885 39.6044C22.2818 39.9505 22.9246 40.2719 23.5674 40.5933C23.8146 40.7169 24.0618 40.7911 24.309 40.9147C24.7046 41.0878 25.1248 41.2855 25.5451 41.4339C26.4351 41.78 27.3745 42.1013 28.3387 42.3733C28.6106 42.4475 28.8826 42.5216 29.1545 42.5958C29.6984 42.7441 30.2423 42.8924 30.8109 42.9913C31.157 43.0655 31.5031 43.1397 31.8492 43.2138C32.2942 43.288 32.7639 43.3869 33.2089 43.4611C33.6044 43.5105 33.9753 43.5847 34.3708 43.6341C34.7911 43.6835 35.2361 43.733 35.6564 43.7824C36.0519 43.8319 36.4227 43.8566 36.8183 43.8813C37.2633 43.906 37.7083 43.9308 38.1533 43.9555C38.5488 43.9802 38.9196 43.9802 39.3152 43.9802C39.7849 43.9802 40.2546 43.9802 40.7491 43.9802C41.1199 43.9802 41.4907 43.9555 41.8863 43.9555C42.4549 43.9308 43.0235 43.8813 43.5921 43.8319C43.9135 43.8072 44.2348 43.7824 44.5562 43.7577C45.5451 43.6588 46.5093 43.5105 47.4487 43.3622C47.8195 43.288 48.1656 43.2138 48.5117 43.1397C48.9567 43.0408 49.4017 42.9666 49.8467 42.8677C50.2175 42.7688 50.5884 42.67 50.9345 42.5711C51.3547 42.4475 51.775 42.3486 52.1706 42.225C52.4425 42.1508 52.7145 42.0519 52.9864 41.953C53.6539 41.7305 54.2967 41.4833 54.9394 41.2114C55.1866 41.1125 55.4586 40.9889 55.7058 40.89C56.5463 40.5191 57.3622 40.1236 58.1285 39.6786C58.7466 39.3078 59.3399 38.9369 59.8838 38.5414C59.9332 38.5167 59.9827 38.4672 60.0321 38.4425C60.5266 38.0964 60.9963 37.7256 61.4165 37.3548C61.466 37.3053 61.4907 37.2806 61.5402 37.2311C61.9604 36.8603 62.356 36.4895 62.7021 36.0939C62.7515 36.0445 62.7763 35.995 62.8257 35.9456C63.1718 35.5748 63.4685 35.1792 63.7404 34.7837C63.7651 34.759 63.7651 34.7342 63.7651 34.7342C64.0618 34.314 64.309 33.869 64.5562 33.424C64.6551 33.2262 64.7046 33.0284 64.8034 32.8554C64.9271 32.5834 65.0507 32.3115 65.1496 32.0395C65.2237 31.8418 65.2484 31.644 65.2979 31.4462C65.3721 31.1743 65.4462 30.9023 65.4957 30.6304C65.5204 30.4079 65.5204 30.1854 65.5451 29.9876C65.7429 27.3177 64.8776 24.796 62.9493 22.4969Z" fill="#58D8FF"/>
</svg>
