<svg width="80" height="80" viewBox="0 0 80 80" fill="none" xmlns="http://www.w3.org/2000/svg">
<path d="M-1.90735e-06 19.6519L0.119402 54.418L17.6119 63.632L17.5124 28.8658L-1.90735e-06 19.6519Z" fill="#525252"/>
<path d="M17.5124 28.8656L17.6119 63.6318L48.3781 45.98L48.2785 11.2139L17.5124 28.8656Z" fill="#3A3A3A"/>
<path d="M30.7661 2L-4.19617e-05 19.6517L17.5124 28.8657L48.2786 11.2139L30.7661 2Z" fill="#5A5A5A"/>
<mask id="mask0_133_62" style="mask-type:luminance" maskUnits="userSpaceOnUse" x="41" y="56" width="38" height="22">
<path d="M41.4328 57.0648C41.4328 60.3683 41.4527 63.6718 41.4527 66.9554C41.4527 69.6619 43.2438 72.3484 46.7861 74.4181C53.9303 78.5773 65.5522 78.5773 72.7363 74.4181C76.3582 72.3285 78.1692 69.5822 78.1493 66.8559L78.1294 56.9653C78.1294 59.7116 76.3383 62.438 72.7164 64.5275C65.5323 68.6867 53.9104 68.6867 46.7662 64.5275C43.2239 62.4778 41.4328 59.7713 41.4328 57.0648Z" fill="white"/>
</mask>
<g mask="url(#mask0_133_62)">
<path d="M41.4328 57.0648L41.4527 66.9554C41.4527 69.6619 43.2438 72.3484 46.7861 74.4181C53.9303 78.5773 65.5522 78.5773 72.7363 74.4181C76.3582 72.3285 78.1692 69.5822 78.1493 66.8559L78.1294 56.9653C78.1294 59.7116 76.3383 62.438 72.7164 64.5275C65.5323 68.6867 53.9104 68.6867 46.7662 64.5275C43.2239 62.4778 41.4328 59.7713 41.4328 57.0648Z" fill="#A5A5A5"/>
</g>
<path d="M46.8457 49.5027C39.6616 53.6619 39.6218 60.3882 46.7661 64.5275C53.9104 68.6868 65.5323 68.6868 72.7164 64.5275C79.9004 60.3683 79.9402 53.642 72.796 49.5027C65.6517 45.3634 54.0298 45.3634 46.8457 49.5027Z" fill="#9E9E9E"/>
<path d="M59.8209 60.209C65.0746 60.209 70.0099 59.0349 73.7114 56.8857C77.3134 54.7961 79.3035 52.0697 79.3035 49.2041C79.3035 46.3583 77.3532 43.6518 73.791 41.5822C70.1094 39.4329 65.194 38.2588 59.9403 38.2588C54.6866 38.2588 49.7512 39.4329 46.0497 41.5822C42.4477 43.6717 40.4577 46.3981 40.4577 49.2638C40.4577 52.1095 42.4079 54.816 45.9701 56.8857C49.6318 59.0349 54.5672 60.209 59.8209 60.209Z" fill="#878787"/>
<path d="M58.607 49.2241V53.8609L59.5822 54.4978V49.8609L58.607 49.2241Z" fill="#B8B8B7"/>
<path d="M46.9255 55.254V59.8908L58.6071 53.8609V49.2241L46.9255 55.254Z" fill="#A0A09E"/>
<mask id="mask1_133_62" style="mask-type:luminance" maskUnits="userSpaceOnUse" x="43" y="49" width="4" height="11">
<path d="M43.3632 49.3235C43.3632 50.8757 43.3632 52.4081 43.3831 53.9603C43.3831 56.0897 44.617 58.1792 46.9453 59.8708L46.9254 55.2339C44.5772 53.5424 43.3632 51.4528 43.3632 49.3235Z" fill="white"/>
</mask>
<g mask="url(#mask1_133_62)">
<path d="M43.3632 49.3235L43.3831 53.9603C43.3831 56.0897 44.617 58.1792 46.9453 59.8708L46.9254 55.2339C44.5772 53.5424 43.3632 51.4528 43.3632 49.3235Z" fill="#B8B8B7"/>
</g>
<mask id="mask2_133_62" style="mask-type:luminance" maskUnits="userSpaceOnUse" x="47" y="49" width="30" height="15">
<path d="M76.3981 53.8807C76.3981 52.3285 76.3981 50.7961 76.3782 49.2439C76.3782 51.2339 75.3234 53.224 73.1344 54.9553C67.7016 59.214 57.3533 60.1096 50.0299 56.9852C49.2339 56.6469 48.5175 56.2887 47.8807 55.8907L47.9006 60.5275C48.5573 60.9255 49.2737 61.3036 50.0498 61.622C57.3732 64.7464 67.7215 63.8509 73.1543 59.5922C75.3433 57.8807 76.3981 55.8708 76.3981 53.8807Z" fill="white"/>
</mask>
<g mask="url(#mask2_133_62)">
<path d="M47.8808 55.8907L47.9007 60.5275C48.5574 60.9255 49.2738 61.3036 50.0499 61.622C57.3733 64.7464 67.7215 63.8509 73.1544 59.5922C75.3434 57.8807 76.4181 55.8708 76.3982 53.8807L76.3783 49.2439C76.3783 51.2339 75.3235 53.224 73.1345 54.9553C67.7016 59.214 57.3534 60.1096 50.03 56.9852C49.2539 56.6469 48.5375 56.2887 47.8808 55.8907Z" fill="#B8B8B7"/>
</g>
<path d="M69.7114 41.5822C62.3881 38.4578 52.0398 39.3534 46.607 43.6121C42.0696 47.1743 42.3881 51.9504 46.9254 55.234L58.607 49.2041L59.5821 49.8409L47.8806 55.8708C48.5373 56.2688 49.2537 56.6469 50.0298 56.9653C57.3532 60.0897 67.7015 59.1942 73.1343 54.9355C78.5672 50.7166 77.0348 44.7265 69.7114 41.5822Z" fill="#D6D6D6"/>
<path d="M59.9402 38.9353C54.8059 38.9353 49.99 40.0895 46.388 42.1591C46.189 42.2785 46.0099 42.3781 45.8109 42.4975L44.1592 41.9999C44.6368 41.6417 45.1542 41.3233 45.7114 40.985C49.6517 38.7164 54.8059 37.582 59.9402 37.582C60.3383 37.582 60.7363 37.582 61.1343 37.6019V38.9552C60.7363 38.9552 60.3383 38.9353 59.9402 38.9353Z" fill="#EFC435"/>
<path d="M26.4478 23.7512L26.4279 58.6368L41.4527 62.2985L41.4328 60.7462L40.6368 55.2537L41.1343 45.6816L51.1642 48.7064L51.1045 31.194L26.4478 23.7512Z" fill="#696969"/>
<path d="M51.1045 31.1939L51.1643 48.7063L61.1344 42.9551L61.0548 25.4426L51.1045 31.1939Z" fill="#4A4A4A"/>
<path d="M48.2986 11.1343L26.4478 23.7512L51.1046 31.194L61.0548 25.4427L48.2986 11.1343Z" fill="#757575"/>
<path d="M44.0597 46.5573L44.0995 43.7712L41.8109 44.6071V49.1842L44.0597 46.5573Z" fill="#878787"/>
<path d="M42.5871 43.3135L44.0796 43.7712C43.3831 44.3682 42.806 44.9851 42.3483 45.6419C41.5323 46.816 41.1144 48.0299 41.1144 49.2637C41.1144 51.8707 42.9453 54.3583 46.2886 56.3085C49.8706 58.3981 54.6667 59.5324 59.801 59.5324C64.9353 59.5324 69.7512 58.3782 73.3532 56.3085C75.1045 55.2936 76.4577 54.1195 77.3731 52.8259C78.1891 51.6518 78.607 50.4379 78.607 49.204C78.607 46.5971 76.7761 44.1095 73.4328 42.1593C70.1294 40.2289 65.791 39.1145 61.0945 38.9553V37.6021C65.8308 37.7613 70.4876 38.8956 74.1095 40.9851C81.9303 45.5224 81.8905 52.9055 74.0099 57.4428C70.0697 59.7115 64.9154 60.8458 59.7811 60.8458C54.6468 60.8458 49.4925 59.7115 45.592 57.4428C39.0249 53.6219 38.0099 47.7911 42.5871 43.3135Z" fill="#58D8FF"/>
<mask id="mask3_133_62" style="mask-type:luminance" maskUnits="userSpaceOnUse" x="39" y="49" width="41" height="19">
<path d="M39.7612 49.2836C39.7811 52.9055 39.7811 52.7861 39.801 56.3881C39.801 59.3532 41.7512 62.2985 45.6517 64.5672C53.4726 69.1045 66.209 69.1045 74.0697 64.5672C78.0299 62.2985 80 59.2935 80 56.2886L79.9602 49.1841C79.9602 52.1891 77.99 55.194 74.0299 57.4826C66.1493 62.0199 53.4328 62.0199 45.6119 57.4826C41.7114 55.2139 39.7811 52.2488 39.7612 49.2836Z" fill="white"/>
</mask>
<g mask="url(#mask3_133_62)">
<path d="M39.7612 49.2836L39.801 56.3881C39.801 59.3532 41.7512 62.2985 45.6517 64.5672C53.4726 69.1045 66.209 69.1045 74.0697 64.5672C78.0299 62.2985 80 59.2935 80 56.2886L79.9602 49.1841C79.9602 52.1891 77.99 55.194 74.0299 57.4826C66.1493 62.0199 53.4328 62.0199 45.6119 57.4826C41.7114 55.2139 39.7811 52.2488 39.7612 49.2836Z" fill="#2FBAE5"/>
</g>
<path d="M47.9602 23.2736C51.1642 20.0696 51.7413 19.3731 53.1343 18.5771C53.8706 18.1592 54.587 17.8806 55.2836 17.7811L58.3084 17.3035C58.7661 17.2239 59.1642 17.3035 59.5025 17.5025C60.2388 17.9403 60.9751 18.3582 61.7313 18.796C61.393 18.597 60.995 18.5373 60.5373 18.597L57.5124 19.0746C55.9204 19.3134 54.3681 20.4079 53.2338 21.5423C50.5074 24.2686 48.2985 26.2388 48.0796 29.3433L48.0995 34.5174C48.0995 35.2338 48.3582 35.7512 48.7562 35.99C48.0199 35.5522 47.2836 35.1343 46.5273 34.6965C46.1094 34.4577 45.8706 33.9602 45.8706 33.2239C45.8308 28.0497 45.3532 25.9005 47.9602 23.2736Z" fill="#58D8FF"/>
<path d="M55.3631 19.8707C54.6268 20.2886 53.9104 20.8458 53.2138 21.5423L50.189 24.5672C48.9153 25.8607 48.0596 27.7513 48.0596 29.3234L48.0795 34.4976C48.0795 35.9503 49.1143 36.5274 50.3681 35.811L60.4377 30C61.6915 29.2637 62.7263 27.5125 62.7064 26.0597L62.6865 20.8856C62.6865 19.3135 61.8109 18.3981 60.5372 18.5971L57.5124 19.0747C56.8158 19.1742 56.0795 19.4528 55.3631 19.8707Z" fill="#2FBAE5"/>
<path d="M53.9304 23.3932V27.5723L53.9503 32.6469L53.9702 36.8061L51.3035 35.2738V31.0947L51.2836 26.02V21.8608L53.9304 23.3932Z" fill="#139DC8"/>
<path d="M62.2488 18.597L59.5821 17.0647L51.2836 21.8607L53.9304 23.3931L62.2488 18.597Z" fill="#2FBAE5"/>
<path d="M53.9304 23.3929V27.572L53.9503 32.6467L53.9702 36.8059L62.2886 32.0099L62.2687 27.8308L62.2488 22.776V18.5969L53.9304 23.3929Z" fill="#1885A7"/>
<path d="M51.3035 25.1443L52.8756 26.0597C51.6816 27.4527 50.2089 29.9801 51.7612 30.8756L50.189 29.9602C49.7711 29.7214 49.5323 29.3035 49.5323 28.7264C49.5124 27.4925 50.5075 26.0597 51.3035 25.1443Z" fill="#58D8FF"/>
<path d="M52.8556 26.0398C50.5073 28.7861 50.4675 31.0945 52.8755 31.1144L52.8556 26.0398Z" fill="#2FBAE5"/>
<path d="M54.6269 32.2489L61.8707 28.03L65.5522 22.0996L58.3085 26.3185L54.6269 32.2489Z" fill="#1885A7"/>
<path d="M58.3085 26.3184L65.5522 22.0995L65.592 11.592L58.3483 15.8109L58.3085 26.3184Z" fill="#2FBAE5"/>
<path d="M58.3483 15.8109L65.592 11.592L59.9005 8.8855L52.6567 13.1044L58.3483 15.8109Z" fill="#58D8FF"/>
<path d="M52.6567 13.1045L52.6169 21.7413L54.6667 22.9751L54.6269 32.2488L58.3085 26.3184L58.3483 15.811L52.6567 13.1045Z" fill="#139DC8"/>
<path d="M54.2088 32.3086C54.9451 31.433 55.8406 30.5972 56.7759 29.9007C56.7759 29.9007 56.7759 29.9007 56.7958 29.9007C57.3331 29.5026 57.8904 29.1245 58.4874 28.7862C60.7759 27.4728 62.7461 27.0748 63.6814 27.6121L66.8655 29.4628C65.9302 28.9255 63.9401 29.3036 61.6714 30.637C59.2635 32.03 55.9003 35.035 55.9003 37.224C55.9003 37.7415 56.1192 38.0997 56.4774 38.3186C55.4227 37.7017 54.368 37.0847 53.2933 36.4678C52.9152 36.2489 52.7162 35.8907 52.7162 35.3733C52.7361 34.3186 53.552 33.0847 54.2088 32.3086Z" fill="#58D8FF"/>
<path d="M61.6715 30.5971C58.4874 32.4479 55.9003 35.3931 55.9003 37.1842C55.9003 38.9752 58.4874 38.9553 61.6715 37.1046C64.8556 35.2737 67.4426 32.3086 67.4426 30.5175C67.4426 28.7265 64.8556 28.7663 61.6715 30.5971Z" fill="#2FBAE5"/>
<path d="M65.7314 30.5968C65.8906 30.1391 66.3284 29.8008 66.5871 29.9401C66.6269 29.96 66.7861 30.0595 66.8259 30.0794C66.607 29.9401 66.2488 30.1789 66.0498 30.557C65.9105 30.8357 65.8309 31.2536 66.0697 31.3929C66.0299 31.373 65.8707 31.2735 65.8309 31.2536C65.6717 31.1541 65.6319 30.8755 65.7314 30.5968Z" fill="#686868"/>
<path d="M66.4478 30.1192C66.1493 30.2983 65.9105 30.6963 65.9105 31.0346C65.9105 31.373 66.1493 31.5123 66.4478 31.3332C66.7463 31.1541 66.9851 30.756 66.9851 30.4177C66.9851 30.0794 66.7463 29.9401 66.4478 30.1192Z" fill="#313131"/>
<path d="M61.3533 31.5522C61.5126 31.0945 61.9504 30.7562 62.2091 30.8955C62.2489 30.9154 62.4081 31.0149 62.4479 31.0348C62.229 30.8955 61.8708 31.1343 61.6718 31.5124C61.5325 31.791 61.4529 32.2089 61.6917 32.3482C61.6519 32.3283 61.4927 32.2288 61.4529 32.2089C61.2737 32.1094 61.2538 31.8308 61.3533 31.5522Z" fill="#686868"/>
<path d="M62.0697 31.0745C61.7712 31.2536 61.5324 31.6517 61.5324 31.99C61.5324 32.3283 61.7712 32.4676 62.0697 32.2885C62.3682 32.1094 62.6071 31.7114 62.6071 31.3731C62.6071 31.0347 62.3682 30.8954 62.0697 31.0745Z" fill="#313131"/>
<path d="M56.7164 36.7463C56.8756 36.2886 57.3134 35.9502 57.5721 36.0895C57.6119 36.1094 57.7711 36.2089 57.8109 36.2289C57.592 36.0895 57.2338 36.3284 57.0348 36.7065C56.8955 36.9851 56.8159 37.403 57.0547 37.5423C57.0149 37.5224 56.8557 37.4229 56.8159 37.403C56.6368 37.3035 56.6169 37.0249 56.7164 36.7463Z" fill="#686868"/>
<path d="M57.4328 36.2686C57.1343 36.4477 56.8955 36.8458 56.8955 37.1841C56.8955 37.5224 57.1343 37.6617 57.4328 37.4826C57.7313 37.3035 57.9701 36.9055 57.9701 36.5671C57.9701 36.2288 57.7313 36.0895 57.4328 36.2686Z" fill="#313131"/>
<path d="M61.4727 35.6718C61.6319 35.2141 62.0697 34.8758 62.3285 35.0151C62.3683 35.035 62.5275 35.1345 62.5673 35.1544C62.3484 35.0151 61.9901 35.2539 61.7911 35.632C61.6518 35.9106 61.5722 36.3285 61.811 36.4678C61.7712 36.4479 61.612 36.3484 61.5722 36.3285C61.3931 36.229 61.3732 35.9504 61.4727 35.6718Z" fill="#686868"/>
<path d="M62.1891 35.1942C61.8906 35.3733 61.6518 35.7713 61.6518 36.1096C61.6518 36.4479 61.8906 36.5872 62.1891 36.4081C62.4876 36.229 62.7264 35.831 62.7264 35.4927C62.7264 35.1544 62.4876 35.0151 62.1891 35.1942Z" fill="#313131"/>
</svg>
