<svg width="80" height="80" viewBox="0 0 80 80" fill="none" xmlns="http://www.w3.org/2000/svg">
<path d="M28.4401 59.9777L20.4648 52.0024L10.745 61.7223C10.1219 62.3454 9.87266 63.3423 10.2465 64.4638C10.8696 66.8315 13.4865 69.4484 15.8541 70.0714C17.1003 70.3207 17.9726 70.1961 18.5956 69.573L28.4401 59.9777Z" fill="#A1A1A1"/>
<path d="M33.9224 59.9783C34.9194 58.9814 20.3396 47.1431 20.7134 46.7693L14.4827 53C13.4858 53.9969 13.112 55.6168 13.8596 57.6106C14.9812 61.7229 19.0934 65.8351 23.2057 66.9567C25.3241 67.5797 26.9441 67.2059 27.941 66.209L33.9224 59.9783Z" fill="#302F2E"/>
<path d="M59.4666 4.03003L16.6029 46.8937L20.2164 60.2263L67.9396 12.5031L59.4666 4.03003Z" fill="#139DC8"/>
<path d="M67.9395 12.5027L20.2163 60.2259L34.0473 64.0886L76.7863 21.3496L67.9395 12.5027Z" fill="#2FBAE5"/>
</svg>
