<svg width="80" height="81" viewBox="0 0 80 81" fill="none" xmlns="http://www.w3.org/2000/svg">
<path d="M0 70.9714L0.971524 71.5241V35.695L0 35.1255V70.9714Z" fill="#139DC8"/>
<path d="M61.8257 36.3989L0.971436 71.5245V35.6954L61.8257 0.552979V36.3989Z" fill="#3B3532"/>
<path d="M0.971524 35.6951L0 35.1256L60.8543 0L61.8258 0.552764L0.971524 35.6951Z" fill="#58D8FF"/>
<path d="M15.6448 80.0336L0.720215 71.4239V59.1123L15.6448 67.722V80.0336Z" fill="#139DC8"/>
<path d="M76.4488 44.9247L15.6448 80.0336V67.722L76.4488 32.6299V44.9247Z" fill="#2FBAE5"/>
<path d="M19.531 77.7889L72.5628 47.1692V37.3367L19.531 67.9564V77.7889Z" fill="#3B3532"/>
<path d="M15.6448 67.7219L0.971436 59.2462L61.7755 24.1541L76.4488 32.6298L15.6448 67.7219Z" fill="#58D8FF"/>
<path d="M74.4722 31.4738L13.6682 66.5827V59.9663L74.4722 24.8574V31.4738Z" fill="#AFAFAF"/>
<path d="M13.6683 59.9664L0.971436 52.6297L61.7755 17.5376L74.4723 24.8575L13.6683 59.9664Z" fill="#453E3A"/>
<path d="M73.6013 27.6549L71.6248 26.5159V33.1323L73.6013 34.2713V27.6549Z" fill="#929292"/>
<path d="M76.4489 32.6298L73.6013 34.2714V27.655L76.4489 26.0134V32.6298Z" fill="#AFAFAF"/>
<path d="M73.6013 27.6548L71.6248 26.5158L74.4556 24.8743L76.4489 26.0133L73.6013 27.6548Z" fill="#E2E2E2"/>
<path d="M74.1374 1.7922C73.3334 1.32319 72.5964 1.28969 72.0771 1.60794L70.9548 2.26121L75.0922 9.32989L76.2145 8.67662C76.7337 8.37511 77.052 7.72185 77.052 6.81732C77.0352 4.95803 75.7455 2.71347 74.1374 1.7922Z" fill="#453E3A"/>
<path d="M75.9128 7.45381C75.9128 9.29636 74.623 10.0501 73.015 9.12886C71.4237 8.20758 70.1172 5.96303 70.1172 4.12048C70.1172 2.27794 71.407 1.52417 73.015 2.44544C74.623 3.36671 75.9128 5.61127 75.9128 7.45381Z" fill="#35312E"/>
<path d="M74.7404 6.78368C74.7404 7.8892 73.9699 8.32472 73.0151 7.77195C72.0603 7.21919 71.2898 5.87915 71.2898 4.79038C71.2898 3.68485 72.0603 3.24934 73.0151 3.8021C73.9699 4.33812 74.7404 5.67815 74.7404 6.78368Z" fill="#2E2A28"/>
<path d="M79.5813 3.3497C79.464 3.28269 79.3635 3.28269 79.2965 3.31619L75.7454 5.3765C75.6784 5.42675 75.6282 5.5105 75.6282 5.62775C75.6282 5.87901 75.8124 6.18052 76.0302 6.31452C76.1307 6.36477 76.2312 6.38152 76.2982 6.34802C76.3149 6.34802 79.8828 4.28772 79.8828 4.28772C79.9498 4.23747 80 4.15372 80 4.03646C79.9833 3.78521 79.8158 3.4837 79.5813 3.3497Z" fill="#453E3A"/>
<path d="M70.0167 8.57629C70.0167 9.16255 69.5979 9.41381 69.0786 9.1123C68.5594 8.8108 68.1406 8.09053 68.1406 7.50426C68.1406 6.918 68.5594 6.66674 69.0786 6.96825C69.6147 7.25301 70.0167 7.97327 70.0167 8.57629Z" fill="#C5C2B8"/>
<path d="M68.4253 6.9013L72.1941 4.72375C72.3616 4.62325 72.5961 4.64 72.8642 4.79075C73.3834 5.09226 73.8022 5.81252 73.8022 6.39879C73.8022 6.7003 73.7017 6.9013 73.5342 7.0018L69.7653 9.17936C69.9328 9.07886 70.0333 8.87785 70.0333 8.57634C70.0333 7.99008 69.6146 7.25306 69.0953 6.9683C68.8273 6.81755 68.5928 6.8008 68.4253 6.9013Z" fill="#D3D3D3"/>
<path d="M64.7907 14.2212L61.5076 12.3284V23.9029L64.7907 25.7957V14.2212Z" fill="#929292"/>
<path d="M70.4354 22.546L64.7905 25.7956V14.221L70.4354 10.9714V22.546Z" fill="#AFAFAF"/>
<path d="M64.3717 11.5746L60.4019 9.27979V13.8526L64.3717 16.1307V11.5746Z" fill="#929292"/>
<path d="M73.1658 11.0555L64.3718 16.1309V11.5748L73.1658 6.48267V11.0555Z" fill="#AFAFAF"/>
<path d="M64.3717 11.5745L60.4019 9.27972L69.2126 4.20435L73.1657 6.4824L64.3717 11.5745Z" fill="#E2E2E2"/>
<path d="M17.9563 52.8309L64.7737 25.7958V23.5847L17.9563 50.6199V52.8309Z" fill="#AFAFAF"/>
<path d="M14.6399 50.938L17.9565 52.8308V50.6198L14.6399 48.7102V50.938Z" fill="#929292"/>
<path d="M17.9565 50.6198L64.7739 23.5846L61.4741 21.675L14.6399 48.7102L17.9565 50.6198Z" fill="#E2E2E2"/>
<path d="M17.387 48.71L61.4741 23.2661L62.0436 23.5844L17.9565 49.045L17.387 48.71Z" fill="#453E3A"/>
<path d="M48.1072 48.7272L53.3501 45.6954V36.1812L48.1072 39.213V48.7272Z" fill="#AFAFAF"/>
<path d="M48.1072 39.2129L53.3501 36.181L43.9531 30.7539L38.7102 33.7857L48.1072 39.2129Z" fill="#E2E2E2"/>
<path d="M42.345 36.5327V38.7438L46.3819 41.0721V47.7052L48.1072 48.6935V39.2128L38.7102 33.7856V34.8409L39.0452 34.6399L42.345 36.5327Z" fill="#929292"/>
<path d="M42.6966 32.0435L38.71 29.7319V33.7855L42.6966 36.0971V32.0435Z" fill="#929292"/>
<path d="M46.9344 33.6515L42.6965 36.0971V32.0435L46.9344 29.5979V33.6515Z" fill="#AFAFAF"/>
<path d="M42.6966 32.0437L38.71 29.7322L42.9478 27.2866L46.9344 29.5982L42.6966 32.0437Z" fill="#E2E2E2"/>
<path d="M44.6233 29.933L49.0119 27.4037V24.8074L44.6233 27.3367V29.933Z" fill="#AFAFAF"/>
<path d="M41.4407 28.0905L44.6233 29.933V27.3367L41.4407 25.4941V28.0905Z" fill="#929292"/>
<path d="M44.6233 27.3367L49.0119 24.8074L45.8125 22.9648L41.4407 25.4942L44.6233 27.3367Z" fill="#E2E2E2"/>
<path d="M40.7872 30.6864C40.7872 30.9545 40.6029 31.055 40.3852 30.9209C40.1674 30.7869 39.9832 30.4687 39.9832 30.2174C39.9832 29.9494 40.1674 29.8489 40.3852 29.9829C40.6029 30.1002 40.7872 30.4184 40.7872 30.6864Z" fill="#C5C7CA"/>
<path d="M40.0837 29.9496L43.6013 27.9228C43.6683 27.8725 43.7856 27.8893 43.8861 27.9563C44.1206 28.0903 44.2881 28.4085 44.2881 28.6598C44.2881 28.7938 44.2378 28.8775 44.1708 28.9278L40.6533 30.9546C40.7203 30.9043 40.7705 30.8206 40.7705 30.6866C40.7705 30.4186 40.5863 30.1003 40.3685 29.9831C40.268 29.9161 40.1675 29.8993 40.0837 29.9496Z" fill="#DADADA"/>
<path d="M39.0958 29.6983C39.0958 29.9663 38.9115 30.0668 38.6938 29.9328C38.4593 29.7988 38.2917 29.4805 38.2917 29.2293C38.2917 28.978 38.476 28.8608 38.6938 28.9948C38.9115 29.1288 39.0958 29.447 39.0958 29.6983Z" fill="#C5C7CA"/>
<path d="M38.3921 28.9613L41.9097 26.9345C41.9767 26.8842 42.0939 26.901 42.1944 26.968C42.4289 27.102 42.5964 27.4203 42.5964 27.6715C42.5964 27.8055 42.5462 27.8893 42.4792 27.9395L38.9616 29.9663C39.0286 29.9161 39.0789 29.8323 39.0789 29.6983C39.0789 29.4303 38.8946 29.112 38.6768 28.9948C38.5763 28.9278 38.4591 28.9278 38.3921 28.9613Z" fill="#DADADA"/>
<path d="M38.9785 33.1994L42.4626 31.1893V28.593L38.9785 30.6031V33.1994Z" fill="#AFAFAF"/>
<path d="M35.7791 31.3568L38.9784 33.1994V30.603L35.7791 28.7605V31.3568Z" fill="#929292"/>
<path d="M38.9784 30.603L42.4625 28.5929L39.2631 26.7336L35.7791 28.7604L38.9784 30.603Z" fill="#E2E2E2"/>
<path d="M39.28 32.8976L41.8428 33.4838V31.457L39.28 32.8976Z" fill="#AFAFAF"/>
<path d="M35.4441 31.1725C35.4441 31.7252 35.8294 32.3952 36.3151 32.68C36.8009 32.9648 37.1861 32.7303 37.1861 32.1775C37.1861 31.6247 36.8009 30.9547 36.3151 30.67C35.8461 30.4019 35.4441 30.6197 35.4441 31.1725Z" fill="#929292"/>
<path d="M36.9348 32.7469L37.9231 32.1774C38.0906 32.0937 38.1911 31.8927 38.1911 31.6079C38.1911 31.0551 37.8058 30.3851 37.32 30.1004C37.0855 29.9664 36.8678 29.9496 36.717 30.0334L35.7288 30.6029C35.8795 30.5191 36.0973 30.5359 36.3318 30.6699C36.8175 30.9546 37.2028 31.6247 37.2028 32.1774C37.186 32.4622 37.1023 32.6632 36.9348 32.7469Z" fill="#D3D3D3"/>
<path d="M35.5778 31.9933C35.7118 31.8928 35.8961 31.9263 35.9798 32.0436L40.3182 37.7722C40.4522 37.9397 39.9832 38.3083 39.8492 38.124L35.5108 32.3954C35.4103 32.2781 35.4438 32.0938 35.5778 31.9933Z" fill="#DADADA"/>
<path d="M34.5896 31.9766C34.5896 32.3619 34.8576 32.8309 35.1926 33.0319C35.5276 33.2329 35.7956 33.0654 35.7956 32.6801C35.7956 32.2949 35.5276 31.8259 35.1926 31.6249C34.8576 31.4406 34.5896 31.5914 34.5896 31.9766Z" fill="#929292"/>
<path d="M34.9414 32.1775C34.9414 32.345 35.0587 32.546 35.1927 32.6297C35.3267 32.7135 35.4439 32.6465 35.4439 32.479C35.4439 32.3115 35.3267 32.1105 35.1927 32.0267C35.0587 31.9597 34.9414 32.0267 34.9414 32.1775Z" fill="#DADADA"/>
<path d="M35.628 33.0822L36.6163 32.5127C36.7336 32.4457 36.8006 32.3117 36.8006 32.1107C36.8006 31.7254 36.5326 31.2564 36.1976 31.0554C36.0301 30.9549 35.8793 30.9549 35.7788 31.0052L34.7905 31.5747C34.9078 31.5077 35.0418 31.5244 35.2093 31.6249C35.5443 31.8259 35.8123 32.295 35.8123 32.6802C35.7956 32.8812 35.7286 33.0152 35.628 33.0822Z" fill="#D3D3D3"/>
<path d="M49.8997 38.174L49.2129 37.772V33.3164L49.8997 33.7017V38.174Z" fill="#2E2A28"/>
<path d="M51.6415 37.1691L49.8994 38.1742V33.7018L51.6415 32.6968V37.1691Z" fill="#3B3532"/>
<path d="M49.8997 33.7018L49.2129 33.3165L50.9549 32.3115L51.6417 32.6968L49.8997 33.7018Z" fill="#3B3532"/>
<path d="M10.9714 29.8996L16.4488 26.717L21.1557 25.8125L15.6616 28.9951L10.9714 29.8996Z" fill="#2FBAE5"/>
<path d="M15.6616 28.9951L21.1558 25.8125L26.5829 28.9448L21.1055 32.1274L15.6616 28.9951Z" fill="#58D8FF"/>
<path d="M25.7787 38.4592L31.2561 35.2766L31.2393 44.0538L25.762 47.2364L25.7787 38.4592Z" fill="#2FBAE5"/>
<path d="M21.1055 32.1274L26.5829 28.9448L31.2562 35.2765L25.7788 38.4591L21.1055 32.1274Z" fill="#86E2FF"/>
<path d="M21.1053 32.1274L25.7787 38.4591L25.762 47.2363L10.9546 38.6936L10.9713 29.8996L15.6615 28.9951L21.1053 32.1274Z" fill="#139DC8"/>
<path d="M0.971191 35.6951V59.2462L13.668 66.5828V43.015L0.971191 35.6951Z" fill="#C5C2B8"/>
<path d="M23.6515 54.2041L13.6682 59.9663V43.0148L23.6515 37.2527V54.2041Z" fill="#DEDBD5"/>
<path d="M13.668 43.0149L0.971191 35.695L10.9544 29.9329L23.6513 37.2528L13.668 43.0149Z" fill="#F0EDEA"/>
<path d="M15.6615 54.7403L13.6682 53.6013V66.5829L15.6615 67.7387V54.7403Z" fill="#C5C2B8"/>
<path d="M25.6449 61.9598L15.6616 67.7387V54.7404L25.6449 48.9783V61.9598Z" fill="#DEDBD5"/>
<path d="M15.6615 54.7402L13.6682 53.6012L23.6515 47.8223L25.6448 48.978L15.6615 54.7402Z" fill="#F0EDEA"/>
<path d="M30.5862 40.5861C30.5862 40.8039 30.402 41.0887 30.1842 41.2227C29.9665 41.3567 29.7822 41.2729 29.7822 41.0552C29.7822 40.8374 29.9665 40.5526 30.1842 40.4186C30.402 40.2846 30.5862 40.3516 30.5862 40.5861Z" fill="#3B3532"/>
<path d="M27.3033 42.4789C27.3033 42.6966 27.119 42.9814 26.9013 43.1154C26.6835 43.2494 26.4993 43.1656 26.4993 42.9479C26.4993 42.7301 26.6835 42.4454 26.9013 42.3114C27.119 42.1774 27.3033 42.2611 27.3033 42.4789Z" fill="#3B3532"/>
<path d="M31.2228 41.2059L30.3015 40.6699C30.2178 40.6196 30.1005 40.6531 30.0502 40.7369C30 40.8206 30.0335 40.9379 30.1172 40.9881L31.0385 41.5241C31.139 41.5744 31.1893 41.6414 31.1893 41.7084C31.1893 41.7586 31.139 41.8424 31.0385 41.8926L28.9112 43.1154C28.6432 43.2662 28.191 43.2662 27.9229 43.1154L27.0017 42.5794C26.9179 42.5291 26.8007 42.5626 26.7504 42.6464C26.7002 42.7302 26.7337 42.8474 26.8174 42.8977L27.7387 43.4337C27.9229 43.5342 28.1742 43.6012 28.4087 43.6012C28.6432 43.6012 28.8945 43.5509 29.0787 43.4337L31.206 42.2109C31.407 42.0936 31.541 41.9094 31.541 41.7251C31.5578 41.5074 31.4238 41.3399 31.2228 41.2059Z" fill="#453E3A"/>
<path d="M11.4908 41.7588L4.38867 37.6549V36.0469L11.4908 40.1507V41.7588Z" fill="#139DC8"/>
<path d="M21.474 35.9967L11.4907 41.7589V40.1508L21.474 34.3887V35.9967Z" fill="#2FBAE5"/>
<path d="M11.4909 40.1507L4.38867 36.0468L14.3552 30.2847L21.4741 34.3885L11.4909 40.1507Z" fill="#58D8FF"/>
<path d="M59.0284 15.4942C59.0284 16.1474 58.5762 16.4154 58.0066 16.0804C57.4371 15.7454 56.9849 14.9582 56.9849 14.3049C56.9849 13.6516 57.4371 13.3836 58.0066 13.7186C58.5594 14.0369 59.0284 14.8409 59.0284 15.4942Z" fill="#929292"/>
<path d="M57.2695 13.6348L61.4069 11.2563C61.5911 11.139 61.8591 11.1558 62.1439 11.3233C62.7134 11.6583 63.1657 12.4455 63.1657 13.0988C63.1657 13.4171 63.0484 13.6516 62.8642 13.7521L58.7268 16.1306C58.9111 16.0134 59.0283 15.7956 59.0283 15.4606C59.0283 14.8074 58.5761 14.0033 58.0066 13.6851C57.705 13.5511 57.4538 13.5343 57.2695 13.6348Z" fill="#D3D3D3"/>
<path d="M70.4355 22.8811C70.7873 22.6801 71.2563 22.6969 71.7923 23.0151C72.5126 23.4339 73.1323 24.2379 73.4673 25.0922L72.2613 25.7957C71.9263 24.9414 71.3065 24.1207 70.5863 23.7186C70.0503 23.4171 69.5813 23.3836 69.2295 23.5846L70.4355 22.8811Z" fill="#D2D2D2"/>
<path d="M70.6031 23.7187C71.3234 24.1375 71.9431 24.9415 72.2782 25.7958L68.9448 23.8695C69.2631 23.4005 69.8828 23.3 70.6031 23.7187Z" fill="#AFAFAF"/>
<path d="M73.4672 17.9564C73.6347 18.0066 73.7185 18.1741 73.6682 18.3416L71.943 23.7018C71.8425 23.9698 71.2897 23.7855 71.3567 23.5175L73.082 18.1574C73.1322 17.9899 73.2997 17.9061 73.4672 17.9564Z" fill="#AFAFAF"/>
<path d="M73.4673 17.4372C73.082 17.4037 72.7303 17.6885 72.6968 18.0738C72.6633 18.459 72.948 18.8108 73.3333 18.8443C73.7185 18.8778 74.0703 18.593 74.1038 18.2078C74.1373 17.8225 73.8525 17.4875 73.4673 17.4372Z" fill="#453E3A"/>
<path d="M5.34324 45.8291C5.24274 45.7789 5.15898 45.6784 5.10873 45.5611C5.05848 45.4438 5.05848 45.3433 5.10873 45.2931L6.51577 43.6683C6.56602 43.6181 6.64977 43.6181 6.75027 43.6683C6.85078 43.7186 6.93453 43.8191 6.98478 43.9363L8.39182 47.1859C8.44207 47.3031 8.44207 47.4036 8.39182 47.4539C8.34156 47.5042 8.25781 47.5042 8.15731 47.4539L5.34324 45.8291Z" fill="#3B3532"/>
<path d="M5.22603 45.444L6.63307 43.8193C6.66657 43.7858 6.73357 43.836 6.76707 43.903L8.17411 47.1526C8.20761 47.2196 8.17411 47.2698 8.10711 47.2363L5.29304 45.6116C5.22603 45.5613 5.19253 45.4776 5.22603 45.444Z" fill="#FFC61E"/>
<path d="M6.58278 45.5948C6.54928 45.5781 6.51578 45.5278 6.51578 45.4943L6.43202 44.506C6.39852 44.1543 6.90104 44.4725 6.88429 44.7573L6.80053 45.6618C6.80053 45.6953 6.76703 45.6953 6.73353 45.6786L6.58278 45.5948ZM6.66653 45.8461C6.56603 45.7791 6.48228 45.8293 6.48228 45.9298C6.48228 46.0303 6.56603 46.1643 6.66653 46.2313C6.76703 46.2983 6.85078 46.2481 6.85078 46.1476C6.85078 46.0303 6.76703 45.9131 6.66653 45.8461Z" fill="#3B3532"/>
<path d="M5.07544 52.9313V47.1692L8.45902 49.1122V54.8744L5.07544 52.9313Z" fill="#3B3532"/>
<path d="M8.30815 54.6399L5.22607 52.8644V47.387L8.30815 49.1793V54.6399Z" fill="#FFC61E"/>
<path d="M7.33657 49.4472L6.14729 48.7605V48.6265L7.33657 49.3132V49.4472ZM7.83908 50.4188L5.64478 49.1457V49.2797L7.83908 50.5528V50.4188ZM7.83908 50.9548L5.64478 49.6817V49.5477L7.83908 50.8208V50.9548ZM7.83908 51.34L5.64478 50.067V49.933L7.83908 51.206V51.34ZM7.83908 51.742L5.64478 50.469V50.335L7.83908 51.608V51.742ZM7.83908 52.1273L5.64478 50.8543V50.7203L7.83908 51.9933V52.1273ZM7.83908 52.5293L5.64478 51.2563V51.1223L7.83908 52.3953V52.5293ZM7.83908 52.9313L5.64478 51.6583V51.5243L7.83908 52.7973V52.9313ZM7.83908 53.3166L5.64478 52.0435V51.9095L7.83908 53.1826V53.3166ZM7.83908 53.7186L5.64478 52.4456V52.3116L7.83908 53.5846V53.7186Z" fill="#3B3532"/>
<path d="M50.3347 40.4022C50.5525 40.2849 50.7367 40.2682 50.8707 40.3519L53.3498 41.7757C53.4838 41.8594 53.5676 42.027 53.5676 42.2615C53.5676 42.7472 53.2326 43.3335 52.8138 43.5847C52.6128 43.702 52.4453 43.7187 52.2945 43.6517C52.261 43.635 49.782 42.1945 49.782 42.1945C49.648 42.1107 49.5642 41.9432 49.5642 41.7087C49.5642 41.2229 49.8992 40.6367 50.3347 40.4022Z" fill="#2E2A28"/>
<path d="M51.9764 39.8326C52.5459 39.4976 53.0652 39.4809 53.4337 39.6986L54.221 40.1509L51.3064 45.1425L50.5191 44.6902C50.1506 44.4725 49.9329 44.0202 49.9329 43.3669C49.9329 42.0604 50.8374 40.4859 51.9764 39.8326Z" fill="#453E3A"/>
<path d="M50.7202 43.8358C50.7202 45.1423 51.6415 45.6616 52.7638 45.0083C53.886 44.3551 54.8073 42.7638 54.8073 41.474C54.8073 40.1675 53.886 39.6482 52.7638 40.3015C51.6415 40.938 50.7202 42.5293 50.7202 43.8358Z" fill="#35312E"/>
<path d="M51.541 43.35C51.541 44.1206 52.0938 44.4388 52.7638 44.0536C53.4338 43.6683 53.9866 42.7303 53.9866 41.943C53.9866 41.1725 53.4338 40.8542 52.7638 41.2395C52.0938 41.6248 51.541 42.5795 51.541 43.35Z" fill="#2E2A28"/>
<path d="M52.3953 42.8644C52.3953 43.0989 52.5628 43.1994 52.7638 43.0821C52.9648 42.9649 53.1323 42.6801 53.1323 42.4456C53.1323 42.2111 52.9648 42.1106 52.7638 42.2278C52.5628 42.3451 52.3953 42.6298 52.3953 42.8644Z" fill="#35312E"/>
<path d="M52.3114 44.355C52.3951 44.3048 52.4621 44.3048 52.5124 44.3383L55.0249 45.7956C55.0752 45.8291 55.1087 45.8961 55.1087 45.9798C55.1087 46.1641 54.9914 46.3818 54.8239 46.4656C54.7569 46.4991 54.6899 46.5158 54.6397 46.4991C54.6229 46.4991 52.1104 45.0418 52.1104 45.0418C52.0601 45.0083 52.0266 44.9581 52.0266 44.8576C52.0266 44.6733 52.1606 44.4555 52.3114 44.355Z" fill="#453E3A"/>
<path d="M17.8727 49.4805L16.6499 48.7602V42.9646L17.8727 43.6849V49.4805Z" fill="#2E2A28"/>
<path d="M24.9077 45.427L17.8726 49.4806V43.685L24.9077 39.6313V45.427Z" fill="#AFAFAF"/>
<path d="M17.8727 43.685L16.6499 42.9647L23.6683 38.9111L24.9079 39.6314L17.8727 43.685Z" fill="#453E3A"/>
<path d="M23.0317 42.0769C22.814 42.1941 22.6465 42.4956 22.6465 42.7469C22.6465 42.9982 22.814 43.0987 23.0317 42.9647C23.2495 42.8474 23.417 42.5459 23.417 42.2946C23.417 42.0434 23.2327 41.9429 23.0317 42.0769Z" fill="#6D6D6D"/>
<path d="M23.3168 42.1437C23.2498 42.1102 23.1828 42.1102 23.0823 42.1605C23.032 42.194 22.9818 42.2275 22.9483 42.2777C22.898 42.328 22.8478 42.4117 22.831 42.4787C22.7975 42.5625 22.7808 42.6462 22.7808 42.73C22.7808 42.8305 22.8143 42.9142 22.8813 42.9477L23.0823 43.065L23.5345 42.2777L23.3168 42.1437Z" fill="#393633"/>
<path d="M23.2663 42.2777C23.082 42.3782 22.948 42.6294 22.948 42.8304C22.948 43.0314 23.0988 43.1152 23.2663 43.0147C23.4505 42.9142 23.5845 42.6629 23.5845 42.4452C23.6013 42.2609 23.4505 42.1604 23.2663 42.2777Z" fill="#44403C"/>
<path d="M23.0317 44.1204C22.814 44.2377 22.6465 44.5392 22.6465 44.7904C22.6465 45.0417 22.814 45.1422 23.0317 45.0082C23.2495 44.8909 23.417 44.5894 23.417 44.3382C23.417 44.1037 23.2327 44.0032 23.0317 44.1204Z" fill="#6D6D6D"/>
<path d="M23.3168 44.1872C23.2498 44.1537 23.1828 44.1537 23.0823 44.2039C23.032 44.2374 22.9818 44.2709 22.9483 44.3212C22.898 44.3714 22.8478 44.4552 22.831 44.5222C22.7975 44.6059 22.7808 44.6897 22.7808 44.7734C22.7808 44.8739 22.8143 44.9577 22.8813 44.9912L23.0823 45.1084L23.5345 44.3212L23.3168 44.1872Z" fill="#393633"/>
<path d="M23.2663 44.3213C23.082 44.4218 22.948 44.6731 22.948 44.8741C22.948 45.0751 23.0988 45.1588 23.2663 45.0583C23.4505 44.9578 23.5845 44.7066 23.5845 44.4888C23.6013 44.3046 23.4505 44.2208 23.2663 44.3213Z" fill="#44403C"/>
<path d="M19.6482 46.1304C19.4304 46.2477 19.2629 46.5492 19.2629 46.8004C19.2629 47.0517 19.4304 47.1522 19.6482 47.0182C19.866 46.9009 20.0335 46.5994 20.0335 46.3482C20.0335 46.1137 19.866 46.0132 19.6482 46.1304Z" fill="#6D6D6D"/>
<path d="M19.933 46.1972C19.866 46.1637 19.799 46.1637 19.6985 46.2139C19.6482 46.2474 19.598 46.2809 19.5645 46.3312C19.5142 46.3814 19.464 46.4652 19.4472 46.5322C19.4137 46.6159 19.397 46.6997 19.397 46.7834C19.397 46.8839 19.4305 46.9677 19.4975 47.0012L19.6985 47.1185C19.6315 47.085 19.598 47.0179 19.598 46.9007C19.598 46.8169 19.6147 46.7332 19.6482 46.6494C19.6817 46.5824 19.7152 46.5154 19.7655 46.4484C19.8157 46.3982 19.8492 46.3647 19.8995 46.3312C19.9832 46.2809 20.067 46.2809 20.134 46.3144L19.933 46.1972Z" fill="#9C9C9B"/>
<path d="M19.8996 46.3313C19.7153 46.4318 19.5813 46.6831 19.5813 46.8841C19.5813 47.0851 19.7321 47.1688 19.8996 47.0683C20.0838 46.9678 20.2178 46.7166 20.2178 46.4988C20.2178 46.3146 20.0671 46.2308 19.8996 46.3313Z" fill="#E2E2E8"/>
<path d="M21.1555 45.2763C20.9378 45.3936 20.7703 45.6951 20.7703 45.9464C20.7703 46.1976 20.9378 46.2981 21.1555 46.1641C21.3733 46.0469 21.5408 45.7454 21.5408 45.4941C21.5408 45.2428 21.3565 45.1423 21.1555 45.2763Z" fill="#6D6D6D"/>
<path d="M21.4235 45.3432C21.3565 45.3097 21.2895 45.3097 21.189 45.3599C21.1387 45.3934 21.0885 45.4269 21.055 45.4772C21.0047 45.5274 20.9545 45.6112 20.9377 45.6782C20.9042 45.7619 20.8875 45.8457 20.8875 45.9294C20.8875 46.0299 20.921 46.1137 20.988 46.1472L21.189 46.2644C21.122 46.2309 21.0885 46.1639 21.0885 46.0467C21.0885 45.9629 21.1052 45.8792 21.1387 45.7954C21.1722 45.7284 21.2057 45.6614 21.256 45.5944C21.3062 45.5442 21.3397 45.5107 21.39 45.4772C21.4737 45.4269 21.5575 45.4269 21.6245 45.4604L21.4235 45.3432Z" fill="#139DC8"/>
<path d="M21.3898 45.4771C21.2055 45.5776 21.0715 45.8288 21.0715 46.0298C21.0715 46.2308 21.2223 46.3146 21.3898 46.2141C21.574 46.1136 21.708 45.8623 21.708 45.6446C21.7248 45.4603 21.574 45.3766 21.3898 45.4771Z" fill="#58D8FF"/>
<path d="M19.6482 44.0367C19.4304 44.1539 19.2629 44.4554 19.2629 44.7067C19.2629 44.9579 19.4304 45.0585 19.6482 44.9245C19.866 44.8072 20.0335 44.5057 20.0335 44.2544C20.0335 44.0199 19.866 43.9194 19.6482 44.0367Z" fill="#6D6D6D"/>
<path d="M19.933 44.1037C19.866 44.0702 19.799 44.0702 19.6985 44.1204C19.6482 44.1539 19.598 44.1874 19.5645 44.2377C19.5142 44.2879 19.464 44.3717 19.4472 44.4387C19.4137 44.5224 19.397 44.6062 19.397 44.6899C19.397 44.7904 19.4305 44.8742 19.4975 44.9077L19.6985 45.0249C19.6315 44.9914 19.598 44.9244 19.598 44.8072C19.598 44.7234 19.6147 44.6397 19.6482 44.5559C19.6817 44.4889 19.7152 44.4219 19.7655 44.3549C19.8157 44.3047 19.8492 44.2712 19.8995 44.2377C19.9832 44.1874 20.067 44.1874 20.134 44.2209L19.933 44.1037Z" fill="#393633"/>
<path d="M19.8996 44.2376C19.7153 44.3381 19.5813 44.5893 19.5813 44.7903C19.5813 44.9913 19.7321 45.0751 19.8996 44.9746C20.0838 44.8741 20.2178 44.6228 20.2178 44.4051C20.2178 44.2208 20.0671 44.1371 19.8996 44.2376Z" fill="#44403C"/>
<path d="M21.1555 43.1656C20.9378 43.2828 20.7703 43.5843 20.7703 43.8356C20.7703 44.0869 20.9378 44.1874 21.1555 44.0534C21.3733 43.9361 21.5408 43.6346 21.5408 43.3833C21.5408 43.1488 21.3565 43.0483 21.1555 43.1656Z" fill="#6D6D6D"/>
<path d="M21.4235 43.2328C21.3565 43.1993 21.2895 43.1993 21.189 43.2496C21.1387 43.2831 21.0885 43.3166 21.055 43.3668C21.0047 43.4171 20.9545 43.5008 20.9377 43.5678C20.9042 43.6516 20.8875 43.7353 20.8875 43.8191C20.8875 43.9196 20.921 44.0033 20.988 44.0368L21.189 44.1541C21.122 44.1206 21.0885 44.0536 21.0885 43.9363C21.0885 43.8526 21.1052 43.7688 21.1387 43.6851C21.1722 43.6181 21.2057 43.5511 21.256 43.4841C21.3062 43.4338 21.3397 43.4003 21.39 43.3668C21.4737 43.3166 21.5575 43.3166 21.6245 43.3501L21.4235 43.2328Z" fill="#393633"/>
<path d="M21.3898 43.3667C21.2055 43.4672 21.0715 43.7185 21.0715 43.9195C21.0715 44.1205 21.2223 44.2043 21.3898 44.1037C21.574 44.0032 21.708 43.752 21.708 43.5342C21.7248 43.35 21.574 43.2662 21.3898 43.3667Z" fill="#44403C"/>
<path d="M46.2982 36.1807L45.5444 35.7452V35.0249L46.2982 35.4437V36.1807Z" fill="#2E2A28"/>
<path d="M55.6951 30.7534L46.2981 36.1805V35.4435L55.6951 30.0164V30.7534Z" fill="#3B3532"/>
<path d="M46.2982 35.4436L45.5444 35.0248L54.9414 29.5977L55.6952 30.0164L46.2982 35.4436Z" fill="#453E3A"/>
<path opacity="0.5" d="M55.3267 29.8156L45.9297 35.2428V21.7419L55.3267 16.3315V29.8156Z" fill="#AAD8EB"/>
<path opacity="0.6" d="M54.9414 16.1138L45.5444 21.5242V35.025L45.9297 35.2427V21.7419L55.3267 16.3315L54.9414 16.1138Z" fill="#5B8AA0"/>
</svg>
