<svg width="80" height="80" viewBox="0 0 80 80" fill="none" xmlns="http://www.w3.org/2000/svg">
<path d="M49.0249 13.3776C48.7226 13.1886 48.4392 13.1886 48.2314 13.302L44.6225 15.3993C44.4146 15.5127 44.3013 15.7583 44.3013 16.1173C44.3013 16.8353 44.7925 17.6855 45.4161 18.0445C45.6995 18.2146 45.964 18.2335 46.1718 18.139C46.2285 18.1201 49.8374 16.0228 49.8374 16.0228C50.0264 15.9094 50.1586 15.6638 50.1586 15.3048C50.1397 14.5868 49.6296 13.7366 49.0249 13.3776Z" fill="#453E3A"/>
<path d="M29.1478 2.7963L25.1232 0.472255C24.8587 0.321097 24.5375 0.321097 24.273 0.472255C24.1974 0.510044 24.1218 0.585623 24.0651 0.642307C24.0084 0.661202 23.9517 0.661202 23.8951 0.680096C23.8195 0.717886 23.7439 0.793464 23.6872 0.850148C23.6305 0.869043 23.5739 0.869043 23.5172 0.887937C23.4416 0.925727 23.366 1.00131 23.3093 1.05799C23.2526 1.07688 23.196 1.07688 23.1393 1.09578C23.0637 1.13357 22.9881 1.20915 22.9314 1.26583C22.8748 1.28473 22.8181 1.28473 22.7614 1.30362C22.4969 1.45478 22.3457 1.7382 22.3457 2.04051V10.1841C22.3457 10.6565 22.4591 11.1288 22.648 11.5634L23.8951 14.1709C23.9329 14.2465 24.0084 14.2843 24.084 14.2843C24.1218 14.2843 24.1407 14.2843 24.1785 14.2654C24.273 14.2087 24.3296 14.0953 24.273 14.0008V13.963C24.3107 14.0386 24.3863 14.0764 24.4619 14.0764C24.4997 14.0764 24.5186 14.0764 24.5564 14.0575C24.6509 14.0008 24.7075 13.8875 24.6509 13.793V13.7552C24.6886 13.8308 24.7642 13.8686 24.8398 13.8686C24.8776 13.8686 24.8965 13.8686 24.9343 13.8497C25.0287 13.793 25.0854 13.6796 25.0287 13.5851V13.5474C25.0665 13.6229 25.1421 13.6607 25.2177 13.6607C25.2555 13.6607 25.2744 13.6607 25.3122 13.6418C25.4066 13.5852 25.4633 13.4718 25.4066 13.3773V13.3395C25.4444 13.4151 25.52 13.4529 25.5956 13.4529C25.6334 13.4529 25.6523 13.4529 25.6901 13.434C25.7845 13.3773 25.8412 13.2639 25.7845 13.1695L24.5375 10.562C24.3674 10.1841 24.273 9.76843 24.273 9.35275V2.17277L27.4662 4.00556C27.5606 4.06224 27.6929 4.02445 27.7496 3.92998C27.7874 3.87329 27.7685 3.79772 27.7307 3.74103L27.8252 3.79772C27.9196 3.8544 28.0519 3.81661 28.1086 3.72214C28.1464 3.66545 28.1275 3.58987 28.0897 3.5143L28.1842 3.57098C28.2786 3.62766 28.4109 3.58987 28.4676 3.4954C28.5054 3.43872 28.4865 3.36314 28.4487 3.30645L28.5431 3.36314C28.6376 3.41982 28.7699 3.38203 28.8266 3.28756C28.8644 3.23088 28.8455 3.1553 28.8077 3.07972L28.9399 3.1553C29.0344 3.21198 29.1667 3.17419 29.2234 3.07972C29.28 2.98524 29.2423 2.85298 29.1478 2.7963Z" fill="#6E6F74"/>
<path d="M33.1346 27.3216L31.2451 26.2257V1.41699L33.1346 2.49399V27.3216Z" fill="#C5C2B8"/>
<path d="M35.5908 25.9046L33.1345 27.3217V2.49415L35.5908 1.09595V25.9046Z" fill="#DEDBD5"/>
<path d="M33.1346 2.4941L31.2451 1.4171L33.6825 0L35.5909 1.09589L33.1346 2.4941Z" fill="#F0EDEA"/>
<path d="M23.8196 3.79785L28.9589 6.76431V66.4337L23.8196 63.4672V3.79785Z" fill="#C5C2B8"/>
<path d="M34.7785 63.0893L28.959 66.4336V6.76428L34.7785 3.41992V63.0893Z" fill="#DEDBD5"/>
<path d="M30.5083 7.65224L33.2291 6.08398V35.2951L30.5083 36.8823V7.65224Z" fill="#3B3532"/>
<path d="M28.9589 6.76419L23.8196 3.79772L29.6391 0.453369L34.7785 3.41983L28.9589 6.76419Z" fill="#F0EDEA"/>
<path d="M44.1502 80.0001L25.8413 69.419V47.6902L44.1502 58.2523V80.0001Z" fill="#2FBAE5"/>
<path d="M56.4884 72.8768L44.1501 80.0001V58.2523L56.4884 51.1479V72.8768Z" fill="#139DC8"/>
<path d="M44.1502 58.2523L25.8413 47.6902L38.1606 40.5669L56.4884 51.1479L44.1502 58.2523Z" fill="#58D8FF"/>
<path d="M44.1502 59.4615L25.8413 48.8805V43.8545L44.1502 54.4355V59.4615Z" fill="#C5C2B8"/>
<path d="M56.4884 52.3382L44.1501 59.4615V54.4355L56.4884 47.3123V52.3382Z" fill="#DEDBD5"/>
<path d="M44.1502 54.4356L25.8413 43.8546L38.1606 36.7502L56.4884 47.3124L44.1502 54.4356Z" fill="#F0EDEA"/>
<path d="M55.2034 30.1181C54.3721 29.6269 53.6163 29.5891 53.0683 29.9292L51.9158 30.5905L56.186 37.8838L57.3385 37.2225C57.8676 36.9013 58.1888 36.24 58.1888 35.2952C58.1888 33.3869 56.8662 31.0628 55.2034 30.1181Z" fill="#453E3A"/>
<path d="M57.0361 35.9567C57.0361 37.865 55.6946 38.6397 54.0508 37.6761C52.4069 36.7314 51.0654 34.4073 51.0654 32.499C51.0654 30.5906 52.4069 29.8159 54.0508 30.7795C55.6946 31.7432 57.0361 34.0672 57.0361 35.9567Z" fill="#35312E"/>
<path d="M55.8269 35.2575C55.8269 36.3911 55.0333 36.8446 54.0508 36.2778C53.0682 35.7109 52.2747 34.3316 52.2747 33.1979C52.2747 32.0643 53.0682 31.6108 54.0508 32.1776C55.0333 32.7445 55.8269 34.1238 55.8269 35.2575Z" fill="#2E2A28"/>
<path d="M60.8339 31.7243C60.7206 31.6676 60.6072 31.6487 60.5505 31.7054L56.866 33.8216C56.7905 33.8594 56.7527 33.9538 56.7527 34.0861C56.7527 34.3506 56.9416 34.6718 57.1684 34.7852C57.2628 34.8419 57.3762 34.8608 57.4518 34.823C57.4707 34.823 61.1362 32.6879 61.1362 32.6879C61.2118 32.6501 61.2496 32.5556 61.2496 32.4234C61.2307 32.1777 61.0607 31.8565 60.8339 31.7243Z" fill="#453E3A"/>
<path d="M45.0759 43.5711L41.0325 41.2471V43.1932L45.0759 45.5362V43.5711Z" fill="#2E2A28"/>
<path d="M47.3055 44.2323L45.0759 45.536V43.571L47.3055 42.2861V44.2323Z" fill="#3B3532"/>
<path d="M48.3259 50.0898L29.998 39.5088V41.4549L48.3259 52.036V50.0898Z" fill="#C5C2B8"/>
<path d="M52.3316 49.7118L48.3259 52.0358V50.0897L52.3316 47.7656V49.7118Z" fill="#DEDBD5"/>
<path d="M48.3259 50.0899L29.998 39.5089L34.0226 37.1848L52.3315 47.7658L48.3259 50.0899Z" fill="#F0EDEA"/>
<path d="M34.1172 40.1134L35.043 39.5654L50.291 48.3703L49.3463 48.9183L34.1172 40.1134Z" fill="#C5C2B8"/>
<path d="M38.8218 47.18L34.7783 44.856V46.8021L38.8218 49.1261V47.18Z" fill="#2E2A28"/>
<path d="M41.0702 47.8412L38.8218 49.126V47.1799L41.0702 45.895V47.8412Z" fill="#3B3532"/>
<path d="M30.6403 51.9038L21.2119 46.4621V45.1206L30.6403 50.5812V51.9038Z" fill="#2E2A28"/>
<path d="M57.0929 36.6367L30.6404 51.9036V50.5809L57.0929 35.2952V36.6367Z" fill="#3B3532"/>
<path d="M30.6403 50.581L21.2119 45.1204L47.6455 29.8535L57.0929 35.2952L30.6403 50.581Z" fill="#453E3A"/>
<path d="M29.0155 49.6175L28.4675 49.3152L54.9201 34.0483L55.4491 34.3507L29.0155 49.6175Z" fill="#2E2A28"/>
<path d="M26.2568 48.0304L25.7278 47.7281L52.1614 32.4612L52.7094 32.7635L26.2568 48.0304Z" fill="#2E2A28"/>
<path d="M23.5172 46.4432L22.9692 46.1409L49.4218 30.874L49.9508 31.1763L23.5172 46.4432Z" fill="#2E2A28"/>
<path d="M25.5201 48.9561L22.5536 50.6755C22.3458 50.7888 22.2324 51.0345 22.2324 51.3935C22.2324 52.1115 22.7237 52.9617 23.3472 53.3207C23.6306 53.4908 23.8952 53.5097 24.103 53.4152C24.1219 53.3963 28.6944 50.7699 28.6944 50.7699L25.5201 48.9561Z" fill="#2E2A28"/>
<path d="M24.4622 47.8789C23.6309 47.3876 22.8751 47.3498 22.3271 47.6899L21.1746 48.3512L25.4448 55.6446L26.5973 54.9832C27.1264 54.662 27.4476 54.0007 27.4476 53.056C27.4476 51.1476 26.1061 48.8236 24.4622 47.8789Z" fill="#453E3A"/>
<path d="M26.2949 53.7174C26.2949 55.6258 24.9534 56.4005 23.3096 55.4368C21.6657 54.4732 20.3242 52.168 20.3242 50.2597C20.3242 48.3513 21.6657 47.5767 23.3096 48.5403C24.9534 49.485 26.2949 51.8091 26.2949 53.7174Z" fill="#35312E"/>
<path d="M25.0856 53.0182C25.0856 54.1519 24.2921 54.6053 23.3095 54.0385C22.327 53.4717 21.5334 52.0924 21.5334 50.9587C21.5334 49.825 22.327 49.3715 23.3095 49.9384C24.2732 50.5052 25.0856 51.8845 25.0856 53.0182Z" fill="#2E2A28"/>
<path d="M23.8386 52.3003C23.8386 52.6404 23.5929 52.7916 23.2906 52.6215C22.9883 52.4515 22.7427 52.0169 22.7427 51.6768C22.7427 51.3367 22.9883 51.1855 23.2906 51.3556C23.5929 51.5445 23.8386 51.9602 23.8386 52.3003Z" fill="#35312E"/>
<path d="M22.0812 48.4269C21.9679 48.3702 21.8545 48.3513 21.7978 48.408L18.1134 50.5242C18.0378 50.562 18 50.6565 18 50.7887C18 51.0533 18.1889 51.3745 18.4157 51.4878C18.5102 51.5445 18.6235 51.5634 18.6991 51.5256C18.718 51.5256 22.3836 49.3905 22.3836 49.3905C22.4591 49.3527 22.4969 49.2583 22.4969 49.126C22.4969 48.8804 22.308 48.5592 22.0812 48.4269Z" fill="#453E3A"/>
<path d="M50.6122 50.1466C50.9145 49.9577 51.1979 49.9577 51.4058 50.071L55.0146 52.1683C55.2225 52.2817 55.3359 52.5273 55.3359 52.8863C55.3359 53.6043 54.8446 54.4546 54.2211 54.8136C53.9377 54.9836 53.6731 55.0025 53.4653 54.9081C53.4086 54.8892 49.7997 52.7919 49.7997 52.7919C49.6108 52.6785 49.4785 52.4329 49.4785 52.0739C49.4974 51.3559 49.9887 50.4867 50.6122 50.1466Z" fill="#2E2A28"/>
<path d="M53.0117 49.3151C53.8431 48.8239 54.5989 48.7861 55.1468 49.1262L56.2994 49.7875L52.0292 57.0808L50.8766 56.4195C50.3476 56.0983 50.0264 55.437 50.0264 54.4923C50.0264 52.5839 51.349 50.2599 53.0117 49.3151Z" fill="#453E3A"/>
<path d="M51.179 55.1535C51.179 57.0618 52.5205 57.8365 54.1643 56.8729C55.8081 55.9281 57.1497 53.6041 57.1497 51.6957C57.1497 49.7874 55.8081 49.0127 54.1643 49.9763C52.5205 50.921 51.179 53.2451 51.179 55.1535Z" fill="#35312E"/>
<path d="M52.3882 54.4545C52.3882 55.5882 53.1818 56.0416 54.1643 55.4748C55.1468 54.9079 55.9404 53.5286 55.9404 52.395C55.9404 51.2613 55.1468 50.8078 54.1643 51.3746C53.1818 51.9415 52.3882 53.3208 52.3882 54.4545Z" fill="#2E2A28"/>
<path d="M53.6165 53.7364C53.6165 54.0765 53.8621 54.2276 54.1644 54.0576C54.4667 53.8875 54.7123 53.4529 54.7123 53.1128C54.7123 52.7727 54.4667 52.6216 54.1644 52.7916C53.8621 52.9806 53.6165 53.3963 53.6165 53.7364Z" fill="#35312E"/>
<path d="M53.5031 55.9281C53.6165 55.8714 53.7298 55.8525 53.7865 55.9092L57.471 58.0254C57.5465 58.0632 57.5843 58.1577 57.5843 58.2899C57.5843 58.5545 57.3954 58.8757 57.1687 58.9891C57.0742 59.0457 56.9608 59.0646 56.8852 59.0268C56.8663 59.0268 53.2008 56.8917 53.2008 56.8917C53.1252 56.854 53.0874 56.7595 53.0874 56.6272C53.0874 56.3816 53.2764 56.0604 53.5031 55.9281Z" fill="#453E3A"/>
<path d="M24.9153 32.0642L23.0259 30.9684V6.15967L24.9153 7.25556V32.0642Z" fill="#C5C2B8"/>
<path d="M27.3529 30.6662L24.9155 32.0644V7.25572L27.3529 5.83862V30.6662Z" fill="#DEDBD5"/>
<path d="M24.9153 7.25566L23.0259 6.15978L25.4633 4.74268L27.3528 5.83857L24.9153 7.25566Z" fill="#F0EDEA"/>
<path d="M38.4628 19.9716L30.3003 15.2668V7.57666L38.4628 12.2814V19.9716Z" fill="#C5C2B8"/>
<path d="M41.7125 18.1011L38.4626 19.9717V12.2816L41.7125 10.3921V18.1011Z" fill="#139DC8"/>
<path d="M38.4628 12.2815L30.3003 7.57672L33.5691 5.68726L41.7127 10.392L38.4628 12.2815Z" fill="#F0EDEA"/>
<path d="M42.3362 26.7549H39.9744V29.6458C39.9744 29.8158 40.0877 30.0048 40.3334 30.137C40.7868 30.4016 41.5426 30.4016 42.015 30.137C42.2417 30.0048 42.3551 29.8347 42.3551 29.6647L42.3362 26.7549Z" fill="#A1A1A1"/>
<path d="M43.1299 25.9235C43.1299 25.64 39.1809 26.0368 39.1809 25.9423V27.8129C39.1809 28.0963 39.3699 28.3987 39.7666 28.6065C40.5413 29.06 41.7884 29.06 42.5631 28.6065C42.9598 28.3798 43.1488 28.0774 43.1488 27.794L43.1299 25.9235Z" fill="#4D4D4D"/>
<path d="M38.5762 13.7742V26.547L41.1458 28.0396V13.7742H38.5762Z" fill="#2FBAE5"/>
<path d="M41.146 13.7742V28.0396L43.7535 26.5281V13.7742H41.146Z" fill="#139DC8"/>
<path d="M39.7667 25.1677L32.719 21.1054V8.03027L39.7667 12.1115V25.1677Z" fill="#2FBAE5"/>
<path d="M47.9858 20.4251L39.7666 25.1677V12.1115L47.9858 7.3689V20.4251Z" fill="#139DC8"/>
<path d="M39.7667 12.1116L32.719 8.03031L40.9193 3.30664L47.9859 7.36899L39.7667 12.1116Z" fill="#58D8FF"/>
<path opacity="0.8" d="M37.2725 59.405L32.4922 56.6463V55.6638L37.2725 58.4224V59.405Z" fill="#108EB5"/>
<path d="M37.0647 58.9702L32.1521 56.136L32.3977 55.5503L37.3103 58.3845L37.0647 58.9702Z" fill="#139DC8"/>
<path opacity="0.8" d="M37.2725 60.8407L32.4922 58.0821V57.0996L37.2725 59.8582V60.8407Z" fill="#108EB5"/>
<path d="M37.0647 60.4063L32.1521 57.5721L32.3977 56.9863L37.3103 59.8205L37.0647 60.4063Z" fill="#139DC8"/>
<path opacity="0.8" d="M37.2725 62.2768L32.4922 59.5182V58.5356L37.2725 61.2943V62.2768Z" fill="#108EB5"/>
<path d="M37.0647 61.8423L32.1521 59.0081L32.3977 58.4224L37.3103 61.2566L37.0647 61.8423Z" fill="#139DC8"/>
<path opacity="0.8" d="M37.2725 63.694L32.4922 60.9354V59.9529L37.2725 62.7115V63.694Z" fill="#108EB5"/>
<path d="M37.0647 63.2781L32.1521 60.4439L32.3977 59.8582L37.3103 62.6924L37.0647 63.2781Z" fill="#139DC8"/>
<path opacity="0.8" d="M37.2725 68.9467L32.4922 66.1881V65.2056L37.2725 67.9642V68.9467Z" fill="#108EB5"/>
<path d="M37.0647 68.512L32.1521 65.6778L32.3977 65.092L37.3103 67.9262L37.0647 68.512Z" fill="#139DC8"/>
<path opacity="0.8" d="M37.2725 70.3825L32.4922 67.6239V66.6414L37.2725 69.4V70.3825Z" fill="#108EB5"/>
<path d="M37.0647 69.948L32.1521 67.1138L32.3977 66.5281L37.3103 69.3623L37.0647 69.948Z" fill="#139DC8"/>
<path opacity="0.8" d="M37.2725 71.8188L32.4922 69.0602V68.0776L37.2725 70.8363V71.8188Z" fill="#108EB5"/>
<path d="M37.0647 71.384L32.1521 68.5498L32.3977 67.9641L37.3103 70.7983L37.0647 71.384Z" fill="#139DC8"/>
<path opacity="0.8" d="M37.2725 73.2546L32.4922 70.4959V69.5134L37.2725 72.272V73.2546Z" fill="#108EB5"/>
<path d="M37.0647 72.8201L32.1521 69.9859L32.3977 69.4001L37.3103 72.2343L37.0647 72.8201Z" fill="#139DC8"/>
<path d="M36.6491 26.9627L35.1753 26.1124V17.2319L36.6491 18.0822V26.9627Z" fill="#2FBAE5"/>
<path d="M39.7857 25.1677L36.6492 26.9627V18.0822L39.7857 16.2683V25.1677Z" fill="#139DC8"/>
<path d="M36.6491 18.0821L35.1753 17.2319L38.3118 15.418L39.7856 16.2682L36.6491 18.0821Z" fill="#58D8FF"/>
<path d="M38.1794 21.3699C37.9526 21.5021 37.7637 21.8422 37.7637 22.1068C37.7637 22.3713 37.9526 22.4847 38.1794 22.3524C38.4061 22.2201 38.6139 21.88 38.6139 21.6155C38.6139 21.351 38.4061 21.2376 38.1794 21.3699Z" fill="#2FBAE5"/>
<path d="M37.9525 21.8234C37.9903 21.7478 38.0281 21.6723 38.0848 21.5967C38.1226 21.54 38.1793 21.5022 38.236 21.4644C38.3304 21.4077 38.4249 21.4077 38.5005 21.4455L38.7083 21.5778L38.1982 22.4469L37.9903 22.3147C37.9336 22.2769 37.877 22.2013 37.877 22.0879C37.877 22.0124 37.8958 21.9179 37.9525 21.8234Z" fill="#139DC8"/>
<path d="M38.4437 21.5966C38.2548 21.71 38.0847 21.9934 38.0847 22.2201C38.0847 22.4469 38.2359 22.5414 38.4437 22.428C38.6327 22.3146 38.8027 22.0312 38.8027 21.8045C38.8216 21.5777 38.6516 21.4833 38.4437 21.5966Z" fill="#2FBAE5"/>
<path d="M38.1794 23.4104C37.9526 23.5427 37.7637 23.8828 37.7637 24.1473C37.7637 24.4118 37.9526 24.5252 38.1794 24.3929C38.4061 24.2607 38.6139 23.9206 38.6139 23.656C38.6139 23.3915 38.425 23.2781 38.1794 23.4104Z" fill="#2FBAE5"/>
<path d="M37.9525 23.8639C37.9903 23.7884 38.0281 23.7128 38.0848 23.6372C38.1226 23.5805 38.1793 23.5427 38.236 23.5049C38.3304 23.4483 38.4249 23.4483 38.5005 23.4861L38.7083 23.6183L38.1982 24.4875L37.9903 24.3552C37.9336 24.3174 37.877 24.2418 37.877 24.1285C37.8958 24.0529 37.9147 23.9584 37.9525 23.8639Z" fill="#6E6F74"/>
<path d="M38.4628 23.6371C38.2738 23.7505 38.1038 24.0339 38.1038 24.2607C38.1038 24.4874 38.2549 24.5819 38.4628 24.4685C38.6517 24.3551 38.8218 24.0717 38.8218 23.845C38.8218 23.6183 38.6517 23.5238 38.4628 23.6371Z" fill="#9C9C9B"/>
<path d="M39.4076 19.5748V17.7231L37.0269 19.1025V20.9541L39.4076 19.5748Z" fill="#58D8FF"/>
<path opacity="0.7" d="M39.2753 19.4992V17.7987L39.4076 17.7231V19.5748L37.0269 20.9541V20.803L39.2753 19.4992Z" fill="#2FBAE5"/>
<path d="M27.5039 68.0019C27.4283 67.9641 27.3528 67.8696 27.315 67.7752C27.2772 67.6807 27.2772 67.6051 27.315 67.5484L28.4864 66.188C28.5242 66.1502 28.5998 66.1502 28.6754 66.188C28.751 66.2258 28.8265 66.3203 28.8643 66.4147L30.0358 69.1167C30.0736 69.2112 30.0736 69.2867 30.0358 69.3434C29.998 69.3812 29.9224 69.3812 29.8468 69.3434L27.5039 68.0019Z" fill="#3B3532"/>
<path d="M27.4095 67.6996L28.581 66.3392C28.5999 66.3014 28.6754 66.3392 28.6943 66.3959L29.8658 69.0978C29.8847 69.1545 29.8658 69.1923 29.8091 69.1545L27.4662 67.7941C27.4095 67.7941 27.3717 67.7185 27.4095 67.6996Z" fill="#2FBAE5"/>
<path d="M28.5244 67.8129C28.5055 67.794 28.4677 67.7562 28.4677 67.7373L28.411 66.9248C28.3921 66.6414 28.8078 66.9059 28.7889 67.1327L28.7322 67.8884C28.7322 67.9073 28.7133 67.9262 28.6756 67.9073L28.5244 67.8129ZM28.6 68.0207C28.5055 67.964 28.4488 68.0018 28.4488 68.0774C28.4488 68.1719 28.5244 68.2663 28.6 68.323C28.6944 68.3797 28.7511 68.3419 28.7511 68.2663C28.7511 68.1908 28.6756 68.0774 28.6 68.0207Z" fill="#3B3532"/>
<path d="M45.5295 16.4762V10.8645L42.2229 12.754V18.3846L45.5295 16.4762Z" fill="#524945"/>
<path d="M42.3743 18.1578L45.3785 16.4195V11.0723L42.3743 12.8106V18.1578Z" fill="#58D8FF"/>
<path d="M43.3189 12.9617L44.4904 12.2815V12.4138L43.3189 13.094V12.9617ZM42.8276 14.171L44.9627 12.9428V12.7916L42.8276 14.0198V14.171ZM42.8276 14.4166L44.9627 13.1884V13.3207L42.8276 14.5489V14.4166ZM42.8276 14.7945L44.9627 13.5663V13.6986L42.8276 14.9267V14.7945ZM42.8276 15.1913L44.9627 13.9631V14.0954L42.8276 15.3235V15.1913ZM42.8276 15.5692L44.9627 14.341V14.4733L42.8276 15.7014V15.5692ZM42.8276 15.9471L44.9627 14.7189V14.8512L42.8276 16.0793V15.9471ZM42.8276 16.3438L44.9627 15.1157V15.248L42.8276 16.4761V16.3438ZM42.8276 16.7217L44.9627 15.4936V15.6258L42.8276 16.854V16.7217ZM42.8276 17.1185L44.9627 15.8904V16.0226L42.8276 17.2508V17.1185Z" fill="#524945"/>
<path d="M45.0006 19.9339C45.2462 19.8017 45.4351 19.4993 45.4351 19.2537V18.4601C45.4351 18.2145 45.2462 18.1389 45.0006 18.2712L42.771 19.556C42.5254 19.6883 42.3364 19.9906 42.3364 20.2362V21.0298C42.3364 21.2754 42.5254 21.351 42.771 21.2188L45.0006 19.9339Z" fill="#524945"/>
<path d="M42.7521 21.1243L44.9817 19.8394C45.1517 19.7449 45.3029 19.5182 45.3029 19.3293V18.5357C45.3029 18.3656 45.1517 18.3089 44.9817 18.4034L42.7521 19.6883C42.5821 19.7827 42.4309 20.0095 42.4309 20.1984V20.992C42.4498 21.162 42.5821 21.2187 42.7521 21.1243Z" fill="#58D8FF"/>
<path d="M42.8464 20.1039L44.906 18.9136V18.8191L42.8464 20.0095V20.1039Z" fill="#524945"/>
<path d="M42.8464 20.3874L44.906 19.197V19.1025L42.8464 20.2929V20.3874Z" fill="#524945"/>
<path d="M42.8464 20.6706L44.906 19.4802V19.3857L42.8464 20.5761V20.6706Z" fill="#524945"/>
<path d="M55.3737 11.3177C55.2793 11.1288 55.0336 11.0532 54.8447 11.1665L48.5906 14.5109C48.2882 14.6998 48.6283 15.3423 48.9496 15.1911L55.2037 11.8468C55.4115 11.7334 55.4871 11.5067 55.3737 11.3177Z" fill="#C5C2B8"/>
<path d="M56.0161 11.2044C56.1484 11.6768 55.865 12.168 55.3926 12.3003C54.9202 12.4326 54.429 12.1491 54.2967 11.6768C54.1644 11.2044 54.4479 10.7131 54.9202 10.5809C55.3926 10.4486 55.8838 10.732 56.0161 11.2044Z" fill="#453E3A"/>
<path d="M44.3958 26.1123L41.8262 24.6197V24.0339L44.3958 25.5266V26.1123Z" fill="#2E2A28"/>
<path d="M45.6241 25.4135L44.396 26.1126V25.5268L45.6241 24.8088V25.4135Z" fill="#3B3532"/>
<path d="M44.3958 25.5267L41.8262 24.0341L43.0543 23.335L45.624 24.8087L44.3958 25.5267Z" fill="#453E3A"/>
<path d="M42.1851 28.0774L41.5994 27.7373V27.1516L42.1851 27.4917V28.0774Z" fill="#2E2A28"/>
<path d="M49.7998 23.6939L42.1853 28.0774V27.4917L49.7998 23.1082V23.6939Z" fill="#3B3532"/>
<path d="M42.1851 27.4918L41.5994 27.1517L49.2139 22.7493L49.7996 23.1083L42.1851 27.4918Z" fill="#453E3A"/>
<path opacity="0.5" d="M50.1209 32.8012L42.5063 37.1848V27.6808L50.1209 23.2783V32.8012Z" fill="#AAD8EB"/>
<path opacity="0.6" d="M49.7998 23.1082L42.1853 27.4917V37.0146L42.5065 37.1847V27.6807L50.1211 23.2782L49.7998 23.1082Z" fill="#5B8AA0"/>
</svg>
