<svg width="80" height="80" viewBox="0 0 80 80" fill="none" xmlns="http://www.w3.org/2000/svg">
<path d="M19.5342 30.5183L11 25.5855V6.69067L19.5342 11.6235V30.5183Z" fill="#139DC8"/>
<path d="M11.478 15.2251V8.03931L19.0735 12.4259V19.6117L11.478 15.2251Z" fill="#9D9B9A"/>
<path d="M19.5342 11.6236L11 6.69085L22.5895 0L31.1408 4.93279L19.5342 11.6236Z" fill="#58D8FF"/>
<path d="M13.765 14.8154L16.3595 16.3175C16.5131 16.4028 16.6325 16.3516 16.6325 16.198V12.1869C16.6325 12.0333 16.5131 11.8455 16.3595 11.7602L13.765 10.2582C13.6114 10.1728 13.4919 10.224 13.4919 10.3776V14.3887C13.4919 14.5253 13.6114 14.7301 13.765 14.8154Z" fill="#242222"/>
<path d="M14.2258 11.8114L15.8132 12.733V12.2039L14.2258 11.2822V11.8114Z" fill="#EBE4E4"/>
<path d="M14.5504 13.0061C14.6528 12.9549 14.7893 12.9549 14.9429 13.0403C15.2502 13.211 15.4891 13.6377 15.4891 13.9961C15.4891 14.1668 15.4208 14.2863 15.3355 14.3545L14.9941 14.5423L14.209 13.1939L14.5504 13.0061Z" fill="#4D4D4D"/>
<path d="M15.1476 14.1837C15.1476 14.5421 14.9086 14.6787 14.6014 14.508C14.2941 14.3373 14.0552 13.9106 14.0552 13.5521C14.0552 13.1937 14.2941 13.0572 14.6014 13.2278C14.9086 13.4156 15.1476 13.8423 15.1476 14.1837Z" fill="#BCBCBC"/>
<path d="M17.4861 12.6136L18.4419 13.1598V12.8526L17.4861 12.2893V12.6136Z" fill="#EBE4E4"/>
<path d="M17.5881 14.218L18.3221 14.6447V13.4841L17.5881 13.0574V14.218Z" fill="#5A5756"/>
<path d="M18.1002 13.6036L17.5882 13.2964L17.2126 14.1498L17.7418 14.44L18.1002 13.6036Z" fill="#BCBCBC"/>
<path d="M18.2197 13.5182L17.7076 13.228L17.5881 13.2963L18.1002 13.6035L18.2197 13.5182Z" fill="#139DC8"/>
<path d="M18.1004 13.6037L17.7419 14.44H18.2199V13.5183L18.1004 13.6037Z" fill="#4D4D4D"/>
<path d="M17.4861 15.2081L18.4419 15.7543V15.43L17.4861 14.8838V15.2081Z" fill="#EBE4E4"/>
<path d="M17.5881 16.7954L18.3221 17.2221V16.0615L17.5881 15.6348V16.7954Z" fill="#5A5756"/>
<path d="M18.1002 16.181L17.5882 15.8909L17.2126 16.7272L17.7418 17.0345L18.1002 16.181Z" fill="#C7C6C5"/>
<path d="M18.2197 16.1129L17.7076 15.8057L17.5881 15.891L18.1002 16.1812L18.2197 16.1129Z" fill="#139DC8"/>
<path d="M18.1004 16.1811L17.7419 17.0345H18.2199V16.1128L18.1004 16.1811Z" fill="#2FBAE5"/>
<path d="M12.1094 9.67773L12.6726 10.002V11.1627L12.4849 11.2651L11.9216 9.78015L12.1094 9.67773Z" fill="#242222"/>
<path d="M11.9216 10.9407L12.4849 11.265V10.1043L11.9216 9.78003V10.9407Z" fill="#2F2B2B"/>
<path d="M12.1094 9.45584L12.6726 9.78014V9.60946L12.1094 9.28516V9.45584Z" fill="#EBE4E4"/>
<path d="M12.1094 12.3916L12.6726 12.7159V13.8595L12.4849 13.9619L11.9216 12.494L12.1094 12.3916Z" fill="#242222"/>
<path d="M11.9216 13.6375L12.4849 13.9618V12.8182L11.9216 12.4939V13.6375Z" fill="#2F2B2B"/>
<path d="M12.1094 12.1697L12.6726 12.494V12.3233L12.1094 11.999V12.1697Z" fill="#EBE4E4"/>
<path d="M36.9442 48.8836L35.2373 47.9107V44.0874L36.9271 45.0774L36.9442 48.8836Z" fill="#242222"/>
<path d="M17.2984 60.2343L15.5916 59.2444L35.2374 47.9109L36.9442 48.8838L17.2984 60.2343Z" fill="#4D4646"/>
<path d="M15.9842 62.5046L14.2773 61.5146L14.2603 56.0015L15.9671 56.9914L15.9842 62.5046Z" fill="#242222"/>
<path d="M36.9273 45.0775L35.2375 44.0875L30.1169 24.4758L31.8238 25.4658L36.9273 45.0775Z" fill="#1C1B1B"/>
<path d="M21.2413 30.0573L19.5344 29.0673L31.141 22.3594L32.8478 23.3493L21.2413 30.0573Z" fill="#4D4646"/>
<path d="M15.9671 56.9914L14.2603 56.0015L19.5344 29.0674L21.2413 30.0574L15.9671 56.9914Z" fill="#292626"/>
<path d="M32.8478 23.3494L38.2585 44.1217L38.2756 49.6348L16.0012 62.5045L15.967 56.9914L21.2412 30.0573L32.8478 23.3494ZM36.9442 48.8838L36.9271 45.0605L31.8237 25.4488L22.2653 30.9619L17.2813 56.394L17.2984 60.2173L36.9442 48.8838Z" fill="#2F2B2B"/>
<path d="M38.2584 48.1331L37.5928 48.5256L66.7799 65.3722L67.4456 64.9797L38.2584 48.1331Z" fill="#4D4646"/>
<path d="M37.5928 48.5256V50.0277L66.7799 66.8913V65.3722L37.5928 48.5256Z" fill="#242222"/>
<path d="M51.5204 75.8691L35.4419 66.5839V65.116L51.5204 74.4012V75.8691Z" fill="#242222"/>
<path d="M62.4953 69.5367L51.5203 75.8691V74.4012L62.4953 68.0518V69.5367Z" fill="#2FBAE5"/>
<path d="M51.5204 74.4011L35.4419 65.1158L46.4169 58.7664L62.4954 68.0516L51.5204 74.4011Z" fill="#4D4646"/>
<path opacity="0.8" d="M51.9642 71.7386L45.9219 59.2957L45.0173 59.5858L35.4419 65.116L46.9119 71.7386H51.9642Z" fill="#242222"/>
<path d="M47.8507 68.137L42.3206 64.9452L43.4983 58.0154L49.0285 61.2243L47.8507 68.137Z" fill="#242222"/>
<path d="M51.9642 71.7385L45.6318 68.0688L46.9803 60.3879L53.3127 64.0577L51.9642 71.7385Z" fill="#242222"/>
<path d="M56.9481 61.9583L58.3136 68.0688L51.9641 71.7385L53.3125 64.0577L56.9481 61.9583Z" fill="#2F2B2B"/>
<path d="M41.0747 54.8577C41.0918 55.4721 41.1259 57.3155 43.0376 58.4933C42.406 58.1177 42.0135 57.3326 42.0305 56.2061C41.3819 55.8306 41.0747 55.3356 41.0747 54.8577Z" fill="#139DC8"/>
<path d="M46.6048 58.8514L42.0305 56.1887C41.3818 55.8132 41.0575 55.3353 41.0746 54.8403C41.0746 54.9257 41.0746 55.0452 41.0746 55.1476C41.0917 55.267 41.0917 55.4207 41.1088 55.5572L41.16 55.8474C41.1941 55.9839 41.2453 56.1717 41.2794 56.3082L41.3818 56.5813C41.4501 56.7349 41.5525 56.9227 41.6208 57.0763L41.7744 57.3323C42.0134 57.6396 42.0134 57.6566 42.167 57.8273L42.3889 58.0321C42.679 58.2711 42.7303 58.3052 43.0204 58.493L47.5948 61.1557C46.9803 60.7802 46.5877 59.995 46.6048 58.8514Z" fill="#A8A5A5"/>
<path d="M47.9533 50.0444C47.9192 50.0273 47.868 49.9932 47.8338 49.9761C47.4242 49.7713 46.7073 49.447 45.7173 49.5323C44.5396 49.6177 43.7545 50.1638 43.4131 50.4028C42.5597 51.0002 41.1259 52.6046 41.0747 54.8577C41.0747 55.3356 41.3819 55.8306 42.0305 56.2061L46.6049 58.8688C46.622 58.0495 46.8268 57.179 47.2023 56.3426C47.5437 55.5746 48.0045 54.8577 48.5507 54.2261C49.0286 53.68 49.5577 53.2362 50.121 52.9119C51.0598 52.3828 51.9132 52.3486 52.5277 52.7071L47.9533 50.0444Z" fill="#E2E1DF"/>
<path d="M46.6048 58.8516C46.5707 61.0705 48.1068 62.0092 50.0185 60.9339C51.9302 59.8757 53.5005 57.1959 53.5346 54.9941C53.5688 52.7752 52.0326 51.8364 50.1209 52.9117C48.1922 53.97 46.6219 56.6327 46.6048 58.8516Z" fill="#2FBAE5"/>
<path d="M41.0918 55.2844C41.1259 55.5404 41.2112 56.0866 42.0476 56.5816C43.5667 57.4862 45.1029 58.3738 46.622 59.2613C46.639 59.3979 46.6561 59.5174 46.6732 59.6539C45.1541 58.7664 43.635 57.8788 42.0988 56.9912C42.0988 56.9571 42.0817 56.923 42.0817 56.8888C42.0817 56.923 42.0817 56.94 42.0988 56.9742C41.16 56.445 41.143 55.7452 41.0918 55.2844ZM42.3036 57.6569C42.3207 57.691 42.3207 57.7081 42.3378 57.7422C43.8569 58.6298 45.3759 59.5174 46.9121 60.4049C46.8609 60.3025 46.8268 60.2001 46.7756 60.0977C45.2565 59.2101 43.7374 58.3226 42.2012 57.435C41.7404 57.1619 41.4502 56.7864 41.2966 56.3768C41.5185 56.94 41.7062 57.3667 42.3207 57.7252C42.3207 57.7081 42.3207 57.674 42.3036 57.6569ZM47.3218 60.9341C47.2535 60.8658 47.1852 60.7975 47.1169 60.7122C45.5978 59.8246 44.0787 58.937 42.5426 58.0665C42.2866 57.9129 42.0817 57.7252 41.911 57.5204C42.2695 57.9812 42.4743 58.1007 42.7303 58.2714C42.7474 58.2714 41.9452 57.8105 47.3218 60.9341ZM42.4914 54.0042C42.5255 53.9189 42.5255 53.936 42.4914 54.0042C44.0105 54.8918 45.5296 55.7794 47.0657 56.6669C47.1169 56.5133 47.1852 56.3597 47.2535 56.2232C45.7344 55.3356 44.2153 54.448 42.6791 53.5605C41.911 53.0996 41.5185 52.7924 41.5867 52.6729C41.4161 53.0313 41.1771 53.202 42.4914 54.0042ZM42.1841 55.0284C42.2012 54.9942 42.2012 54.943 42.2183 54.9089C42.2012 54.943 42.1841 54.9942 42.1841 55.0284C43.7032 55.9159 45.2223 56.8035 46.7585 57.691C46.7926 57.5374 46.8268 57.3838 46.878 57.2302C45.3589 56.3426 43.8398 55.4551 42.3036 54.5675C41.5526 54.1237 41.2112 53.7141 41.2966 53.4239C41.1771 53.8677 40.9381 54.2603 42.1841 55.0284ZM43.2253 52.5705C42.4402 52.1096 42.0135 51.9048 41.9793 51.956C41.8598 52.1438 41.894 52.0755 41.7916 52.2633C41.8257 52.3145 42.1841 52.5364 42.9693 52.9972C43.0034 52.9289 43.0034 52.9289 42.9693 52.9972L47.5436 55.6599C47.629 55.5233 47.7143 55.3697 47.7997 55.2332C46.2635 54.3456 44.7444 53.4581 43.2253 52.5705C43.2083 52.5876 43.2083 52.5705 43.2253 52.5705ZM42.0305 56.0354C42.0476 55.9159 42.0476 55.933 42.0305 56.0354C43.5496 56.923 45.0687 57.8105 46.6049 58.6981C46.6049 58.5445 46.622 58.4079 46.639 58.2543C45.1199 57.3667 43.6008 56.4792 42.0647 55.5916C41.3649 55.182 41.0406 54.7041 41.1088 54.2773C41.0406 54.9089 41.0064 55.4039 42.0305 56.0354ZM45.4272 50.3345C44.3348 49.703 43.8056 50.1468 43.4301 50.4028C43.7886 50.1468 44.3689 50.1809 45.0516 50.5735C45.0858 50.5564 45.0858 50.5564 45.0516 50.5735C46.5707 51.461 48.0898 52.3486 49.626 53.2362C49.7455 53.1508 49.865 53.0655 50.0015 52.9972C48.4653 52.0926 46.9463 51.2221 45.4272 50.3345ZM47.0145 49.8225C46.383 49.447 45.8709 49.5323 45.393 49.5835C45.8027 49.5152 46.2464 49.6006 46.6902 49.8566C46.7244 49.8566 46.7414 49.8566 46.7756 49.8395C46.7414 49.8395 46.7244 49.8395 46.6902 49.8566C48.2093 50.7442 49.7284 51.6317 51.2646 52.5193C51.3841 52.5022 51.4865 52.4852 51.5889 52.4852C50.0527 51.5805 48.5336 50.693 47.0145 49.8225ZM43.8739 51.6829C43.1058 51.2392 42.6109 51.1197 42.4572 51.3074C42.389 51.3928 42.3036 51.5122 42.2353 51.5976C42.3378 51.461 42.7815 51.6317 43.5838 52.0755C43.635 52.0072 43.635 52.0072 43.5838 52.0755L48.1581 54.7382C48.2605 54.6016 48.3629 54.4822 48.4653 54.3627C46.9121 53.4581 45.393 52.5705 43.8739 51.6829C43.8569 51.6829 43.8569 51.6829 43.8739 51.6829ZM46.2464 49.9419C45.3418 49.4128 44.7444 49.703 44.3006 49.8907C44.7444 49.703 45.3077 49.7542 45.888 50.0785C45.9221 50.0614 45.9221 50.0614 45.888 50.0785C47.4071 50.9661 48.9262 51.8536 50.4624 52.7412C50.5818 52.69 50.7013 52.6388 50.8208 52.6046C49.3017 51.7171 47.7655 50.8295 46.2464 49.9419ZM44.6079 50.9319C43.396 50.2321 43.0717 50.6759 42.7474 50.9661C42.9864 50.7271 43.5155 50.8124 44.2665 51.2391C44.3177 51.1879 44.3177 51.1879 44.2665 51.2391C45.7856 52.1267 47.3047 53.0143 48.8409 53.9018C48.9433 53.7824 49.0627 53.6799 49.1822 53.5775C47.6461 52.707 46.127 51.8195 44.6079 50.9319ZM47.6802 49.9249C47.4242 49.7713 47.2023 49.7201 46.9121 49.6347C47.0828 49.6859 47.2535 49.7542 47.4071 49.8395C48.2776 50.3516 51.0086 51.9219 51.9815 52.5022C52.0839 52.5193 52.1692 52.5364 52.2716 52.5705C50.7184 51.6829 49.1993 50.8124 47.6802 49.9249Z" fill="#9D9B9A"/>
<path d="M52.7835 52.007C52.0325 51.5803 50.9914 51.6486 49.8648 52.3313C47.6459 53.6626 45.8879 56.7691 45.9391 59.2952C45.9561 60.5242 46.3999 61.3776 47.1168 61.7872L52.9713 65.2009L58.6551 55.4207L52.7835 52.007Z" fill="#DBDADA"/>
<path d="M54.2685 62.8795L46.0244 58.0833C45.9561 58.4929 45.9049 58.9025 45.922 59.278C45.9391 60.507 46.3829 61.3604 47.0997 61.77L52.9542 65.1837L54.2685 62.8795Z" fill="#A8A5A5"/>
<path d="M58.638 55.4037C57.887 54.977 56.8458 55.0453 55.7193 55.728C53.5004 57.0594 51.7424 60.1658 51.7936 62.692C51.8106 63.9209 52.2544 64.7743 52.9713 65.184C53.6882 65.5595 54.2173 65.6789 55.0537 65.6448C55.5316 65.6277 56.3338 65.4058 57.0165 64.9791C59.0818 63.7161 60.4985 61.1729 60.4814 58.8174C60.4302 58.1688 60.3449 56.4449 58.638 55.4037Z" fill="#EDE9E4"/>
<path d="M51.8789 61.4971C51.8106 61.9067 51.7594 62.3164 51.7765 62.7089C51.7936 63.9379 52.2374 64.7913 52.9542 65.2009C53.6711 65.5764 54.2002 65.6959 55.0366 65.6618C55.5145 65.6447 56.3167 65.4228 56.9995 64.9961C58.143 64.2963 59.0989 63.2039 59.7133 61.9579C58.0236 64.3816 53.654 62.8967 51.8789 61.4971Z" fill="#B9B6B6"/>
<path opacity="0.6" d="M55.7023 55.7279C56.0948 55.4889 56.4874 55.3353 56.8459 55.2329C58.5186 56.3253 58.5698 57.3835 58.8087 59.483C58.1772 60.0974 57.4603 60.729 56.6069 60.7972C56.2314 59.9097 54.7976 58.237 54.0125 57.5201C53.9613 57.4689 53.893 57.4347 53.8418 57.3835C54.4051 56.7008 55.0366 56.1375 55.7023 55.7279Z" fill="#F4F1EB"/>
<path d="M57.3409 58.4761C56.0095 59.2783 54.9513 61.1558 54.9854 62.6579C55.0196 64.177 56.1119 64.7573 57.4433 63.9721C58.7746 63.1699 59.8329 61.2924 59.7987 59.7904C59.7646 58.2883 58.6722 57.6739 57.3409 58.4761Z" fill="#2FBAE5"/>
<path d="M55.5827 61.1902L59.15 59.1249C59.1671 59.1591 59.1842 59.1932 59.2183 59.2444L55.5144 61.378C55.5486 61.3268 55.5656 61.2585 55.5827 61.1902ZM57.9382 60.388L59.3378 59.5858C59.3207 59.5346 59.3207 59.5004 59.3036 59.4492L57.8016 60.3197C57.8528 60.3368 57.904 60.3539 57.9382 60.388ZM55.7193 60.8489L59.0135 58.9542C58.9793 58.9201 58.9452 58.886 58.9111 58.8689L55.8217 60.6611C55.7875 60.7123 55.7534 60.7806 55.7193 60.8489ZM58.0918 60.7123L59.389 59.9613C59.389 59.9101 59.389 59.8589 59.3719 59.8247L58.0576 60.5928C58.0747 60.627 58.0918 60.6611 58.0918 60.7123ZM56.0436 60.2685L58.6892 58.7494C58.638 58.7324 58.5868 58.7153 58.5185 58.6982L56.2142 60.0296C56.163 60.0978 56.1118 60.1832 56.0436 60.2685ZM56.9482 60.8147L55.4291 61.6852C55.412 61.7364 55.412 61.8047 55.395 61.8559L56.8116 61.0366C56.8628 60.9683 56.897 60.883 56.9482 60.8147ZM56.6922 61.378L55.3608 62.1461C55.3608 62.1973 55.3438 62.2485 55.3438 62.2997L56.658 61.5487C56.6751 61.4804 56.6751 61.4292 56.6922 61.378ZM56.641 59.5175L58.0918 58.6812C57.9211 58.6982 57.7333 58.7665 57.5285 58.8518L57.1871 59.0396C56.9994 59.1761 56.8116 59.3298 56.641 59.5175ZM58.0576 61.139L59.3719 60.3709C59.3719 60.3197 59.389 60.2685 59.389 60.2173L58.0747 60.9683C58.0747 61.0366 58.0747 61.0878 58.0576 61.139ZM56.8458 62.0948L55.412 62.9312C55.4291 62.9824 55.4291 63.0166 55.4462 63.0678L57.0165 62.1631C56.9653 62.1461 56.897 62.129 56.8458 62.0948ZM56.6751 61.7876L55.3608 62.5557C55.3608 62.6069 55.3608 62.6581 55.3779 62.6922L56.7092 61.9242C56.6922 61.89 56.6922 61.8388 56.6751 61.7876ZM59.2354 61.139L55.5315 63.2726C55.5486 63.3067 55.5656 63.3579 55.5998 63.3921L59.1671 61.3268C59.1842 61.2585 59.2012 61.1902 59.2354 61.139ZM59.0305 61.6511L55.7363 63.5627C55.7705 63.5969 55.8046 63.631 55.8387 63.6481L58.9281 61.8559C58.9623 61.8047 58.9964 61.7364 59.0305 61.6511ZM58.1088 62.9995L56.658 63.8358C56.8287 63.8188 57.0165 63.7505 57.2213 63.6652L57.5627 63.4774C57.7504 63.3409 57.9382 63.1872 58.1088 62.9995ZM57.7504 61.7364L59.3207 60.8318C59.3378 60.7806 59.3378 60.7123 59.3548 60.6611L57.9382 61.4804C57.8699 61.5657 57.8187 61.6511 57.7504 61.7364ZM58.7062 62.2485L56.0606 63.7676C56.1118 63.7846 56.163 63.8017 56.2313 63.8188L58.5356 62.4874C58.5868 62.4192 58.655 62.3338 58.7062 62.2485Z" fill="#2FBAE5"/>
<path opacity="0.3" d="M55.7021 55.7283C55.0194 56.1379 54.3879 56.7012 53.8417 57.3839C52.5445 56.3769 48.2261 54.3116 47.8848 54.1068C48.4651 53.3728 49.1308 52.7584 49.8476 52.3317C50.2573 52.0927 50.6499 51.922 51.0254 51.8367C51.0254 51.8367 55.8387 54.6359 56.5726 55.0797C56.675 55.148 56.7604 55.1992 56.8457 55.2504C56.4873 55.3357 56.1118 55.4893 55.7021 55.7283Z" fill="#F4F1EB"/>
<path d="M16.6496 60.5928L15.9839 60.9853L45.171 77.849L45.8367 77.4564L16.6496 60.5928Z" fill="#4D4646"/>
<path d="M15.9839 60.9851V62.5042L45.171 79.3679V77.8488L15.9839 60.9851Z" fill="#242222"/>
<path d="M67.2239 66.379L65.5342 65.389L65.5171 61.5828L67.2239 62.5557V66.379Z" fill="#242222"/>
<path d="M47.578 77.7126L45.8882 76.7397L65.534 65.3892L67.2238 66.3791L47.578 77.7126Z" fill="#4D4646"/>
<path d="M46.2637 79.9999L44.574 79.0099L44.5569 73.4797L46.2467 74.4697L46.2637 79.9999Z" fill="#242222"/>
<path d="M67.2239 62.556L65.5171 61.5831L60.4136 41.9543L62.1034 42.9443L67.2239 62.556Z" fill="#1C1B1B"/>
<path d="M51.5208 47.5356L49.8311 46.5456L61.4376 39.8547L63.1274 40.8447L51.5208 47.5356Z" fill="#4D4646"/>
<path d="M46.2467 74.4695L44.5569 73.4795L49.831 46.5454L51.5208 47.5354L46.2467 74.4695Z" fill="#292626"/>
<path d="M63.1273 40.8447L68.538 61.6171L68.5551 67.1302L46.2807 79.9998L46.2637 74.4867L51.5378 47.5526L55.9927 44.5145L63.1273 40.8447ZM67.2238 66.3792L67.2067 62.5558L62.1032 42.9442L52.5449 48.4573L47.5609 73.8893L47.5779 77.7127L67.2238 66.3792Z" fill="#2F2B2B"/>
<path d="M51.5205 44.463L19.5342 25.9949V29.0672L51.5205 47.5353V44.463Z" fill="#242222"/>
<path d="M63.1273 40.8275L51.5208 47.5354V44.4631L63.1273 37.7722V40.8275Z" fill="#2F2B2B"/>
<path d="M51.5205 44.4632L19.5342 25.995L31.1408 19.3042L63.1271 37.7723L51.5205 44.4632Z" fill="#3B3737"/>
<path d="M19.5342 11.6238L21.48 12.7332V27.122L19.5342 25.9954V11.6238Z" fill="#242222"/>
<path d="M33.0695 20.431L21.48 27.1218V12.7331L33.0695 6.04224V20.431Z" fill="#2F2B2B"/>
<path d="M21.48 12.7331L19.5342 11.6237L31.1407 4.91577L33.0695 6.04229L21.48 12.7331Z" fill="#4D4646"/>
<path d="M57.324 35.1099C57.324 36.1852 58.0921 36.629 59.0138 36.0828C59.9525 35.5366 60.7035 34.2223 60.7035 33.147C60.7035 32.0717 59.9355 31.6279 59.0138 32.1741C58.075 32.7203 57.324 34.0346 57.324 35.1099Z" fill="#C7C6C5"/>
<path d="M60.2258 32.0545L31.2605 15.3274C30.9533 15.1396 30.5266 15.1737 30.0487 15.4468C29.1099 15.993 28.3589 17.3073 28.3589 18.3826C28.3589 18.9117 28.5466 19.2873 28.8368 19.475L57.802 36.2021C57.4948 36.0144 57.3241 35.6389 57.3241 35.1097C57.3241 34.0344 58.0922 32.7031 59.0139 32.174C59.4918 31.9009 59.9185 31.8667 60.2258 32.0545Z" fill="#E2E2E8"/>
<path d="M51.9304 38.2158C51.9304 39.2912 52.6985 39.7349 53.6202 39.1887C54.559 38.6426 55.31 37.3283 55.31 36.253C55.31 35.1776 54.5419 34.7339 53.6202 35.2801C52.6985 35.8263 51.9304 37.1405 51.9304 38.2158Z" fill="#747474"/>
<path d="M54.849 35.1607L25.8838 18.4336C25.5766 18.2458 25.1499 18.2799 24.672 18.553C23.7332 19.0992 22.9822 20.4135 22.9822 21.4888C22.9822 22.0179 23.1699 22.3935 23.4601 22.5812L52.4253 39.3083C52.1181 39.1206 51.9474 38.7451 51.9474 38.2159C51.9474 37.1406 52.7155 35.8093 53.6372 35.2802C54.1151 35.0071 54.5418 34.99 54.849 35.1607Z" fill="#C7C6C5"/>
<path d="M55.0537 32.4638C55.0537 34 56.129 34.6315 57.4604 33.8634C58.7917 33.0953 59.867 31.2178 59.867 29.6816C59.867 28.1455 58.7917 27.5139 57.4604 28.282C56.129 29.0501 55.0537 30.9276 55.0537 32.4638Z" fill="#BCBCBC"/>
<path d="M59.1844 28.1287L28.8024 10.5823C28.3587 10.3262 27.7613 10.3604 27.0785 10.7359C25.7472 11.504 24.6719 13.3815 24.6719 14.9177C24.6719 15.6857 24.9279 16.2149 25.3546 16.4709L55.7365 34.0173C55.3098 33.7613 55.0538 33.2321 55.0538 32.4641C55.0538 30.9279 56.1291 29.0504 57.4604 28.2823C58.1432 27.8897 58.7576 27.8726 59.1844 28.1287Z" fill="#BCBCBC"/>
<path d="M49.5918 28.9651L51.5205 30.0916V44.4633L49.5918 43.3538V28.9651Z" fill="#242222"/>
<path d="M63.1273 37.7723L51.5208 44.4631V30.0915L63.1273 23.3835V37.7723Z" fill="#2F2B2B"/>
<path d="M51.5205 30.0915L49.5918 28.965L61.1813 22.2742L63.1271 23.3836L51.5205 30.0915Z" fill="#4D4646"/>
<path d="M60.2255 29.2896L59.0137 29.136L61.0448 35.878L62.2908 36.3218L60.2255 29.2896Z" fill="#242222"/>
<path d="M62.1371 39.7183L61.113 38.1821L59.9353 61.1051L60.9594 62.6583L62.1371 39.7183Z" fill="#242222"/>
<path d="M58.7065 35.383C59.4746 34.9392 60.1744 34.9051 60.6694 35.1952L61.8301 35.8609L57.9214 42.5688L56.7607 41.9032C56.2828 41.613 55.9756 40.9985 55.9756 40.1451C55.9756 38.3871 57.2045 36.2706 58.7065 35.383Z" fill="#242222"/>
<path d="M57.1362 40.8108C57.1362 42.5689 58.3652 43.2687 59.8843 42.3982C61.4033 41.5277 62.6323 39.3941 62.6323 37.6531C62.6323 35.8951 61.4033 35.1953 59.8843 36.0658C58.3652 36.9363 57.1362 39.0698 57.1362 40.8108Z" fill="#2F2B2B"/>
<path d="M57.9045 40.367C57.9045 41.6301 58.7921 42.1422 59.8845 41.5106C60.9769 40.8791 61.8644 39.36 61.8644 38.0969C61.8644 36.8339 60.9769 36.3218 59.8845 36.9533C58.7921 37.5849 57.9045 39.104 57.9045 40.367Z" fill="#C4C1C0"/>
<path d="M59.1846 39.616C59.1846 40.0598 59.4918 40.2304 59.8673 40.0086C60.2428 39.7867 60.55 39.2575 60.55 38.8308C60.55 38.3871 60.2428 38.2164 59.8673 38.4383C59.4918 38.6601 59.1846 39.1893 59.1846 39.616Z" fill="#D8D5D4"/>
<path d="M57.6823 58.05C58.4504 57.6062 59.1502 57.5721 59.6452 57.8622L60.8058 58.5279L56.8972 65.2358L55.7365 64.5702C55.2586 64.28 54.9513 63.6655 54.9513 62.8121C54.9343 61.054 56.1632 58.9205 57.6823 58.05Z" fill="#242222"/>
<path d="M56.095 63.4605C56.095 65.2185 57.3239 65.9183 58.843 65.0478C60.3621 64.1773 61.591 62.0438 61.591 60.3028C61.591 58.5447 60.3621 57.8449 58.843 58.7154C57.3239 59.5859 56.095 61.7195 56.095 63.4605Z" fill="#2F2B2B"/>
<path d="M56.8801 63.0169C56.8801 64.2629 57.7506 64.775 58.843 64.1434C59.9183 63.5119 60.8059 61.9928 60.8059 60.7468C60.8059 59.5008 59.9354 58.9887 58.843 59.6203C57.7677 60.2518 56.8801 61.7709 56.8801 63.0169Z" fill="#C4C1C0"/>
<path d="M58.1602 62.283C58.1602 62.7268 58.4674 62.8974 58.8429 62.6755C59.2184 62.4537 59.5256 61.9245 59.5256 61.4978C59.5256 61.054 59.2184 60.8834 58.8429 61.1053C58.4674 61.3101 58.1602 61.8392 58.1602 62.283Z" fill="#D8D5D4"/>
<path d="M54.371 36.1682C54.9343 35.8439 55.4463 35.8098 55.8048 36.0317L56.8801 36.6462L54.0126 41.5619L52.9373 40.9474C52.5788 40.7255 52.3569 40.2818 52.3569 39.6502C52.3569 38.3701 53.2616 36.7998 54.371 36.1682Z" fill="#242222"/>
<path d="M53.4321 40.2647C53.4321 41.5448 54.3368 42.0739 55.4462 41.4253C56.5557 40.7767 57.4603 39.2235 57.4603 37.9433C57.4603 36.6632 56.5557 36.1341 55.4462 36.7827C54.3368 37.4313 53.4321 38.9845 53.4321 40.2647Z" fill="#2F2B2B"/>
<path d="M54.7637 39.4966C54.7637 39.9404 55.0709 40.1111 55.4464 39.8892C55.8219 39.6673 56.1292 39.1382 56.1292 38.7114C56.1292 38.2677 55.8219 38.097 55.4464 38.3189C55.0709 38.5408 54.7637 39.0699 54.7637 39.4966Z" fill="#C4C1C0"/>
<path d="M57.1874 27.958C57.7507 27.6337 58.2627 27.5996 58.6212 27.8215L59.6965 28.436L56.829 33.3517L55.7537 32.7372C55.3952 32.5153 55.1733 32.0715 55.1733 31.44C55.1733 30.1599 56.0609 28.5896 57.1874 27.958Z" fill="#242222"/>
<path d="M56.2488 32.0547C56.2488 33.3348 57.1534 33.8639 58.2629 33.2153C59.3723 32.5667 60.2769 31.0135 60.2769 29.7334C60.2769 28.4532 59.3723 27.9241 58.2629 28.5727C57.1363 29.2213 56.2488 30.7746 56.2488 32.0547Z" fill="#2F2B2B"/>
<path d="M57.5627 31.2866C57.5627 31.7304 57.87 31.9011 58.2455 31.6792C58.621 31.4573 58.9282 30.9282 58.9282 30.5015C58.9282 30.0577 58.621 29.887 58.2455 30.1089C57.87 30.3308 57.5627 30.8599 57.5627 31.2866Z" fill="#C4C1C0"/>
<path d="M52.374 39.855L54.9684 63.1876L56.095 63.6655L53.4323 40.4012L52.374 39.855Z" fill="#242222"/>
<path d="M55.327 30.416L52.4937 38.7966L53.6372 39.2063L56.317 31.406L55.327 30.416Z" fill="#242222"/>
<path d="M60.3111 19.168C60.6221 19.168 60.8743 18.9158 60.8743 18.6048C60.8743 18.2937 60.6221 18.0415 60.3111 18.0415C60 18.0415 59.7478 18.2937 59.7478 18.6048C59.7478 18.9158 60 19.168 60.3111 19.168Z" fill="#3B3737"/>
<path d="M56.6241 21.1308L60.1573 19.0826C60.1914 19.0655 60.2256 19.0143 60.2256 18.946C60.2256 18.8095 60.1232 18.6388 60.0037 18.5705C59.9354 18.5364 59.8842 18.5364 59.8501 18.5534L56.3169 20.6017L56.6241 21.1308Z" fill="#C4C1C0"/>
<path d="M56.4704 20.6016C56.5899 20.6699 56.6923 20.8406 56.6923 20.9771C56.6923 21.1137 56.5899 21.182 56.4704 21.0966C56.3509 21.0284 56.2485 20.8577 56.2485 20.7211C56.2485 20.5846 56.3339 20.5334 56.4704 20.6016Z" fill="#EDE9E4"/>
<path d="M55.7537 20.124V26.098C55.7537 26.1833 55.8049 26.2687 55.9243 26.337C56.1633 26.4735 56.5388 26.4735 56.7607 26.337C56.8802 26.2687 56.9314 26.1833 56.9314 26.098V20.124H55.7537Z" fill="#A8A5A5"/>
<path d="M56.7607 20.3628C56.5217 20.4993 56.1462 20.4993 55.9243 20.3628C55.6854 20.2262 55.6854 20.0044 55.9243 19.8849C56.1633 19.7483 56.5388 19.7483 56.7607 19.8849C56.9997 20.0214 56.9997 20.2262 56.7607 20.3628Z" fill="#EDE9E4"/>
<path d="M52.357 23.5886L56.1121 21.421C56.1462 21.4039 56.1804 21.3527 56.1804 21.2844C56.1804 21.1479 56.078 20.9772 55.9585 20.9089C55.8902 20.8748 55.839 20.8748 55.8049 20.8918L52.0498 23.0595L52.357 23.5886Z" fill="#C4C1C0"/>
<path d="M52.2033 23.0597C52.3228 23.1279 52.4252 23.2986 52.4252 23.4352C52.4252 23.5717 52.3228 23.64 52.2033 23.5546C52.0839 23.4864 51.9814 23.3157 51.9814 23.1791C51.9814 23.0426 52.0839 22.9914 52.2033 23.0597Z" fill="#EDE9E4"/>
<path d="M52.7667 23.2815C52.7667 23.5888 52.5106 23.8448 52.2034 23.8448C51.8962 23.8448 51.6401 23.5888 51.6401 23.2815C51.6401 22.9743 51.8962 22.7183 52.2034 22.7183C52.5106 22.7183 52.7667 22.9743 52.7667 23.2815Z" fill="#3B3737"/>
<path d="M30.9017 1.31424C30.9017 1.62147 30.6456 1.8775 30.3384 1.8775C30.0312 1.8775 29.7751 1.62147 29.7751 1.31424C29.7751 1.007 30.0312 0.750977 30.3384 0.750977C30.6456 0.750977 30.9017 1.007 30.9017 1.31424Z" fill="#3B3737"/>
<path d="M26.6686 3.82317L30.2017 1.77495C30.2359 1.75789 30.27 1.70668 30.27 1.63841C30.27 1.50186 30.1676 1.33117 30.0481 1.2629C29.9798 1.22876 29.9286 1.22876 29.8945 1.24583L26.3613 3.29405L26.6686 3.82317Z" fill="#C4C1C0"/>
<path d="M26.498 3.31108C26.6175 3.37935 26.7199 3.55004 26.7199 3.68658C26.7199 3.82313 26.6175 3.89141 26.498 3.80606C26.3785 3.73779 26.2761 3.56711 26.2761 3.43056C26.2761 3.29401 26.3785 3.22574 26.498 3.31108Z" fill="#EDE9E4"/>
<path d="M25.7983 2.8335V8.80747C25.7983 8.89281 25.8495 8.97815 25.969 9.04643C26.208 9.18297 26.5835 9.18297 26.8054 9.04643C26.9249 8.97815 26.9761 8.89281 26.9761 8.80747V2.8335H25.7983Z" fill="#A8A5A5"/>
<path d="M26.8054 3.07227C26.5664 3.20882 26.1909 3.20882 25.969 3.07227C25.7301 2.93572 25.7301 2.71383 25.969 2.59435C26.208 2.45781 26.5835 2.45781 26.8054 2.59435C27.0443 2.71383 27.0443 2.93572 26.8054 3.07227Z" fill="#EDE9E4"/>
<path d="M22.4017 6.28128L26.1568 4.11358C26.1909 4.09651 26.2251 4.0453 26.2251 3.97703C26.2251 3.84048 26.1226 3.6698 26.0032 3.60152C25.9349 3.56739 25.8837 3.56739 25.8495 3.58445L22.0945 5.75215L22.4017 6.28128Z" fill="#C4C1C0"/>
<path d="M22.248 5.75228C22.3675 5.82055 22.4699 5.99124 22.4699 6.12778C22.4699 6.26433 22.3675 6.33261 22.248 6.24726C22.1285 6.17899 22.0261 6.00831 22.0261 5.87176C22.0261 5.73521 22.1285 5.684 22.248 5.75228Z" fill="#EDE9E4"/>
<path d="M22.8113 5.99099C22.8113 6.29823 22.5553 6.55425 22.2481 6.55425C21.9408 6.55425 21.6848 6.29823 21.6848 5.99099C21.6848 5.68376 21.9408 5.42773 22.2481 5.42773C22.5553 5.42773 22.8113 5.66669 22.8113 5.99099Z" fill="#3B3737"/>
</svg>
