<svg width="80" height="80" viewBox="0 0 80 80" fill="none" xmlns="http://www.w3.org/2000/svg">
<path d="M9.79688 63.0287C9.79688 63.0287 9.81685 63.608 9.79688 63.7679C9.79688 63.8677 9.83683 63.9676 9.95669 64.0276L15.5703 67.224C15.87 67.4037 16.4893 67.3039 16.9688 67.0242L49.3721 48.3253C49.6718 48.1455 49.8316 47.9457 49.8516 47.7659C49.8516 47.6661 49.8516 47.0268 49.8516 47.0268L44.0781 44.3298C43.7785 44.15 43.1592 44.2499 42.6797 44.5296L9.79688 63.0287Z" fill="#139DC8"/>
<path d="M10.2763 62.4895C9.79682 62.7691 9.65698 63.1287 9.95664 63.2886L15.5703 66.4849C15.87 66.6647 16.4893 66.5648 16.9687 66.2852L49.3721 47.5863C49.8515 47.3066 49.9914 46.947 49.6917 46.7872L44.0781 43.5908C43.7784 43.411 43.1591 43.5109 42.6796 43.7906L10.2763 62.4895Z" fill="#2FBAE5"/>
<path d="M18.447 18.7388L17.0686 20.8564L37.3657 30.066L17.0686 61.4705L18.2872 62.0298L40.1225 28.5677L18.447 18.7388Z" fill="#139DC8"/>
<path d="M18.2872 41.7128L40.1225 8.25065L38.7441 7.63135L17.0686 41.1734L18.2872 41.7128Z" fill="#139DC8"/>
<path d="M39.4433 48.565L21.0241 40.2145L41.3412 8.80997L39.9627 8.19067L18.2872 41.7128L36.7863 50.1033L39.4433 48.565Z" fill="#58D8FF"/>
<path d="M30.4534 44.4897C30.4534 44.4897 29.3747 46.4675 29.2148 46.6473L30.3536 47.1867L31.712 45.0691L30.4534 44.4897Z" fill="#139DC8"/>
<path d="M27.8964 26.8498L29.2748 27.4691L30.6532 25.3515L29.2748 24.7322L27.8964 26.8498Z" fill="#139DC8"/>
<path d="M19.6657 19.2981L18.2872 21.4157L38.6043 30.6253L18.2872 62.0298L21.2838 60.3717L41.3412 29.127L19.6657 19.2981Z" fill="#58D8FF"/>
<path d="M30.4934 45.3289C30.4934 45.7484 30.2138 46.2079 29.8941 46.3677C29.5545 46.5275 29.2948 46.3078 29.2948 45.8882C29.2948 45.4687 29.5745 45.0092 29.8941 44.8494C30.2138 44.6896 30.4934 44.9093 30.4934 45.3289Z" fill="#139DC8"/>
<path d="M20.4248 40.6941C20.4248 41.1136 20.1452 41.5731 19.8255 41.7329C19.4859 41.8927 19.2262 41.673 19.2262 41.2535C19.2262 40.8339 19.5059 40.3745 19.8255 40.2146C20.1651 40.0548 20.4248 40.2746 20.4248 40.6941Z" fill="#139DC8"/>
<path d="M40.3822 29.6265C40.3822 30.046 40.1026 30.5055 39.7829 30.6653C39.4433 30.8251 39.1836 30.6054 39.1836 30.1858C39.1836 29.7663 39.4633 29.3068 39.7829 29.147C40.1026 28.9872 40.3822 29.2069 40.3822 29.6265Z" fill="#139DC8"/>
<path d="M30.4934 25.0317C30.4934 25.4513 30.2138 25.9107 29.8941 26.0706C29.5745 26.2304 29.2948 26.0106 29.2948 25.5911C29.2948 25.1716 29.5745 24.7121 29.8941 24.5523C30.2337 24.3925 30.4934 24.6122 30.4934 25.0317Z" fill="#139DC8"/>
<path d="M28.1761 46.7473L30.2537 43.511H28.6755L26.5779 46.7473H28.1761Z" fill="#139DC8"/>
<path d="M32.4113 75.7147C32.4113 75.7147 32.4312 76.294 32.4113 76.4538C32.4113 76.5537 32.4512 76.6536 32.5711 76.7136L38.1847 79.9099C38.4844 80.0897 39.1037 79.9899 39.5831 79.7102L71.9865 61.0113C72.2862 60.8315 72.446 60.6317 72.466 60.4519C72.466 60.352 72.466 59.7128 72.466 59.7128L66.6925 56.9958C66.3928 56.816 65.7735 56.9159 65.2941 57.1956L32.4113 75.7147Z" fill="#139DC8"/>
<path d="M32.8907 75.1552C32.4112 75.4349 32.2714 75.7945 32.571 75.9543L38.1847 79.1507C38.4843 79.3305 39.1036 79.2306 39.5831 78.9509L71.9865 60.2521C72.4659 59.9724 72.6058 59.6128 72.3061 59.453L66.6924 56.2566C66.3928 56.0768 65.7735 56.1767 65.294 56.4564L32.8907 75.1552Z" fill="#2FBAE5"/>
<g opacity="0.5">
<path d="M66.6924 56.2566C66.3928 56.0768 65.7735 56.1767 65.294 56.4564L32.8907 75.1552C32.4112 75.4349 32.2714 75.7945 32.571 75.9543L36.7663 78.3516C36.966 78.3117 37.1658 78.2317 37.3456 78.1319L70.2884 59.1134C70.5681 58.9535 70.7479 58.7538 70.7678 58.574L66.6924 56.2566Z" fill="#139DC8"/>
</g>
<path d="M41.0615 31.4045L39.6831 33.5421L60.0001 42.7317L39.6831 74.1562L40.9017 74.7156L62.737 41.2334L41.0615 31.4045Z" fill="#139DC8"/>
<path d="M40.9017 54.3986L62.737 20.9364L61.3586 20.3171L39.6831 53.8392L40.9017 54.3986Z" fill="#139DC8"/>
<path d="M61.9978 61.2109L43.6585 52.9003L63.9555 21.4958L62.5971 20.8765L40.9016 54.3986L59.3408 62.7491L61.9978 61.2109Z" fill="#58D8FF"/>
<path d="M53.0678 57.1755C53.0678 57.1755 51.989 59.1533 51.8292 59.3331L52.9679 59.8725L54.3264 57.7549L53.0678 57.1755Z" fill="#139DC8"/>
<path d="M50.5107 39.5356L51.8892 40.1549L53.2676 38.0373L51.8892 37.418L50.5107 39.5356Z" fill="#139DC8"/>
<path d="M42.2801 31.9641L40.9016 34.0817L61.2186 43.2913L40.9016 74.7158L43.9182 73.0377L63.9555 41.793L42.2801 31.9641Z" fill="#58D8FF"/>
<path d="M53.1079 58.0147C53.1079 58.4342 52.8283 58.8937 52.5086 59.0535C52.169 59.2133 51.9093 58.9935 51.9093 58.574C51.9093 58.1545 52.189 57.695 52.5086 57.5352C52.8482 57.3754 53.1079 57.5951 53.1079 58.0147Z" fill="#139DC8"/>
<path d="M43.0592 53.3599C43.0592 53.7794 42.7796 54.2389 42.4599 54.3987C42.1403 54.5585 41.8606 54.3388 41.8606 53.9192C41.8606 53.4997 42.1403 53.0402 42.4599 52.8804C42.7796 52.7206 43.0592 52.9403 43.0592 53.3599Z" fill="#139DC8"/>
<path d="M62.9967 42.3123C62.9967 42.7318 62.7171 43.1913 62.3974 43.3511C62.0578 43.5109 61.7981 43.2912 61.7981 42.8716C61.7981 42.4521 62.0778 41.9926 62.3974 41.8328C62.737 41.673 62.9967 41.8927 62.9967 42.3123Z" fill="#139DC8"/>
<path d="M53.1079 37.6975C53.1079 38.117 52.8283 38.5765 52.5086 38.7363C52.189 38.8962 51.9093 38.6764 51.9093 38.2569C51.9093 37.8374 52.189 37.3779 52.5086 37.2181C52.8283 37.0582 53.1079 37.278 53.1079 37.6975Z" fill="#139DC8"/>
<path d="M50.7905 59.4331L52.8881 56.1968H51.2899L49.2123 59.4331H50.7905Z" fill="#139DC8"/>
<path d="M70.3484 15.5624L33.8896 38.956L7 23.3736V20.6966L43.4588 0L70.3484 15.5624Z" fill="#2FBAE5"/>
<path d="M70.3484 18.2592L33.8896 38.9558V36.2788L70.3484 15.5623V18.2592Z" fill="#4D4D4D"/>
<path d="M43.4588 0L7 20.6966L33.8696 36.1392L70.3484 15.5624L43.4588 0Z" fill="#58D8FF"/>
<path d="M44.8772 32.2835L42.4399 33.6619L43.3789 31.2846L45.8161 29.9062L44.8772 32.2835ZM50.7505 27.1293L48.3133 28.5077L47.3744 30.8851L49.8116 29.5066L50.7505 27.1293ZM55.665 24.3325L53.2277 25.7109L52.2888 28.0882L54.726 26.7098L55.665 24.3325ZM37.5255 36.4787L39.9627 35.1003L40.9017 32.723L38.4644 34.1014L37.5255 36.4787ZM60.5994 21.5356L58.1622 22.9141L57.2232 25.2914L59.6605 23.9129L60.5994 21.5356ZM35.9872 35.4998L34.2692 36.4787V38.3167L35.0483 37.8772L35.9872 35.4998ZM69.9688 17.0807V16.2017L67.9711 17.3404L67.0321 19.7177L69.4694 18.3392L69.9688 17.0807ZM65.5138 18.7388L63.0766 20.1172L62.1377 22.4945L64.5749 21.1161L65.5138 18.7388Z" fill="#E0A828"/>
</svg>
