<svg width="186" height="40" viewBox="0 0 186 40" fill="none" xmlns="http://www.w3.org/2000/svg">
<path d="M83.7857 40L11.6317 40C5.20772 40 0 34.7923 0 28.3683V11.6317C0 5.20771 5.20771 0 11.6317 0L92 0L83.7857 40Z" fill="#2FBAE5"/>
<path d="M38.222 31H30.896L33.932 16.744L26.111 31H21.623L20.138 16.249L16.97 31H14L18.455 10.045H26.87L27.893 21.859L34.229 10.045H42.71L38.222 31ZM44.2198 18.031C45.3418 17.481 46.4858 17.085 47.6518 16.843C48.8398 16.579 50.1598 16.447 51.6118 16.447C53.0198 16.447 54.1858 16.557 55.1098 16.777C56.0338 16.997 56.7708 17.316 57.3208 17.734C57.8708 18.152 58.2558 18.647 58.4758 19.219C58.6958 19.791 58.8057 20.44 58.8057 21.166C58.8057 21.584 58.7728 22.035 58.7068 22.519C58.6628 23.003 58.6078 23.41 58.5418 23.74L56.9908 31H51.6778L51.0838 28.888H50.8858C50.1818 29.658 49.3568 30.252 48.4108 30.67C47.4868 31.066 46.5628 31.264 45.6388 31.264C45.1108 31.264 44.5938 31.187 44.0878 31.033C43.5818 30.879 43.1308 30.648 42.7348 30.34C42.3388 30.01 42.0198 29.603 41.7777 29.119C41.5357 28.613 41.4147 28.008 41.4147 27.304C41.4147 26.16 41.7228 25.258 42.3388 24.598C42.9768 23.916 43.8018 23.41 44.8138 23.08C45.8478 22.728 47.0028 22.508 48.2788 22.42C49.5768 22.332 50.8748 22.288 52.1728 22.288C52.2168 22.068 52.2718 21.76 52.3378 21.364C52.4038 20.946 52.4368 20.583 52.4368 20.275C52.4368 19.879 52.3268 19.516 52.1068 19.186C51.9088 18.834 51.4798 18.658 50.8198 18.658C50.0498 18.658 49.4778 18.889 49.1038 19.351C48.7518 19.791 48.5208 20.33 48.4108 20.968H43.5928L44.2198 18.031ZM51.8098 23.839H51.2158C50.5778 23.839 50.0278 23.927 49.5658 24.103C49.1258 24.257 48.7628 24.466 48.4768 24.73C48.2128 24.994 48.0148 25.291 47.8828 25.621C47.7508 25.951 47.6848 26.281 47.6848 26.611C47.6848 27.139 47.8168 27.535 48.0808 27.799C48.3668 28.063 48.6968 28.195 49.0708 28.195C49.5328 28.195 49.9838 28.03 50.4238 27.7C50.8858 27.37 51.1718 26.93 51.2818 26.38L51.8098 23.839ZM70.0838 20.539L73.5488 16.81H77.3438L71.3708 22.948L75.6278 31H68.6318L66.3218 26.644L61.9658 31H58.1708L65.0678 24.268L61.1408 16.81H68.1038L70.0838 20.539Z" fill="white"/>
<path d="M102.369 31H95.67L98.673 16.81H105.438L102.369 31ZM106.296 12.487C106.296 12.993 106.186 13.433 105.966 13.807C105.768 14.181 105.493 14.5 105.141 14.764C104.811 15.028 104.426 15.226 103.986 15.358C103.546 15.49 103.095 15.556 102.633 15.556C101.753 15.556 101.016 15.347 100.422 14.929C99.828 14.511 99.531 13.851 99.531 12.949C99.531 12.465 99.63 12.036 99.828 11.662C100.026 11.266 100.29 10.947 100.62 10.705C100.972 10.441 101.368 10.243 101.808 10.111C102.27 9.979 102.743 9.913 103.227 9.913C104.085 9.913 104.811 10.122 105.405 10.54C105.999 10.958 106.296 11.607 106.296 12.487ZM114.512 18.922C114.974 18.482 115.491 18.075 116.063 17.701C116.569 17.393 117.174 17.107 117.878 16.843C118.582 16.579 119.374 16.447 120.254 16.447C121.31 16.447 122.091 16.689 122.597 17.173C123.125 17.657 123.422 18.251 123.488 18.955H123.686C124.192 18.493 124.742 18.075 125.336 17.701C125.842 17.393 126.436 17.107 127.118 16.843C127.8 16.579 128.526 16.447 129.296 16.447C130.44 16.447 131.364 16.766 132.068 17.404C132.794 18.02 133.157 18.823 133.157 19.813C133.157 20.319 133.069 20.99 132.893 21.826C132.717 22.662 132.519 23.575 132.299 24.565L130.913 31H124.412L126.194 22.387C126.26 22.057 126.326 21.738 126.392 21.43C126.458 21.122 126.491 20.869 126.491 20.671C126.491 20.363 126.403 20.11 126.227 19.912C126.051 19.692 125.798 19.582 125.468 19.582C125.05 19.582 124.654 19.736 124.28 20.044C123.928 20.33 123.653 20.572 123.455 20.77L121.31 31H115.139L116.954 22.387C116.998 22.101 117.053 21.815 117.119 21.529C117.185 21.221 117.218 20.946 117.218 20.704C117.218 20.374 117.13 20.11 116.954 19.912C116.8 19.692 116.558 19.582 116.228 19.582C115.832 19.582 115.447 19.725 115.073 20.011C114.721 20.297 114.446 20.539 114.248 20.737L112.07 31H105.338L108.341 16.81H113.72L114.314 18.922H114.512ZM146.401 16.81H153.133L150.097 31H144.751L144.157 28.888H143.959C143.387 29.57 142.606 30.142 141.616 30.604C140.648 31.044 139.669 31.264 138.679 31.264C137.359 31.264 136.325 30.934 135.577 30.274C134.829 29.592 134.455 28.712 134.455 27.634C134.455 27.084 134.543 26.402 134.719 25.588C134.917 24.752 135.093 23.971 135.247 23.245L136.633 16.81H143.332L141.682 24.532C141.638 24.708 141.594 24.917 141.55 25.159C141.506 25.401 141.462 25.643 141.418 25.885C141.374 26.105 141.33 26.325 141.286 26.545C141.264 26.743 141.253 26.908 141.253 27.04C141.253 27.37 141.319 27.656 141.451 27.898C141.605 28.118 141.869 28.228 142.243 28.228C142.639 28.228 143.013 28.096 143.365 27.832C143.717 27.568 143.992 27.315 144.19 27.073L146.401 16.81ZM162.24 18.922C162.702 18.482 163.219 18.075 163.791 17.701C164.297 17.393 164.902 17.107 165.606 16.843C166.31 16.579 167.102 16.447 167.982 16.447C169.038 16.447 169.819 16.689 170.325 17.173C170.853 17.657 171.15 18.251 171.216 18.955H171.414C171.92 18.493 172.47 18.075 173.064 17.701C173.57 17.393 174.164 17.107 174.846 16.843C175.528 16.579 176.254 16.447 177.024 16.447C178.168 16.447 179.092 16.766 179.796 17.404C180.522 18.02 180.885 18.823 180.885 19.813C180.885 20.319 180.797 20.99 180.621 21.826C180.445 22.662 180.247 23.575 180.027 24.565L178.641 31H172.14L173.922 22.387C173.988 22.057 174.054 21.738 174.12 21.43C174.186 21.122 174.219 20.869 174.219 20.671C174.219 20.363 174.131 20.11 173.955 19.912C173.779 19.692 173.526 19.582 173.196 19.582C172.778 19.582 172.382 19.736 172.008 20.044C171.656 20.33 171.381 20.572 171.183 20.77L169.038 31H162.867L164.682 22.387C164.726 22.101 164.781 21.815 164.847 21.529C164.913 21.221 164.946 20.946 164.946 20.704C164.946 20.374 164.858 20.11 164.682 19.912C164.528 19.692 164.286 19.582 163.956 19.582C163.56 19.582 163.175 19.725 162.801 20.011C162.449 20.297 162.174 20.539 161.976 20.737L159.798 31H153.066L156.069 16.81H161.448L162.042 18.922H162.24Z" fill="#4C4C4C"/>
</svg>
