<svg width="25" height="26" viewBox="0 0 25 26" fill="none" xmlns="http://www.w3.org/2000/svg">
<path d="M0 3.5C0 1.84315 1.34315 0.5 3 0.5H22C23.6569 0.5 25 1.84315 25 3.5V22.5C25 24.1569 23.6569 25.5 22 25.5H3C1.34315 25.5 0 24.1569 0 22.5V3.5Z" fill="#1BD741"/>
<path fill-rule="evenodd" clip-rule="evenodd" d="M19.6377 5.90649C17.7439 4.0332 15.2253 3.0011 12.5421 3C7.01314 3 2.51336 7.44568 2.51114 12.9098C2.5104 14.6565 2.97224 16.3616 3.85008 17.8645L2.427 23L7.74457 21.6218C9.20977 22.4115 10.8593 22.8276 12.538 22.8281H12.5422C18.0706 22.8281 22.5708 18.3821 22.5729 12.9177C22.574 10.2695 21.5316 7.77966 19.6377 5.90649ZM12.5421 21.1544H12.5386C11.0427 21.1538 9.57549 20.7566 8.29524 20.0062L7.99093 19.8276L4.83541 20.6455L5.67766 17.6058L5.47936 17.2942C4.64476 15.9827 4.20405 14.4668 4.2048 12.9104C4.20652 8.36877 7.9467 4.67383 12.5454 4.67383C14.7723 4.67456 16.8657 5.53247 18.4397 7.08948C20.0138 8.64648 20.8801 10.7161 20.8794 12.9171C20.8774 17.4591 17.1375 21.1544 12.5421 21.1544ZM17.1153 14.9851C16.8647 14.8611 15.6324 14.2622 15.4026 14.1794C15.173 14.0968 15.0057 14.0557 14.8388 14.3035C14.6716 14.5513 14.1914 15.1091 14.0451 15.2743C13.8988 15.4396 13.7528 15.4603 13.5021 15.3363C13.2514 15.2124 12.4439 14.9508 11.4865 14.1072C10.7415 13.4506 10.2385 12.6396 10.0922 12.3918C9.94614 12.1438 10.0909 12.0227 10.2021 11.8865C10.4735 11.5536 10.7452 11.2046 10.8287 11.0394C10.9123 10.8741 10.8704 10.7295 10.8077 10.6056C10.7452 10.4817 10.2439 9.26282 10.0351 8.76685C9.83149 8.28418 9.62503 8.34937 9.47109 8.3418C9.32505 8.33459 9.15788 8.33313 8.99072 8.33313C8.82367 8.33313 8.5521 8.39502 8.3223 8.64307C8.09261 8.89099 7.4452 9.48999 7.4452 10.7089C7.4452 11.9277 8.3433 13.1052 8.46858 13.2705C8.59386 13.4358 10.236 15.937 12.7502 17.0095C13.3482 17.2649 13.8149 17.4171 14.179 17.5312C14.7795 17.7197 15.3257 17.6931 15.7577 17.6294C16.2393 17.5582 17.2404 17.0303 17.4495 16.4519C17.6583 15.8734 17.6583 15.3777 17.5955 15.2743C17.533 15.171 17.3658 15.1091 17.1153 14.9851Z" fill="white"/>
</svg>
