<svg width="40" height="40" viewBox="0 0 40 40" fill="none" xmlns="http://www.w3.org/2000/svg">
<path d="M0 10C0 4.47715 4.47715 0 10 0H30C35.5228 0 40 4.47715 40 10V30C40 35.5228 35.5228 40 30 40H10C4.47715 40 0 35.5228 0 30V10Z" fill="#039BE5"/>
<path d="M10.3456 18.6054L27.2702 12.0799C28.0557 11.7961 28.7418 12.2715 28.4872 13.4593L28.4887 13.4578L25.607 27.034C25.3934 27.9965 24.8215 28.2306 24.0213 27.7771L19.6329 24.5429L17.5163 26.582C17.2822 26.8161 17.0847 27.0135 16.6313 27.0135L16.9429 22.5476L25.076 15.2C25.43 14.8884 24.997 14.7129 24.5304 15.023L14.4795 21.3511L10.1467 19.9994C9.20612 19.701 9.18564 19.0589 10.3456 18.6054Z" fill="white"/>
</svg>
