<svg width="48" height="48" viewBox="0 0 48 48" fill="none" xmlns="http://www.w3.org/2000/svg">
<path d="M0 3C0 1.34315 1.34315 0 3 0H45C46.6569 0 48 1.34315 48 3V45C48 46.6569 46.6569 48 45 48H3C1.34315 48 0 46.6569 0 45V3Z" fill="#039BE5"/>
<path d="M15.3456 22.6054L32.2702 16.0799C33.0557 15.7961 33.7418 16.2715 33.4872 17.4593L33.4887 17.4578L30.607 31.034C30.3934 31.9965 29.8215 32.2306 29.0213 31.7771L24.6329 28.5429L22.5163 30.582C22.2822 30.8161 22.0847 31.0135 21.6313 31.0135L21.9429 26.5476L30.076 19.2C30.43 18.8884 29.997 18.7129 29.5304 19.023L19.4795 25.3511L15.1467 23.9994C14.2061 23.701 14.1856 23.0589 15.3456 22.6054Z" fill="white"/>
</svg>
