<svg width="25" height="26" viewBox="0 0 25 26" fill="none" xmlns="http://www.w3.org/2000/svg">
<path d="M0 3.5C0 1.84315 1.34315 0.5 3 0.5H22C23.6569 0.5 25 1.84315 25 3.5V22.5C25 24.1569 23.6569 25.5 22 25.5H3C1.34315 25.5 0 24.1569 0 22.5V3.5Z" fill="#039BE5"/>
<path d="M3.84662 11.6054L20.7712 5.07987C21.5567 4.79608 22.2427 5.27149 21.9882 6.45928L21.9897 6.45782L19.108 20.034C18.8944 20.9965 18.3224 21.2306 17.5223 20.7771L13.1339 17.5429L11.0172 19.582C10.7832 19.8161 10.5857 20.0135 10.1323 20.0135L10.4438 15.5476L18.577 8.20001C18.931 7.88843 18.498 7.7129 18.0313 8.02301L7.98048 14.3511L3.64768 12.9994C2.7071 12.701 2.68662 12.0589 3.84662 11.6054Z" fill="white"/>
</svg>
