<svg width="48" height="48" viewBox="0 0 48 48" fill="none" xmlns="http://www.w3.org/2000/svg">
<path d="M0 3C0 1.34315 1.34315 0 3 0H45C46.6569 0 48 1.34315 48 3V45C48 46.6569 46.6569 48 45 48H3C1.34315 48 0 46.6569 0 45V3Z" fill="#1BD741"/>
<path fill-rule="evenodd" clip-rule="evenodd" d="M31.1384 16.9065C29.2446 15.0332 26.726 14.0011 24.0428 14C18.5139 14 14.0141 18.4457 14.0119 23.9098C14.0111 25.6565 14.473 27.3616 15.3508 28.8645L13.9277 34L19.2453 32.6218C20.7105 33.4115 22.3601 33.8276 24.0388 33.8281H24.043C29.5713 33.8281 34.0716 29.3821 34.0737 23.9177C34.0748 21.2695 33.0324 18.7797 31.1384 16.9065ZM24.0428 32.1544H24.0394C22.5434 32.1538 21.0762 31.7566 19.796 31.0062L19.4917 30.8276L16.3361 31.6455L17.1784 28.6058L16.9801 28.2942C16.1455 26.9827 15.7048 25.4668 15.7055 23.9104C15.7073 19.3688 19.4474 15.6738 24.0462 15.6738C26.2731 15.6746 28.3664 16.5325 29.9405 18.0895C31.5145 19.6465 32.3809 21.7161 32.3801 23.9171C32.3782 28.4591 28.6382 32.1544 24.0428 32.1544ZM28.616 25.9851C28.3654 25.8611 27.1331 25.2622 26.9033 25.1794C26.6738 25.0968 26.5065 25.0557 26.3395 25.3035C26.1724 25.5513 25.6921 26.1091 25.5458 26.2743C25.3996 26.4396 25.2535 26.4603 25.0028 26.3363C24.7521 26.2124 23.9446 25.9508 22.9872 25.1072C22.2422 24.4506 21.7392 23.6396 21.5929 23.3918C21.4469 23.1438 21.5917 23.0227 21.7029 22.8865C21.9742 22.5536 22.2459 22.2046 22.3294 22.0394C22.4131 21.8741 22.3712 21.7295 22.3084 21.6056C22.2459 21.4817 21.7446 20.2628 21.5358 19.7668C21.3322 19.2842 21.1258 19.3494 20.9718 19.3418C20.8258 19.3346 20.6586 19.3331 20.4914 19.3331C20.3244 19.3331 20.0528 19.395 19.823 19.6431C19.5933 19.891 18.9459 20.49 18.9459 21.7089C18.9459 22.9277 19.844 24.1052 19.9693 24.2705C20.0946 24.4358 21.7367 26.937 24.2509 28.0095C24.8489 28.2649 25.3157 28.4171 25.6798 28.5312C26.2802 28.7197 26.8265 28.6931 27.2584 28.6294C27.74 28.5582 28.7412 28.0303 28.9502 27.4519C29.159 26.8734 29.159 26.3777 29.0962 26.2743C29.0337 26.171 28.8666 26.1091 28.616 25.9851Z" fill="white"/>
</svg>
