<svg width="40" height="40" viewBox="0 0 40 40" fill="none" xmlns="http://www.w3.org/2000/svg">
<path d="M0 10C0 4.47715 4.47715 0 10 0H30C35.5228 0 40 4.47715 40 10V30C40 35.5228 35.5228 40 30 40H10C4.47715 40 0 35.5228 0 30V10Z" fill="#1BD741"/>
<path fill-rule="evenodd" clip-rule="evenodd" d="M27.1375 12.9065C25.2437 11.0332 22.725 10.0011 20.0419 10C14.5129 10 10.0131 14.4457 10.0109 19.9098C10.0102 21.6565 10.472 23.3616 11.3498 24.8645L9.92676 30L15.2443 28.6218C16.7095 29.4115 18.3591 29.8276 20.0378 29.8281H20.042C25.5703 29.8281 30.0706 25.3821 30.0727 19.9177C30.0738 17.2695 29.0314 14.7797 27.1375 12.9065ZM20.0419 28.1544H20.0384C18.5424 28.1538 17.0752 27.7566 15.795 27.0062L15.4907 26.8276L12.3352 27.6455L13.1774 24.6058L12.9791 24.2942C12.1445 22.9827 11.7038 21.4668 11.7046 19.9104C11.7063 15.3688 15.4465 11.6738 20.0452 11.6738C22.2721 11.6746 24.3654 12.5325 25.9395 14.0895C27.5136 15.6465 28.3799 17.7161 28.3792 19.9171C28.3772 24.4591 24.6373 28.1544 20.0419 28.1544ZM24.615 21.9851C24.3645 21.8611 23.1321 21.2622 22.9023 21.1794C22.6728 21.0968 22.5055 21.0557 22.3386 21.3035C22.1714 21.5513 21.6912 22.1091 21.5449 22.2743C21.3986 22.4396 21.2525 22.4603 21.0019 22.3363C20.7512 22.2124 19.9436 21.9508 18.9862 21.1072C18.2412 20.4506 17.7382 19.6396 17.5919 19.3918C17.4459 19.1438 17.5907 19.0227 17.7019 18.8865C17.9732 18.5536 18.2449 18.2046 18.3284 18.0394C18.4121 17.8741 18.3702 17.7295 18.3074 17.6056C18.2449 17.4817 17.7437 16.2628 17.5349 15.7668C17.3312 15.2842 17.1248 15.3494 16.9708 15.3418C16.8248 15.3346 16.6576 15.3331 16.4905 15.3331C16.3234 15.3331 16.0519 15.395 15.8221 15.6431C15.5924 15.891 14.945 16.49 14.945 17.7089C14.945 18.9277 15.8431 20.1052 15.9683 20.2705C16.0936 20.4358 17.7358 22.937 20.2499 24.0095C20.8479 24.2649 21.3147 24.4171 21.6788 24.5312C22.2793 24.7197 22.8255 24.6931 23.2574 24.6294C23.739 24.5582 24.7402 24.0303 24.9492 23.4519C25.158 22.8734 25.158 22.3777 25.0953 22.2743C25.0327 22.171 24.8656 22.1091 24.615 21.9851Z" fill="white"/>
</svg>
