<svg width="177" height="38" viewBox="0 0 177 38" fill="none" xmlns="http://www.w3.org/2000/svg">
<path d="M82.875 38L11.6317 38C5.2077 38 0 32.7923 0 26.3683V11.6317C0 5.20771 5.2077 0 11.6317 0L91 0L82.875 38Z" fill="#2FBAE5"/>
<path d="M37.222 30H29.896L32.932 15.744L25.111 30H20.623L19.138 15.249L15.97 30H13L17.455 9.045H25.87L26.893 20.859L33.229 9.045H41.71L37.222 30ZM43.2198 17.031C44.3418 16.481 45.4858 16.085 46.6518 15.843C47.8398 15.579 49.1598 15.447 50.6118 15.447C52.0198 15.447 53.1858 15.557 54.1098 15.777C55.0338 15.997 55.7708 16.316 56.3208 16.734C56.8708 17.152 57.2558 17.647 57.4758 18.219C57.6958 18.791 57.8057 19.44 57.8057 20.166C57.8057 20.584 57.7728 21.035 57.7068 21.519C57.6628 22.003 57.6078 22.41 57.5418 22.74L55.9908 30H50.6778L50.0838 27.888H49.8858C49.1818 28.658 48.3568 29.252 47.4108 29.67C46.4868 30.066 45.5628 30.264 44.6388 30.264C44.1108 30.264 43.5938 30.187 43.0878 30.033C42.5818 29.879 42.1308 29.648 41.7348 29.34C41.3388 29.01 41.0198 28.603 40.7777 28.119C40.5357 27.613 40.4147 27.008 40.4147 26.304C40.4147 25.16 40.7228 24.258 41.3388 23.598C41.9768 22.916 42.8018 22.41 43.8138 22.08C44.8478 21.728 46.0028 21.508 47.2788 21.42C48.5768 21.332 49.8748 21.288 51.1728 21.288C51.2168 21.068 51.2718 20.76 51.3378 20.364C51.4038 19.946 51.4368 19.583 51.4368 19.275C51.4368 18.879 51.3268 18.516 51.1068 18.186C50.9088 17.834 50.4798 17.658 49.8198 17.658C49.0498 17.658 48.4778 17.889 48.1038 18.351C47.7518 18.791 47.5208 19.33 47.4108 19.968H42.5928L43.2198 17.031ZM50.8098 22.839H50.2158C49.5778 22.839 49.0278 22.927 48.5658 23.103C48.1258 23.257 47.7628 23.466 47.4768 23.73C47.2128 23.994 47.0148 24.291 46.8828 24.621C46.7508 24.951 46.6848 25.281 46.6848 25.611C46.6848 26.139 46.8168 26.535 47.0808 26.799C47.3668 27.063 47.6968 27.195 48.0708 27.195C48.5328 27.195 48.9838 27.03 49.4238 26.7C49.8858 26.37 50.1718 25.93 50.2818 25.38L50.8098 22.839ZM69.0838 19.539L72.5488 15.81H76.3438L70.3708 21.948L74.6278 30H67.6318L65.3218 25.644L60.9658 30H57.1708L64.0678 23.268L60.1408 15.81H67.1038L69.0838 19.539Z" fill="white"/>
<path d="M97.369 30H90.67L93.673 15.81H100.438L97.369 30ZM101.296 11.487C101.296 11.993 101.186 12.433 100.966 12.807C100.768 13.181 100.493 13.5 100.141 13.764C99.811 14.028 99.426 14.226 98.986 14.358C98.546 14.49 98.095 14.556 97.633 14.556C96.753 14.556 96.016 14.347 95.422 13.929C94.828 13.511 94.531 12.851 94.531 11.949C94.531 11.465 94.63 11.036 94.828 10.662C95.026 10.266 95.29 9.947 95.62 9.705C95.972 9.441 96.368 9.243 96.808 9.111C97.27 8.979 97.743 8.913 98.227 8.913C99.085 8.913 99.811 9.122 100.405 9.54C100.999 9.958 101.296 10.607 101.296 11.487ZM109.512 17.922C109.974 17.482 110.491 17.075 111.063 16.701C111.569 16.393 112.174 16.107 112.878 15.843C113.582 15.579 114.374 15.447 115.254 15.447C116.31 15.447 117.091 15.689 117.597 16.173C118.125 16.657 118.422 17.251 118.488 17.955H118.686C119.192 17.493 119.742 17.075 120.336 16.701C120.842 16.393 121.436 16.107 122.118 15.843C122.8 15.579 123.526 15.447 124.296 15.447C125.44 15.447 126.364 15.766 127.068 16.404C127.794 17.02 128.157 17.823 128.157 18.813C128.157 19.319 128.069 19.99 127.893 20.826C127.717 21.662 127.519 22.575 127.299 23.565L125.913 30H119.412L121.194 21.387C121.26 21.057 121.326 20.738 121.392 20.43C121.458 20.122 121.491 19.869 121.491 19.671C121.491 19.363 121.403 19.11 121.227 18.912C121.051 18.692 120.798 18.582 120.468 18.582C120.05 18.582 119.654 18.736 119.28 19.044C118.928 19.33 118.653 19.572 118.455 19.77L116.31 30H110.139L111.954 21.387C111.998 21.101 112.053 20.815 112.119 20.529C112.185 20.221 112.218 19.946 112.218 19.704C112.218 19.374 112.13 19.11 111.954 18.912C111.8 18.692 111.558 18.582 111.228 18.582C110.832 18.582 110.447 18.725 110.073 19.011C109.721 19.297 109.446 19.539 109.248 19.737L107.07 30H100.338L103.341 15.81H108.72L109.314 17.922H109.512ZM141.401 15.81H148.133L145.097 30H139.751L139.157 27.888H138.959C138.387 28.57 137.606 29.142 136.616 29.604C135.648 30.044 134.669 30.264 133.679 30.264C132.359 30.264 131.325 29.934 130.577 29.274C129.829 28.592 129.455 27.712 129.455 26.634C129.455 26.084 129.543 25.402 129.719 24.588C129.917 23.752 130.093 22.971 130.247 22.245L131.633 15.81H138.332L136.682 23.532C136.638 23.708 136.594 23.917 136.55 24.159C136.506 24.401 136.462 24.643 136.418 24.885C136.374 25.105 136.33 25.325 136.286 25.545C136.264 25.743 136.253 25.908 136.253 26.04C136.253 26.37 136.319 26.656 136.451 26.898C136.605 27.118 136.869 27.228 137.243 27.228C137.639 27.228 138.013 27.096 138.365 26.832C138.717 26.568 138.992 26.315 139.19 26.073L141.401 15.81ZM157.24 17.922C157.702 17.482 158.219 17.075 158.791 16.701C159.297 16.393 159.902 16.107 160.606 15.843C161.31 15.579 162.102 15.447 162.982 15.447C164.038 15.447 164.819 15.689 165.325 16.173C165.853 16.657 166.15 17.251 166.216 17.955H166.414C166.92 17.493 167.47 17.075 168.064 16.701C168.57 16.393 169.164 16.107 169.846 15.843C170.528 15.579 171.254 15.447 172.024 15.447C173.168 15.447 174.092 15.766 174.796 16.404C175.522 17.02 175.885 17.823 175.885 18.813C175.885 19.319 175.797 19.99 175.621 20.826C175.445 21.662 175.247 22.575 175.027 23.565L173.641 30H167.14L168.922 21.387C168.988 21.057 169.054 20.738 169.12 20.43C169.186 20.122 169.219 19.869 169.219 19.671C169.219 19.363 169.131 19.11 168.955 18.912C168.779 18.692 168.526 18.582 168.196 18.582C167.778 18.582 167.382 18.736 167.008 19.044C166.656 19.33 166.381 19.572 166.183 19.77L164.038 30H157.867L159.682 21.387C159.726 21.101 159.781 20.815 159.847 20.529C159.913 20.221 159.946 19.946 159.946 19.704C159.946 19.374 159.858 19.11 159.682 18.912C159.528 18.692 159.286 18.582 158.956 18.582C158.56 18.582 158.175 18.725 157.801 19.011C157.449 19.297 157.174 19.539 156.976 19.737L154.798 30H148.066L151.069 15.81H156.448L157.042 17.922H157.24Z" fill="#4D4D4D"/>
</svg>
