<svg width="100" height="100" viewBox="0 0 100 100" fill="none" xmlns="http://www.w3.org/2000/svg">
<path d="M62.1192 52.5323C52.1067 46.7682 35.8937 46.7682 25.9042 52.5323L12.9062 45.0229V19.4404L78.3781 21.5302V47.1127L64.0253 53.7494C63.4282 53.3131 62.8081 52.9227 62.1192 52.5323Z" fill="#717070"/>
<path d="M62.1192 52.5323C52.1067 46.7682 35.8937 46.7682 25.9042 52.5323L12.9062 45.0229V19.4404H53.6683L64.0023 28.1669V53.7494C63.4282 53.3131 62.8081 52.9227 62.1192 52.5323Z" fill="#878787"/>
<path d="M62.1192 26.9499C52.1067 21.1858 35.8937 21.1858 25.9042 26.9499L12.9062 19.4405C30.0837 9.51983 57.9397 9.51983 75.1171 19.4405C76.2883 20.1065 77.3447 20.8184 78.3551 21.5303L64.0023 28.167C63.4282 27.7307 62.8081 27.3403 62.1192 26.9499Z" fill="#B3B3B3"/>
<path d="M64.0247 53.7264L64.0477 36.4111L87.9997 46.1022V62.9811C87.9997 69.48 83.6823 75.979 75.0936 80.9393L62.0957 73.407L62.1187 56.1147C62.1187 56.1147 70.1562 61.0061 67.8828 57.6074C66.9642 56.2295 65.6782 54.9205 64.0247 53.7264Z" fill="#DBDADA"/>
<path d="M64.0247 53.7264L64.0477 36.4111L69.697 37.0771L75.1166 63.6241L75.0707 80.9393L62.0957 73.407L62.1187 56.1147C62.1187 56.1147 70.1562 61.0061 67.8828 57.6074C66.9642 56.2295 65.6782 54.9205 64.0247 53.7264Z" fill="#B3B3B3"/>
<path d="M64.0022 36.4336L78.3551 29.7969C84.7851 34.4357 88.0001 40.062 88.0001 45.6883C88.0001 52.1873 83.7058 58.6862 75.1171 63.6466L62.1191 56.1372C71.4427 50.7405 72.0628 42.2436 64.0022 36.4336Z" fill="#EDEDEE"/>
<path d="M75.1169 70.7199V80.9621C67.1483 85.555 56.8831 88.0352 46.4343 88.3567L45.4238 77.747V67.5049L75.1169 70.7199Z" fill="#3D3D3C"/>
<path d="M62.119 63.2109L75.1169 70.7203C67.1483 75.3132 56.8831 77.7934 46.4343 78.1149L45.4238 67.5053C51.5094 67.2986 57.4802 65.8748 62.119 63.2109Z" fill="#717070"/>
<path d="M12.9061 18.5449L25.904 19.8539V52.5324C20.8977 55.4259 33.62 48.5136 40.6242 48.284L46.4342 55.6785V88.357C34.3779 88.7474 22.0919 86.2673 12.8831 80.9625C4.29436 76.0021 0 69.5032 0 63.0042V30.3257L12.9061 18.5449Z" fill="#139DC8"/>
<path d="M0.0234375 30.3254C0.0234375 23.8265 4.3178 17.3275 12.9065 12.3672L25.9044 19.8766C15.8919 25.6407 15.8919 35.0102 25.9044 40.7973C31.2552 43.8975 38.4201 45.3213 45.4243 45.0916L46.4347 55.7012C34.3783 56.0916 22.0923 53.6115 12.8836 48.3066C4.3178 43.3233 0.0234375 36.8244 0.0234375 30.3254Z" fill="#2FBAE5"/>
</svg>
