<svg width="100" height="100" viewBox="0 0 100 100" fill="none" xmlns="http://www.w3.org/2000/svg">
<path d="M44.8535 50.3086L45.3722 51.8399L47.0764 50.8767L45.7179 52.8032L46.2366 54.3345L44.8535 53.9887L43.495 55.9153L44.0137 53.7665L42.6553 53.4207L44.3348 52.4327L44.8535 50.3086Z" fill="#FFCB0A"/>
<path d="M40.7282 58.8789L40.6294 60.8548L42.2101 60.6325L40.58 62.0898L40.5059 64.0657L39.5673 62.9789L37.9619 64.4115L38.9993 62.2874L38.0854 61.2006L39.6661 60.9783L40.7282 58.8789Z" fill="#FFCB0A"/>
<path d="M43.9887 42.0101L45.1496 42.7511L46.6562 41.0469L45.8659 43.1957L47.002 43.9614L45.3472 44.5541L44.5321 46.7276L44.3345 44.9246L42.6797 45.4927L44.1863 43.7885L43.9887 42.0101Z" fill="#FFCB0A"/>
<path d="M40.6543 37.7373L40.5555 39.7379L42.1115 39.5403L40.5061 40.9729L40.3826 42.9735L39.4687 41.862L37.8633 43.2699L38.9253 41.1705L38.0115 40.0343L39.5922 39.8614L40.6543 37.7373Z" fill="#FFCB0A"/>
<path d="M62.8838 21.09C63.0567 21.3123 63.2049 21.5346 63.3531 21.7816C65.6007 25.2395 66.885 29.9323 66.9097 35.7118C66.9097 37.1444 66.8356 38.6263 66.6874 40.1082C66.5145 41.8866 66.2181 43.6896 65.823 45.5173C65.6995 46.1101 65.5513 46.7276 65.4031 47.345C65.2549 47.9625 65.082 48.5553 64.9091 49.1728C64.835 49.4692 64.7362 49.7902 64.6374 50.0866C64.3657 51.0005 64.0693 51.9144 63.7482 52.8035C63.5259 53.3963 63.3037 54.0138 63.0814 54.6065C62.3898 56.4096 61.5994 58.2126 60.735 59.9662C60.5868 60.2626 60.4386 60.559 60.2904 60.8554C59.8458 61.7199 59.3765 62.609 58.9072 63.4488C58.7591 63.7452 58.5862 64.0169 58.4133 64.3132C57.9193 65.1777 57.4006 66.0175 56.8819 66.8325C56.709 67.1042 56.5361 67.3759 56.3386 67.6476C51.3247 75.329 44.8782 81.9236 37.839 85.9743C34.8257 87.7032 31.9113 88.864 29.1697 89.4815C28.9474 89.5309 28.7251 89.5803 28.4781 89.6297C27.1197 89.8767 25.8106 90.0002 24.551 90.0002C24.3534 90.0002 24.1311 90.0002 23.9335 89.9755C23.5136 89.9508 23.1184 89.9261 22.7232 89.8767C21.513 89.7285 20.3768 89.4568 19.2901 89.0616C19.1172 88.9875 18.9196 88.9134 18.7467 88.8393C18.475 88.7405 18.228 88.6171 17.981 88.4936C17.8081 88.4195 17.6353 88.3206 17.4624 88.2219C16.7214 87.802 16.0051 87.3327 15.3382 86.7893C15.19 86.6658 15.0419 86.5423 14.8937 86.4188C14.0292 85.6532 13.2388 84.764 12.5226 83.776C12.2756 83.4549 12.0533 83.1092 11.8557 82.7387C11.2135 81.6766 10.6454 80.4911 10.1762 79.182C10.1021 78.9597 10.028 78.7375 9.95386 78.5399C9.0894 75.8971 8.62012 72.8097 8.62012 69.3518C8.62012 65.894 9.0647 62.2879 9.90447 58.6572C9.97856 58.3608 10.0527 58.0397 10.1268 57.7433C10.5713 55.9156 11.1394 54.1126 11.7816 52.2848C11.8804 51.9885 12.0039 51.6921 12.1027 51.371C12.893 49.2469 13.7822 47.1722 14.7949 45.0974C14.9431 44.8011 15.0913 44.5047 15.2394 44.2083C16.425 41.8619 17.734 39.5896 19.1666 37.3914C19.3395 37.1197 19.5371 36.848 19.71 36.5763C20.9943 34.6745 22.3528 32.8467 23.81 31.1178C24.0076 30.8708 24.2299 30.6238 24.4275 30.3768C25.6871 28.9196 26.9962 27.5118 28.3299 26.2027C28.5522 25.9804 28.7745 25.7581 29.0215 25.5605C31.7631 22.9918 34.6528 20.7936 37.6661 19.0647C40.6794 17.3358 43.5939 16.1749 46.3355 15.5575C46.6319 15.4834 46.9035 15.434 47.1999 15.3846C48.4102 15.1623 49.5957 15.0635 50.7319 15.0635C51.3 15.0635 51.868 15.0882 52.4114 15.1376C53.5476 15.2364 54.6343 15.4587 55.6717 15.8044C55.8446 15.8538 56.0422 15.9279 56.2151 16.002C56.9313 16.2737 57.6229 16.5948 58.2898 16.9653C58.4627 17.0641 58.6109 17.1629 58.7837 17.2617C59.2777 17.5581 59.7223 17.9039 60.1916 18.2496C60.3398 18.3731 60.488 18.4966 60.6362 18.6201C60.8585 18.8177 61.0808 19.04 61.3031 19.2623C61.4265 19.3858 61.5253 19.4846 61.6488 19.6081C62.0934 20.0774 62.4886 20.5713 62.8838 21.09Z" fill="#E41B23"/>
<path d="M31.1202 61.5963L29.4654 56.6565L33.7877 50.5064L28.4033 53.5938L26.7238 48.6787L25.0689 55.545L19.6846 58.6571L24.0316 59.7933L22.4015 66.6349L26.7485 60.4848L31.1202 61.5963Z" fill="#FFCB0A"/>
<path d="M43.9887 42.0101L44.1863 43.7885L42.6797 45.4927L44.3345 44.9246L44.5321 46.7276L45.3472 44.5541L47.002 43.9614L45.8659 43.1957L46.6562 41.0469L45.1496 42.7511L43.9887 42.0101Z" fill="#FFCB0A"/>
<path d="M38.0115 40.0343L38.9253 41.1705L37.8633 43.2699L39.4687 41.862L40.3826 42.9735L40.4814 40.9729L42.1115 39.5403L40.5555 39.7379L40.6543 37.7373L39.5922 39.8614L38.0115 40.0343Z" fill="#FFCB0A"/>
<path d="M40.58 62.0898L42.2101 60.6325L40.6294 60.8548L40.7282 58.8789L39.6661 60.9783L38.0854 61.2006L38.9993 62.2874L37.9619 64.4115L39.5673 62.9789L40.5059 64.0657L40.58 62.0898Z" fill="#FFCB0A"/>
<path d="M46.2366 54.3345L45.7179 52.8032L47.0764 50.8767L45.3722 51.8399L44.8535 50.3086L44.3348 52.4327L42.6553 53.4207L44.0137 53.7665L43.495 55.9153L44.8535 53.9887L46.2366 54.3345Z" fill="#FFCB0A"/>
<path d="M26.7238 48.6787L28.4033 53.5938L33.7877 50.5064L29.4654 56.6565L31.1202 61.5963L26.7485 60.4848L22.4015 66.6349L24.0316 59.7933L19.6846 58.6571L25.0689 55.545L26.7238 48.6787Z" fill="#FFCB0A"/>
<path d="M57.4498 16.5205C57.4992 16.5452 57.5733 16.5699 57.6227 16.6193C57.8203 16.7181 57.9932 16.8169 58.1661 16.9157C58.2155 16.9404 58.2649 16.9651 58.2896 16.9898C58.3143 17.0145 58.3637 17.0392 58.3884 17.0392L49.6944 11.9759C49.6697 11.9512 49.6203 11.9265 49.5956 11.9265C49.5709 11.9265 49.5462 11.9018 49.5462 11.9018C49.5215 11.8771 49.4968 11.8771 49.4721 11.8524C49.2992 11.7536 49.1016 11.6548 48.9287 11.556C48.8793 11.5313 48.8052 11.5066 48.7558 11.4572C48.5582 11.3584 48.3359 11.2597 48.1383 11.1856C48.1383 11.1856 48.1136 11.1856 48.1136 11.1609C47.9407 11.0868 47.7431 11.0127 47.5702 10.9386C47.3973 10.8645 47.1998 10.8151 47.0269 10.741C46.8787 10.6916 46.7305 10.6422 46.607 10.6175C46.5576 10.5928 46.4835 10.5928 46.4341 10.5681C46.3106 10.5434 46.1624 10.494 46.0389 10.4693C45.9154 10.4446 45.7672 10.3952 45.6437 10.3705C45.4955 10.3458 45.372 10.3211 45.2238 10.2964C45.1497 10.2717 45.0756 10.2717 45.0015 10.247C44.9275 10.2223 44.8287 10.2223 44.7546 10.1976C44.6805 10.1976 44.6064 10.1729 44.5323 10.1729C44.2853 10.1482 44.0383 10.0988 43.7666 10.0741C43.5937 10.0494 43.3961 10.0494 43.1985 10.0247C43.1491 10.0247 43.075 10.0247 43.0256 10.0247C42.9762 10.0247 42.9021 10.0247 42.8527 10.0247C42.6057 10.0247 42.3588 10 42.1118 10C41.8401 10 41.5684 10 41.3214 10.0247C41.2967 10.0247 41.2967 10.0247 41.272 10.0247C41.2473 10.0247 41.2226 10.0247 41.1979 10.0247C40.9509 10.0247 40.7039 10.0494 40.4816 10.0741C40.4322 10.0741 40.3828 10.0741 40.3581 10.0741C40.1111 10.0988 39.8395 10.1235 39.5925 10.1729C39.5431 10.1729 39.4937 10.1976 39.4196 10.1976C39.3455 10.1976 39.2714 10.2223 39.1726 10.2223C38.975 10.247 38.7774 10.2717 38.6045 10.3211C38.3328 10.3705 38.0364 10.4199 37.74 10.494C37.419 10.5681 37.0979 10.6422 36.7768 10.741C36.7521 10.741 36.7027 10.7657 36.678 10.7657C36.6533 10.7657 36.6286 10.7657 36.6286 10.7904C36.3322 10.8645 36.0358 10.9633 35.7147 11.0621C35.6406 11.0868 35.5418 11.1115 35.4677 11.1362C35.2207 11.2103 34.9738 11.2843 34.7268 11.3831C34.628 11.4325 34.5045 11.4572 34.381 11.5066C34.1587 11.5807 33.9364 11.6795 33.6894 11.7536C33.5906 11.803 33.4671 11.8277 33.3683 11.8771C33.3189 11.9018 33.2448 11.9265 33.1954 11.9512C33.0472 12.0253 32.899 12.0747 32.7262 12.1488C32.578 12.2229 32.4298 12.2723 32.2816 12.3464C32.0593 12.4452 31.8617 12.544 31.6394 12.6428C31.4912 12.7169 31.3677 12.7663 31.2195 12.8404C30.9725 12.9639 30.7502 13.0874 30.5032 13.2109C30.3797 13.285 30.2563 13.3344 30.1328 13.3838C29.7623 13.5814 29.4165 13.7789 29.046 14.0012C26.0327 15.7302 23.1182 17.9531 20.4014 20.4971C20.1791 20.7194 19.9568 20.917 19.7098 21.1392C19.5616 21.2874 19.4134 21.4356 19.2652 21.5838C19.1417 21.7073 19.0182 21.8308 18.9194 21.9296C18.8206 22.0284 18.7218 22.1272 18.623 22.2507C18.376 22.4977 18.1291 22.7694 17.8821 23.0164C17.8327 23.0658 17.7586 23.1399 17.7092 23.1893C17.4128 23.5103 17.1164 23.8314 16.82 24.1525C16.7459 24.2513 16.6718 24.3254 16.573 24.4242C16.4248 24.5971 16.2766 24.77 16.1037 24.9429C16.0049 25.0664 15.9061 25.1899 15.8073 25.2887C15.6098 25.5357 15.3875 25.7826 15.1899 26.0296C14.8688 26.4248 14.5477 26.7953 14.2513 27.1905C14.1772 27.2893 14.1031 27.3881 14.029 27.4869C13.9549 27.5857 13.8808 27.6845 13.8067 27.7833C13.6832 27.9562 13.5597 28.1044 13.4362 28.2772C13.2881 28.4748 13.1399 28.6724 12.967 28.8947C12.7941 29.1417 12.5965 29.3887 12.4236 29.6357C12.2754 29.8333 12.1272 30.0309 11.979 30.2532C11.9296 30.3026 11.9049 30.352 11.8555 30.4261C11.6085 30.7965 11.3615 31.1423 11.1145 31.5128C10.9416 31.7845 10.7441 32.0562 10.5712 32.3279C10.4477 32.5255 10.2995 32.7231 10.176 32.9454C10.0031 33.217 9.8302 33.4887 9.6573 33.7604C9.58321 33.8592 9.5338 33.958 9.45971 34.0568C9.18802 34.5014 8.91633 34.946 8.64464 35.3906C8.61994 35.44 8.57055 35.4893 8.54585 35.5634C8.47175 35.6869 8.39765 35.8104 8.34825 35.9339C8.12596 36.3291 7.87897 36.749 7.65668 37.1442C7.58259 37.2924 7.50849 37.4159 7.43439 37.5641C7.385 37.6629 7.3356 37.7617 7.2862 37.8358C7.06391 38.2556 6.84161 38.7002 6.61932 39.1201C6.47113 39.4165 6.32294 39.7129 6.17475 40.0093C6.12535 40.1081 6.07595 40.2069 6.02655 40.3304C5.82896 40.7255 5.65607 41.1207 5.45848 41.5159C5.45848 41.5406 5.43378 41.5653 5.43378 41.59C5.23618 42.0099 5.0386 42.4298 4.8657 42.8743C4.841 42.9237 4.8163 42.9731 4.7916 43.0225C4.7175 43.1707 4.66811 43.3436 4.59401 43.4918C4.44582 43.8129 4.32232 44.1587 4.17413 44.4798C4.10003 44.6527 4.02593 44.8256 3.95184 45.0232C3.90244 45.1714 3.82834 45.3195 3.77894 45.4677C3.68015 45.7394 3.55665 46.0111 3.45786 46.3075C3.33436 46.6039 3.23557 46.9003 3.13677 47.2214C3.01328 47.5425 2.91448 47.8882 2.79098 48.234C2.76628 48.2834 2.76629 48.3575 2.74159 48.4069C2.64279 48.6786 2.56869 48.975 2.4699 49.2467C2.4205 49.4443 2.3464 49.6172 2.297 49.8148C2.19821 50.1111 2.12412 50.4322 2.02532 50.7286C1.97592 50.8768 1.92652 51.025 1.90182 51.1732C1.90182 51.1979 1.90182 51.2226 1.87712 51.2473C1.75363 51.7166 1.60544 52.2106 1.50664 52.6798C1.43254 52.9762 1.35845 53.2973 1.28435 53.5937C1.21025 53.8901 1.13615 54.2112 1.08675 54.5076C1.06205 54.6064 1.06206 54.6805 1.03736 54.7793C1.01266 54.9028 0.987958 55.0262 0.963259 55.1744C0.913861 55.4708 0.839768 55.7919 0.79037 56.0883C0.765671 56.2118 0.740969 56.3106 0.740969 56.4341C0.666873 56.8293 0.592779 57.2491 0.543381 57.6443C0.543381 57.7184 0.51868 57.7678 0.51868 57.8419C0.469282 58.0889 0.444585 58.3606 0.419886 58.6076C0.419886 58.6817 0.395185 58.7311 0.395185 58.8052C0.370486 59.0769 0.32109 59.3486 0.296391 59.6203C0.271692 59.8178 0.246988 60.0154 0.222289 60.213C0.19759 60.4847 0.172894 60.7811 0.148195 61.0528C0.123496 61.2257 0.123493 61.4233 0.0987944 61.5962C0.0740954 61.8926 0.0741 62.2136 0.049401 62.51C0.049401 62.6582 0.0247005 62.8064 0.0247005 62.9546C1.50714e-06 63.3992 0 63.8685 0 64.3131C0 67.7709 0.469279 70.8583 1.33374 73.5011C1.40784 73.7234 1.48194 73.9457 1.55603 74.1432C2.02531 75.4276 2.5687 76.6132 3.23557 77.6999C3.45786 78.0457 3.68015 78.3915 3.90244 78.7373C4.61871 79.7252 5.40908 80.6144 6.27354 81.3801C6.42173 81.5036 6.56993 81.6271 6.71813 81.7505C6.86632 81.874 6.98981 81.9728 7.138 82.0716C7.58259 82.3927 8.02717 82.6891 8.49645 82.9608L17.1905 88.0241C16.573 87.6536 15.9802 87.2584 15.4122 86.7891C15.264 86.6656 15.1158 86.5421 14.9676 86.4186C14.1031 85.653 13.3128 84.7638 12.5965 83.7758C12.3495 83.4548 12.1272 83.109 11.9296 82.7385C11.2874 81.6764 10.7194 80.4909 10.2501 79.1818C10.176 78.9596 10.1019 78.7373 10.0278 78.5397C9.16332 75.8969 8.69404 72.8095 8.69404 69.3517C8.69404 68.9071 8.69404 68.4378 8.71874 67.9932C8.71874 67.845 8.74344 67.6968 8.74344 67.5486C8.76814 67.2522 8.76814 66.9312 8.79284 66.6348C8.79284 66.4619 8.81753 66.2643 8.84223 66.0914C8.86693 65.8197 8.89163 65.5233 8.91633 65.2516C8.94103 65.054 8.96573 64.8564 8.99043 64.6588C9.01513 64.3872 9.03982 64.1155 9.08922 63.8438C9.13862 63.5227 9.16332 63.2016 9.21272 62.8805C9.21272 62.8064 9.23742 62.757 9.23742 62.6829C9.28682 62.2877 9.36092 61.8679 9.43501 61.4727C9.45971 61.3492 9.48441 61.2504 9.48441 61.1269C9.53381 60.8305 9.60791 60.5094 9.6573 60.213C9.682 60.0895 9.7067 59.966 9.7314 59.8178C9.80549 59.4227 9.90429 59.0275 9.97839 58.6323C10.0525 58.3359 10.1266 58.0148 10.2007 57.7184C10.3242 57.2492 10.4477 56.7552 10.5712 56.2859C10.6206 56.113 10.67 55.9401 10.7194 55.7919C10.8182 55.4955 10.8923 55.1744 10.991 54.8781C11.0404 54.6805 11.1145 54.4829 11.1639 54.31C11.2627 54.0383 11.3368 53.7419 11.4356 53.4702C11.5591 53.075 11.7073 52.6798 11.8308 52.3094C11.9296 52.013 12.0531 51.7166 12.1519 51.3955C12.3001 50.9756 12.473 50.531 12.6459 50.1111C12.72 49.9382 12.7941 49.7654 12.8682 49.5678C12.9917 49.2467 13.1399 48.9009 13.288 48.5798C13.3621 48.4316 13.4115 48.2587 13.4856 48.1105C13.6832 47.6413 13.9055 47.1473 14.1278 46.678C14.1278 46.6533 14.1525 46.6286 14.1525 46.6039C14.3748 46.1099 14.6218 45.6159 14.8688 45.122C15.017 44.8256 15.1652 44.5292 15.3134 44.2328C15.5851 43.7141 15.8567 43.1954 16.1284 42.6521C16.2025 42.5039 16.2766 42.3804 16.3507 42.2322C16.573 41.8123 16.7953 41.4171 17.0423 41.0219C17.1164 40.8984 17.1658 40.7749 17.2399 40.6761C17.5363 40.1575 17.8327 39.6635 18.1291 39.1695C18.2031 39.0707 18.2526 38.9719 18.3266 38.8731C18.623 38.4038 18.9194 37.9098 19.2405 37.4406C19.4134 37.1689 19.611 36.8972 19.7839 36.6255C20.0556 36.2056 20.352 35.7857 20.6483 35.3659C20.7965 35.1683 20.9447 34.946 21.0929 34.7484C21.2658 34.5014 21.4634 34.2544 21.6363 34.0074C21.7845 33.8098 21.9327 33.6122 22.1056 33.3899C22.3032 33.1182 22.5008 32.8713 22.6984 32.5996C22.7725 32.5008 22.8466 32.402 22.9207 32.3032C23.2417 31.908 23.5381 31.5128 23.8592 31.1423C24.0568 30.8953 24.2791 30.6483 24.4767 30.4014C24.7237 30.105 24.9954 29.8086 25.2424 29.5369C25.3165 29.4381 25.3906 29.364 25.4894 29.2652C25.7857 28.9441 26.0821 28.623 26.3785 28.3019C26.4279 28.2525 26.502 28.1784 26.5514 28.129C26.7984 27.8821 27.0454 27.6104 27.2924 27.3634C27.3912 27.2646 27.49 27.1658 27.5888 27.0423C27.8605 26.7706 28.1321 26.4989 28.4038 26.2519C28.6261 26.0296 28.8484 25.8074 29.0954 25.6098C31.837 23.0411 34.7268 20.8429 37.74 19.1139C38.1105 18.8916 38.4563 18.694 38.8268 18.4964C38.9503 18.4224 39.0738 18.373 39.1973 18.2989C39.4443 18.1754 39.6666 18.0519 39.9136 17.9284C40.0617 17.8543 40.2099 17.8049 40.3334 17.7308C40.5557 17.632 40.7533 17.5332 40.9756 17.4344C41.1238 17.3603 41.272 17.3109 41.4202 17.2368C41.6178 17.138 41.8401 17.0639 42.0377 16.9651C42.1365 16.9157 42.26 16.8663 42.3588 16.8416C42.581 16.7428 42.8033 16.6687 43.0503 16.5946C43.1738 16.5452 43.2726 16.5205 43.3961 16.4711C43.6431 16.397 43.8901 16.2982 44.1371 16.2241C44.2112 16.1994 44.31 16.1747 44.3841 16.15C44.7052 16.0512 45.0262 15.9525 45.3473 15.8784C45.372 15.8784 45.4214 15.8537 45.4461 15.8537C45.7672 15.7796 46.0883 15.6808 46.4094 15.6067C46.7058 15.5326 46.9775 15.4832 47.2738 15.4338C47.5455 15.3844 47.8172 15.335 48.0889 15.3103C48.1383 15.3103 48.1877 15.2856 48.2618 15.2856C48.5335 15.2609 48.7805 15.2115 49.0275 15.1868C49.0769 15.1868 49.1263 15.1868 49.151 15.1868C49.398 15.1621 49.645 15.1374 49.8672 15.1374C49.8919 15.1374 49.9166 15.1374 49.9413 15.1374C50.213 15.1127 50.5094 15.1127 50.7811 15.1127C51.0281 15.1127 51.2751 15.1127 51.5221 15.1374C51.5715 15.1374 51.6456 15.1374 51.695 15.1374C51.942 15.1621 52.1889 15.1621 52.4359 15.1868C52.6829 15.2115 52.9299 15.2362 53.2016 15.2856C53.2757 15.2856 53.3498 15.3103 53.4239 15.3103C53.5721 15.335 53.745 15.3597 53.8932 15.3844C54.0414 15.4091 54.1649 15.4338 54.3131 15.4585C54.4366 15.4832 54.5848 15.5079 54.7082 15.5573C54.8317 15.582 54.9799 15.6314 55.1034 15.6561C55.301 15.7055 55.5233 15.7796 55.7209 15.829C55.8938 15.8784 56.0914 15.9525 56.2643 16.0265C56.4372 16.1006 56.6348 16.1747 56.8077 16.2488C56.8324 16.2488 56.8324 16.2735 56.8571 16.2735C57.0546 16.3229 57.2522 16.4217 57.4498 16.5205Z" fill="#B71318"/>
</svg>
