<svg width="100" height="100" viewBox="0 0 100 100" fill="none" xmlns="http://www.w3.org/2000/svg">
<path d="M64.7551 36.0959C64.21 36.0099 63.8084 35.4935 63.8945 34.9484C63.9805 34.4033 64.4969 34.0016 65.042 34.0877C66.1609 34.2598 67.3658 33.8008 68.083 32.9402C68.3986 32.5672 68.6568 32.1082 68.7716 31.6205C68.5994 31.6205 68.456 31.6205 68.2839 31.5918C67.3945 31.5057 66.5912 31.1328 66.0748 30.5877C65.3576 29.8131 65.1568 28.6655 65.6158 27.8048C66.1896 26.7147 67.6814 26.2556 68.8863 26.8294C69.6609 27.2024 70.2634 27.9196 70.6077 28.8663C70.8946 28.6081 71.1528 28.2639 71.2962 27.9196C71.7552 26.8294 71.411 25.4523 70.4929 24.7351C70.0626 24.3908 70.0052 23.731 70.3495 23.3007C70.6937 22.8703 71.3536 22.813 71.7839 23.1572C73.3618 24.4769 73.9356 26.8007 73.161 28.6942C72.7306 29.7557 71.8987 30.5877 70.9232 31.1041C70.8372 32.2516 70.3782 33.3992 69.6036 34.2885C68.4273 35.6369 66.5625 36.3541 64.7551 36.0959ZM67.8535 28.6368C67.6527 28.6081 67.4519 28.6655 67.3945 28.7803C67.3371 28.8663 67.3945 29.0958 67.538 29.268C67.7388 29.4688 68.0544 29.6122 68.4847 29.6409C68.5708 29.6409 68.6568 29.6409 68.7429 29.6409C68.5708 29.1819 68.3126 28.8376 68.0257 28.6942C67.9683 28.6368 67.9109 28.6368 67.8535 28.6368Z" fill="#139DC8"/>
<path d="M21.6643 87.9092C21.9225 86.7617 21.2913 85.5281 19.7708 84.6387C17.1314 83.0608 12.7707 83.0034 10.0452 84.5526L9.41406 79.7042C12.5125 77.9542 17.447 78.0115 20.4593 79.819C22.1807 80.8518 22.8979 82.2288 22.611 83.5485C22.2954 84.983 21.9798 86.4461 21.6643 87.9092Z" fill="#4D4D4D"/>
<path d="M7.09038 83.491C6.80349 82.1427 7.57809 80.7082 9.41419 79.7041L10.0453 84.5525C8.43876 85.4419 7.75023 86.7042 8.00843 87.8805C7.69285 86.4173 7.40596 84.9542 7.09038 83.491Z" fill="#4D4D4D"/>
<path d="M9.41419 79.7041C9.06992 79.9049 8.69696 80.1058 8.32401 80.4787C7.89367 80.8517 7.66416 81.1959 7.52071 81.3967C7.43465 81.5402 7.20514 81.9132 7.09038 82.4296C7.06169 82.573 7.033 82.8025 7.033 82.9746C7.033 83.1468 7.06169 83.3476 7.09038 83.5197C6.80349 82.114 7.57809 80.7082 9.41419 79.7041Z" fill="#139DC8"/>
<path d="M22.611 83.5192C22.6397 83.3758 22.6684 83.1463 22.6684 83.0029C22.6684 82.9168 22.6684 82.8307 22.6684 82.7447C22.6397 82.6012 22.611 82.3717 22.5823 82.2282C22.4962 81.9414 22.4388 81.7692 22.2667 81.4823C22.0372 81.1094 21.779 80.8225 21.7503 80.7938C21.6356 80.679 21.3774 80.3922 21.0331 80.1626C20.6028 79.8471 20.5454 79.8184 19.9429 79.5028C19.5986 79.302 19.0822 79.1298 18.7093 79.0151C18.5085 78.929 18.2216 78.8716 18.0208 78.8143C18.0208 78.8143 17.074 78.5561 15.7543 78.47C15.324 78.4413 14.4346 78.4126 13.4018 78.5274C12.6559 78.6134 11.9387 78.7569 11.2215 78.9577C11.0206 79.0151 10.7624 79.1012 10.5616 79.1872C10.2174 79.3307 9.75833 79.5602 9.41406 79.7323C12.5125 77.9823 17.447 78.0397 20.4593 79.8471C22.1807 80.8225 22.8979 82.1996 22.611 83.5192Z" fill="#139DC8"/>
<path d="M21.7127 87.4282C21.7189 85.2258 18.6413 83.4317 14.8386 83.4209C11.0359 83.4102 7.94821 85.1868 7.94197 87.3892C7.93573 89.5916 11.0133 91.3857 14.816 91.3965C18.6187 91.4073 21.7064 89.6306 21.7127 87.4282Z" fill="#4D4D4D"/>
<path d="M21.7211 70.8681C23.8154 72.1304 24.7048 73.7944 24.3605 75.4009L22.6105 83.5199C22.6392 83.3765 22.6679 83.147 22.6679 83.0035C22.6679 82.9175 22.6679 82.8314 22.6679 82.7453C22.6392 82.6019 22.6105 82.3724 22.5818 82.2289C22.4957 81.942 22.4383 81.7699 22.2662 81.483C22.0367 81.1101 21.7785 80.8232 21.7498 80.7945C21.6351 80.6797 21.3769 80.3928 21.0326 80.1633C20.6022 79.8477 20.5449 79.819 19.9424 79.5035C19.5981 79.3026 19.0817 79.1305 18.7088 79.0158C18.508 78.9297 18.2211 78.8723 18.0202 78.8149C18.0202 78.8149 17.0735 78.5567 15.7538 78.4707C15.3235 78.442 14.4341 78.4133 13.4013 78.528C12.6554 78.6141 11.9382 78.7576 11.221 78.9584C11.0201 79.0158 10.7619 79.1018 10.5611 79.1879C10.2168 79.3313 9.75782 79.5608 9.41355 79.733C9.06928 77.0362 8.58157 73.4501 8.2373 70.7533C11.9956 68.6017 18.0489 68.659 21.7211 70.8681Z" fill="#139DC8"/>
<path d="M5.39705 75.3435C5.05278 73.6796 5.99952 71.9582 8.20857 70.7246L9.38481 79.7043C9.04054 79.9051 8.66759 80.1059 8.29463 80.4789C7.8643 80.8518 7.63479 81.1961 7.49134 81.3969C7.40527 81.5403 7.17576 81.9133 7.06101 82.4297C7.03232 82.5731 7.00363 82.8027 7.00363 82.9748C7.00363 83.1469 7.03232 83.3477 7.06101 83.5199C6.57329 81.0526 5.91345 77.7821 5.39705 75.3435Z" fill="#139DC8"/>
<path d="M9.44182 79.7039C12.5115 77.9826 17.446 78.0113 20.4297 79.8187C23.4133 81.5974 23.356 84.4663 20.2862 86.1877C17.2165 87.909 12.282 87.8803 9.29837 86.0729C6.31472 84.2655 6.34341 81.4253 9.44182 79.7039Z" fill="#139DC8"/>
<path d="M9.44182 79.7039C12.5115 77.9826 17.446 78.0113 20.4297 79.8187C23.4133 81.5974 23.356 84.4663 20.2862 86.1877C17.2165 87.909 12.282 87.8803 9.29837 86.0729C6.31472 84.2655 6.34341 81.4253 9.44182 79.7039Z" fill="#4D4D4D"/>
<path d="M8.00789 87.8806C7.69231 86.4175 7.40542 84.9543 7.08984 83.4912C7.29067 84.4379 8.00789 85.356 9.24152 86.1019C12.2539 87.9093 17.1884 87.938 20.2868 86.2167C21.6065 85.4707 22.3811 84.524 22.5819 83.5486C22.2663 85.0117 21.9507 86.4749 21.6351 87.938C21.463 88.7987 20.7745 89.6306 19.5982 90.2905C16.8728 91.811 12.5121 91.7823 9.87267 90.2044C8.81118 89.5159 8.18002 88.7126 8.00789 87.8806Z" fill="#4D4D4D"/>
<path d="M9.41388 79.7042H9.44257C6.37285 81.4255 6.28678 84.2944 9.29912 86.0732C12.3115 87.8519 17.2173 87.9092 20.287 86.1879C23.3567 84.4666 23.4428 81.5977 20.4304 79.819C17.4468 78.0402 12.5123 77.9829 9.44257 79.7042H9.41388C12.5123 77.9542 17.4468 78.0115 20.4591 79.819C23.4715 81.6264 23.3854 84.4953 20.3157 86.2166C17.2173 87.9666 12.2828 87.9092 9.27043 86.1018C6.2294 84.2944 6.31547 81.4255 9.41388 79.7042Z" fill="#4D4D4D"/>
<path d="M9.44352 79.7042C6.3738 81.4255 6.28773 84.2944 9.30007 86.0732C12.3124 87.8519 17.2182 87.9092 20.2879 86.1879C23.3577 84.4666 23.4437 81.5977 20.4314 79.819C17.4477 78.0402 12.5132 77.9829 9.44352 79.7042H9.41483C12.5132 77.9542 17.4477 78.0115 20.4601 79.819C23.4724 81.6264 23.3864 84.4953 20.3166 86.2166C17.2182 87.9666 12.2837 87.9092 9.27139 86.1018C6.25904 84.2944 6.34511 81.4255 9.41483 79.7042H9.44352Z" fill="#139DC8"/>
<path d="M20.3151 86.2167C20.5446 86.1019 21.2905 85.6429 21.8356 85.0117C22.4094 84.3519 22.5241 83.8642 22.6102 83.5199C22.4094 84.524 21.6348 85.4707 20.3151 86.2167C17.2167 87.9667 12.2535 87.9093 9.26984 86.1019C8.03621 85.356 7.31899 84.4379 7.11816 83.4912C7.20423 83.8929 7.46243 84.8396 8.86819 85.8437C9.52804 86.3027 10.274 86.6183 10.4174 86.6757C11.2781 87.0199 11.7945 87.1347 12.483 87.2781C12.942 87.3642 13.5445 87.4216 14.0035 87.479C14.233 87.5077 14.5486 87.5077 14.7781 87.5077C15.2371 87.5364 15.8683 87.5077 16.356 87.4216C16.5855 87.3929 16.9011 87.3642 17.1019 87.3068C17.5323 87.2208 18.106 87.106 18.5364 86.9626C19.4257 86.6757 20.0569 86.3314 20.3151 86.2167Z" fill="#139DC8"/>
<path d="M24.3604 75.401C24.7047 73.7944 23.844 72.1018 21.721 70.8682C18.0489 68.6591 11.9955 68.6017 8.20854 70.7247L7.63477 66.3353C11.7373 64.0115 18.3357 64.0976 22.3235 66.4787C24.6186 67.8558 25.5654 69.6632 25.1924 71.4132C24.9055 72.7616 24.6473 74.0813 24.3604 75.401Z" fill="#139DC8"/>
<path d="M4.56549 71.3842C4.19253 69.5768 5.22534 67.712 7.63521 66.335L8.20899 70.7244C5.99994 71.958 5.0532 73.708 5.39747 75.3433C5.11058 74.0236 4.85238 72.7039 4.56549 71.3842Z" fill="#139DC8"/>
<path d="M9.24081 86.1027C9.03998 85.988 8.32276 85.5576 7.80636 84.9265C7.26127 84.2666 7.14651 83.8076 7.08913 83.492L5.39648 75.373C5.626 76.5206 6.51536 77.6682 8.03587 78.5575C11.7081 80.7666 17.7614 80.824 21.5484 78.701C23.1549 77.7829 24.1017 76.6354 24.3599 75.4304C23.8148 77.9264 23.3558 81.3117 22.5812 83.7502C22.4951 84.0084 22.3804 84.3814 22.0074 84.8691C21.6631 85.3281 21.2041 85.6724 20.9746 85.8445C20.2574 86.3322 19.4828 86.7052 18.536 87.0208C17.0442 87.4798 15.6384 87.5085 15.5811 87.5085C15.122 87.5085 14.4909 87.5372 14.0032 87.4798C13.5441 87.4511 12.913 87.3937 12.4827 87.279C12.0523 87.1929 11.4785 87.0781 11.0769 86.906C10.8761 86.8486 10.6179 86.7626 10.4457 86.6765C10.0154 86.5044 9.55638 86.2749 9.24081 86.1027Z" fill="#139DC8"/>
<path d="M25.2742 70.6885C25.2837 67.3612 20.6416 64.6507 14.9059 64.6344C9.1702 64.6181 4.51285 67.3023 4.50341 70.6296C4.49398 73.957 9.13603 76.6675 14.8717 76.6837C20.6074 76.7 25.2648 74.0159 25.2742 70.6885Z" fill="#139DC8"/>
<path d="M5.39839 75.3442C5.1115 74.0245 4.8533 72.7048 4.56641 71.3564C4.82461 72.6188 5.77134 73.8524 7.4353 74.8278C11.4231 77.209 18.0215 77.2951 22.1241 74.9713C23.8741 73.9671 24.9069 72.7048 25.1938 71.4138C24.9069 72.7335 24.62 74.0532 24.3331 75.3729C24.0749 76.5778 23.1282 77.7541 21.5216 78.6434C17.7346 80.7664 11.6813 80.709 8.00908 78.5C6.51726 77.6393 5.6279 76.5205 5.39839 75.3442Z" fill="#139DC8"/>
<path d="M64.9269 86.1016C65.1852 84.9541 64.554 83.7204 63.0335 82.8311C60.3941 81.2532 56.0334 81.1958 53.3079 82.745L52.6768 77.8966C55.7752 76.1466 60.7097 76.2039 63.722 78.0113C65.4433 79.0441 66.1606 80.4212 65.8737 81.7409C65.5581 83.1753 65.2425 84.6385 64.9269 86.1016Z" fill="#4D4D4D"/>
<path d="M50.3531 81.6834C50.0662 80.335 50.8408 78.9006 52.6769 77.8965L53.308 82.7449C51.7015 83.6343 51.0129 84.8966 51.2711 86.0728C50.9555 84.6097 50.64 83.1466 50.3531 81.6834Z" fill="#4D4D4D"/>
<path d="M64.9754 85.6118C64.9816 83.4094 61.904 81.6153 58.1013 81.6045C54.2986 81.5937 51.2109 83.3704 51.2047 85.5728C51.1984 87.7752 54.276 89.5693 58.0787 89.5801C61.8814 89.5908 64.9691 87.8142 64.9754 85.6118Z" fill="#4D4D4D"/>
<path d="M65.8903 81.1668C65.8973 78.6793 62.4222 76.6528 58.1284 76.6406C53.8345 76.6285 50.3479 78.6352 50.3409 81.1228C50.3338 83.6104 53.809 85.6368 58.1028 85.649C62.3967 85.6611 65.8833 83.6544 65.8903 81.1668Z" fill="#4D4D4D"/>
<path d="M51.2716 86.073C50.956 84.6099 50.6691 83.1467 50.3535 81.6836C50.5543 82.6303 51.2716 83.5484 52.5052 84.2943C55.5175 86.1017 60.452 86.1304 63.5504 84.409C64.8701 83.6631 65.6447 82.7164 65.8456 81.741C65.53 83.2041 65.2144 84.6672 64.8988 86.1304C64.7267 86.9911 64.0381 87.823 62.8619 88.4829C60.1364 90.0034 55.7757 89.9747 53.1363 88.3968C52.0749 87.7083 51.4437 86.905 51.2716 86.073Z" fill="#4D4D4D"/>
<path d="M52.6482 77.8966H52.6769C49.6072 79.6179 49.5211 82.4868 52.5335 84.2655C55.5171 86.0442 60.4516 86.1016 63.5213 84.3803C66.5911 82.6589 66.6771 79.7901 63.6648 78.0113C60.6811 76.2326 55.7466 76.1752 52.6769 77.8966H52.6482C55.7466 76.1466 60.6811 76.2039 63.6935 78.0113C66.7058 79.8187 66.6197 82.6876 63.55 84.409C60.4803 86.1303 55.5171 86.1016 52.5048 84.2942C49.4924 82.4868 49.5785 79.6179 52.6482 77.8966Z" fill="#4D4D4D"/>
<path d="M40.4836 96.5147C40.7418 95.3672 40.1106 94.1335 38.5901 93.2442C35.9507 91.6663 31.59 91.6089 28.8646 93.1581L28.2334 88.3097C31.3318 86.5596 36.2663 86.617 39.2786 88.4244C41 89.4572 41.7172 90.8343 41.4303 92.154C41.1147 93.5884 40.7992 95.0516 40.4836 96.5147Z" fill="#4D4D4D"/>
<path d="M25.9097 92.0682C25.6228 90.7198 26.3974 89.2854 28.2335 88.2812L28.8647 93.1297C27.2581 94.019 26.5696 95.2814 26.8278 96.4576C26.5122 94.9945 26.1966 93.5313 25.9097 92.0682Z" fill="#4D4D4D"/>
<path d="M40.5398 96.0132C40.5461 93.8108 37.4684 92.0167 33.6658 92.0059C29.8631 91.9951 26.7754 93.7718 26.7691 95.9741C26.7629 98.1765 29.8405 99.9707 33.6432 99.9814C37.4458 99.9922 40.5336 98.2156 40.5398 96.0132Z" fill="#4D4D4D"/>
<path d="M41.4264 91.5673C41.4335 89.0797 37.9584 87.0532 33.6645 87.0411C29.3707 87.0289 25.8841 89.0356 25.877 91.5232C25.87 94.0108 29.3451 96.0372 33.639 96.0494C37.9328 96.0616 41.4194 94.0549 41.4264 91.5673Z" fill="#4D4D4D"/>
<path d="M26.8282 96.4578C26.5126 94.9946 26.2257 93.5315 25.9102 92.0684C26.111 93.0151 26.8282 93.9331 28.0618 94.6791C31.0742 96.4865 36.0087 96.5151 39.1071 94.7938C40.4268 94.0479 41.2014 93.1012 41.4022 92.1257C41.0866 93.5889 40.771 95.052 40.4555 96.5151C40.2833 97.3758 39.5948 98.2078 38.4185 98.8676C35.6931 100.388 31.3324 100.359 28.693 98.7816C27.6315 98.1217 27.0003 97.2897 26.8282 96.4578Z" fill="#4D4D4D"/>
<path d="M28.2057 88.2813H28.2344C25.1646 90.0027 25.0786 92.8716 28.0909 94.6503C31.0746 96.429 36.0091 96.4864 39.0788 94.7651C42.1485 93.0437 42.2346 90.1748 39.2222 88.3961C36.2386 86.6174 31.3041 86.56 28.2344 88.2813H28.2057C31.3041 86.5313 36.2386 86.5887 39.2509 88.3961C42.2633 90.2035 42.1772 93.0724 39.1075 94.7937C36.0091 96.5438 31.0746 96.4864 28.0622 94.679C25.0499 92.9003 25.1073 90.0314 28.2057 88.2813Z" fill="#4D4D4D"/>
<path d="M42.6928 76.2609C43.6109 77.179 44.0699 78.2405 44.0699 79.2733C44.0699 79.3593 44.0699 79.4741 44.0699 79.5602C44.0699 79.6462 44.0412 79.761 44.0412 79.8471C44.0412 79.9331 44.0125 79.9905 43.9838 80.0766C43.9838 80.1053 43.9838 80.1339 43.9551 80.1626C43.6682 81.4536 43.41 82.716 43.1231 84.007C42.5781 86.5029 42.119 89.8882 41.3444 92.3268C41.3444 92.3554 41.3444 92.3554 41.3157 92.3841C41.3157 92.3841 41.3157 92.3841 41.3157 92.4128C41.3157 92.4415 41.287 92.4702 41.287 92.4989C41.2584 92.5563 41.2584 92.585 41.2297 92.6423C41.2297 92.6423 41.2297 92.6423 41.2297 92.671C41.201 92.7284 41.1723 92.7858 41.1436 92.8432C41.1436 92.8432 41.1436 92.8432 41.1436 92.8718C41.1436 92.8718 41.1436 92.9005 41.1149 92.9005V92.9292C41.1149 92.9292 41.1149 92.9579 41.0862 92.9579C41.0575 92.9866 41.0288 93.044 41.0002 93.0727L40.9715 93.1014C40.9715 93.1014 40.9715 93.13 40.9428 93.13C40.9141 93.1587 40.9141 93.1874 40.8854 93.1874C40.8567 93.2161 40.828 93.2448 40.828 93.2735C40.828 93.2735 40.828 93.2735 40.7993 93.3022C40.7706 93.3596 40.7133 93.4169 40.6846 93.4456C40.6559 93.4743 40.6559 93.503 40.6272 93.503C40.6272 93.503 40.6272 93.5317 40.5985 93.5317L40.5698 93.5604C40.5411 93.5891 40.5124 93.6178 40.4838 93.6465C40.4838 93.6465 40.4551 93.6751 40.4264 93.7038L40.3977 93.7325C40.3977 93.7325 40.3977 93.7612 40.369 93.7612C40.3403 93.7899 40.3116 93.8186 40.2542 93.876C40.2256 93.9046 40.1969 93.9333 40.1682 93.9333C40.1682 93.9333 40.1682 93.9333 40.1395 93.962C40.1395 93.962 40.1108 93.9907 40.0821 93.9907C40.0821 93.9907 40.0534 93.9907 40.0534 94.0194C40.0247 94.0481 39.996 94.0481 39.996 94.0768C39.9674 94.1055 39.9387 94.1055 39.9387 94.1342C39.9387 94.1342 39.91 94.1342 39.91 94.1628L39.8813 94.1915C39.8526 94.2202 39.8239 94.2202 39.7952 94.2489C39.7378 94.2776 39.7092 94.3063 39.6518 94.335L39.6231 94.3637C39.5944 94.3924 39.5657 94.421 39.537 94.421C39.5083 94.421 39.5083 94.4497 39.4796 94.4497C39.4796 94.4497 39.451 94.4497 39.451 94.4784C39.4223 94.5071 39.3936 94.5071 39.3649 94.5358C39.3075 94.5645 39.2788 94.5932 39.2214 94.6219C39.1928 94.6506 39.1641 94.6793 39.1067 94.6793C38.9632 94.7653 38.7911 94.8514 38.619 94.9375C38.5903 94.9375 38.5903 94.9375 38.5616 94.9661C38.5329 94.9661 38.4755 94.9948 38.4468 95.0235C38.4182 95.0522 38.3608 95.0522 38.3321 95.0809C38.2173 95.1383 38.1026 95.167 37.9878 95.2243C37.9591 95.2243 37.9591 95.2243 37.9304 95.253C37.8731 95.2817 37.8444 95.2817 37.787 95.3104C37.1558 95.5399 36.4673 95.7121 35.7788 95.8268C35.4632 95.8842 35.1476 95.9129 34.8033 95.9416C34.7747 95.9416 34.746 95.9416 34.7173 95.9416C34.6025 95.9416 34.5165 95.9703 34.4017 95.9703C34.3156 95.9703 34.2296 95.9703 34.1435 95.9703H34.1148C33.9714 95.9703 33.8566 95.9703 33.7418 95.9703C33.1394 95.9703 32.5656 95.9416 31.9918 95.8555C31.8771 95.8555 31.7336 95.8268 31.6189 95.7981C31.5615 95.7981 31.5041 95.7694 31.4467 95.7694C31.3894 95.7694 31.332 95.7407 31.2746 95.7407C31.2459 95.7407 31.2172 95.7407 31.2172 95.7407C30.9877 95.6834 30.7582 95.6547 30.5287 95.5686C30.4139 95.5399 30.3279 95.5112 30.2131 95.4825C29.4385 95.253 28.75 94.9661 28.1188 94.5932C28.0041 94.5071 27.8893 94.4497 27.7745 94.3637C27.7459 94.335 27.7172 94.335 27.6885 94.3063C27.6598 94.3063 27.6598 94.2776 27.6311 94.2489C27.6311 94.2489 27.6311 94.2489 27.6024 94.2489C27.545 94.1915 27.4877 94.1629 27.4303 94.1055C27.3729 94.0768 27.3442 94.0194 27.2868 93.9907C27.2295 93.9333 27.1721 93.9046 27.1147 93.8473C27.1147 93.8473 27.1147 93.8473 27.086 93.8473C27.086 93.8473 27.086 93.8473 27.0573 93.8186C27.0286 93.7899 26.9999 93.7612 26.9426 93.7325C26.9139 93.7038 26.8852 93.6751 26.8852 93.6751C26.8852 93.6751 26.8852 93.6751 26.8565 93.6465C26.8278 93.6465 26.8278 93.6178 26.8278 93.6178C26.7991 93.5891 26.7991 93.5891 26.7704 93.5604L26.7417 93.5317C26.7417 93.5317 26.7131 93.503 26.7131 93.4743L26.6844 93.4456C26.6557 93.4169 26.6557 93.4169 26.627 93.3883C26.5983 93.3596 26.5983 93.3596 26.5696 93.3309C26.5696 93.3022 26.5409 93.3022 26.5409 93.2735C26.5122 93.2448 26.5122 93.2161 26.4835 93.1874L26.4549 93.1587C26.4262 93.1014 26.3688 93.044 26.3401 92.9866C26.3401 92.9866 26.3401 92.9579 26.3114 92.9579C26.3114 92.9292 26.2827 92.9292 26.2827 92.9005C26.2827 92.8718 26.254 92.8718 26.254 92.8432C26.254 92.8432 26.254 92.8432 26.254 92.8145C26.254 92.8145 26.254 92.7858 26.2253 92.7858C26.2253 92.7571 26.1967 92.7571 26.1967 92.7284C26.1967 92.6997 26.168 92.671 26.168 92.6423C26.168 92.6136 26.1393 92.6136 26.1393 92.585C26.1393 92.585 26.1393 92.5563 26.1106 92.5563C26.0819 92.5276 26.0819 92.4989 26.0819 92.4415C26.0819 92.4128 26.0532 92.3841 26.0532 92.3841C26.0532 92.3554 26.0532 92.3554 26.0245 92.3268V92.2981V92.2694V92.2407C26.0245 92.2407 26.0245 92.212 26.0245 92.1833C26.0245 92.1546 25.9958 92.1259 25.9958 92.0972C25.9958 92.0972 25.9958 92.0972 25.9958 92.0686V92.0399C25.9958 92.0399 25.9958 92.0399 25.9958 92.0112L25.6803 90.5767L25.422 89.3718L25.336 89.0275L25.2212 88.4824L24.9917 87.4209L24.7622 86.3595L24.5327 85.3267L24.3606 84.466L24.2458 83.8635C23.9876 82.5725 23.7007 81.2815 23.4425 80.0192C23.4425 79.9905 23.4138 79.9331 23.4138 79.9044C23.4138 79.8758 23.4138 79.8471 23.3851 79.7897C23.3564 79.7036 23.3564 79.6175 23.3564 79.5315C23.3564 79.5028 23.3564 79.4454 23.3564 79.4167C23.3564 79.3307 23.3564 79.2446 23.3564 79.1872C23.3564 77.6093 24.4179 76.0601 26.5122 74.8839C30.6148 72.5888 37.2132 72.6461 41.201 75.0273C41.4592 75.1708 41.6887 75.3142 41.8895 75.4863C42.119 75.6585 42.2912 75.8019 42.492 75.974C42.5207 76.0888 42.6067 76.1749 42.6928 76.2609Z" fill="#139DC8"/>
<path d="M68.5412 68.8589C68.5412 68.9449 68.5412 69.031 68.5412 69.1171C68.5412 69.1457 68.5412 69.1457 68.5412 69.1744C68.5412 69.2605 68.5412 69.3466 68.5125 69.4326C68.5125 69.49 68.4838 69.5474 68.4838 69.6048C68.4838 69.6334 68.4838 69.6335 68.4838 69.6621C68.4838 69.6908 68.4838 69.7195 68.4551 69.7482C68.1682 71.0392 67.91 72.3015 67.6231 73.5925C67.1067 76.0598 66.6477 79.4451 65.8444 81.8549C65.8444 81.8836 65.8444 81.9123 65.8157 81.9123C65.8157 81.9123 65.8157 81.941 65.8157 81.9697C65.8157 81.9984 65.8157 81.9984 65.787 82.0271C65.787 82.0558 65.7584 82.0845 65.7584 82.1418C65.7297 82.1992 65.701 82.2566 65.6723 82.314C65.6723 82.3427 65.6436 82.3713 65.6149 82.4C65.6149 82.4287 65.5862 82.4287 65.5862 82.4574C65.5862 82.4574 65.5862 82.4574 65.5862 82.4861C65.5575 82.5148 65.5288 82.5722 65.5002 82.6296C65.5002 82.6296 65.5002 82.6295 65.5002 82.6582C65.5002 82.6869 65.4715 82.6869 65.4715 82.7156C65.4715 82.7156 65.4715 82.7156 65.4715 82.7443C65.4428 82.8017 65.4141 82.8591 65.3567 82.8878L65.328 82.9164C65.2993 82.9451 65.2706 82.9738 65.2706 83.0025C65.2706 83.0312 65.242 83.0312 65.2133 83.0599C65.2133 83.0599 65.2133 83.0599 65.1846 83.0886C65.1559 83.1173 65.1559 83.146 65.1272 83.146L65.0985 83.1746C65.0698 83.2033 65.0411 83.232 65.0124 83.2894C64.9838 83.3181 64.9551 83.3468 64.9264 83.3755L64.8977 83.4042C64.869 83.4328 64.869 83.4615 64.8403 83.4615C64.7829 83.5189 64.7542 83.5476 64.6969 83.5763L64.6682 83.605C64.6682 83.6337 64.6395 83.6337 64.6395 83.6337C64.4674 83.7771 64.2665 83.9206 64.037 84.064C63.9796 84.0927 63.951 84.1214 63.8936 84.1501C63.8362 84.1788 63.7788 84.2361 63.7214 84.2648C63.6927 84.2935 63.6354 84.3222 63.6067 84.3222C63.578 84.3509 63.5493 84.3509 63.4919 84.3796C63.4059 84.4083 63.3485 84.4656 63.2624 84.4943C63.205 84.523 63.1763 84.5517 63.119 84.5804C63.0329 84.6378 62.9181 84.6665 62.8321 84.6952C62.746 84.7238 62.6886 84.7525 62.6026 84.7812C62.4878 84.8386 62.3731 84.8673 62.287 84.896C62.2296 84.9247 62.1722 84.9247 62.1435 84.9534C62.0862 84.982 62.0288 84.982 61.9714 85.0107C61.9427 85.0107 61.914 85.0394 61.8853 85.0394C61.3976 85.1829 60.8812 85.3263 60.3648 85.4124C60.3361 85.4124 60.3075 85.4124 60.2788 85.4124C59.9632 85.4698 59.6189 85.4984 59.3033 85.5271C59.2747 85.5271 59.246 85.5271 59.2173 85.5271C59.1886 85.5271 59.1599 85.5271 59.1312 85.5271C59.0738 85.5271 59.0164 85.5271 58.9591 85.5271C58.9304 85.5271 58.9017 85.5271 58.9017 85.5271C58.8156 85.5271 58.7296 85.5271 58.6435 85.5271H58.6148C58.4714 85.5271 58.3566 85.5271 58.2418 85.5271C57.6394 85.5271 57.0656 85.4984 56.4918 85.4124C56.3771 85.3837 56.2336 85.3837 56.1189 85.355C56.0615 85.355 56.0041 85.3263 55.918 85.3263C55.8607 85.3263 55.8033 85.2976 55.7459 85.2976C55.7172 85.2976 55.7172 85.2976 55.6885 85.2976C55.459 85.2402 55.2295 85.2116 55 85.1255C55 85.1255 55 85.1255 54.9713 85.1255C54.8565 85.0968 54.7705 85.0681 54.6557 85.0394C54.1967 84.896 53.7664 84.7525 53.336 84.5517C53.3073 84.5517 53.2787 84.523 53.25 84.523C53.1065 84.4656 52.9918 84.3796 52.8483 84.3222C52.8196 84.3222 52.8196 84.2935 52.7909 84.2935C52.7049 84.2361 52.6188 84.2074 52.5327 84.1501C52.5041 84.1214 52.4754 84.1214 52.4467 84.0927C52.3893 84.064 52.3032 84.0066 52.1885 83.9206C52.1598 83.9206 52.1598 83.8919 52.1311 83.8919L52.1024 83.8632C52.0737 83.8345 52.045 83.8345 52.045 83.8058C52.0163 83.7771 51.9877 83.7484 51.959 83.7484C51.9303 83.7197 51.8729 83.691 51.8442 83.6624C51.8155 83.6337 51.7868 83.6337 51.7868 83.605C51.7868 83.605 51.7581 83.605 51.7581 83.5763C51.7008 83.5189 51.6147 83.4615 51.5573 83.4042C51.4999 83.3755 51.4713 83.3181 51.4139 83.2894L51.3852 83.2607C51.3565 83.232 51.3565 83.232 51.3278 83.2033C51.2991 83.1746 51.2417 83.1173 51.2131 83.0886C51.1844 83.0599 51.1557 83.0312 51.127 83.0025C51.0983 82.9738 51.0696 82.9451 51.0696 82.9164C51.0696 82.9164 51.0696 82.8878 51.0409 82.8878C50.9835 82.8304 50.9262 82.7443 50.8975 82.6869C50.8401 82.6296 50.8114 82.5435 50.754 82.4861C50.7253 82.4287 50.6966 82.3714 50.668 82.3427C50.668 82.314 50.6393 82.314 50.6393 82.2853V82.2566C50.6106 82.2279 50.6106 82.1992 50.6106 82.1705C50.5532 82.0558 50.5245 81.9697 50.4958 81.8549C50.4671 81.7976 50.4671 81.7402 50.4385 81.7115V81.6828C50.4385 81.6828 50.4385 81.6828 50.4385 81.6541C50.4385 81.6254 50.4385 81.5968 50.4098 81.5968V81.5681V81.5394L50.295 80.9943C50.2376 80.7074 50.1802 80.4205 50.1229 80.1336L49.3483 76.4614C49.2335 75.945 49.1188 75.3999 49.0327 74.9122L48.7171 73.4778C48.4302 72.1581 48.172 70.8671 47.9138 69.5761C47.9138 69.5474 47.9138 69.5474 47.9138 69.5187C47.9138 69.49 47.9138 69.4613 47.9138 69.4613C47.9138 69.4613 47.9138 69.4613 47.9138 69.4326C47.9138 69.3753 47.8851 69.3466 47.8851 69.2892C47.8851 69.2318 47.8564 69.1457 47.8564 69.0884C47.8564 69.0884 47.8564 69.0884 47.8564 69.0597C47.8564 68.9736 47.8564 68.8875 47.8564 68.8015C47.8564 67.2236 48.9179 65.6744 51.0122 64.4981C55.1148 62.203 61.7132 62.2604 65.701 64.6416C67.5658 65.8465 68.5412 67.367 68.5412 68.8589Z" fill="#139DC8"/>
<path d="M77.8663 54.4293C77.8376 55.2326 77.6081 56.9826 77.4646 57.7572C77.3499 58.2449 77.2351 58.9048 77.1204 59.3925C76.8622 60.3392 76.5179 61.5728 76.2023 62.4909C75.8294 63.5524 75.1695 65.0729 74.94 65.5606C74.7105 65.9909 74.4523 66.5934 74.2228 67.0524C73.9933 67.4828 73.6777 68.0852 73.4195 68.5156C73.1613 68.9459 72.817 69.491 72.5588 69.9213C72.0998 70.6672 71.985 70.8394 70.6654 72.6181C70.3785 73.0197 69.9481 73.5074 69.6325 73.8804C68.944 74.7124 67.9112 75.7452 67.3948 76.2616C67.1079 76.5485 66.0464 77.5526 64.8989 78.4133C64.2103 78.9297 63.3783 79.5608 62.116 80.278L60.1939 81.3969L58.2717 82.5158L56.3496 83.6347L54.4274 84.7535L52.5052 85.8724L50.5831 86.9913L48.6609 88.1101L46.7388 89.229L44.8166 90.3479L42.9231 91.438L42.8944 91.4667C42.0911 91.8971 41.001 92.4708 40.169 92.8151C39.3657 93.1594 38.2468 93.5323 37.3862 93.7332C36.5542 93.934 35.464 94.1635 34.632 94.2209C33.9148 94.2783 32.9394 94.3356 32.2221 94.3356C31.7918 94.3356 31.2467 94.3069 30.8164 94.2783C28.7221 94.1635 26.3696 93.7045 24.1605 92.9872C22.4392 92.4422 21.3203 91.9258 21.1769 91.8684C20.7466 91.6676 20.2015 91.438 19.7998 91.2372C19.0252 90.8643 18.0211 90.3192 17.2752 89.8888L14.0047 87.9954C13.8899 87.938 13.7751 87.8806 13.6891 87.7945C13.3448 87.5937 12.9718 87.3642 12.685 87.1634C12.2546 86.8765 11.6808 86.5035 11.2505 86.188C10.5333 85.6429 9.55786 84.9257 8.86933 84.3519C8.49637 84.0363 7.97997 83.5773 7.6357 83.233C7.26275 82.8887 6.80372 82.4297 6.45946 82.0568C5.88568 81.4256 5.13976 80.5649 4.59467 79.9051C4.27909 79.5034 3.87745 78.9583 3.61925 78.528C3.38974 78.1837 3.10285 77.7247 2.90202 77.3518C2.90202 77.3231 1.98398 75.8026 1.46758 74.4542C1.23806 73.823 0.951174 72.9623 0.750351 72.3312C0.635595 71.9009 0.520838 71.3271 0.406082 70.8967C0.20526 70.0074 0.0905051 68.8311 0.0331272 67.9418C-0.0242508 67.0811 0.0044382 65.9336 0.0331272 65.1016C0.0618161 64.327 0.291328 62.5196 0.463462 61.745C0.578217 61.2573 0.692972 60.5687 0.836417 60.081C1.09462 59.1343 1.46757 57.872 1.78315 56.9539C2.15611 55.8924 2.81596 54.3432 3.04547 53.8555C3.27498 53.3965 3.53318 52.794 3.79138 52.3637C4.02089 51.9333 4.33647 51.3309 4.59467 50.9005C4.85287 50.4702 5.19714 49.8964 5.45534 49.4661C5.91436 48.7202 6.05781 48.5481 7.3775 46.7406C7.66439 46.339 8.09472 45.8513 8.4103 45.4496C9.09884 44.589 10.1603 43.5562 10.648 43.0398C10.9349 42.7529 11.9964 41.7488 13.1727 40.8594C13.8612 40.343 14.7219 39.7119 15.9842 38.9946C15.9842 38.9946 16.0129 38.9946 16.0129 38.9659L17.8777 37.9044L19.7711 36.8143L21.6646 35.7241L23.5581 34.6339L25.4515 33.5437L27.345 32.4535L29.2385 31.3634L31.132 30.2732L33.0254 29.183L34.9189 28.0928C35.7222 27.6625 36.8124 27.0887 37.6444 26.7444C38.4763 26.4002 39.5952 26.0272 40.4846 25.8264C41.2879 25.6256 42.4067 25.4247 43.2387 25.3387C43.669 25.31 44.2141 25.2526 44.6445 25.2239C45.3043 25.1952 46.165 25.1952 46.8248 25.2526C48.0298 25.31 48.9478 25.4247 50.0667 25.6256C51.6733 25.9125 53.1364 26.3715 53.1364 26.3715C53.6241 26.5149 54.284 26.7157 54.743 26.8879C55.575 27.2035 56.6938 27.6625 57.5258 28.0354C57.5258 28.0354 58.8168 28.6092 60.6242 29.642L63.8948 31.5355C64.2964 31.7937 64.8415 32.0806 65.2431 32.3675C65.9317 32.8265 66.821 33.429 67.4809 33.9167C68.5137 34.6913 69.9194 35.9249 69.9194 35.9536C70.5506 36.5561 71.3539 37.388 71.9564 38.0192C72.3006 38.3922 72.7023 38.9086 73.0465 39.2815C73.0465 39.2815 73.9359 40.343 74.8539 41.8348C75.7433 43.298 76.231 44.4742 76.3745 44.7898C76.6327 45.4496 76.9769 46.3677 77.1777 47.0849C77.3212 47.5152 77.4359 48.089 77.522 48.5194C77.7515 49.4087 77.8663 50.6137 77.9237 51.503C77.9237 52.335 77.895 53.5399 77.8663 54.4293Z" fill="#2FBAE5"/>
<path d="M50.0673 32.8261L31.0752 43.7853L27.8047 41.8918L46.7968 30.9326L50.0673 32.8261Z" fill="#4D4D4D"/>
<path d="M35.2917 49.8086C34.1442 50.4971 33.3122 51.3004 33.2835 51.3291L28.3203 54.198C28.3203 54.198 29.1523 53.366 30.3285 52.6775C31.8204 51.8168 33.7999 50.6693 35.2917 49.8086Z" fill="#8AE3FF"/>
<path d="M30.3564 52.6764L35.3196 49.8075C36.5533 49.0903 34.3155 50.8116 35.7213 51.6436L34.6311 52.2461C33.1967 51.4141 31.5901 51.9592 30.3564 52.6764Z" fill="#4D4D4D"/>
<path d="M34.6038 52.2187C34.9194 52.4196 35.235 52.6778 35.5505 53.022C38.3334 56.2639 36.4973 63.6656 36.4973 63.723L28.3496 54.1983C28.3783 54.1696 31.8783 50.6695 34.6038 52.2187Z" fill="#4D4D4D"/>
<path d="M34.6035 52.2177L35.6937 51.6152C36.0093 51.8161 36.3249 52.0743 36.6404 52.4185C39.4233 55.6604 41.4602 60.7957 41.4602 60.8244L36.497 63.6933C36.497 63.6646 38.3331 56.2628 35.5503 52.9923C35.2347 52.6767 34.9191 52.4185 34.6035 52.2177Z" fill="#4D4D4D"/>
<path d="M29.6396 50.7834L30.7298 50.1809C32.2503 49.2916 34.2586 48.6891 36.1807 49.808L35.0906 50.4104C33.1684 49.2916 31.1602 49.894 29.6396 50.7834Z" fill="#139DC8"/>
<path d="M35.0908 50.4111L36.181 49.8086C36.6687 50.0955 37.1564 50.4971 37.6154 51.0422C41.5745 55.6898 42.7795 61.8006 42.636 62.2596L37.6728 65.1285C37.8163 64.6982 40.4843 56.2923 36.5253 51.6447C36.0662 51.0996 35.5785 50.6979 35.0908 50.4111Z" fill="#139DC8"/>
<path d="M35.0908 50.4114C35.5785 50.6983 36.0662 51.1 36.5252 51.645C40.4843 56.2927 37.8162 64.6985 37.6728 65.1289L36.4678 63.7231C36.4678 63.6944 38.3039 56.2927 35.5211 53.0221C35.2342 52.6778 34.9186 52.4196 34.5744 52.2188C31.8489 50.6409 28.3489 54.1697 28.3202 54.1697L27.1152 52.7639C27.3447 52.5631 31.3612 48.2597 35.0908 50.4114Z" fill="#2FBAE5"/>
<path d="M9.49981 38.793C7.4629 39.9692 12.2826 46.2521 12.3113 46.3095L7.34814 49.1784C7.34814 49.121 5.79894 40.916 7.83585 39.7397C9.32768 38.9077 8.00799 39.6536 9.49981 38.793Z" fill="#8AE3FF"/>
<path d="M7.83594 39.7693L9.4999 38.7938C9.64334 38.7078 9.81548 38.6504 10.0163 38.6504C10.3032 38.6504 10.6188 38.7365 10.963 38.9373L9.29907 39.9127C8.9835 39.7119 8.66792 39.6258 8.35234 39.6258C8.18021 39.6258 8.00807 39.6832 7.83594 39.7693Z" fill="#4D4D4D"/>
<path d="M6.5459 37.3012L7.75084 36.584C7.98035 36.4406 8.26724 36.3545 8.58281 36.3545C9.04184 36.3545 9.52955 36.4979 10.0173 36.7848L8.81233 37.5021C8.32461 37.2152 7.8369 37.0717 7.37788 37.0717C7.0623 37.1004 6.8041 37.1578 6.5459 37.3012Z" fill="#139DC8"/>
<path d="M9.2998 39.911L10.9638 38.9355C13.6892 40.5134 20.4311 46.1078 20.4885 46.1939L15.5253 49.0628C15.4679 48.9767 12.0253 41.4889 9.2998 39.911Z" fill="#4D4D4D"/>
<path d="M9.29988 39.912C12.0253 41.4899 15.468 48.9777 15.5254 49.0925L7.34903 49.2072C7.34903 49.1212 5.57032 39.6825 8.35315 39.6538C8.66873 39.6251 8.9843 39.7112 9.29988 39.912Z" fill="#4D4D4D"/>
<path d="M8.81152 37.5307L10.0165 36.8135C13.746 38.9651 21.492 45.7071 21.6929 46.1948L16.7297 49.0637C16.5289 48.6046 12.5411 39.6824 8.81152 37.5307Z" fill="#139DC8"/>
<path d="M8.8117 37.5311C12.5413 39.6828 16.529 48.605 16.7299 49.0641L15.5249 49.0927C15.4675 48.978 12.0249 41.4902 9.29942 39.9123C8.98384 39.7115 8.66826 39.6254 8.35268 39.6254C5.56985 39.6541 7.34857 49.1214 7.34857 49.1788L6.14363 49.2075C6.00018 48.605 3.38949 37.1295 7.34857 37.1008C7.83628 37.0721 8.32399 37.2442 8.8117 37.5311Z" fill="#2FBAE5"/>
<path d="M5.11217 72.1877C5.11217 72.9623 5.65726 73.8803 6.31711 74.282L3.59166 75.8599C2.93181 75.4869 2.38672 74.5402 2.38672 73.7656C3.30477 73.2492 4.19412 72.7041 5.11217 72.1877C4.19412 72.7041 3.27608 73.2492 2.38672 73.7656C2.38672 73.3926 2.53016 73.1057 2.73099 72.991L5.45644 71.4131C5.25562 71.5278 5.11217 71.8147 5.11217 72.1877Z" fill="#8AE3FF"/>
<path d="M6.31725 74.2529C6.66152 74.4538 6.94841 74.4537 7.17792 74.339L4.45247 75.9169C4.22295 76.0316 3.93606 76.0316 3.5918 75.8308C4.39509 75.3718 5.51396 74.7406 6.31725 74.2529Z" fill="#8AE3FF"/>
<path d="M2.73047 72.9914L5.45592 71.4135C5.68543 71.2987 5.97232 71.2987 6.31659 71.4995L3.59114 73.0774C3.24687 72.8766 2.95998 72.8766 2.73047 72.9914Z" fill="#4D4D4D"/>
<path d="M7.17792 74.3396L4.45247 75.9175C4.68198 75.8027 4.79673 75.5159 4.79673 75.1429C4.79673 74.3683 4.25164 73.4502 3.5918 73.0486L6.31725 71.4707C6.97709 71.8437 7.52218 72.7904 7.52218 73.565C7.52218 73.9666 7.40743 74.2248 7.17792 74.3396Z" fill="#4D4D4D"/>
<path d="M3.59166 73.0773C4.2515 73.4502 4.79659 74.397 4.79659 75.1716C4.79659 75.9462 4.2515 76.233 3.59166 75.8601C2.93181 75.4871 2.38672 74.5404 2.38672 73.7658C2.38672 72.9912 2.93181 72.7043 3.59166 73.0773Z" fill="#4D4D4D"/>
<path d="M14.0633 78.7002C14.4076 78.901 14.6945 78.901 14.924 78.7863L12.1986 80.3642C11.969 80.4789 11.6822 80.4789 11.3379 80.2781C12.1412 79.8191 13.2314 79.1592 14.0633 78.7002Z" fill="#8AE3FF"/>
<path d="M12.8583 76.6057C12.8583 77.3803 13.4034 78.2983 14.0632 78.7C13.2599 79.159 12.4566 79.6467 11.6533 80.1057L11.3378 80.2778C10.6779 79.9049 10.1328 78.9582 10.1328 78.1836C11.0222 77.6672 11.9402 77.1508 12.8583 76.6057C11.9402 77.1221 11.0222 77.6672 10.1328 78.1836C10.1328 77.8106 10.2763 77.5237 10.4771 77.4089L13.2025 75.8311C13.0017 75.9745 12.8583 76.2327 12.8583 76.6057Z" fill="#8AE3FF"/>
<path d="M10.4775 77.4386L13.203 75.8607C13.4325 75.746 13.7194 75.746 14.0637 75.9468L11.3382 77.5247C10.9939 77.3239 10.7071 77.2952 10.4775 77.4386Z" fill="#4D4D4D"/>
<path d="M14.924 78.7859L12.1986 80.3638C12.4281 80.249 12.5428 79.9621 12.5428 79.5892C12.5428 78.8146 11.9977 77.8965 11.3379 77.4949L14.0633 75.917C14.7232 76.2899 15.2683 77.2367 15.2683 78.0113C15.2683 78.3842 15.1248 78.6424 14.924 78.7859Z" fill="#4D4D4D"/>
<path d="M11.3378 77.5244C11.9976 77.8974 12.5427 78.8441 12.5427 79.6187C12.5427 80.3933 11.9976 80.6802 11.3378 80.3073C10.6779 79.9343 10.1328 78.9876 10.1328 78.213C10.1328 77.4384 10.6779 77.1228 11.3378 77.5244Z" fill="#4D4D4D"/>
<path d="M1.55469 69.8069L4.28014 68.229C5.6859 67.4257 8.03839 67.7126 10.6778 69.2331L7.95233 70.811C5.28425 69.2905 2.93176 68.9749 1.55469 69.8069Z" fill="#139DC8"/>
<path d="M7.95323 70.8106C12.2279 73.2779 15.6706 78.0115 15.6706 81.3968C15.6706 84.7821 12.1992 85.528 7.92454 83.0608C3.64988 80.5935 0.178519 75.8599 0.207208 72.4746C0.207208 69.0893 3.67857 68.3434 7.95323 70.8106ZM3.59251 75.8599C4.25235 76.2328 4.79744 75.9459 4.79744 75.1713C4.79744 74.3967 4.25235 73.4787 3.59251 73.077C2.93266 72.7041 2.38757 72.991 2.38757 73.7656C2.38757 74.5402 2.93266 75.4582 3.59251 75.8599ZM11.3385 80.278C11.9984 80.6509 12.5435 80.364 12.5435 79.5894C12.5435 78.8148 11.9984 77.8968 11.3385 77.4951C10.6787 77.1222 10.1336 77.4091 10.1336 78.1837C10.1336 78.9583 10.65 79.905 11.3385 80.278Z" fill="#2FBAE5"/>
<path d="M17.0475 82.4867L14.3221 84.0646C15.1827 83.5769 15.6705 82.6589 15.6705 81.3965C15.6705 78.0112 12.2278 73.2776 7.95312 70.8103L10.6786 69.2324C14.9532 71.6997 18.3959 76.4334 18.3959 79.8186C18.3959 81.081 17.9082 81.999 17.0475 82.4867Z" fill="#139DC8"/>
<path d="M20.8323 70.4377C21.2914 70.6959 21.6643 71.3558 21.6643 71.9008C21.6643 72.4459 21.2914 72.6468 20.8037 72.3886C20.3446 72.1304 19.9717 71.4705 19.9717 70.9254C20.0004 70.3803 20.3733 70.1508 20.8323 70.4377Z" fill="white"/>
<path d="M21.6926 69.9204C22.9549 70.6663 23.9877 72.4163 23.9877 73.8794C23.9877 75.3426 22.9549 75.9164 21.6926 75.1991C20.4303 74.4532 19.3975 72.7032 19.3975 71.2401C19.3975 69.7769 20.4303 69.2031 21.6926 69.9204ZM20.8319 72.3589C21.2909 72.6171 21.6926 72.4163 21.6926 71.8712C21.6926 71.3261 21.3196 70.695 20.8606 70.4081C20.4016 70.1499 20.0286 70.3507 19.9999 70.8958C19.9999 71.4409 20.3729 72.1007 20.8319 72.3589Z" fill="#4D4D4D"/>
<path d="M3.93489 60.7386C4.39391 60.9968 4.76687 61.6566 4.76687 62.2017C4.76687 62.7468 4.39391 62.9476 3.9062 62.6894C3.44718 62.4312 3.07422 61.7714 3.07422 61.2263C3.10291 60.6812 3.47586 60.4804 3.93489 60.7386Z" fill="white"/>
<path d="M4.79512 60.2513C6.05743 60.9972 7.09023 62.776 7.09023 64.2104C7.09023 65.6735 6.05743 66.2473 4.79512 65.5301C3.5328 64.7842 2.5 63.0342 2.5 61.571C2.5 60.1079 3.5328 59.5054 4.79512 60.2513ZM3.93445 62.6899C4.39347 62.9481 4.76643 62.7473 4.79512 62.2022C4.79512 61.6571 4.42216 60.9972 3.96314 60.739C3.50411 60.4808 3.13116 60.6817 3.10247 61.2267C3.10247 61.7718 3.47542 62.403 3.93445 62.6899Z" fill="#4D4D4D"/>
<path d="M40.6585 21.9238L41.9208 22.6411C42.7241 23.1001 43.2405 24.1329 43.2405 25.5386C43.2405 28.4075 41.2323 31.9363 38.7076 33.3707L37.4453 32.6535C39.9413 31.2191 41.9782 27.6903 41.9782 24.8214C41.9782 23.4157 41.4618 22.4115 40.6585 21.9238Z" fill="#FFC61E"/>
<path d="M35.4654 33.7154L34.2031 32.9982C35.0351 33.4859 36.1827 33.3998 37.4163 32.6826L38.6786 33.3998C37.445 34.1171 36.2974 34.2031 35.4654 33.7154Z" fill="#FFC61E"/>
<path d="M37.417 22.2394C38.6793 21.5222 39.8269 21.4361 40.6302 21.9238L41.8925 22.6411C41.0605 22.1533 39.9129 22.2394 38.6793 22.9566C38.3064 22.7558 37.7899 22.4689 37.417 22.2394Z" fill="#FFE28A"/>
<path d="M41.7203 20.0875L42.9827 20.8047C41.8925 20.1736 40.372 20.2597 38.6793 21.2351L37.417 20.5179C39.081 19.5424 40.6015 19.4564 41.7203 20.0875Z" fill="#FFC61E"/>
<path d="M32.9121 30.0713C32.9121 27.2024 34.9203 23.6737 37.445 22.2393L38.7073 22.9565C36.2113 24.3909 34.1744 27.9197 34.1744 30.7886C34.1744 32.223 34.6908 33.2271 35.4941 33.6862L34.2318 32.9689C33.3998 32.5099 32.9121 31.5058 32.9121 30.0713Z" fill="#FFE28A"/>
<path d="M37.5602 22.3246C40.0561 20.8901 42.0931 22.0377 42.1217 24.9066C42.1217 27.7755 40.1135 31.3042 37.5889 32.7387C35.093 34.1731 33.056 33.0256 33.0273 30.1567C33.0273 27.2591 35.0356 23.759 37.5602 22.3246Z" fill="#FFC61E"/>
<path d="M34.4043 35.5506L33.142 34.8334C32.0518 34.2022 31.392 32.8538 31.3633 30.9604C31.3633 27.1447 34.06 22.4397 37.388 20.5176L38.6503 21.2348C35.3224 23.157 32.6256 27.8333 32.6256 31.6776C32.6543 33.5711 33.3141 34.9194 34.4043 35.5506Z" fill="#FFC61E"/>
<path d="M38.6497 21.235C41.9776 19.3129 44.7031 20.8621 44.7031 24.6777C44.7031 28.522 42.0063 33.1983 38.6784 35.1205C35.3505 37.0427 32.625 35.4935 32.625 31.6778C32.625 27.8335 35.3218 23.1572 38.6497 21.235ZM38.7071 33.3992C41.203 31.9647 43.2399 28.436 43.2399 25.5671C43.2399 22.6982 41.203 21.5219 38.6784 22.9851C36.1824 24.4195 34.1455 27.9483 34.1455 30.8172C34.1455 33.6861 36.1824 34.8336 38.7071 33.3992Z" fill="#FFCB0A"/>
<path d="M42.7212 2.38691L42.7785 2.44429C42.8072 2.47297 42.8072 2.50166 42.8359 2.53035C42.8359 2.55904 42.8646 2.55904 42.8646 2.58773C42.8646 2.58773 42.8646 2.61642 42.8933 2.61642C42.2621 2.10002 41.2867 1.89919 40.0531 2.18608C37.3563 2.78855 34.4874 5.42794 33.6841 8.06732C33.3112 9.24357 33.4259 10.219 33.885 10.8788C33.7989 10.8215 33.7415 10.7641 33.6841 10.678C33.6268 10.592 33.5407 10.5346 33.512 10.4485C33.2825 10.1042 33.139 9.70259 33.1104 9.21488C33.1104 9.1575 33.1104 9.07143 33.1104 9.01406C33.1104 8.98537 33.1104 8.95668 33.1104 8.8993C33.1104 8.87061 33.1104 8.84192 33.1104 8.78455C33.1104 8.6411 33.139 8.49766 33.1677 8.32552C33.1964 8.21077 33.2251 8.06732 33.2538 7.95257C33.2825 7.83781 33.3112 7.72305 33.3399 7.6083C34.1432 4.96891 37.0121 2.32953 39.7088 1.72706C39.8809 1.69837 40.0531 1.66968 40.1965 1.64099C40.2826 1.64099 40.3687 1.6123 40.426 1.6123C40.5695 1.6123 40.7416 1.6123 40.8851 1.6123C41.172 1.6123 41.4302 1.66968 41.6884 1.72706C41.8031 1.75575 41.9179 1.81313 42.0326 1.84182C42.2908 2.01395 42.5203 2.18608 42.7212 2.38691Z" fill="#FFC61E"/>
<path d="M43.0371 2.8457C43.0658 2.87439 43.0945 2.93177 43.0945 2.96046C43.0658 2.90308 43.0371 2.87439 43.0371 2.8457Z" fill="#FFCB0A"/>
<path d="M42.7227 2.38672L42.78 2.4441C42.8087 2.47279 42.8087 2.50147 42.8374 2.53016L42.8087 2.50148C42.78 2.47279 42.7513 2.4441 42.7227 2.38672Z" fill="#FFE28A"/>
<path d="M43.0371 2.8457C43.0658 2.87439 43.0945 2.93177 43.0945 2.96046C43.0658 2.90308 43.0371 2.87439 43.0371 2.8457Z" fill="#FFE28A"/>
<path d="M43.7829 7.14844C42.8362 9.3288 40.5985 11.3657 38.332 12.1403C38.4755 12.0829 38.6189 11.9969 38.7337 11.9395C38.8484 11.8821 38.9632 11.796 39.1066 11.7387C39.1353 11.71 39.164 11.71 39.1927 11.6813C39.3075 11.5952 39.4509 11.5378 39.5657 11.4518C39.6804 11.3657 39.7952 11.3083 39.9099 11.2223C39.996 11.1649 40.1107 11.0788 40.1968 11.0214C40.2255 11.0214 40.2255 10.9928 40.2542 10.9928C40.3403 10.9354 40.3976 10.878 40.4837 10.8206C40.5698 10.7632 40.6845 10.6772 40.7706 10.5911C40.8853 10.505 40.9714 10.419 41.0862 10.3329C41.287 10.1608 41.4878 9.98864 41.6886 9.78782C41.746 9.75913 41.7747 9.70176 41.8034 9.67307C41.9182 9.55831 42.0329 9.44356 42.119 9.3288C42.205 9.24273 42.2911 9.15667 42.3485 9.0706C42.4059 9.01322 42.4346 8.95584 42.4919 8.92715C42.6928 8.72633 42.8649 8.49682 43.037 8.26731C43.1231 8.15255 43.2092 8.0378 43.2952 7.89435C43.3813 7.7796 43.4674 7.63615 43.5534 7.52139C43.6108 7.43533 43.6969 7.29188 43.7829 7.14844C43.7829 7.17713 43.7542 7.17713 43.7829 7.14844Z" fill="#FFE28A"/>
<path d="M43.0947 2.95996C43.0947 2.98865 43.0947 2.98865 43.1234 2.98865C43.1521 3.04603 43.1808 3.1321 43.2095 3.21816C43.1808 3.1321 43.1521 3.07472 43.1234 2.98865C43.0947 2.95996 43.0947 2.95996 43.0947 2.95996Z" fill="#FFE28A"/>
<path d="M44.2415 1.03809L45.1596 2.0422C45.9628 2.93156 46.221 4.36601 45.676 6.08734C44.5858 9.61609 40.7701 13.1161 37.1553 13.9481C35.3479 14.3498 33.9135 14.0055 33.0815 13.1161L32.1348 12.112C32.1921 12.1694 32.2208 12.1981 32.2782 12.2555C32.3069 12.2842 32.3069 12.2842 32.3356 12.3128C32.393 12.3415 32.4217 12.3989 32.479 12.4276C32.5364 12.485 32.5938 12.5137 32.6799 12.571C32.7946 12.6571 32.9094 12.7145 33.0241 12.7719C33.0528 12.8006 33.1102 12.8006 33.1676 12.8292C33.2249 12.8579 33.2823 12.8866 33.3397 12.8866C33.4258 12.9153 33.5118 12.944 33.5692 12.9727C33.6266 12.9727 33.6553 13.0014 33.7127 13.0014C33.77 13.0014 33.7987 13.0301 33.8561 13.0301C33.9422 13.0588 33.9995 13.0588 34.0856 13.0588C34.1717 13.0588 34.2577 13.0875 34.3725 13.0875C34.6594 13.1161 34.9463 13.1161 35.2619 13.0875C35.3766 13.0875 35.4627 13.0588 35.5774 13.0588C35.6635 13.0588 35.7783 13.0301 35.8643 13.0301C35.893 13.0301 35.9217 13.0301 35.9504 13.0301C36.0365 13.0014 36.1512 13.0014 36.2373 12.9727C36.8111 12.8292 37.4135 12.6284 37.9873 12.3702C38.0734 12.3415 38.1308 12.3128 38.2168 12.2842C38.2742 12.2555 38.3029 12.2268 38.3603 12.1981C38.5037 12.1407 38.6472 12.0546 38.7619 11.9973C38.8767 11.9399 38.9914 11.8538 39.1349 11.7964C39.1636 11.7678 39.1922 11.7678 39.2209 11.7391C39.3357 11.653 39.4791 11.5956 39.5939 11.5096C39.7087 11.4235 39.8234 11.3661 39.9382 11.28C40.0242 11.2227 40.139 11.1366 40.2251 11.0792C40.2537 11.0792 40.2537 11.0505 40.2824 11.0505C40.3685 10.9932 40.4259 10.9358 40.5119 10.8784C40.598 10.821 40.7128 10.735 40.7988 10.6489C40.9136 10.5628 40.9997 10.4768 41.1144 10.3907C41.3152 10.2186 41.5161 10.0464 41.7169 9.8456C41.7743 9.81691 41.8029 9.75953 41.8316 9.73084C41.9464 9.61609 42.0611 9.50133 42.1472 9.38657C42.2333 9.30051 42.3193 9.21444 42.3767 9.12837C42.4341 9.071 42.4628 9.01362 42.5202 8.98493C42.721 8.78411 42.8931 8.55459 43.0653 8.32508C43.1513 8.21033 43.2374 8.09557 43.3235 7.95213C43.4095 7.83737 43.4956 7.69392 43.5817 7.57917C43.6677 7.46441 43.7251 7.34966 43.8112 7.20621C43.8112 7.20621 43.8112 7.20621 43.8112 7.17752V7.14883C44.012 6.83326 44.1841 6.48899 44.3276 6.14472C44.3563 6.08734 44.385 6.00128 44.4136 5.9439C44.4423 5.85783 44.471 5.80045 44.4997 5.71439C44.5284 5.62832 44.5571 5.54225 44.5858 5.45619C44.6432 5.34143 44.6718 5.19799 44.7005 5.08323C44.8153 4.76765 44.8727 4.45207 44.93 4.13649C44.93 4.05043 44.9587 3.99305 44.9587 3.90698C44.9587 3.87829 44.9587 3.8496 44.9587 3.82092C44.9874 3.62009 44.9874 3.41927 44.9874 3.24714C44.9874 3.075 44.9587 2.87418 44.9587 2.73074C44.93 2.5586 44.9014 2.38647 44.844 2.24302C44.8153 2.15696 44.7866 2.09958 44.7579 2.01351C44.7292 1.92744 44.7005 1.87007 44.6718 1.81269C44.6718 1.784 44.6432 1.75531 44.6145 1.72662C44.5858 1.66924 44.5571 1.61187 44.5284 1.58318C44.4997 1.5258 44.4423 1.43973 44.385 1.38235C44.3563 1.32498 44.3276 1.29629 44.2989 1.23891C44.3276 1.12415 44.2702 1.06677 44.2415 1.03809Z" fill="#FFC61E"/>
<path d="M40.1678 0.177587C36.553 0.980878 32.7374 4.50962 31.6472 8.03836C31.1021 9.78839 31.3316 11.2228 32.1636 12.1122C32.221 12.1696 32.2497 12.1983 32.3071 12.2556C32.3358 12.2843 32.3358 12.2843 32.3644 12.313C32.4218 12.3417 32.4505 12.3991 32.5079 12.4278C32.5653 12.4852 32.6226 12.5138 32.7087 12.5712C32.8235 12.6573 32.9382 12.7147 33.053 12.772C33.0817 12.8007 33.1391 12.8007 33.1964 12.8294C33.2538 12.8581 33.3112 12.8868 33.3686 12.8868C33.4546 12.9155 33.5407 12.9442 33.5981 12.9729C33.6554 12.9729 33.6841 13.0016 33.7415 13.0016C33.7989 13.0016 33.8276 13.0302 33.885 13.0302C33.971 13.0589 34.0284 13.0589 34.1145 13.0589C34.2005 13.0589 34.2866 13.0876 34.4014 13.0876C34.6883 13.1163 34.9751 13.1163 35.2907 13.0876C35.4055 13.0876 35.4915 13.0589 35.6063 13.0589C35.6924 13.0589 35.8071 13.0302 35.8932 13.0302C35.9219 13.0302 35.9506 13.0302 35.9793 13.0302C36.0653 13.0016 36.1801 13.0016 36.2661 12.9729C36.8399 12.8294 37.4424 12.6286 38.0162 12.3704C38.1022 12.3417 38.1596 12.313 38.2457 12.2843C38.3031 12.2556 38.3318 12.227 38.3891 12.1983C38.5326 12.1409 38.6473 12.0548 38.7908 11.9974C38.9055 11.9401 39.0203 11.854 39.1637 11.7966C39.1924 11.7679 39.2211 11.7679 39.2498 11.7392C39.3646 11.6532 39.508 11.5958 39.6228 11.5097C39.7375 11.4237 39.8523 11.3663 39.967 11.2802C40.0531 11.2228 40.1678 11.1368 40.2539 11.0794C40.2826 11.0794 40.2826 11.0507 40.3113 11.0507C40.3974 10.9933 40.4547 10.9359 40.5408 10.8786C40.6269 10.8212 40.7416 10.7351 40.8277 10.6491C40.9425 10.563 41.0285 10.4769 41.1433 10.3909C41.3441 10.2187 41.5449 10.0466 41.7457 9.84577C41.8031 9.81708 41.8318 9.7597 41.8605 9.73101C41.9753 9.61626 42.09 9.5015 42.1761 9.38675C42.2621 9.30068 42.3482 9.21461 42.4056 9.12854C42.463 9.07117 42.4917 9.01379 42.549 8.9851C42.7499 8.78428 42.922 8.55476 43.0941 8.32525C43.1802 8.2105 43.2663 8.09574 43.3523 7.9523C43.4384 7.83754 43.5245 7.69409 43.6105 7.57934C43.6966 7.46458 43.754 7.34983 43.84 7.20638C43.84 7.20638 43.84 7.20638 43.84 7.17769V7.149C44.0409 6.83343 44.213 6.48916 44.3564 6.14489C44.3851 6.08751 44.4138 6.00145 44.4425 5.94407C44.4712 5.858 44.4999 5.80062 44.5286 5.71456C44.5573 5.62849 44.5859 5.54242 44.6146 5.45636C44.672 5.3416 44.7007 5.19816 44.7294 5.0834C44.8441 4.76782 44.9015 4.45224 44.9589 4.13666C44.9589 4.0506 44.9876 3.99322 44.9876 3.90715C44.9876 3.87846 44.9876 3.84977 44.9876 3.82109C45.0163 3.62026 45.0163 3.41944 45.0163 3.24731C45.0163 3.07517 44.9876 2.87435 44.9876 2.73091C44.9589 2.55877 44.9302 2.38664 44.8728 2.24319C44.8441 2.15713 44.8155 2.09975 44.7868 2.01368C44.7581 1.92761 44.7294 1.87024 44.7007 1.81286C44.7007 1.78417 44.672 1.75548 44.6433 1.72679C44.6146 1.66941 44.5859 1.61204 44.5573 1.58335C44.5286 1.52597 44.4712 1.4399 44.4138 1.38252C44.3851 1.32515 44.3564 1.29646 44.3277 1.23908C44.2991 1.1817 44.2417 1.12432 44.1843 1.06695C43.4097 0.12021 41.9753 -0.252747 40.1678 0.177587ZM42.7785 2.4727C42.8072 2.50139 42.8072 2.53008 42.8359 2.55877C42.8359 2.58746 42.8646 2.58746 42.8646 2.61615C42.8646 2.61615 42.8646 2.64484 42.8933 2.64484C42.8933 2.64484 42.8933 2.67353 42.922 2.67353C42.9507 2.70222 42.9794 2.73091 42.9794 2.78828C42.9794 2.78828 42.9794 2.81697 43.0081 2.81697C43.0081 2.84566 43.0367 2.84566 43.0367 2.87435C43.0654 2.90304 43.0941 2.96042 43.0941 2.98911V3.0178C43.1228 3.07517 43.1515 3.16124 43.1802 3.24731C43.2089 3.30468 43.2089 3.36206 43.2376 3.44813C43.2663 3.50551 43.2663 3.59157 43.2663 3.64895C43.2949 3.82109 43.2949 3.99322 43.2949 4.16535C43.2949 4.22273 43.2949 4.25142 43.2949 4.3088C43.2949 4.39487 43.2949 4.50962 43.2663 4.59569C43.2663 4.68175 43.2376 4.79651 43.2089 4.88258C43.2089 4.91127 43.2089 4.93996 43.1802 4.96864C43.1515 5.05471 43.1515 5.14078 43.1228 5.19816C43.0941 5.28422 43.0654 5.37029 43.0654 5.42767C42.2621 8.06705 39.3932 10.7064 36.6678 11.3089C36.553 11.3376 36.4383 11.3663 36.3235 11.3663C36.1801 11.395 36.0653 11.395 35.9506 11.4237C35.8645 11.4237 35.8071 11.4237 35.7211 11.4237C35.635 11.4237 35.5776 11.4237 35.4915 11.4237C35.2907 11.4237 35.0612 11.395 34.8891 11.3663C34.6309 11.3089 34.4014 11.2228 34.2005 11.1081C34.0858 11.0507 33.971 10.9646 33.8563 10.8786C33.7702 10.8212 33.7128 10.7638 33.6555 10.6777C33.5981 10.5917 33.512 10.5343 33.4833 10.4482C33.2538 10.104 33.1104 9.70232 33.0817 9.21461C33.0817 9.15723 33.0817 9.07117 33.0817 9.01379C33.0817 8.9851 33.0817 8.95641 33.0817 8.89903C33.0817 8.87034 33.0817 8.84165 33.0817 8.78428C33.0817 8.64083 33.1104 8.49739 33.1391 8.32525C33.1677 8.2105 33.1964 8.06705 33.2251 7.9523C33.2538 7.83754 33.2825 7.72278 33.3112 7.60803C34.1145 4.96864 36.9834 2.32926 39.6801 1.72679C39.8523 1.6981 40.0244 1.66941 40.1678 1.64072C40.2539 1.64072 40.34 1.61204 40.3974 1.61204C40.5408 1.61204 40.7129 1.61204 40.8564 1.61204C41.1433 1.61204 41.4015 1.66941 41.6597 1.72679C41.7744 1.75548 41.8892 1.81286 42.0039 1.84155C42.3195 2.01368 42.5777 2.2145 42.7785 2.4727Z" fill="#FFCB0A"/>
<path d="M42.8931 2.6163C42.9218 2.67367 42.9505 2.70236 42.9792 2.75974C42.9792 2.75974 42.9792 2.78843 43.0079 2.78843C43.0079 2.81712 43.0366 2.81712 43.0366 2.84581C43.0653 2.8745 43.0653 2.93187 43.094 2.96056V2.98925C43.1227 3.04663 43.1513 3.1327 43.18 3.21876C43.2087 3.27614 43.2087 3.36221 43.2374 3.41959C43.2661 3.47696 43.2661 3.56303 43.2661 3.62041C43.2948 3.79254 43.2948 3.96468 43.2948 4.13681C43.2948 4.19419 43.2948 4.22288 43.2948 4.28025C43.2948 4.36632 43.2948 4.48108 43.2661 4.56714C43.2661 4.65321 43.2374 4.76797 43.2087 4.85403C43.2087 4.88272 43.2087 4.91141 43.18 4.9401C43.1513 5.02617 43.1513 5.11224 43.1227 5.16961C43.094 5.25568 43.0653 5.34175 43.0653 5.39912C42.262 8.03851 39.3931 10.6779 36.6676 11.2804C36.5529 11.3091 36.4381 11.3377 36.3234 11.3377C36.1799 11.3664 36.0652 11.3664 35.9504 11.3951C35.8644 11.3951 35.807 11.3951 35.7209 11.3951C35.6348 11.3951 35.5775 11.3951 35.4914 11.3951C35.2906 11.3951 35.0611 11.3664 34.8889 11.3377C34.6307 11.2804 34.4012 11.1943 34.2004 11.0795C34.0856 11.0222 33.9709 10.9361 33.8561 10.85C33.3971 10.1902 33.2823 9.21476 33.6553 8.03851C34.4586 5.39913 37.3275 2.75974 40.0242 2.15727C41.2866 1.89907 42.262 2.09989 42.8931 2.6163Z" fill="#FFC61E"/>
<path d="M43.0361 2.8457C43.0648 2.87439 43.0935 2.93177 43.0935 2.96046V2.98915C43.1222 3.04653 43.1509 3.13259 43.1796 3.21866C43.1509 3.13259 43.1222 3.07521 43.0935 2.98915V2.96046C43.0648 2.90308 43.0361 2.87439 43.0361 2.8457Z" fill="#FFE28A"/>
<path d="M25.3665 24.9941L25.3091 25.0515C25.2804 25.0801 25.2517 25.1088 25.223 25.1088C25.1944 25.1088 25.1944 25.1375 25.1657 25.1375C25.1657 25.1375 25.1657 25.1662 25.137 25.1662C25.6247 24.5064 25.7395 23.5022 25.3952 22.2973C24.6206 19.6292 21.8091 16.9325 19.1123 16.3013C17.9074 16.0144 16.9319 16.1866 16.3008 16.6743C16.3582 16.5882 16.4155 16.5308 16.4729 16.4448C16.5303 16.3587 16.6164 16.3013 16.7024 16.2439C17.018 15.9857 17.4197 15.8423 17.9074 15.7562C17.9647 15.7562 18.0508 15.7275 18.1082 15.7275C18.1369 15.7275 18.1656 15.7275 18.2229 15.7275C18.2516 15.7275 18.2803 15.7275 18.3377 15.7275C18.4811 15.7275 18.6246 15.7275 18.7967 15.7562C18.9115 15.7562 19.0549 15.7849 19.1697 15.8136C19.2844 15.8423 19.3992 15.871 19.5139 15.8997C22.2107 16.5595 24.9935 19.2563 25.7968 21.8957C25.8542 22.0678 25.8829 22.2112 25.9116 22.3834C25.9403 22.4694 25.9403 22.5555 25.9403 22.6129C25.969 22.7563 25.969 22.9285 25.969 23.0719C25.969 23.3588 25.9403 23.6457 25.9116 23.8752C25.8829 23.99 25.8542 24.1047 25.7968 24.2195C25.7395 24.5351 25.5673 24.7933 25.3665 24.9941Z" fill="#FFC61E"/>
<path d="M24.9657 25.3389C24.937 25.3676 24.8796 25.3962 24.851 25.4249C24.851 25.4249 24.851 25.4249 24.8223 25.4249C24.8223 25.4249 24.851 25.4249 24.851 25.3962C24.8796 25.3962 24.9083 25.3676 24.9657 25.3389Z" fill="#FFCB0A"/>
<path d="M25.3671 24.9941L25.3097 25.0515C25.281 25.0802 25.2523 25.1089 25.2236 25.1089L25.2523 25.0802C25.3097 25.0802 25.3384 25.0228 25.3671 24.9941Z" fill="#FFE28A"/>
<path d="M24.9653 25.3389C24.9367 25.3676 24.8793 25.3962 24.8506 25.4249C24.8793 25.3962 24.908 25.3676 24.9653 25.3389Z" fill="#FFE28A"/>
<path d="M25.2814 25.1094C25.2527 25.1381 25.224 25.1668 25.1953 25.1668C25.224 25.1381 25.2527 25.1381 25.2814 25.1094Z" fill="#FFE28A"/>
<path d="M20.6912 26.3433C18.4535 25.5114 16.2731 23.4171 15.3838 21.208C15.4699 21.3515 15.5272 21.4662 15.6133 21.6097C15.6994 21.7244 15.7567 21.8392 15.8428 21.9539C15.8715 21.9826 15.8715 22.0113 15.9002 22.0113C15.9863 22.1261 16.0723 22.2408 16.1584 22.3556C16.2445 22.4703 16.3305 22.5851 16.4166 22.6998C16.474 22.7859 16.56 22.872 16.6461 22.9867C16.6461 23.0154 16.6748 23.0154 16.7035 23.0441C16.7609 23.1015 16.8182 23.1875 16.8756 23.2449C16.9617 23.331 17.0191 23.4171 17.1051 23.5031C17.1912 23.5892 17.2773 23.7039 17.392 23.79C17.5928 23.9908 17.765 24.163 17.9658 24.3638C17.9945 24.3925 18.0519 24.4499 18.0806 24.4786C18.1953 24.5933 18.3101 24.6794 18.4248 24.7941C18.5109 24.8802 18.597 24.9376 18.683 25.0236C18.7404 25.081 18.7978 25.1097 18.8552 25.1671C19.0847 25.3392 19.3142 25.5114 19.5437 25.6548C19.6584 25.7409 19.8019 25.8269 19.9166 25.913C20.0314 25.9991 20.1748 26.0851 20.3183 26.1425C20.4044 26.1999 20.5478 26.286 20.6912 26.3433Z" fill="#FFE28A"/>
<path d="M24.8506 25.3965L24.8219 25.4252C24.7645 25.4539 24.6785 25.4826 24.6211 25.5112C24.7072 25.4826 24.7645 25.4539 24.8219 25.4252C24.8219 25.4252 24.8219 25.4252 24.8506 25.3965Z" fill="#FFE28A"/>
<path d="M26.8305 26.4282L25.8838 27.4036C25.0518 28.2643 23.6461 28.6086 21.8674 28.1782C18.2812 27.3176 14.5517 23.7315 13.5189 20.174C13.0025 18.3953 13.2607 16.9609 14.1213 16.0715L15.0681 15.0674C15.0107 15.1248 14.982 15.1534 14.9533 15.2108C14.9246 15.2395 14.9246 15.2395 14.8959 15.2682C14.8672 15.3256 14.8099 15.3543 14.7812 15.4117C14.7238 15.469 14.6951 15.5551 14.6664 15.6125C14.609 15.7272 14.5517 15.842 14.4943 15.9567C14.4656 16.0141 14.4656 16.0428 14.4369 16.1002C14.4082 16.1576 14.4082 16.2149 14.3795 16.2723C14.3508 16.3584 14.3508 16.4445 14.3222 16.5018C14.3222 16.5592 14.2935 16.5879 14.2935 16.6453C14.2935 16.7027 14.2648 16.7313 14.2648 16.7887C14.2648 16.8748 14.2361 16.9322 14.2361 17.0182C14.2361 17.1043 14.2361 17.1904 14.2074 17.3051C14.2074 17.592 14.2074 17.8789 14.2648 18.1945C14.2935 18.3092 14.2935 18.3953 14.3222 18.5101C14.3508 18.5961 14.3508 18.7109 14.3795 18.7969C14.3795 18.8256 14.3795 18.8543 14.4082 18.883C14.4369 18.9691 14.4656 19.0838 14.4943 19.1699C14.6664 19.7437 14.8959 20.3175 15.1828 20.8626C15.2115 20.9199 15.2689 21.006 15.2976 21.0634C15.3263 21.1208 15.355 21.1494 15.3836 21.2068C15.4697 21.3503 15.5271 21.465 15.6132 21.6085C15.6992 21.7232 15.7566 21.838 15.8427 21.9527C15.8714 21.9814 15.8714 22.0101 15.9 22.0101C15.9861 22.1249 16.0722 22.2396 16.1582 22.3544C16.2443 22.4691 16.3304 22.5839 16.4165 22.6986C16.4738 22.7847 16.5599 22.8708 16.646 22.9855C16.646 23.0142 16.6747 23.0142 16.7033 23.0429C16.7607 23.1003 16.8181 23.1864 16.8755 23.2437C16.9615 23.3298 17.0189 23.4159 17.105 23.5019C17.1911 23.588 17.2771 23.7028 17.3919 23.7888C17.5927 23.9896 17.7648 24.1618 17.9657 24.3626C17.9943 24.3913 18.0517 24.4487 18.0804 24.4774C18.1952 24.5921 18.3099 24.6782 18.4247 24.7929C18.5107 24.879 18.5968 24.9364 18.6829 25.0225C18.7403 25.0798 18.7976 25.1085 18.855 25.1659C19.0845 25.338 19.314 25.5102 19.5435 25.6536C19.6583 25.7397 19.8017 25.8257 19.9165 25.9118C20.0313 25.9979 20.1747 26.0839 20.3182 26.1413C20.4329 26.2274 20.5763 26.2848 20.6911 26.3421C20.6911 26.3421 20.6911 26.3421 20.7198 26.3421H20.7485C21.0928 26.5143 21.437 26.6864 21.7813 26.8012C21.8674 26.8299 21.9247 26.8585 21.9821 26.8872C22.0682 26.9159 22.1256 26.9446 22.2116 26.9733C22.2977 27.002 22.3838 27.0307 22.4698 27.0594C22.5846 27.0881 22.728 27.1454 22.8428 27.1741C23.187 27.2602 23.5026 27.3176 23.7895 27.3463C23.8756 27.3463 23.933 27.3463 24.019 27.3749C24.0477 27.3749 24.0764 27.3749 24.1051 27.3749C24.3059 27.3749 24.5067 27.3749 24.6789 27.3749C24.851 27.3749 25.0231 27.3463 25.1953 27.2889C25.3674 27.2602 25.5395 27.2028 25.683 27.1454C25.7691 27.1167 25.8264 27.0881 25.9125 27.0594C25.9986 27.0307 26.0559 27.002 26.1133 26.9446C26.142 26.9159 26.1707 26.9159 26.1994 26.8872C26.2568 26.8585 26.3141 26.8299 26.3428 26.8012C26.4002 26.7725 26.4863 26.7151 26.5437 26.6577C26.601 26.629 26.6297 26.6003 26.6871 26.543C26.7445 26.543 26.8019 26.4856 26.8305 26.4282Z" fill="#FFC61E"/>
<path d="M27.4326 22.3266C26.3998 18.7692 22.6416 15.1831 19.0842 14.3224C17.3054 13.8921 15.8997 14.2076 15.0677 15.097C15.0103 15.1544 14.9816 15.1831 14.9529 15.2404C14.9243 15.2691 14.9243 15.2691 14.8956 15.2978C14.8669 15.3552 14.8095 15.3839 14.7808 15.4413C14.7234 15.4986 14.6947 15.5847 14.6661 15.6421C14.6087 15.7568 14.5513 15.8716 14.4939 15.9864C14.4652 16.0437 14.4652 16.0724 14.4365 16.1298C14.4079 16.1872 14.4079 16.2446 14.3792 16.3019C14.3505 16.388 14.3505 16.4741 14.3218 16.5314C14.3218 16.5888 14.2931 16.6175 14.2931 16.6749C14.2931 16.7323 14.2644 16.761 14.2644 16.8183C14.2644 16.9044 14.2357 16.9618 14.2357 17.0478C14.2357 17.1339 14.2357 17.22 14.207 17.3347C14.207 17.6216 14.207 17.9085 14.2644 18.2241C14.2931 18.3388 14.2931 18.4249 14.3218 18.5397C14.3505 18.6257 14.3505 18.7405 14.3792 18.8266C14.3792 18.8552 14.3792 18.8839 14.4079 18.9126C14.4365 18.9987 14.4652 19.1134 14.4939 19.1995C14.6661 19.7733 14.8956 20.3471 15.1825 20.8922C15.2111 20.9495 15.2685 21.0356 15.2972 21.093C15.3259 21.1504 15.3546 21.1791 15.3833 21.2364C15.4693 21.3799 15.5267 21.4946 15.6128 21.6381C15.6989 21.7528 15.7562 21.8676 15.8423 21.9823C15.871 22.011 15.871 22.0397 15.8997 22.0397C15.9857 22.1545 16.0718 22.2692 16.1579 22.384C16.2439 22.4987 16.33 22.6135 16.4161 22.7283C16.4735 22.8143 16.5595 22.9004 16.6456 23.0151C16.6456 23.0438 16.6743 23.0438 16.703 23.0725C16.7603 23.1299 16.8177 23.216 16.8751 23.2733C16.9612 23.3594 17.0185 23.4455 17.1046 23.5315C17.1907 23.6176 17.2767 23.7324 17.3915 23.8184C17.5923 24.0193 17.7645 24.1914 17.9653 24.3922C17.994 24.4209 18.0514 24.4783 18.08 24.507C18.1948 24.6217 18.3096 24.7078 18.4243 24.8226C18.5104 24.9086 18.5964 24.966 18.6825 25.0521C18.7399 25.1094 18.7973 25.1381 18.8546 25.1955C19.0842 25.3676 19.3137 25.5398 19.5432 25.6832C19.6579 25.7693 19.8014 25.8554 19.9161 25.9414C20.0309 26.0275 20.1743 26.1136 20.3178 26.1709C20.4325 26.257 20.576 26.3144 20.6907 26.3718C20.6907 26.3718 20.6907 26.3718 20.7194 26.3718H20.7481C21.0924 26.5439 21.4366 26.716 21.7809 26.8308C21.867 26.8595 21.9244 26.8882 21.9817 26.9168C22.0678 26.9455 22.1252 26.9742 22.2112 27.0029C22.2973 27.0316 22.3834 27.0603 22.4695 27.089C22.5842 27.1177 22.7276 27.175 22.8424 27.2037C23.1867 27.2898 23.5023 27.3472 23.7891 27.3759C23.8752 27.3759 23.9326 27.3759 24.0187 27.4046C24.0473 27.4046 24.076 27.4046 24.1047 27.4046C24.3055 27.4046 24.5064 27.4046 24.6785 27.4046C24.8506 27.4046 25.0228 27.3759 25.1949 27.3185C25.367 27.2898 25.5392 27.2324 25.6826 27.175C25.7687 27.1464 25.8261 27.1177 25.9121 27.089C25.9982 27.0603 26.0556 27.0316 26.113 26.9742C26.1416 26.9455 26.1703 26.9455 26.199 26.9168C26.2564 26.8882 26.3138 26.8595 26.3425 26.8308C26.3998 26.7734 26.4859 26.7447 26.5433 26.6873C26.6007 26.6586 26.6294 26.63 26.6867 26.5726C26.7441 26.5152 26.8015 26.4865 26.8302 26.4291C27.6908 25.5685 27.9777 24.1053 27.4326 22.3266ZM25.3097 25.0521C25.281 25.0808 25.2523 25.1094 25.2236 25.1094C25.1949 25.1094 25.1949 25.1381 25.1662 25.1381C25.1662 25.1381 25.1662 25.1668 25.1375 25.1668C25.1375 25.1668 25.1088 25.1668 25.1088 25.1955C25.0801 25.2242 25.0515 25.2529 24.9941 25.2816L24.9654 25.3103C24.9367 25.3103 24.9367 25.339 24.908 25.339C24.8793 25.3676 24.8219 25.3963 24.7933 25.425C24.7933 25.425 24.7933 25.425 24.7646 25.425C24.7072 25.4537 24.6211 25.4824 24.5637 25.5111C24.5064 25.5398 24.449 25.5685 24.3629 25.5685C24.3055 25.5972 24.2195 25.5972 24.1621 25.6258C23.99 25.6545 23.8178 25.6832 23.6457 25.6832C23.5883 25.6832 23.5596 25.6832 23.5023 25.6832C23.4162 25.6832 23.3014 25.6832 23.2154 25.6832C23.1293 25.6832 23.0145 25.6545 22.9285 25.6545C22.8998 25.6545 22.8711 25.6545 22.8424 25.6545C22.7563 25.6545 22.6703 25.6258 22.6129 25.6258C22.5268 25.5972 22.4408 25.5972 22.3547 25.5685C19.6579 24.9086 16.8464 22.2119 16.0718 19.5438C16.0431 19.429 16.0144 19.3143 15.9857 19.1995C15.9571 19.0848 15.9284 18.9413 15.9284 18.8266C15.9284 18.7405 15.8997 18.6831 15.8997 18.597C15.8997 18.511 15.8997 18.4536 15.8997 18.3675C15.8997 18.1667 15.8997 17.9372 15.9284 17.7651C15.9571 17.5069 16.0431 17.2774 16.1292 17.0478C16.1866 16.9331 16.2726 16.7896 16.33 16.7036C16.3874 16.6175 16.4448 16.5601 16.5021 16.4741C16.5595 16.388 16.6456 16.3306 16.7317 16.2732C17.0472 16.015 17.4489 15.8716 17.9366 15.7855C17.994 15.7855 18.08 15.7568 18.1374 15.7568C18.1661 15.7568 18.1948 15.7568 18.2522 15.7568C18.2809 15.7568 18.3096 15.7568 18.3669 15.7568C18.5104 15.7568 18.6538 15.7568 18.826 15.7855C18.9407 15.7855 19.0842 15.8142 19.1989 15.8429C19.3137 15.8716 19.4284 15.9003 19.5432 15.929C22.2399 16.5888 25.0228 19.2856 25.8261 21.925C25.8834 22.0971 25.9121 22.2405 25.9408 22.4127C25.9695 22.4987 25.9695 22.5848 25.9695 22.6422C25.9982 22.7856 25.9982 22.9578 25.9982 23.1012C25.9982 23.3881 25.9695 23.675 25.9408 23.9045C25.9121 24.0193 25.8834 24.134 25.8261 24.2488C25.74 24.5644 25.5392 24.8512 25.3097 25.0521Z" fill="#FFCB0A"/>
<path d="M25.1652 25.1951C25.1078 25.2525 25.0791 25.2525 25.0505 25.2812L25.0218 25.3099C24.9931 25.3099 24.9931 25.3385 24.9644 25.3385C24.9357 25.3672 24.8783 25.3959 24.8496 25.3959C24.8496 25.3959 24.8209 25.3959 24.8209 25.4246C24.7636 25.4533 24.6775 25.482 24.6201 25.5107C24.5627 25.5394 24.5054 25.5681 24.4193 25.5681C24.3619 25.5968 24.2759 25.5967 24.2185 25.6254C24.0463 25.6541 23.8742 25.6828 23.7021 25.6828C23.6447 25.6828 23.616 25.6828 23.5586 25.6828C23.4726 25.6828 23.3578 25.6828 23.2717 25.6828C23.1857 25.6828 23.0709 25.6541 22.9848 25.6541C22.9562 25.6541 22.9275 25.6541 22.8988 25.6541C22.8127 25.6541 22.7267 25.6254 22.6693 25.6254C22.5832 25.5967 22.4971 25.5968 22.4111 25.5681C19.7143 24.9082 16.9028 22.2115 16.1282 19.5434C16.0995 19.4286 16.0708 19.3139 16.0421 19.1991C16.0134 19.0844 15.9847 18.9409 15.9847 18.8262C15.9847 18.7401 15.9561 18.6827 15.9561 18.5966C15.9561 18.5106 15.9561 18.4532 15.9561 18.3671C15.9561 18.1663 15.9561 17.9368 15.9847 17.7647C16.0134 17.5065 16.0995 17.277 16.1856 17.0474C16.2429 16.9327 16.329 16.7892 16.3864 16.7032C17.0175 16.1868 17.993 16.0433 19.1979 16.3302C21.8947 16.9901 24.6775 19.6868 25.4808 22.3262C25.7677 23.5311 25.6529 24.5353 25.1652 25.1951Z" fill="#FFC61E"/>
<path d="M24.9644 25.3379C24.9357 25.3666 24.8783 25.3953 24.8496 25.424C24.8496 25.424 24.8496 25.424 24.8209 25.424C24.7636 25.4526 24.6775 25.4813 24.6201 25.51C24.7062 25.4813 24.7636 25.4526 24.8209 25.424C24.8209 25.424 24.8496 25.424 24.8496 25.3953C24.8783 25.3953 24.907 25.3666 24.9644 25.3379Z" fill="#FFE28A"/>
</svg>
