<svg width="80" height="80" viewBox="0 0 80 80" fill="none" xmlns="http://www.w3.org/2000/svg">
<path d="M38.7457 70.1741L34.7082 67.8337L30.6707 70.1741L34.7082 72.5144L38.7457 70.1741Z" fill="#3B3532"/>
<path d="M34.7082 79.9999L30.6707 77.6596V70.1741L34.7082 72.5144V79.9999Z" fill="#139DC8"/>
<path d="M38.7458 77.6596L34.7083 79.9999V72.5144L38.7458 70.1741V77.6596Z" fill="#2FBAE5"/>
<path d="M68.6519 52.9165L64.6144 50.5762L60.5769 52.9165L64.6144 55.239L68.6519 52.9165Z" fill="#3B3532"/>
<path d="M64.6144 62.7421L60.5769 60.4017V52.9163L64.6144 55.2387V62.7421Z" fill="#139DC8"/>
<path d="M68.652 60.4017L64.6145 62.7421V55.2387L68.652 52.9163V60.4017Z" fill="#2FBAE5"/>
<path d="M16.1285 57.1147L12.0732 54.7744L8.03564 57.1147L12.0732 59.4372L16.1285 57.1147Z" fill="#3B3532"/>
<path d="M12.0732 66.9406L8.03564 64.6002V57.1147L12.0732 59.4372V66.9406Z" fill="#139DC8"/>
<path d="M16.1286 64.6002L12.0732 66.9406V59.4372L16.1286 57.1147V64.6002Z" fill="#2FBAE5"/>
<path d="M34.7085 48.736L68.6701 29.0129L68.7058 57.3292L34.7442 77.0344L34.7085 48.736Z" fill="#2FBAE5"/>
<path d="M37.0846 46.092L71.0461 26.3689L68.6701 29.0129L34.7085 48.736L37.0846 46.092Z" fill="#139DC8"/>
<path d="M37.1023 38.2135L71.0639 18.5083L71.0461 26.369L37.0845 46.092L37.1023 38.2135Z" fill="#2FBAE5"/>
<path d="M8 21.4201L41.9616 1.69702L71.0639 18.5081L37.1023 38.2133L8 21.4201Z" fill="#CECDC9"/>
<path d="M37.1023 38.2134L37.0844 46.0919L34.7083 48.7359L34.7441 77.0343L8 61.5988V21.4202L37.1023 38.2134Z" fill="#139DC8"/>
<path d="M12.9487 38.928V58.7404L29.7777 68.4769L29.7598 48.6287L12.9487 38.928Z" fill="#2E2A28"/>
<path d="M37.0844 36.4092L8 19.616V21.4203L37.0844 38.1957V36.4092Z" fill="#2E2A28"/>
<path d="M71.0639 18.5797L37.0845 38.1956V36.4091L71.0639 16.7932V18.5797Z" fill="#3B3532"/>
<path d="M37.0844 36.4091L8 19.6159L41.9973 0L71.0639 16.7932L37.0844 36.4091Z" fill="#453E3A"/>
<path d="M35.9051 21.6702C41.6574 21.6702 46.3205 18.9748 46.3205 15.6497C46.3205 12.3246 41.6574 9.62915 35.9051 9.62915C30.1529 9.62915 25.4897 12.3246 25.4897 15.6497C25.4897 18.9748 30.1529 21.6702 35.9051 21.6702Z" fill="#E2E2E2"/>
<path d="M65.6685 17.4899L61.9347 19.6516L38.3884 6.05621L42.1222 3.89453L65.6685 17.4899Z" fill="#E2E2E2"/>
<path d="M62.3277 16.9893C61.8453 16.9179 61.3273 17.0786 61.2022 17.3645C61.0771 17.6503 61.363 17.9362 61.8453 18.0076C62.3277 18.0791 62.8458 17.9183 62.9708 17.6325C63.1138 17.3466 62.8279 17.0608 62.3277 16.9893Z" fill="#453E3A"/>
<path d="M58.9869 15.0421C58.5045 14.9706 57.9864 15.1314 57.8614 15.4172C57.7363 15.7031 58.0222 15.9889 58.5045 16.0604C58.9869 16.1318 59.505 15.971 59.63 15.6852C59.7551 15.4172 59.4692 15.1314 58.9869 15.0421Z" fill="#453E3A"/>
<path d="M55.6282 13.1126C55.1459 13.0411 54.6278 13.2019 54.5027 13.4878C54.3777 13.7736 54.6635 14.0595 55.1459 14.1309C55.6282 14.2024 56.1463 14.0416 56.2714 13.7558C56.4143 13.4878 56.1285 13.1841 55.6282 13.1126Z" fill="#453E3A"/>
<path d="M52.2874 11.1832C51.8051 11.1117 51.287 11.2725 51.1619 11.5583C51.0369 11.8442 51.3227 12.13 51.8051 12.2015C52.2874 12.2729 52.8055 12.1121 52.9306 11.8263C53.0556 11.5405 52.7698 11.2546 52.2874 11.1832Z" fill="#453E3A"/>
<path d="M48.9288 9.25372C48.4464 9.18226 47.9283 9.34305 47.8033 9.62889C47.6782 9.91473 47.9641 10.2006 48.4464 10.272C48.9288 10.3435 49.4469 10.1827 49.5719 9.89686C49.7148 9.61102 49.429 9.32518 48.9288 9.25372Z" fill="#453E3A"/>
<path d="M45.588 7.30645C45.1056 7.23499 44.5875 7.39578 44.4625 7.68162C44.3374 7.96746 44.6232 8.25331 45.1056 8.32477C45.588 8.39623 46.106 8.23544 46.2311 7.9496C46.3562 7.68162 46.0703 7.39578 45.588 7.30645Z" fill="#453E3A"/>
<path d="M42.2293 5.37701C41.747 5.30555 41.2289 5.46634 41.1038 5.75218C40.9788 6.03802 41.2646 6.32386 41.747 6.39532C42.2293 6.46678 42.7474 6.306 42.8725 6.02016C43.0154 5.75218 42.7117 5.44847 42.2293 5.37701Z" fill="#453E3A"/>
<path d="M42.676 30.7633L38.96 32.9071L15.4138 19.3118L19.1298 17.168L42.676 30.7633Z" fill="#E2E2E2"/>
<path d="M39.3528 30.2454C38.8705 30.174 38.3524 30.3347 38.2273 30.6206C38.1023 30.9064 38.3881 31.1923 38.8705 31.2637C39.3529 31.3352 39.8709 31.1744 39.996 30.8886C40.1389 30.6206 39.8531 30.3169 39.3528 30.2454Z" fill="#453E3A"/>
<path d="M36.0123 28.316C35.5299 28.2445 35.0118 28.4053 34.8868 28.6911C34.7617 28.977 35.0476 29.2628 35.5299 29.3343C36.0123 29.4057 36.5304 29.245 36.6554 28.9591C36.7805 28.6733 36.4946 28.3874 36.0123 28.316Z" fill="#453E3A"/>
<path d="M42.015 18.6509C41.5326 18.5795 41.0145 18.7403 40.8895 19.0261C40.7644 19.3119 41.0502 19.5978 41.5326 19.6692C42.015 19.7407 42.533 19.5799 42.6581 19.2941C42.7832 19.0082 42.4973 18.7224 42.015 18.6509Z" fill="#453E3A"/>
<path d="M36.4051 19.7049C35.9227 19.6334 35.4046 19.7942 35.2796 20.0801C35.1545 20.3659 35.4404 20.6517 35.9227 20.7232C36.4051 20.7947 36.9232 20.6339 37.0482 20.348C37.1733 20.0622 36.8875 19.7764 36.4051 19.7049Z" fill="#453E3A"/>
<path d="M27.7943 15.7388C27.3119 15.6674 26.7938 15.8282 26.6688 16.114C26.5437 16.3998 26.8295 16.6857 27.3119 16.7571C27.7943 16.8286 28.3123 16.6678 28.4374 16.382C28.5625 16.114 28.2766 15.8103 27.7943 15.7388Z" fill="#453E3A"/>
<path d="M44.3731 14.5242C43.8908 14.4528 43.3727 14.6136 43.2476 14.8994C43.1226 15.1852 43.4084 15.4711 43.8908 15.5425C44.3731 15.614 44.8912 15.4532 45.0163 15.1674C45.1592 14.8815 44.8733 14.5957 44.3731 14.5242Z" fill="#453E3A"/>
<path d="M41.6934 11.1832C41.2111 11.1117 40.693 11.2725 40.5679 11.5583C40.4429 11.8442 40.7287 12.13 41.2111 12.2015C41.6934 12.2729 42.2115 12.1121 42.3366 11.8263C42.4795 11.5405 42.1936 11.2546 41.6934 11.1832Z" fill="#453E3A"/>
<path d="M36.9232 10.1292C36.4408 10.0577 35.9227 10.2185 35.7977 10.5044C35.6726 10.7902 35.9584 11.0761 36.4408 11.1475C36.9232 11.219 37.4413 11.0582 37.5663 10.7724C37.7092 10.4865 37.4055 10.2007 36.9232 10.1292Z" fill="#453E3A"/>
<path d="M32.6536 26.3865C32.1713 26.3151 31.6532 26.4759 31.5281 26.7617C31.4031 27.0475 31.6889 27.3334 32.1713 27.4048C32.6536 27.4763 33.1717 27.3155 33.2968 27.0297C33.4397 26.7438 33.136 26.458 32.6536 26.3865Z" fill="#453E3A"/>
<path d="M29.3126 24.4393C28.8302 24.3678 28.3121 24.5286 28.1871 24.8144C28.062 25.1003 28.3478 25.3861 28.8302 25.4576C29.3126 25.529 29.8307 25.3683 29.9557 25.0824C30.0808 24.8144 29.7949 24.5286 29.3126 24.4393Z" fill="#453E3A"/>
<path d="M25.9542 22.5098C25.4718 22.4384 24.9537 22.5991 24.8287 22.885C24.7036 23.1708 24.9895 23.4567 25.4718 23.5281C25.9542 23.5996 26.4723 23.4388 26.5973 23.153C26.7402 22.885 26.4365 22.5813 25.9542 22.5098Z" fill="#453E3A"/>
<path d="M22.6133 20.5804C22.131 20.5089 21.6129 20.6697 21.4878 20.9555C21.3628 21.2414 21.6486 21.5272 22.131 21.5987C22.6133 21.6702 23.1314 21.5094 23.2565 21.2235C23.3815 20.9377 23.0957 20.6518 22.6133 20.5804Z" fill="#453E3A"/>
<path d="M19.2547 18.6509C18.7723 18.5795 18.2543 18.7403 18.1292 19.0261C18.0041 19.3119 18.29 19.5978 18.7723 19.6692C19.2547 19.7407 19.7728 19.5799 19.8978 19.2941C20.0408 19.0082 19.7371 18.7224 19.2547 18.6509Z" fill="#453E3A"/>
<path d="M53.7882 7.21753C52.9485 7.69989 51.5907 7.69989 50.7511 7.21753C49.9114 6.73517 49.9114 5.94911 50.7511 5.46675C51.5907 4.98439 52.9485 4.98439 53.7882 5.46675C54.6278 5.94911 54.6278 6.73517 53.7882 7.21753Z" fill="#453E3A"/>
<path d="M53.0737 6.80676C52.6271 7.05687 51.9125 7.05687 51.4658 6.80676C51.0192 6.55664 51.0192 6.12788 51.4658 5.87777C51.9125 5.62766 52.6271 5.62766 53.0737 5.87777C53.5203 6.14575 53.5203 6.55664 53.0737 6.80676Z" fill="#E2E2E2"/>
<path d="M54.4136 6.34229V11.8626C54.4136 12.1842 54.2171 12.5057 53.7883 12.7559C52.9487 13.2382 51.5909 13.2382 50.7513 12.7559C50.3404 12.5236 50.126 12.202 50.126 11.8983V6.36015C50.126 6.68172 50.3404 6.98543 50.7513 7.21767C51.5909 7.70003 52.9487 7.70003 53.7883 7.21767C54.2171 6.98543 54.4315 6.66386 54.4136 6.34229Z" fill="url(#paint0_linear_133_59)"/>
<path d="M33.6719 9.03978C32.3499 9.80798 30.2061 9.80798 28.9019 9.03978C27.5799 8.27158 27.5799 7.03889 28.9019 6.28855C30.2239 5.52035 32.3677 5.52035 33.6719 6.28855C34.9939 7.03889 34.9939 8.27158 33.6719 9.03978Z" fill="#453E3A"/>
<path d="M32.5467 8.3964C31.8499 8.8073 30.7244 8.8073 30.0277 8.3964C29.3309 7.98551 29.3309 7.34236 30.0277 6.93146C30.7244 6.52057 31.8499 6.52057 32.5467 6.93146C33.2434 7.34236 33.2434 7.98551 32.5467 8.3964Z" fill="#E2E2E2"/>
<path d="M34.6546 7.64624V12.8986C34.6546 13.3988 34.333 13.9169 33.672 14.2921C32.35 15.0603 30.2062 15.0603 28.902 14.2921C28.2589 13.9169 27.9194 13.4167 27.9194 12.9343V7.68197C27.9194 8.18219 28.2589 8.66455 28.902 9.03972C30.224 9.80792 32.3678 9.80792 33.672 9.03972C34.333 8.66455 34.6724 8.14646 34.6546 7.64624Z" fill="url(#paint1_linear_133_59)"/>
<path d="M32.7967 14.6851C31.957 15.1674 30.5993 15.1674 29.7596 14.6851C28.92 14.2027 28.92 13.4166 29.7596 12.9343C30.5993 12.4519 31.957 12.4519 32.7967 12.9343C33.6364 13.4166 33.6364 14.2027 32.7967 14.6851Z" fill="#453E3A"/>
<path d="M31.2781 14.4707C31.9096 14.4707 32.4215 14.1748 32.4215 13.8097C32.4215 13.4446 31.9096 13.1487 31.2781 13.1487C30.6467 13.1487 30.1348 13.4446 30.1348 13.8097C30.1348 14.1748 30.6467 14.4707 31.2781 14.4707Z" fill="#E2E2E2"/>
<path d="M33.4219 13.7917V19.3121C33.4219 19.6336 33.2254 19.9552 32.7966 20.2053C31.957 20.6877 30.5992 20.6877 29.7596 20.2053C29.3487 19.9731 29.1343 19.6515 29.1343 19.3478V13.8275C29.1343 14.149 29.3487 14.4528 29.7596 14.685C30.5992 15.1674 31.957 15.1674 32.7966 14.685C33.2254 14.4349 33.4398 14.1133 33.4219 13.7917Z" fill="url(#paint2_linear_133_59)"/>
<path d="M63.203 32.872L61.5237 31.9072V24.0645L63.203 25.0113V32.872Z" fill="#2E2A28"/>
<path d="M72.7252 27.3696L63.2031 32.8721V25.0114L72.7252 19.5269V27.3696Z" fill="#AFAFAF"/>
<path d="M63.203 25.0113L61.5237 24.0645L71.0458 18.562L72.7251 19.5267L63.203 25.0113Z" fill="#453E3A"/>
<path d="M70.1704 22.8317C69.8846 22.9925 69.6523 23.4034 69.6523 23.7249C69.6523 24.0465 69.8846 24.1894 70.1704 24.0286C70.4563 23.8678 70.6885 23.4569 70.6885 23.1175C70.7064 22.8138 70.4741 22.6709 70.1704 22.8317Z" fill="#6D6D6D"/>
<path d="M70.5636 22.9211C70.4743 22.8675 70.3671 22.8853 70.242 22.9568C70.1706 22.9925 70.117 23.0461 70.0455 23.1176C69.9741 23.189 69.9205 23.2962 69.8669 23.3855C69.8133 23.4927 69.7954 23.6178 69.7954 23.725C69.7954 23.8679 69.849 23.9572 69.9205 24.0108L70.1884 24.1716L70.8137 23.0997L70.5636 22.9211Z" fill="#393633"/>
<path d="M70.5098 23.1177C70.2597 23.2606 70.0811 23.6001 70.0811 23.8859C70.0811 24.1718 70.2776 24.2789 70.5277 24.136C70.7778 23.9931 70.9743 23.6537 70.9743 23.3678C70.9564 23.082 70.7599 22.9748 70.5098 23.1177Z" fill="#44403C"/>
<path d="M70.1704 25.6185C69.8846 25.7793 69.6523 26.1902 69.6523 26.5118C69.6523 26.8334 69.8846 26.9763 70.1704 26.8155C70.4563 26.6547 70.6885 26.2438 70.6885 25.9044C70.7064 25.6007 70.4741 25.4577 70.1704 25.6185Z" fill="#6D6D6D"/>
<path d="M70.5636 25.7079C70.4743 25.6543 70.3671 25.6722 70.242 25.7437C70.1706 25.7794 70.117 25.833 70.0455 25.9044C69.9741 25.9759 69.9205 26.0831 69.8669 26.1724C69.8133 26.2796 69.7954 26.4047 69.7954 26.5119C69.7954 26.6548 69.849 26.7441 69.9205 26.7977L70.1884 26.9585L70.8137 25.8866L70.5636 25.7079Z" fill="#393633"/>
<path d="M70.5098 25.9046C70.2597 26.0475 70.0811 26.3869 70.0811 26.6728C70.0811 26.9586 70.2776 27.0658 70.5277 26.9229C70.7778 26.78 70.9743 26.4405 70.9743 26.1547C70.9564 25.8689 70.7599 25.7617 70.5098 25.9046Z" fill="#44403C"/>
<path d="M65.597 28.3522C65.3111 28.513 65.0789 28.9239 65.0789 29.2454C65.0789 29.567 65.3111 29.7099 65.597 29.5492C65.8828 29.3884 66.115 28.9775 66.115 28.638C66.115 28.3165 65.8828 28.1914 65.597 28.3522Z" fill="#6D6D6D"/>
<path d="M65.9721 28.4416C65.8827 28.388 65.7755 28.4058 65.6505 28.4773C65.579 28.513 65.5254 28.5666 65.454 28.6381C65.3825 28.7095 65.3289 28.8167 65.2753 28.9061C65.2217 29.0132 65.2039 29.1383 65.2039 29.2455C65.2039 29.3884 65.2575 29.4777 65.3289 29.5313L65.5969 29.6921C65.5254 29.6385 65.4718 29.5492 65.4718 29.4063C65.4718 29.2991 65.5076 29.1919 65.5433 29.0668C65.579 28.9775 65.6505 28.8703 65.7219 28.7989C65.7755 28.7274 65.847 28.6738 65.9185 28.6381C66.0435 28.5666 66.1507 28.5666 66.24 28.6023L65.9721 28.4416Z" fill="#6E6F74"/>
<path d="M65.9366 28.6201C65.6865 28.763 65.5078 29.1025 65.5078 29.3883C65.5078 29.6741 65.7043 29.7813 65.9544 29.6384C66.2046 29.4955 66.4011 29.156 66.4011 28.8702C66.3653 28.6022 66.1688 28.4772 65.9366 28.6201Z" fill="#E2E2E8"/>
<path d="M67.6336 27.173C67.3477 27.3338 67.1155 27.7447 67.1155 28.0662C67.1155 28.3878 67.3477 28.5307 67.6336 28.37C67.9194 28.2092 68.1517 27.7983 68.1517 27.4588C68.1517 27.1373 67.9194 27.0122 67.6336 27.173Z" fill="#6D6D6D"/>
<path d="M68.0087 27.2624C67.9194 27.2088 67.8122 27.2266 67.6871 27.2981C67.6156 27.3338 67.562 27.3874 67.4906 27.4589C67.4191 27.5303 67.3655 27.6375 67.3119 27.7269C67.2583 27.834 67.2405 27.9591 67.2405 28.0663C67.2405 28.2092 67.2941 28.2985 67.3655 28.3521L67.6335 28.5129C67.5621 28.4593 67.5085 28.37 67.5085 28.2271C67.5085 28.1199 67.5442 28.0127 67.5799 27.8876C67.6156 27.7983 67.6871 27.6911 67.7586 27.6197C67.8122 27.5482 67.8836 27.4946 67.9551 27.4589C68.0801 27.3874 68.1873 27.3874 68.2767 27.4232L68.0087 27.2624Z" fill="#139DC8"/>
<path d="M67.9551 27.4412C67.705 27.5841 67.5264 27.9235 67.5264 28.2094C67.5264 28.4952 67.7229 28.6024 67.973 28.4595C68.2231 28.3165 68.4196 27.9771 68.4196 27.6913C68.4018 27.4233 68.2052 27.3161 67.9551 27.4412Z" fill="#2FBAE5"/>
<path d="M65.597 25.5114C65.3111 25.6722 65.0789 26.0831 65.0789 26.4047C65.0789 26.7262 65.3111 26.8692 65.597 26.7084C65.8828 26.5476 66.115 26.1367 66.115 25.7973C66.115 25.4757 65.8828 25.3328 65.597 25.5114Z" fill="#6D6D6D"/>
<path d="M65.9721 25.6007C65.8827 25.5471 65.7755 25.565 65.6505 25.6365C65.579 25.6722 65.5254 25.7258 65.454 25.7973C65.3825 25.8687 65.3289 25.9759 65.2753 26.0652C65.2217 26.1724 65.2039 26.2975 65.2039 26.4047C65.2039 26.5476 65.2575 26.6369 65.3289 26.6905L65.5969 26.8513C65.5254 26.7977 65.4718 26.7084 65.4718 26.5655C65.4718 26.4583 65.5076 26.3511 65.5433 26.226C65.579 26.1367 65.6505 26.0295 65.7219 25.958C65.7755 25.8866 65.847 25.833 65.9185 25.7973C66.0435 25.7258 66.1507 25.7258 66.24 25.7615L65.9721 25.6007Z" fill="#393633"/>
<path d="M65.9366 25.7793C65.6865 25.9222 65.5078 26.2616 65.5078 26.5475C65.5078 26.8333 65.7043 26.9405 65.9544 26.7976C66.2046 26.6547 66.4011 26.3152 66.4011 26.0294C66.3653 25.7614 66.1688 25.6364 65.9366 25.7793Z" fill="#44403C"/>
<path d="M67.6336 24.3324C67.3477 24.4932 67.1155 24.9041 67.1155 25.2257C67.1155 25.5472 67.3477 25.6902 67.6336 25.5294C67.9194 25.3686 68.1517 24.9577 68.1517 24.6183C68.1517 24.2967 67.9194 24.1716 67.6336 24.3324Z" fill="#6D6D6D"/>
<path d="M68.0087 24.4215C67.9194 24.3679 67.8122 24.3858 67.6871 24.4573C67.6156 24.493 67.562 24.5466 67.4906 24.6181C67.4191 24.6895 67.3655 24.7967 67.3119 24.886C67.2583 24.9932 67.2405 25.1183 67.2405 25.2255C67.2405 25.3684 67.2941 25.4577 67.3655 25.5113L67.6335 25.6721C67.5621 25.6185 67.5085 25.5292 67.5085 25.3863C67.5085 25.2791 67.5442 25.1719 67.5799 25.0468C67.6156 24.9575 67.6871 24.8503 67.7586 24.7788C67.8122 24.7074 67.8836 24.6538 67.9551 24.6181C68.0801 24.5466 68.1873 24.5466 68.2767 24.5823L68.0087 24.4215Z" fill="#393633"/>
<path d="M67.9551 24.6003C67.705 24.7432 67.5264 25.0827 67.5264 25.3685C67.5264 25.6544 67.7229 25.7616 67.973 25.6186C68.2231 25.4757 68.4196 25.1363 68.4196 24.8504C68.4018 24.5825 68.2052 24.4574 67.9551 24.6003Z" fill="#44403C"/>
<path d="M11.2694 31.0852C11.1443 31.0137 11.055 30.9065 10.9836 30.7636C10.93 30.6385 10.93 30.5135 10.9836 30.442L12.645 28.5126C12.6986 28.4411 12.8058 28.4411 12.9309 28.5126C13.038 28.584 13.1452 28.6912 13.2167 28.8342L14.8782 32.6752C14.9317 32.8181 14.9317 32.9253 14.8782 32.9967C14.8246 33.0682 14.7174 33.0682 14.5923 32.9967L11.2694 31.0852Z" fill="#3B3532"/>
<path d="M11.1444 30.6386L12.8059 28.7091C12.8416 28.6734 12.9309 28.727 12.9667 28.7985L14.6281 32.6395C14.6639 32.7288 14.6281 32.7645 14.5567 32.7288L11.2338 30.7993C11.1623 30.7815 11.1087 30.6743 11.1444 30.6386Z" fill="#CA9B2B"/>
<path d="M12.7522 30.7995C12.7165 30.7816 12.6807 30.728 12.6807 30.6923L12.5914 29.5311C12.5557 29.1202 13.1452 29.4953 13.1095 29.8348L13.0202 30.9067C13.0202 30.9424 12.9844 30.9603 12.9487 30.9246L12.7522 30.7995ZM12.8415 31.1032C12.7165 31.0317 12.6271 31.0675 12.6271 31.1925C12.6271 31.3176 12.7343 31.4784 12.8415 31.5498C12.9666 31.6213 13.0559 31.5856 13.0559 31.4605C13.0559 31.3355 12.9666 31.1747 12.8415 31.1032Z" fill="#3B3532"/>
<defs>
<linearGradient id="paint0_linear_133_59" x1="50.1238" y1="9.71781" x2="54.4183" y2="9.71781" gradientUnits="userSpaceOnUse">
<stop stop-color="#2E2A28"/>
<stop offset="1" stop-color="#3B3532"/>
</linearGradient>
<linearGradient id="paint1_linear_133_59" x1="27.9053" y1="11.2536" x2="34.6602" y2="11.2536" gradientUnits="userSpaceOnUse">
<stop stop-color="#2E2A28"/>
<stop offset="1" stop-color="#3B3532"/>
</linearGradient>
<linearGradient id="paint2_linear_133_59" x1="29.1356" y1="17.1766" x2="33.4301" y2="17.1766" gradientUnits="userSpaceOnUse">
<stop stop-color="#2E2A28"/>
<stop offset="1" stop-color="#3B3532"/>
</linearGradient>
</defs>
</svg>
