<svg width="80" height="81" viewBox="0 0 80 81" fill="none" xmlns="http://www.w3.org/2000/svg">
<path d="M27.031 4.23476L22.4872 1.61755C22.1964 1.45398 21.8329 1.45398 21.5421 1.61755C21.4512 1.67208 21.3785 1.7266 21.3058 1.79931C21.2513 1.81748 21.1786 1.81748 21.1241 1.85383C21.0332 1.90836 20.9605 1.96288 20.8878 2.03558C20.8333 2.05376 20.7606 2.05376 20.7061 2.09011C20.6152 2.14463 20.5425 2.19916 20.4698 2.27186C20.4153 2.29003 20.3426 2.29003 20.288 2.32638C20.1972 2.38091 20.1245 2.43543 20.0518 2.50813C19.9972 2.52631 19.9245 2.52631 19.87 2.56266C19.5792 2.72623 19.3975 3.03521 19.3975 3.38053V12.5589C19.3975 13.086 19.5247 13.6313 19.7428 14.1038L21.1423 17.0482C21.1786 17.139 21.2695 17.1754 21.3604 17.1754C21.3967 17.1754 21.4331 17.1754 21.4512 17.1572C21.5603 17.1027 21.6148 16.9573 21.5603 16.8482V16.8119C21.5966 16.9028 21.6875 16.9391 21.7784 16.9391C21.8147 16.9391 21.8511 16.9391 21.8693 16.9209C21.9783 16.8664 22.0328 16.721 21.9783 16.612V16.5756C22.0147 16.6665 22.1055 16.7028 22.1964 16.7028C22.2328 16.7028 22.2691 16.7028 22.2873 16.6847C22.3963 16.6301 22.4509 16.4847 22.3963 16.3757V16.3393C22.4327 16.4302 22.5236 16.4666 22.6144 16.4666C22.6508 16.4666 22.6871 16.4666 22.7053 16.4484C22.8144 16.3939 22.8689 16.2485 22.8144 16.1394V16.1031C22.8507 16.1939 22.9416 16.2303 23.0325 16.2303C23.0688 16.2303 23.1052 16.2303 23.1233 16.2121C23.2324 16.1576 23.2869 16.0122 23.2324 15.9031L21.8329 12.9588C21.633 12.5408 21.5239 12.0682 21.5239 11.5957V3.52593L25.1226 5.59789C25.2317 5.65241 25.377 5.61607 25.4316 5.50701C25.4679 5.43431 25.4497 5.36161 25.4134 5.28891L25.5225 5.36161C25.6315 5.41614 25.7769 5.37979 25.8314 5.27074C25.8678 5.19804 25.8496 5.10716 25.8132 5.05264L25.9223 5.12534C26.0314 5.17986 26.1768 5.14351 26.2313 5.03446C26.2676 4.96176 26.2495 4.88906 26.2131 4.81636L26.3222 4.88906C26.4312 4.94359 26.5766 4.90724 26.6311 4.79819C26.6675 4.72549 26.6493 4.63461 26.613 4.58009L26.722 4.65279C26.8311 4.70731 26.9765 4.67096 27.031 4.56191C27.1764 4.43469 27.14 4.28929 27.031 4.23476Z" fill="#747474"/>
<path d="M28.2853 67.7385L20.6699 63.3402V5.45264L28.2853 9.851V67.7385Z" fill="#139DC8"/>
<path d="M37.7364 62.2678L28.2854 67.7385V9.85095L37.7364 4.39844V62.2678Z" fill="#2FBAE5"/>
<path d="M37.7364 62.2677L28.2854 67.7384V22.119L37.7364 16.6665V62.2677Z" fill="#3B3532"/>
<path d="M28.2853 9.85087L20.6699 5.45251L30.1209 0L37.7363 4.39836L28.2853 9.85087Z" fill="#58D8FF"/>
<path d="M36.0277 78.2982L22.4509 70.4466V43.7292L36.0277 51.5627V78.2982Z" fill="#C5C2B8"/>
<path d="M56.6565 66.3754L36.0278 78.2982V51.5627L56.6565 39.6399V66.3754Z" fill="#DEDBD5"/>
<path d="M36.0277 51.5627L22.4509 43.7292L43.0796 31.8064L56.6564 39.6398L36.0277 51.5627Z" fill="#F0EDEA"/>
<path d="M25.5953 56.0155L13 48.7637V50.3994L25.5953 57.6513V56.0155Z" fill="#C5C2B8"/>
<path d="M66.0529 34.2964L25.5952 57.6513V56.0156L66.0529 32.6606V34.2964Z" fill="#DEDBD5"/>
<path d="M25.5953 56.0156L13 48.7637L53.4758 25.3906L66.053 32.6606L25.5953 56.0156Z" fill="#F0EDEA"/>
<path d="M39.6807 80.4062L33.792 76.9893L36.0275 65.1755L39.6807 67.2838V80.4062Z" fill="#C5C2B8"/>
<path d="M60.3093 68.4832L39.6807 80.4061V67.2837L60.3093 55.3608V68.4832Z" fill="#DEDBD5"/>
<path d="M39.6808 67.2838L36.0276 65.1755L56.6744 53.2527L60.3095 55.361L39.6808 67.2838Z" fill="#F0EDEA"/>
<path d="M28.2307 54.5069L39.9536 47.7095L43.5705 49.7996L31.8475 56.5971L28.2307 54.5069Z" fill="#F0EDEA"/>
<path d="M35.5189 61.4498L47.2418 54.6523V55.6883L35.5007 62.4858L35.5189 61.4498Z" fill="#DEDBD5"/>
<path d="M31.8474 56.597L43.5703 49.7996L47.2417 54.6523L35.5188 61.4498L31.8474 56.597Z" fill="#F4F2EE"/>
<path d="M43.4431 50.3994L32.5017 56.7425C32.5562 56.8152 35.5551 60.7955 35.6278 60.8682L46.5692 54.5252C46.5147 54.4525 43.4976 50.4721 43.4431 50.3994ZM32.7016 56.7789L43.4067 50.563L46.3693 54.4888L35.6642 60.7047L32.7016 56.7789Z" fill="#C5C2B8"/>
<path d="M31.8475 56.597L35.5189 61.4497L35.5007 62.4857L28.2307 58.2872V54.5068L31.8475 56.597Z" fill="#C5C2B8"/>
<path d="M59.6555 35.7137L47.4782 28.6436L47.4419 20.4648L59.6192 27.5349L59.6555 35.7137Z" fill="#139DC8"/>
<path d="M59.6192 27.5349L47.4419 20.4648L48.0053 20.1377L60.1826 27.2078L59.6192 27.5349Z" fill="#58D8FF"/>
<path d="M31.9568 51.6898L19.7795 44.6378L47.4783 28.6438L59.6556 35.7139L31.9568 51.6898Z" fill="#58D8FF"/>
<path d="M31.3933 50.6717L19.2161 43.6016L19.7795 43.2744L31.9568 50.3445L31.3933 50.6717Z" fill="#58D8FF"/>
<path d="M31.3933 52.6709L19.2161 45.6008V43.6016L31.3933 50.6717V52.6709Z" fill="#139DC8"/>
<path d="M60.1826 27.2078L60.2189 36.0408L31.3933 52.671V50.6717L31.9567 50.3446V51.6896L59.6555 35.7137L59.6192 27.5349L60.1826 27.2078Z" fill="#2FBAE5"/>
<path d="M34.8281 48.7094L31.8838 47.0009L24.6138 42.8025V41.6211L34.8281 47.5098V48.7094Z" fill="#2E2A28"/>
<path d="M54.2027 37.5134L34.8281 48.7092V47.5097L54.2027 36.332V37.5134Z" fill="#3B3532"/>
<path d="M34.8281 47.7094L24.6138 41.8207V41.1846L34.8281 47.0915V47.7094Z" fill="#929292"/>
<path d="M54.2027 36.5318L34.8281 47.7094V47.0915L54.2027 35.9138V36.5318Z" fill="#AFAFAF"/>
<path d="M34.8281 47.0916L24.6138 41.1847L43.9702 30.0071L54.2027 35.914L34.8281 47.0916Z" fill="#E2E2E2"/>
<path d="M29.1577 27.0989L36.5004 31.3518V33.7146L29.1577 29.4798V27.0989Z" fill="#C5C2B8"/>
<path d="M43.8432 29.4798L36.5005 33.7146V31.3518L43.8432 27.0989V29.4798Z" fill="#DEDBD5"/>
<path d="M36.5004 31.352L29.1577 27.099L36.5004 22.8643L43.8432 27.099L36.5004 31.352Z" fill="#F0EDEA"/>
<path d="M44.6789 25.0815C43.8792 24.609 42.7705 24.6635 41.5346 25.3723C39.0991 26.7718 37.1362 30.1887 37.1362 33.0059C37.1362 34.3872 37.6088 35.3686 38.3903 35.8412L40.8803 37.277L47.1689 26.5174L44.6789 25.0815Z" fill="#747474"/>
<path d="M39.6082 34.4418C39.6082 37.259 41.5892 38.3858 44.0065 36.9863C46.442 35.5869 48.4049 32.17 48.4049 29.3528C48.4049 26.5357 46.4238 25.4088 44.0065 26.8083C41.5892 28.226 39.6082 31.6429 39.6082 34.4418Z" fill="#9C9C9B"/>
<path d="M39.3173 36.9135L35.1189 34.478V27.3716L39.3173 29.7889V36.9135Z" fill="#139DC8"/>
<path d="M36.6456 28.8438L35.646 28.2622V34.1873L36.6456 34.7689V28.8438Z" fill="#3B3532"/>
<path d="M48.8048 31.4248L39.3174 36.9137V29.789L48.8048 24.3184V31.4248Z" fill="#2FBAE5"/>
<path d="M39.3173 29.7888L35.1189 27.3716L44.6063 21.9009L48.8047 24.3182L39.3173 29.7888Z" fill="#58D8FF"/>
<path d="M43.3523 32.2972C43.3523 32.7334 43.6613 32.897 44.0248 32.6789C44.3883 32.4608 44.6972 31.9337 44.6972 31.5157C44.6972 31.0795 44.3883 30.9159 44.0248 31.134C43.6613 31.3521 43.3523 31.861 43.3523 32.2972Z" fill="#DEDBD5"/>
<path d="M53.7849 41.7119C54.003 41.5847 54.2029 41.5665 54.3483 41.6574L56.9292 43.1477C57.0746 43.2386 57.1655 43.4022 57.1655 43.6566C57.1655 44.1655 56.802 44.7835 56.3658 45.0379C56.1659 45.147 55.9659 45.1652 55.8205 45.1106C55.7842 45.0925 53.2033 43.6021 53.2033 43.6021C53.0579 43.5112 52.967 43.3477 52.967 43.0932C53.0034 42.5843 53.3487 41.9664 53.7849 41.7119Z" fill="#A5A298"/>
<path d="M55.5116 41.1121C56.1114 40.7667 56.6566 40.7304 57.0383 40.9667L57.8744 41.4392L54.8209 46.6736L53.9849 46.2011C53.6032 45.983 53.3669 45.4922 53.3669 44.8198C53.3669 43.4566 54.3302 41.8027 55.5116 41.1121Z" fill="#453E3A"/>
<path d="M54.2031 45.2923C54.2031 46.6554 55.1664 47.2007 56.3296 46.5282C57.511 45.8557 58.4561 44.1836 58.4561 42.8387C58.4561 41.4755 57.4928 40.9303 56.3296 41.6028C55.1482 42.2752 54.2031 43.9292 54.2031 45.2923Z" fill="#35312E"/>
<path d="M55.0571 44.8015C55.0571 45.6194 55.6206 45.9466 56.3294 45.5285C57.0382 45.1287 57.6016 44.1291 57.6016 43.3294C57.6016 42.5115 57.0382 42.1843 56.3294 42.6023C55.6387 43.0022 55.0571 43.9837 55.0571 44.8015Z" fill="#2E2A28"/>
<path d="M55.9478 44.2926C55.9478 44.547 56.1295 44.6379 56.3294 44.5107C56.5475 44.3834 56.7111 44.0926 56.7111 43.8382C56.7111 43.5837 56.5294 43.4929 56.3294 43.6201C56.1295 43.7291 55.9478 44.0381 55.9478 44.2926Z" fill="#35312E"/>
<path d="M55.8568 45.8558C55.9295 45.8012 56.0204 45.8012 56.0568 45.8376L58.674 47.3461C58.7285 47.3825 58.7648 47.437 58.7648 47.5279C58.7648 47.7096 58.6376 47.9459 58.474 48.0368C58.4013 48.0731 58.3286 48.0913 58.2741 48.0549C58.2559 48.0549 55.6387 46.5282 55.6387 46.5282C55.5842 46.4919 55.5479 46.4374 55.5479 46.3465C55.566 46.1647 55.6933 45.9466 55.8568 45.8558Z" fill="#453E3A"/>
<path d="M46.4602 45.9465C46.6783 45.8193 46.8782 45.8011 47.0236 45.892L49.6045 47.3824C49.7499 47.4732 49.8408 47.6368 49.8408 47.8913C49.8408 48.4002 49.4773 49.0181 49.0411 49.2726C48.8411 49.3816 48.6412 49.3998 48.4958 49.3453C48.4595 49.3271 45.8786 47.8367 45.8786 47.8367C45.7332 47.7459 45.6423 47.5823 45.6423 47.3278C45.6605 46.8189 46.024 46.201 46.4602 45.9465Z" fill="#A5A298"/>
<path d="M48.1686 45.3467C48.7684 45.0014 49.3136 44.965 49.6953 45.2013L50.5313 45.6738L47.4779 50.8901L46.6419 50.4175C46.2602 50.1994 46.0239 49.7087 46.0239 49.0362C46.0421 47.6913 47.0054 46.0373 48.1686 45.3467Z" fill="#453E3A"/>
<path d="M46.8601 49.5269C46.8601 50.89 47.8234 51.4353 48.9866 50.7628C50.168 50.0903 51.1131 48.4182 51.1131 47.0733C51.1131 45.7102 50.1498 45.1649 48.9866 45.8374C47.8234 46.5099 46.8601 48.1638 46.8601 49.5269Z" fill="#35312E"/>
<path d="M47.7324 49.0361C47.7324 49.854 48.2958 50.1812 49.0047 49.7632C49.7135 49.3633 50.2769 48.3637 50.2769 47.564C50.2769 46.7461 49.7135 46.4189 49.0047 46.837C48.2958 47.2368 47.7324 48.2183 47.7324 49.0361Z" fill="#2E2A28"/>
<path d="M48.623 48.5272C48.623 48.7816 48.8048 48.8725 49.0047 48.7453C49.2228 48.6181 49.3864 48.3273 49.3864 48.0728C49.3864 47.8184 49.2046 47.7275 49.0047 47.8547C48.7866 47.9638 48.623 48.2727 48.623 48.5272Z" fill="#35312E"/>
<path d="M48.532 50.0901C48.6047 50.0356 48.6956 50.0356 48.7319 50.072L51.3673 51.5805C51.4218 51.6168 51.4582 51.6714 51.4582 51.7622C51.4582 51.944 51.331 52.1803 51.1674 52.2711C51.0947 52.3075 51.022 52.3257 50.9675 52.2893C50.9493 52.2893 48.3321 50.7626 48.3321 50.7626C48.2776 50.7263 48.2412 50.6717 48.2412 50.5809C48.2412 50.3991 48.3684 50.181 48.532 50.0901Z" fill="#453E3A"/>
<path d="M33.9739 65.4664L27.7944 61.8859V60.6318L33.9739 64.2123V65.4664Z" fill="#A5A298"/>
<path d="M33.7376 64.903L27.3945 61.2316L27.7217 60.4683L34.0648 64.1396L33.7376 64.903Z" fill="#DEDBD5"/>
<path d="M33.9739 67.3204L27.7944 63.7399V62.4858L33.9739 66.0663V67.3204Z" fill="#A5A298"/>
<path d="M33.7376 66.757L27.3945 63.0856L27.7217 62.3223L34.0648 65.9936L33.7376 66.757Z" fill="#DEDBD5"/>
<path d="M33.9739 69.1742L27.7944 65.5937V64.3396L33.9739 67.9201V69.1742Z" fill="#A5A298"/>
<path d="M33.7376 68.6107L27.3945 64.9394L27.7217 64.176L34.0648 67.8474L33.7376 68.6107Z" fill="#DEDBD5"/>
<path d="M33.9739 71.0279L27.7944 67.4474V66.1934L33.9739 69.7738V71.0279Z" fill="#A5A298"/>
<path d="M33.7376 70.4647L27.3945 66.7934L27.7217 66.03L34.0648 69.7014L33.7376 70.4647Z" fill="#DEDBD5"/>
<path d="M23.1416 16.6848C23.0689 16.6485 22.9962 16.5576 22.9599 16.4667C22.9235 16.3758 22.9235 16.3031 22.9599 16.2486L24.0686 14.9582C24.1049 14.9218 24.1776 14.9218 24.2503 14.9582C24.323 14.9945 24.3957 15.0854 24.4321 15.1763L25.5407 17.7571C25.5771 17.848 25.5771 17.9207 25.5407 17.9752C25.5044 18.0116 25.4317 18.0116 25.359 17.9752L23.1416 16.6848Z" fill="#3B3532"/>
<path d="M23.0507 16.3759L24.1594 15.0854C24.1776 15.0491 24.2503 15.0854 24.2684 15.14L25.3771 17.7208C25.3953 17.7753 25.3771 17.8117 25.3226 17.7753L23.0871 16.4849C23.0507 16.4849 23.0144 16.4122 23.0507 16.3759Z" fill="#CA9B2B"/>
<path d="M24.1231 16.5031C24.1049 16.4849 24.0686 16.4486 24.0686 16.4304L24.014 15.6489C23.9959 15.3763 24.3957 15.6307 24.3594 15.8488L24.3048 16.5576C24.3048 16.5758 24.2867 16.594 24.2503 16.5758L24.1231 16.5031ZM24.1776 16.703C24.0867 16.6485 24.0322 16.6849 24.0322 16.7576C24.0322 16.8484 24.1049 16.9393 24.1776 16.9938C24.2503 17.0484 24.323 17.012 24.323 16.9393C24.323 16.8484 24.2685 16.7394 24.1776 16.703Z" fill="#3B3532"/>
<path d="M47.769 27.1173C47.9871 26.99 48.1688 26.7174 48.1688 26.4993V25.7723C48.1688 25.5542 47.9871 25.4815 47.769 25.6087L45.7333 26.7901C45.5152 26.9173 45.3335 27.19 45.3335 27.4081V28.1351C45.3335 28.3532 45.5152 28.4259 45.7333 28.2987L47.769 27.1173Z" fill="#3B3532"/>
<path d="M45.7332 28.1895L47.7688 27.0081C47.9324 26.9173 48.0596 26.7173 48.0596 26.5538V25.8268C48.0596 25.6632 47.9324 25.6087 47.7688 25.6995L45.7332 26.8809C45.5696 26.9718 45.4424 27.1717 45.4424 27.3353V28.0623C45.4606 28.244 45.5878 28.2986 45.7332 28.1895Z" fill="#EDBC4F"/>
<path d="M45.824 27.2807L47.696 26.1902V26.0994L45.824 27.1899V27.2807Z" fill="#3B3532"/>
<path d="M45.824 27.5351L47.696 26.4446V26.3538L45.824 27.4443V27.5351Z" fill="#3B3532"/>
<path d="M45.824 27.7897L47.696 26.6992V26.6265L45.824 27.6988V27.7897Z" fill="#3B3532"/>
<path d="M35.3372 56.6883C35.5371 56.9609 35.5008 57.288 35.2463 57.4334C34.9919 57.5788 34.6102 57.488 34.4103 57.2153C34.2103 56.9427 34.2467 56.6156 34.5011 56.4702C34.7556 56.3248 35.1373 56.4156 35.3372 56.6883Z" fill="#453E3A"/>
<path d="M36.7911 55.8521C36.991 56.1247 36.9546 56.4519 36.7002 56.5973C36.4457 56.7427 36.0822 56.6518 35.8641 56.3792C35.6642 56.1065 35.7006 55.7794 35.955 55.634C36.2095 55.4886 36.573 55.5794 36.7911 55.8521Z" fill="#453E3A"/>
<path d="M38.2271 55.0159C38.427 55.2885 38.3907 55.6157 38.1362 55.7611C37.8818 55.9065 37.5183 55.8156 37.3002 55.543C37.1002 55.2703 37.1366 54.9432 37.391 54.7978C37.6455 54.6524 38.0272 54.7433 38.2271 55.0159Z" fill="#C7C6C5"/>
<path d="M39.3901 54.7073C39.481 54.8345 39.4628 54.9981 39.3538 55.0708C39.2266 55.1435 39.0448 55.089 38.9539 54.9617C38.8631 54.8345 38.8812 54.6709 38.9903 54.5982C39.1175 54.5255 39.2811 54.5801 39.3901 54.7073Z" fill="#DEDBD5"/>
<path d="M40.2988 54.1799C40.3897 54.3072 40.3715 54.4707 40.2625 54.5434C40.1353 54.6161 39.9535 54.5616 39.8626 54.4344C39.7718 54.3072 39.7899 54.1436 39.899 54.0709C40.008 53.9982 40.208 54.0527 40.2988 54.1799Z" fill="#DEDBD5"/>
<path d="M41.2258 53.653C41.3167 53.7802 41.2985 53.9438 41.1895 54.0165C41.0623 54.0892 40.8805 54.0346 40.7896 53.9074C40.6988 53.7802 40.7169 53.6166 40.826 53.5439C40.9532 53.4712 41.135 53.5076 41.2258 53.653Z" fill="#DEDBD5"/>
<path d="M40.6624 56.4338C40.7532 56.5611 40.7351 56.7247 40.626 56.7974C40.4988 56.8701 40.317 56.8155 40.2262 56.6883C40.1353 56.5611 40.1535 56.3975 40.2625 56.3248C40.3897 56.2521 40.5715 56.3066 40.6624 56.4338Z" fill="#DEDBD5"/>
<path d="M41.571 55.9067C41.6619 56.034 41.6437 56.1975 41.5347 56.2702C41.4075 56.3429 41.2257 56.2884 41.1348 56.1612C41.044 56.034 41.0621 55.8704 41.1712 55.7977C41.2802 55.725 41.4802 55.7795 41.571 55.9067Z" fill="#DEDBD5"/>
<path d="M42.4981 55.3795C42.5889 55.5068 42.5708 55.6703 42.4617 55.743C42.3345 55.8157 42.1527 55.7612 42.0618 55.634C41.971 55.5068 41.9891 55.3432 42.0982 55.2705C42.2254 55.1978 42.4072 55.2341 42.4981 55.3795Z" fill="#DEDBD5"/>
<path d="M36.7185 58.5237C36.9185 58.7963 36.8821 59.1235 36.6277 59.2689C36.3732 59.4143 36.0097 59.3234 35.7916 59.0508C35.5917 58.7782 35.628 58.451 35.8825 58.3056C36.1369 58.1602 36.5004 58.2693 36.7185 58.5237Z" fill="#453E3A"/>
<path d="M38.1543 57.6878C38.3543 57.9604 38.3179 58.2875 38.0635 58.4329C37.809 58.5783 37.4455 58.4875 37.2274 58.2148C37.0275 57.9422 37.0638 57.6151 37.3183 57.4697C37.5727 57.3243 37.9544 57.4333 38.1543 57.6878Z" fill="#453E3A"/>
<path d="M39.5901 56.8516C39.7901 57.1242 39.7537 57.4514 39.4993 57.5968C39.2448 57.7422 38.8813 57.6513 38.6632 57.3787C38.4633 57.106 38.4996 56.7789 38.7541 56.6335C39.0267 56.4881 39.3902 56.5971 39.5901 56.8516Z" fill="#58D8FF"/>
</svg>
