<svg width="80" height="80" viewBox="0 0 80 80" fill="none" xmlns="http://www.w3.org/2000/svg">
<path d="M45.6436 63.9359L34.5061 70.4159C29.2208 73.4939 20.5943 73.4939 15.2685 70.4159L4.05001 63.9359C1.377 62.3969 0.0202494 60.3517 0.0404995 58.3267C0.0202494 63.0652 0.02025 57.4559 0 62.1944C0 64.2194 1.3365 66.2647 4.00951 67.8037L15.228 74.2837C20.5538 77.3617 29.1601 77.3617 34.4656 74.2837L45.6031 67.8037C48.2356 66.2849 49.5519 64.2802 49.5519 62.2754C49.5721 57.5369 49.5721 63.1462 49.5924 58.4077C49.5924 60.3922 48.2761 62.3969 45.6436 63.9359Z" fill="#4D4D4D"/>
<path d="M45.5829 52.778C50.9086 55.856 50.9289 60.8375 45.6436 63.9155L34.5061 70.3956C29.2208 73.4736 20.5943 73.4736 15.2686 70.3956L4.05003 63.9155C-1.27573 60.8375 -1.31623 55.856 3.98928 52.778L15.1268 46.298C20.4121 43.22 29.0386 43.22 34.3644 46.298L45.5829 52.778Z" fill="#434343"/>
<path d="M25.9606 42.6125C25.9606 43.3213 25.4948 44.0503 24.5431 44.5971L15.4508 49.8418C13.5675 50.9353 10.53 50.9353 8.66703 49.8418C7.73553 49.2951 7.26978 48.6066 7.26978 47.8978C7.26978 49.6191 7.26978 51.3403 7.29003 53.0616C7.29003 53.7703 7.75578 54.4791 8.68728 55.0056C10.5503 56.0991 13.5878 56.0991 15.471 55.0056L24.5633 49.7608C25.5151 49.2141 25.9808 48.5053 25.9808 47.7763C25.9808 46.0551 25.9606 44.3338 25.9606 42.6125Z" fill="#2B2B2C"/>
<path d="M8.68744 45.9133C6.80419 47.0068 6.80419 48.7483 8.66719 49.8418C10.5302 50.9353 13.5677 50.9353 15.451 49.8418L24.5432 44.597C26.4265 43.5035 26.4265 41.762 24.5635 40.6685C22.7005 39.575 19.663 39.575 17.7797 40.6685L8.68744 45.9133Z" fill="#404041"/>
<mask id="mask0_133_54" style="mask-type:luminance" maskUnits="userSpaceOnUse" x="12" y="42" width="9" height="6">
<path d="M20.9385 42.6326C20.9182 50.1859 20.898 37.5701 20.8777 45.1234C20.8777 45.7511 20.4525 46.3789 19.6222 46.8649C17.9617 47.8369 15.2482 47.8369 13.5675 46.8649C12.717 46.3789 12.2917 45.7309 12.312 45.1031C12.3322 37.5499 12.3525 50.1657 12.3727 42.6124C12.3727 43.2604 12.798 43.8881 13.6282 44.3741C15.309 45.3461 18.0225 45.3461 19.683 44.3741C20.5132 43.8881 20.9385 43.2604 20.9385 42.6326Z" fill="white"/>
</mask>
<g mask="url(#mask0_133_54)">
<path d="M20.9385 42.6328L20.8777 45.1236C20.8777 45.7513 20.4525 46.3791 19.6222 46.8651C17.9617 47.8371 15.2482 47.8371 13.5675 46.8651C12.717 46.3791 12.2917 45.7311 12.312 45.1033L12.3727 42.6125C12.3727 43.2606 12.798 43.8883 13.6282 44.3743C15.309 45.3463 18.0225 45.3463 19.683 44.3743C20.5132 43.8883 20.9385 43.2606 20.9385 42.6328Z" fill="#2B2B2C"/>
</g>
<path d="M19.6629 40.8711C21.3436 41.8431 21.3436 43.4023 19.6831 44.3744C18.0226 45.3464 15.3091 45.3464 13.6283 44.3744C11.9476 43.4023 11.9476 41.8431 13.6081 40.8711C15.2686 39.8991 17.9821 39.8991 19.6629 40.8711Z" fill="#404041"/>
<path d="M43.9628 57.7798V58.5898L24.0773 70.1526V69.3426L43.9628 57.7798Z" fill="#139DC8"/>
<path d="M24.0772 69.3426V70.1526L4.07019 58.5898V57.7798L24.0772 69.3426Z" fill="#2FBAE5"/>
<path d="M43.9628 57.7796L24.0772 69.3424L4.07019 57.7796L23.9557 46.2371L43.9628 57.7796Z" fill="#58D8FF"/>
<path d="M25.4543 3.10468C25.1708 2.94268 24.786 2.96293 24.3405 3.20593C23.4698 3.71219 22.7812 4.90694 22.7812 5.89919C22.7812 6.38519 22.9635 6.72944 23.247 6.89144C23.5508 7.07369 29.1803 10.4352 29.484 10.5972C29.2005 10.4352 29.0385 10.091 29.0385 9.60495C29.0385 8.6127 29.727 7.41794 30.5978 6.91169C31.023 6.66869 31.428 6.62819 31.7115 6.81044C31.3875 6.64844 25.758 3.28694 25.4543 3.10468Z" fill="#D6D6D6"/>
<path d="M30.5776 6.93208C31.4483 6.42583 32.1368 6.83083 32.1368 7.82308C32.1368 8.81533 31.4483 10.0101 30.5776 10.5163C29.7068 11.0226 29.0183 10.6176 29.0183 9.62533C29.0183 8.63308 29.7271 7.41808 30.5776 6.93208Z" fill="#757779"/>
<path opacity="0.13" d="M22.9433 5.0083C22.842 5.31205 22.7812 5.6158 22.7812 5.8993C22.7812 6.3853 22.9635 6.72956 23.247 6.89156C23.5508 7.07381 29.1803 10.4353 29.484 10.5973C29.2005 10.4353 29.0385 10.0911 29.0385 9.60506C29.0385 9.36206 29.079 9.09881 29.16 8.83556C27.8843 8.08631 23.5305 5.47405 23.247 5.31205C23.1255 5.2513 23.0243 5.15005 22.9433 5.0083Z" fill="#161616"/>
<path d="M27.5806 12.44L27.3781 12.3388V6.74976L27.5603 6.85101L27.5806 12.44Z" fill="#2FBAE5"/>
<path d="M27.5603 6.85107L27.3781 6.74982L32.2381 3.93506L32.4203 4.05656L27.5603 6.85107Z" fill="#58D8FF"/>
<path d="M32.4203 4.0564L32.4406 9.64541L27.5806 12.4399L27.5603 6.8509L32.4203 4.0564Z" fill="#139DC8"/>
<path d="M31.6913 5.5955C31.2863 5.37275 30.7396 5.393 30.1321 5.7575C28.9171 6.46625 27.9248 8.16725 27.9248 9.56451C27.9248 10.253 28.1678 10.739 28.5728 10.982C28.9981 11.225 41.0266 18.353 41.4518 18.596C41.0468 18.3733 40.8038 17.8873 40.8038 17.1785C40.8038 15.7813 41.7758 14.0803 42.9908 13.3715C43.5983 13.0273 44.1653 12.9868 44.5501 13.2095C44.1451 12.9665 32.1166 5.8385 31.6913 5.5955Z" fill="#58D8FF"/>
<path d="M43.0111 13.3716C44.2261 12.6628 45.2183 13.2298 45.2183 14.6271C45.2183 16.0243 44.2463 17.7253 43.0111 18.4341C41.7961 19.1428 40.8038 18.5758 40.8038 17.1786C40.8038 15.7813 41.7961 14.0601 43.0111 13.3716Z" fill="#757779"/>
<path opacity="0.13" d="M28.3096 7.92432C28.0666 8.47107 27.9451 9.03807 27.9451 9.56457C27.9451 10.2531 28.1881 10.7391 28.5931 10.9821C29.0183 11.2251 41.0468 18.3531 41.4721 18.5961C41.0671 18.3733 40.8241 17.8873 40.8241 17.1786C40.8241 16.6723 40.9456 16.1256 41.1683 15.5991C39.2648 14.4651 28.9778 8.39007 28.5728 8.14707C28.4716 8.08632 28.3906 8.00532 28.3096 7.92432Z" fill="#161616"/>
<path d="M40.5608 20.0943L40.3785 19.9931L40.3583 14.4041L40.5608 14.5053V20.0943Z" fill="#2FBAE5"/>
<path d="M40.5608 14.5054L40.3583 14.4041L45.2385 11.5894L45.4208 11.7109L40.5608 14.5054Z" fill="#58D8FF"/>
<path d="M45.4209 11.7107L45.4412 17.2997L40.5609 20.0942V14.5052L45.4209 11.7107Z" fill="#139DC8"/>
<path d="M44.7525 13.3917C44.3475 13.1487 43.8008 13.1892 43.1933 13.5537C41.9783 14.2624 40.986 15.9634 41.0063 17.3607C41.0063 18.0492 41.2493 18.5352 41.6543 18.7782C42.0795 19.0212 44.2463 20.3172 44.6918 20.5805C44.2868 20.3577 44.0438 19.8717 44.0438 19.163C44.0438 17.7657 45.0158 16.0647 46.2308 15.3559C46.8383 15.0117 47.4053 14.9712 47.7901 15.1939C47.3648 14.9307 45.198 13.6347 44.7525 13.3917Z" fill="#58D8FF"/>
<path d="M46.2309 15.3357C47.4459 14.6269 48.4381 15.1939 48.4381 16.5912C48.4381 17.9884 47.4661 19.6894 46.2511 20.3982C45.0361 21.1069 44.0439 20.5399 44.0439 19.1427C44.0236 17.7454 45.0159 16.0444 46.2309 15.3357Z" fill="#757779"/>
<path opacity="0.13" d="M41.4316 15.5991C41.1683 16.1864 41.0063 16.7939 41.0063 17.3609C41.0063 18.0494 41.2494 18.5354 41.6544 18.7784C42.0796 19.0214 44.2464 20.3174 44.6919 20.5806C44.2869 20.3579 44.0439 19.8719 44.0439 19.1631C44.0439 18.5961 44.2059 17.9886 44.4691 17.4216C43.8009 17.0166 42.0189 15.9636 41.6341 15.7409C41.5329 15.6801 41.4721 15.6396 41.4316 15.5991Z" fill="#161616"/>
<path d="M47.8711 14.2625C47.3649 13.979 46.6764 14.0195 45.9271 14.4448C44.4084 15.3156 43.1934 17.4418 43.1934 19.1833C43.1934 20.0541 43.4971 20.6616 43.9831 20.9451C44.5299 21.2488 44.8539 21.4513 45.4006 21.7753C44.9146 21.4918 44.6109 20.8843 44.6109 20.0136C44.6109 18.2721 45.8259 16.1661 47.3446 15.2751C48.1141 14.8295 48.8026 14.789 49.2886 15.0928C48.7419 14.789 48.3976 14.5865 47.8711 14.2625Z" fill="#D6D6D6"/>
<path d="M47.3243 15.275C48.8431 14.4042 50.0783 15.0927 50.0783 16.8342C50.0783 18.5757 48.8633 20.6817 47.3446 21.5727C45.8258 22.4435 44.5906 21.755 44.5906 20.0135C44.5906 18.272 45.8056 16.166 47.3243 15.275Z" fill="#757779"/>
<path d="M49.0254 15.8824C48.6204 15.6394 48.0736 15.6799 47.4661 16.0444C46.2511 16.7532 45.2589 18.4542 45.2791 19.8514C45.2791 20.5399 45.5221 21.0259 45.9271 21.2689C46.3524 21.5119 48.5394 22.8079 48.9646 23.0712C48.5596 22.8484 48.3166 22.3422 48.3166 21.6537C48.3166 20.2564 49.2886 18.5554 50.5239 17.8467C51.1314 17.5024 51.6984 17.4619 52.0831 17.6847C51.6174 17.4214 49.4506 16.1254 49.0254 15.8824Z" fill="#58D8FF"/>
<path d="M50.4834 17.8264C51.6984 17.1176 52.6906 17.6846 52.6906 19.0819C52.6906 20.4791 51.7186 22.1801 50.5036 22.8889C49.2886 23.5976 48.2964 23.0306 48.2964 21.6334C48.2964 20.2361 49.2684 18.5351 50.4834 17.8264Z" fill="#757779"/>
<path opacity="0.13" d="M45.6842 18.0693C45.4209 18.6566 45.2589 19.2641 45.2589 19.8311C45.2589 20.5196 45.5019 21.0056 45.9069 21.2486C46.3322 21.4916 48.5192 22.7876 48.9444 23.0508C48.5394 22.8281 48.2964 22.3421 48.2964 21.6333C48.2964 21.0663 48.4584 20.4588 48.7217 19.8918C48.0534 19.4868 46.2714 18.4338 45.8867 18.2111C45.7854 18.1706 45.7449 18.1301 45.6842 18.0693Z" fill="#161616"/>
<path opacity="0.13" d="M50.2606 19.8516C49.9973 20.4388 49.8353 21.0463 49.8353 21.6133C49.8353 22.3018 50.0783 22.7878 50.4833 23.0308C50.9086 23.2738 53.0753 24.5698 53.5208 24.8331C53.1158 24.6103 52.8728 24.1243 52.8728 23.4156C52.8728 22.8486 53.0348 22.2411 53.2981 21.6741C52.6298 21.2691 50.8478 20.2161 50.4631 19.9933C50.3618 19.9528 50.3011 19.9123 50.2606 19.8516Z" fill="#161616"/>
<path d="M52.1237 16.7533C51.6174 16.4698 50.9289 16.5103 50.1797 16.9355C48.6609 17.8063 47.4459 19.9325 47.4459 21.674C47.4459 22.5448 47.7497 23.1523 48.2357 23.4358C48.7824 23.7395 49.1064 23.942 49.6532 24.266C49.1672 23.9825 48.8634 23.375 48.8634 22.5043C48.8634 20.7628 50.0784 18.6568 51.5972 17.7658C52.3667 17.3203 53.0552 17.2798 53.5412 17.5835C52.9944 17.2798 52.6704 17.0773 52.1237 16.7533Z" fill="#D6D6D6"/>
<path d="M51.5972 17.786C53.1159 16.9152 54.3309 17.6037 54.3512 19.3452C54.3512 21.0867 53.1362 23.1927 51.6174 24.0837C50.0987 24.9545 48.8634 24.266 48.8634 22.5245C48.8432 20.7627 50.0784 18.6567 51.5972 17.786Z" fill="#757779"/>
<path d="M53.3589 18.2315C52.9539 17.9885 52.4071 18.029 51.7996 18.3935C50.5846 19.1023 49.5924 20.8033 49.6126 22.2005C49.6126 22.889 49.8556 23.375 50.2606 23.618C50.6859 23.861 52.8526 25.1571 53.2981 25.4203C52.8931 25.1976 52.6501 24.7115 52.6501 24.0028C52.6501 22.6055 53.6221 20.9045 54.8574 20.1958C55.4649 19.8515 56.0319 19.811 56.4166 20.0338C55.9509 19.7908 53.7841 18.4948 53.3589 18.2315Z" fill="#58D8FF"/>
<path d="M54.8169 20.1958C56.0319 19.487 57.0241 20.054 57.0241 21.4513C57.0241 22.8485 56.0521 24.5495 54.8371 25.2583C53.6221 25.967 52.6299 25.4 52.6299 24.0028C52.6299 22.6055 53.6019 20.8843 54.8169 20.1958Z" fill="#757779"/>
<path opacity="0.13" d="M50.0177 20.4387C49.7544 21.026 49.5924 21.6335 49.5924 22.2005C49.5924 22.889 49.8354 23.375 50.2404 23.618C50.6657 23.861 52.8527 25.157 53.2779 25.4202C52.8729 25.1975 52.6299 24.7115 52.6299 24.0027C52.6299 23.4357 52.7919 22.8282 53.0552 22.2612C52.3869 21.8562 50.6049 20.8032 50.1999 20.5805C50.1392 20.54 50.0784 20.4995 50.0177 20.4387Z" fill="#161616"/>
<path d="M56.4572 19.1227C55.9509 18.8392 55.2624 18.8797 54.5132 19.3049C52.9944 20.1757 51.7794 22.3019 51.7794 24.0434C51.7794 24.9142 52.0832 25.5217 52.5692 25.8052C53.1159 26.1089 53.4399 26.3114 53.9867 26.6354C53.5007 26.3519 53.1969 25.7444 53.1969 24.8737C53.1969 23.1322 54.4119 21.0262 55.9307 20.1352C56.7002 19.6897 57.3887 19.6492 57.8747 19.9529C57.3279 19.6289 57.0039 19.4264 56.4572 19.1227Z" fill="#D6D6D6"/>
<path d="M55.9104 20.1351C57.4291 19.2643 58.6644 19.9528 58.6644 21.6943C58.6644 23.4358 57.4494 25.5419 55.9306 26.4329C54.4119 27.3036 53.1766 26.6151 53.1766 24.8736C53.1766 23.1321 54.4119 21.0058 55.9104 20.1351Z" fill="#757779"/>
<path d="M57.7126 20.4187C57.2873 20.1757 56.6798 20.1959 56.0116 20.5807C54.6953 21.3502 53.6221 23.1929 53.6221 24.7117C53.6221 25.4609 53.8853 25.9874 54.3106 26.2507C54.7763 26.5139 58.0568 28.215 58.5226 28.4782C58.0973 28.2352 58.1581 27.7694 58.1581 27.0202C58.1581 25.5014 57.9758 23.2942 59.2921 22.5449C59.9603 22.1602 59.7983 21.9374 60.2438 22.1804C59.7781 21.8969 58.1783 20.6819 57.7126 20.4187Z" fill="#58D8FF"/>
<path opacity="0.13" d="M53.8448 23.3752C53.6828 23.8207 53.6018 24.2865 53.6018 24.7117C53.6018 25.461 53.8651 25.9875 54.2903 26.2508C54.7561 26.514 58.0366 28.215 58.5023 28.4783C58.0771 28.2353 58.1378 27.7695 58.1378 27.0203C58.1378 26.6558 58.1176 26.2508 58.1378 25.8458C57.1658 25.3193 54.6548 24.0232 54.2498 23.8005C54.1081 23.6992 53.9663 23.5575 53.8448 23.3752Z" fill="#161616"/>
<path d="M58.1176 22.8079C58.9883 21.5524 60.2236 21.6537 60.8716 23.0104C61.5196 24.3874 61.3576 26.5137 60.4868 27.7489C59.6161 29.0044 58.3808 28.9032 57.7328 27.5464C57.0848 26.1694 57.2671 24.0432 58.1176 22.8079Z" fill="#139DC8"/>
<mask id="mask1_133_54" style="mask-type:luminance" maskUnits="userSpaceOnUse" x="59" y="19" width="5" height="4">
<path d="M59.3934 22.018L63.7877 19.7095C63.7674 19.7297 63.7472 19.7297 63.7269 19.75L59.3326 22.0585C59.3529 22.0585 59.3731 22.0382 59.3934 22.018Z" fill="white"/>
</mask>
<g mask="url(#mask1_133_54)">
<path d="M63.7471 19.75L59.3326 22.0585C59.3529 22.0382 59.3731 22.0382 59.3934 22.018L63.7877 19.7095C63.7877 19.7297 63.7674 19.7297 63.7471 19.75Z" fill="#96999B"/>
</g>
<path d="M63.3219 23.4155C62.5322 21.9778 62.7144 20.3375 63.7269 19.7502L59.3327 22.0587C58.2999 22.6662 57.4292 24.4685 57.8544 26.048C58.2189 27.3845 59.1909 28.2553 60.0414 28.0123L66.5417 24.9545C65.5494 25.481 64.1117 24.8128 63.3219 23.4155Z" fill="#58D8FF"/>
<path d="M63.7472 19.7503C64.7799 19.1428 66.2379 19.8313 67.048 21.2488C67.8377 22.6866 67.6555 24.3268 66.6429 24.9141C65.6102 25.5216 64.1522 24.8331 63.3422 23.4156C62.5322 21.9778 62.7144 20.3376 63.7472 19.7503Z" fill="#139DC8"/>
<path opacity="0.13" d="M63.9699 24.2659L58.2391 26.9591C58.7049 27.7489 59.4136 28.1944 60.0414 28.0121L66.5417 24.9544C65.7722 25.3594 64.7596 25.0556 63.9699 24.2659Z" fill="#161616"/>
<path d="M79.9877 20.4998C79.7447 19.6695 79.5219 18.8393 79.2789 17.9888C79.2992 18.09 79.2587 18.2115 79.1169 18.3533C78.7929 18.657 78.1247 18.9 77.5982 18.8595L71.5637 18.495C70.7942 18.4545 69.9234 18.5558 69.1134 18.7988C68.4047 19.0215 67.8377 19.305 67.5137 19.629L64.6787 22.4033C64.4357 22.6463 64.3344 22.8893 64.3952 23.1323C64.4964 23.4563 64.5774 23.8005 64.6787 24.1245C64.8204 24.6308 64.9622 25.1168 65.1039 25.623C65.0432 25.4003 65.1444 25.1573 65.3874 24.894L68.2224 22.1198C68.5464 21.7958 69.1134 21.5123 69.8222 21.2895C70.6322 21.0465 71.5029 20.925 72.2724 20.9858L78.3069 21.3503C78.8334 21.3908 79.5017 21.1478 79.8257 20.844C79.9674 20.7225 80.0282 20.601 79.9877 20.4998Z" fill="#7A7C7E"/>
<path d="M73.3254 27.0203C73.0824 26.19 72.8597 25.3598 72.6167 24.5295C72.6369 24.6308 72.5964 24.7523 72.4546 24.894C72.1306 25.1978 71.4624 25.4408 70.9359 25.4003L64.9014 25.0358C63.3421 24.9345 62.3904 24.4485 62.2081 23.76L62.9169 26.2508C63.0991 26.919 64.0711 27.4253 65.6101 27.5265L71.6446 27.891C72.1711 27.9315 72.8394 27.6885 73.1634 27.3848C73.3052 27.243 73.3659 27.1215 73.3254 27.0203Z" fill="#7A7C7E"/>
<path d="M65.6507 19.5074C67.0277 18.1709 70.1867 17.1989 72.7382 17.3609L78.7727 17.7254C79.2992 17.7659 79.4409 18.0292 79.1372 18.3532C78.8132 18.6569 78.1449 18.8999 77.6184 18.8594L71.5839 18.4949C70.8144 18.4544 69.9437 18.5557 69.1337 18.7987C68.4249 19.0214 67.8579 19.3049 67.5339 19.6289L64.6989 22.4032C64.3749 22.7272 64.3141 23.0512 64.5166 23.3144C64.7596 23.6182 65.3064 23.8207 66.0759 23.8612L72.1104 24.2257C72.6369 24.2662 72.7989 24.5294 72.4749 24.8534C72.1509 25.1572 71.4827 25.4002 70.9562 25.3597L64.9216 24.9952C62.3904 24.8332 61.4386 23.6182 62.8156 22.2817L65.6507 19.5074Z" fill="#B5B5B5"/>
<path d="M33.7974 8.39002C34.4656 8.00527 35.3971 8.06602 36.4096 8.65327C38.4346 9.82777 40.0749 12.6628 40.0749 14.9915C40.0749 16.1458 39.6699 16.9558 39.0016 17.3405C38.2726 17.7658 37.5639 18.1708 36.8349 18.596C37.5031 18.2113 37.9081 17.4013 37.9081 16.247C37.9081 13.9183 36.2679 11.0833 34.2429 9.90877C33.2304 9.32152 32.2989 9.26077 31.6306 9.64552C32.3596 9.22027 33.0886 8.79502 33.7974 8.39002Z" fill="#404041"/>
<path d="M34.2429 9.88841C32.2179 8.71391 30.5776 9.66566 30.5574 11.9944C30.5574 14.3232 32.1774 17.1582 34.2226 18.3327C36.2476 19.5072 37.8879 18.5554 37.9081 16.2267C37.9081 13.8979 36.2679 11.0629 34.2429 9.88841Z" fill="#2B2B2C"/>
<path d="M31.3266 51.2189C29.8484 47.0474 25.9199 43.9896 23.5709 45.3464C23.2064 45.5489 12.0688 52.0492 11.7043 52.2719C13.7294 51.0974 16.9694 53.1832 18.7716 56.5852C20.1081 59.0962 20.6751 62.8627 18.5691 64.0979C18.9336 63.8954 30.0711 57.3952 30.4356 57.1724C32.0151 56.2612 32.2176 53.7502 31.3266 51.2189Z" fill="#2FBAE5"/>
<path d="M15.1671 52.6161C17.8401 54.1551 20.0069 57.9013 20.0069 60.9793C20.0069 64.0574 17.8199 65.2926 15.1469 63.7536C12.4739 62.2146 10.3071 58.4683 10.3071 55.3903C10.3071 52.3123 12.4739 51.0771 15.1671 52.6161Z" fill="#139DC8"/>
<path d="M48.6203 50.6519C50.4428 45.9337 46.737 40.7496 42.4035 38.2589C39.2648 36.4566 36.6728 36.4769 34.263 37.8741C33.21 38.5019 32.1367 39.1094 31.0837 39.7371C37.4625 36.0314 45.7245 43.7264 45.9068 49.7204C45.9473 51.0569 45.6233 52.3934 44.8943 53.6287L40.7228 59.7037L43.902 57.8407C48.3773 51.3607 48.2558 51.6442 48.6203 50.6519Z" fill="#0A83A9"/>
<path d="M39.4672 40.1015C44.388 42.9365 47.7698 48.809 44.8943 53.6488L40.7228 59.7238L22.9027 49.4368L27.0742 43.3618C30.7395 38.9675 34.5465 37.2665 39.4672 40.1015Z" fill="#139DC8"/>
<path d="M5.04224 50.8948L5.64974 50.5303L14.742 51.7048L14.1345 52.0693L5.04224 50.8948Z" fill="#58D8FF"/>
<path d="M23.1863 61.364L23.7938 60.9995L23.7735 68.1883L23.166 68.5325L23.1863 61.364Z" fill="#139DC8"/>
<path d="M14.1344 52.0693L14.7419 51.7048L23.7937 60.9996L23.1862 61.3641L14.1344 52.0693Z" fill="#58D8FF"/>
<path d="M14.1344 52.0693L23.1861 61.3641L23.1659 68.5326L5.02185 58.0633L5.0421 50.8948L14.1344 52.0693Z" fill="#2FBAE5"/>
<path d="M37.0575 41.9039C37.6245 41.5799 38.4345 41.6204 39.3053 42.1266C41.0468 43.1391 42.4643 45.5691 42.444 47.5739C42.444 48.5662 42.0998 49.2749 41.5328 49.5989C40.905 49.9634 40.5203 50.1862 39.9128 50.5507C40.4798 50.2267 40.824 49.5179 40.824 48.5257C40.824 46.5209 39.4268 44.0909 37.6853 43.0784C36.8145 42.5721 36.0045 42.5316 35.4375 42.8556C36.045 42.5114 36.4298 42.2684 37.0575 41.9039Z" fill="#404041"/>
<path d="M37.665 43.0785C35.9235 42.066 34.506 42.876 34.506 44.8807C34.506 46.8855 35.9032 49.3155 37.6447 50.328C39.3862 51.3405 40.8037 50.5305 40.8037 48.5258C40.824 46.521 39.4267 44.091 37.665 43.0785Z" fill="#2B2B2C"/>
<mask id="mask2_133_54" style="mask-type:luminance" maskUnits="userSpaceOnUse" x="34" y="54" width="5" height="3">
<path d="M37.6043 55.1471C36.6525 55.6331 35.6805 56.1393 34.7288 56.6253C35.0325 56.4633 35.3363 56.2811 35.5995 56.0786L38.475 54.6003C38.1915 54.8028 37.908 54.9851 37.6043 55.1471Z" fill="white"/>
</mask>
<g mask="url(#mask2_133_54)">
<path d="M35.5995 56.0786L38.475 54.6003C38.1915 54.8028 37.908 55.0053 37.6043 55.1471L34.7288 56.6253C35.0123 56.4633 35.316 56.2811 35.5995 56.0786Z" fill="#0F8CB3"/>
</g>
<path d="M26.3452 34.9783L29.241 33.5L38.475 54.6006L35.5995 56.0788L26.3452 34.9783Z" fill="#0A83A9"/>
<path d="M26.3453 34.9783L35.5793 56.0788C33.1898 57.9013 29.727 57.6583 26.2845 55.8966C22.923 54.1753 19.5615 51.0163 17.1923 46.9258L17.01 46.6018L26.3453 34.9783Z" fill="#139DC8"/>
<path d="M25.3733 24.327L30.2333 21.5122L34.8301 25.0762L29.9903 27.891L25.3733 24.327Z" fill="#2FBAE5"/>
<path d="M30.213 21.6741L34.587 25.0761L29.9903 27.7491L25.6162 24.3471L30.213 21.6741ZM30.2333 21.3501L25.1302 24.3066L29.97 28.0731L35.073 25.1166L30.2333 21.3501Z" fill="#58D8FF"/>
<path d="M29.9701 28.0732L35.0731 25.0964L36.6729 47.1487L31.5698 50.1052L29.9701 28.0732Z" fill="#139DC8"/>
<path d="M25.1303 24.3066L29.97 28.0732L31.5698 50.1255L30.0105 48.1004C27.6818 45.0629 24.9885 42.6329 22.275 41.0737C21.222 40.4662 20.169 40.0004 19.1362 39.6562L17.334 39.0689L25.1303 24.3066Z" fill="#2FBAE5"/>
<path d="M32.9872 15.9028C32.967 15.8826 32.9467 15.8826 32.9265 15.8623C32.9265 15.8623 32.9062 15.8623 32.9062 15.8421C32.886 15.8218 32.886 15.8218 32.8657 15.8016C32.8657 15.8016 32.8455 15.8016 32.8455 15.7813C32.8252 15.7611 32.805 15.7408 32.7847 15.7206C32.7645 15.7003 32.7442 15.6801 32.724 15.6396C32.7037 15.5991 32.6835 15.5788 32.6632 15.5383C32.6632 15.5181 32.643 15.5181 32.643 15.4978C32.6227 15.4776 32.6227 15.4573 32.6025 15.4168V15.3966C32.5822 15.3763 32.5822 15.3561 32.5822 15.3156C32.5822 15.3156 32.5822 15.2953 32.5822 15.2751C32.5822 15.2548 32.562 15.2346 32.562 15.1941V15.1738C32.562 15.1333 32.562 15.1131 32.562 15.0928V15.0726C32.562 15.0523 32.562 15.0321 32.562 15.0118V14.9916C32.562 14.9713 32.562 14.9511 32.5822 14.9308V14.9106C32.6025 14.8903 32.6025 14.8701 32.6227 14.8498C32.643 14.8296 32.6632 14.8296 32.6632 14.8093C32.2177 15.0726 31.7722 15.3358 31.3267 15.5788C31.3065 15.5991 31.2862 15.5991 31.2862 15.6193C31.266 15.6396 31.266 15.6598 31.2457 15.6801V15.7003C31.2457 15.7206 31.2255 15.7408 31.2255 15.7611V15.7813C31.2255 15.8016 31.2255 15.8218 31.2255 15.8421V15.8623C31.2255 15.8826 31.2255 15.9231 31.2255 15.9433V15.9636C31.2255 15.9838 31.2255 16.0041 31.2457 16.0243C31.2457 16.0446 31.2457 16.0446 31.2457 16.0648C31.2457 16.0851 31.266 16.1053 31.266 16.1458C31.266 16.1458 31.266 16.1661 31.2862 16.1661C31.2862 16.1661 31.2862 16.1661 31.2862 16.1863C31.2862 16.2066 31.3065 16.2268 31.3065 16.2471C31.3065 16.2673 31.3267 16.2673 31.3267 16.2876C31.347 16.3281 31.3672 16.3483 31.3875 16.3888C31.4077 16.4091 31.428 16.4293 31.4482 16.4698C31.4685 16.4901 31.4887 16.5103 31.509 16.5306L31.5292 16.5508C31.5495 16.5711 31.5495 16.5711 31.5697 16.5913C31.5697 16.5913 31.59 16.5913 31.59 16.6116C31.6102 16.6318 31.6305 16.6318 31.6507 16.6521C31.7722 16.7128 31.8735 16.7331 31.9545 16.6926C32.4 16.4293 32.8455 16.1661 33.291 15.9231C33.21 15.9838 33.0885 15.9636 32.9872 15.9028Z" fill="#0F81A5"/>
<path d="M32.0962 13.6145C32.076 13.6145 32.0557 13.5942 32.0557 13.5942C32.0355 13.574 32.0152 13.5537 31.9747 13.5537C31.9747 13.5537 31.9747 13.5537 31.9545 13.5335C31.9342 13.5132 31.914 13.493 31.8937 13.4727C31.8937 13.4727 31.8937 13.4727 31.8735 13.4525C31.8532 13.4322 31.833 13.412 31.8127 13.3917L31.7925 13.3715C31.7722 13.3512 31.752 13.3107 31.7317 13.2905C31.7317 13.2905 31.7317 13.2905 31.7317 13.2702C31.7115 13.25 31.7115 13.2297 31.6912 13.1892C31.6912 13.1892 31.6912 13.169 31.671 13.169C31.6507 13.1082 31.6305 13.0475 31.6102 12.9867V12.9665C31.6102 12.926 31.59 12.9057 31.59 12.8652C31.5697 12.7032 31.6305 12.5817 31.7115 12.521C31.266 12.7842 30.8205 13.0475 30.375 13.2905C30.2737 13.3512 30.2332 13.4727 30.2535 13.6347C30.2535 13.655 30.2535 13.6955 30.2737 13.736V13.7562C30.2737 13.7967 30.294 13.817 30.294 13.8575C30.294 13.8777 30.3142 13.898 30.3142 13.9182C30.3142 13.9182 30.3142 13.9385 30.3345 13.9385C30.3345 13.9385 30.3345 13.9587 30.3547 13.9587C30.375 13.979 30.375 13.9992 30.3952 14.0397V14.06C30.4155 14.0802 30.4357 14.1207 30.456 14.141L30.4762 14.1612C30.4762 14.1815 30.4965 14.1815 30.4965 14.2017L30.5167 14.222C30.5167 14.222 30.5167 14.222 30.537 14.2423C30.5572 14.2625 30.5775 14.2827 30.5977 14.303C30.5977 14.303 30.5977 14.303 30.618 14.3232C30.6382 14.3435 30.6585 14.3638 30.699 14.3638C30.7192 14.3638 30.7395 14.384 30.7395 14.384C30.8407 14.4245 30.942 14.4245 31.0027 14.384C31.4482 14.1207 31.8937 13.8575 32.3392 13.6145C32.2987 13.655 32.1975 13.655 32.0962 13.6145Z" fill="#0F81A5"/>
<path d="M33.9187 18.758L35.2552 17.9885L34.587 25.076L33.2505 25.8455L33.9187 18.758Z" fill="#0F81A5"/>
<path d="M34.8706 17.3406C34.8301 17.3406 34.7896 17.3203 34.7693 17.3001C34.7491 17.2798 34.7288 17.2798 34.7085 17.2596C34.7085 17.2596 34.6883 17.2596 34.6883 17.2393C34.6681 17.2191 34.6478 17.1988 34.6276 17.1988C34.6073 17.1786 34.587 17.1583 34.5668 17.1381L34.5466 17.1178C34.5263 17.0976 34.5263 17.0773 34.506 17.0571L34.4858 17.0368C34.4656 17.0166 34.4656 16.9963 34.4453 16.9761C34.4453 16.9761 34.4453 16.9558 34.425 16.9558C34.4048 16.9356 34.4048 16.8951 34.3846 16.8748C34.3846 16.8546 34.3643 16.8343 34.3643 16.8141C34.3643 16.7938 34.3441 16.7938 34.3441 16.7736C34.3238 16.7331 34.3238 16.7128 34.3238 16.6723C34.2833 16.4698 34.3238 16.3281 34.4453 16.2673C33.9998 16.5306 33.5543 16.7938 33.1088 17.0368C33.0075 17.0976 32.9468 17.2596 32.9873 17.4418C32.9873 17.4823 33.0075 17.5026 33.0075 17.5431C33.0075 17.5633 33.0075 17.5633 33.0278 17.5836C33.0278 17.6038 33.048 17.6241 33.048 17.6443C33.0683 17.6646 33.0683 17.7051 33.0885 17.7253C33.0885 17.7253 33.0885 17.7456 33.1088 17.7456C33.129 17.7658 33.129 17.7861 33.1493 17.8063L33.1695 17.8266C33.1898 17.8468 33.1898 17.8671 33.21 17.8671L33.2303 17.8873C33.2505 17.9076 33.2708 17.9278 33.2708 17.9278C33.291 17.9481 33.3113 17.9683 33.3315 17.9683C33.3315 17.9683 33.3518 17.9683 33.3518 17.9886C33.372 18.0088 33.3923 18.0291 33.4125 18.0291C33.453 18.0493 33.4935 18.0696 33.5138 18.0696C33.5948 18.0898 33.6555 18.0898 33.7163 18.0493C34.1618 17.7861 34.6073 17.5228 35.0528 17.2798C35.0326 17.3608 34.9516 17.3608 34.8706 17.3406Z" fill="#0F81A5"/>
<path d="M32.6227 11.9136C32.6025 11.8934 32.5822 11.8731 32.5417 11.8731C32.5417 11.8731 32.5417 11.8731 32.5215 11.8529C32.5012 11.8326 32.481 11.8124 32.4607 11.7921C32.4607 11.7921 32.4607 11.7921 32.4405 11.7719C32.4202 11.7516 32.4 11.7314 32.3797 11.7111L32.3595 11.6909C32.3392 11.6706 32.319 11.6301 32.2987 11.6099C32.2785 11.5694 32.2582 11.5289 32.238 11.4884C32.2177 11.4479 32.2177 11.4276 32.1975 11.3871V11.3669C32.1975 11.3466 32.1772 11.3061 32.1772 11.2859C32.1772 11.2656 32.1772 11.2656 32.1772 11.2454C32.1772 11.2251 32.1772 11.2049 32.1772 11.1846C32.1772 11.1644 32.1772 11.1644 32.1772 11.1441C32.1772 11.1239 32.1772 11.1036 32.1772 11.0834C32.1772 11.0631 32.1772 11.0631 32.1772 11.0429C32.1772 11.0226 32.1772 11.0024 32.1975 11.0024C32.1975 11.0024 32.1975 10.9821 32.2177 10.9821C32.2177 10.9619 32.238 10.9619 32.238 10.9416C32.238 10.9416 32.238 10.9214 32.2582 10.9214C32.2785 10.9011 32.2987 10.8809 32.2987 10.8809L30.9622 11.6504C30.942 11.6706 30.9217 11.6706 30.9217 11.6909C30.9217 11.6909 30.9217 11.7111 30.9015 11.7111C30.9015 11.7314 30.8812 11.7314 30.8812 11.7516V11.7719C30.8812 11.7921 30.8812 11.8124 30.861 11.8124C30.861 11.8326 30.861 11.8326 30.861 11.8529C30.861 11.8731 30.861 11.8934 30.861 11.9136C30.861 11.9339 30.861 11.9339 30.861 11.9541C30.861 11.9744 30.861 11.9946 30.861 12.0149V12.0351C30.861 12.0756 30.8812 12.0959 30.8812 12.1364C30.9015 12.1769 30.9015 12.1971 30.9217 12.2376C30.9217 12.2376 30.9217 12.2376 30.9217 12.2579C30.942 12.2984 30.9622 12.3186 30.9825 12.3591C31.0027 12.3996 31.023 12.4199 31.0432 12.4401L31.0635 12.4604C31.0635 12.4806 31.0837 12.4806 31.0837 12.5009L31.104 12.5211C31.104 12.5211 31.104 12.5211 31.1242 12.5414C31.1445 12.5616 31.1647 12.5819 31.185 12.6021C31.185 12.6021 31.2052 12.6021 31.2052 12.6224C31.2255 12.6426 31.2457 12.6629 31.266 12.6629C31.3875 12.7236 31.4887 12.7439 31.5697 12.7034C32.0152 12.4401 32.4607 12.1769 32.9062 11.9339C32.8455 11.9946 32.7442 11.9946 32.6227 11.9136Z" fill="#0F81A5"/>
<mask id="mask3_133_54" style="mask-type:luminance" maskUnits="userSpaceOnUse" x="30" y="10" width="3" height="2">
<path d="M30.9825 11.6706C31.428 11.4074 31.8735 11.1441 32.319 10.9011C32.319 10.9011 32.319 10.9011 32.2987 10.9011L30.9825 11.6706C30.9622 11.6706 30.9622 11.6706 30.9825 11.6706Z" fill="white"/>
</mask>
<g mask="url(#mask3_133_54)">
<path d="M30.9825 11.6706L32.319 10.9011C32.319 10.9011 32.319 10.9011 32.2987 10.9011L30.9825 11.6706C30.9622 11.6706 30.9622 11.6706 30.9825 11.6706Z" fill="#1398C1"/>
</g>
<path d="M34.2427 15.7003C34.1414 15.6396 34.0604 15.5788 33.9592 15.5181C33.8984 15.4776 33.8579 15.4168 33.7972 15.3763C33.7769 15.3561 33.7567 15.3358 33.7567 15.3358C33.7162 15.2953 33.6757 15.2548 33.6554 15.2143C33.6352 15.1941 33.6149 15.1738 33.6149 15.1536C33.5744 15.1131 33.5339 15.0523 33.4934 15.0118C33.4934 14.9916 33.4732 14.9916 33.4732 14.9713C33.4327 14.9106 33.3922 14.8498 33.3517 14.7891C33.3314 14.7688 33.3314 14.7486 33.3112 14.7283C33.2707 14.6878 33.2504 14.6271 33.2302 14.5663C33.2099 14.5461 33.2099 14.5258 33.1897 14.5056C33.1694 14.4448 33.1289 14.3841 33.1087 14.3436C33.1087 14.3233 33.0884 14.3233 33.0884 14.3031C33.0682 14.2626 33.0682 14.2423 33.0479 14.2018C33.0479 14.1816 33.0277 14.1613 33.0277 14.1208C33.0074 14.0803 33.0074 14.0601 32.9872 14.0196C32.9872 13.9993 32.9669 13.9791 32.9669 13.9386C32.9669 13.8981 32.9467 13.8778 32.9467 13.8373C32.9467 13.8171 32.9264 13.7766 32.9264 13.7563C32.9264 13.7158 32.9062 13.6956 32.9062 13.6551C32.9062 13.6348 32.8859 13.5943 32.8859 13.5741C32.8859 13.5336 32.8859 13.5133 32.8657 13.4728C32.8657 13.4526 32.8657 13.4121 32.8657 13.3918C32.8657 13.3513 32.8657 13.3311 32.8657 13.2906C32.8657 13.2703 32.8657 13.2501 32.8657 13.2096C32.8657 13.1691 32.8657 13.1488 32.8657 13.1083C32.8657 13.0881 32.8657 13.0678 32.8657 13.0476C32.8657 12.9868 32.8859 12.9463 32.8859 12.8856C32.9467 12.6021 33.0884 12.3793 33.2707 12.2781C32.8252 12.5413 32.3797 12.8046 31.9342 13.0476C31.7519 13.1488 31.6102 13.3716 31.5494 13.6551C31.5494 13.6956 31.5292 13.7563 31.5292 13.8171C31.5292 13.8373 31.5292 13.8576 31.5292 13.8778C31.5292 13.9183 31.5292 13.9386 31.5292 13.9791C31.5292 13.9993 31.5292 14.0398 31.5292 14.0601C31.5292 14.0803 31.5292 14.1208 31.5292 14.1411C31.5292 14.1613 31.5292 14.2018 31.5494 14.2221C31.5494 14.2423 31.5494 14.2828 31.5697 14.3031C31.5697 14.3233 31.5899 14.3638 31.5899 14.3841C31.5899 14.4043 31.6102 14.4448 31.6102 14.4651C31.6102 14.4853 31.6304 14.5258 31.6304 14.5461C31.6304 14.5663 31.6507 14.6068 31.6507 14.6271C31.6507 14.6473 31.6709 14.6878 31.6709 14.7081C31.6912 14.7486 31.6912 14.7688 31.7114 14.8093C31.7317 14.8296 31.7317 14.8701 31.7519 14.8903C31.7722 14.9308 31.7722 14.9511 31.7924 14.9916C31.7924 14.9916 31.7924 14.9916 31.7924 15.0118C31.7924 15.0321 31.8127 15.0321 31.8127 15.0523C31.8329 15.1131 31.8734 15.1536 31.8937 15.2143C31.9139 15.2346 31.9139 15.2548 31.9342 15.2751C31.9544 15.3358 31.9949 15.3763 32.0152 15.4168C32.0152 15.4371 32.0354 15.4573 32.0557 15.4776C32.0962 15.5383 32.1367 15.5991 32.1772 15.6598C32.1772 15.6801 32.1974 15.6801 32.1974 15.7003C32.2379 15.7408 32.2784 15.8016 32.3189 15.8421L32.3392 15.8623L32.3594 15.8826C32.3999 15.9231 32.4404 15.9636 32.4607 16.0041C32.4809 16.0243 32.5012 16.0446 32.5012 16.0446C32.5619 16.1053 32.6024 16.1458 32.6632 16.1863C32.7644 16.2673 32.8454 16.3281 32.9467 16.3686C33.3314 16.5913 33.6959 16.6116 33.9592 16.4698C34.4047 16.2066 34.8502 15.9433 35.2957 15.7003C34.9919 15.9636 34.6274 15.9231 34.2427 15.7003Z" fill="#0F81A5"/>
<path d="M36.1867 16.814C36.1665 16.814 36.1462 16.7938 36.1462 16.7735L36.126 16.7533L36.1057 16.733L36.0855 16.7128L36.0652 16.6925L36.045 16.6723L36.0247 16.652C36.0045 16.6318 35.9842 16.5913 35.964 16.571C35.964 16.571 35.964 16.5508 35.9437 16.5508C35.9235 16.5305 35.9032 16.49 35.883 16.4698C35.883 16.4698 35.883 16.4698 35.883 16.4495C35.8627 16.4293 35.8627 16.3888 35.8425 16.3685V16.3483C35.8222 16.3078 35.8222 16.2875 35.8222 16.247V16.2268C35.8222 16.2065 35.802 16.166 35.802 16.1458V16.1255C35.802 16.1053 35.802 16.0648 35.802 16.0445C35.802 16.0243 35.802 16.004 35.8222 15.9635V15.9433C35.8222 15.923 35.8425 15.9028 35.8425 15.8825C35.8627 15.842 35.883 15.8218 35.9235 15.8015C35.64 15.9635 35.3362 16.1458 35.0527 16.3078C34.8907 16.3888 34.749 16.49 34.587 16.571C34.5465 16.5913 34.5262 16.6115 34.506 16.652C34.4857 16.6723 34.4857 16.6925 34.4857 16.7128V16.733C34.4857 16.7533 34.4857 16.7735 34.4655 16.814C34.4655 16.8343 34.4655 16.8748 34.4655 16.895V16.9153C34.4655 16.9355 34.4655 16.976 34.4857 16.9963C34.4857 16.9963 34.4857 16.9963 34.4857 17.0165C34.4857 17.057 34.506 17.0773 34.5262 17.1178V17.138C34.5262 17.1583 34.5262 17.1583 34.5465 17.1785C34.5465 17.1988 34.5667 17.219 34.5667 17.219C34.5667 17.219 34.5667 17.219 34.5667 17.2393C34.587 17.2798 34.6072 17.3 34.6275 17.3405C34.6275 17.3405 34.6275 17.3608 34.6477 17.3608C34.668 17.381 34.6882 17.4215 34.7085 17.4418L34.7287 17.462C34.7287 17.4823 34.749 17.4823 34.7692 17.5025L34.7895 17.5228L34.8097 17.543L34.83 17.5633L34.8502 17.5835C34.8705 17.6038 34.8907 17.6038 34.8907 17.624C35.0122 17.6848 35.1135 17.705 35.1945 17.6645C35.2552 17.624 35.3362 17.5835 35.397 17.543C35.5995 17.4215 35.802 17.3 36.0045 17.1988C36.1867 17.0975 36.369 16.9963 36.531 16.895C36.4095 16.8748 36.288 16.8748 36.1867 16.814Z" fill="#0F81A5"/>
<path d="M34.6074 12.2578C34.5871 12.2578 34.5871 12.2578 34.6074 12.2578C34.5669 12.2376 34.5466 12.2173 34.5061 12.1971C34.4859 12.1768 34.4656 12.1566 34.4251 12.1161C34.4049 12.0958 34.3846 12.0553 34.3644 12.0351C34.3644 12.0351 34.3644 12.0148 34.3441 12.0148C34.3239 11.9946 34.3036 11.9743 34.3036 11.9338V11.9136C34.2834 11.8731 34.2631 11.8528 34.2631 11.8123V11.7921C34.2631 11.7718 34.2429 11.7516 34.2429 11.7111C34.2429 11.6908 34.2429 11.6908 34.2429 11.6706C34.2429 11.6503 34.2226 11.6301 34.2226 11.5896V11.5693C34.2226 11.5288 34.2226 11.5086 34.2226 11.4681C34.2226 11.3466 34.2834 11.2453 34.3441 11.2048C33.8986 11.4681 33.4531 11.7313 33.0076 11.9743C32.9266 12.0148 32.8861 12.1161 32.8861 12.2376C32.8861 12.2781 32.8861 12.2983 32.8861 12.3388C32.8861 12.3591 32.8861 12.3591 32.8861 12.3793C32.8861 12.3996 32.8861 12.4198 32.9064 12.4401C32.9064 12.4603 32.9064 12.4603 32.9064 12.4806C32.9064 12.5008 32.9266 12.5211 32.9266 12.5413C32.9266 12.5616 32.9266 12.5616 32.9469 12.5818C32.9469 12.5818 32.9469 12.5818 32.9469 12.6021C32.9671 12.6223 32.9671 12.6628 32.9874 12.6831C32.9874 12.6831 32.9874 12.7033 33.0076 12.7033C33.0279 12.7236 33.0279 12.7438 33.0481 12.7843C33.0481 12.7843 33.0481 12.8046 33.0684 12.8046C33.0886 12.8248 33.1089 12.8451 33.1291 12.8856C33.1494 12.9058 33.1696 12.9261 33.2101 12.9666C33.2304 12.9868 33.2709 13.0071 33.2911 13.0273C33.2911 13.0273 33.2911 13.0273 33.3114 13.0273C33.4329 13.0881 33.5341 13.1083 33.6151 13.0678C34.0606 12.8046 34.5061 12.5413 34.9516 12.2983C34.8301 12.3388 34.7289 12.3388 34.6074 12.2578Z" fill="#0F81A5"/>
<mask id="mask4_133_54" style="mask-type:luminance" maskUnits="userSpaceOnUse" x="35" y="14" width="2" height="2">
<path d="M36.5715 14.7891C36.126 15.0523 35.6805 15.3156 35.235 15.5586C35.1945 15.5788 35.154 15.5991 35.0933 15.5788L36.4298 14.8093C36.4703 14.8296 36.531 14.8093 36.5715 14.7891Z" fill="white"/>
</mask>
<g mask="url(#mask4_133_54)">
<path d="M35.073 15.5991L36.4095 14.8296C36.4703 14.8296 36.5108 14.8296 36.5513 14.8093L35.2147 15.5788C35.1742 15.5991 35.1337 15.5991 35.073 15.5991Z" fill="#1398C1"/>
</g>
<path d="M36.2475 14.7688C36.2273 14.7486 36.207 14.7486 36.1868 14.7283C36.1868 14.7283 36.1665 14.7283 36.1665 14.7081C36.1463 14.6878 36.1463 14.6878 36.126 14.6676L36.1058 14.6473C36.0855 14.6271 36.0855 14.6271 36.0653 14.6068C36.0653 14.6068 36.0653 14.6068 36.045 14.5866C36.0045 14.5461 35.964 14.5056 35.9438 14.4448C35.9438 14.4448 35.9438 14.4246 35.9235 14.4246C35.9033 14.4043 35.9033 14.3841 35.883 14.3638C35.883 14.3638 35.883 14.3436 35.8628 14.3436C35.8628 14.3233 35.8425 14.3031 35.8425 14.3031C35.8223 14.2626 35.8223 14.2423 35.802 14.2018C35.7413 13.9791 35.7818 13.7766 35.9033 13.7158C35.4578 13.9791 35.0123 14.2423 34.5668 14.4853C34.4453 14.5461 34.4048 14.7486 34.4655 14.9713C34.4858 15.0118 34.4858 15.0523 34.506 15.0726C34.506 15.0726 34.506 15.0726 34.506 15.0928C34.506 15.1131 34.5263 15.1131 34.5263 15.1333C34.5263 15.1333 34.5263 15.1536 34.5465 15.1536C34.5465 15.1738 34.5668 15.1941 34.5668 15.2143C34.5668 15.2143 34.5668 15.2346 34.587 15.2346C34.6073 15.2751 34.6478 15.3156 34.6883 15.3561C34.6883 15.3561 34.6883 15.3561 34.7085 15.3763C34.7288 15.3966 34.7288 15.4168 34.749 15.4168L34.7693 15.4371C34.7895 15.4573 34.7895 15.4573 34.8098 15.4776C34.8098 15.4776 34.83 15.4776 34.83 15.4978C34.8503 15.5181 34.8705 15.5181 34.8908 15.5383C34.9515 15.5788 35.0123 15.5991 35.0528 15.5991L36.3893 14.8296C36.369 14.8093 36.3083 14.7891 36.2475 14.7688Z" fill="#0F81A5"/>
<path d="M37.2802 16.2674C37.2802 16.2269 37.2802 16.2067 37.3005 16.1662C37.3005 16.1459 37.3005 16.1257 37.3005 16.0852C37.3005 16.0447 37.3005 16.0244 37.3005 15.9839C37.3005 15.9637 37.3005 15.9232 37.3005 15.9029C37.3005 15.8624 37.3005 15.8422 37.3005 15.8017C37.3005 15.7814 37.3005 15.7409 37.3005 15.7207C37.3005 15.6802 37.3005 15.6599 37.3005 15.6194C37.3005 15.5992 37.3005 15.5587 37.3005 15.5384C37.3005 15.4979 37.3005 15.4777 37.3005 15.4372C37.3005 15.4169 37.3005 15.3764 37.3005 15.3562C37.3005 15.3157 37.3005 15.2954 37.2802 15.2549C37.2802 15.2347 37.2802 15.1942 37.26 15.1739C37.26 15.1334 37.26 15.1132 37.2397 15.0727C37.2397 15.0524 37.2195 15.0119 37.2195 14.9917C37.2195 14.9512 37.1992 14.9107 37.1992 14.8904C37.1992 14.8702 37.179 14.8297 37.179 14.8094C37.179 14.7689 37.1587 14.7284 37.1587 14.7082C37.1587 14.6879 37.1385 14.6474 37.1385 14.6272C37.1385 14.5867 37.1182 14.5462 37.1182 14.5259C37.1182 14.5057 37.098 14.4652 37.098 14.4449C37.0777 14.4044 37.0777 14.3639 37.0575 14.3437C37.0575 14.3234 37.0372 14.2829 37.0372 14.2627C37.017 14.2222 37.017 14.1817 36.9967 14.1614C36.9967 14.1412 36.9765 14.1007 36.9765 14.0804C36.9562 14.0399 36.9562 13.9994 36.936 13.9792C36.936 13.9589 36.9157 13.9184 36.8955 13.8982C36.8752 13.8577 36.8752 13.8172 36.855 13.7969C36.8347 13.7767 36.8347 13.7362 36.8145 13.7159C36.7942 13.6754 36.774 13.6349 36.774 13.6147V13.5944C36.774 13.5742 36.7537 13.5742 36.7537 13.5539C36.7335 13.4932 36.693 13.4324 36.6727 13.3717C36.6727 13.3514 36.6525 13.3312 36.6322 13.3109C36.5917 13.2502 36.5715 13.1894 36.531 13.1084C36.531 13.1084 36.531 13.0882 36.5107 13.0882C36.4702 13.0072 36.4297 12.9464 36.3892 12.8654C36.369 12.8452 36.369 12.8249 36.3487 12.8047C36.3082 12.7439 36.288 12.7034 36.2475 12.6427C36.2272 12.6224 36.2272 12.6022 36.207 12.5819C36.1665 12.5212 36.126 12.4604 36.0855 12.3997C36.0855 12.3794 36.0652 12.3794 36.0652 12.3592C36.0247 12.2984 35.964 12.2174 35.9235 12.1567C35.9032 12.1364 35.9032 12.1162 35.883 12.1162C35.8425 12.0554 35.802 12.0149 35.7615 11.9542C35.7412 11.9339 35.721 11.9137 35.721 11.8934C35.6805 11.8327 35.64 11.7922 35.5792 11.7314L35.559 11.7112C35.4982 11.6504 35.4577 11.5897 35.397 11.5289C35.3767 11.5087 35.3767 11.5087 35.3565 11.4884C35.316 11.4479 35.2755 11.4074 35.235 11.3669C35.2147 11.3467 35.1945 11.3264 35.1742 11.3062C35.1337 11.2657 35.0932 11.2252 35.0527 11.1847C35.0325 11.1644 35.0122 11.1442 34.992 11.1442C34.9312 11.0834 34.8705 11.0429 34.8097 11.0024C34.6072 10.8404 34.4047 10.6987 34.2022 10.5974C33.372 10.1114 32.5822 10.0507 32.0152 10.3949C31.7925 10.5164 31.5697 10.6582 31.347 10.7797C31.1242 10.9012 30.9015 11.0429 30.6787 11.1644C31.2457 10.8404 32.0355 10.9012 32.8657 11.3669C33.0682 11.4884 33.2707 11.6099 33.4732 11.7719C33.534 11.8124 33.5947 11.8732 33.6555 11.9137C33.6757 11.9339 33.696 11.9542 33.7162 11.9542C33.7567 11.9947 33.7972 12.0352 33.8377 12.0757C33.858 12.0959 33.8782 12.1162 33.8985 12.1364C33.939 12.1769 33.9795 12.2174 34.02 12.2579C34.0402 12.2782 34.0402 12.2984 34.0605 12.2984C34.1212 12.3592 34.1617 12.4199 34.2225 12.4807C34.2427 12.5009 34.2427 12.5009 34.263 12.5212C34.3035 12.5617 34.344 12.6224 34.3845 12.6629C34.4047 12.6832 34.425 12.7034 34.4452 12.7237C34.4857 12.7642 34.5262 12.8249 34.5667 12.8654C34.587 12.8857 34.587 12.9059 34.6072 12.9262C34.6477 12.9869 34.7085 13.0679 34.749 13.1287C34.749 13.1489 34.7692 13.1489 34.7692 13.1692C34.8097 13.2299 34.8502 13.2907 34.8907 13.3312C34.911 13.3514 34.911 13.3717 34.9312 13.3919C34.9717 13.4527 34.992 13.4932 35.0325 13.5539C35.0527 13.5742 35.0527 13.5944 35.073 13.6147C35.1135 13.6957 35.154 13.7564 35.1945 13.8374C35.1945 13.8577 35.2147 13.8577 35.2147 13.8779C35.2552 13.9387 35.2755 13.9994 35.316 14.0602C35.3362 14.0804 35.3362 14.1007 35.3565 14.1412C35.3767 14.2019 35.4172 14.2424 35.4375 14.3032C35.4577 14.3234 35.4577 14.3437 35.478 14.3842C35.4982 14.4044 35.4982 14.4449 35.5185 14.4652C35.5387 14.5057 35.5387 14.5259 35.559 14.5664C35.5792 14.5867 35.5792 14.6272 35.5995 14.6474C35.6197 14.6879 35.6197 14.7082 35.64 14.7487C35.6602 14.7689 35.6602 14.8094 35.6805 14.8297C35.7007 14.8702 35.7007 14.8904 35.721 14.9309C35.7412 14.9512 35.7412 14.9917 35.7412 15.0119C35.7615 15.0524 35.7615 15.0727 35.7817 15.1132C35.7817 15.1334 35.802 15.1739 35.802 15.1942C35.802 15.2347 35.8222 15.2549 35.8222 15.2954C35.8222 15.3157 35.8425 15.3562 35.8425 15.3764C35.8425 15.4169 35.8627 15.4372 35.8627 15.4777C35.8627 15.4979 35.883 15.5384 35.883 15.5587C35.883 15.5992 35.9032 15.6194 35.9032 15.6599C35.9032 15.6802 35.9235 15.7207 35.9235 15.7409C35.9235 15.7814 35.9437 15.8017 35.9437 15.8422C35.9437 15.8624 35.9437 15.9029 35.964 15.9232C35.964 15.9637 35.964 15.9839 35.9842 16.0244C35.9842 16.0447 35.9842 16.0852 35.9842 16.1054C35.9842 16.1459 35.9842 16.1662 35.9842 16.2067C35.9842 16.2269 35.9842 16.2674 35.9842 16.2877C35.9842 16.3282 35.9842 16.3484 35.9842 16.3889C35.9842 16.4092 35.9842 16.4497 35.9842 16.4699C35.9842 16.4902 35.9842 16.5307 35.9842 16.5509C35.9842 16.5914 35.9842 16.6117 35.9842 16.6319C35.9842 16.6522 35.9842 16.6927 35.9842 16.7129C35.9842 16.7534 35.9842 16.7737 35.9842 16.8142C35.9842 16.8344 35.9842 16.8749 35.9842 16.8952C35.9842 16.9357 35.9842 16.9559 35.964 16.9964C35.964 17.0167 35.964 17.0369 35.964 17.0572C35.964 17.1179 35.9437 17.1584 35.9437 17.2192C35.883 17.5229 35.7817 17.7659 35.6602 17.9887C35.6602 18.0089 35.64 18.0089 35.64 18.0292C35.4982 18.2519 35.3362 18.4139 35.1337 18.5354C35.5792 18.2722 36.0247 18.0089 36.4702 17.7659C36.8752 17.5229 37.179 17.0774 37.3005 16.4497C37.3207 16.3889 37.3207 16.3484 37.3207 16.2877C37.2802 16.3079 37.2802 16.2877 37.2802 16.2674Z" fill="#2FBAE5"/>
<path d="M33.5138 11.7516C35.1743 13.0881 36.2476 15.5586 35.9033 17.2799C35.6806 18.4139 34.8908 18.9404 33.9188 18.7784L33.2506 25.8659L30.0105 27.7491L28.4513 26.5139L28.9778 22.4031L31.0433 16.5711C30.1523 15.2549 29.6663 13.6551 29.9093 12.4401C30.213 10.9213 31.4888 10.5163 32.9266 11.3466C33.1088 11.4478 33.3113 11.5896 33.5138 11.7516ZM34.2833 15.9636C34.4453 15.1739 33.9391 14.0196 33.1696 13.4121C33.0683 13.3311 32.9873 13.2704 32.8861 13.2299C32.2178 12.8451 31.6306 13.0476 31.4888 13.7361C31.3268 14.5259 31.8331 15.6801 32.6026 16.2876C32.7038 16.3686 32.7848 16.4294 32.8861 16.4699C33.5543 16.8749 34.1618 16.6724 34.2833 15.9636ZM35.2351 17.5229C35.3363 17.3406 35.2553 16.9761 35.0326 16.7331C34.9718 16.6521 34.9111 16.6116 34.8301 16.5711C34.6681 16.4699 34.5061 16.4901 34.4453 16.6319C34.3441 16.8141 34.4251 17.1786 34.6478 17.4216C34.7086 17.5026 34.7693 17.5431 34.8503 17.5836C34.9921 17.6849 35.1541 17.6646 35.2351 17.5229ZM31.9951 16.6724C32.1368 16.5306 32.0761 16.1864 31.8938 15.9029C31.8128 15.8016 31.7318 15.7206 31.6508 15.6801C31.5091 15.5991 31.3673 15.5991 31.2863 15.6801C31.1445 15.8219 31.2053 16.1661 31.3876 16.4496C31.4686 16.5509 31.5496 16.6319 31.6306 16.6724C31.7723 16.7736 31.9141 16.7736 31.9951 16.6724ZM35.0731 15.5991C35.2958 15.6194 35.3971 15.3966 35.3161 15.0726C35.2553 14.8296 35.0933 14.6271 34.9111 14.5259C34.8503 14.4854 34.7896 14.4651 34.7491 14.4651C34.5263 14.4449 34.4251 14.6676 34.5061 14.9916C34.5668 15.2346 34.7288 15.4371 34.9111 15.5384C34.9718 15.5789 35.0326 15.5991 35.0731 15.5991ZM30.9623 11.6706C30.8003 11.7718 30.8003 12.0958 30.9825 12.3996C31.0635 12.5414 31.1648 12.6426 31.2863 12.7034C31.4078 12.7641 31.5293 12.7844 31.6103 12.7236C31.7723 12.6224 31.7723 12.2983 31.5901 11.9946C31.5091 11.8528 31.4078 11.7516 31.2863 11.6908C31.1648 11.6301 31.0433 11.6098 30.9623 11.6706ZM33.5341 18.1304C33.7771 18.1911 33.9188 18.0089 33.8581 17.7051C33.7973 17.4419 33.6353 17.1989 33.4328 17.0774C33.3923 17.0571 33.3518 17.0369 33.3316 17.0369C33.0886 16.9761 32.9468 17.1584 33.0076 17.4621C33.0481 17.7254 33.2303 17.9684 33.4328 18.0899C33.4531 18.0899 33.4936 18.1101 33.5341 18.1304ZM30.7598 14.3841C31.0028 14.4854 31.1648 14.3436 31.1446 14.0601C31.1243 13.7969 30.9218 13.4931 30.7193 13.3716C30.699 13.3716 30.6788 13.3514 30.6788 13.3514C30.4358 13.2501 30.2738 13.3919 30.294 13.6754C30.3143 13.9386 30.5168 14.2424 30.7193 14.3639C30.7395 14.3639 30.7395 14.3841 30.7598 14.3841ZM33.2708 12.0351C33.0278 11.8933 32.8456 11.9946 32.8253 12.2781C32.8253 12.5616 33.0076 12.8856 33.2506 13.0476C33.2506 13.0476 33.2506 13.0476 33.2708 13.0476C33.5138 13.1894 33.6961 13.0881 33.7163 12.8046C33.7163 12.5211 33.5138 12.1971 33.2708 12.0351Z" fill="#139DC8"/>
<path d="M6.37875 52.4136C6.21675 51.9479 5.77125 51.5834 5.48775 51.7454C5.44725 51.7656 5.28525 51.8669 5.24475 51.8872C5.4675 51.7454 5.85225 51.9884 6.05475 52.3732C6.21675 52.6567 6.2775 53.0819 6.0345 53.2236C6.075 53.2034 6.237 53.1022 6.2775 53.0819C6.45975 53.0009 6.48 52.7174 6.37875 52.4136Z" fill="#C2C5CA"/>
<path d="M5.62952 51.9274C5.93327 52.1097 6.17627 52.535 6.17627 52.8792C6.17627 53.2235 5.93327 53.3652 5.62952 53.2032C5.32577 53.021 5.08276 52.5957 5.08276 52.2514C5.08276 51.8869 5.32577 51.7452 5.62952 51.9274Z" fill="#929598"/>
<path d="M14.2357 53.3856C14.0737 52.9198 13.6282 52.5553 13.3447 52.7173C13.3042 52.7376 13.1422 52.8388 13.1017 52.8591C13.3244 52.7173 13.7092 52.9603 13.9117 53.3451C14.0737 53.6286 14.1344 54.0538 13.8914 54.1956C13.9319 54.1753 14.0939 54.0741 14.1344 54.0538C14.3167 53.9526 14.3369 53.6691 14.2357 53.3856Z" fill="#C2C5CA"/>
<path d="M13.4866 52.8994C13.7903 53.0816 14.0333 53.5069 14.0333 53.8511C14.0333 54.1954 13.7903 54.3371 13.4866 54.1751C13.1828 53.9929 12.9398 53.5676 12.9398 53.2234C12.9398 52.8589 13.1828 52.7171 13.4866 52.8994Z" fill="#929598"/>
<path d="M22.761 61.8502C22.599 61.3844 22.1535 61.0199 21.87 61.1819C21.8295 61.2022 21.6675 61.3034 21.627 61.3237C21.8497 61.1819 22.2345 61.4249 22.437 61.8097C22.599 62.0932 22.6597 62.5184 22.4167 62.6602C22.4572 62.6399 22.6192 62.5387 22.6597 62.5184C22.842 62.4172 22.8622 62.1337 22.761 61.8502Z" fill="#C2C5CA"/>
<path d="M22.0321 61.3642C22.3358 61.5465 22.5788 61.9717 22.5788 62.316C22.5788 62.6602 22.3358 62.802 22.0321 62.64C21.7283 62.4577 21.4853 62.0325 21.4853 61.6882C21.4651 61.3237 21.7081 61.182 22.0321 61.3642Z" fill="#929598"/>
</svg>
