<svg width="80" height="80" viewBox="0 0 80 80" fill="none" xmlns="http://www.w3.org/2000/svg">
<path d="M25.5315 63.8508C24.5162 63.8508 23.5432 63.7239 22.549 63.4912C17.6838 62.3278 18.255 55.6012 18.5511 52.3648L19.2915 52.4283C19.0165 55.6858 18.4876 61.7355 22.7182 62.7508C28.4295 64.1258 34.4792 61.3336 43.6384 53.1474C45.2248 51.7302 47.0651 49.9534 49.0323 48.0708C52.5014 44.7286 56.4147 40.9634 59.5241 38.6366C61.7029 36.9867 63.7335 36.3733 65.5738 36.7752C67.3718 37.1771 68.916 38.5731 70.1429 40.9L69.466 41.2596C68.3449 39.1231 66.9699 37.8751 65.4046 37.5155C63.8182 37.1559 61.9779 37.7482 59.9895 39.25C56.9223 41.5557 53.0302 45.3209 49.5823 48.6419C47.6151 50.5245 45.7748 52.3225 44.1672 53.7397C36.3195 60.7202 30.6717 63.8296 25.5315 63.8508Z" fill="black"/>
<path d="M71.412 38.6787L66.1873 42.5708L70.1428 44.8765L75.3887 41.8728V40.5402L71.412 38.6787Z" fill="#4D4D4D"/>
<path d="M72.7022 40.4346L69.2966 42.8037L71.1581 43.8825L74.5637 41.9153V41.2807L72.7022 40.4346Z" fill="#505152"/>
<path d="M72.7022 40.2017L69.2966 42.1689L71.1581 43.2477L74.5637 41.2805L72.7022 40.2017Z" fill="#2C2F31"/>
<path d="M71.1581 43.269V43.8824L69.2966 42.8036V42.1902L71.1581 43.269Z" fill="#26292B"/>
<path d="M71.412 38.2134L66.1873 41.2171L70.1428 43.5227L70.6717 43.2478L71.0736 41.6824L73.9926 39.9902L74.7753 40.8786L75.3887 40.5402L71.412 38.2134Z" fill="#2FBAE5"/>
<path d="M70.1428 43.5229V44.8556L66.166 42.5499V41.2173L68.9582 41.598L70.1428 43.5229Z" fill="#2FBAE5"/>
<path d="M71.0736 41.6613L68.3237 39.9902L70.1006 38.9749L73.9927 39.969L71.0736 41.6613Z" fill="#58D8FF"/>
<path d="M75.8753 15.3686V38.0867L65.7854 32.2274V6.01904L72.8081 10.0592L75.8753 15.3686Z" fill="#139DC8"/>
<path d="M78.4984 13.8454V36.5635L76.3408 20.3393L68.4084 4.49585L75.4312 8.53604L78.4984 13.8454Z" fill="#139DC8"/>
<path d="M65.7854 6.01885L68.4083 4.49585L75.4311 8.53604L72.8081 10.059L65.7854 6.01885Z" fill="#2FBAE5"/>
<path d="M72.8081 10.0591L75.8753 15.3685L78.4982 13.8455L75.4311 8.53613L72.8081 10.0591Z" fill="#2FBAE5"/>
<path d="M75.8752 38.0866L78.4982 36.5636V13.8455L75.8752 15.3685V38.0866Z" fill="#2FBAE5"/>
<path d="M76.3831 24.57V15.0935L77.4618 18.4568V22.4335L76.3831 24.57Z" fill="#26292B"/>
<path d="M78.4983 23.3219V13.8455L79.5771 17.2299V21.1855L78.4983 23.3219Z" fill="#34373A"/>
<path d="M76.3831 15.0935L78.4983 13.8455L79.5771 17.2299L77.4618 18.4568L76.3831 15.0935Z" fill="#434446"/>
<path d="M77.4617 22.4336L79.577 21.1856V17.23L77.4617 18.4568V22.4336Z" fill="#34373A"/>
<path d="M77.4618 22.4336L79.5771 21.1855L78.4983 23.322L76.3831 24.57L77.4618 22.4336Z" fill="#434446"/>
<path d="M73.7599 33.0947L15.5474 66.7065V60.3184L73.7599 26.7065V33.0947Z" fill="#139DC8"/>
<path d="M78.3291 20.4663L78.9848 19.3452L78.8579 19.2817L78.2021 20.4028L78.3291 20.4663Z" fill="#262523"/>
<path d="M79.0059 19.578C79.0059 19.8741 78.7944 20.2337 78.5406 20.3818C78.2867 20.5299 78.0752 20.403 78.0752 20.1068C78.0752 19.8107 78.2867 19.4511 78.5406 19.303C78.7944 19.1549 79.0059 19.2819 79.0059 19.578Z" fill="#262523"/>
<path d="M79.1116 19.6415C79.1116 19.9376 78.9001 20.2972 78.6463 20.4453C78.3924 20.5933 78.1809 20.4664 78.1809 20.1703C78.1809 19.8742 78.3924 19.5146 78.6463 19.3665C78.9001 19.2184 79.1116 19.3453 79.1116 19.6415Z" fill="url(#paint0_linear_133_55)"/>
<path d="M79.0694 19.7259C79.0694 19.9586 78.9001 20.2548 78.6886 20.3605C78.4771 20.4874 78.3079 20.3817 78.3079 20.149C78.3079 19.9163 78.4771 19.6202 78.6886 19.4933C78.9001 19.3875 79.0694 19.4721 79.0694 19.7259Z" fill="#262523"/>
<path d="M78.4768 20.3816L78.9845 19.4932L79.5767 19.8105L79.0691 20.6989L78.4768 20.3816Z" fill="#9C9C9B"/>
<path d="M79.0904 19.7472C79.0904 19.8529 79.0481 19.9799 78.9846 20.1068C78.9211 20.2125 78.8365 20.3183 78.7308 20.3606C78.6885 20.3818 78.625 20.4029 78.5827 20.4029L78.5615 20.4452L78.4558 20.3818C78.3712 20.3395 78.3289 20.2549 78.3289 20.1279C78.3289 20.0222 78.3712 19.8953 78.4346 19.7895C78.4981 19.6837 78.5827 19.578 78.6885 19.5145C78.7942 19.451 78.9 19.451 78.9634 19.4934L79.0481 19.5568L79.0269 19.578C79.0692 19.6203 79.0904 19.6626 79.0904 19.7472Z" fill="#9C9C9B"/>
<path d="M79.5769 19.6413L79.8519 19.8105L79.7038 20.0644C79.6615 20.297 79.5135 20.572 79.3231 20.7201L79.175 20.9951L78.9 20.8259C78.8154 20.7836 78.752 20.6566 78.752 20.5086C78.752 20.1913 78.9635 19.8317 79.2385 19.6625C79.3654 19.599 79.4923 19.599 79.5769 19.6413Z" fill="#747474"/>
<path d="M79.9999 20.1068C79.9999 19.8107 79.7884 19.6837 79.5134 19.8318C79.2384 19.9799 79.0269 20.3606 79.0269 20.6568C79.0269 20.9741 79.2384 21.0798 79.5134 20.9318C79.7884 20.8048 79.9999 20.4241 79.9999 20.1068Z" fill="#D6D2D4"/>
<path d="M79.9999 20.1068C79.9999 19.8107 79.7884 19.6837 79.5134 19.8318C79.2384 19.9799 79.0269 20.3606 79.0269 20.6568C79.0269 20.9741 79.2384 21.0798 79.5134 20.9318C79.7884 20.8048 79.9999 20.4241 79.9999 20.1068Z" fill="#BCBCBC"/>
<path d="M23.3951 50.7785L12.6707 44.623V50.8843L23.3951 57.0186L24.6008 51.6035L23.3951 50.7785Z" fill="#B5BCC3"/>
<path d="M74.7752 20.6567L23.395 50.7784V57.0185L74.7752 26.918V20.6567Z" fill="#2FBAE5"/>
<path d="M64.0297 14.5012L12.6707 44.6229L23.3951 50.7995L74.7754 20.6567L64.0297 14.5012Z" fill="#E2E2E8"/>
<path d="M22.7817 51.1803L11.8457 44.8979V46.7805L22.7817 53.0418L24.0086 52.0053L22.7817 51.1803Z" fill="#B5BCC3"/>
<path d="M75.1138 20.4875L22.7817 51.1803V53.0418L75.1138 22.3701V20.4875Z" fill="#434446"/>
<path d="M64.1778 14.2263L11.8457 44.8979L22.7606 51.1803L75.1138 20.4876L64.1778 14.2263Z" fill="#26292B"/>
<path d="M23.8393 37.9808L13.1995 31.8677V43.3114L23.8393 49.3822L25.0239 44.0094L23.8393 37.9808Z" fill="#139DC8"/>
<path d="M74.7754 8.11328L23.8394 37.9811V49.3825L74.7754 19.5358V8.11328Z" fill="#2FBAE5"/>
<path d="M64.1355 2L13.1995 31.8678L23.8393 37.981L74.7754 8.11317L64.1355 2Z" fill="#58D8FF"/>
<path d="M20.7086 47.1188V69.837L10.6187 58.2241V37.7693L17.6414 41.8095L20.7086 47.1188Z" fill="#B5BCC3"/>
<path d="M23.3316 45.5958V68.3139L21.174 52.0897L13.2417 36.2251L20.2644 40.2864L23.3316 45.5958Z" fill="#B5BCC3"/>
<path d="M10.6187 37.7693L13.2416 36.2251L20.2643 40.2864L17.6414 41.8094L10.6187 37.7693Z" fill="#58D8FF"/>
<path d="M17.6416 41.8096L20.7088 47.119L23.3317 45.596L20.2646 40.2866L17.6416 41.8096Z" fill="#139DC8"/>
<path d="M20.7087 69.8371L23.3317 68.3141V45.5959L20.7087 47.1189V69.8371Z" fill="#2FBAE5"/>
<path d="M10.0899 53.2744V76.0136L0 70.1755V43.9248L7.04389 47.9862L10.0899 53.2744Z" fill="#139DC8"/>
<path d="M20.6453 47.1612V69.8794L10.5554 58.2665V37.7905L17.5782 41.8519L20.6453 47.1612Z" fill="#B5BCC3"/>
<path d="M0 43.9248L10.5553 37.7905L17.578 41.8519L7.04389 47.9862L0 43.9248Z" fill="#58D8FF"/>
<path d="M7.04395 47.9864L10.09 53.2746L20.6452 47.1614L17.5781 41.8521L7.04395 47.9864Z" fill="#139DC8"/>
<path d="M8.90527 48.4728L17.0914 43.7134L18.7836 46.6536L10.5975 51.413L8.90527 48.4728Z" fill="#34373A"/>
<path d="M8.98999 48.515L17.0492 43.8191L18.678 46.6324L10.6188 51.3072L8.98999 48.515Z" fill="#34373A"/>
<path d="M15.3569 44.8133L17.0491 43.8191L18.6779 46.6324L10.6187 51.3072L15.3569 44.8133Z" fill="#434446"/>
<path d="M10.0898 76.0136L20.6451 69.8793V47.1611L10.0898 53.2743V76.0136Z" fill="#2FBAE5"/>
<path d="M14.7646 40.7733L5.16118 39.8637L5.05542 39.0599L14.5742 33.5813L14.7646 33.7082V40.7733Z" fill="#E2E2E8"/>
<path d="M5.28833 46.2306L14.7648 40.7732V33.687L5.28833 39.1656V46.2306Z" fill="#F1F2F3"/>
<path d="M5.88062 45.2996L14.3417 40.4133V34.6809L5.90177 39.5672L5.88062 45.2996Z" fill="url(#paint1_linear_133_55)"/>
<path d="M5.88062 45.1517L14.1091 40.3923V34.8291L5.88062 39.5885V45.1517Z" fill="#E2E2E8"/>
<path d="M5.05542 39.0598L5.2881 39.1656V46.2306L5.07657 46.1249L5.05542 39.0598Z" fill="#B5BCC3"/>
<path opacity="0.3" d="M12.0995 35.9925L6.93823 44.5383L14.109 40.3923V34.8291L12.0995 35.9925Z" fill="#515B5B"/>
<path d="M15.2723 52.7455L15.928 51.6033L15.8222 51.5398L15.1665 52.6821L15.2723 52.7455Z" fill="#262523"/>
<path d="M15.9493 51.8361C15.9493 52.1322 15.7378 52.4918 15.4839 52.6399C15.2301 52.788 15.0186 52.6611 15.0186 52.3649C15.0186 52.0688 15.2301 51.7092 15.4839 51.5611C15.7378 51.4342 15.9493 51.54 15.9493 51.8361Z" fill="#262523"/>
<path d="M16.055 51.8996C16.055 52.1957 15.8435 52.5553 15.5896 52.7034C15.3358 52.8514 15.1243 52.7245 15.1243 52.4284C15.1243 52.1323 15.3358 51.7727 15.5896 51.6246C15.8435 51.4977 16.055 51.6034 16.055 51.8996Z" fill="url(#paint2_linear_133_55)"/>
<path d="M16.0127 51.984C16.0127 52.2167 15.8435 52.5128 15.632 52.6186C15.4204 52.7455 15.2512 52.6397 15.2512 52.407C15.2512 52.1744 15.4204 51.8782 15.632 51.7513C15.8435 51.6455 16.0127 51.7513 16.0127 51.984Z" fill="#262523"/>
<path d="M15.4207 52.6609L15.9283 51.7725L16.5206 52.0898L16.0129 52.9782L15.4207 52.6609Z" fill="#747474"/>
<path d="M16.034 52.0051C16.034 52.1109 15.9917 52.2378 15.9282 52.3647C15.8647 52.4705 15.7801 52.5762 15.6744 52.6185C15.6321 52.6397 15.5686 52.6608 15.5263 52.6608L15.5051 52.7031L15.3994 52.6397C15.3148 52.5974 15.2725 52.5128 15.2725 52.3858C15.2725 52.2801 15.3148 52.1532 15.3782 52.0474C15.4417 51.9416 15.5263 51.8359 15.6321 51.7936C15.7378 51.7301 15.8436 51.7301 15.907 51.7724L15.9917 51.8359L15.9705 51.857C16.0128 51.8782 16.034 51.9416 16.034 52.0051Z" fill="#747474"/>
<path d="M16.5205 51.9207L16.7955 52.0899L16.6474 52.3438C16.6051 52.5765 16.4571 52.8514 16.2667 52.9995L16.1186 53.2745L15.8436 53.1053C15.759 53.063 15.6956 52.9361 15.6956 52.788C15.6956 52.4707 15.9071 52.1111 16.1821 51.9419C16.309 51.8573 16.4359 51.8573 16.5205 51.9207Z" fill="#9C9C9B"/>
<path d="M16.9435 52.386C16.9435 52.0687 16.732 51.963 16.457 52.111C16.182 52.2591 15.9705 52.6399 15.9705 52.936C15.9705 53.2533 16.182 53.3591 16.457 53.211C16.732 53.0629 16.9435 52.7033 16.9435 52.386Z" fill="#D6D2D4"/>
<path d="M16.9435 52.386C16.9435 52.0687 16.732 51.963 16.457 52.111C16.182 52.2591 15.9705 52.6399 15.9705 52.936C15.9705 53.2533 16.182 53.3591 16.457 53.211C16.732 53.0629 16.9435 52.7033 16.9435 52.386Z" fill="#DEDBD5"/>
<path d="M11.6974 49.5938C11.782 49.7631 11.7186 49.9957 11.5705 50.0803C11.4013 50.165 11.2109 50.1015 11.1263 49.9323C11.0417 49.7631 11.1051 49.5304 11.2532 49.4458C11.4224 49.3611 11.6128 49.4246 11.6974 49.5938Z" fill="#262523"/>
<path d="M11.8031 49.6361C11.8877 49.8053 11.8243 50.038 11.6762 50.1226C11.507 50.2073 11.3166 50.1438 11.232 49.9746C11.1474 49.8053 11.2108 49.5727 11.3589 49.4881C11.507 49.3823 11.7185 49.4669 11.8031 49.6361Z" fill="url(#paint3_linear_133_55)"/>
<path d="M11.7819 49.6572C11.8453 49.8053 11.803 49.9745 11.6761 50.0591C11.5492 50.1437 11.38 50.0802 11.3165 49.9322C11.253 49.7841 11.2954 49.6149 11.4223 49.5303C11.5492 49.4668 11.7184 49.5303 11.7819 49.6572Z" fill="#D9DADC"/>
<path d="M12.882 48.938C12.9666 49.1073 12.9031 49.3399 12.7551 49.4245C12.5858 49.5092 12.3955 49.4457 12.3108 49.2765C12.2262 49.1073 12.2897 48.8746 12.4378 48.79C12.5858 48.6842 12.7762 48.7477 12.882 48.938Z" fill="#262523"/>
<path d="M12.9667 48.9593C13.0513 49.1285 12.9878 49.3612 12.8398 49.4458C12.6706 49.5304 12.4802 49.467 12.3956 49.2978C12.311 49.1285 12.3744 48.8959 12.5225 48.8112C12.6917 48.7266 12.8821 48.7901 12.9667 48.9593Z" fill="url(#paint4_linear_133_55)"/>
<path d="M12.9667 49.0015C13.0301 49.1496 12.9878 49.3188 12.8609 49.4034C12.734 49.488 12.5648 49.4245 12.5013 49.2765C12.4379 49.1284 12.4802 48.9592 12.6071 48.8746C12.7129 48.79 12.8821 48.8534 12.9667 49.0015Z" fill="#EEBF3C"/>
<path d="M13.9184 48.346C14.003 48.5152 13.9395 48.7479 13.7914 48.8325C13.6222 48.9171 13.4318 48.8537 13.3472 48.6844C13.2626 48.5152 13.3261 48.2825 13.4741 48.1979C13.6222 48.0922 13.8126 48.1556 13.9184 48.346Z" fill="#262523"/>
<path d="M14.0028 48.3673C14.0874 48.5365 14.024 48.7692 13.8759 48.8538C13.7067 48.9385 13.5163 48.875 13.4317 48.7058C13.3471 48.5365 13.4105 48.3039 13.5586 48.2193C13.7278 48.1135 13.9182 48.1981 14.0028 48.3673Z" fill="url(#paint5_linear_133_55)"/>
<path d="M14.0028 48.4094C14.0663 48.5575 14.024 48.7267 13.8971 48.8113C13.7701 48.896 13.6009 48.8325 13.5375 48.6844C13.474 48.5364 13.5163 48.3671 13.6432 48.2825C13.749 48.1979 13.9182 48.2614 14.0028 48.4094Z" fill="#EEBF3C"/>
<path d="M11.1686 48.515C11.2532 48.6843 11.1897 48.9169 11.0417 49.0015C10.8725 49.0862 10.6821 49.0227 10.5975 48.8535C10.5129 48.6843 10.5763 48.4516 10.7244 48.367C10.8725 48.2612 11.0628 48.3458 11.1686 48.515Z" fill="#262523"/>
<path d="M11.2743 48.5572C11.3589 48.7264 11.2955 48.9591 11.1474 49.0437C10.9782 49.1283 10.7878 49.0648 10.7032 48.8956C10.6186 48.7264 10.682 48.4937 10.8301 48.4091C10.9782 48.3033 11.1685 48.3668 11.2743 48.5572Z" fill="url(#paint6_linear_133_55)"/>
<path d="M11.2531 48.5786C11.3165 48.7266 11.2742 48.8959 11.1473 48.9805C11.0204 49.0651 10.8512 49.0016 10.7877 48.8536C10.7242 48.7055 10.7665 48.5363 10.8935 48.4517C10.9992 48.3882 11.1685 48.4305 11.2531 48.5786Z" fill="#D9DADC"/>
<path d="M12.3319 47.8382C12.4165 48.0074 12.3531 48.2401 12.205 48.3247C12.0358 48.4093 11.8454 48.3459 11.7608 48.1767C11.6762 48.0074 11.7396 47.7748 11.8877 47.6901C12.0358 47.6055 12.2473 47.669 12.3319 47.8382Z" fill="#262523"/>
<path d="M12.4376 47.8807C12.5222 48.0499 12.4588 48.2826 12.3107 48.3672C12.1415 48.4518 11.9511 48.3883 11.8665 48.2191C11.7819 48.0499 11.8454 47.8172 11.9934 47.7326C12.1415 47.6268 12.353 47.6903 12.4376 47.8807Z" fill="url(#paint7_linear_133_55)"/>
<path d="M12.4164 47.9018C12.4799 48.0499 12.4375 48.2191 12.3106 48.3037C12.1837 48.3883 12.0145 48.3249 11.951 48.1768C11.8876 48.0287 11.9299 47.8595 12.0568 47.7749C12.1837 47.7114 12.3529 47.7537 12.4164 47.9018Z" fill="#EEBF3C"/>
<path d="M13.3685 47.2459C13.4532 47.4151 13.3897 47.6478 13.2416 47.7324C13.0724 47.817 12.882 47.7536 12.7974 47.5843C12.7128 47.4151 12.7763 47.1824 12.9243 47.0978C13.0724 46.9921 13.2839 47.0555 13.3685 47.2459Z" fill="#262523"/>
<path d="M13.4743 47.2669C13.5589 47.4362 13.4954 47.6688 13.3473 47.7534C13.1781 47.8381 12.9877 47.7746 12.9031 47.6054C12.8185 47.415 12.882 47.2035 13.03 47.1189C13.1781 47.0342 13.3896 47.0977 13.4743 47.2669Z" fill="url(#paint8_linear_133_55)"/>
<path d="M13.4533 47.3093C13.5167 47.4574 13.4744 47.6266 13.3475 47.7113C13.2206 47.7959 13.0514 47.7324 12.9879 47.5843C12.9244 47.4363 12.9667 47.267 13.0937 47.1824C13.2206 47.0978 13.3898 47.1613 13.4533 47.3093Z" fill="#EEBF3C"/>
<path d="M15.1032 47.6268C15.1878 47.796 15.1243 48.0287 14.9762 48.1133C14.807 48.1979 14.6166 48.1344 14.532 47.9652C14.4474 47.796 14.5109 47.5633 14.659 47.4787C14.807 47.3729 15.0186 47.4364 15.1032 47.6268Z" fill="#262523"/>
<path d="M15.2089 47.6478C15.2935 47.8171 15.23 48.0497 15.082 48.1344C14.9127 48.219 14.7224 48.1555 14.6378 47.9863C14.5531 47.8171 14.6166 47.5844 14.7647 47.4998C14.9127 47.394 15.1243 47.4786 15.2089 47.6478Z" fill="url(#paint9_linear_133_55)"/>
<path d="M15.1876 47.6689C15.2511 47.817 15.2088 47.9862 15.0819 48.0708C14.955 48.1343 14.7857 48.092 14.7223 47.9439C14.6588 47.7958 14.7011 47.6266 14.828 47.542C14.955 47.4785 15.1242 47.542 15.1876 47.6689Z" fill="#C7C6C5"/>
<path d="M16.2665 46.9496C16.3511 47.1188 16.2876 47.3515 16.1396 47.4361C15.9704 47.5207 15.78 47.4573 15.6954 47.288C15.6108 47.1188 15.6742 46.8861 15.8223 46.8015C15.9915 46.6958 16.1819 46.7804 16.2665 46.9496Z" fill="#262523"/>
<path d="M16.3722 46.9708C16.4568 47.14 16.3934 47.3727 16.2453 47.4573C16.0761 47.5419 15.8857 47.4784 15.8011 47.3092C15.7165 47.14 15.7799 46.9073 15.928 46.8227C16.0761 46.7381 16.2876 46.8016 16.3722 46.9708Z" fill="url(#paint10_linear_133_55)"/>
<path d="M16.3512 47.0132C16.4147 47.1613 16.3724 47.3305 16.2454 47.4151C16.1185 47.4997 15.9493 47.4363 15.8858 47.2882C15.8224 47.1401 15.8647 46.9709 15.9916 46.8863C16.1185 46.8017 16.2877 46.8651 16.3512 47.0132Z" fill="#EEBF3C"/>
<path d="M17.3029 46.3575C17.3875 46.5267 17.324 46.7594 17.176 46.844C17.0067 46.9286 16.8164 46.8651 16.7317 46.6959C16.6471 46.5267 16.7106 46.294 16.8587 46.2094C17.0279 46.1036 17.2183 46.1671 17.3029 46.3575Z" fill="#262523"/>
<path d="M17.4086 46.3785C17.4932 46.5477 17.4297 46.7804 17.2817 46.865C17.1124 46.9496 16.9221 46.8862 16.8375 46.7169C16.7528 46.5477 16.8163 46.315 16.9644 46.2304C17.1124 46.1458 17.324 46.2093 17.4086 46.3785Z" fill="url(#paint11_linear_133_55)"/>
<path d="M17.3876 46.4209C17.451 46.569 17.4087 46.7382 17.2818 46.8228C17.1549 46.9074 16.9857 46.844 16.9222 46.6959C16.8588 46.5478 16.9011 46.3786 17.028 46.294C17.1549 46.2094 17.3241 46.2728 17.3876 46.4209Z" fill="#EEBF3C"/>
<path d="M14.5531 46.5267C14.6377 46.6959 14.5743 46.9286 14.4262 47.0132C14.257 47.0978 14.0666 47.0344 13.982 46.8651C13.8974 46.6959 13.9608 46.4632 14.1089 46.3786C14.2781 46.294 14.4685 46.3575 14.5531 46.5267Z" fill="#262523"/>
<path d="M14.6591 46.5691C14.7437 46.7384 14.6802 46.971 14.5322 47.0557C14.3629 47.1403 14.1726 47.0768 14.0879 46.9076C14.0033 46.7384 14.0668 46.5057 14.2149 46.4211C14.3629 46.3153 14.5745 46.3788 14.6591 46.5691Z" fill="url(#paint12_linear_133_55)"/>
<path d="M14.6378 46.59C14.7013 46.7381 14.659 46.9073 14.5321 46.9919C14.4051 47.0766 14.2359 47.0131 14.1725 46.865C14.109 46.717 14.1513 46.5477 14.2782 46.4631C14.4051 46.3997 14.5744 46.442 14.6378 46.59Z" fill="#D9DADC"/>
<path d="M15.7377 45.8499C15.8223 46.0192 15.7588 46.2518 15.6108 46.3365C15.4415 46.4211 15.2512 46.3576 15.1666 46.1884C15.0819 46.0192 15.1454 45.7865 15.2935 45.7019C15.4415 45.6173 15.6531 45.6807 15.7377 45.8499Z" fill="#262523"/>
<path d="M15.8434 45.8921C15.928 46.0614 15.8646 46.294 15.7165 46.3786C15.5473 46.4633 15.3569 46.3998 15.2723 46.2306C15.1877 46.0614 15.2511 45.8287 15.3992 45.7441C15.5473 45.6383 15.7376 45.7018 15.8434 45.8921Z" fill="url(#paint13_linear_133_55)"/>
<path d="M15.8222 45.9133C15.8856 46.0614 15.8433 46.2306 15.7164 46.3152C15.5895 46.3998 15.4203 46.3363 15.3568 46.1883C15.2933 46.0402 15.3356 45.871 15.4626 45.7864C15.5895 45.7229 15.7375 45.7652 15.8222 45.9133Z" fill="#C7C6C5"/>
<path d="M16.7741 45.2575C16.8587 45.4267 16.7952 45.6594 16.6471 45.744C16.4779 45.8286 16.2875 45.7651 16.2029 45.5959C16.1183 45.4267 16.1818 45.194 16.3299 45.1094C16.4779 45.0036 16.6895 45.0882 16.7741 45.2575Z" fill="#262523"/>
<path d="M16.8798 45.2786C16.9644 45.4479 16.9009 45.6805 16.7529 45.7652C16.5836 45.8498 16.3933 45.7863 16.3086 45.6171C16.224 45.4479 16.2875 45.2152 16.4356 45.1306C16.5836 45.046 16.774 45.1094 16.8798 45.2786Z" fill="url(#paint14_linear_133_55)"/>
<path d="M16.8588 45.3211C16.9222 45.4691 16.8799 45.6384 16.753 45.723C16.6261 45.8076 16.4569 45.7441 16.3934 45.5961C16.33 45.448 16.3723 45.2788 16.4992 45.1941C16.6049 45.1095 16.7742 45.173 16.8588 45.3211Z" fill="#EEBF3C"/>
<path d="M14.7859 55.8338L17.1127 54.4377V57.1242L14.7859 58.4568V55.8338Z" fill="#6A5A49"/>
<path d="M17.0279 57.0819L14.8704 58.3299V55.8339L17.0279 54.5647V57.0819Z" fill="#EEBF3C"/>
<path d="M16.3088 55.7705L16.5838 55.9397L16.4358 56.2147C16.3935 56.4474 16.2454 56.7223 16.055 56.8704L15.9069 57.1242L15.632 56.955C15.5473 56.8916 15.4839 56.7858 15.4839 56.6377C15.4839 56.3204 15.6954 55.9608 15.9704 55.8128C16.0973 55.7282 16.2242 55.7282 16.3088 55.7705Z" fill="#747474"/>
<path d="M16.7321 56.2571C16.7321 55.9398 16.5205 55.8341 16.2455 55.9821C15.9706 56.1302 15.759 56.511 15.759 56.8071C15.759 57.1244 15.9706 57.2301 16.2455 57.0821C16.5205 56.934 16.7321 56.5533 16.7321 56.2571Z" fill="#D6D2D4"/>
<path d="M16.7321 56.2571C16.7321 55.9398 16.5205 55.8341 16.2455 55.9821C15.9706 56.1302 15.759 56.511 15.759 56.8071C15.759 57.1244 15.9706 57.2301 16.2455 57.0821C16.5205 56.934 16.7321 56.5533 16.7321 56.2571Z" fill="#E2E2E8"/>
<path d="M15.8647 59.176C15.8647 59.4087 15.6955 59.6836 15.5051 59.8106C15.2936 59.9163 15.1455 59.8317 15.1455 59.599C15.1455 59.3664 15.3147 59.0914 15.5051 58.9645C15.6955 58.8375 15.8647 58.9433 15.8647 59.176Z" fill="#262523"/>
<path d="M15.9492 59.2185C15.9492 59.4511 15.78 59.7261 15.5896 59.853C15.3992 59.9588 15.23 59.8742 15.23 59.6415C15.23 59.4088 15.3992 59.1338 15.5896 59.0069C15.78 58.88 15.9492 58.9858 15.9492 59.2185Z" fill="url(#paint15_linear_133_55)"/>
<path d="M15.907 59.2395C15.907 59.4299 15.7801 59.6626 15.6108 59.7472C15.4416 59.8318 15.3147 59.7683 15.3147 59.578C15.3147 59.3876 15.4416 59.1549 15.6108 59.0703C15.7801 58.9857 15.907 59.0703 15.907 59.2395Z" fill="#E2E2E8"/>
<path d="M17.0493 58.4567C17.0493 58.6894 16.8801 58.9644 16.6897 59.0913C16.4993 59.1971 16.3301 59.1125 16.3301 58.8798C16.3301 58.6471 16.4993 58.3721 16.6897 58.2452C16.9012 58.1183 17.0493 58.2241 17.0493 58.4567Z" fill="#262523"/>
<path d="M17.134 58.4992C17.134 58.7319 16.9648 59.0069 16.7744 59.1338C16.584 59.2396 16.4148 59.155 16.4148 58.9223C16.4148 58.6896 16.584 58.4146 16.7744 58.2877C16.9859 58.1608 17.134 58.2665 17.134 58.4992Z" fill="url(#paint16_linear_133_55)"/>
<path d="M17.1128 58.5415C17.1128 58.7318 16.9859 58.9434 16.8166 59.0491C16.6474 59.1337 16.5205 59.0703 16.5205 58.8799C16.5205 58.6895 16.6474 58.4569 16.8166 58.3722C16.9647 58.2665 17.1128 58.3511 17.1128 58.5415Z" fill="#EEBF3C"/>
<path d="M21.2163 56.3204V46.8228L22.2951 50.2072V54.1839L21.2163 56.3204Z" fill="#26292B"/>
<path d="M23.3315 55.0724V45.5959L24.4103 48.9592V52.936L23.3315 55.0724Z" fill="#34373A"/>
<path d="M21.2163 46.8228L23.3316 45.5959L24.4104 48.9592L22.2951 50.2073L21.2163 46.8228Z" fill="#434446"/>
<path d="M22.2952 54.184L24.4104 52.936V48.9592L22.2952 50.2072V54.184Z" fill="#34373A"/>
<path d="M22.2951 54.1841L24.4104 52.936L23.3316 55.0725L21.2163 56.3205L22.2951 54.1841Z" fill="#434446"/>
<path opacity="0.5" d="M13.3052 31.9523L23.6912 38.002L23.8393 44.919L23.9451 38.0654L69.4236 11.2437L23.8393 37.8751L13.3052 31.9523Z" fill="#F2F5F8"/>
<path opacity="0.5" d="M0.232666 44.0518L6.93811 48.0497L9.96297 53.2956L10.0899 69.3718L10.1956 53.2956L18.2126 48.5574L10.0899 53.0418L7.23425 48.0497L14.2781 43.7769L7.04388 47.9017L0.232666 44.0518Z" fill="#F2F5F8"/>
<defs>
<linearGradient id="paint0_linear_133_55" x1="78.1855" y1="20.1713" x2="79.1112" y2="20.1713" gradientUnits="userSpaceOnUse">
<stop offset="0.0478356" stop-color="#363843"/>
<stop offset="0.3113" stop-color="#41424C"/>
<stop offset="0.7679" stop-color="#5D5E65"/>
<stop offset="1" stop-color="#6E6F74"/>
</linearGradient>
<linearGradient id="paint1_linear_133_55" x1="5.88127" y1="39.9962" x2="14.3407" y2="39.9962" gradientUnits="userSpaceOnUse">
<stop offset="0.0272911" stop-color="#4D4E57"/>
<stop offset="0.4437" stop-color="#41424C"/>
<stop offset="0.9522" stop-color="#363843"/>
</linearGradient>
<linearGradient id="paint2_linear_133_55" x1="15.1312" y1="52.4409" x2="16.0573" y2="52.4409" gradientUnits="userSpaceOnUse">
<stop offset="0.0478356" stop-color="#363843"/>
<stop offset="0.3113" stop-color="#41424C"/>
<stop offset="0.7679" stop-color="#5D5E65"/>
<stop offset="1" stop-color="#6E6F74"/>
</linearGradient>
<linearGradient id="paint3_linear_133_55" x1="11.1828" y1="49.9923" x2="11.848" y2="49.9923" gradientUnits="userSpaceOnUse">
<stop offset="0.0478356" stop-color="#363843"/>
<stop offset="0.3113" stop-color="#41424C"/>
<stop offset="0.7679" stop-color="#5D5E65"/>
<stop offset="1" stop-color="#6E6F74"/>
</linearGradient>
<linearGradient id="paint4_linear_133_55" x1="12.3523" y1="49.3251" x2="13.0175" y2="49.3251" gradientUnits="userSpaceOnUse">
<stop offset="0.0478356" stop-color="#363843"/>
<stop offset="0.3113" stop-color="#41424C"/>
<stop offset="0.7679" stop-color="#5D5E65"/>
<stop offset="1" stop-color="#6E6F74"/>
</linearGradient>
<linearGradient id="paint5_linear_133_55" x1="13.3866" y1="48.7323" x2="14.0516" y2="48.7323" gradientUnits="userSpaceOnUse">
<stop offset="0.0478356" stop-color="#363843"/>
<stop offset="0.3113" stop-color="#41424C"/>
<stop offset="0.7679" stop-color="#5D5E65"/>
<stop offset="1" stop-color="#6E6F74"/>
</linearGradient>
<linearGradient id="paint6_linear_133_55" x1="10.6395" y1="48.9064" x2="11.3048" y2="48.9064" gradientUnits="userSpaceOnUse">
<stop offset="0.0478356" stop-color="#363843"/>
<stop offset="0.3113" stop-color="#41424C"/>
<stop offset="0.7679" stop-color="#5D5E65"/>
<stop offset="1" stop-color="#6E6F74"/>
</linearGradient>
<linearGradient id="paint7_linear_133_55" x1="11.8099" y1="48.2343" x2="12.4753" y2="48.2343" gradientUnits="userSpaceOnUse">
<stop offset="0.0478356" stop-color="#363843"/>
<stop offset="0.3113" stop-color="#41424C"/>
<stop offset="0.7679" stop-color="#5D5E65"/>
<stop offset="1" stop-color="#6E6F74"/>
</linearGradient>
<linearGradient id="paint8_linear_133_55" x1="12.8458" y1="47.6367" x2="13.511" y2="47.6367" gradientUnits="userSpaceOnUse">
<stop offset="0.0478356" stop-color="#363843"/>
<stop offset="0.3113" stop-color="#41424C"/>
<stop offset="0.7679" stop-color="#5D5E65"/>
<stop offset="1" stop-color="#6E6F74"/>
</linearGradient>
<linearGradient id="paint9_linear_133_55" x1="14.5831" y1="48.006" x2="15.2479" y2="48.006" gradientUnits="userSpaceOnUse">
<stop offset="0.0478356" stop-color="#363843"/>
<stop offset="0.3113" stop-color="#41424C"/>
<stop offset="0.7679" stop-color="#5D5E65"/>
<stop offset="1" stop-color="#6E6F74"/>
</linearGradient>
<linearGradient id="paint10_linear_133_55" x1="15.752" y1="47.3401" x2="16.4177" y2="47.3401" gradientUnits="userSpaceOnUse">
<stop offset="0.0478356" stop-color="#363843"/>
<stop offset="0.3113" stop-color="#41424C"/>
<stop offset="0.7679" stop-color="#5D5E65"/>
<stop offset="1" stop-color="#6E6F74"/>
</linearGradient>
<linearGradient id="paint11_linear_133_55" x1="16.7866" y1="46.7466" x2="17.4519" y2="46.7466" gradientUnits="userSpaceOnUse">
<stop offset="0.0478356" stop-color="#363843"/>
<stop offset="0.3113" stop-color="#41424C"/>
<stop offset="0.7679" stop-color="#5D5E65"/>
<stop offset="1" stop-color="#6E6F74"/>
</linearGradient>
<linearGradient id="paint12_linear_133_55" x1="14.0398" y1="46.9214" x2="14.7049" y2="46.9214" gradientUnits="userSpaceOnUse">
<stop offset="0.0478356" stop-color="#363843"/>
<stop offset="0.3113" stop-color="#41424C"/>
<stop offset="0.7679" stop-color="#5D5E65"/>
<stop offset="1" stop-color="#6E6F74"/>
</linearGradient>
<linearGradient id="paint13_linear_133_55" x1="15.2105" y1="46.2486" x2="15.8753" y2="46.2486" gradientUnits="userSpaceOnUse">
<stop offset="0.0478356" stop-color="#363843"/>
<stop offset="0.3113" stop-color="#41424C"/>
<stop offset="0.7679" stop-color="#5D5E65"/>
<stop offset="1" stop-color="#6E6F74"/>
</linearGradient>
<linearGradient id="paint14_linear_133_55" x1="16.2462" y1="45.6513" x2="16.911" y2="45.6513" gradientUnits="userSpaceOnUse">
<stop offset="0.0478356" stop-color="#363843"/>
<stop offset="0.3113" stop-color="#41424C"/>
<stop offset="0.7679" stop-color="#5D5E65"/>
<stop offset="1" stop-color="#6E6F74"/>
</linearGradient>
<linearGradient id="paint15_linear_133_55" x1="15.2247" y1="59.6266" x2="15.9465" y2="59.6266" gradientUnits="userSpaceOnUse">
<stop offset="0.0478356" stop-color="#363843"/>
<stop offset="0.3113" stop-color="#41424C"/>
<stop offset="0.7679" stop-color="#5D5E65"/>
<stop offset="1" stop-color="#6E6F74"/>
</linearGradient>
<linearGradient id="paint16_linear_133_55" x1="16.418" y1="58.9073" x2="17.1401" y2="58.9073" gradientUnits="userSpaceOnUse">
<stop offset="0.0478356" stop-color="#363843"/>
<stop offset="0.3113" stop-color="#41424C"/>
<stop offset="0.7679" stop-color="#5D5E65"/>
<stop offset="1" stop-color="#6E6F74"/>
</linearGradient>
</defs>
</svg>
