<svg width="80" height="80" viewBox="0 0 80 80" fill="none" xmlns="http://www.w3.org/2000/svg">
<path d="M4.50903 20.8391C5.72981 20.5831 6.87182 20.7013 7.26562 21.1935C7.36407 21.2526 7.44283 21.3314 7.52159 21.4101C7.62004 21.4692 7.69879 21.548 7.77755 21.6267C8.38794 22.0008 8.40763 22.9066 8.11228 24.2455C7.876 25.289 7.81693 26.0176 7.99414 27.1793C8.17135 28.3213 8.2698 29.1089 8.2698 29.6996C7.91538 29.5027 7.58066 29.3255 7.22624 29.1286C7.24593 28.5772 7.14748 27.7896 6.95058 26.5689C6.79306 25.5056 6.81275 24.718 7.04903 23.6745C7.14748 23.261 7.22624 22.8475 7.26562 22.434C7.28531 22.2174 7.305 21.9614 7.14748 21.7645C6.95058 21.548 5.84794 21.6267 5.51322 21.6858L5.27694 21.4889C5.47384 21.4495 5.65105 21.4101 5.82826 21.3904C5.65105 21.4101 5.47384 21.4298 5.25725 21.4692L5.02097 21.2723C5.21787 21.2329 5.39508 21.1935 5.5526 21.1738C5.39508 21.1935 5.19818 21.2132 5.00128 21.2526L4.765 21.0557C4.9619 21.0163 5.13911 20.9769 5.29663 20.9573C5.13911 20.9769 4.94221 20.9966 4.74531 21.036L4.50903 20.8391Z" fill="#4D4D4D"/>
<path d="M44.2039 16.8618L47.2164 15.1094L47.2361 26.0176L44.2039 27.77V16.8618Z" fill="#2FBAE5"/>
<path d="M41.3684 10.9743L44.381 9.22192L47.2163 15.1092L44.2038 16.8616L41.3684 10.9743Z" fill="#3CCEFC"/>
<path d="M41.3684 7.58785L44.4007 5.83545L44.381 9.22211L41.3684 10.9745V7.58785Z" fill="#2FBAE5"/>
<path d="M38.6118 5.99288L41.6441 4.24048L44.4006 5.83536L41.3684 7.58776L38.6118 5.99288Z" fill="#58D8FF"/>
<path d="M41.3684 7.5878V10.9745L44.2037 16.8617V27.7699L38.6118 24.5408V5.99292L41.3684 7.5878Z" fill="#139DC8"/>
<path d="M50.5045 77.9201L47.0391 75.9314V71.0483L50.5045 73.037V77.9201Z" fill="#453E3A"/>
<path d="M54.0879 75.8526L50.5044 77.92V73.0369L54.0879 70.9695V75.8526Z" fill="#4D4D4D"/>
<path d="M7.93515 53.3469L4.46973 51.3582V46.4751L7.93515 48.4638V53.3469Z" fill="#453E3A"/>
<path d="M11.5383 51.2796L7.93506 53.347V48.4639L11.5383 46.3965V51.2796Z" fill="#4D4D4D"/>
<path d="M75.6681 63.3891L72.2026 61.4004V56.5173L75.6681 58.5257V63.3891Z" fill="#453E3A"/>
<path d="M79.2515 61.3216L75.668 63.389V58.5256L79.2515 56.4385V61.3216Z" fill="#4D4D4D"/>
<path d="M50.5044 75.8131L4.46948 49.2317V33.9524L50.5044 60.5337V75.8131Z" fill="#139DC8"/>
<path d="M79.2519 59.1949L50.5046 75.8131V60.5338L79.2519 43.9155V59.1949Z" fill="#2FBAE5"/>
<path d="M50.5045 65.0035L3.5835 37.9299V31.6882L50.5045 58.7815V65.0035Z" fill="#453E3A"/>
<path d="M4.37109 36.4137V34.3069L49.7169 60.4944V62.6012L4.37109 36.4137Z" fill="#4D4D4D"/>
<path d="M80.0001 47.9718L50.5046 65.0035V58.7815L80.0001 41.7498V47.9718Z" fill="#4D4D4D"/>
<path d="M50.5045 58.7815L3.5835 31.6882L33.0986 14.6565L79.9999 41.7498L50.5045 58.7815Z" fill="#58D8FF"/>
<path d="M50.5045 58.9588L3.5835 31.8655V31.0779L50.5045 58.1515V58.9588Z" fill="#929292"/>
<path d="M80.0001 41.9072L50.5046 58.9587V58.1514L80.0001 41.1196V41.9072Z" fill="#AFAFAF"/>
<path d="M50.5045 58.1515L3.5835 31.0779L33.0986 14.0461L79.9999 41.1197L50.5045 58.1515Z" fill="#E2E2E2"/>
<path d="M78.7202 41.8678L31.7992 14.7745L32.1536 14.5776L79.0746 41.6709L78.7202 41.8678ZM77.46 42.5963L30.539 15.5031L30.1846 15.7L77.1056 42.7932L77.46 42.5963ZM75.8258 43.5218L28.9245 16.4482L28.57 16.6451L75.491 43.7384L75.8258 43.5218ZM74.2112 44.4669L27.3099 17.3736L26.9555 17.5705L73.8764 44.6638L74.2112 44.4669ZM72.5966 45.3923L25.6953 18.3187L25.3409 18.5156L72.2619 45.6089L72.5966 45.3923ZM70.982 46.3374L24.0807 19.2441L23.7263 19.441L70.6473 46.5343L70.982 46.3374ZM69.3675 47.2628L22.4662 20.1696L22.1118 20.3665L69.0327 47.4597L69.3675 47.2628ZM67.7529 48.1883L20.8516 21.1147L20.4972 21.3116L67.4182 48.4049L67.7529 48.1883ZM66.1383 49.1334L19.237 22.0401L18.8826 22.237L65.8036 49.3303L66.1383 49.1334ZM64.5238 50.0588L17.6225 22.9852L17.268 23.1821L64.189 50.2754L64.5238 50.0588ZM62.9092 50.9842L15.9882 23.9106L15.6338 24.1075L62.5548 51.2008L62.9092 50.9842ZM61.2946 51.9293L14.3736 24.8361L14.0192 25.033L60.9402 52.1262L61.2946 51.9293ZM59.68 52.8548L12.7591 25.7812L12.4046 25.9781L59.3256 53.0714L59.68 52.8548ZM58.0655 53.7999L11.1445 26.7066L10.7901 26.9035L57.7111 53.9968L58.0655 53.7999ZM56.4509 54.7253L9.52992 27.632L9.1755 27.8289L56.0965 54.9222L56.4509 54.7253ZM54.8363 55.6507L7.91535 28.5771L7.56093 28.774L54.4819 55.8673L54.8363 55.6507ZM53.2218 56.5958L6.30077 29.5026L5.94636 29.6995L52.8674 56.7927L53.2218 56.5958ZM51.6072 57.5213L4.6862 30.4477L4.33179 30.6446L51.2528 57.7379L51.6072 57.5213Z" fill="#AFAFAF"/>
<path d="M6.51735 38.1466L0 34.3858V20.7998L6.51735 24.5606V38.1466Z" fill="#139DC8"/>
<path d="M6.51735 32.3184L0 28.5576V20.7998L6.51735 24.5606V32.3184Z" fill="#453E3A"/>
<path d="M8.84074 36.8077L6.51733 38.1466V24.5606L8.84074 23.2217V36.8077Z" fill="#2FBAE5"/>
<path d="M6.51735 24.5604L0 20.7996L2.32341 19.4607L8.84076 23.2215L6.51735 24.5604Z" fill="#58D8FF"/>
<path d="M2.40194 26.1356C2.2838 25.8403 2.36256 25.5843 2.55946 25.5646C2.75636 25.5449 3.01233 25.7812 3.13047 26.0766C3.24861 26.3719 3.16985 26.6279 2.97295 26.6476C2.77605 26.6673 2.52008 26.431 2.40194 26.1356Z" fill="#E2E2E8"/>
<path d="M1.18124 25.4269C1.0631 25.1315 1.14186 24.8756 1.33876 24.8559C1.53566 24.8362 1.79163 25.0725 1.90977 25.3678C2.0279 25.6632 1.94914 25.9191 1.75225 25.9388C1.55535 25.9585 1.29938 25.7222 1.18124 25.4269Z" fill="#2FBAE5"/>
<path d="M4.52865 27.7109C4.48927 27.6124 4.50896 27.5337 4.56803 27.5337C4.6271 27.5337 4.70586 27.5927 4.74524 27.6912C4.78462 27.7896 4.76493 27.8684 4.70586 27.8684C4.64679 27.8684 4.56803 27.7896 4.52865 27.7109ZM4.15454 27.5533C4.21361 27.5533 4.2333 27.4746 4.19392 27.3761C4.15454 27.2777 4.07578 27.2186 4.01671 27.2186C3.95764 27.2186 3.93795 27.2974 3.97733 27.3958C4.01671 27.4746 4.09547 27.5533 4.15454 27.5533ZM4.70586 27.2974C4.76493 27.2974 4.78462 27.2186 4.74524 27.1202C4.70586 27.0217 4.6271 26.9626 4.56803 26.9626C4.50896 26.9626 4.48927 27.0414 4.52865 27.1399C4.56803 27.2383 4.64679 27.2974 4.70586 27.2974ZM4.15454 26.9823C4.21361 26.9823 4.2333 26.9036 4.19392 26.8051C4.15454 26.7067 4.07578 26.6476 4.01671 26.6476C3.95764 26.6476 3.93795 26.7264 3.97733 26.8248C4.01671 26.9233 4.09547 26.9823 4.15454 26.9823ZM4.70586 26.7264C4.76493 26.7264 4.78462 26.6476 4.74524 26.5492C4.70586 26.4507 4.6271 26.3916 4.56803 26.3916C4.50896 26.3916 4.48927 26.4704 4.52865 26.5689C4.56803 26.6673 4.64679 26.7264 4.70586 26.7264ZM4.15454 26.4113C4.21361 26.4113 4.2333 26.3326 4.19392 26.2341C4.15454 26.1357 4.07578 26.0766 4.01671 26.0766C3.95764 26.0766 3.93795 26.1554 3.97733 26.2538C4.01671 26.3523 4.09547 26.4113 4.15454 26.4113ZM5.82818 28.5181C5.88725 28.5181 5.90694 28.4394 5.86756 28.3409C5.82818 28.2425 5.74942 28.1834 5.69035 28.1834C5.63128 28.1834 5.61159 28.2622 5.65097 28.3606C5.69035 28.4591 5.76911 28.5181 5.82818 28.5181ZM5.27686 28.2031C5.33593 28.2031 5.35562 28.1244 5.31624 28.0259C5.27686 27.9275 5.1981 27.8684 5.13903 27.8684C5.07996 27.8684 5.06027 27.9471 5.09965 28.0456C5.13903 28.144 5.21779 28.2031 5.27686 28.2031ZM5.82818 27.9471C5.88725 27.9471 5.90694 27.8684 5.86756 27.7699C5.82818 27.6715 5.74942 27.6124 5.69035 27.6124C5.63128 27.6124 5.61159 27.6912 5.65097 27.7896C5.69035 27.8881 5.76911 27.9471 5.82818 27.9471ZM5.27686 27.6321C5.33593 27.6321 5.35562 27.5533 5.31624 27.4549C5.27686 27.3564 5.1981 27.2974 5.13903 27.2974C5.07996 27.2974 5.06027 27.3761 5.09965 27.4746C5.13903 27.573 5.21779 27.6321 5.27686 27.6321ZM5.82818 27.3761C5.88725 27.3761 5.90694 27.2974 5.86756 27.1989C5.82818 27.1005 5.74942 27.0414 5.69035 27.0414C5.63128 27.0414 5.61159 27.1202 5.65097 27.2186C5.69035 27.3171 5.76911 27.3958 5.82818 27.3761ZM5.27686 27.0611C5.33593 27.0611 5.35562 26.9823 5.31624 26.8839C5.27686 26.7854 5.1981 26.7264 5.13903 26.7264C5.07996 26.7264 5.06027 26.8051 5.09965 26.9036C5.13903 27.002 5.21779 27.0808 5.27686 27.0611ZM4.72555 24.6983C4.78462 24.6983 4.80431 24.6196 4.76493 24.5211C4.72555 24.4227 4.64679 24.3636 4.58772 24.3636C4.52865 24.3636 4.50896 24.4423 4.54834 24.5408C4.56803 24.6392 4.64679 24.718 4.72555 24.6983ZM5.84787 25.3678C5.90694 25.3678 5.92663 25.289 5.88725 25.1906C5.84787 25.0921 5.76911 25.033 5.71004 25.033C5.65097 25.033 5.63128 25.1118 5.67066 25.2102C5.71004 25.289 5.7888 25.3678 5.84787 25.3678ZM2.4809 23.4185C2.53997 23.4185 2.55966 23.3397 2.52028 23.2413C2.4809 23.1428 2.40214 23.0837 2.34307 23.0837C2.284 23.0837 2.26431 23.1625 2.30369 23.261C2.34307 23.3594 2.42183 23.4185 2.4809 23.4185ZM3.62291 24.0682C3.68198 24.0682 3.70167 23.9895 3.66229 23.891C3.62291 23.7926 3.54415 23.7335 3.48508 23.7335C3.42601 23.7335 3.40632 23.8123 3.4457 23.9107C3.48508 24.0092 3.56384 24.0879 3.62291 24.0682Z" fill="#929292"/>
<path d="M28.3534 23.7925H27.0933V25.3283C27.0933 25.4267 27.1523 25.5252 27.2705 25.5843C27.5067 25.7221 27.9202 25.7221 28.1565 25.5843C28.2747 25.5055 28.3337 25.4267 28.3337 25.3283L28.3534 23.7925Z" fill="#A1A1A1"/>
<path d="M28.7866 23.3594C28.7866 23.2019 26.6995 23.4184 26.6995 23.3594V24.3439C26.6995 24.5014 26.7979 24.6589 27.0145 24.7574C27.428 24.9936 28.0778 24.9936 28.4912 24.7574C28.7078 24.6392 28.8063 24.4817 28.8063 24.3242L28.7866 23.3594Z" fill="#453E3A"/>
<path d="M26.3845 16.9207V23.694L27.7234 24.4619V16.9207H26.3845Z" fill="#139DC8"/>
<path d="M27.7234 16.9207V24.4619L29.1214 23.6743V16.9207H27.7234Z" fill="#2FBAE5"/>
<path d="M42.3727 10.3837L11.5383 28.1834V24.7967L42.3727 6.99707V10.3837Z" fill="#2FBAE5"/>
<path d="M11.5382 24.7966L8.80127 23.2018L39.6356 5.4021L42.3725 6.99698L11.5382 24.7966Z" fill="#58D8FF"/>
<path d="M12.05 35.4292L15.0823 33.6768V44.5653L12.0697 46.3177L12.05 35.4292Z" fill="#2FBAE5"/>
<path d="M9.21484 29.5222L12.2471 27.7698L15.0824 33.6767L12.0502 35.4291L9.21484 29.5222Z" fill="#3CCEFC"/>
<path d="M9.23453 26.1357L12.2471 24.3833V27.77L9.21484 29.5224L9.23453 26.1357Z" fill="#2FBAE5"/>
<path d="M6.47803 24.5407L9.49058 22.7883L12.2472 24.3832L9.23461 26.1356L6.47803 24.5407Z" fill="#58D8FF"/>
<path d="M9.23453 26.1357L9.21484 29.5223L12.0502 35.4293L12.0699 46.3178L6.45825 43.0886L6.47794 24.5408L9.23453 26.1357Z" fill="#139DC8"/>
<path d="M10.0813 27.0806L43.7313 7.64673V8.70998L10.0813 28.1242V27.0806Z" fill="#4D4D4D"/>
<path d="M25.7544 16.6058L22.9978 15.0109L22.2102 15.4638V10.9548L28.826 11.2305L25.7544 16.6058Z" fill="#139DC8"/>
<path d="M29.0032 14.7352L25.7544 16.6058V13.0025L29.0032 11.1123V14.7352Z" fill="#2FBAE5"/>
<path d="M25.7544 13.0024L22.2102 10.9547L25.459 9.06445L29.0032 11.1122L25.7544 13.0024Z" fill="#58D8FF"/>
<path d="M27.1326 21.8825L24.7896 20.5239L25.7347 19.9923V14.2822L30.3224 14.8139L27.1326 21.8825Z" fill="#139DC8"/>
<path d="M30.4011 19.9922L27.1326 21.8825V16.6646L30.4011 14.7744V19.9922Z" fill="#2FBAE5"/>
<path d="M29.0186 12.3762L25.7458 14.2683L27.1255 16.6547L30.3983 14.7626L29.0186 12.3762Z" fill="#3CCEFC"/>
<path d="M23.5293 14.6761C23.4112 14.6171 23.3127 14.4596 23.3127 14.3414V13.9476C23.3127 13.8295 23.4112 13.7901 23.5293 13.8689L24.6123 14.4989C24.7304 14.558 24.8289 14.7155 24.8289 14.8337V15.2275C24.8289 15.3456 24.7304 15.385 24.6123 15.3062L23.5293 14.6761Z" fill="#4D4D4D"/>
<path d="M24.6123 15.2471L23.5293 14.617C23.4506 14.5579 23.3718 14.4595 23.3718 14.3807V13.9869C23.3718 13.9082 23.4506 13.8688 23.5293 13.9279L24.6123 14.5579C24.691 14.617 24.7698 14.7155 24.7698 14.7942V15.188C24.7698 15.2668 24.7107 15.3061 24.6123 15.2471Z" fill="#CA9B2B"/>
<path d="M24.5728 14.7548L23.5686 14.1838V14.1248L24.5728 14.7155V14.7548Z" fill="#4D4D4D"/>
<path d="M24.5728 14.8928L23.5686 14.3218V14.2627L24.5728 14.8534V14.8928Z" fill="#4D4D4D"/>
<path d="M24.5728 15.0305L23.5686 14.4595V14.4004L24.5728 14.9911V15.0305Z" fill="#4D4D4D"/>
<path d="M26.1678 5.87472L23.7065 4.47674L26.2465 3L28.6881 4.41767L26.1678 5.87472Z" fill="#58D8FF"/>
<path d="M26.1678 12.7662L23.7065 11.3486V4.47681L26.1678 5.87479V12.7662Z" fill="#139DC8"/>
<path d="M28.688 11.3092L26.1677 12.7662V5.87478L28.688 4.41772V11.3092Z" fill="#2FBAE5"/>
<path d="M28.8457 17.413L28.3337 17.1176L29.4167 16.4875L29.9483 16.7829L28.8457 17.413Z" fill="#58D8FF"/>
<path d="M28.8457 21.4691L28.3337 21.1738V17.1177L28.8457 17.413V21.4691Z" fill="#139DC8"/>
<path d="M29.9483 20.8391L28.8457 21.4692V17.413L29.9483 16.783V20.8391Z" fill="#2FBAE5"/>
<path d="M8.2502 34.9171C8.17144 34.8778 8.11237 34.799 8.07299 34.7202C8.03361 34.6415 8.03361 34.5627 8.07299 34.5233L9.11656 33.3223C9.15594 33.2829 9.21501 33.2829 9.29377 33.3223C9.37253 33.3616 9.43159 33.4404 9.47097 33.5192L10.5145 35.9213C10.5539 36.0001 10.5539 36.0788 10.5145 36.1182C10.4752 36.1576 10.4161 36.1576 10.3373 36.1182L8.2502 34.9171Z" fill="#4D4D4D"/>
<path d="M8.1713 34.6413L9.21486 33.4402C9.23455 33.4206 9.29362 33.4402 9.31331 33.4993L10.3569 35.9015C10.3766 35.9606 10.3569 35.9802 10.2978 35.9606L8.21068 34.7595C8.1713 34.7201 8.15161 34.661 8.1713 34.6413Z" fill="#CA9B2B"/>
<path d="M9.15584 34.74C9.13615 34.7203 9.11646 34.7006 9.11646 34.6612L9.05739 33.9327C9.0377 33.6767 9.41181 33.913 9.39212 34.1296L9.33305 34.799C9.33305 34.8187 9.31336 34.8384 9.29367 34.8187L9.15584 34.74ZM9.21491 34.9369C9.13615 34.8975 9.07708 34.9172 9.07708 34.9959C9.07708 35.0747 9.13615 35.1731 9.21491 35.2125C9.29367 35.2519 9.35274 35.2322 9.35274 35.1534C9.35274 35.0747 9.29367 34.9762 9.21491 34.9369Z" fill="#4D4D4D"/>
<path d="M7.99414 42.0252V37.7722L10.4948 39.2096V43.4626L7.99414 42.0252Z" fill="#4D4D4D"/>
<path d="M10.3766 43.2853L8.1123 41.9858V37.9297L10.3766 39.2489V43.2853Z" fill="#CA9B2B"/>
<path d="M9.66771 39.4654L8.78166 38.9534V38.855L9.66771 39.3669V39.4654ZM10.0418 40.1742L8.42725 39.2291V39.3275L10.0418 40.2727V40.1742ZM10.0418 40.568L8.42725 39.6229V39.5244L10.0418 40.4696V40.568ZM10.0418 40.8634L8.42725 39.9182V39.8198L10.0418 40.7649V40.8634ZM10.0418 41.139L8.42725 40.1939V40.0954L10.0418 41.0406V41.139ZM10.0418 41.4344L8.42725 40.4892V40.3908L10.0418 41.3359V41.4344ZM10.0418 41.7297L8.42725 40.7846V40.6861L10.0418 41.6313V41.7297ZM10.0418 42.0251L8.42725 41.0799V40.9815L10.0418 41.9266V42.0251ZM10.0418 42.3204L8.42725 41.3753V41.2768L10.0418 42.222V42.3204ZM10.0418 42.5961L8.42725 41.6509V41.5525L10.0418 42.4976V42.5961Z" fill="#4D4D4D"/>
<path d="M28.6882 9.51733V10.9744C32.3506 13.1009 31.9764 15.188 32.134 17.7871C32.134 17.7871 32.1143 18.1021 31.8189 18.299C31.5826 18.4369 31.2676 18.4369 30.9132 18.24L29.5349 17.4524C29.4561 17.3933 29.338 17.4327 29.2789 17.5114C29.2199 17.5902 29.2592 17.7083 29.338 17.7674L29.3774 17.7871C29.338 17.8068 29.2986 17.8265 29.2789 17.8658C29.2199 17.9446 29.2592 18.0627 29.338 18.1218L29.3774 18.1415C29.338 18.1612 29.2986 18.1809 29.2789 18.2203C29.2199 18.299 29.2592 18.4172 29.338 18.4762L29.3774 18.4959C29.338 18.5156 29.2986 18.5353 29.2789 18.5747C29.2199 18.6534 29.2592 18.7716 29.338 18.8306L30.736 19.6182C30.9723 19.7561 31.2085 19.8151 31.4448 19.8151C31.6417 19.8151 31.8386 19.7561 31.9961 19.6576C32.3702 19.4213 32.5278 18.9685 32.5278 18.4172C32.5081 15.2471 33.0791 11.9392 28.6882 9.51733Z" fill="#4D4D4D"/>
</svg>
