<svg width="170" height="235" viewBox="0 0 170 235" fill="none" xmlns="http://www.w3.org/2000/svg">
<path d="M159.131 203.419L131.255 219.504C118.015 227.131 96.4645 227.131 83.1313 219.504L10.1395 178.538C3.44184 174.694 0.0930236 169.65 0.0930236 164.606C0.0620161 176.354 0.0310076 162.453 0 174.202C0 179.245 3.31781 184.289 10.0465 188.134L83.0382 229.099C96.3715 236.726 117.922 236.726 131.162 229.099L159.038 213.014C165.611 209.231 168.898 204.249 168.929 199.298C168.96 187.549 168.991 201.45 169.022 189.671C169.022 194.654 165.704 199.636 159.131 203.419Z" fill="#343434"/>
<path d="M158.976 175.77C172.309 183.397 172.371 195.791 159.131 203.418L131.255 219.503C118.015 227.131 96.4644 227.131 83.1312 219.503L10.1394 178.538C-3.19383 170.91 -3.25585 158.516 9.98438 150.889L37.8602 134.835C51.1004 127.207 72.6506 127.207 85.9839 134.835L158.976 175.77Z" fill="#4A4A4A"/>
<mask id="mask0_52_24408" style="mask-type:luminance" maskUnits="userSpaceOnUse" x="127" y="202" width="5" height="3">
<path d="M131.131 204.68C130.635 204.403 130.139 204.126 129.643 203.818C129.147 203.542 128.712 203.111 128.402 202.558C128.278 202.342 128.092 202.158 127.906 202.035C128.402 202.311 128.898 202.588 129.395 202.896C129.581 203.019 129.767 203.173 129.891 203.419C130.201 203.972 130.604 204.372 131.131 204.68Z" fill="white"/>
</mask>
<g mask="url(#mask0_52_24408)">
<path d="M131.131 204.68L129.643 203.818C129.147 203.542 128.712 203.111 128.402 202.558C128.278 202.342 128.092 202.158 127.906 202.035L129.395 202.896C129.581 203.019 129.767 203.173 129.891 203.419C130.201 203.972 130.604 204.372 131.131 204.68Z" fill="#7F8080"/>
</g>
<path d="M147.751 174.324C147.503 174.171 147.255 174.048 147.007 173.894C146.573 173.648 146.014 173.679 145.363 174.048L124.681 185.888C123.41 186.626 122.387 188.379 122.387 189.856L122.418 201.881C122.418 202.619 122.666 203.111 123.1 203.357C123.596 203.634 124.092 203.911 124.588 204.218C124.185 203.972 123.906 203.48 123.906 202.742L123.875 190.717C123.875 189.271 124.898 187.488 126.17 186.749L146.852 174.909C147.503 174.54 148.092 174.509 148.495 174.755C148.216 174.601 147.999 174.447 147.751 174.324Z" fill="#7F8080"/>
<path d="M146.821 174.909C148.093 174.171 149.147 174.755 149.147 176.231L149.178 188.257C149.178 189.702 148.155 191.486 146.883 192.224L145.054 193.27C144.248 193.731 143.566 194.777 143.193 195.822C142.046 199.113 139.504 202.404 136.527 204.095C133.55 205.787 131.007 205.418 129.86 203.45C129.488 202.834 128.806 202.558 128 203.019L126.201 204.065C124.93 204.803 123.876 204.218 123.876 202.742L123.845 190.717C123.845 189.271 124.868 187.488 126.139 186.75L146.821 174.909Z" fill="#636363"/>
<path d="M112.559 197.668L91.6597 185.643L91.5977 175.125L112.497 187.15L112.559 197.668Z" fill="#E2E2E8"/>
<path d="M112.497 187.15L91.5977 175.125L133.303 151.259L154.171 163.284L112.497 187.15Z" fill="#BCBCBC"/>
<path d="M154.17 163.284L154.232 173.802L112.558 197.668L112.496 187.15L154.17 163.284Z" fill="#CDCDCD"/>
<path d="M67.1297 50.6894L20.8975 24.1478L49.3004 7.87842L95.5326 34.42L67.1297 50.6894Z" fill="#595A5A"/>
<path d="M95.5329 34.4199L107.223 50.4433C109.951 54.1954 111.409 59.4238 111.44 65.5748L111.719 161.407L51.7503 195.792L51.4712 99.9589C51.4402 93.8079 52.8665 86.9187 55.5952 80.0604L67.161 50.7201L95.5329 34.4199Z" fill="#CDCDCD"/>
<path d="M67.2231 50.5665L20.8978 24.1479L9.33201 53.4882C6.63436 60.3466 5.20801 67.2357 5.20801 73.3867L5.48708 169.219L51.7193 195.761L51.4403 99.9283C51.4093 93.7773 52.8356 86.8882 55.5643 80.0298L67.2231 50.5665Z" fill="#E2E2E8"/>
<path d="M21.9829 47.1834C21.7658 47.0604 21.4868 47.0604 21.1457 47.2449C21.0216 47.3064 20.8976 47.4294 20.7426 47.5525C18.8201 49.4285 17.1767 51.8889 16.1224 54.5031L13.4558 61.2384C10.6651 68.2813 9.20776 75.355 9.23877 81.6598L9.45582 159.039C9.45582 162.238 10.2 165.006 11.5643 167.036C11.5953 167.066 11.6263 167.097 11.6574 167.128C22.665 173.494 33.7037 179.83 44.7114 186.196C44.6804 186.165 44.6494 186.135 44.6184 186.104C43.254 184.074 42.5099 181.306 42.5099 178.107L42.2928 100.728C42.2618 94.4231 43.7502 87.3494 46.5098 80.3065L49.1765 73.5712C50.1997 70.957 51.8431 68.4966 53.7966 66.6206C53.9206 66.4975 54.0447 66.4053 54.1997 66.313C54.5098 66.1285 54.8199 66.1285 55.0369 66.2515C43.9982 59.8852 32.9906 53.5189 21.9829 47.1834Z" fill="#BCBCBC"/>
<path d="M54.1996 66.3131C55.0678 65.821 55.688 66.5592 55.2229 67.7586L49.9206 81.1986C47.657 86.919 46.4787 92.6702 46.4787 97.7755L46.7268 184.259C46.7268 184.874 46.0446 185.704 45.4245 186.042C45.0834 186.227 44.7733 186.288 44.6493 186.073C43.285 184.043 42.5408 181.275 42.5408 178.077L42.3237 100.697C42.2927 94.3925 43.7811 87.3188 46.5407 80.2759L49.2074 73.5406C50.2306 70.9264 51.874 68.466 53.8275 66.5899C53.9516 66.4669 54.0756 66.3746 54.1996 66.3131Z" fill="#9C9C9B"/>
<path d="M85.8903 206.586L85.7973 172.171L65.1152 160.238L65.2083 194.653C65.2083 195.791 65.6114 196.591 66.2625 196.96L86.9445 208.893C86.2934 208.524 85.8903 207.724 85.8903 206.586Z" fill="#7F8080"/>
<path d="M74.6346 151.873C73.9834 151.504 73.0532 151.535 72.0299 152.119L68.7431 153.995C66.7276 155.133 65.1152 157.932 65.1152 160.238L85.7973 172.171C85.7973 169.865 87.4097 167.097 89.4252 165.928L92.712 164.052C93.7352 163.468 94.6344 163.406 95.3166 163.806C88.4019 159.808 81.5182 155.84 74.6346 151.873Z" fill="#636363"/>
<path d="M92.7116 164.052C94.727 162.914 96.3705 163.837 96.3705 166.112L96.4635 200.527C96.4635 202.834 94.8511 205.602 92.8356 206.771L89.5488 208.647C87.5333 209.785 85.8899 208.862 85.8899 206.586L85.7969 172.171C85.7969 169.865 87.4093 167.097 89.4248 165.928L92.7116 164.052Z" fill="#595A5A"/>
<path d="M123.968 134.589C122.914 133.974 121.456 134.066 119.875 134.989L114.604 138.003L146.169 156.21L151.44 153.196C153.053 152.273 154.51 152.181 155.533 152.796L123.968 134.589Z" fill="#939393"/>
<path d="M126.045 142.093C123.998 140.894 121.89 139.694 113.642 134.927C113.053 134.589 112.247 134.65 111.347 135.143L79.9367 153.134C78.1693 154.149 76.7119 156.61 76.7119 158.639V159.654L108.278 177.861V176.846C108.278 174.817 109.704 172.356 111.502 171.341L142.913 153.35C143.812 152.827 144.618 152.796 145.208 153.134L126.045 142.093Z" fill="#939393"/>
<path d="M76.7121 159.685L71.4408 162.699C68.247 164.514 65.6734 168.942 65.7044 172.571L97.2701 190.778C97.2701 187.149 99.8437 182.721 103.006 180.906L108.278 177.892L76.7121 159.685Z" fill="#939393"/>
<path d="M142.914 153.349C144.681 152.334 146.138 153.134 146.138 155.164V156.179L151.41 153.165C154.603 151.35 157.177 152.796 157.208 156.425L97.2705 190.778C97.2705 187.149 99.8441 182.72 103.007 180.906L108.278 177.892V176.877C108.278 174.847 109.705 172.387 111.503 171.372L142.914 153.349Z" fill="#717171"/>
<path d="M60.5262 180.199L32.9915 164.299L32.8984 154.549L60.4641 170.45L60.5262 180.199Z" fill="white"/>
<path d="M60.4641 170.449L32.8984 154.549L137.084 94.5151L164.65 110.415L60.4641 170.449Z" fill="#E0E1E0"/>
<path d="M164.649 110.416L164.711 120.165L60.5259 180.199L60.4639 170.449L164.649 110.416Z" fill="#ABABAB"/>
<path d="M44.6816 152.642L49.8909 155.625L141.673 103.065L136.495 100.051L44.6816 152.642Z" fill="#838688"/>
<path d="M50.8525 156.178L56.0308 159.162L147.844 106.601L142.635 103.618L50.8525 156.178Z" fill="#838688"/>
<path d="M56.9922 159.716L62.2015 162.73L153.984 110.139L148.806 107.155L56.9922 159.716Z" fill="#838688"/>
<path d="M106.169 171.803L97.7661 166.113L97.7041 150.828L106.107 163.96L106.169 171.803Z" fill="white"/>
<path d="M106.107 163.96L97.7041 150.827L135.192 129.207L143.595 142.339L106.107 163.96Z" fill="#CCCCCC"/>
<path d="M143.595 142.339L143.657 150.151L106.168 171.803L106.106 163.96L143.595 142.339Z" fill="#878A8E"/>
<path d="M39.3796 163.191C40.4028 162.607 41.7981 162.699 43.3175 163.591C46.3873 165.344 48.8679 169.588 48.8369 173.095C48.8369 174.817 48.2167 176.047 47.2245 176.631C46.1392 177.277 45.426 177.739 44.3098 178.384C45.302 177.8 45.9221 176.601 45.9221 174.848C45.9221 171.341 43.4415 167.097 40.4028 165.344C38.8524 164.452 37.4571 164.391 36.4648 164.944C37.5501 164.299 38.2943 163.837 39.3796 163.191Z" fill="#CCCCCC"/>
<path d="M40.4339 165.314C37.3642 163.561 34.8835 164.976 34.8525 168.451C34.8525 171.957 37.3331 176.201 40.3719 177.954C43.4416 179.707 45.9222 178.293 45.9532 174.817C45.9532 171.311 43.5036 167.067 40.4339 165.314Z" fill="#75797B"/>
<path d="M36.3095 165.929C37.2397 165.406 38.48 165.468 39.8753 166.267C42.635 167.867 44.8986 171.711 44.8676 174.848C44.8676 176.416 44.3094 177.524 43.4102 178.046C42.418 178.6 41.7668 179.061 40.7746 179.615C41.6738 179.092 42.2319 177.985 42.2319 176.416C42.2319 173.249 39.9994 169.404 37.2397 167.836C35.8444 167.036 34.573 166.975 33.6738 167.497C34.6661 166.944 35.3482 166.483 36.3095 165.929Z" fill="#CCCCCC"/>
<path d="M37.2703 167.836C34.5106 166.236 32.2471 167.528 32.2471 170.696C32.2471 173.864 34.4796 177.708 37.2393 179.277C39.999 180.876 42.2625 179.584 42.2625 176.416C42.2935 173.279 40.03 169.435 37.2703 167.836Z" fill="#75797B"/>
<path d="M33.7682 168.512C34.5744 168.051 35.6597 168.112 36.9 168.82C39.3185 170.204 41.272 173.556 41.272 176.324C41.272 177.708 40.7759 178.661 40.0007 179.123C39.1325 179.615 38.5744 179.984 37.7062 180.507C38.4813 180.045 38.9775 179.092 38.9775 177.708C38.9775 174.94 37.024 171.588 34.6054 170.204C33.3961 169.496 32.2798 169.435 31.4736 169.896C32.3418 169.373 32.931 169.004 33.7682 168.512Z" fill="#CCCCCC"/>
<path d="M34.6052 170.173C32.1866 168.789 30.2021 169.896 30.2021 172.664C30.2021 175.432 32.1556 178.784 34.5742 180.168C36.9928 181.552 38.9773 180.445 38.9773 177.677C38.9773 174.909 37.0238 171.557 34.6052 170.173Z" fill="#75797B"/>
<path d="M91.0066 67.8504C89.4252 66.9277 87.2547 67.0815 84.8361 68.4347C80.0609 71.1719 76.185 77.815 76.216 83.2587C76.216 85.9651 77.1772 87.8719 78.7276 88.7638C80.433 89.748 79.0997 89.0714 80.8051 90.0555C79.2547 89.1636 78.2935 87.2568 78.2935 84.5504C78.2935 79.1067 82.1384 72.4636 86.9136 69.7264C89.3322 68.3425 91.5027 68.2195 93.0841 69.1421C91.3787 68.1579 92.712 68.8038 91.0066 67.8504Z" fill="#DDDDDD"/>
<path d="M86.9142 69.7265C91.6894 66.9893 95.5963 69.173 95.5963 74.6473C95.6274 80.091 91.7514 86.7341 86.9762 89.4713C82.2011 92.2085 78.2941 90.0249 78.2941 84.5505C78.2631 79.1068 82.1391 72.4637 86.9142 69.7265Z" fill="#C7C6C5"/>
<path d="M93.1472 70.5567C91.7828 69.7571 89.8604 69.8801 87.7518 71.0795C83.5658 73.4784 80.186 79.2911 80.217 84.0582C80.217 86.4263 81.0542 88.0871 82.4185 88.8867C83.9069 89.7478 82.7286 89.1635 84.217 90.0246C82.8526 89.2558 82.0154 87.5642 82.0154 85.1961C82.0154 80.4291 85.3953 74.6164 89.5503 72.2175C91.6588 71.018 93.5503 70.895 94.9456 71.6946C93.4572 70.8335 94.6355 71.4179 93.1472 70.5567Z" fill="#DDDDDD"/>
<path d="M89.5507 72.2177C93.7367 69.8188 97.1475 71.7564 97.1475 76.5234C97.1475 81.2904 93.7677 87.1031 89.6127 89.502C85.4267 91.9009 82.0158 89.9634 82.0158 85.1963C81.9848 80.4293 85.3647 74.6166 89.5507 72.2177Z" fill="#C7C6C5"/>
<path d="M94.7579 72.9865C93.5796 72.3099 91.9672 72.4022 90.1998 73.4171C86.6649 75.4469 83.7812 80.3677 83.7812 84.4274C83.7812 86.4265 84.4944 87.8412 85.6417 88.5178C86.913 89.2559 85.9208 88.7638 87.1611 89.4712C86.0138 88.7946 85.3006 87.3799 85.3006 85.3808C85.3006 81.3211 88.1533 76.4003 91.7192 74.3705C93.5176 73.3556 95.13 73.2633 96.2773 73.9092C95.037 73.2018 96.0292 73.6939 94.7579 72.9865Z" fill="#DDDDDD"/>
<path d="M91.7193 74.3704C95.2852 72.3406 98.1689 73.9706 98.1689 77.9995C98.1689 82.0592 95.3162 86.98 91.7503 89.0098C88.2155 91.0397 85.3008 89.4096 85.3008 85.3807C85.3008 81.3518 88.1535 76.431 91.7193 74.3704Z" fill="#C7C6C5"/>
<mask id="mask1_52_24408" style="mask-type:luminance" maskUnits="userSpaceOnUse" x="130" y="92" width="6" height="4">
<path d="M135.44 95.7146C134.076 94.915 132.68 94.1461 131.316 93.3465C130.975 93.1312 130.665 92.8544 130.386 92.4854L134.51 94.8535C134.789 95.2226 135.099 95.4993 135.44 95.7146Z" fill="white"/>
</mask>
<g mask="url(#mask1_52_24408)">
<path d="M135.44 95.7146L131.316 93.3465C130.975 93.1312 130.665 92.8544 130.386 92.4854L134.51 94.8535C134.789 95.2226 135.099 95.4993 135.44 95.7146Z" fill="#9C9C9B"/>
</g>
<path d="M146.324 61.9458C145.27 61.3615 143.844 61.3922 142.169 62.3764L128.681 70.0651C124.154 72.6486 121.332 79.8452 123.627 83.0438L130.387 92.4856L134.511 94.8537L127.751 85.4119C125.487 82.2441 128.278 75.0475 132.805 72.4333L146.262 64.7138C147.937 63.7604 149.394 63.6989 150.417 64.2832C149.053 63.5143 147.689 62.7455 146.324 61.9458Z" fill="#9C9C9B"/>
<path d="M146.261 64.7447C150.788 62.1613 153.641 66.1287 151.377 71.8799L144.68 89.0104C143.564 91.9014 141.579 94.1465 139.595 95.2845C137.61 96.4224 135.626 96.4224 134.509 94.8539L127.75 85.4121C125.486 82.2443 128.277 75.0477 132.804 72.4335L146.261 64.7447Z" fill="#E2E2E8"/>
<path d="M86.9135 198.713C88.1848 195.084 91.6577 192.408 93.7042 193.608C94.0143 193.792 99.9677 197.298 100.278 197.452C98.5104 196.437 95.6577 198.252 94.0763 201.204C92.898 203.388 92.4019 206.648 94.2623 207.724C93.9522 207.54 87.9988 204.034 87.6887 203.88C86.3244 203.08 86.1383 200.897 86.9135 198.713Z" fill="#C4C7CC"/>
<path d="M97.2695 197.759C94.9129 199.113 93.0215 202.373 93.0215 205.048C93.0215 207.724 94.944 208.8 97.3005 207.447C99.6571 206.094 101.549 202.834 101.549 200.158C101.518 197.483 99.6261 196.406 97.2695 197.759Z" fill="#B6B9BD"/>
<path d="M96.0615 202.773C96.5886 201.266 98.0149 200.158 98.8831 200.651C99.0072 200.712 104.899 204.157 105.023 204.218C104.278 203.788 103.1 204.556 102.449 205.756C101.953 206.648 101.767 208.001 102.511 208.462C102.387 208.401 96.4956 204.956 96.3715 204.864C95.8134 204.587 95.7204 203.665 96.0615 202.773Z" fill="#4D4D4D"/>
<path d="M103.752 204.372C102.791 204.925 101.984 206.279 101.984 207.386C101.984 208.493 102.791 208.954 103.752 208.37C104.713 207.816 105.519 206.463 105.519 205.356C105.519 204.249 104.744 203.818 103.752 204.372Z" fill="#343434"/>
<path d="M128.092 85.3503L154.386 70.2495C154.417 62.0072 147.781 53.2728 141.518 48.1674C138.386 45.6148 128.898 37.9568 128.898 37.9568C123.813 33.9894 120.898 31.5597 112.805 26.8542C100.712 19.7806 88.4639 13.8141 76.371 8.67799L60.123 1.75811C56.5572 -0.302473 53.3014 -0.487003 50.9448 0.866217C38.5418 8.00138 37.0534 8.83177 24.6504 15.9669C27.007 14.6137 30.2318 14.7982 33.8286 16.8588L50.0766 23.7787C62.1695 28.9148 73.7664 35.7424 85.9523 42.7238C98.7895 50.0742 88.9911 44.2 101.735 53.4573L114.045 63.8832C121.053 67.8814 128.123 77.1694 128.092 85.3503Z" fill="#F2F2F2"/>
<path d="M86.5104 41.9551C98.8824 49.6438 100.898 51.3968 105.952 55.272C108.96 57.5479 112.433 60.6234 115.192 63.2683C122.479 70.2804 128.061 77.2311 128.061 85.3504L20.8984 24.1479C20.9294 16.0286 26.7279 12.7686 33.8286 16.8282L50.0765 23.7481C62.1695 28.9149 74.3555 34.9737 86.5104 41.9551Z" fill="#BCBCBC"/>
<path d="M21.9837 174.325C20.7744 170.388 20.5574 164.944 24.1232 162.884C23.317 163.345 22.4798 163.837 21.6737 164.299C17.4256 166.728 18.4799 173.71 20.4644 178.2C21.9837 181.614 24.4643 184.966 27.4721 187.119C31.224 189.825 34.2007 189.671 35.9681 188.656C36.3712 188.41 36.8053 188.195 37.2084 187.949C37.2394 187.918 37.3015 187.888 37.3325 187.888C37.9526 187.549 37.6115 187.734 38.4487 187.242C33.4255 190.163 24.8364 183.49 21.9837 174.325Z" fill="#B0B0B0"/>
<path d="M30.3235 163.899C35.9048 167.097 40.4009 174.817 40.3699 181.183C40.3389 187.549 35.8118 190.102 30.2614 186.904C24.6801 183.705 20.184 175.986 20.215 169.619C20.215 163.284 24.7421 160.7 30.3235 163.899ZM32.711 172.603L28.6801 164.668C25.1452 163.407 22.3545 164.975 21.7034 168.635L32.711 172.603ZM28.618 184.259L32.68 176.324L21.6724 172.326C22.3235 176.724 25.0832 181.491 28.618 184.259ZM31.8738 186.135C35.4087 187.396 38.1994 185.827 38.8505 182.167L35.9358 178.169L31.8738 186.135Z" fill="#C9C9C9"/>
<path d="M42.6345 180.199C41.6423 168.82 29.9834 157.379 23.1928 161.285L20.7432 162.699C27.6889 158.701 39.6578 170.696 40.2469 182.26C40.402 185.366 39.6268 188.749 36.9291 190.317C37.7353 189.856 38.5725 189.364 39.3787 188.903C42.2314 187.211 42.9136 183.49 42.6345 180.199Z" fill="#B0B0B0"/>
<path d="M28.8362 163.468C35.1307 167.066 40.247 175.862 40.216 183.028C40.185 190.194 35.0377 193.116 28.7432 189.487C22.4487 185.888 17.3324 177.123 17.3634 169.927C17.3944 162.791 22.5417 159.87 28.8362 163.468ZM28.7742 188.011C34.3246 191.209 38.8827 188.626 38.8827 182.29C38.9137 175.955 34.3866 168.204 28.8362 165.006C23.2859 161.807 18.7278 164.391 18.7278 170.726C18.6967 177.062 23.2239 184.812 28.7742 188.011Z" fill="#5E5F5F"/>
<path d="M33.4256 172.233C33.7667 172.018 34.2628 172.049 34.8209 172.356C35.9062 172.971 36.7744 174.478 36.7744 175.708C36.7744 176.323 36.5574 176.754 36.2163 176.939C35.8442 177.154 35.4411 177.369 35.069 177.615C35.4101 177.4 35.6271 176.969 35.6271 176.385C35.6271 175.155 34.7589 173.648 33.6737 173.033C33.1155 172.725 32.6504 172.694 32.2783 172.91C32.6504 172.694 33.0535 172.448 33.4256 172.233Z" fill="#979B9D"/>
<path d="M33.6742 173.033C32.5889 172.418 31.7207 172.91 31.7207 174.14C31.7207 175.37 32.5889 176.877 33.6742 177.492C34.7594 178.107 35.6277 177.615 35.6277 176.385C35.6277 175.155 34.7594 173.648 33.6742 173.033Z" fill="#75797B"/>
<path d="M27.1935 186.873C27.4105 186.75 27.7206 186.75 28.0617 186.965C28.7439 187.365 29.302 188.287 29.271 189.056C29.271 189.425 29.147 189.702 28.8989 189.825C28.6508 189.979 22.2943 193.577 22.0462 193.7C22.2633 193.577 22.3873 193.3 22.4183 192.931C22.4183 192.163 21.8602 191.209 21.209 190.84C20.8679 190.656 20.5579 190.625 20.3408 190.748C20.5889 190.625 26.9454 187.026 27.1935 186.873Z" fill="#979B9D"/>
<path d="M21.2091 190.84C20.5269 190.44 19.9688 190.779 19.9688 191.547C19.9688 192.316 20.5269 193.27 21.178 193.639C21.8602 194.039 22.4183 193.731 22.4183 192.931C22.4494 192.162 21.8912 191.24 21.2091 190.84Z" fill="#75797B"/>
<path d="M135.999 87.5641L138.976 82.3972L143.069 81.3208L144.96 83.2276L143.193 89.8707L139.813 91.9005L136.65 90.8549L135.999 87.5641Z" fill="#D3D3D3"/>
<path d="M156.31 170.603C156.961 168.481 157.085 165.559 155.163 164.482C155.597 164.728 156.031 164.975 156.465 165.251C158.729 166.574 158.171 170.295 157.116 172.725C156.31 174.57 154.977 176.354 153.364 177.523C151.349 178.968 149.767 178.907 148.806 178.353C148.589 178.23 148.372 178.107 148.155 177.984C148.124 177.984 148.093 177.953 148.093 177.953C147.783 177.769 147.938 177.861 147.504 177.615C150.171 179.091 154.791 175.523 156.31 170.603Z" fill="#B0B0B0"/>
<path d="M157.272 168.081C157.272 171.494 154.853 175.646 151.877 177.338C148.9 179.06 146.45 177.676 146.45 174.262C146.45 170.849 148.869 166.697 151.845 165.005C154.822 163.283 157.272 164.667 157.272 168.081ZM150.574 169.68L156.466 167.527C156.094 165.589 154.605 164.728 152.714 165.405L150.574 169.68ZM152.745 175.923C154.636 174.447 156.125 171.894 156.466 169.526L150.574 171.679L152.745 175.923ZM151.008 176.938L148.838 172.694L147.287 174.847C147.628 176.754 149.117 177.615 151.008 176.938Z" fill="#C9C9C9"/>
<path d="M145.24 173.74C145.768 167.62 152.031 161.499 155.659 163.591L156.961 164.36C153.24 162.207 146.822 168.665 146.512 174.847C146.419 176.508 146.822 178.322 148.279 179.153C147.845 178.907 147.411 178.661 146.977 178.384C145.458 177.523 145.085 175.493 145.24 173.74Z" fill="#B0B0B0"/>
<path d="M158.79 168.266C158.79 172.11 156.061 176.816 152.681 178.753C149.302 180.691 146.542 179.122 146.542 175.278C146.542 171.433 149.271 166.728 152.65 164.79C155.999 162.853 158.759 164.39 158.79 168.266ZM152.681 177.923C155.658 176.2 158.077 172.048 158.077 168.665C158.077 165.252 155.627 163.898 152.65 165.59C149.674 167.312 147.255 171.464 147.255 174.847C147.255 178.261 149.674 179.645 152.681 177.923Z" fill="#5E5F5F"/>
<path d="M150.171 169.465C149.985 169.342 149.706 169.373 149.427 169.527C148.838 169.865 148.373 170.665 148.373 171.31C148.373 171.649 148.497 171.864 148.683 171.987C148.9 172.11 149.086 172.233 149.303 172.356C149.117 172.264 148.993 172.018 148.993 171.679C148.993 171.034 149.458 170.203 150.047 169.896C150.327 169.742 150.606 169.711 150.792 169.834C150.575 169.711 150.389 169.588 150.171 169.465Z" fill="#979B9D"/>
<path d="M150.047 169.896C150.637 169.558 151.102 169.835 151.102 170.48C151.102 171.126 150.637 171.957 150.047 172.264C149.458 172.603 148.993 172.326 148.993 171.68C148.993 171.034 149.458 170.234 150.047 169.896Z" fill="#75797B"/>
<path d="M153.519 177.338C153.395 177.277 153.24 177.277 153.053 177.369C152.681 177.584 152.402 178.076 152.402 178.507C152.402 178.722 152.464 178.845 152.588 178.938C152.712 178.999 156.123 180.937 156.278 181.029C156.154 180.967 156.092 180.814 156.092 180.598C156.092 180.168 156.371 179.676 156.743 179.46C156.929 179.368 157.084 179.337 157.209 179.43C157.053 179.337 153.643 177.4 153.519 177.338Z" fill="#E2E2E2"/>
<path d="M156.713 179.46C157.085 179.245 157.364 179.429 157.364 179.829C157.364 180.229 157.085 180.752 156.713 180.967C156.341 181.182 156.062 180.998 156.062 180.598C156.062 180.167 156.372 179.675 156.713 179.46Z" fill="#939393"/>
<path d="M143.254 83.0745L141.518 82.0596C142.138 82.4286 142.541 83.1975 142.541 84.3047C142.541 86.519 140.959 89.2255 139.037 90.3327C138.045 90.8863 137.177 90.9478 136.525 90.5787L138.262 91.5936C138.913 91.9627 139.781 91.9012 140.773 91.3476C142.727 90.2404 144.277 87.534 144.277 85.3196C144.277 84.2124 143.905 83.4128 143.254 83.0745Z" fill="#646464"/>
<path d="M142.603 80.1834C141.673 79.6606 140.402 79.7221 139.006 80.5217C136.216 82.121 133.952 85.9961 133.952 89.1946C133.952 90.7631 134.51 91.9011 135.441 92.3931L137.177 93.408C136.278 92.8852 135.72 91.778 135.689 90.1788C135.689 87.011 137.921 83.1051 140.712 81.5059C142.107 80.7062 143.378 80.614 144.309 81.1675C143.782 80.86 143.192 80.5217 142.603 80.1834Z" fill="#646464"/>
<path d="M140.775 81.5363C143.565 79.9371 145.829 81.2288 145.86 84.3966C145.86 87.5643 143.627 91.4395 140.837 93.0387C138.046 94.638 135.782 93.3463 135.751 90.1785C135.72 87.0107 137.984 83.1356 140.775 81.5363ZM140.775 91.3164C142.728 90.2093 144.278 87.5028 144.278 85.2885C144.278 83.0741 142.697 82.1822 140.744 83.2894C138.821 84.3966 137.24 87.103 137.24 89.3174C137.271 91.5317 138.852 92.4236 140.775 91.3164Z" fill="#333333"/>
<path d="M35.2548 103.28C37.7975 104.726 39.844 108.232 39.813 111.123L39.7819 124.593C39.7819 127.484 37.7044 128.653 35.1928 127.208L29.0223 123.671C26.4797 122.225 24.4332 118.719 24.4642 115.828L24.4952 102.357C24.4952 99.4665 26.5727 98.2978 29.0843 99.7433L35.2548 103.28Z" fill="#D2D2D2"/>
<path d="M30.7276 114.721C31.0377 114.536 31.4408 114.567 31.9059 114.844C32.8361 115.367 33.5803 116.658 33.5803 117.704C33.5803 118.227 33.3942 118.596 33.0842 118.78C32.7431 118.965 32.433 119.15 32.0919 119.365C32.402 119.18 32.588 118.811 32.588 118.288C32.588 117.243 31.8439 115.951 30.9136 115.428C30.4485 115.151 30.0144 115.151 29.7354 115.305C30.0454 115.121 30.3865 114.936 30.7276 114.721Z" fill="#58D8FF"/>
<path d="M30.9137 115.428C29.9834 114.905 29.2393 115.336 29.2393 116.382C29.2393 117.427 29.9834 118.719 30.9137 119.242C31.8439 119.765 32.5881 119.334 32.5881 118.288C32.5881 117.243 31.8439 115.951 30.9137 115.428Z" fill="#2FBAE5"/>
<path d="M30.7276 105.802C31.0377 105.617 31.4408 105.648 31.9059 105.925C32.8361 106.448 33.5803 107.739 33.5803 108.785C33.5803 109.308 33.3942 109.677 33.0842 109.862C32.7431 110.046 32.433 110.231 32.0919 110.415C32.402 110.231 32.588 109.862 32.588 109.339C32.588 108.293 31.8439 107.001 30.9136 106.478C30.4485 106.202 30.0144 106.171 29.7354 106.355C30.0454 106.202 30.3865 106.017 30.7276 105.802Z" fill="#E2E2E2"/>
<path d="M30.9137 106.509C29.9834 105.986 29.2393 106.417 29.2393 107.463C29.2393 108.508 29.9834 109.8 30.9137 110.323C31.8439 110.846 32.5881 110.415 32.5881 109.369C32.5881 108.324 31.8439 107.032 30.9137 106.509Z" fill="#C7C6C5"/>
</svg>
